<svg width="120" height="80" viewBox="0 0 120 80" fill="none" xmlns="http://www.w3.org/2000/svg">
<g clip-path="url(#clip0_262_2048)">
<path d="M59.4914 5.56844C60.3028 6.1385 60.8842 6.96397 61.417 7.78562C61.4734 7.87146 61.5299 7.9573 61.588 8.04574C61.7615 8.30999 61.9339 8.57487 62.1061 8.83991C62.2087 8.9971 62.3113 9.15429 62.4139 9.31147C62.615 9.62002 62.8155 9.9289 63.0157 10.238C63.3553 10.7623 63.6966 11.2854 64.038 11.8084C64.7089 12.8363 64.7089 12.8363 65.0238 13.3225C65.5209 14.0896 66.0208 14.8549 66.5239 15.6181C66.5738 15.6937 66.6236 15.7694 66.675 15.8473C66.7257 15.9242 66.7765 16.0012 66.8287 16.0805C66.9332 16.2389 67.0376 16.3973 67.142 16.5557C67.1939 16.6345 67.2459 16.7133 67.2994 16.7945C67.9334 17.7566 68.5616 18.7213 69.1759 19.6961C69.6808 20.4941 70.2065 21.278 70.7317 22.0626C71.2457 22.8305 71.7515 23.6031 72.251 24.3805C72.4925 24.7552 72.7358 25.1287 72.9789 25.5024C73.0824 25.6617 73.186 25.821 73.2896 25.9802C73.3941 26.141 73.4986 26.3017 73.6032 26.4625C73.9638 27.0168 74.3243 27.5713 74.6845 28.1259C74.7768 28.2679 74.8691 28.41 74.9614 28.552C75.428 29.2702 75.8914 29.9903 76.3499 30.7137C76.9909 31.7251 77.6458 32.7259 78.3151 33.7188C78.1094 33.9245 78.0016 33.9609 77.7283 34.0435C77.6474 34.0687 77.5664 34.094 77.483 34.12C77.3961 34.147 77.3091 34.174 77.2196 34.2018C73.9359 35.2633 71.3945 37.4964 69.7965 40.5436C69.5155 41.1032 69.2863 41.6721 69.0856 42.265C69.0602 42.3398 69.0347 42.4146 69.0085 42.4916C68.6002 43.7731 68.4617 45.0327 68.4731 46.3703C68.4735 46.4781 68.4735 46.4781 68.474 46.588C68.4807 47.7379 68.5676 48.819 68.8913 49.9278C68.9201 50.0329 68.9201 50.0329 68.9494 50.1402C69.7764 53.1163 71.6283 55.3756 74.0744 57.1841C74.1366 57.2152 74.1988 57.2463 74.2629 57.2784C74.0884 59.263 73.4771 61.3558 72.3781 63.0269C72.3397 63.0929 72.3013 63.1588 72.2617 63.2268C72.0954 63.4039 72.0954 63.4039 71.8487 63.4517C71.6981 63.4523 71.6981 63.4523 71.5445 63.4528C71.4283 63.4541 71.3121 63.4554 71.1924 63.4568C71.0623 63.4563 70.9322 63.4558 70.8021 63.4553C70.6638 63.4561 70.5255 63.4571 70.3872 63.4583C70.0026 63.4609 69.618 63.4612 69.2335 63.4611C68.811 63.4614 68.3886 63.4639 67.9662 63.4661C67.1196 63.4701 66.273 63.472 65.4264 63.4731C64.7269 63.4741 64.0275 63.4758 63.3281 63.4781C63.2277 63.4784 63.1273 63.4787 63.0238 63.479C62.8184 63.4797 62.6129 63.4804 62.4075 63.481C60.3483 63.4874 58.2891 63.491 56.2298 63.4938C54.2376 63.4965 52.2454 63.5007 50.2531 63.5058C47.1776 63.5136 44.1021 63.5197 41.0265 63.5236C40.7832 63.5239 40.5398 63.5242 40.2964 63.5245C40.1344 63.5247 39.9723 63.5249 39.8103 63.5251C38.5944 63.5266 37.3786 63.5291 36.1627 63.532C34.7646 63.5354 33.3664 63.5373 31.9683 63.5375C31.1747 63.5377 30.3811 63.5389 29.5874 63.5415C29.0519 63.5432 28.5164 63.5435 27.9809 63.5427C27.6745 63.5423 27.3682 63.5427 27.0619 63.5443C26.7303 63.546 26.3987 63.5453 26.0671 63.5441C25.9724 63.5451 25.8777 63.5461 25.7801 63.5472C24.5818 63.5364 23.5845 63.1017 22.7145 62.2844C21.8478 61.3598 21.5311 60.2809 21.555 59.035C21.6953 57.3576 22.8059 55.8784 23.6911 54.5031C23.8467 54.2607 24.001 54.0174 24.155 53.7739C24.8134 52.733 25.483 51.7 26.1586 50.6702C26.6134 49.9761 27.0629 49.2788 27.5089 48.579C28.051 47.7291 28.5992 46.8833 29.1522 46.0405C29.1894 45.9837 29.2267 45.9269 29.2651 45.8684C29.5703 45.4033 29.8757 44.9385 30.1813 44.4737C31.1909 42.9379 32.194 41.3987 33.175 39.8443C33.2703 39.6934 33.3657 39.5424 33.461 39.3915C33.6 39.1713 33.7391 38.9512 33.878 38.7309C34.6641 37.4856 35.4532 36.2422 36.2551 35.007C36.6369 34.4184 37.0145 33.8271 37.3921 33.2358C37.9403 32.3779 38.4937 31.5236 39.0512 30.6717C39.4839 30.0094 39.9114 29.3439 40.3371 28.6771C40.8775 27.8305 41.4232 26.9876 41.9733 26.1473C42.4005 25.4936 42.8214 24.836 43.2408 24.1772C43.8174 23.272 44.4085 22.3775 45.006 21.4861C45.4537 20.818 45.8945 20.147 46.3164 19.4623C46.7729 18.7222 47.2513 17.9963 47.7266 17.2682C47.9539 16.9193 48.1802 16.5697 48.4062 16.2199C48.4483 16.155 48.4903 16.09 48.5336 16.023C48.6178 15.8928 48.702 15.7625 48.7862 15.6323C49.0011 15.3 49.2161 14.9678 49.4311 14.6356C49.5175 14.5021 49.6038 14.3686 49.6902 14.2351C51.2452 11.832 51.2452 11.832 51.3747 11.6318C51.4612 11.4981 51.5477 11.3645 51.6341 11.2308C51.8486 10.8992 52.0633 10.5677 52.2785 10.2365C52.364 10.1048 52.4495 9.97298 52.5351 9.84119C52.5986 9.74341 52.5986 9.74341 52.6635 9.64365C52.8948 9.28671 53.1224 8.92787 53.346 8.56603C55.1521 5.64823 55.1521 5.64823 56.9249 5.10645C57.8235 4.93276 58.7011 5.11781 59.4914 5.56844Z" fill="#12C66F"/>
<path d="M89.5411 36.2571C89.695 36.3838 89.8481 36.5114 90.0005 36.64C90.1151 36.7355 90.1151 36.7355 90.232 36.8329C92.7185 38.9787 94.2178 42.154 94.5239 45.4042C94.6999 48.4289 93.947 51.4543 92.2622 53.9798C92.2035 54.0449 92.1449 54.1101 92.0844 54.1771C92.0498 54.2364 92.0152 54.2957 91.9795 54.3568C92.0993 54.7346 92.2957 55.0593 92.4996 55.3975C92.5317 55.451 92.5638 55.5046 92.5969 55.5598C92.7329 55.7869 92.8696 56.0135 93.0064 56.2401C94.5993 58.8847 94.5993 58.8847 94.2294 60.4234C93.8621 61.6489 93.2161 62.4458 92.1326 63.0963C91.4958 63.4024 90.9295 63.4296 90.2335 63.4221C90.1403 63.4218 90.0471 63.4215 89.9511 63.4213C89.6554 63.4202 89.3597 63.4178 89.064 63.4154C88.8627 63.4145 88.6614 63.4136 88.4601 63.4129C87.9683 63.4108 87.4766 63.4076 86.9849 63.4037C87.0471 63.0628 87.1341 62.7399 87.24 62.4101C87.7384 60.8371 88.1549 59.2892 88.3984 57.6551C88.3003 57.7098 88.2021 57.7645 88.101 57.8208C85.7582 59.1068 83.4503 59.6568 80.7651 59.5399C80.8586 58.8952 80.9827 58.2626 81.1369 57.6301C81.1535 57.5615 81.17 57.4928 81.1871 57.4221C81.2557 57.1383 81.3244 56.8546 81.3958 56.5715C81.7824 55.0309 81.9482 53.686 81.109 52.2548C80.662 51.5932 80.0235 51.1739 79.2573 50.9642C78.3091 50.8676 77.5295 50.953 76.7515 51.5186C75.3863 52.6642 74.9223 54.2502 74.6102 55.9412C74.5852 56.0718 74.5601 56.2024 74.5349 56.333C74.4746 56.6479 74.4153 56.9629 74.3569 57.2782C73.9669 57.1974 73.7101 57.0034 73.4028 56.7599C73.3487 56.7175 73.2947 56.6751 73.239 56.6314C70.6159 54.5531 68.9773 51.6686 68.4555 48.3627C68.3914 47.7863 68.3885 47.2103 68.3902 46.6311C68.3905 46.4188 68.3883 46.2066 68.3859 45.9942C68.3801 44.7113 68.5721 43.4952 68.9853 42.2766C69.0131 42.1947 69.0408 42.1127 69.0693 42.0283C69.5857 40.5712 70.328 39.2217 71.3413 38.0536C71.3841 38.0031 71.427 37.9527 71.4711 37.9007C72.4839 36.7145 73.6612 35.8057 75.0166 35.0379C75.1019 34.9889 75.1872 34.9398 75.275 34.8892C79.8224 32.4416 85.5279 33.1185 89.5411 36.2571Z" fill="#FCBE21"/>
<path d="M79.982 51.1184C80.9645 51.7012 81.4454 52.5357 81.8013 53.6031C81.9163 54.8719 81.6328 56.0356 81.336 57.2608C81.2912 57.4512 81.2466 57.6417 81.2022 57.8323C81.121 58.178 81.0394 58.5235 80.9561 58.8686C80.9396 58.9371 80.923 59.0056 80.906 59.0762C80.8653 59.2327 80.8158 59.3868 80.7646 59.5402C83.5842 59.5209 85.9481 58.9256 88.3979 57.5612C88.5248 57.9416 88.4295 58.241 88.3449 58.6213C88.3279 58.6997 88.3108 58.7781 88.2932 58.8589C88.154 59.4851 88.0026 60.1083 87.8443 60.7299C87.8236 60.8128 87.8029 60.8957 87.7815 60.9811C87.5644 61.8133 87.2741 62.583 86.9844 63.4039C88.2594 63.4039 89.5345 63.4039 90.8481 63.4039C90.8481 63.435 90.8481 63.4661 90.8481 63.4982C89.542 63.5293 88.2359 63.5604 86.8901 63.5924C86.756 63.8995 86.6219 64.2066 86.4837 64.523C85.6402 66.4012 84.5144 68.1122 83.1096 69.6203C82.9619 69.78 82.8252 69.9419 82.6906 70.1125C82.3909 70.4584 82.0563 70.7424 81.707 71.0372C81.611 71.1202 81.5151 71.2033 81.4192 71.2864C80.8162 71.8067 80.2082 72.2986 79.5396 72.7335C79.448 72.7933 79.3564 72.8531 79.262 72.9146C77.6445 73.94 75.8723 74.7616 74.0207 75.2603C73.9576 75.2775 73.8946 75.2947 73.8296 75.3124C72.4781 75.6526 71.1196 75.7968 69.7287 75.786C69.4969 75.7845 69.2654 75.786 69.0336 75.7878C64.6431 75.7935 60.7296 73.8042 57.6115 70.8134C55.974 69.1274 53.4355 65.832 53.4355 63.4039C53.531 63.4046 53.6265 63.4052 53.7248 63.4059C56.0482 63.4213 58.3716 63.4296 60.695 63.4305C61.8187 63.4312 62.9422 63.4341 64.0658 63.4424C65.0452 63.4496 66.0245 63.4525 67.0039 63.4503C67.5225 63.4493 68.0408 63.4504 68.5594 63.4567C69.0477 63.4625 69.5357 63.4626 70.0241 63.4583C70.2031 63.4577 70.3821 63.4592 70.5611 63.463C71.3425 63.4889 71.3425 63.4889 72.0947 63.3097C72.4742 62.9417 72.652 62.577 72.8486 62.0846C72.9014 61.9661 72.9547 61.8479 73.0086 61.7299C73.5984 60.4181 73.9042 58.9961 74.1838 57.5921C74.2019 57.5017 74.2199 57.4114 74.2385 57.3183C74.3296 56.8609 74.4188 56.4032 74.5051 55.9449C74.8273 54.2708 75.3021 52.5376 76.7124 51.4357C77.7303 50.8373 78.8676 50.5886 79.982 51.1184Z" fill="#F2D4B7"/>
<path d="M89.5411 36.2571C89.695 36.3838 89.8481 36.5114 90.0005 36.64C90.1151 36.7355 90.1151 36.7355 90.232 36.8329C92.7185 38.9787 94.2178 42.154 94.5239 45.4042C94.6999 48.4289 93.947 51.4543 92.2622 53.9798C92.2035 54.0449 92.1449 54.1101 92.0844 54.1771C92.0498 54.2364 92.0152 54.2957 91.9795 54.3568C92.0993 54.7346 92.2957 55.0593 92.4996 55.3975C92.5317 55.451 92.5638 55.5046 92.5969 55.5598C92.7329 55.7869 92.8696 56.0135 93.0064 56.2401C94.5993 58.8847 94.5993 58.8847 94.2294 60.4234C93.8621 61.6489 93.2161 62.4458 92.1326 63.0963C91.4958 63.4024 90.9295 63.4296 90.2335 63.4221C90.1403 63.4218 90.0471 63.4215 89.9511 63.4213C89.6554 63.4202 89.3597 63.4178 89.064 63.4154C88.8627 63.4145 88.6614 63.4136 88.4601 63.4129C87.9683 63.4108 87.4766 63.4076 86.9849 63.4037C87.0471 63.0628 87.1341 62.7399 87.24 62.4101C87.7384 60.8371 88.1549 59.2892 88.3984 57.6551C88.3003 57.7098 88.2021 57.7645 88.101 57.8208C85.7582 59.1068 83.4503 59.6568 80.7651 59.5399C81.1126 57.3076 81.1126 57.3076 81.4248 56.9955C81.6484 56.9499 81.6484 56.9499 81.9302 56.9178C82.0864 56.8983 82.0864 56.8983 82.2457 56.8785C82.3577 56.8646 82.4697 56.8507 82.5851 56.8364C84.1951 56.6164 85.7248 56.2323 87.0791 55.2992C87.1666 55.24 87.254 55.1809 87.3441 55.1199C89.6547 53.4993 91.2227 51.2131 91.749 48.4257C92.1372 45.5493 91.5723 42.6033 89.8143 40.2663C88.025 37.9751 85.4772 36.4604 82.5786 36.096C79.7718 35.8119 77.0027 36.6365 74.8116 38.4163C72.5932 40.2763 71.3379 42.7345 70.9644 45.5926C70.7486 48.2026 71.6669 51.0198 73.3203 53.0375C73.753 53.5198 74.2153 54.0038 74.7258 54.4039C74.8281 54.5453 74.8281 54.5453 74.8244 54.7879C74.8062 54.8847 74.788 54.9815 74.7692 55.0812C74.7401 55.2427 74.7401 55.2427 74.7103 55.4074C74.687 55.5272 74.6637 55.647 74.6396 55.7704C74.614 55.909 74.5885 56.0477 74.5631 56.1863C74.4961 56.5506 74.427 56.9145 74.3569 57.2782C73.966 57.2253 73.7025 56.9974 73.4028 56.7599C73.3487 56.7175 73.2947 56.6751 73.239 56.6314C70.6159 54.5531 68.9773 51.6686 68.4555 48.3627C68.3914 47.7863 68.3885 47.2103 68.3902 46.6311C68.3905 46.4188 68.3883 46.2066 68.3859 45.9942C68.3801 44.7113 68.5721 43.4952 68.9853 42.2766C69.0131 42.1947 69.0408 42.1127 69.0693 42.0283C69.5857 40.5712 70.328 39.2217 71.3413 38.0536C71.3841 38.0031 71.427 37.9527 71.4711 37.9007C72.4839 36.7145 73.6612 35.8057 75.0166 35.0379C75.1019 34.9889 75.1872 34.9398 75.275 34.8892C79.8224 32.4416 85.5279 33.1185 89.5411 36.2571Z" fill="#FED13A"/>
<path d="M91.7905 54.5454C91.8527 54.5454 91.9149 54.5454 91.979 54.5454C92.1028 54.7195 92.2174 54.9001 92.328 55.0829C92.3619 55.1387 92.3959 55.1946 92.4309 55.2522C92.5031 55.3715 92.575 55.491 92.6466 55.6107C92.754 55.7899 92.8624 55.9683 92.9711 56.1467C94.6074 58.8494 94.6074 58.8494 94.2289 60.4235C93.8616 61.6491 93.2156 62.446 92.1321 63.0964C91.4953 63.4025 90.929 63.4298 90.233 63.4222C90.0932 63.4218 90.0932 63.4218 89.9506 63.4214C89.6549 63.4204 89.3592 63.418 89.0635 63.4156C88.8622 63.4146 88.6609 63.4138 88.4596 63.413C87.9679 63.4109 87.4761 63.4078 86.9844 63.4038C87.0466 63.063 87.1336 62.74 87.2395 62.4103C87.2872 62.2597 87.2872 62.2597 87.3359 62.1061C87.3695 61.9998 87.4032 61.8936 87.4379 61.7841C87.6683 61.047 87.8881 60.313 88.0504 59.5577C88.0654 59.4901 88.0803 59.4225 88.0957 59.3528C88.1607 59.05 88.2138 58.7509 88.2514 58.4434C88.3344 57.8762 88.4418 57.5516 88.9017 57.1846C89.1174 57.0269 89.3377 56.8771 89.5599 56.7287C90.3073 56.2063 91.0128 55.498 91.5844 54.7869C91.6524 54.7072 91.7204 54.6275 91.7905 54.5454Z" fill="#12C66F"/>
<path d="M52.3999 36.3572C52.7966 36.5984 53.0831 36.9452 53.3835 37.2937C54.2896 38.3409 55.6147 39.1962 57.0176 39.3728C58.7831 39.4972 60.4144 39.2583 61.8167 38.1106C62.2792 37.665 62.6569 37.1822 63.0043 36.6429C63.1431 36.4514 63.1431 36.4514 63.4258 36.263C63.8861 36.1959 64.256 36.1943 64.6568 36.4397C64.9698 36.783 64.9776 37.056 64.9711 37.5087C64.848 38.3682 64.1026 39.0623 63.52 39.6555C63.4562 39.7216 63.3925 39.7877 63.3268 39.8558C61.7397 41.386 59.5432 41.7883 57.4196 41.7542C55.6627 41.689 53.9835 41.0281 52.6826 39.844C52.6035 39.7771 52.5244 39.7101 52.443 39.6412C50.9645 38.3685 50.9645 38.3685 50.8597 37.6397C50.8218 36.9465 50.8218 36.9465 51.0095 36.6311C51.4328 36.2166 51.8488 36.1562 52.3999 36.3572Z" fill="#044C23"/>
<path d="M62.2946 28.1586C62.8856 28.3998 63.023 28.8389 63.2841 29.3973C63.5195 29.8454 63.7893 30.0392 64.2442 30.2613C64.9507 30.4079 65.5598 30.4138 66.1908 30.0408C66.3469 29.9491 66.3469 29.9491 66.6296 29.8549C66.7373 29.6848 66.7373 29.6848 66.8181 29.478C66.847 29.409 66.8759 29.34 66.9057 29.2689C66.9351 29.1979 66.9645 29.127 66.9948 29.0539C67.2629 28.4589 67.2629 28.4589 67.572 28.2529C68.0038 28.1484 68.2183 28.1221 68.6381 28.2646C68.9266 28.466 69.0434 28.5859 69.174 28.9125C69.2648 29.6647 69.0554 30.352 68.6064 30.9622C67.7689 31.9226 66.8105 32.5404 65.5083 32.6305C64.0974 32.6814 62.8891 32.4477 61.8235 31.457C61.3008 30.8539 60.8889 30.1821 60.8398 29.3719C60.896 28.8744 61.0875 28.6178 61.4288 28.2646C61.7365 28.1064 61.9533 28.1174 62.2946 28.1586Z" fill="#044C23"/>
<path d="M48.0642 28.2528C48.5138 28.4981 48.6303 28.8202 48.8158 29.2721C48.9973 29.6592 49.2804 29.8743 49.6191 30.1199C50.2909 30.3479 51.0189 30.3368 51.6805 30.0728C52.1907 29.7867 52.3854 29.343 52.6189 28.8238C52.7913 28.5075 52.9461 28.3528 53.2473 28.1586C53.6031 28.1141 53.8293 28.1261 54.1602 28.2646C54.491 28.5328 54.73 28.7721 54.7772 29.2132C54.7377 30.0914 54.3304 30.8998 53.6949 31.4981C52.6156 32.3666 51.3231 32.7116 49.9489 32.5878C48.8275 32.3938 47.7246 31.8862 47.0504 30.9423C46.6624 30.3182 46.3815 29.7592 46.4621 29.0067C46.8365 28.2856 47.2873 28.027 48.0642 28.2528Z" fill="#044C23"/>
<path d="M59.4668 31.2687C60.0269 31.6007 60.3947 32.1677 60.5977 32.7765C60.664 33.6931 60.6578 34.3828 60.0819 35.1221C59.5892 35.6765 59.0284 35.9354 58.2947 36.0163C57.3328 36.0484 56.6446 35.8452 55.9332 35.1932C55.3867 34.5955 55.2791 33.9542 55.2887 33.1693C55.3582 32.5131 55.6672 32.0139 56.139 31.5632C57.1859 30.7324 58.2853 30.7003 59.4668 31.2687Z" fill="#FD7A29"/>
<path d="M64.4619 63.498C66.9498 63.498 69.4377 63.498 72.001 63.498C71.9699 63.5602 71.9388 63.6224 71.9067 63.6865C71.8445 63.6865 71.7823 63.6865 71.7183 63.6865C71.6957 63.7412 71.6731 63.7959 71.6498 63.8522C71.1899 64.6619 70.0846 65.158 69.2427 65.4594C68.2159 65.7337 67.1137 65.6539 66.1582 65.1943C65.4536 64.7804 64.9041 64.282 64.4619 63.5923C64.4619 63.5612 64.4619 63.5301 64.4619 63.498Z" fill="white"/>
<path d="M62.1055 9.02832C62.4478 9.34157 62.6877 9.68898 62.9359 10.0767C62.9755 10.1364 63.015 10.196 63.0558 10.2575C63.1536 10.4093 63.2429 10.5667 63.3306 10.7246C63.2995 10.7868 63.2684 10.849 63.2363 10.9131C62.8473 10.5661 62.676 10.262 62.4824 9.78223C62.3576 9.5932 62.2321 9.4046 62.1055 9.2168C62.1055 9.1546 62.1055 9.0924 62.1055 9.02832Z" fill="#13AE65"/>
<path d="M80.8599 59.0688C80.891 59.1621 80.9221 59.2554 80.9541 59.3516C81.3895 59.3516 81.8249 59.3516 82.2734 59.3516C82.2423 59.4138 82.2112 59.476 82.1792 59.54C81.7127 59.54 81.2462 59.54 80.7656 59.54C80.7967 59.3845 80.8278 59.2291 80.8599 59.0688Z" fill="#FDCF2C"/>
<path d="M76.6191 34.2842C76.6502 34.3464 76.6813 34.4086 76.7134 34.4727C76.5626 34.5519 76.4113 34.6303 76.2599 34.7083C76.1336 34.7739 76.1336 34.7739 76.0048 34.8408C75.771 34.9438 75.771 34.9438 75.4883 34.9438C75.7053 34.6988 75.9123 34.5813 76.2127 34.455C76.2889 34.4226 76.3651 34.3901 76.4435 34.3567C76.5015 34.3328 76.5594 34.3088 76.6191 34.2842Z" fill="#F5D433"/>
<path d="M53.0586 28.2529C53.1519 28.284 53.2452 28.3151 53.3413 28.3472C53.0148 28.6271 53.0148 28.6271 52.6816 28.9126C52.772 28.551 52.7981 28.4794 53.0586 28.2529Z" fill="#023F19"/>
</g>
<defs>
<clipPath id="clip0_262_2048">
<rect width="120" height="80" rx="8" fill="white"/>
</clipPath>
</defs>
</svg>
