<svg width="122" height="80" viewBox="0 0 122 80" fill="none" xmlns="http://www.w3.org/2000/svg">
<g clip-path="url(#clip0_262_1833)">
<path d="M64.1507 7.37426C65.4958 8.14137 66.6818 9.19275 67.8565 10.1907C68.3911 10.643 68.9411 11.0744 69.4932 11.5049C70.4712 12.2685 71.4334 13.0497 72.3918 13.8378C73.7577 14.9579 75.1311 16.0627 76.5356 17.134C77.4993 17.8754 78.4351 18.6525 79.3768 19.4215C80.4569 20.302 81.5523 21.1631 82.649 22.0228C83.4569 22.6569 84.259 23.2981 85.06 23.9409C85.7282 24.4765 86.401 25.006 87.0762 25.5329C88.0679 26.3076 89.0396 27.1053 90.0078 27.9091C90.5894 28.3912 91.175 28.8605 91.7825 29.31C93.2979 30.4906 94.1164 31.7225 94.6911 33.5517C94.7444 33.7117 94.7977 33.8717 94.8527 34.0365C95.2041 37.8327 93.193 41.8863 91.9056 45.3724C91.6872 45.9674 91.4819 46.5653 91.2837 47.1673C91.0871 47.7571 90.8843 48.3447 90.6817 48.9324C90.5971 49.178 90.5125 49.4237 90.4279 49.6693C90.2972 50.0487 90.1665 50.428 90.0355 50.8073C89.9072 51.1787 89.7793 51.5502 89.6515 51.9218C89.6131 52.0326 89.5747 52.1434 89.5352 52.2576C89.3298 52.8558 89.1383 53.456 88.9591 54.0625C88.725 54.8512 88.4615 55.6267 88.1871 56.4021C88.1146 56.6087 88.1146 56.6087 88.0405 56.8195C87.8877 57.2543 87.7345 57.6889 87.5812 58.1234C87.4279 58.5586 87.2748 58.9938 87.1218 59.4291C87.0272 59.6982 86.9324 59.9673 86.8374 60.2363C86.5772 60.9754 86.3247 61.7167 86.0782 62.4604C85.9187 62.9393 85.7531 63.416 85.5872 63.8927C85.5187 64.0899 85.4503 64.2872 85.3798 64.4904C85.2391 64.8958 85.0981 65.301 84.9569 65.7061C84.5641 66.8399 84.1931 67.9754 83.8581 69.1276C83.1881 71.1093 81.7785 72.4667 79.9461 73.3835C78.7808 73.9589 77.8334 74.1348 76.5391 74.1345C76.4039 74.1351 76.2688 74.1357 76.1295 74.1363C75.6769 74.138 75.2243 74.1387 74.7717 74.1393C74.4471 74.1403 74.1224 74.1414 73.7977 74.1425C72.7315 74.1459 71.6653 74.1476 70.5991 74.1492C70.2316 74.1498 69.864 74.1505 69.4964 74.1512C67.7691 74.1543 66.0417 74.1566 64.3143 74.1579C62.3231 74.1595 60.3319 74.1637 58.3408 74.1703C56.8 74.1751 55.2593 74.1775 53.7186 74.1781C52.7992 74.1784 51.8798 74.1799 50.9605 74.184C50.0946 74.1877 49.2289 74.1884 48.363 74.1867C48.0465 74.1867 47.73 74.1877 47.4135 74.1899C44.7815 74.2074 42.5209 73.9539 40.5485 72.0605C39.1889 70.637 38.632 69.4237 38.1632 67.5347C38.0276 67.0056 37.8468 66.5228 37.6216 66.0238C37.3221 65.3136 37.1017 64.5718 36.8623 63.8397C36.0366 61.3392 35.1841 58.8482 34.329 56.3577C34.073 55.612 33.8176 54.866 33.5629 54.1199C32.8603 52.062 32.1561 50.0064 31.3922 47.9703C31.0834 47.141 30.8139 46.3046 30.5597 45.4567C30.2818 44.5479 29.9593 43.6575 29.6335 42.7649C26.9892 35.5097 26.9892 35.5097 28.2002 32.4465C28.5241 31.7551 28.8931 31.2033 29.409 30.6431C29.4998 30.5415 29.5906 30.4398 29.6842 30.3351C30.3709 29.608 31.1301 29.0027 31.9282 28.4021C32.6915 27.8263 33.4302 27.2243 34.1658 26.6135C35.1072 25.8327 36.0574 25.0661 37.0219 24.314C37.5876 23.8725 38.1464 23.4239 38.7004 22.9676C39.3497 22.433 40.0069 21.91 40.6697 21.3921C41.4984 20.7444 42.3187 20.0873 43.134 19.4228C43.9764 18.7362 44.8204 18.0517 45.6689 17.3726C45.7684 17.293 45.868 17.2133 45.9705 17.1312C46.5534 16.6658 47.1396 16.2047 47.7278 15.7461C48.6478 15.0284 49.5472 14.2926 50.4338 13.5341C51.1428 12.9301 51.8703 12.3529 52.6054 11.7812C53.2356 11.2902 53.8572 10.79 54.475 10.2837C57.6503 7.68193 57.6503 7.68193 58.9798 7.21267C59.2026 7.12862 59.2026 7.12862 59.4299 7.04288C60.913 6.60498 62.7326 6.77554 64.1507 7.37426Z" fill="#9877F6"/>
<path d="M16.3456 38.3595C16.7206 38.5334 17.0806 38.7236 17.4417 38.9248C17.5742 38.9967 17.7067 39.0687 17.8431 39.1428C20.2888 40.5031 23.528 42.3188 24.4242 45.1201C24.8707 46.6875 25.0718 48.1572 25.0566 49.7816C25.0559 49.9306 25.0552 50.0796 25.0544 50.2332C25.0525 50.5977 25.0499 50.9622 25.0465 51.3268C25.1499 51.3718 25.2533 51.4169 25.3599 51.4633C25.6929 51.6499 25.6929 51.6499 25.8507 52.0501C26.0873 53.1991 26.2712 54.3429 26.3965 55.5089C26.4136 56.0501 26.4136 56.0501 26.6624 56.4976C26.75 56.972 26.8303 57.4452 26.9048 57.9216C26.9467 58.1853 26.9887 58.4489 27.0311 58.7125C27.0495 58.83 27.0679 58.9474 27.0869 59.0684C27.1463 59.4014 27.2229 59.7256 27.3088 60.0526C28.5572 58.7155 29.7394 57.3439 30.8783 55.9112C30.9868 55.7748 31.0953 55.6384 31.2071 55.4978C31.3109 55.3661 31.4146 55.2345 31.5215 55.0989C31.8257 54.7294 32.1488 54.3889 32.4797 54.0435C32.8625 53.6172 33.034 53.3599 33.0351 52.7811C33.0001 52.5411 33.0001 52.5411 32.9644 52.2963C33.2758 52.7633 33.4206 53.1265 33.5931 53.6559C33.6835 53.9308 33.6835 53.9308 33.7758 54.2112C33.8741 54.5131 33.8741 54.5131 33.9744 54.8211C34.1182 55.2585 34.2628 55.6956 34.4074 56.1328C34.446 56.2498 34.4846 56.3668 34.5245 56.4873C34.9903 57.8953 35.4669 59.2996 35.9454 60.7034C36.0445 60.9944 36.1435 61.2855 36.2422 61.5767C36.917 63.5808 36.917 63.5808 37.6817 65.5517C38.0732 66.5068 38.3492 67.4285 38.4585 68.4552C38.1713 68.0245 37.9938 67.6428 37.8121 67.1625C37.7459 67.2442 37.6796 67.3258 37.6114 67.41C37.5243 67.5149 37.4372 67.6199 37.3475 67.7281C37.2613 67.8331 37.1751 67.938 37.0862 68.0462C37.0058 68.1279 36.9254 68.2095 36.8426 68.2936C36.7359 68.2936 36.6293 68.2936 36.5194 68.2936C36.5194 68.4003 36.5194 68.5069 36.5194 68.6168C36.2972 68.8794 36.2972 68.8794 36.0346 69.1016C35.928 69.1016 35.8213 69.1016 35.7114 69.1016C35.7114 69.2082 35.7114 69.3149 35.7114 69.4248C35.3277 69.8489 35.3277 69.8489 34.9035 70.2327C34.7968 70.2327 34.6902 70.2327 34.5803 70.2327C34.527 70.3927 34.4737 70.5527 34.4187 70.7175C33.801 71.395 33.1016 71.9919 32.4178 72.6016C32.1475 72.8433 31.8789 73.0868 31.6124 73.3326C29.6863 75.0953 27.8762 75.8594 25.258 75.7672C23.1062 75.6549 21.435 74.9892 19.8757 73.4645C19.8757 73.3579 19.8757 73.2512 19.8757 73.1413C19.769 73.1413 19.6624 73.1413 19.5525 73.1413C17.4514 70.5979 16.6386 66.4696 15.9975 63.2844C15.9429 63.0216 15.8882 62.7588 15.8334 62.496C13.9629 53.4117 13.9629 53.4117 14.7787 51.8437C14.8609 51.7264 14.9432 51.6092 15.028 51.4883C15.0813 51.3817 15.1346 51.275 15.1896 51.1652C15.0833 51.1166 14.977 51.068 14.8675 51.0179C12.4905 49.924 10.2466 48.7535 8.07965 47.287C7.95972 47.2079 7.8398 47.1288 7.71623 47.0472C5.666 45.6937 3.59393 44.1734 2.42402 41.9546C2.36612 41.8494 2.30821 41.7442 2.24855 41.6358C2.00837 41.1031 1.99136 40.5803 2.10084 40.0155C2.38323 39.5274 2.72008 39.1403 3.23197 38.8844C5.06948 38.6882 6.32167 39.0431 7.96856 39.8943C8.16159 39.9905 8.35485 40.0862 8.54832 40.1815C8.92272 40.3661 9.29667 40.5516 9.67014 40.7381C10.3656 41.0747 11.0751 41.3555 11.7962 41.6314C12.1436 41.7698 12.4907 41.9087 12.8377 42.048C13.0148 42.1188 13.1918 42.1896 13.3742 42.2626C14.1948 42.5908 15.0154 42.9191 15.8359 43.2473C15.3498 42.6316 14.8415 42.0449 14.3147 41.4641C13.7785 40.7997 13.6423 40.2451 13.6646 39.4007C13.7581 38.9312 14.0004 38.6656 14.3665 38.3636C15.036 38.1151 15.6795 38.127 16.3456 38.3595Z" fill="#E4EBFE"/>
<path d="M107.619 38.238C108.174 38.4703 108.174 38.4703 108.589 38.8844C108.826 39.5012 108.862 40.0559 108.617 40.6751C108.131 41.4945 107.477 42.2024 106.833 42.9005L106.811 42.9241C107.231 42.9241 107.507 42.7848 107.895 42.6218L108.369 42.4234L108.881 42.2071L109.406 41.9866C109.942 41.7613 110.477 41.535 111.012 41.3082L111.499 41.102C113.688 40.1738 113.688 40.1738 115.851 39.1874C116.908 38.7381 118.356 38.63 119.444 39.0062C119.912 39.303 120.25 39.6403 120.385 40.1771C120.323 42.0127 119.362 43.1001 118.122 44.3784L117.871 44.6438C117.178 45.3608 116.439 45.9611 115.628 46.5397L115.244 46.8147C114.142 47.5915 113.003 48.2667 111.812 48.8972C111.49 49.0684 111.169 49.2429 110.848 49.418C107.932 51.0036 107.932 51.0036 107.296 51.0036L107.613 51.335C109.014 53.3653 107.502 58.197 107.073 60.5503C106.868 61.6381 106.634 62.705 106.326 63.7691C106.263 64.1154 106.203 64.4622 106.145 64.8094C105.919 65.9611 105.585 67.0592 105.215 68.1724L105.055 68.6588C104.158 71.3008 102.974 73.6212 100.463 75.0337C98.6449 75.8969 96.4086 76.0547 94.4798 75.4743C92.8114 74.8295 91.2975 73.7218 90.0058 72.495V72.1718H89.6826C89.432 71.9117 89.432 71.9117 89.1473 71.5658C88.715 71.054 88.2704 70.6478 87.7435 70.2327V69.9095H87.4203C87.147 69.6438 87.147 69.6438 86.8447 69.2935L86.5411 68.9469C86.2892 68.6168 86.2892 68.6168 86.1276 68.132H85.8044V67.8089H85.4813L85.249 67.4958C85.0112 67.1167 85.0112 67.1167 84.5117 67.0009C84.622 66.0198 84.9692 65.1273 85.2995 64.2034C85.4136 63.8809 85.5276 63.5583 85.6416 63.2358L85.7949 62.8057C85.9329 62.4098 86.0669 62.0131 86.1988 61.6151C86.4338 60.9074 86.6796 60.2041 86.9292 59.5015C87.0197 59.2456 87.1102 58.9896 87.2007 58.7337C87.3401 58.3395 87.4797 57.9453 87.6196 57.5513C88.2376 55.8104 88.8225 54.064 89.3594 52.2963L89.4325 52.6005C89.6366 53.3901 90.104 53.9293 90.6291 54.5351L90.6319 54.5383L90.8682 54.8144C91.1187 55.1067 91.3701 55.3983 91.6217 55.6897C91.9552 56.0766 92.2884 56.4638 92.6215 56.8511L92.8676 57.1365C93.4579 57.824 94.0244 58.5272 94.5757 59.2465C94.8573 59.5723 95.1464 59.8085 95.4998 60.0526L95.4802 59.499C95.4804 58.7273 95.6319 58.0223 95.8129 57.2753C95.8716 57.0238 95.9303 56.7724 95.989 56.521L96.0722 56.1698C96.159 55.7958 96.2359 55.4204 96.3077 55.0433V54.397C96.3861 53.8871 96.4422 53.3812 96.4892 52.8678C96.5599 52.225 96.6456 51.7875 97.1157 51.3268H97.4389L97.4275 50.729C97.3915 48.0723 97.4156 45.1216 99.2669 43.015C99.5156 42.7655 99.7678 42.5193 100.024 42.2777L100.303 41.9899C101.335 40.9914 102.636 40.2996 103.867 39.5789C104.093 39.4467 104.318 39.3135 104.543 39.1789C106.483 38.0187 106.483 38.0187 107.619 38.238Z" fill="#E4EBFE"/>
<path d="M107.619 38.238C108.174 38.4703 108.174 38.4703 108.588 38.8844C108.826 39.5012 108.862 40.0559 108.617 40.6751C108.125 41.5037 107.462 42.2183 106.811 42.9241C107.231 42.9241 107.506 42.7848 107.895 42.6218C108.051 42.5563 108.208 42.4908 108.369 42.4234C108.623 42.3163 108.623 42.3163 108.881 42.2071C109.054 42.1343 109.228 42.0616 109.406 41.9866C109.942 41.7613 110.477 41.535 111.012 41.3082C111.173 41.2402 111.333 41.1721 111.499 41.102C113.687 40.1738 113.687 40.1738 115.85 39.1874C116.907 38.7381 118.356 38.63 119.444 39.0062C119.912 39.303 120.25 39.6403 120.384 40.1771C120.323 42.0127 119.362 43.1001 118.122 44.3784C118.039 44.466 117.956 44.5536 117.871 44.6438C117.177 45.3608 116.439 45.9611 115.627 46.5397C115.438 46.6758 115.438 46.6758 115.244 46.8147C114.142 47.5919 113.002 48.2671 111.811 48.8979C111.492 49.067 111.176 49.2392 110.859 49.4123C108.523 50.6845 106.815 51.3546 104.145 51.3425C103.857 51.3422 103.857 51.3422 103.563 51.3418C102.952 51.3409 102.342 51.3389 101.731 51.3369C101.316 51.336 100.9 51.3353 100.485 51.3346C99.4696 51.3329 98.4541 51.3302 97.4386 51.3268C97.4355 50.838 97.4333 50.3492 97.4316 49.8605C97.4307 49.7232 97.4298 49.586 97.4288 49.4447C97.4228 47.194 97.7302 44.7633 99.2665 43.015C99.5153 42.7655 99.7675 42.5193 100.024 42.2777C100.162 42.1353 100.162 42.1353 100.303 41.9899C101.335 40.9914 102.635 40.2996 103.867 39.5789C104.093 39.4467 104.318 39.3135 104.543 39.1789C106.482 38.0187 106.482 38.0187 107.619 38.238Z" fill="#E9D6BE"/>
<path d="M16.3456 38.3595C16.7206 38.5334 17.0806 38.7236 17.4417 38.9248C17.5742 38.9967 17.7067 39.0687 17.8431 39.1428C20.2888 40.5031 23.528 42.3188 24.4242 45.1201C24.8703 46.6862 25.0718 48.1582 25.0566 49.7816C25.0559 49.9306 25.0552 50.0796 25.0544 50.2332C25.0525 50.5977 25.0499 50.9622 25.0465 51.3268C23.8272 51.357 22.6078 51.3798 21.3881 51.3937C20.8215 51.4004 20.255 51.4094 19.6885 51.4243C17.0887 51.4905 14.9694 51.5255 12.7657 50.034C12.5061 49.8969 12.2447 49.7632 11.9805 49.6351C10.6198 48.9298 9.33601 48.1682 8.07965 47.287C7.86122 47.1407 7.6426 46.9947 7.42383 46.849C5.477 45.5355 3.54097 44.0729 2.42402 41.9546C2.36612 41.8494 2.30821 41.7442 2.24855 41.6358C2.00837 41.1031 1.99136 40.5803 2.10084 40.0155C2.38323 39.5274 2.72008 39.1403 3.23197 38.8844C5.06948 38.6882 6.32167 39.0431 7.96856 39.8943C8.16159 39.9905 8.35484 40.0862 8.54832 40.1815C8.92272 40.3661 9.29667 40.5516 9.67014 40.7381C10.3656 41.0747 11.0751 41.3555 11.7962 41.6314C12.1436 41.7698 12.4907 41.9087 12.8377 42.048C13.0148 42.1188 13.1918 42.1896 13.3742 42.2626C14.1948 42.5908 15.0154 42.9191 15.8359 43.2473C15.3498 42.6316 14.8415 42.0449 14.3147 41.4641C13.7785 40.7997 13.6423 40.2451 13.6646 39.4007C13.7581 38.9312 14.0004 38.6656 14.3665 38.3636C15.036 38.1151 15.6795 38.127 16.3456 38.3595Z" fill="#E9D6BE"/>
<path d="M53.6782 31.532C54.4957 31.5481 54.9206 31.7103 55.5162 32.2598C56.1431 33.1302 56.3161 33.9369 56.2939 34.9961C56.2913 35.1666 56.2913 35.1666 56.2886 35.3406C56.258 36.3362 56.1907 37.1279 55.4759 37.8775C54.9214 38.3708 54.5235 38.7007 53.7691 38.7732C53.0428 38.7127 52.7471 38.5438 52.1936 38.0764C51.2173 36.856 51.0952 35.5501 51.224 34.0366C51.4146 33.1315 51.8202 32.5432 52.5167 31.936C52.9267 31.526 53.108 31.5509 53.6782 31.532Z" fill="#1F3066"/>
<path d="M69.4834 31.6128C70.2667 31.9364 70.733 32.5029 71.1138 33.2521C71.4739 34.382 71.5079 36.1161 71.0084 37.218C70.5431 37.9387 69.9797 38.6026 69.1211 38.8105C68.4438 38.8527 68.0867 38.7565 67.4938 38.4097C66.4197 37.3207 66.3155 36.072 66.3247 34.6084C66.3623 33.6392 66.5409 32.9771 67.2211 32.2592C67.3111 32.1259 67.4011 31.9926 67.4938 31.8552C68.1152 31.4522 68.7663 31.5172 69.4834 31.6128Z" fill="#1F3066"/>
<path d="M62.2124 36.7836C63.0395 37.0802 63.6635 37.6033 64.0505 38.3964C64.3162 39.2549 64.301 40.1495 63.9091 40.9648C63.4805 41.5965 62.9408 41.9122 62.2124 42.1161C61.1414 42.2515 60.2346 42.1898 59.3038 41.6313C58.6858 41.0805 58.4512 40.6927 58.3242 39.874C58.281 39.0296 58.475 38.4284 58.9807 37.7532C59.9673 36.7439 60.838 36.6338 62.2124 36.7836Z" fill="#ECA66F"/>
<path d="M59.1161 47.0609C59.271 47.0604 59.426 47.06 59.5857 47.0595C59.9132 47.0592 60.2407 47.06 60.5681 47.0621C61.0685 47.0647 61.5688 47.0621 62.0692 47.059C62.3876 47.0593 62.7061 47.0599 63.0245 47.0609C63.1738 47.0599 63.3232 47.0589 63.477 47.0579C64.2606 47.0665 64.8131 47.0895 65.4439 47.61C65.6762 48.0746 65.6672 48.3887 65.6055 48.9028C65.2595 49.2985 64.9738 49.5181 64.4489 49.6105C64.0168 49.6375 63.5893 49.6429 63.1564 49.6406C62.9981 49.6416 62.8398 49.6426 62.6766 49.6437C62.3425 49.6448 62.0084 49.6443 61.6743 49.6423C61.1635 49.64 60.6532 49.6455 60.1424 49.6517C59.8173 49.6518 59.4923 49.6515 59.1672 49.6507C58.9387 49.654 58.9387 49.654 58.7055 49.6572C57.968 49.6468 57.6286 49.6248 57.0201 49.1754C56.7181 48.7412 56.7181 48.7412 56.708 48.1554C56.8797 47.61 56.8797 47.61 57.1142 47.3376C57.7617 47.0038 58.3981 47.0562 59.1161 47.0609Z" fill="#1D283A"/>
<path d="M61.2928 45.5073C61.4321 45.5049 61.5715 45.5025 61.7151 45.5C63.607 45.4987 64.776 46.0856 66.1294 47.3637C67.9924 49.2804 68.686 51.6002 68.6695 54.2201C68.6388 55.3119 68.5511 56.2628 67.7787 57.0926C67.1675 57.5964 66.7324 57.6452 65.9339 57.5834C65.5442 57.4908 65.1627 57.3804 64.7788 57.2662C62.4331 56.5695 60.3148 56.3388 57.9835 57.1676C57.1564 57.46 56.4073 57.5967 55.5378 57.4349C54.807 57.0617 54.4847 56.3989 54.2012 55.6527C53.6222 53.2915 54.3572 50.7286 55.5842 48.7003C56.9883 46.6184 58.7756 45.4988 61.2928 45.5073Z" fill="#1F3066"/>
</g>
<defs>
<clipPath id="clip0_262_1833">
<rect width="122" height="73.6848" fill="white" transform="translate(0 3.65771)"/>
</clipPath>
</defs>
</svg>
