<svg width="31" height="35" viewBox="0 0 31 35" fill="none" xmlns="http://www.w3.org/2000/svg">
<path d="M14.2588 1.5C17.226 1.50001 20.098 2.32963 22.3984 3.89453L22.8506 4.21777L23.0928 4.4043C25.4802 6.29322 26.8331 8.93234 27.0039 11.7246L27.0166 12.0049V12.0059C27.118 15.1902 25.8618 17.3812 24.2256 18.7822C24.7689 18.9287 25.2982 19.1167 25.7988 19.3564C26.8356 19.8531 27.7872 20.5906 28.4697 21.6719C29.152 22.753 29.5 24.0735 29.5 25.6279C29.5 27.2141 29.1044 28.5705 28.3672 29.6895C27.6355 30.7999 26.6252 31.5893 25.5254 32.1445C23.3692 33.2331 20.7151 33.5 18.5186 33.5H3.37012C2.88723 33.4999 2.43406 33.2672 2.15234 32.875C1.87056 32.4826 1.79487 31.9783 1.94922 31.5205L5.83008 20.0078C5.77523 19.9682 5.71926 19.9294 5.66504 19.8887V19.8877C3.07272 17.9485 1.50001 15.109 1.5 12.0537C1.5 8.99733 3.07393 6.156 5.66797 4.2168C8.03813 2.44399 11.0942 1.5 14.2588 1.5ZM12.9541 25.7109H18.3086C19.254 25.7109 19.916 25.5404 20.2891 25.3164C20.5703 25.1475 20.6924 24.964 20.6924 24.5957C20.6923 24.246 20.5937 24.0868 20.5039 23.9873C20.3851 23.8556 20.1661 23.7104 19.7998 23.5898C19.0349 23.3381 18.1096 23.3379 17.5244 23.3379H13.7549L12.9541 25.7109ZM16.7666 14.4072C17.2778 14.2298 17.7316 14.0044 18.1094 13.748C19.004 13.1409 19.2978 12.506 19.2979 12.0537C19.2979 11.597 18.9636 10.941 18.1289 10.3691L16.7666 14.4072Z" fill="#FFF9F5" stroke="#1E3A8A" stroke-width="3" stroke-linejoin="round"/>
</svg>
