<?xml version="1.0" encoding="UTF-8"?>
<svg id="Calque_2" xmlns="http://www.w3.org/2000/svg" version="1.1" viewBox="0 0 105.9 121.1">
  <!-- Generator: Adobe Illustrator 30.0.0, SVG Export Plug-In . SVG Version: 2.1.1 Build 123)  -->
  <defs>
    <style>
      .st0 {
        fill: #2940ad;
      }

      .st1 {
        fill: #fff;
      }
    </style>
  </defs>
  <path class="st0" d="M62.9,116.8H7.4c-3.6,0-6.1-3.5-4.9-6.9l12.4-36.4c.7-1.9.1-4-1.4-5.5-7-6.9-11-15.8-11-25.1s5.6-21.7,15.5-29c8.4-6.2,19.4-9.7,30.8-9.7s22.4,3.4,30.8,9.7c9.5,7,15.2,17.5,15.5,28.7.2,6.2-1.1,11.6-3.3,16.1s-.5,5.1,1.6,6.6c6.5,4.9,10,12.3,10,21.5s-3.9,30-40.5,30Z"/>
  <path class="st1" d="M65.6,68v-1.3c6.1-.8,20.8-6,20.2-23.7-.2-8.1-4.3-16-11.7-21.5-6.8-5-15.8-7.8-25.3-7.8s-18.5,2.8-25.3,7.8c-7.4,5.5-11.7,13.3-11.7,21.5s4.3,16,11.7,21.5c1.1.9,2.2,1.6,3.5,2.2l-14,40.9h49.8c14,0,31.2-3.4,31.2-20.6s-15.5-18.9-28.4-18.9h0ZM70.4,42.9c0,7.3-9.3,13.5-20.6,13.8l8.9-26c6.8,2.3,11.6,7,11.6,12.3h0ZM32.3,51.5c-3-2.4-4.9-5.4-4.9-8.6,0-5.4,5-10.1,12-12.3l-7,20.4s-.2.5-.2.5ZM62.2,92h-24.4l6-17.4h15.9c3.6,0,15.4-.2,15.4,8.9s-5.7,8.5-12.8,8.5Z"/>
</svg>