<svg width="93" height="90" viewBox="0 0 93 90" fill="none" xmlns="http://www.w3.org/2000/svg">
<path d="M66.1827 0.0122912C70.2102 -0.194146 73.9185 2.21655 75.3682 5.98358L91.7825 48.6359C93.2322 52.4029 92.0935 56.6694 88.962 59.204L53.5053 87.902C50.3738 90.4366 45.9618 90.6628 42.5767 88.4622L4.24894 63.5462C0.863856 61.3456 -0.724285 57.2189 0.31513 53.3243L12.084 9.22735C13.1234 5.33275 16.5539 2.55612 20.5814 2.34969L66.1827 0.0122912Z" fill="#EC3309" fill-opacity="0.14"/>
<path d="M18.1797 58.2414C18.1797 57.0423 19.1517 56.0703 20.3508 56.0703H69.0086C70.2077 56.0703 71.1797 57.0423 71.1797 58.2414C71.1797 63.0376 67.2916 66.9257 62.4954 66.9257H26.864C22.0678 66.9257 18.1797 63.0376 18.1797 58.2414Z" fill="#EAC49E"/>
<path d="M19.457 58.3053C19.457 56.7183 20.7435 55.4318 22.3305 55.4318H67.0293C68.6163 55.4318 69.9028 56.7183 69.9028 58.3053C69.9028 59.8922 68.6163 61.1788 67.0293 61.1788H22.3305C20.7435 61.1788 19.457 59.8922 19.457 58.3053Z" fill="#ECA257"/>
<path d="M18.1797 53.516C18.1797 50.871 20.3239 48.7269 22.9688 48.7269H66.3905C69.0355 48.7269 71.1797 50.871 71.1797 53.516C71.1797 56.161 69.0355 58.3052 66.3905 58.3052H22.9688C20.3239 58.3052 18.1797 56.161 18.1797 53.516Z" fill="#73554A"/>
<path d="M18.1797 47.2006C18.1797 44.3406 20.4982 42.022 23.3583 42.022H65.5787C68.6721 42.022 71.1797 44.5297 71.1797 47.623C71.1797 50.0049 69.6733 52.1262 67.4246 52.9111L58.7205 55.9493C55.7921 56.9715 52.6545 57.2445 49.5936 56.7433L22.5216 52.3112C20.0178 51.9013 18.1797 49.7378 18.1797 47.2006Z" fill="#FE8253"/>
<path d="M18.1797 45.8179C18.1797 42.6635 20.7368 40.1064 23.8912 40.1064H66.0625C68.8886 40.1064 71.1797 42.3974 71.1797 45.2236C71.1797 47.7801 69.2929 49.9444 66.7603 50.293L35.817 54.5524C33.1509 54.9194 30.4351 54.5869 27.9362 53.5873L21.77 51.1208C19.6016 50.2535 18.1797 48.1533 18.1797 45.8179Z" fill="#12C66F"/>
<path d="M18.1797 44.8955C18.1797 42.2506 20.3239 40.1064 22.9688 40.1064H66.3905C69.0355 40.1064 71.1797 42.2506 71.1797 44.8955C71.1797 47.5405 69.0355 49.6847 66.3905 49.6847H22.9688C20.3239 49.6847 18.1797 47.5405 18.1797 44.8955Z" fill="#EAC49E"/>
<path d="M19.457 42.9799C19.457 41.3929 20.7435 40.1064 22.3305 40.1064H67.0293C68.6163 40.1064 69.9028 41.3929 69.9028 42.9799C69.9028 44.5669 68.6163 45.8534 67.0293 45.8534H22.3305C20.7435 45.8534 19.457 44.5669 19.457 42.9799Z" fill="#ECA257"/>
<path d="M19.457 42.9799C19.457 41.3929 20.7435 40.1064 22.3305 40.1064H67.0293C68.6163 40.1064 69.9028 41.3929 69.9028 42.9799C69.9028 44.5669 68.6163 45.8534 67.0293 45.8534H22.3305C20.7435 45.8534 19.457 44.5669 19.457 42.9799Z" fill="#ECA257"/>
<path d="M18.1797 37.2329C18.1797 34.5879 20.3239 32.4437 22.9688 32.4437H66.3905C69.0355 32.4437 71.1797 34.5879 71.1797 37.2329C71.1797 39.8779 69.0355 42.022 66.3905 42.022H22.9688C20.3239 42.022 18.1797 39.8779 18.1797 37.2329Z" fill="#73554A"/>
<path d="M18.1797 30.7207C18.1797 27.6167 20.696 25.1003 23.8 25.1003H66.0488C68.8825 25.1003 71.1797 27.3975 71.1797 30.2313C71.1797 32.7835 69.3038 34.9478 66.7774 35.3102L37.4979 39.5106C34.7708 39.9019 31.9895 39.6211 29.3956 38.6928L21.9062 36.0124C19.6711 35.2124 18.1797 33.0946 18.1797 30.7207Z" fill="#FE8253"/>
<path d="M18.1797 30.1844C18.1797 27.3766 20.4559 25.1003 23.2638 25.1003H65.0707C68.4446 25.1003 71.1797 27.8354 71.1797 31.2094C71.1797 33.3609 70.048 35.3537 68.2002 36.4559L65.5067 38.0626C63.2859 39.3872 60.6871 39.9341 58.1208 39.6168L22.64 35.2301C20.0927 34.9152 18.1797 32.7511 18.1797 30.1844Z" fill="#12C66F"/>
<path d="M18.1797 29.479C18.1797 19.6548 26.1438 11.6907 35.968 11.6907H53.3914C63.2156 11.6907 71.1797 19.6548 71.1797 29.479C71.1797 31.1163 69.8524 32.4437 68.215 32.4437H21.1444C19.507 32.4437 18.1797 31.1163 18.1797 29.479Z" fill="#EAC49E"/>
<path d="M53.46 22.0672C49.577 20.747 50.6501 14.8658 54.7194 15.3765L59.4222 15.9666C61.2027 16.19 62.784 17.2131 63.7176 18.7456C65.7947 22.1552 62.1735 26.182 58.5633 24.4772L53.46 22.0672Z" fill="#E0A265"/>
</svg>
