<svg width="36" height="40" viewBox="0 0 36 40" fill="none" xmlns="http://www.w3.org/2000/svg">
<path d="M25.5892 17.9392C25.5892 17.4622 25.5381 14.6853 23.7323 12.8624C23.4938 12.6239 23.2553 12.4195 22.9828 12.2321C24.4478 10.9543 25.3678 9.08035 25.3678 6.98488C25.3678 3.13468 22.2332 0 18.3831 0C14.533 0 11.3983 3.13468 11.3983 6.98488C11.3983 10.8351 12.3353 10.9884 13.8345 12.2661L10.1377 23.9871H18.7749C21.0747 23.9871 22.8465 23.3397 24.056 22.045C25.5892 20.4095 25.5892 18.3651 25.5722 17.9222L25.5892 17.9392ZM22.1821 20.3243C21.4836 21.0569 20.3422 21.4317 18.7919 21.4317H13.6471L16.1173 13.5779L16.8839 11.1417C15.1803 10.5284 13.9708 8.89295 13.9708 6.98488C13.9708 5.07682 15.9469 2.55545 18.4001 2.55545C20.8533 2.55545 22.8294 4.53166 22.8294 6.98488C22.8294 9.43811 21.4495 10.7329 19.5756 11.244V13.8505C19.5756 13.8505 19.5756 13.8505 19.5926 13.8505C20.5977 13.8335 21.3643 14.089 21.9265 14.6342C23.085 15.7927 23.0509 17.8881 23.0509 17.8881V17.9392V18.0074C23.0509 18.0074 23.102 19.3532 22.1991 20.3073L22.1821 20.3243Z" fill="white"/>
<path d="M16.5598 33.712C16.5598 33.1328 16.5598 32.6387 16.5428 32.1788C16.5428 31.7358 16.5087 31.2929 16.4746 30.8329C16.5939 30.8329 16.7131 30.867 16.8494 30.867C16.9857 30.867 17.139 30.867 17.3094 30.867C17.599 30.867 17.9227 30.867 18.2463 30.8329C18.57 30.8159 18.8767 30.7988 19.1833 30.7988C19.49 30.7988 19.7796 30.8329 20.0351 30.884C20.2906 30.9522 20.5121 31.0373 20.6995 31.1736C20.8869 31.2929 21.0232 31.4632 21.1254 31.6677C21.2276 31.8721 21.2787 32.1106 21.2787 32.4002C21.2787 32.6899 21.2276 32.9284 21.1084 33.1328C20.9891 33.3372 20.8528 33.5076 20.6825 33.6439C20.5121 33.7802 20.3247 33.8824 20.1373 33.9676C19.9329 34.0357 19.7625 34.0868 19.6092 34.1209C19.7625 34.155 19.9499 34.189 20.1714 34.2572C20.3929 34.3253 20.5803 34.4276 20.7847 34.5638C20.9721 34.7001 21.1424 34.8875 21.2787 35.092C21.415 35.3134 21.4832 35.569 21.4832 35.8756C21.4832 36.1823 21.415 36.5571 21.2787 36.8297C21.1424 37.0852 20.9721 37.3067 20.7336 37.4771C20.5121 37.6474 20.2566 37.7496 19.967 37.8178C19.6774 37.8859 19.3707 37.92 19.0641 37.92C18.7574 37.92 18.536 37.92 18.2975 37.92C18.0589 37.92 17.8034 37.92 17.5479 37.92H16.9686C16.7642 37.92 16.6109 37.92 16.4916 37.937C16.5257 37.5111 16.5428 37.0682 16.5598 36.6252C16.5598 36.1823 16.5768 35.6712 16.5768 35.092V33.678L16.5598 33.712ZM19.7455 32.6387C19.7455 32.4684 19.7285 32.3151 19.6944 32.1617C19.6603 32.0084 19.5922 31.8891 19.507 31.7869C19.4218 31.6847 19.3026 31.5995 19.1663 31.5314C19.03 31.4632 18.8596 31.4292 18.6552 31.4292C18.4508 31.4292 18.3997 31.4292 18.3315 31.4292C18.2804 31.4292 18.2123 31.4292 18.1441 31.4632C18.1441 31.7188 18.1271 31.9743 18.1101 32.2469C18.1101 32.5025 18.1101 32.7239 18.1101 32.9113C18.1101 33.0987 18.1101 33.2691 18.1101 33.4395C18.1101 33.6098 18.1101 33.7802 18.1101 33.9676H18.57C18.7063 33.9676 18.8596 33.9335 18.9959 33.8824C19.1322 33.8313 19.2685 33.7461 19.3707 33.6439C19.4729 33.5417 19.5751 33.4054 19.6433 33.235C19.7114 33.0647 19.7455 32.8773 19.7455 32.6558V32.6387ZM19.8136 35.9779C19.8136 35.5008 19.7114 35.1431 19.49 34.9046C19.2685 34.6661 18.9618 34.5468 18.536 34.5468C18.1101 34.5468 18.3486 34.5468 18.2804 34.5468C18.2123 34.5468 18.1441 34.5468 18.076 34.5468C18.076 34.6831 18.076 34.8364 18.076 34.9898C18.076 35.1431 18.076 35.3305 18.076 35.5349C18.076 35.7394 18.076 35.8756 18.076 36.046C18.076 36.2164 18.076 36.3867 18.076 36.5571C18.076 36.7275 18.076 36.8808 18.076 37.0171C18.076 37.1534 18.076 37.2726 18.076 37.3578C18.1782 37.3578 18.2634 37.3578 18.3486 37.3578C18.4337 37.3578 18.536 37.3578 18.6552 37.3578C18.7745 37.3578 18.9448 37.3237 19.0811 37.2726C19.2174 37.2215 19.3366 37.1193 19.4389 37C19.5411 36.8808 19.6262 36.7275 19.6944 36.5571C19.7625 36.3867 19.7796 36.1823 19.7796 35.9608L19.8136 35.9779Z" fill="white"/>
<path d="M0 31.1074H1.0903V33.5095C1.29473 33.3221 1.49915 33.1859 1.72062 33.1007C1.94209 33.0155 2.18059 32.9644 2.45317 32.9644C2.72574 32.9644 3.06646 33.0325 3.322 33.1518C3.59457 33.271 3.81603 33.4584 4.02046 33.6799C4.20786 33.9014 4.36118 34.174 4.48044 34.4976C4.59969 34.8213 4.65079 35.1621 4.65079 35.5198C4.65079 35.8776 4.59969 36.2353 4.48044 36.559C4.36118 36.8827 4.2249 37.1383 4.02046 37.3768C3.83307 37.5983 3.59457 37.7857 3.322 37.9049C3.04942 38.0242 2.75981 38.0923 2.45317 38.0923C2.14652 38.0923 1.94209 38.0412 1.72062 37.939C1.51619 37.8368 1.29473 37.7005 1.0903 37.5131V37.956H0V31.1245V31.1074ZM1.07326 36.6442C1.20955 36.7805 1.36287 36.8998 1.5673 36.9679C1.77173 37.0361 1.95912 37.0872 2.14652 37.0872C2.55538 37.0872 2.8961 36.9338 3.15164 36.6442C3.40718 36.3546 3.54346 35.9798 3.54346 35.5028C3.54346 35.0258 3.40718 34.651 3.15164 34.3614C2.8961 34.0717 2.55538 33.9184 2.14652 33.9184C1.73766 33.9184 1.77173 33.9525 1.5673 34.0377C1.36287 34.1058 1.20955 34.2251 1.07326 34.3614V36.6442Z" fill="white"/>
<path d="M9.89711 33.0488L7.78466 38.8923C7.63134 39.3182 7.39283 39.6078 7.10322 39.7611C6.81361 39.9145 6.43883 39.9996 6.02997 39.9996C5.6211 39.9996 5.74035 39.9996 5.56999 39.9656C5.39964 39.9315 5.22928 39.8974 5.05892 39.8293L5.28039 38.8412C5.43371 38.8923 5.57 38.9434 5.68925 38.9604C5.8085 38.9775 5.92775 38.9945 6.02997 38.9945C6.35365 38.9945 6.57511 38.8582 6.69436 38.5686L6.88176 38.0916L5.00781 33.0829H6.13218L7.47802 36.7798L8.72163 33.0829H9.88008L9.89711 33.0488Z" fill="white"/>
<path d="M11.3627 35.9135C11.4138 36.2543 11.5671 36.5268 11.8397 36.7483C12.1122 36.9698 12.47 37.089 12.9129 37.089C13.3558 37.089 13.5773 37.0379 13.8329 36.9187C14.0884 36.8165 14.3099 36.6631 14.5143 36.4757L15.0765 37.2424C14.7698 37.549 14.4291 37.7705 14.0714 37.8897C13.7136 38.009 13.3388 38.0601 12.9129 38.0601C12.487 38.0601 12.1804 37.992 11.8567 37.8727C11.533 37.7535 11.2434 37.5661 11.0049 37.3446C10.7664 37.1231 10.579 36.8505 10.4427 36.5439C10.3064 36.2372 10.2383 35.8795 10.2383 35.5047C10.2383 35.1299 10.3064 34.7891 10.4257 34.4825C10.5449 34.1758 10.7323 33.9033 10.9538 33.6647C11.1753 33.4433 11.4478 33.2559 11.7715 33.1366C12.0952 33.0174 12.4359 32.9492 12.8107 32.9492C13.1855 32.9492 13.5603 33.0174 13.884 33.1537C14.2076 33.2899 14.4802 33.4773 14.7017 33.7329C14.9232 33.9884 15.1105 34.2951 15.2468 34.6699C15.3831 35.0447 15.4342 35.4536 15.4342 35.9135H11.3456H11.3627ZM14.2247 34.9595C14.1736 34.6529 14.0032 34.3973 13.7306 34.2099C13.4581 34.0225 13.1514 33.9203 12.8107 33.9203C12.47 33.9203 12.1633 34.0225 11.8908 34.2099C11.6182 34.3973 11.4478 34.6529 11.3967 34.9595H14.2247Z" fill="white"/>
<path d="M22.0957 36.5453C22.0957 36.2557 22.1809 36.0001 22.3342 35.7957C22.4875 35.5742 22.692 35.4039 22.9475 35.2505C23.203 35.0972 23.4756 34.995 23.7993 34.9268C24.123 34.8587 24.4467 34.8246 24.7874 34.8246C25.1281 34.8246 25.1281 34.8246 25.2644 34.8246C25.4007 34.8246 25.537 34.8417 25.6732 34.8587V34.6713C25.6732 34.4157 25.571 34.2284 25.3836 34.0921C25.1962 33.9558 24.9237 33.9047 24.6 33.9047C24.2763 33.9047 24.0037 33.9387 23.6971 34.0239C23.3904 34.1091 23.1008 34.2284 22.8282 34.3817L22.3853 33.5299C22.709 33.3425 23.0497 33.2062 23.4245 33.0869C23.7993 32.9847 24.1741 32.9336 24.5829 32.9336C24.9918 32.9336 25.1111 32.9677 25.3666 33.0188C25.6221 33.0699 25.8606 33.1721 26.0651 33.3084C26.2695 33.4447 26.4399 33.615 26.5591 33.8365C26.6784 34.058 26.7465 34.3306 26.7465 34.6543V37.9252H25.6732V37.2097C25.5029 37.4823 25.2473 37.6867 24.9237 37.84C24.5829 37.9934 24.2252 38.0615 23.8504 38.0615C23.4756 38.0615 23.3904 38.0274 23.169 37.9593C22.9645 37.8912 22.7771 37.806 22.6238 37.6697C22.4705 37.5334 22.3512 37.3801 22.249 37.1927C22.1638 37.0053 22.1127 36.7838 22.1127 36.5282L22.0957 36.5453ZM24.1059 37.0904C24.3274 37.0904 24.5148 37.0564 24.7022 37.0053C24.8896 36.9542 25.0599 36.869 25.1962 36.7838C25.3325 36.6816 25.4518 36.5794 25.537 36.4431C25.6221 36.3068 25.6562 36.1535 25.6562 36.0001V35.8127C25.4858 35.7787 25.3325 35.7616 25.1792 35.7616C25.0259 35.7616 24.8896 35.7616 24.7874 35.7616C24.2593 35.7616 23.8504 35.8298 23.5778 35.9661C23.3053 36.1023 23.169 36.2727 23.169 36.4771C23.169 36.886 23.4756 37.0904 24.1059 37.0904Z" fill="white"/>
<path d="M31.2274 37.9404H27.9395V36.9693H29.0127V34.0391H27.9395V33.068H30.103V36.9693H31.2274V37.9404ZM30.2223 32.4206H28.8935V31.0918H30.2223V32.4206Z" fill="white"/>
<path d="M35.7245 37.939H32.4365V36.9679H33.5098V32.0785H32.4365V31.1074H34.583V36.9679H35.7074V37.939H35.7245Z" fill="white"/>
</svg>
