<svg width="60" height="60" viewBox="0 0 60 60" fill="none" xmlns="http://www.w3.org/2000/svg">
<rect width="60" height="60" rx="8" fill="#E4EBFE"/>
<path d="M19.363 9.00128C19.4573 9.00108 19.5516 9.00076 19.6459 9.00034C19.9033 8.99953 20.1607 9.00029 20.4181 9.00134C20.6964 9.00218 20.9747 9.00155 21.253 9.0011C21.7974 9.00045 22.3419 9.00117 22.8864 9.00236C23.5208 9.00369 24.1552 9.00368 24.7896 9.00362C25.9218 9.00355 27.0539 9.00473 28.1861 9.00659C29.284 9.00839 30.3819 9.0093 31.4798 9.00922L31.6847 9.0092L31.8894 9.00919C33.1403 9.0091 34.3913 9.00985 35.6423 9.011C36.0842 9.01138 36.5262 9.01152 36.9681 9.01158C37.5069 9.01167 38.0456 9.01224 38.5843 9.01342C38.8591 9.01401 39.1338 9.0144 39.4085 9.01424C39.6603 9.0141 39.912 9.01455 40.1637 9.01547C40.2545 9.0157 40.3453 9.01572 40.4362 9.0155C41.4553 9.0133 42.3432 9.18136 43.1125 9.9059C43.7306 10.579 43.9954 11.3278 43.9909 12.2282L43.9916 12.4165C43.9921 12.623 43.9917 12.8296 43.9914 13.0362L43.9913 13.0415C43.9915 13.1923 43.9918 13.3432 43.9921 13.494C43.9927 13.8651 43.9927 14.2362 43.9924 14.6074C43.9921 15.052 43.9926 15.4967 43.9931 15.9413C43.994 16.8632 43.9942 17.785 43.994 18.7069C43.9939 19.4188 43.994 20.1307 43.9943 20.8426L43.9944 21.1495L43.9945 21.6118C43.9951 23.0449 43.9954 24.4779 43.9951 25.911L43.9951 26.0747L43.9949 26.8961L43.9949 27.0609L43.9948 27.3908C43.9945 29.1019 43.995 30.813 43.9961 32.524C43.9975 34.4466 43.9981 36.3691 43.9979 38.2916L43.9978 38.9066L43.9978 39.0596C43.9977 39.8215 43.9981 40.5834 43.9988 41.3452C43.9996 42.2118 43.9997 43.0784 43.9989 43.9449C43.9985 44.3871 43.9984 44.8293 43.9992 45.2714C43.9999 45.6762 43.9997 46.081 43.9988 46.4858C43.9987 46.6323 43.9988 46.7787 43.9993 46.9251C44 47.1243 43.9994 47.3234 43.9986 47.5226L44 47.6944C43.9932 48.4918 43.7017 49.205 43.2635 49.861C42.5609 50.5533 41.764 50.9434 40.7808 50.944L40.6208 50.9449C40.4428 50.9457 40.2649 50.9461 40.087 50.9466C39.9582 50.9471 39.8294 50.9477 39.7007 50.9483C39.3454 50.9498 38.9901 50.951 38.6348 50.952C38.2506 50.9533 37.8664 50.9549 37.4823 50.9564C36.7678 50.9592 36.0534 50.9617 35.3389 50.9641C34.6682 50.9663 33.9975 50.9687 33.3267 50.9711L32.7801 50.9731L32.6426 50.9736C30.2666 50.9823 27.8907 50.9899 25.5147 50.9973L24.7811 50.9996H19.6586C16.9073 51.018 15.9564 50.3779 16.0015 47.3143V45.6485V30.983C16.008 29.2509 16.0147 27.5188 16.0218 25.7867L16.0244 25.1381L16.0249 25.0077C16.0275 24.3658 16.0299 23.7238 16.0323 23.0818C16.0404 20.9245 16.0498 18.7672 16.063 16.61C16.0642 16.4066 16.0655 16.2031 16.0667 15.9997C16.0709 15.3014 16.0762 14.6031 16.0834 13.9048C16.0855 13.7059 16.0871 13.5069 16.0883 13.3079C16.09 13.0412 16.0932 12.7744 16.0966 12.5077L16.0975 12.2806C16.1124 11.3617 16.3194 10.5514 16.9544 9.86586H17.0815V9.73772C17.196 9.63611 17.196 9.63611 17.3557 9.52149L17.5099 9.40787C18.1181 9.05993 18.6721 8.99583 19.363 9.00128Z" fill="#B899FF"/>
<path d="M20.4812 12.412C20.5853 12.4114 20.5853 12.4114 20.6915 12.4107C20.8054 12.411 20.8054 12.411 20.9215 12.4113C21.0024 12.411 21.0834 12.4107 21.1667 12.4104C21.3912 12.4097 21.6157 12.4097 21.8401 12.4098C22.0823 12.4099 22.3244 12.4091 22.5665 12.4085C23.0409 12.4075 23.5152 12.4071 23.9896 12.407C24.3752 12.407 24.7608 12.4067 25.1463 12.4063C26.2396 12.4052 27.3328 12.4046 28.426 12.4047C28.485 12.4047 28.5439 12.4047 28.6046 12.4047C28.6636 12.4047 28.7227 12.4047 28.7834 12.4047C29.7398 12.4048 30.6961 12.4036 31.6524 12.4017C32.6344 12.3999 33.6164 12.399 34.5983 12.3991C35.1496 12.3992 35.7009 12.3988 36.2522 12.3974C36.7216 12.3963 37.191 12.396 37.6603 12.3969C37.8998 12.3973 38.1392 12.3973 38.3786 12.3962C38.6384 12.395 38.898 12.3958 39.1577 12.3968C39.2332 12.3961 39.3087 12.3955 39.3865 12.3948C39.8778 12.3989 40.2244 12.4638 40.6071 12.7966C40.6354 12.8324 40.6638 12.8681 40.693 12.905C40.737 12.9584 40.737 12.9584 40.7819 13.0128C40.9507 13.2734 41.003 13.5033 41.0036 13.8121C41.0041 13.8835 41.0045 13.9549 41.005 14.0285C41.0048 14.1062 41.0047 14.1839 41.0045 14.264C41.005 14.3875 41.005 14.3875 41.0055 14.5135C41.0064 14.739 41.0064 14.9644 41.0062 15.1898C41.0062 15.3783 41.0065 15.5668 41.0068 15.7553C41.0075 16.2003 41.0075 16.6453 41.0071 17.0902C41.0067 17.5485 41.0075 18.0067 41.0089 18.4649C41.01 18.859 41.0104 19.253 41.0102 19.6471C41.0101 19.8821 41.0102 20.1172 41.0111 20.3523C41.0121 20.6147 41.0115 20.877 41.0107 21.1394C41.0112 21.2168 41.0117 21.2941 41.0122 21.3738C41.0093 21.8435 40.9862 22.2476 40.6843 22.6287C40.6439 22.6627 40.6035 22.6966 40.5619 22.7316C40.5223 22.7663 40.4827 22.8011 40.4419 22.8369C39.9675 23.141 39.5336 23.1556 38.9856 23.1524C38.9064 23.1527 38.8272 23.153 38.7456 23.1533C38.5267 23.1539 38.3079 23.1537 38.0891 23.1531C37.8526 23.1527 37.6162 23.1534 37.3798 23.1539C36.9171 23.1547 36.4543 23.1546 35.9916 23.154C35.6154 23.1536 35.2392 23.1535 34.863 23.1537C34.7827 23.1538 34.7827 23.1538 34.7007 23.1538C34.5918 23.1539 34.4829 23.1539 34.3741 23.154C33.3537 23.1545 32.3333 23.1539 31.313 23.1529C30.438 23.152 29.563 23.1522 28.688 23.1531C27.6713 23.1541 26.6546 23.1545 25.638 23.1539C25.5295 23.1538 25.421 23.1538 25.3126 23.1537C25.2592 23.1537 25.2058 23.1537 25.1508 23.1536C24.7752 23.1535 24.3997 23.1537 24.0241 23.1542C23.5662 23.1547 23.1082 23.1546 22.6503 23.1536C22.4168 23.1531 22.1833 23.1529 21.9497 23.1535C21.6963 23.1542 21.4429 23.1534 21.1895 23.1524C21.1161 23.1528 21.0427 23.1533 20.967 23.1537C20.3365 23.1491 19.8756 23.0432 19.4127 22.5999C18.9749 22.1328 19.043 21.5414 19.0416 20.9367C19.0412 20.8589 19.0408 20.7811 19.0403 20.701C19.0391 20.4444 19.0383 20.1879 19.0377 19.9313C19.0374 19.8426 19.0372 19.7538 19.0369 19.6651C19.0357 19.2481 19.0348 18.8312 19.0343 18.4143C19.0337 17.9346 19.032 17.455 19.0294 16.9754C19.0275 16.6035 19.0266 16.2316 19.0263 15.8596C19.0262 15.638 19.0256 15.4164 19.024 15.1948C19.0223 14.9474 19.0225 14.6999 19.023 14.4524C19.0222 14.38 19.0213 14.3075 19.0205 14.2328C19.0238 13.7184 19.1045 13.2584 19.4321 12.8489C19.4735 12.8159 19.5149 12.7828 19.5575 12.7488C19.5987 12.7144 19.6399 12.6801 19.6824 12.6447C19.9439 12.472 20.17 12.4124 20.4812 12.412Z" fill="white"/>
<path d="M37.2569 33.6841C37.3179 33.6836 37.379 33.6831 37.4419 33.6826C37.5702 33.6817 37.6985 33.681 37.8269 33.6805C37.9569 33.6798 38.087 33.6784 38.2171 33.6765C39.8004 33.6536 39.8004 33.6536 40.3508 34.1158C40.4138 34.1951 40.4138 34.1951 40.478 34.276C40.5134 34.3183 40.5488 34.3606 40.5853 34.4042C40.7792 34.702 40.8119 34.9545 40.8129 35.3081C40.8132 35.3532 40.8135 35.3983 40.8138 35.4448C40.8146 35.5957 40.8145 35.7465 40.8143 35.8973C40.8147 36.0056 40.8152 36.114 40.8156 36.2223C40.8168 36.5163 40.8171 36.8103 40.8171 37.1043C40.8172 37.2881 40.8175 37.4719 40.8178 37.6558C40.819 38.2974 40.8195 38.9391 40.8194 39.5807C40.8194 40.1782 40.8207 40.7757 40.8227 41.3731C40.8244 41.8866 40.8251 42.4 40.825 42.9134C40.8249 43.2199 40.8253 43.5263 40.8267 43.8327C40.8279 44.1211 40.8279 44.4095 40.827 44.6979C40.8268 44.8034 40.8271 44.909 40.8279 45.0146C40.8359 46.1918 40.8359 46.1918 40.434 46.6306C39.9597 47.0855 39.4804 47.1198 38.8516 47.1199C38.7747 47.1204 38.6978 47.1209 38.6186 47.1214C38.4563 47.1221 38.294 47.1222 38.1317 47.1219C37.8847 47.1219 37.6379 47.1246 37.3909 47.1274C37.2327 47.1277 37.0746 47.1279 36.9164 47.1279C36.8432 47.1289 36.77 47.13 36.6946 47.1311C36.1565 47.1265 35.7057 47.017 35.3121 46.6279C35.2846 46.5821 35.2572 46.5363 35.2289 46.4892C35.2 46.4438 35.171 46.3984 35.1412 46.3516C34.9722 45.953 34.9998 45.5007 34.9973 45.0749C34.9967 45.0088 34.996 44.9428 34.9954 44.8747C34.9934 44.6557 34.9918 44.4367 34.9902 44.2178C34.9889 44.0625 34.9876 43.9072 34.9862 43.7519C34.9834 43.4244 34.9808 43.097 34.9784 42.7695C34.9753 42.3604 34.9719 41.9513 34.9683 41.5422C34.9601 40.5871 34.9535 39.6321 34.9481 38.677C34.9467 38.4387 34.9452 38.2004 34.9435 37.962C34.941 37.5797 34.9392 37.1973 34.9379 36.8149C34.9374 36.6729 34.9366 36.5309 34.9356 36.3889C34.9342 36.1937 34.9337 35.9985 34.9334 35.8032C34.9328 35.7466 34.9322 35.6899 34.9316 35.6315C34.9324 35.1194 34.9958 34.557 35.3647 34.1714C35.9189 33.6699 36.5436 33.69 37.2569 33.6841Z" fill="#875AEF"/>
<path d="M36.6892 25.8708C36.7562 25.8698 36.8233 25.8687 36.8924 25.8677C37.1979 25.8648 37.5034 25.8622 37.8089 25.8607C37.9697 25.8597 38.1306 25.8579 38.2915 25.8555C38.5242 25.852 38.7569 25.8506 38.9897 25.8496C39.0612 25.8482 39.1326 25.8467 39.2063 25.8452C39.7667 25.8467 40.0736 25.9877 40.4666 26.3837C40.788 26.8556 40.825 27.2715 40.8218 27.8288C40.8219 27.8976 40.8221 27.9665 40.8223 28.0374C40.8224 28.1825 40.8221 28.3275 40.8213 28.4726C40.8203 28.6931 40.8213 28.9135 40.8225 29.1339C40.8224 29.2755 40.8221 29.417 40.8218 29.5586C40.8221 29.6238 40.8225 29.6889 40.8229 29.7561C40.8179 30.2794 40.7447 30.84 40.415 31.265C40.264 31.3781 40.264 31.3781 40.0971 31.4732C40.042 31.5052 39.9869 31.5373 39.9302 31.5703C39.6984 31.6917 39.5194 31.7222 39.2617 31.7258C39.1951 31.7268 39.1284 31.7279 39.0597 31.7289C38.7539 31.7318 38.448 31.7344 38.1422 31.7359C37.9813 31.7369 37.8204 31.7387 37.6596 31.7411C37.4269 31.7447 37.1943 31.746 36.9617 31.747C36.8904 31.7484 36.8192 31.7499 36.7459 31.7514C36.1777 31.7499 35.7593 31.6091 35.3327 31.2249C35.0269 30.7206 34.9819 30.1641 34.9855 29.5849C34.9853 29.4863 34.9853 29.4863 34.985 29.3857C34.9849 29.2478 34.9852 29.1099 34.986 28.972C34.987 28.7626 34.986 28.5532 34.9848 28.3437C34.9849 28.2088 34.9852 28.074 34.9855 27.9391C34.9852 27.8774 34.9848 27.8156 34.9844 27.752C34.9901 27.1847 35.0776 26.6532 35.4765 26.2293C35.8201 25.9396 36.254 25.8769 36.6892 25.8708Z" fill="#875AEF"/>
<path d="M21.1086 25.8599C21.1844 25.8598 21.2603 25.8598 21.3385 25.8598C21.4987 25.8599 21.6589 25.8605 21.8191 25.8616C22.0634 25.8631 22.3077 25.8629 22.552 25.8625C22.7079 25.8628 22.8639 25.8633 23.0199 25.8639C23.0925 25.8638 23.1652 25.8638 23.2401 25.8637C23.7878 25.8686 24.2749 25.8964 24.7111 26.2676C24.9532 26.594 25.0997 26.876 25.1028 27.2888C25.1034 27.3532 25.1041 27.4176 25.1047 27.484C25.105 27.5536 25.1052 27.6233 25.1055 27.6951C25.1059 27.7671 25.1062 27.8391 25.1066 27.9133C25.1072 28.066 25.1076 28.2188 25.1079 28.3715C25.1085 28.6034 25.1104 28.8352 25.1125 29.0671C25.1129 29.2157 25.1132 29.3644 25.1134 29.5131C25.1142 29.5817 25.115 29.6503 25.1158 29.721C25.1143 30.2568 25.0519 30.7612 24.7707 31.2249C24.2782 31.6684 23.7985 31.7611 23.153 31.7515C23.0789 31.7515 23.0048 31.7515 22.9284 31.7515C22.7727 31.7511 22.617 31.75 22.4614 31.7482C22.2239 31.7455 21.9865 31.7455 21.7491 31.746C21.5972 31.7453 21.4452 31.7445 21.2933 31.7435C21.1876 31.7434 21.1876 31.7434 21.0798 31.7434C20.5919 31.736 20.1507 31.68 19.764 31.349C19.7295 31.321 19.695 31.293 19.6594 31.2642C19.3225 30.8267 19.3417 30.3236 19.3431 29.7956C19.3427 29.7166 19.3424 29.6377 19.342 29.5563C19.3416 29.3899 19.3417 29.2234 19.3423 29.057C19.3428 28.8033 19.341 28.5498 19.339 28.2961C19.3389 28.1339 19.3389 27.9717 19.3391 27.8095C19.3384 27.7342 19.3376 27.6589 19.3369 27.5813C19.3414 27.0387 19.4291 26.6346 19.7759 26.2115C20.2079 25.8591 20.5716 25.8555 21.1086 25.8599Z" fill="#875AEF"/>
<path d="M21.0783 33.6362C21.1542 33.6362 21.23 33.6362 21.3082 33.6361C21.4684 33.6363 21.6286 33.6369 21.7888 33.638C22.0331 33.6395 22.2774 33.6393 22.5217 33.6389C22.6777 33.6392 22.8336 33.6397 22.9896 33.6402C23.0623 33.6402 23.1349 33.6401 23.2098 33.6401C23.7575 33.6449 24.2447 33.6727 24.6808 34.0439C24.923 34.3703 25.0694 34.6524 25.0726 35.0651C25.0732 35.1296 25.0738 35.194 25.0744 35.2603C25.0747 35.33 25.0749 35.3997 25.0752 35.4715C25.0756 35.5435 25.076 35.6155 25.0763 35.6897C25.0769 35.8424 25.0773 35.9951 25.0776 36.1479C25.0782 36.3797 25.0802 36.6116 25.0822 36.8434C25.0826 36.9921 25.0829 37.1408 25.0832 37.2894C25.084 37.3581 25.0847 37.4267 25.0856 37.4974C25.084 38.0332 25.0216 38.5376 24.7405 39.0013C24.2479 39.4448 23.7682 39.5375 23.1227 39.5278C23.0486 39.5278 22.9745 39.5278 22.8982 39.5278C22.7425 39.5275 22.5868 39.5264 22.4311 39.5245C22.1936 39.5218 21.9563 39.5219 21.7188 39.5223C21.5669 39.5217 21.415 39.5208 21.2631 39.5198C21.1573 39.5198 21.1573 39.5198 21.0495 39.5198C20.5616 39.5123 20.1205 39.4563 19.7337 39.1254C19.6992 39.0974 19.6647 39.0694 19.6292 39.0406C19.2923 38.6031 19.3115 38.0999 19.3128 37.572C19.3124 37.493 19.3121 37.414 19.3118 37.3327C19.3114 37.1662 19.3114 36.9998 19.312 36.8334C19.3125 36.5797 19.3107 36.3261 19.3087 36.0725C19.3086 35.9103 19.3086 35.7481 19.3088 35.5858C19.3081 35.5105 19.3074 35.4352 19.3066 35.3577C19.3112 34.8151 19.3988 34.411 19.7457 33.9879C20.1777 33.6354 20.5413 33.6319 21.0783 33.6362Z" fill="#875AEF"/>
<path d="M21.049 41.4126C21.1249 41.4126 21.2007 41.4125 21.2789 41.4125C21.4391 41.4127 21.5993 41.4133 21.7595 41.4143C22.0038 41.4158 22.2481 41.4157 22.4924 41.4152C22.6484 41.4156 22.8043 41.416 22.9603 41.4166C23.033 41.4165 23.1056 41.4165 23.1805 41.4164C23.7282 41.4213 24.2154 41.4491 24.6516 41.8203C24.8937 42.1467 25.0401 42.4288 25.0433 42.8415C25.0439 42.9059 25.0445 42.9703 25.0451 43.0367C25.0454 43.1064 25.0457 43.176 25.0459 43.2478C25.0463 43.3198 25.0467 43.3918 25.047 43.466C25.0476 43.6188 25.048 43.7715 25.0483 43.9242C25.0489 44.1561 25.0509 44.3879 25.0529 44.6198C25.0533 44.7685 25.0536 44.9171 25.0539 45.0658C25.0547 45.1344 25.0554 45.2031 25.0563 45.2738C25.0547 45.8096 24.9923 46.3139 24.7112 46.7776C24.2186 47.2212 23.7389 47.3139 23.0934 47.3042C23.0193 47.3042 22.9452 47.3042 22.8689 47.3042C22.7132 47.3039 22.5575 47.3028 22.4018 47.3009C22.1643 47.2982 21.927 47.2983 21.6895 47.2987C21.5376 47.298 21.3857 47.2972 21.2338 47.2962C21.1281 47.2962 21.1281 47.2962 21.0202 47.2962C20.5323 47.2887 20.0912 47.2327 19.7044 46.9018C19.6699 46.8738 19.6354 46.8458 19.5999 46.8169C19.263 46.3794 19.2822 45.8763 19.2835 45.3483C19.2831 45.2694 19.2828 45.1904 19.2825 45.1091C19.2821 44.9426 19.2821 44.7762 19.2827 44.6097C19.2832 44.3561 19.2814 44.1025 19.2794 43.8489C19.2793 43.6866 19.2793 43.5244 19.2795 43.3622C19.2788 43.2869 19.2781 43.2116 19.2773 43.134C19.2819 42.5914 19.3695 42.1873 19.7164 41.7642C20.1484 41.4118 20.512 41.4083 21.049 41.4126Z" fill="#875AEF"/>
<path d="M29.1004 25.8453C29.1716 25.8453 29.2427 25.8453 29.316 25.8453C29.4654 25.8456 29.6149 25.8467 29.7643 25.8486C29.9919 25.8513 30.2193 25.8512 30.4469 25.8508C30.5928 25.8515 30.7387 25.8523 30.8846 25.8533C30.9856 25.8533 30.9856 25.8533 31.0887 25.8533C31.682 25.8628 32.171 25.9587 32.595 26.3959C32.9016 26.8081 32.8873 27.1894 32.8853 27.6925C32.8857 27.7743 32.8861 27.856 32.8865 27.9403C32.8869 28.1129 32.8869 28.2854 32.8859 28.458C32.8848 28.6776 32.8863 28.897 32.8886 29.1165C32.8903 29.3279 32.8897 29.5393 32.8893 29.7508C32.8901 29.8287 32.8909 29.9067 32.8918 29.987C32.8861 30.5173 32.7986 30.9653 32.4374 31.3706C32.1453 31.6325 31.8621 31.7292 31.4772 31.7322C31.3728 31.7335 31.3728 31.7335 31.2662 31.7347C31.1916 31.7349 31.117 31.735 31.0401 31.7351C30.9627 31.7356 30.8853 31.736 30.8056 31.7364C30.642 31.7371 30.4784 31.7374 30.3149 31.7374C30.0654 31.7377 29.8159 31.74 29.5665 31.7424C29.4073 31.7428 29.2482 31.743 29.089 31.7432C29.0148 31.7441 28.9405 31.745 28.864 31.7459C28.3579 31.7431 28.0142 31.6751 27.6205 31.3337C27.5863 31.2926 27.552 31.2515 27.5167 31.2091C27.4639 31.1479 27.4639 31.1479 27.4099 31.0854C27.1456 30.6809 27.1714 30.2531 27.1718 29.7863C27.1715 29.7114 27.1712 29.6365 27.1709 29.5594C27.1706 29.4012 27.1705 29.2431 27.1708 29.0849C27.171 28.844 27.1695 28.6032 27.1679 28.3624C27.1678 28.2083 27.1677 28.0543 27.1678 27.9003C27.1672 27.8288 27.1666 27.7573 27.166 27.6836C27.1689 27.1901 27.2123 26.7516 27.5127 26.3478C28.0226 25.9543 28.4639 25.8353 29.1004 25.8453Z" fill="#875AEF"/>
<path d="M29.2104 41.4389C29.2762 41.4385 29.3421 41.4381 29.4099 41.4378C29.5489 41.4372 29.6879 41.4367 29.8269 41.4365C30.0382 41.4359 30.2496 41.4339 30.461 41.4319C30.5964 41.4314 30.7319 41.4311 30.8674 41.4309C30.93 41.4301 30.9926 41.4293 31.0571 41.4285C31.615 41.4303 32.0598 41.536 32.4926 41.9011C32.8652 42.3662 32.8881 42.7891 32.8872 43.3675C32.8877 43.4463 32.8883 43.5251 32.8889 43.6063C32.8896 43.7725 32.8896 43.9386 32.8891 44.1048C32.8887 44.3578 32.8917 44.6106 32.8949 44.8636C32.8952 45.0256 32.8953 45.1876 32.8951 45.3496C32.8963 45.4246 32.8975 45.4995 32.8987 45.5768C32.893 46.0859 32.7853 46.4331 32.4675 46.8337C31.9889 47.2442 31.4634 47.2384 30.8644 47.2396C30.7528 47.2403 30.7528 47.2403 30.639 47.2409C30.4822 47.2416 30.3254 47.2419 30.1685 47.2419C29.9294 47.2421 29.6903 47.2445 29.4512 47.2469C29.2984 47.2473 29.1456 47.2475 28.9928 47.2476C28.8862 47.249 28.8862 47.249 28.7775 47.2504C28.2561 47.2474 27.9192 47.149 27.5204 46.8097C27.1515 46.3636 27.1625 45.9682 27.1652 45.4084C27.165 45.3261 27.1649 45.2438 27.1647 45.159C27.1644 44.9852 27.1648 44.8115 27.1657 44.6377C27.1668 44.4159 27.1662 44.1942 27.165 43.9725C27.1642 43.7597 27.1648 43.5469 27.1652 43.3342C27.1648 43.255 27.1645 43.1758 27.1641 43.0943C27.1678 42.6352 27.1785 42.2673 27.4861 41.9051C28.0251 41.4689 28.5369 41.4418 29.2104 41.4389Z" fill="#875AEF"/>
<path d="M29.0859 33.6616C29.1556 33.6616 29.2253 33.6616 29.2971 33.6616C29.4436 33.6619 29.59 33.663 29.7365 33.6649C29.9594 33.6676 30.1823 33.6675 30.4052 33.6671C30.5482 33.6678 30.6913 33.6686 30.8343 33.6696C30.9332 33.6696 30.9332 33.6696 31.0342 33.6696C31.541 33.6779 32.0352 33.745 32.4274 34.0961C32.4673 34.13 32.5071 34.164 32.5481 34.1989C32.888 34.6367 32.8775 35.1246 32.8762 35.6557C32.8765 35.732 32.8769 35.8083 32.8772 35.8869C32.8776 36.0476 32.8775 36.2082 32.877 36.3689C32.8764 36.614 32.8783 36.859 32.8803 37.1041C32.8804 37.2606 32.8804 37.4172 32.8802 37.5738C32.8809 37.6466 32.8816 37.7195 32.8823 37.7945C32.8779 38.3091 32.8015 38.6544 32.4532 39.0492C32.4054 39.0902 32.3575 39.1313 32.3082 39.1735C32.2604 39.2157 32.2125 39.2579 32.1632 39.3014C31.9349 39.4638 31.726 39.474 31.4514 39.4762C31.3885 39.4768 31.3257 39.4774 31.2609 39.478C31.1933 39.4783 31.1257 39.4786 31.056 39.4789C30.9859 39.4792 30.9158 39.4796 30.8436 39.48C30.6951 39.4806 30.5467 39.481 30.3982 39.4812C30.1726 39.4819 29.947 39.4839 29.7214 39.4859C29.5769 39.4863 29.4323 39.4866 29.2878 39.4869C29.1875 39.4881 29.1875 39.4881 29.0852 39.4893C28.478 39.4875 27.9002 39.3869 27.4445 38.9533C27.2307 38.6588 27.1827 38.4042 27.18 38.045C27.1794 37.9789 27.1788 37.9128 27.1781 37.8447C27.1779 37.7736 27.1776 37.7024 27.1773 37.6291C27.177 37.5555 27.1766 37.4818 27.1762 37.406C27.1756 37.2501 27.1752 37.0942 27.175 36.9382C27.1743 36.7009 27.1724 36.4636 27.1704 36.2262C27.1699 36.0745 27.1696 35.9228 27.1694 35.7711C27.1686 35.7006 27.1678 35.6301 27.167 35.5575C27.1685 35.032 27.2232 34.508 27.596 34.1056C28.0495 33.7281 28.5145 33.6525 29.0859 33.6616Z" fill="#875AEF"/>
<path d="M28.1722 15.1593C28.7101 15.3979 28.9968 15.8912 29.2222 16.4131C29.5946 17.4235 29.5396 18.4767 29.1072 19.4627C28.8607 19.9409 28.5767 20.2254 28.0806 20.4372C27.619 20.5768 27.1741 20.5194 26.7454 20.3091C26.1718 19.9477 25.9173 19.3512 25.7361 18.7154C25.5303 17.7669 25.6709 16.7829 26.1263 15.9289C26.5983 15.2085 27.343 14.9467 28.1722 15.1593Z" fill="#03225E"/>
<path d="M32.6507 15.1831C33.2642 15.5188 33.5631 16.078 33.7568 16.7338C33.8155 16.9671 33.855 17.1858 33.8656 17.4261C33.8689 17.4824 33.8722 17.5387 33.8755 17.5967C33.9021 18.4424 33.7296 19.3395 33.1757 20.0013C32.829 20.334 32.4364 20.5015 31.9583 20.5254C31.5306 20.5065 31.1147 20.3643 30.8139 20.0529C30.1576 19.2547 30.0313 18.1734 30.1145 17.1698C30.2508 16.4371 30.5656 15.8197 31.13 15.3358C31.5709 15.0345 32.1528 15.0109 32.6507 15.1831Z" fill="#04225E"/>
<path d="M24.3413 15.6279C24.7661 16.0203 25.0214 16.7351 25.0478 17.3037C25.0491 17.3978 25.0493 17.4919 25.0486 17.586C25.0481 17.6612 25.0481 17.6612 25.0476 17.7379C25.0332 18.4725 24.9059 19.1628 24.5201 19.7964C24.4847 19.8559 24.4493 19.9153 24.4128 19.9766C24.0472 20.3251 23.6743 20.4578 23.1731 20.4691C22.8304 20.4557 22.5891 20.4215 22.2949 20.2449C22.2398 20.2119 22.1847 20.1788 22.128 20.1448C21.905 19.9142 21.7889 19.6396 21.6591 19.3479C21.9532 19.0356 21.9532 19.0356 22.1677 18.9635C22.2024 19.0157 22.2024 19.0157 22.2378 19.0689C22.437 19.3546 22.5897 19.5561 22.9307 19.6683C23.2368 19.7075 23.4571 19.6702 23.7212 19.5011C23.906 19.3357 23.987 19.1279 24.0751 18.8994C24.0941 18.8509 24.1131 18.8023 24.1327 18.7523C24.1787 18.6311 24.2225 18.5091 24.2658 18.3869C24.228 18.4054 24.1902 18.4239 24.1513 18.443C23.6392 18.6741 23.1777 18.7261 22.6326 18.5751C22.1424 18.3865 21.8154 18.0237 21.5955 17.554C21.4413 17.1526 21.5235 16.6986 21.6524 16.3021C21.8495 15.8599 22.1858 15.5786 22.6128 15.3756C23.2107 15.1894 23.8173 15.3069 24.3413 15.6279Z" fill="#03235E"/>
<path d="M38.0701 15.3446C38.3171 15.5418 38.484 15.7041 38.5471 16.0286C38.5074 16.2088 38.5074 16.2088 38.3643 16.3369C38.1895 16.401 38.1895 16.401 38.0624 16.365C37.9658 16.295 37.8722 16.2208 37.7802 16.1447C37.5338 15.9509 37.3568 15.8722 37.0451 15.9005C36.7398 15.9508 36.5511 16.0613 36.3378 16.2889C36.2424 16.4299 36.1797 16.5453 36.1158 16.7003C36.0868 16.7707 36.0578 16.8411 36.0279 16.9136C36.0692 16.9125 36.1106 16.9115 36.1532 16.9105C36.3406 16.9065 36.5279 16.904 36.7153 16.9015C36.7804 16.8999 36.8455 16.8983 36.9126 16.8967C37.0064 16.8957 37.0064 16.8957 37.102 16.8948C37.1596 16.8938 37.2172 16.8928 37.2765 16.8917C37.4266 16.9136 37.4266 16.9136 37.5432 16.9983C37.6173 17.1058 37.6173 17.1058 37.6014 17.306C37.5537 17.4902 37.5537 17.4902 37.4902 17.5542C37.3769 17.5598 37.2635 17.5611 37.1502 17.5605C37.0815 17.5603 37.0129 17.5601 36.9422 17.5599C36.8699 17.5593 36.7977 17.5588 36.7233 17.5583C36.6508 17.558 36.5783 17.5577 36.5036 17.5574C36.3238 17.5566 36.1441 17.5556 35.9643 17.5542C35.9643 17.7234 35.9643 17.8925 35.9643 18.0668C36.0099 18.0661 36.0554 18.0655 36.1024 18.0648C36.308 18.0621 36.5136 18.0604 36.7193 18.0588C36.791 18.0577 36.8627 18.0566 36.9366 18.0555C37.005 18.0551 37.0735 18.0547 37.144 18.0543C37.2072 18.0536 37.2705 18.0529 37.3357 18.0523C37.4902 18.0668 37.4902 18.0668 37.6173 18.1949C37.6527 18.5301 37.6527 18.5301 37.541 18.6857C37.3897 18.7992 37.2895 18.7989 37.102 18.8043C37.0395 18.8066 36.977 18.8089 36.9126 18.8112C36.8475 18.8127 36.7824 18.8141 36.7153 18.8156C36.6495 18.8178 36.5836 18.82 36.5158 18.8222C36.3531 18.8275 36.1905 18.832 36.0279 18.8356C36.0769 18.9173 36.1264 18.9988 36.1759 19.0801C36.2034 19.1255 36.2308 19.1709 36.2592 19.2177C36.4171 19.4557 36.5808 19.6219 36.8608 19.7111C37.176 19.7667 37.4114 19.7287 37.6896 19.5697C37.901 19.4031 38.0458 19.1898 38.1895 18.9638C38.563 19.212 38.563 19.212 38.6346 19.2841C38.6753 19.5166 38.6289 19.6149 38.5153 19.8247C38.2639 20.1575 37.8793 20.3707 37.4902 20.5014C36.9324 20.5566 36.4895 20.5158 36.0279 20.1811C35.7022 19.9087 35.5596 19.6292 35.4239 19.2281C35.3411 18.9534 35.3411 18.9534 35.151 18.7583C35.017 18.7207 35.017 18.7207 34.8199 18.7075C34.7779 18.6652 34.736 18.6229 34.6928 18.5794C34.7294 18.158 34.7294 18.158 34.8199 18.0668C34.9682 18.0642 35.1166 18.0641 35.2649 18.0668C35.2649 17.8977 35.2649 17.7285 35.2649 17.5542C35.185 17.5582 35.105 17.5622 35.0226 17.5663C34.8525 17.5657 34.7745 17.5648 34.6252 17.4782C34.5656 17.362 34.5656 17.362 34.5775 17.1979C34.6292 17.0417 34.6292 17.0417 34.7563 16.9136C34.8939 16.901 34.8939 16.901 35.0504 16.9055C35.1283 16.9073 35.1283 16.9073 35.2078 16.9091C35.2676 16.9113 35.2676 16.9113 35.3285 16.9136C35.3311 16.8422 35.3338 16.7708 35.3365 16.6973C35.4048 16.1646 35.7445 15.7297 36.1518 15.4019C36.7203 15.0091 37.4843 14.9587 38.0701 15.3446Z" fill="#03225E"/>
<path d="M27.8897 15.9525C28.2784 16.1138 28.4086 16.4213 28.5769 16.7891C28.6664 17.0118 28.7079 17.185 28.7162 17.426C28.72 17.4919 28.7239 17.5577 28.7278 17.6255C28.752 18.2999 28.6419 18.9428 28.2076 19.4763C27.9961 19.6636 27.8317 19.7274 27.5479 19.7486C27.2066 19.7248 27.0683 19.6112 26.8327 19.3681C26.3579 18.7632 26.3563 17.9034 26.4274 17.1698C26.5344 16.6919 26.6938 16.3087 27.0917 16.0135C27.3633 15.8453 27.5846 15.889 27.8897 15.9525Z" fill="white"/>
<path d="M32.3403 15.9524C32.7243 16.1701 32.9178 16.4964 33.0396 16.9135C33.2173 17.6733 33.2099 18.4563 32.8576 19.1664C32.7015 19.4204 32.4989 19.6393 32.2131 19.7325C31.908 19.7673 31.6898 19.7339 31.4271 19.5656C30.9918 19.1918 30.8838 18.6417 30.8263 18.0948C30.7877 17.4291 30.8797 16.7304 31.323 16.2087C31.6422 15.91 31.916 15.8275 32.3403 15.9524Z" fill="white"/>
<path d="M23.713 16.1566C24.011 16.3592 24.1425 16.5536 24.2335 16.9014C24.2808 17.1922 24.2551 17.3846 24.1041 17.6377C23.878 17.9014 23.6074 17.9898 23.2719 18.0306C22.8676 17.9778 22.6231 17.7954 22.358 17.49C22.2528 17.1722 22.2376 16.85 22.3739 16.541C22.7435 16.0754 23.1465 15.9519 23.713 16.1566Z" fill="white"/>
<path d="M21.7235 16.2727C21.793 16.4857 21.7795 16.6319 21.7315 16.8493C21.7198 16.9035 21.7082 16.9577 21.6962 17.0135C21.6642 17.1513 21.631 17.2888 21.5964 17.4259C21.4619 17.155 21.5143 16.8173 21.5924 16.533C21.6599 16.3368 21.6599 16.3368 21.7235 16.2727Z" fill="#04114E"/>
<path d="M24.2657 18.387C24.2269 18.6149 24.1653 18.8151 24.0749 19.0277C24.0113 18.8354 24.0113 18.8354 24.0113 18.6432C23.8855 18.6432 23.7596 18.6432 23.6299 18.6432C23.7147 18.6005 23.7994 18.5578 23.8842 18.5151C23.9288 18.4913 23.9734 18.4675 24.0193 18.443C24.1385 18.387 24.1385 18.387 24.2657 18.387Z" fill="#E5E4DA"/>
</svg>
