<svg width="60" height="60" viewBox="0 0 60 60" fill="none" xmlns="http://www.w3.org/2000/svg">
<rect width="60" height="60" rx="8" fill="#E4EBFE"/>
<path d="M13.9967 6.0038C14.0966 6.00325 14.1966 6.00271 14.2996 6.00215C14.6328 6.00077 14.9658 6.00186 15.299 6.00296C15.5386 6.00268 15.7782 6.00188 16.0177 6.00111C16.5998 5.99957 17.1819 5.99989 17.764 6.00091C18.2373 6.00169 18.7105 6.0018 19.1838 6.00142C19.2513 6.00137 19.3188 6.00131 19.3883 6.00126C19.5254 6.00115 19.6625 6.00103 19.7997 6.00092C21.0839 5.99993 22.3681 6.00107 23.6524 6.00294C24.7531 6.00449 25.8539 6.00422 26.9547 6.00262C28.2345 6.00075 29.5143 6.00002 30.7941 6.00109C30.9307 6.0012 31.0673 6.00131 31.2039 6.00142C31.3047 6.0015 31.3047 6.0015 31.4075 6.00158C31.8799 6.00188 32.3524 6.00138 32.8248 6.00056C33.401 5.99958 33.9771 5.99985 34.5532 6.0017C34.8469 6.00261 35.1405 6.00279 35.4342 6.00182C35.7532 6.00087 36.0721 6.00206 36.391 6.0038C36.529 6.00263 36.529 6.00263 36.6698 6.00144C38.1045 6.01652 38.9402 6.8633 39.9084 7.8207C39.9714 7.88286 40.0344 7.94502 40.0993 8.00907C40.1577 8.06781 40.216 8.12655 40.2761 8.18707C40.3289 8.24005 40.3817 8.29303 40.4361 8.34761C40.5501 8.48411 40.5501 8.48411 40.5501 8.65811C40.6075 8.65811 40.6649 8.65811 40.7241 8.65811C40.8284 8.76449 40.8284 8.76449 40.9579 8.92456C41.4347 9.48699 41.9677 9.99608 42.4917 10.5139C42.6167 10.6379 42.7406 10.763 42.8642 10.8883C43.1765 11.196 43.5073 11.4824 43.8362 11.7723C43.9002 11.8356 43.9643 11.899 44.0302 11.9643C44.0302 12.0217 44.0302 12.0791 44.0302 12.1383C44.0773 12.1571 44.1245 12.176 44.173 12.1954C44.4493 12.3527 44.6573 12.5661 44.8785 12.7908C44.9226 12.8342 44.9667 12.8776 45.0121 12.9223C45.3353 13.2473 45.3353 13.2473 45.3353 13.4433C45.3927 13.4433 45.4501 13.4433 45.5093 13.4433C45.5093 13.5008 45.5093 13.5582 45.5093 13.6173C45.5614 13.6407 45.6134 13.664 45.667 13.688C45.8572 13.7913 45.9803 13.8867 46.1183 14.0524C46.1183 14.1098 46.1183 14.1672 46.1183 14.2264C46.1672 14.2471 46.2161 14.2679 46.2664 14.2893C46.6488 14.5018 46.9373 14.8389 47.2446 15.1463C47.3671 15.2685 47.4911 15.3893 47.6151 15.51C48.6259 16.5165 49.1082 17.4513 49.1118 18.8872C49.1113 19.0209 49.1108 19.1546 49.1102 19.2883C49.1106 19.4317 49.1111 19.5751 49.1116 19.7186C49.1129 20.1114 49.1125 20.5042 49.1119 20.8971C49.1115 21.3213 49.1126 21.7455 49.1134 22.1696C49.1149 23.0002 49.115 23.8308 49.1146 24.6613C49.1142 25.3366 49.1143 26.0119 49.1148 26.6872C49.1149 26.7833 49.1149 26.8795 49.115 26.9785C49.1151 27.1739 49.1153 27.3692 49.1154 27.5646C49.1166 29.3962 49.1161 31.2279 49.1151 33.0595C49.1143 34.7342 49.1154 36.4088 49.1175 38.0835C49.1196 39.8039 49.1204 41.5244 49.1198 43.2448C49.1195 44.2104 49.1197 45.1759 49.1213 46.1414C49.1225 46.9635 49.1226 47.7856 49.1211 48.6076C49.1203 49.0268 49.1201 49.446 49.1215 49.8651C49.1227 50.2494 49.1223 50.6337 49.1206 51.0179C49.1203 51.1564 49.1205 51.2949 49.1214 51.4333C49.1275 52.4353 49.0929 53.5453 48.3492 54.304C47.8199 54.7425 47.2609 54.9658 46.5759 54.9669C46.5178 54.9673 46.4597 54.9676 46.3998 54.9679C46.2047 54.9688 46.0096 54.9685 45.8145 54.9682C45.6734 54.9686 45.5322 54.969 45.3911 54.9696C45.0029 54.9708 44.6147 54.9709 44.2266 54.9709C43.808 54.971 43.3895 54.9722 42.9709 54.9732C42.0556 54.9752 41.1402 54.9758 40.2249 54.9763C39.6534 54.9766 39.0818 54.9771 38.5103 54.9778C36.9279 54.9795 35.3456 54.9809 33.7632 54.9811C33.6113 54.9812 33.6113 54.9812 33.4563 54.9812C33.251 54.9812 33.0457 54.9813 32.8404 54.9813C32.6875 54.9813 32.6875 54.9813 32.5315 54.9813C32.3785 54.9814 32.3785 54.9814 32.2223 54.9814C30.5688 54.9817 28.9154 54.984 27.2619 54.9873C25.5644 54.9906 23.8668 54.9923 22.1693 54.9923C21.2161 54.9924 20.263 54.9931 19.3099 54.9956C18.4983 54.9978 17.6867 54.9984 16.8751 54.9971C16.461 54.9965 16.047 54.9965 15.633 54.9985C15.2537 55.0003 14.8745 55.0001 14.4952 54.9983C14.3582 54.998 14.2213 54.9984 14.0843 54.9996C13.1142 55.0079 12.4061 54.8805 11.6701 54.2157C11.1068 53.6059 11.0426 52.9039 11.0438 52.1026C11.0435 52.0264 11.0433 51.9503 11.0431 51.8718C11.0424 51.6152 11.0423 51.3587 11.0423 51.1021C11.0419 50.9168 11.0415 50.7315 11.0411 50.5462C11.0401 50.036 11.0396 49.5258 11.0392 49.0156C11.0387 48.4658 11.0377 47.9159 11.0367 47.3661C11.0347 46.1006 11.0334 44.8351 11.0324 43.5696C11.032 43.1317 11.0316 42.6939 11.0312 42.2561C11.029 39.9277 11.0271 37.5994 11.026 35.2711C11.0257 34.7318 11.0255 34.1925 11.0252 33.6532C11.0252 33.5862 11.0251 33.5192 11.0251 33.4501C11.0241 31.2775 11.0214 29.1048 11.0177 26.9321C11.014 24.6983 11.0117 22.4645 11.0112 20.2306C11.0112 19.9151 11.0111 19.5996 11.011 19.2841C11.011 19.222 11.011 19.1599 11.011 19.096C11.0107 18.0968 11.0089 17.0977 11.0066 16.0985C11.0043 15.0942 11.0037 14.0899 11.0046 13.0856C11.0051 12.5415 11.0048 11.9974 11.0026 11.4534C11.0007 10.9553 11.0007 10.4572 11.0024 9.9591C11.0026 9.77894 11.0022 9.59878 11.0009 9.41862C10.9935 8.33198 11.0174 7.518 11.768 6.66789C12.4078 6.08235 13.1623 5.99676 13.9967 6.0038Z" fill="white"/>
<path d="M23.2845 34.0257C23.4179 34.025 23.4179 34.025 23.5539 34.0244C23.7416 34.0238 23.9294 34.0239 24.1171 34.0247C24.4037 34.0254 24.6902 34.0229 24.9768 34.0201C25.1595 34.02 25.3422 34.02 25.5249 34.0203C25.6529 34.0188 25.6529 34.0188 25.7836 34.0173C26.2825 34.0224 26.5866 34.0687 26.9771 34.4115C27.1769 34.7113 27.1742 34.8276 27.1777 35.181C27.1791 35.2856 27.1805 35.3901 27.182 35.4978C27.1824 35.6109 27.1829 35.7241 27.1834 35.8406C27.1842 35.958 27.1849 36.0753 27.1858 36.1927C27.1872 36.4388 27.1879 36.6849 27.1881 36.931C27.1886 37.2455 27.1919 37.56 27.1958 37.8744C27.1984 38.117 27.199 38.3595 27.1991 38.602C27.1997 38.774 27.2022 38.9461 27.2048 39.1181C27.2005 39.9892 27.2005 39.9892 26.9414 40.3105C26.605 40.596 26.4025 40.6077 25.9657 40.6377C25.8105 40.6486 25.8105 40.6486 25.6523 40.6598C25.5727 40.6651 25.493 40.6703 25.411 40.6758C25.4562 40.7463 25.5014 40.8169 25.548 40.8895C26.3016 42.0861 26.811 43.2453 26.8901 44.678C26.897 44.7651 26.897 44.7651 26.904 44.854C26.9833 46.6538 26.2412 48.3639 25.1337 49.7405C23.8666 51.0979 22.1737 51.9308 20.3131 52.007C18.3696 52.0512 16.6644 51.5233 15.2315 50.1592C13.8718 48.8462 13.1368 47.174 13.0387 45.2968C13.0143 43.3124 13.6782 41.5387 15.0371 40.0797C16.4516 38.7196 18.1995 38.0379 20.147 38.0325C20.6649 38.0437 21.163 38.1374 21.6698 38.2397C21.6685 38.1365 21.6671 38.0334 21.6657 37.9271C21.6609 37.5436 21.658 37.1602 21.6555 36.7767C21.6542 36.6108 21.6524 36.445 21.6501 36.2792C21.647 36.0405 21.6455 35.8019 21.6443 35.5633C21.643 35.4894 21.6416 35.4155 21.6403 35.3394C21.6401 34.931 21.655 34.6489 21.9308 34.3245C22.3271 33.9755 22.7842 34.0242 23.2845 34.0257Z" fill="#66DDAC"/>
<path d="M38.8746 26.9893C38.9582 26.9879 39.0419 26.9865 39.1281 26.985C39.2635 26.9843 39.2635 26.9843 39.4016 26.9836C39.5411 26.9824 39.5411 26.9824 39.6835 26.9812C39.8804 26.98 40.0774 26.9792 40.2743 26.9789C40.5751 26.9779 40.8758 26.9736 41.1765 26.9692C41.3679 26.9684 41.5593 26.9677 41.7507 26.9673C41.8404 26.9656 41.9302 26.9639 42.0226 26.9622C42.7209 26.9665 42.7209 26.9665 43.0416 27.2256C43.3314 27.5433 43.3452 27.6868 43.3469 28.1081C43.3475 28.2108 43.3482 28.3135 43.3488 28.4193C43.349 28.5326 43.3493 28.6458 43.3495 28.7625C43.3501 28.8826 43.3506 29.0026 43.3512 29.1227C43.3528 29.4493 43.3537 29.7759 43.3544 30.1026C43.3548 30.3066 43.3554 30.5107 43.3559 30.7148C43.3576 31.3533 43.3588 31.9917 43.3595 32.6302C43.3604 33.3672 43.3627 34.1042 43.3662 34.8412C43.3688 35.4109 43.3701 35.9805 43.3704 36.5501C43.3706 36.8903 43.3714 37.2305 43.3736 37.5707C43.3756 37.891 43.376 38.2111 43.3751 38.5314C43.375 38.7046 43.3767 38.8778 43.3784 39.051C43.3727 40.0184 43.3727 40.0184 42.9861 40.4145C42.7358 40.588 42.5323 40.611 42.2315 40.6138C42.1513 40.6149 42.0712 40.6161 41.9886 40.6172C41.9026 40.6174 41.8166 40.6176 41.7279 40.6178C41.6389 40.6184 41.5499 40.6189 41.4581 40.6195C41.2699 40.6204 41.0817 40.6208 40.8934 40.6208C40.606 40.6212 40.3187 40.6243 40.0314 40.6276C39.8483 40.6281 39.6652 40.6285 39.4821 40.6287C39.3536 40.6305 39.3536 40.6305 39.2226 40.6324C38.7247 40.6291 38.4123 40.5894 38.0269 40.2405C37.8448 39.9557 37.8307 39.7264 37.8296 39.3918C37.8288 39.2895 37.8281 39.1873 37.8273 39.082C37.8274 38.9702 37.8275 38.8584 37.8276 38.7432C37.8271 38.6239 37.8265 38.5047 37.8258 38.3855C37.8243 38.062 37.8239 37.7384 37.8237 37.4148C37.8236 37.2126 37.8233 37.0103 37.8228 36.8081C37.8212 36.1023 37.8205 35.3966 37.8206 34.6908C37.8207 34.0333 37.8189 33.3758 37.8161 32.7183C37.8139 32.1535 37.8129 31.5887 37.813 31.0239C37.8131 30.6867 37.8126 30.3495 37.8107 30.0123C37.809 29.6951 37.809 29.3779 37.8103 29.0607C37.8106 28.8891 37.8091 28.7176 37.8076 28.546C37.8143 27.599 37.8143 27.599 38.2009 27.1899C38.4789 27.0046 38.5547 26.9933 38.8746 26.9893Z" fill="#66DDAC"/>
<path d="M23.2844 34.0257C23.4177 34.025 23.4177 34.025 23.5538 34.0244C23.7415 34.0238 23.9292 34.0239 24.1169 34.0247C24.4036 34.0254 24.6901 34.0229 24.9767 34.0201C25.1594 34.02 25.342 34.02 25.5247 34.0203C25.6528 34.0188 25.6528 34.0188 25.7835 34.0173C26.2824 34.0224 26.5864 34.0687 26.9769 34.4115C27.1768 34.7113 27.174 34.8276 27.1776 35.181C27.179 35.2856 27.1804 35.3901 27.1818 35.4978C27.1823 35.6109 27.1827 35.7241 27.1832 35.8406C27.184 35.958 27.1848 36.0753 27.1856 36.1927C27.187 36.4388 27.1877 36.6849 27.188 36.931C27.1884 37.2455 27.1917 37.56 27.1957 37.8744C27.1983 38.117 27.1989 38.3595 27.199 38.602C27.1995 38.774 27.2021 38.9461 27.2047 39.1181C27.2003 39.9892 27.2003 39.9892 26.9413 40.3105C26.6049 40.596 26.4023 40.6077 25.9655 40.6377C25.8621 40.645 25.7587 40.6523 25.6522 40.6598C25.5725 40.6651 25.4929 40.6703 25.4109 40.6758C25.4561 40.7463 25.5013 40.8169 25.5478 40.8895C26.3921 42.2301 26.8674 43.4127 26.8029 45.026C26.4426 45.1128 26.1056 45.1235 25.7355 45.1229C25.641 45.1229 25.641 45.1229 25.5446 45.1229C25.3417 45.1228 25.1389 45.1222 24.9361 45.1215C24.8104 45.1214 24.6847 45.1213 24.5591 45.1212C24.0944 45.1208 23.6297 45.1195 23.1651 45.1184C22.1261 45.1166 21.0871 45.1148 20.0166 45.113C20.0166 42.7874 20.0166 40.4617 20.0166 38.0656C20.4734 38.0656 20.8055 38.0668 21.2347 38.1527C21.3585 38.1769 21.3585 38.1769 21.4848 38.2016C21.5458 38.2142 21.6068 38.2267 21.6697 38.2397C21.6683 38.1365 21.6669 38.0334 21.6655 37.9271C21.6608 37.5436 21.6578 37.1602 21.6553 36.7767C21.654 36.6108 21.6523 36.445 21.65 36.2792C21.6468 36.0405 21.6453 35.8019 21.6442 35.5633C21.6428 35.4894 21.6415 35.4155 21.6401 35.3394C21.64 34.931 21.6548 34.6489 21.9307 34.3245C22.327 33.9755 22.7841 34.0242 23.2844 34.0257Z" fill="#007940"/>
<path d="M41.1515 19.4369C41.2438 19.4353 41.3361 19.4337 41.4313 19.432C41.507 19.4305 41.5827 19.429 41.6606 19.4275C41.8831 19.4492 42.0167 19.4994 42.2041 19.6206C42.3847 19.8915 42.4003 19.9516 42.4012 20.2592C42.4016 20.3362 42.4019 20.4132 42.4023 20.4925C42.4015 20.5762 42.4007 20.66 42.3999 20.7462C42.3992 20.8767 42.3992 20.8767 42.3985 21.0098C42.3897 21.7372 42.3514 22.462 42.302 23.1878C42.2918 23.3425 42.2918 23.3425 42.2813 23.5004C42.1854 24.7834 42.1854 24.7834 41.7963 25.1454C41.4365 25.3083 41.2738 25.3115 40.8991 25.1889C40.6042 24.9438 40.479 24.8057 40.4375 24.4202C40.4407 24.1273 40.4574 23.8387 40.4803 23.5467C40.4895 23.3946 40.4895 23.3946 40.4989 23.2394C40.5142 22.99 40.5317 22.7409 40.551 22.4917C40.4858 22.5517 40.4205 22.6117 40.3532 22.6736C39.9278 23.0643 39.5019 23.4545 39.072 23.8403C38.6204 24.2457 38.1731 24.6558 37.7262 25.0664C37.5079 25.2669 37.2894 25.4671 37.0709 25.6674C36.9839 25.7471 36.8969 25.8269 36.8099 25.9066C36.6359 26.0662 36.4618 26.2257 36.2878 26.3852C36.2447 26.4247 36.2016 26.4642 36.1572 26.5049C36.0706 26.5843 35.984 26.6636 35.8973 26.7429C35.6734 26.9478 35.4503 27.1535 35.2285 27.3606C34.0323 28.4748 34.0323 28.4748 33.5992 28.5232C33.2782 28.4896 33.1646 28.4099 32.9219 28.2014C32.8469 28.1378 32.772 28.0742 32.6948 28.0087C32.3766 27.7249 32.0612 27.4382 31.7476 27.1492C31.4236 26.8579 31.0868 26.5844 30.7468 26.3121C30.5456 26.1459 30.5456 26.1459 30.4096 25.9879C30.3683 25.9539 30.3271 25.9199 30.2845 25.8849C30.0075 25.9226 29.8597 26.0149 29.6606 26.2064C29.5852 26.2779 29.5852 26.2779 29.5082 26.3508C29.4558 26.4016 29.4033 26.4524 29.3493 26.5048C29.2397 26.6089 29.13 26.7129 29.0203 26.8168C28.9679 26.8667 28.9155 26.9165 28.8616 26.9679C28.6431 27.174 28.4169 27.3703 28.1897 27.5665C27.9867 27.7431 27.7871 27.9232 27.5874 28.1035C27.3281 28.3375 27.0678 28.5701 26.8044 28.7995C26.394 29.1572 25.9904 29.5223 25.5863 29.8871C25.3691 30.0827 25.1518 30.2782 24.9345 30.4737C24.7871 30.6064 24.6398 30.7391 24.4927 30.872C24.3465 31.0039 24.1998 31.1352 24.0525 31.2659C23.9199 31.3863 23.7902 31.5101 23.6644 31.6377C23.3719 31.9255 23.1615 32.1024 22.7424 32.1329C22.4541 32.1084 22.2992 32.0452 22.1007 31.8338C21.8438 31.3863 21.8438 31.3863 21.9322 31.0181C22.3209 30.4231 22.9211 29.9617 23.4469 29.4897C23.6722 29.2867 23.895 29.081 24.1181 28.8757C24.5758 28.4557 25.037 28.0398 25.4993 27.625C25.6444 27.4945 25.7894 27.364 25.9343 27.2335C26.0059 27.1691 26.0774 27.1047 26.1512 27.0384C26.2985 26.9057 26.4458 26.7729 26.593 26.6401C26.978 26.2927 27.365 25.9481 27.756 25.6076C27.9624 25.4262 28.1665 25.2424 28.3705 25.0584C28.5155 24.9278 28.6605 24.7973 28.8055 24.6668C28.8697 24.6087 28.934 24.5506 29.0002 24.4908C29.7583 23.8141 29.7583 23.8141 30.185 23.7727C30.511 23.8014 30.6205 23.8792 30.8664 24.0904C30.9413 24.154 31.0162 24.2176 31.0934 24.2831C31.4117 24.5669 31.7271 24.8536 32.0406 25.1426C32.3647 25.4339 32.7015 25.7074 33.0415 25.9797C33.2427 26.1459 33.2427 26.1459 33.3786 26.3039C33.4986 26.4261 33.4986 26.4261 33.6736 26.3994C33.8935 26.3012 34.0136 26.1804 34.178 26.0045C34.3976 25.7765 34.617 25.5576 34.8577 25.352C35.2053 25.0529 35.54 24.7411 35.8746 24.4276C36.3582 23.9745 36.8443 23.5243 37.3336 23.0773C37.5189 22.9079 37.7034 22.7376 37.8876 22.5668C37.9621 22.4977 37.9621 22.4977 38.0382 22.4272C38.1327 22.3396 38.2271 22.2519 38.3214 22.1641C38.6512 21.8584 38.9898 21.5643 39.333 21.2737C39.2844 21.2719 39.2358 21.2702 39.1857 21.2684C38.961 21.2601 38.7365 21.2506 38.5119 21.241C38.4354 21.2384 38.359 21.2357 38.2803 21.2329C37.0103 21.1767 37.0103 21.1767 36.6304 20.8658C36.5099 20.5685 36.4987 20.3734 36.5488 20.0556C36.9018 19.6696 37.1566 19.5697 37.6736 19.5448C37.7495 19.5432 37.8254 19.5417 37.9035 19.54C37.9834 19.5368 38.0632 19.5336 38.1454 19.5302C38.3999 19.5203 38.6543 19.5134 38.9088 19.5064C39.0779 19.5002 39.2469 19.4938 39.4159 19.4872C39.8129 19.4723 40.2098 19.4607 40.607 19.4514C40.7885 19.4471 40.97 19.4421 41.1515 19.4369Z" fill="#66DDAC"/>
<path d="M25.7417 11.6857C25.9818 11.8709 26.151 12.0235 26.26 12.3096C26.2972 12.612 26.2424 12.773 26.0554 13.0138C25.7935 13.2647 25.6173 13.4257 25.251 13.4805C24.9093 13.4343 24.6694 13.2926 24.384 13.1117C23.5064 12.5886 22.7974 12.3591 21.7576 12.4864C21.0282 12.7301 20.4999 13.1544 20.0827 13.7969C20.0231 13.8876 19.9634 13.9783 19.9019 14.0718C19.7477 14.3082 19.7477 14.3082 19.6695 14.5745C19.781 14.5722 19.8925 14.5699 20.0074 14.5676C20.4212 14.5597 20.8349 14.5547 21.2488 14.5506C21.4278 14.5484 21.6069 14.5454 21.786 14.5417C22.0434 14.5364 22.3008 14.5339 22.5583 14.532C22.6383 14.5297 22.7184 14.5275 22.8008 14.5252C23.3545 14.5249 23.3545 14.5249 23.6379 14.7749C23.8035 15.0966 23.7733 15.2756 23.6717 15.6185C23.4243 15.8547 23.255 15.912 22.9167 15.9092C22.7966 15.9091 22.7966 15.9091 22.674 15.9091C22.5883 15.9078 22.5025 15.9064 22.4142 15.905C22.3258 15.9047 22.2375 15.9043 22.1465 15.9039C21.8646 15.9024 21.5827 15.8992 21.3008 15.8958C21.1096 15.8945 20.9183 15.8933 20.7271 15.8923C20.2585 15.8894 19.79 15.8849 19.3215 15.8795C19.3215 16.2528 19.3215 16.626 19.3215 17.0106C19.4848 17.0079 19.4848 17.0079 19.6514 17.0051C20.0554 16.9988 20.4595 16.9948 20.8636 16.9915C21.0384 16.9897 21.2133 16.9873 21.3881 16.9843C21.6395 16.9801 21.8909 16.9781 22.1423 16.9766C22.2204 16.9748 22.2986 16.973 22.3791 16.9712C22.9202 16.971 22.9202 16.971 23.199 17.1704C23.3698 17.4282 23.3742 17.5774 23.3236 17.8806C23.1931 18.0688 23.1931 18.0688 22.9756 18.2286C22.7182 18.259 22.4941 18.2694 22.2374 18.2626C22.1665 18.2621 22.0955 18.2616 22.0224 18.2611C21.7963 18.2592 21.5704 18.2548 21.3443 18.2504C21.1908 18.2487 21.0373 18.2471 20.8838 18.2456C20.508 18.2418 20.1322 18.2358 19.7565 18.2286C19.8513 18.3957 19.9467 18.5624 20.0423 18.7289C20.0954 18.8218 20.1484 18.9146 20.2031 19.0103C20.5696 19.6024 21.0186 19.9841 21.6706 20.2297C21.9264 20.2794 22.1717 20.2879 22.4318 20.2841C22.5001 20.2835 22.5683 20.2829 22.6386 20.2823C23.4505 20.2522 24.0356 19.9132 24.6559 19.4086C24.9047 19.2129 24.9582 19.1867 25.2921 19.1694C25.7453 19.3288 26.0124 19.5646 26.2818 19.9687C26.3007 20.2908 26.2604 20.4936 26.0599 20.7507C25.0429 21.737 23.5753 22.1923 22.1848 22.1865C21.1086 22.1496 20.1822 21.7402 19.3215 21.0998C19.2581 21.0534 19.1947 21.0069 19.1294 20.9591C18.3515 20.3373 17.8932 19.4207 17.5814 18.4897C17.5814 18.4035 17.5814 18.3174 17.5814 18.2286C17.4975 18.2327 17.4136 18.2367 17.3272 18.2409C17.2172 18.244 17.1073 18.2472 16.9941 18.2504C16.8851 18.2544 16.7761 18.2585 16.6637 18.2626C16.3633 18.2286 16.3633 18.2286 16.1526 18.0696C16.0153 17.8806 16.0153 17.8806 15.9718 17.6196C16.0153 17.3586 16.0153 17.3586 16.1295 17.152C16.512 16.9207 16.8799 16.9896 17.3204 17.0106C17.3204 16.6373 17.3204 16.2641 17.3204 15.8795C17.1858 15.8867 17.0512 15.8939 16.9125 15.9013C16.6002 15.9004 16.4657 15.8877 16.1839 15.7382C15.9747 15.4817 15.9215 15.3408 15.9283 15.0095C16.0632 14.777 16.0632 14.777 16.2763 14.5745C16.5767 14.532 16.5767 14.532 16.9071 14.5473C17.017 14.5512 17.1269 14.5551 17.2401 14.5592C17.366 14.5668 17.366 14.5668 17.4944 14.5745C17.5105 14.4686 17.5267 14.3627 17.5433 14.2536C17.8196 13.0335 18.6302 12.0393 19.6586 11.3662C21.6616 10.1112 23.8287 10.4549 25.7417 11.6857Z" fill="#66DDAC"/>
<path d="M30.8647 30.5577C30.9448 30.5566 31.025 30.5555 31.1076 30.5543C31.1936 30.5541 31.2796 30.5539 31.3682 30.5537C31.4573 30.5531 31.5463 30.5526 31.638 30.552C31.8263 30.5511 32.0145 30.5507 32.2027 30.5507C32.4901 30.5503 32.7774 30.5472 33.0648 30.5439C33.2479 30.5434 33.4309 30.543 33.614 30.5429C33.7425 30.541 33.7425 30.541 33.8736 30.5391C34.3737 30.5424 34.678 30.5868 35.0693 30.931C35.2472 31.1978 35.2652 31.2527 35.2672 31.5535C35.2685 31.6638 35.2685 31.6638 35.2698 31.7763C35.2698 31.8567 35.2699 31.9371 35.27 32.02C35.2707 32.1049 35.2714 32.1898 35.2722 32.2773C35.2743 32.5587 35.275 32.84 35.2756 33.1214C35.2764 33.3168 35.2772 33.5122 35.278 33.7075C35.2794 34.1175 35.2801 34.5274 35.2803 34.9374C35.2808 35.4626 35.2841 35.9877 35.288 36.5128C35.2906 36.9166 35.2913 37.3203 35.2913 37.724C35.2917 37.9176 35.2928 38.1112 35.2946 38.3048C35.297 38.5758 35.2965 38.8466 35.2954 39.1176C35.2967 39.1975 35.298 39.2774 35.2994 39.3597C35.2951 39.7343 35.2759 39.9889 35.0388 40.2888C34.7396 40.5647 34.5345 40.5991 34.1426 40.6052C34.0607 40.6066 33.9787 40.608 33.8944 40.6094C33.5202 40.6133 33.1461 40.6169 32.772 40.6189C32.5748 40.6203 32.3776 40.6227 32.1804 40.626C31.8957 40.6308 31.6111 40.6327 31.3264 40.634C31.1947 40.6369 31.1947 40.6369 31.0602 40.6399C30.661 40.6388 30.3744 40.6364 30.0558 40.379C29.8039 40.1042 29.7513 39.9878 29.7492 39.6278C29.7486 39.5543 29.748 39.4807 29.7473 39.4049C29.7471 39.3241 29.7469 39.2432 29.7466 39.1599C29.7461 39.0749 29.7455 38.9898 29.7449 38.9022C29.7432 38.62 29.7422 38.3377 29.7413 38.0555C29.741 37.9592 29.7406 37.863 29.7402 37.7638C29.7384 37.2545 29.7372 36.7451 29.7364 36.2358C29.7354 35.7091 29.7324 35.1825 29.7289 34.6559C29.7267 34.2514 29.7259 33.847 29.7256 33.4425C29.7252 33.2484 29.7242 33.0542 29.7226 32.8601C29.7205 32.5884 29.7205 32.3169 29.7212 32.0453C29.72 31.9649 29.7189 31.8846 29.7178 31.8018C29.7207 31.4451 29.7312 31.2438 29.9169 30.932C30.2283 30.6498 30.4459 30.5616 30.8647 30.5577Z" fill="#007940"/>
<path d="M23.2847 34.0257C23.4181 34.025 23.4181 34.025 23.5541 34.0244C23.7418 34.0238 23.9296 34.0239 24.1173 34.0247C24.4039 34.0254 24.6904 34.0229 24.977 34.0201C25.1597 34.02 25.3424 34.02 25.525 34.0203C25.6531 34.0188 25.6531 34.0188 25.7838 34.0173C26.2827 34.0224 26.5868 34.0687 26.9773 34.4115C27.1771 34.7113 27.1744 34.8276 27.1779 35.181C27.1793 35.2856 27.1807 35.3901 27.1821 35.4978C27.1826 35.6109 27.1831 35.7241 27.1836 35.8406C27.1843 35.958 27.1851 36.0753 27.1859 36.1927C27.1874 36.4388 27.188 36.6849 27.1883 36.931C27.1888 37.2455 27.192 37.56 27.196 37.8744C27.1986 38.117 27.1992 38.3595 27.1993 38.602C27.1999 38.774 27.2024 38.9461 27.205 39.1181C27.2007 39.9892 27.2007 39.9892 26.9416 40.3105C26.5314 40.6587 26.0853 40.6831 25.5594 40.7033C25.2372 40.6758 25.2372 40.6758 25.0401 40.5476C24.8897 40.3653 24.76 40.1758 24.6282 39.9797C23.9552 39.2756 23.1211 38.8183 22.2005 38.5258C22.1408 38.5064 22.0811 38.487 22.0196 38.467C21.8742 38.4197 21.7286 38.3731 21.583 38.3267C21.589 37.8266 21.5967 37.3265 21.6058 36.8265C21.6087 36.6565 21.6112 36.4864 21.6131 36.3164C21.6161 36.0716 21.6206 35.827 21.6255 35.5823C21.626 35.5065 21.6266 35.4307 21.6272 35.3526C21.6371 34.943 21.6549 34.6496 21.931 34.3245C22.3273 33.9755 22.7844 34.0242 23.2847 34.0257Z" fill="#66DDAC"/>
<path d="M31.8143 43.4835C31.9525 43.4832 32.0908 43.4827 32.229 43.482C32.6033 43.4808 32.9775 43.4827 33.3518 43.4854C33.7438 43.4877 34.1358 43.4872 34.5279 43.4871C35.186 43.4874 35.8441 43.4896 36.5022 43.4932C37.2628 43.4973 38.0234 43.4987 38.7841 43.4985C39.5945 43.4983 40.4048 43.5001 41.2152 43.5025C41.4486 43.5031 41.6819 43.5033 41.9152 43.5034C42.2819 43.5036 42.6485 43.5052 43.0151 43.5078C43.1496 43.5086 43.2841 43.5089 43.4186 43.5088C43.6023 43.5087 43.7859 43.5101 43.9696 43.512C44.0723 43.5125 44.1751 43.5129 44.2809 43.5133C44.584 43.5508 44.7453 43.6251 44.9879 43.8079C45.1632 44.0709 45.1912 44.1488 45.2 44.4496C45.2035 44.5149 45.2069 44.5801 45.2105 44.6474C45.1363 44.9597 44.9712 45.085 44.7269 45.287C44.449 45.3417 44.449 45.3417 44.1292 45.3422C44.0702 45.3429 44.0111 45.3436 43.9503 45.3443C43.753 45.346 43.5559 45.3447 43.3586 45.3433C43.217 45.3439 43.0753 45.3447 42.9337 45.3456C42.5493 45.3476 42.165 45.3468 41.7807 45.3454C41.3784 45.3443 40.9762 45.3454 40.5739 45.346C39.8984 45.3468 39.2229 45.3458 38.5474 45.3437C37.7665 45.3414 36.9856 45.3421 36.2047 45.3445C35.5341 45.3465 34.8636 45.3468 34.193 45.3456C33.7925 45.3449 33.3921 45.3449 32.9916 45.3463C32.6151 45.3476 32.2387 45.3467 31.8622 45.3442C31.724 45.3436 31.5859 45.3438 31.4477 45.3447C31.259 45.3459 31.0706 45.3444 30.8819 45.3422C30.7764 45.3421 30.6708 45.3419 30.5621 45.3417C30.2052 45.2714 30.0756 45.1302 29.8492 44.852C29.7853 44.6566 29.7853 44.6566 29.7839 44.4659C29.7808 44.4032 29.7776 44.3405 29.7744 44.2759C30.0981 43.3799 31.0186 43.4742 31.8143 43.4835Z" fill="#D6D8DA"/>
<path d="M30.7745 47.4492C30.8598 47.4486 30.945 47.4479 31.0329 47.4473C31.1268 47.4471 31.2206 47.4468 31.3174 47.4466C31.416 47.446 31.5146 47.4454 31.6162 47.4449C31.9436 47.4431 32.2711 47.4421 32.5985 47.4413C32.7101 47.4409 32.8217 47.4406 32.9367 47.4402C33.4664 47.4386 33.996 47.4373 34.5256 47.4366C35.1369 47.4357 35.7482 47.4334 36.3595 47.4299C36.889 47.427 37.4185 47.4259 37.948 47.4256C38.1732 47.4252 38.3985 47.4241 38.6237 47.4225C38.9386 47.4204 39.2535 47.4205 39.5685 47.4211C39.6618 47.42 39.7552 47.4189 39.8514 47.4177C40.4838 47.4222 40.4838 47.4222 40.8229 47.6277C41.0767 47.9139 41.1006 48.1193 41.0971 48.5026C41.0574 48.7785 40.9191 48.9253 40.7236 49.1151C40.5134 49.2202 40.38 49.2137 40.1451 49.2149C40.0598 49.2155 39.9746 49.2161 39.8867 49.2168C39.7929 49.217 39.699 49.2172 39.6023 49.2175C39.5036 49.218 39.405 49.2186 39.3034 49.2192C38.976 49.2209 38.6485 49.2219 38.3211 49.2228C38.2095 49.2232 38.0979 49.2235 37.9829 49.2239C37.4533 49.2255 36.9236 49.2268 36.394 49.2275C35.7827 49.2284 35.1714 49.2306 34.5601 49.2342C34.0306 49.2371 33.5012 49.2381 32.9717 49.2385C32.7464 49.2389 32.5212 49.2399 32.2959 49.2415C31.981 49.2436 31.6661 49.2436 31.3511 49.243C31.2578 49.2441 31.1644 49.2452 31.0683 49.2463C30.4358 49.2419 30.4358 49.2419 30.0967 49.0364C29.843 48.7502 29.8191 48.5448 29.8226 48.1614C29.8622 47.8856 30.0006 47.7387 30.1961 47.549C30.4062 47.4439 30.5397 47.4504 30.7745 47.4492Z" fill="#D5D8DA"/>
<path d="M38.7227 21.1868C38.9523 21.1868 39.182 21.1868 39.4187 21.1868C39.2751 21.3303 39.1316 21.4739 38.9837 21.6218C38.955 21.5357 38.9262 21.4495 38.8967 21.3608C38.8392 21.3608 38.7818 21.3608 38.7227 21.3608C38.7227 21.3034 38.7227 21.2459 38.7227 21.1868Z" fill="#FEF1E9"/>
<path d="M20.9743 12.7473C20.9743 12.8334 20.9743 12.9196 20.9743 13.0083C20.9168 12.9796 20.8594 12.9509 20.8003 12.9213C20.8577 12.8639 20.9151 12.8065 20.9743 12.7473ZM20.6262 13.0083C20.6837 13.0083 20.7411 13.0083 20.8003 13.0083C20.7428 13.1232 20.6854 13.238 20.6262 13.3563C20.5401 13.3563 20.454 13.3563 20.3652 13.3563C20.4849 13.1823 20.4849 13.1823 20.6262 13.0083Z" fill="#FDF2E9"/>
</svg>
