<svg width="24" height="24" viewBox="0 0 24 24" fill="none" xmlns="http://www.w3.org/2000/svg">
<path d="M15.7957 18.704C16.0071 18.9154 16.1258 19.202 16.1258 19.5009C16.1258 19.7998 16.0071 20.0864 15.7957 20.2978C15.5844 20.5091 15.2977 20.6279 14.9989 20.6279C14.7 20.6279 14.4133 20.5091 14.202 20.2978L6.70198 12.7978C6.5971 12.6933 6.51388 12.5691 6.4571 12.4323C6.40032 12.2956 6.37109 12.149 6.37109 12.0009C6.37109 11.8528 6.40032 11.7062 6.4571 11.5695C6.51388 11.4327 6.5971 11.3086 6.70198 11.204L14.202 3.70404C14.4133 3.49269 14.7 3.37396 14.9989 3.37396C15.2977 3.37396 15.5844 3.49269 15.7957 3.70404C16.0071 3.91538 16.1258 4.20203 16.1258 4.50091C16.1258 4.7998 16.0071 5.08644 15.7957 5.29779L9.09354 12L15.7957 18.704Z" fill="#111827"/>
</svg>
