<svg width="60" height="60" viewBox="0 0 60 60" fill="none" xmlns="http://www.w3.org/2000/svg">
<rect width="60" height="60" rx="8" fill="#E4EBFE"/>
<path d="M24.3426 9.78371C25.386 10.5896 25.9428 11.5943 26.2038 12.871C26.2464 13.0771 26.2464 13.0771 26.2899 13.2874C26.3109 13.3915 26.3319 13.4957 26.3535 13.6031C26.5108 13.6037 26.5108 13.6037 26.6712 13.6043C27.6629 13.6084 28.6545 13.6147 29.6462 13.6233C30.1559 13.6276 30.6656 13.6311 31.1753 13.6328C31.668 13.6345 32.1605 13.6383 32.6531 13.6435C32.8404 13.6451 33.0276 13.646 33.2148 13.6461C34.3771 13.6473 35.2992 13.7386 36.3235 14.3304C37.1384 15.2152 37.1926 16.1707 37.1849 17.3254C37.1859 17.4878 37.187 17.6502 37.1884 17.8126C37.1915 18.2503 37.1912 18.688 37.1904 19.1257C37.19 19.5843 37.1928 20.0429 37.1952 20.5015C37.1993 21.3686 37.2006 22.2356 37.201 23.1026C37.2015 24.0903 37.2051 25.078 37.209 26.0657C37.2169 28.0961 37.2209 30.1265 37.2223 32.157C37.2669 32.0894 37.3115 32.0219 37.3575 31.9523C37.4163 31.8635 37.4752 31.7747 37.5358 31.6833C37.594 31.5954 37.6522 31.5074 37.7121 31.4168C38.947 29.6042 40.9487 28.4014 43.0805 27.9516C44.6769 27.6757 46.3501 27.756 47.8716 28.3144C47.9858 28.3542 48.1 28.394 48.2177 28.4349C50.5072 29.3042 52.1092 31.009 53.1135 33.1973C53.4734 34.2089 53.6421 35.1665 53.6354 36.2396C53.6347 36.3591 53.634 36.4785 53.6332 36.6016C53.6097 37.6482 53.4318 38.5482 53.0315 39.5126C52.9779 39.6447 52.9243 39.7767 52.869 39.9128C52.1848 41.459 51.1329 42.8456 50.1771 44.2334C50.113 44.3266 50.0489 44.4197 49.9828 44.5157C46.5821 49.4343 46.5821 49.4343 45.5661 49.9423C44.8851 50.0002 44.2683 50.0299 43.6997 49.613C42.8652 48.8328 42.2373 47.8343 41.579 46.9073C41.4061 46.6653 41.2309 46.4251 41.0546 46.1856C40.3234 45.1905 39.6241 44.1756 38.9377 43.1493C38.8962 43.0874 38.8546 43.0254 38.8117 42.9616C38.69 42.78 38.569 42.598 38.448 42.416C38.3435 42.2589 38.3435 42.2589 38.2368 42.0987C37.8778 41.5423 37.5533 40.9642 37.2223 40.3909C37.2219 40.4853 37.2215 40.5796 37.2211 40.6768C37.2169 41.5683 37.2107 42.4599 37.2021 43.3514C37.1978 43.8097 37.1943 44.268 37.1926 44.7263C37.1909 45.1691 37.1871 45.6118 37.1819 46.0546C37.1803 46.223 37.1794 46.3914 37.1793 46.5599C37.1782 47.5892 37.1616 48.387 36.4615 49.2004C36.3911 49.2596 36.3206 49.3187 36.248 49.3797C36.1781 49.4405 36.1082 49.5014 36.0361 49.5641C35.4014 49.982 34.7619 49.9741 34.0294 49.9717C33.9183 49.9722 33.8072 49.9727 33.6927 49.9732C33.3205 49.9746 32.9484 49.9744 32.5762 49.9742C32.3093 49.9749 32.0424 49.9756 31.7754 49.9765C31.1258 49.9782 30.4761 49.9789 29.8265 49.979C29.2983 49.9791 28.7701 49.9796 28.2419 49.9803C26.7436 49.9822 25.2453 49.9832 23.7469 49.983C23.6662 49.983 23.5855 49.983 23.5023 49.983C23.4215 49.983 23.3407 49.983 23.2574 49.983C21.9475 49.9829 20.6376 49.985 19.3277 49.9881C17.9818 49.9912 16.636 49.9928 15.2902 49.9926C14.5349 49.9925 13.7797 49.9931 13.0244 49.9955C12.3142 49.9977 11.6039 49.9976 10.8937 49.996C10.6331 49.9958 10.3725 49.9963 10.1119 49.9976C9.75599 49.9993 9.40016 49.9983 9.04422 49.9966C8.94129 49.9977 8.83836 49.9989 8.73231 50C7.90976 49.9914 7.34425 49.7746 6.72233 49.2356C6.21973 48.6468 6.02968 48.179 6.0286 47.4122C6.02818 47.2998 6.02775 47.1875 6.02732 47.0717C6.02741 46.9484 6.02751 46.8251 6.02761 46.6981C6.02728 46.567 6.02696 46.4359 6.02662 46.3008C6.02583 45.9367 6.02554 45.5726 6.02545 45.2086C6.02525 44.8159 6.02442 44.4233 6.02368 44.0307C6.02219 43.1722 6.02153 42.3136 6.02105 41.455C6.02074 40.9189 6.02028 40.3828 6.01979 39.8467C6.01845 38.3622 6.01732 36.8778 6.01694 35.3933C6.01691 35.2508 6.01691 35.2508 6.01687 35.1054C6.01685 35.0102 6.01682 34.9149 6.0168 34.8168C6.01675 34.6239 6.0167 34.4309 6.01665 34.2379C6.01663 34.1422 6.0166 34.0465 6.01658 33.9478C6.01614 32.3969 6.01423 30.846 6.01167 29.295C6.00907 27.7026 6.0077 26.1101 6.00757 24.5177C6.00747 23.6236 6.00684 22.7296 6.00485 21.8355C6.00316 21.0742 6.00259 20.3129 6.0035 19.5515C6.00393 19.1632 6.00383 18.7749 6.00229 18.3866C6.00063 17.9652 6.00153 17.544 6.00268 17.1227C6.0018 17.0004 6.00091 16.8781 6 16.752C6.00546 15.8956 6.12565 15.2871 6.61254 14.5637C7.3011 13.8904 8.05998 13.6974 9.00283 13.6903C9.09176 13.6892 9.18068 13.6881 9.2723 13.687C9.56634 13.6836 9.86039 13.6808 10.1544 13.6781C10.3583 13.6759 10.5621 13.6736 10.7659 13.6712C11.3025 13.6651 11.8391 13.6597 12.3757 13.6544C12.9232 13.6489 13.4707 13.6428 14.0182 13.6367C15.0925 13.6249 16.1669 13.6138 17.2412 13.6031C17.2623 13.4988 17.2834 13.3945 17.3051 13.2871C17.3335 13.1497 17.362 13.0122 17.3913 12.8706C17.4192 12.7346 17.447 12.5987 17.4758 12.4586C17.733 11.3936 18.3578 10.3518 19.2958 9.74951C20.9723 8.79518 22.6709 8.69429 24.3426 9.78371Z" fill="white"/>
<path d="M8.70049 13.7004C8.81696 13.7004 8.93343 13.7004 9.05343 13.7004C9.17901 13.701 9.30458 13.7015 9.43396 13.7021C9.62699 13.7024 9.62699 13.7024 9.82392 13.7026C10.2356 13.7032 10.6472 13.7046 11.0589 13.706C11.3377 13.7065 11.6165 13.707 11.8954 13.7075C12.5795 13.7087 13.2635 13.7105 13.9476 13.7128C13.9026 13.7632 13.8576 13.8136 13.8113 13.8655C13.7521 13.9329 13.693 14.0002 13.632 14.0696C13.5734 14.1359 13.5148 14.2021 13.4545 14.2703C13.1324 14.6808 13.0412 14.997 13.0239 15.5157C13.0196 15.6282 13.0154 15.7408 13.011 15.8567C13.0059 16.0318 13.0059 16.0318 13.0007 16.2105C12.9965 16.3289 12.9922 16.4474 12.9879 16.5694C12.9775 16.8615 12.9681 17.1535 12.9596 17.4456C12.8859 17.446 12.8123 17.4465 12.7365 17.4469C12.4013 17.4506 12.0664 17.4583 11.7313 17.4662C11.5576 17.4671 11.5576 17.4671 11.3803 17.4681C11.2682 17.4713 11.156 17.4745 11.0404 17.4777C10.9375 17.4795 10.8346 17.4812 10.7286 17.483C10.2996 17.5886 10.1545 17.7539 9.88555 18.1043C9.80463 18.4735 9.81193 18.836 9.81658 19.2128C9.8158 19.3254 9.81502 19.438 9.81422 19.554C9.81228 19.9319 9.81428 20.3096 9.81626 20.6875C9.81569 20.9582 9.8149 21.2288 9.81388 21.4995C9.81205 22.1587 9.8128 22.8179 9.81477 23.477C9.81631 24.0128 9.81673 24.5485 9.81636 25.0842C9.81629 25.1986 9.81629 25.1986 9.81621 25.3153C9.81609 25.4702 9.81598 25.625 9.81586 25.7799C9.81492 27.1496 9.81675 28.5192 9.82001 29.8889C9.82318 31.2179 9.82395 32.547 9.82226 33.876C9.82042 35.3233 9.81998 36.7705 9.8219 38.2178C9.8221 38.3721 9.82231 38.5264 9.82251 38.6807C9.82266 38.7946 9.82266 38.7946 9.82281 38.9108C9.82342 39.4459 9.82306 39.981 9.82234 40.5161C9.8214 41.2362 9.82282 41.9564 9.82583 42.6766C9.82659 42.9412 9.8266 43.2058 9.82581 43.4704C9.82486 43.831 9.8266 44.1916 9.82904 44.5522C9.82814 44.6574 9.82723 44.7627 9.8263 44.8711C9.83182 45.3113 9.85613 45.6007 10.0522 46C10.4318 46.292 10.7681 46.2858 11.2282 46.2793C11.3201 46.2801 11.412 46.281 11.5067 46.2819C11.8151 46.2841 12.1234 46.2823 12.4318 46.2806C12.6527 46.2813 12.8736 46.2823 13.0946 46.2835C13.695 46.286 14.2954 46.285 14.8958 46.2833C15.5237 46.2819 16.1516 46.2832 16.7795 46.2841C17.8341 46.2851 18.8887 46.2838 19.9433 46.2811C21.163 46.2782 22.3827 46.2791 23.6024 46.2821C24.649 46.2846 25.6956 46.285 26.7422 46.2835C27.3675 46.2827 27.9929 46.2826 28.6182 46.2844C29.2062 46.286 29.7941 46.2849 30.3821 46.2817C30.5981 46.281 30.814 46.2812 31.0299 46.2824C31.3245 46.2839 31.6188 46.282 31.9134 46.2793C31.9991 46.2805 32.0847 46.2817 32.173 46.283C32.5778 46.2757 32.8156 46.2194 33.1583 46C33.4745 45.5156 33.4561 45.1197 33.4495 44.5522C33.4504 44.4396 33.4512 44.327 33.4521 44.2109C33.4543 43.8331 33.4526 43.4553 33.4508 43.0774C33.4516 42.8068 33.4526 42.5361 33.4537 42.2654C33.456 41.6062 33.4557 40.9471 33.4541 40.2879C33.4528 39.7522 33.4527 39.2164 33.4533 38.6807C33.4534 38.5664 33.4534 38.5664 33.4535 38.4497C33.4537 38.2948 33.4539 38.1399 33.4541 37.985C33.4556 36.5326 33.4538 35.0801 33.4509 33.6277C33.4484 32.3814 33.4488 31.1352 33.4514 29.8889C33.4543 28.4416 33.4555 26.9944 33.4538 25.5472C33.4536 25.3929 33.4534 25.2385 33.4533 25.0842C33.4531 24.9703 33.4531 24.9703 33.453 24.8541C33.4525 24.319 33.4533 23.784 33.4546 23.2489C33.4563 22.5287 33.4551 21.8086 33.4519 21.0884C33.4512 20.8238 33.4514 20.5591 33.4526 20.2945C33.4541 19.9339 33.4523 19.5734 33.4495 19.2128C33.4507 19.1075 33.452 19.0023 33.4532 18.8938C33.4458 18.3912 33.4337 18.1742 33.1181 17.7651C32.8046 17.5362 32.656 17.4848 32.2729 17.4777C32.1707 17.4746 32.0684 17.4714 31.9631 17.4681C31.805 17.4671 31.805 17.4671 31.6438 17.4662C31.5363 17.4634 31.4288 17.4606 31.3181 17.4578C31.0538 17.4513 30.7897 17.4474 30.5254 17.4456C30.5243 17.3731 30.5233 17.3006 30.5223 17.226C30.5163 16.8943 30.5071 16.5627 30.4979 16.2311C30.4964 16.1171 30.4948 16.0031 30.4932 15.8856C30.4707 15.1778 30.4068 14.7226 29.9764 14.152C29.796 14.0025 29.6133 13.8556 29.4275 13.7128C30.1891 13.7016 30.9508 13.694 31.7125 13.6887C31.9712 13.6865 32.23 13.6835 32.4887 13.6797C32.8621 13.6743 33.2354 13.6719 33.6088 13.67C33.7232 13.6677 33.8376 13.6654 33.9555 13.6631C34.8559 13.6628 35.5466 13.8815 36.3235 14.3304C37.1384 15.2152 37.1926 16.1707 37.1849 17.3253C37.1859 17.4877 37.187 17.6501 37.1884 17.8126C37.1915 18.2503 37.1912 18.6879 37.1904 19.1257C37.19 19.5843 37.1928 20.0429 37.1952 20.5015C37.1993 21.3685 37.2006 22.2356 37.201 23.1026C37.2015 24.0903 37.2051 25.078 37.209 26.0656C37.2169 28.0961 37.2209 30.1265 37.2223 32.1569C37.2669 32.0894 37.3115 32.0218 37.3575 31.9522C37.4163 31.8635 37.4752 31.7747 37.5358 31.6833C37.594 31.5953 37.6522 31.5074 37.7121 31.4168C38.947 29.6042 40.9487 28.4014 43.0805 27.9516C44.6769 27.6756 46.3501 27.756 47.8716 28.3144C47.9858 28.3542 48.1 28.3939 48.2177 28.4349C50.5072 29.3042 52.1092 31.009 53.1135 33.1973C53.4734 34.2089 53.6421 35.1665 53.6354 36.2396C53.6347 36.359 53.634 36.4785 53.6332 36.6015C53.6097 37.6482 53.4318 38.5482 53.0315 39.5126C52.9779 39.6447 52.9243 39.7767 52.869 39.9127C52.1848 41.4589 51.1329 42.8456 50.1771 44.2334C50.113 44.3266 50.0489 44.4197 49.9828 44.5157C46.5821 49.4343 46.5821 49.4343 45.5661 49.9423C44.8851 50.0002 44.2683 50.0299 43.6997 49.6129C42.8652 48.8328 42.2373 47.8342 41.579 46.9073C41.4061 46.6653 41.2309 46.4251 41.0546 46.1856C40.3234 45.1905 39.6241 44.1756 38.9377 43.1493C38.8962 43.0873 38.8546 43.0254 38.8117 42.9616C38.69 42.78 38.569 42.598 38.448 42.4159C38.3435 42.2589 38.3435 42.2589 38.2368 42.0986C37.8778 41.5423 37.5533 40.9642 37.2223 40.3909C37.2219 40.4852 37.2215 40.5796 37.2211 40.6767C37.2169 41.5683 37.2107 42.4599 37.2021 43.3514C37.1978 43.8097 37.1943 44.268 37.1926 44.7263C37.1909 45.1691 37.1871 45.6118 37.1819 46.0546C37.1803 46.223 37.1794 46.3914 37.1793 46.5598C37.1782 47.5891 37.1616 48.387 36.4615 49.2004C36.3911 49.2595 36.3206 49.3187 36.248 49.3797C36.1781 49.4405 36.1081 49.5014 36.0361 49.5641C35.4014 49.982 34.7619 49.9741 34.0294 49.9717C33.9183 49.9722 33.8072 49.9727 33.6927 49.9732C33.3205 49.9746 32.9484 49.9744 32.5762 49.9742C32.3093 49.9749 32.0424 49.9756 31.7754 49.9764C31.1258 49.9782 30.4761 49.9789 29.8265 49.979C29.2983 49.9791 28.7701 49.9795 28.2419 49.9802C26.7436 49.9822 25.2453 49.9832 23.7469 49.983C23.6662 49.983 23.5855 49.983 23.5023 49.983C23.4215 49.983 23.3407 49.983 23.2574 49.983C21.9475 49.9829 20.6376 49.985 19.3277 49.9881C17.9818 49.9912 16.636 49.9927 15.2902 49.9926C14.5349 49.9925 13.7797 49.9931 13.0244 49.9954C12.3142 49.9977 11.6039 49.9976 10.8937 49.996C10.6331 49.9958 10.3725 49.9963 10.1119 49.9976C9.75599 49.9993 9.40016 49.9983 9.04422 49.9966C8.94129 49.9977 8.83836 49.9989 8.73231 50C7.90977 49.9914 7.34425 49.7746 6.72233 49.2356C6.21973 48.6468 6.02968 48.179 6.0286 47.4122C6.02818 47.2998 6.02775 47.1874 6.02732 47.0716C6.02741 46.9484 6.02751 46.8251 6.02761 46.6981C6.02728 46.5669 6.02696 46.4358 6.02662 46.3007C6.02583 45.9367 6.02554 45.5726 6.02546 45.2085C6.02525 44.8159 6.02442 44.4233 6.02368 44.0307C6.02219 43.1721 6.02153 42.3136 6.02105 41.455C6.02074 40.9189 6.02028 40.3828 6.01979 39.8467C6.01845 38.3622 6.01732 36.8777 6.01694 35.3933C6.01691 35.2508 6.01691 35.2508 6.01687 35.1054C6.01685 35.0102 6.01682 34.9149 6.0168 34.8168C6.01675 34.6238 6.0167 34.4309 6.01665 34.2379C6.01663 34.1422 6.0166 34.0464 6.01658 33.9478C6.01614 32.3969 6.01423 30.8459 6.01167 29.295C6.00907 27.7025 6.0077 26.1101 6.00757 24.5176C6.00747 23.6236 6.00684 22.7295 6.00485 21.8355C6.00316 21.0742 6.00259 20.3128 6.0035 19.5515C6.00393 19.1632 6.00383 18.7749 6.00229 18.3865C6.00063 17.9652 6.00153 17.5439 6.00268 17.1226C6.0018 17.0003 6.00091 16.878 6 16.752C6.00546 15.8956 6.12565 15.2871 6.61254 14.5637C7.19444 13.9947 7.88643 13.6984 8.70049 13.7004Z" fill="#FE925F"/>
<path d="M47.8722 28.3146C47.9864 28.3544 48.1007 28.3941 48.2183 28.4351C50.5079 29.3044 52.1099 31.0091 53.1141 33.1975C53.4741 34.209 53.6428 35.1667 53.636 36.2398C53.635 36.4189 53.635 36.4189 53.6339 36.6017C53.6104 37.6484 53.4325 38.5484 53.0322 39.5128C52.9786 39.6448 52.9249 39.7769 52.8697 39.9129C52.1854 41.4591 51.1336 42.8458 50.1777 44.2336C50.1136 44.3267 50.0495 44.4199 49.9835 44.5158C46.5827 49.4345 46.5827 49.4345 45.5667 49.9425C44.8858 50.0003 44.2689 50.0301 43.7004 49.6131C42.8659 48.833 42.2379 47.8344 41.5797 46.9075C41.4067 46.6655 41.2316 46.4253 41.0552 46.1857C40.324 45.1907 39.6247 44.1758 38.9384 43.1495C38.8968 43.0875 38.8552 43.0256 38.8124 42.9617C37.0958 40.4009 35.8111 37.8439 36.2941 34.6775C36.722 32.5213 37.8966 30.7095 39.6794 29.4262C42.117 27.8385 45.0973 27.2961 47.8722 28.3146Z" fill="#FE6431"/>
<path d="M24.3434 9.78371C25.6404 10.7854 26.0674 12.0417 26.3543 13.6031C26.4888 13.6046 26.4888 13.6046 26.626 13.6062C27.0341 13.6121 27.4421 13.6213 27.8501 13.6305C28.0618 13.6329 28.0618 13.6329 28.2777 13.6352C29.6127 13.6698 29.6127 13.6698 30.087 14.152C30.6707 14.8591 30.5878 15.6292 30.5742 16.5124C30.575 16.6544 30.5757 16.7963 30.5765 16.9425C30.5665 18.4434 30.5665 18.4434 30.0321 19.0641C29.5379 19.4373 29.218 19.5451 28.6067 19.547C28.4816 19.5476 28.3564 19.5482 28.2275 19.5489C28.0901 19.549 27.9527 19.5491 27.8112 19.5492C27.6665 19.5498 27.5219 19.5503 27.3729 19.5509C26.976 19.5523 26.579 19.553 26.182 19.5535C25.9339 19.5538 25.6859 19.5543 25.4378 19.5548C24.6615 19.5563 23.8851 19.5573 23.1088 19.5578C22.2129 19.5583 21.3171 19.5602 20.4213 19.5634C19.7286 19.5657 19.0359 19.5668 18.3433 19.567C17.9297 19.5671 17.5161 19.5677 17.1025 19.5697C16.7133 19.5715 16.3241 19.5718 15.9349 19.5708C15.7245 19.5707 15.5141 19.5722 15.3036 19.5737C14.1384 19.5681 14.1384 19.5681 13.6191 19.2022C12.8414 18.3404 12.9368 17.2753 12.926 16.1693C12.9229 16.0598 12.9197 15.9503 12.9164 15.8374C12.9104 15.1366 12.9737 14.7164 13.3995 14.152C13.8334 13.7281 14.1213 13.6562 14.7225 13.646C14.7948 13.6441 14.8672 13.6423 14.9417 13.6405C15.171 13.6352 15.4002 13.6328 15.6295 13.6305C15.7857 13.6274 15.9419 13.6241 16.098 13.6207C16.4793 13.6126 16.8606 13.6071 17.242 13.6031C17.2631 13.4988 17.2841 13.3945 17.3059 13.2871C17.3343 13.1497 17.3628 13.0122 17.3921 12.8706C17.42 12.7346 17.4478 12.5987 17.4765 12.4586C17.7338 11.3936 18.3586 10.3518 19.2965 9.74951C20.9731 8.79518 22.6717 8.69429 24.3434 9.78371Z" fill="#F2E1C9"/>
<path d="M46.5551 33.6939C47.2814 34.1818 47.8146 34.8375 48.0921 35.6701C48.1878 36.874 48.1284 37.7566 47.3742 38.7462C46.7978 39.3951 46.1336 39.68 45.2789 39.7776C44.1357 39.8214 43.3499 39.5951 42.5068 38.8196C41.8216 38.0779 41.5751 37.2576 41.5916 36.2623C41.665 35.4291 42.0228 34.7294 42.6028 34.1331C43.8399 33.1332 45.1239 32.9676 46.5551 33.6939Z" fill="#FEFDFD"/>
<path d="M27.7808 36.5483C28.0621 36.7747 28.0621 36.7747 28.2199 37.0972C28.2432 37.7209 28.1231 38.0124 27.7015 38.4731C27.5211 38.6542 27.3385 38.8331 27.1542 39.0103C27.058 39.1058 26.9617 39.2012 26.8625 39.2995C26.5551 39.6034 26.2451 39.9044 25.935 40.2055C25.7273 40.4099 25.5201 40.6149 25.313 40.8198C24.9329 41.1944 24.5526 41.5685 24.1699 41.9404C24.0549 42.0523 24.0549 42.0523 23.9375 42.1665C23.5802 42.4938 23.3643 42.6788 22.8816 42.7786C22.2512 42.7485 21.8889 42.3053 21.4688 41.8765C21.2814 41.6858 21.0906 41.4989 20.8994 41.312C20.627 41.044 20.3551 40.7757 20.0855 40.5049C20.0292 40.4485 19.973 40.3921 19.915 40.334C19.5787 39.9656 19.4845 39.6835 19.4984 39.1844C19.5468 38.9636 19.5468 38.9636 19.8282 38.6273C20.2055 38.4146 20.2055 38.4146 20.6035 38.4146C20.9517 38.5178 21.1581 38.5986 21.4132 38.8538C21.4132 38.9262 21.4132 38.9987 21.4132 39.0733C21.4857 39.0733 21.5581 39.0733 21.6328 39.0733C21.8107 39.2539 21.8107 39.2539 22.0102 39.4919C22.2415 39.7662 22.4729 40.0311 22.7306 40.281C23.059 40.1337 23.2864 39.9714 23.5386 39.7157C23.6082 39.6458 23.6778 39.5758 23.7495 39.5037C23.8234 39.4284 23.8973 39.353 23.9734 39.2753C24.0503 39.1979 24.1271 39.1205 24.2063 39.0408C24.4514 38.7937 24.6958 38.5459 24.9401 38.298C25.1852 38.0498 25.4306 37.8017 25.6762 37.554C25.829 37.3999 25.9815 37.2454 26.1337 37.0907C26.237 36.9863 26.237 36.9863 26.3425 36.8797C26.4031 36.8182 26.4637 36.7567 26.5261 36.6934C26.9031 36.3446 27.3151 36.4169 27.7808 36.5483Z" fill="#04D660"/>
<path d="M16.0311 37.2904C16.5938 37.6358 17.0133 38.1684 17.2962 38.7579C17.4387 39.5774 17.3203 40.2173 16.912 40.9399C16.493 41.4133 16.0124 41.7875 15.3724 41.8512C13.9919 41.856 13.9919 41.856 13.4168 41.2907C12.7906 40.6133 12.5761 40.0846 12.596 39.1597C12.6679 38.5188 12.9283 38.1168 13.3782 37.6669C14.2285 37.0833 15.0666 36.8901 16.0311 37.2904Z" fill="#F2E0C8"/>
<path d="M20.837 24.1938C20.9325 24.1929 21.0281 24.1919 21.1266 24.1909C21.4418 24.1885 21.7569 24.1892 22.0721 24.1902C22.2915 24.1896 22.5109 24.1889 22.7304 24.1881C23.19 24.187 23.6495 24.1875 24.1091 24.1891C24.698 24.191 25.2867 24.1884 25.8756 24.1845C26.3286 24.1821 26.7816 24.1823 27.2346 24.1832C27.4518 24.1833 27.6689 24.1825 27.886 24.1809C28.1895 24.179 28.4929 24.1806 28.7965 24.1831C28.886 24.1818 28.9756 24.1805 29.0679 24.1792C29.5312 24.1869 29.7096 24.2163 30.0912 24.5063C30.306 24.8013 30.306 24.8013 30.3129 25.1993C30.1806 25.6194 30.1375 25.697 29.7571 25.8992C29.4333 25.9317 29.1327 25.9453 28.8089 25.9435C28.6656 25.9447 28.6656 25.9447 28.5194 25.9458C28.2036 25.9478 27.8879 25.9474 27.5721 25.9468C27.3525 25.9473 27.1329 25.9479 26.9133 25.9485C26.4531 25.9495 25.9929 25.9492 25.5326 25.9481C24.9429 25.9469 24.3532 25.9491 23.7635 25.9523C23.31 25.9543 22.8566 25.9543 22.4031 25.9537C22.1857 25.9536 21.9682 25.9543 21.7508 25.9557C21.4467 25.9573 21.1428 25.9561 20.8387 25.9543C20.749 25.9553 20.6593 25.9564 20.5668 25.9575C20.1384 25.9519 19.9214 25.9263 19.546 25.7002C19.3274 25.46 19.3274 25.46 19.2588 25.0758C19.3274 24.6915 19.3274 24.6915 19.5461 24.4516C19.9895 24.1841 20.3286 24.1897 20.837 24.1938Z" fill="#4F5252"/>
<path d="M16.253 30.2906C16.8089 30.6526 17.0852 31.0957 17.3234 31.7109C17.4199 32.5069 17.3532 33.0208 16.9117 33.6939C16.4704 34.2333 15.9348 34.5942 15.2469 34.7283C14.5446 34.773 13.9672 34.535 13.3985 34.1331C12.8499 33.5723 12.6193 33.0752 12.5957 32.2942C12.6056 31.6212 12.7883 31.1389 13.2501 30.6465C14.1433 29.8391 15.189 29.7064 16.253 30.2906Z" fill="#F2E0C8"/>
<path d="M16.3415 23.0937C16.8993 23.488 17.1998 24.0299 17.3514 24.6916C17.4275 25.3634 17.2705 25.8845 16.9123 26.4481C16.4642 26.9314 16.0684 27.2961 15.3911 27.3526C14.6396 27.3693 14.0003 27.3806 13.3991 26.8873C12.768 26.1994 12.5784 25.6394 12.5851 24.7079C12.6757 24.0193 13.0818 23.5715 13.5706 23.1065C14.4893 22.5177 15.3984 22.5696 16.3415 23.0937Z" fill="#F2E0C8"/>
<path d="M20.7251 31.4397C20.8218 31.4387 20.9184 31.4378 21.0179 31.4368C21.3373 31.4343 21.6565 31.435 21.9759 31.436C22.198 31.4355 22.42 31.4348 22.6421 31.434C23.1075 31.4328 23.5729 31.4333 24.0383 31.4349C24.6347 31.4368 25.2309 31.4343 25.8273 31.4304C26.2859 31.428 26.7444 31.4281 27.203 31.429C27.4229 31.4291 27.6428 31.4284 27.8626 31.4268C28.1701 31.4249 28.4775 31.4264 28.785 31.4289C28.8757 31.4277 28.9665 31.4264 29.06 31.425C29.5287 31.4328 29.708 31.4603 30.0927 31.7556C30.3064 32.0472 30.3064 32.0472 30.3064 32.3902C30.1946 32.7116 30.127 32.8273 29.8672 33.0352C29.5366 33.0683 29.2286 33.0813 28.8978 33.0796C28.7987 33.0803 28.6996 33.0811 28.5975 33.0819C28.2694 33.0839 27.9413 33.0835 27.6132 33.0828C27.3855 33.0833 27.1579 33.0839 26.9302 33.0846C26.4529 33.0856 25.9756 33.0853 25.4982 33.0842C24.8857 33.0829 24.2733 33.0852 23.6608 33.0884C23.1906 33.0904 22.7205 33.0903 22.2503 33.0897C22.0245 33.0897 21.7986 33.0904 21.5727 33.0917C21.2573 33.0934 20.942 33.0922 20.6265 33.0903C20.5328 33.0914 20.439 33.0924 20.3424 33.0935C19.7124 33.0856 19.7124 33.0856 19.4348 32.8328C19.2874 32.5069 19.2762 32.2911 19.3277 31.9374C19.6923 31.4074 20.1323 31.435 20.7251 31.4397Z" fill="#4C5051"/>
</svg>
