<svg width="60" height="60" viewBox="0 0 60 60" fill="none" xmlns="http://www.w3.org/2000/svg">
<rect width="60" height="60" rx="8" fill="#E4EBFE"/>
<g clip-path="url(#clip0_262_2269)">
<path d="M0 -8.60767C21.5693 -8.60767 43.1387 -8.60767 65.3617 -8.60767C65.3617 12.9617 65.3617 34.531 65.3617 56.754C43.7923 56.754 22.223 56.754 0 56.754C0 35.1846 0 13.6153 0 -8.60767Z" fill="#E4EBFE"/>
<path d="M47.2981 33.9668L47.471 33.8201L47.6977 33.6279L47.8114 33.5314C48.0602 33.3207 48.3121 33.1162 48.5708 32.9176C48.9229 32.6448 49.2632 32.3606 49.598 32.0669C49.6649 32.0086 49.7323 31.9508 49.8003 31.8938C49.8768 31.829 49.9522 31.7628 50.0262 31.6953C50.3083 31.4557 50.4981 31.3712 50.8679 31.3947L51.0387 31.4119L51.2271 31.4253C51.3691 31.4355 51.5112 31.4466 51.6531 31.4584C51.9172 31.4793 52.1814 31.4962 52.4459 31.5121C52.8606 31.5372 53.2752 31.5631 53.6898 31.5903L53.8526 31.6009L54.1799 31.6223C54.5886 31.6491 54.9973 31.6756 55.406 31.7021L55.4703 31.7062C55.6285 31.7165 55.7867 31.7268 55.9448 31.7371C56.4587 31.7706 56.9725 31.8029 57.4865 31.833L57.6347 31.8418C57.8648 31.8553 58.0949 31.8686 58.3251 31.8816L58.5697 31.8958L58.7823 31.9079C58.9783 31.9242 59.1686 31.953 59.362 31.9881C59.2902 32.2035 59.2419 32.2388 59.0671 32.3664L59.0598 32.3718L58.9067 32.4849L58.7396 32.6064C58.6226 32.6927 58.5057 32.7791 58.3888 32.8655L58.2051 33.0009C57.8882 33.2359 57.5753 33.4763 57.2624 33.7166L57.1772 33.782L57.023 33.9L56.8732 34.0187C56.7293 34.1233 56.5969 34.2068 56.4422 34.2912C55.9724 34.561 55.9724 34.561 55.6688 34.9935C55.5819 35.3794 55.6025 35.7727 55.6132 36.1655C55.6132 36.2972 55.6129 36.4288 55.6121 36.5605C55.6112 36.9164 55.6162 37.272 55.6221 37.6278C55.6268 37.9676 55.6268 38.3074 55.6268 38.6472L55.6268 38.7462C55.6277 39.4519 55.6333 40.1574 55.6407 40.863C55.6538 42.1276 55.6582 43.3923 55.6621 44.657C55.6637 45.1008 55.667 45.5445 55.6718 45.9883C55.6746 46.2639 55.6764 46.5396 55.678 46.8152C55.679 46.9431 55.6804 47.071 55.6823 47.1989C55.6849 47.3733 55.6859 47.5477 55.6865 47.7221L55.69 47.8759C55.6893 48.1127 55.6683 48.251 55.5425 48.4542C55.3147 48.6683 55.1164 48.6557 54.8164 48.6562L54.563 48.6571C54.4697 48.6571 54.3764 48.6571 54.283 48.657C54.1843 48.6573 54.0856 48.6575 53.9869 48.6578C53.7149 48.6584 53.4429 48.6586 53.1709 48.6588C52.8779 48.659 52.5848 48.6597 52.2918 48.6602C51.5838 48.6615 50.8759 48.6621 50.1679 48.6627C49.8348 48.663 49.5017 48.6633 49.1685 48.6636C48.0617 48.6647 46.9548 48.6657 45.8479 48.6661L44.986 48.6665L44.7696 48.6666C43.6118 48.6671 42.454 48.6687 41.2962 48.6708C40.1084 48.6729 38.9205 48.6741 37.7327 48.6743C37.0655 48.6744 36.3982 48.675 35.7309 48.6766C35.1629 48.678 34.5948 48.6785 34.0268 48.6779C33.7368 48.6776 33.4468 48.6777 33.1568 48.6789C32.8916 48.6801 32.6263 48.68 32.3611 48.679C32.2649 48.6789 32.1687 48.6791 32.0726 48.6799C31.9422 48.6809 31.8119 48.6801 31.6816 48.6792L31.4619 48.6794C31.2352 48.6405 31.1599 48.5727 31.0216 48.3923C30.9901 48.2273 30.9901 48.2273 30.9909 48.0369L30.9898 47.8178L30.9926 47.5782L30.9925 47.3253C30.9924 47.0966 30.9939 46.868 30.9957 46.6393C30.9971 46.4233 30.9974 46.2072 30.9976 45.9912L30.9977 45.9222C30.9985 45.4696 31.0006 45.0171 31.0032 44.5645C31.006 44.0492 31.0074 43.534 31.0087 43.0187C31.0114 41.9588 31.0159 40.899 31.0216 39.8391L30.8745 39.8438C30.6539 39.8498 30.4334 39.8536 30.2127 39.8573L29.9814 39.8647C29.4141 39.872 29.4141 39.872 29.1483 39.7045C29.0269 39.5479 29.0269 39.5479 28.9147 39.3549C28.7553 39.0818 28.5552 38.8755 28.3361 38.6498L28.3327 38.6463C28.255 38.5641 28.1773 38.4817 28.0999 38.3992L27.9907 38.2833C27.8416 38.1236 27.6983 37.9592 27.5558 37.7936C27.4205 37.6384 27.2818 37.4864 27.143 37.3343L27.1279 37.3179C26.9074 37.0761 26.6899 36.8323 26.4752 36.5853C26.3443 36.436 26.2117 36.2885 26.0787 36.141L25.9339 35.9789C25.8361 35.8713 25.7365 35.7652 25.6352 35.6608L25.4923 35.5107L25.3622 35.3778C25.2769 35.2434 25.2769 35.2434 25.2874 35.0711C25.3407 34.9243 25.3407 34.9243 25.4684 34.8604C25.5905 34.8537 25.7128 34.8511 25.8351 34.8503L26.0716 34.8484L26.3325 34.8473C26.4237 34.8467 26.5149 34.8461 26.6061 34.8454C26.8541 34.8437 27.1022 34.8423 27.3502 34.8411C27.5854 34.8398 27.8205 34.8382 28.0557 34.8367L28.1274 34.8362C28.6182 34.833 29.109 34.8302 29.5997 34.8274C30.2281 34.8239 30.8564 34.8199 31.4847 34.8159L31.5888 34.8152C32.4868 34.8095 33.3848 34.8043 34.2827 34.7991L34.7237 34.7966L34.8513 34.8604H47.2981V33.9668Z" fill="#E6B888"/>
<path d="M13.9149 23.3074C14.2642 23.5501 14.5624 23.8197 14.8594 24.1237C15.0209 24.2858 15.1905 24.4343 15.364 24.5832C15.5546 24.7501 15.7399 24.9223 15.9255 25.0946C16.1452 25.2984 16.3648 25.5013 16.5918 25.697C16.6488 25.7476 16.6488 25.7476 16.7069 25.7992C16.7904 25.8717 16.8746 25.9435 16.9603 26.0133C17.0864 26.1162 17.2101 26.2216 17.3338 26.3273C17.375 26.3598 17.4161 26.3923 17.4586 26.4258C17.6236 26.5699 17.7338 26.6731 17.7637 26.8956C17.7319 27.3332 17.5871 27.7577 17.4574 28.1744C17.4238 28.285 17.4238 28.285 17.3896 28.3978C17.3417 28.5553 17.2937 28.7127 17.2454 28.87C17.1683 29.1213 17.0928 29.3731 17.0176 29.625C17.005 29.6672 16.9924 29.7094 16.9794 29.7529C16.9542 29.8372 16.929 29.9215 16.9039 30.0058C16.7189 30.625 16.5313 31.2432 16.3404 31.8606C16.3923 31.8665 16.4442 31.8724 16.4976 31.8785C16.7745 31.9348 17.0139 32.0355 17.2722 32.1478C17.351 32.1815 17.351 32.1815 17.4314 32.2158C17.6012 32.2884 17.7707 32.3617 17.9402 32.435C18.1146 32.5102 18.2891 32.5853 18.4636 32.6603C18.578 32.7096 18.6923 32.7589 18.8067 32.8082C19.1078 32.938 19.4096 33.0649 19.7139 33.1868C20.9556 33.6863 21.8145 34.4062 22.4043 35.6265C22.6498 36.2169 22.7816 36.832 22.8191 37.4696C22.8224 37.5247 22.8257 37.5799 22.8291 37.6367C22.7872 37.7967 22.7872 37.7967 22.6005 37.9284C22.3984 38.0829 22.3666 38.2102 22.3317 38.4595C22.3182 38.6027 22.3066 38.7462 22.2965 38.8898C22.2897 38.967 22.2829 39.0441 22.2759 39.1236C22.2612 39.2923 22.2472 39.4608 22.2342 39.6296C22.2118 39.9191 22.1866 40.2084 22.1611 40.4978C22.1353 40.7927 22.1096 41.0877 22.0852 41.3828C22.0814 41.4287 22.0776 41.4746 22.0737 41.5219C22.0634 41.6464 22.0532 41.7708 22.0431 41.8952C22.0185 42.1679 21.9887 42.4397 21.9574 42.7116C21.9922 42.7109 22.027 42.7102 22.0629 42.7095C22.4295 42.7023 22.7961 42.6976 23.1628 42.6941C23.2991 42.6925 23.4354 42.6903 23.5717 42.6875C24.5523 42.668 25.447 42.6738 26.2323 43.3494C26.9023 44.013 27.1766 44.6543 27.2114 45.5919C27.2016 46.448 26.8541 47.1912 26.2699 47.81C25.6394 48.3997 24.8694 48.6677 24.0186 48.6653C23.9278 48.6658 23.9278 48.6658 23.8351 48.6663C23.6357 48.6672 23.4364 48.6671 23.237 48.667C23.0977 48.6672 22.9583 48.6675 22.819 48.6678C22.5271 48.6683 22.2352 48.6683 21.9433 48.6679C21.5707 48.6676 21.198 48.6686 20.8254 48.6701C20.5376 48.6711 20.2498 48.6711 19.9619 48.6709C19.8246 48.671 19.6873 48.6713 19.55 48.6719C17.6587 48.6797 17.6587 48.6797 16.9047 48.0157C16.3075 47.3984 16.1705 46.7724 16.1788 45.9383C16.2185 44.6477 16.3874 43.3469 16.5957 42.0733C16.1948 42.076 15.794 42.0806 15.3931 42.0866C15.2568 42.0884 15.1206 42.0897 14.9843 42.0906C14.788 42.092 14.5917 42.095 14.3954 42.0983C14.3046 42.0984 14.3046 42.0984 14.212 42.0985C13.8259 42.1069 13.5883 42.1585 13.2766 42.3925C13.0034 42.6829 13.057 43.0709 13.0569 43.4464C13.0561 43.5181 13.0552 43.5898 13.0544 43.6637C13.0518 43.8929 13.0504 44.122 13.0492 44.3512C13.0477 44.5793 13.0459 44.8073 13.0433 45.0354C13.0418 45.1771 13.0408 45.3188 13.0406 45.4606C13.0312 46.4027 12.8032 47.1845 12.1516 47.8858C11.6194 48.4013 10.8901 48.6468 10.1569 48.6757C9.4389 48.6534 8.84474 48.4025 8.29788 47.9457C8.25188 47.9076 8.20589 47.8695 8.1585 47.8302C7.64902 47.367 7.27638 46.6314 7.19471 45.9421C7.18766 45.7788 7.18615 45.6163 7.18698 45.4528C7.18654 45.3913 7.1861 45.3299 7.18565 45.2666C7.18449 45.0651 7.18473 44.8635 7.18509 44.6619C7.1848 44.5205 7.18446 44.3791 7.18408 44.2376C7.18351 43.9416 7.18366 43.6455 7.1843 43.3495C7.18503 42.9724 7.18375 42.5954 7.18188 42.2183C7.1807 41.9262 7.18073 41.6341 7.18109 41.342C7.1811 41.2031 7.18072 41.0643 7.17992 40.9254C7.17402 39.7277 7.27377 38.5508 8.10639 37.6052C8.24851 37.4853 8.24851 37.4853 8.4016 37.3778C8.4759 37.3244 8.4759 37.3244 8.5517 37.2699C9.03042 36.9934 9.46052 36.865 10.0121 36.8683C10.0713 36.8676 10.1306 36.8669 10.1916 36.8663C10.385 36.8644 10.5784 36.8643 10.7718 36.8642C10.9068 36.8633 11.0419 36.8622 11.1769 36.861C11.5305 36.8582 11.8841 36.857 12.2378 36.856C12.5993 36.8547 12.9609 36.8521 13.3225 36.8495C14.0306 36.8447 14.7387 36.8415 15.4468 36.8393C15.377 36.8126 15.3072 36.786 15.2353 36.7585C14.9729 36.658 14.7109 36.5565 14.4491 36.4548C14.3363 36.4111 14.2235 36.3677 14.1105 36.3246C12.9257 35.872 11.8557 35.351 11.2675 34.1589C10.8267 33.1459 10.8231 32.2295 11.0802 31.1662C11.0972 31.0943 11.1142 31.0224 11.1317 30.9483C11.3087 30.2065 11.4982 29.4679 11.691 28.7301C11.7491 28.5079 11.8068 28.2855 11.8645 28.0632C12.0614 27.3055 12.263 26.5494 12.4753 25.7959C12.5279 25.6072 12.5786 25.418 12.6293 25.2288C12.8488 24.4306 13.209 23.778 13.9149 23.3074Z" fill="#F9D8BA"/>
<path d="M41.4647 24.4599C42.1648 25.056 42.6544 25.7839 42.8298 26.6902C42.8316 26.8392 42.8319 26.9881 42.8298 27.1371C42.8995 27.1352 42.8995 27.1352 42.9706 27.1333C43.4092 27.122 43.8477 27.1115 44.2863 27.1022C44.5118 27.0973 44.7372 27.0921 44.9627 27.0861C45.222 27.0791 45.4814 27.0738 45.7408 27.0685C45.8215 27.0661 45.9022 27.0637 45.9854 27.0613C46.0608 27.06 46.1361 27.0587 46.2138 27.0573C46.28 27.0558 46.3462 27.0542 46.4144 27.0526C46.6795 27.0827 46.8325 27.191 47.0281 27.366C47.1534 27.6126 47.1406 27.8605 47.1457 28.1335C47.1485 28.2268 47.1485 28.2268 47.1514 28.322C47.1575 28.528 47.1622 28.734 47.167 28.94C47.1709 29.0836 47.1749 29.2272 47.179 29.3708C47.1896 29.7496 47.1991 30.1285 47.2083 30.5073C47.216 30.8146 47.2244 31.1218 47.2329 31.4291C47.2505 32.067 47.2676 32.7049 47.2833 33.3429C47.2856 33.4291 47.2856 33.4291 47.2878 33.5171C47.2986 33.9649 47.2993 34.4125 47.2979 34.8605C45.6678 34.8619 44.0377 34.8631 42.4076 34.8638C41.6508 34.8641 40.894 34.8645 40.1372 34.8653C39.4778 34.8659 38.8184 34.8663 38.159 34.8665C37.8096 34.8665 37.4603 34.8667 37.1109 34.8672C36.7825 34.8676 36.454 34.8678 36.1256 34.8677C36.0047 34.8677 35.8838 34.8678 35.7629 34.8681C35.5985 34.8684 35.4342 34.8683 35.2699 34.8681C35.1971 34.8684 35.1971 34.8684 35.1229 34.8687C34.7945 34.8677 34.7945 34.8677 34.7234 34.7966C34.7135 34.6453 34.7077 34.4956 34.7044 34.3441C34.7032 34.2967 34.7019 34.2494 34.7006 34.2007C34.6965 34.0435 34.6929 33.8864 34.6892 33.7292C34.6865 33.6206 34.6837 33.5119 34.6809 33.4032C34.6736 33.1166 34.6667 32.8301 34.6598 32.5435C34.6528 32.2513 34.6454 31.9591 34.638 31.6668C34.6236 31.0931 34.6095 30.5193 34.5957 29.9456C34.4525 30.0168 34.3094 30.0881 34.1662 30.1595C34.1259 30.1796 34.0856 30.1996 34.0441 30.2202C33.7561 30.3639 33.4741 30.5147 33.1955 30.6756C33.1101 30.7241 33.0246 30.7726 32.9392 30.821C32.8967 30.845 32.8543 30.869 32.8106 30.8938C32.5941 31.0157 32.3766 31.1356 32.1582 31.2541C32.1192 31.2757 32.0802 31.2973 32.04 31.3195C31.455 31.6345 30.6723 31.641 30.0322 31.488C29.4215 31.2513 28.9413 30.8437 28.5257 30.345C28.3759 30.1672 28.2188 29.9966 28.0612 29.8259C27.8498 29.5967 27.6409 29.3658 27.4348 29.1317C27.2521 28.9255 27.0616 28.7314 26.8626 28.5411C26.8157 28.4957 26.7688 28.4504 26.7204 28.4037C26.626 28.313 26.5308 28.2231 26.4347 28.1341C26.3914 28.0923 26.348 28.0505 26.3034 28.0075C26.2639 27.9704 26.2244 27.9334 26.1838 27.8952C26.1064 27.7754 26.1064 27.7754 26.1152 27.6134C26.1719 27.4514 26.219 27.3779 26.3423 27.2615C26.3772 27.2277 26.4122 27.1939 26.4482 27.159C26.4855 27.1241 26.5228 27.0892 26.5612 27.0533C26.6375 26.9796 26.7137 26.9058 26.7898 26.8319C26.8264 26.7965 26.863 26.7611 26.9007 26.7247C27.0584 26.5687 27.2009 26.4012 27.3443 26.2322C27.4982 26.0574 27.6653 25.8967 27.8313 25.7335C27.9924 25.5696 28.1404 25.3963 28.2871 25.2194C28.4418 25.0545 28.6116 24.9178 28.7872 24.7754C28.8452 24.8264 28.9033 24.8774 28.963 24.9299C29.3938 25.307 29.8282 25.6782 30.2753 26.036C30.3161 26.0687 30.3569 26.1014 30.399 26.1352C30.7528 26.4164 30.9561 26.4849 31.4043 26.4349C31.7116 26.3382 31.9735 26.1427 32.2388 25.9647C32.3065 25.9194 32.3742 25.8741 32.4439 25.8275C32.5003 25.7897 32.5003 25.7897 32.5579 25.7512C32.9489 25.4897 33.3406 25.2294 33.7329 24.9697C33.8401 24.8986 33.9473 24.8273 34.0544 24.7558C34.9315 24.1708 35.7342 23.6901 36.766 23.4349C36.8174 23.4204 36.8688 23.406 36.9218 23.391C38.4659 23.0044 40.2373 23.4931 41.4647 24.4599Z" fill="#F4DCC0"/>
<path d="M41.4261 35.1797C41.4682 35.1797 41.5104 35.1797 41.5538 35.1797C41.5538 39.6031 41.5538 44.0265 41.5538 48.5839C39.0005 48.5899 39.0005 48.5899 36.3955 48.5959C35.8574 48.5976 35.3193 48.5994 34.7649 48.6012C34.1094 48.602 34.1094 48.602 33.8029 48.6022C33.5881 48.6024 33.3733 48.6031 33.1585 48.6041C32.8849 48.6055 32.6112 48.6059 32.3375 48.6056C32.2369 48.6056 32.1363 48.606 32.0357 48.6068C31.9001 48.6077 31.7645 48.6075 31.629 48.607C31.5529 48.6071 31.4768 48.6073 31.3984 48.6075C31.2134 48.5839 31.2134 48.5839 31.0931 48.5085C30.9946 48.348 30.9983 48.2327 30.9988 48.0447C30.9986 47.9725 30.9983 47.9002 30.998 47.8258C30.9987 47.7465 30.9994 47.6672 31.0001 47.5855C31.0001 47.5021 31.0001 47.4186 31 47.3327C31 47.1037 31.0011 46.8748 31.0025 46.6459C31.0037 46.4067 31.0038 46.1675 31.004 45.9283C31.0046 45.4752 31.0062 45.0222 31.0081 44.5692C31.0102 44.0535 31.0113 43.5378 31.0122 43.022C31.0142 41.9611 31.0176 40.9002 31.0219 39.8393C31.0893 39.8412 31.1568 39.8432 31.2262 39.8453C31.8656 39.8635 32.5049 39.8768 33.1444 39.8856C33.4731 39.8902 33.8016 39.8965 34.1303 39.9067C34.4481 39.9165 34.7658 39.9217 35.0838 39.924C35.2044 39.9257 35.3249 39.9289 35.4454 39.9337C36.0521 39.9572 36.513 39.9487 36.9854 39.534C37.1407 39.3824 37.2872 39.2256 37.4296 39.0619C37.5661 38.9077 37.7121 38.7643 37.8594 38.6204C38.028 38.4558 38.1928 38.2875 38.3583 38.1198C39.1108 37.3577 39.1108 37.3577 39.5144 37.0134C39.7699 36.787 40.0059 36.5399 40.2453 36.2967C40.606 35.9302 40.9715 35.5779 41.3623 35.2435C41.3834 35.2225 41.4044 35.2014 41.4261 35.1797Z" fill="#B48B60"/>
<path d="M45.8497 27.0674C45.974 27.0628 46.0984 27.06 46.2227 27.0572C46.2885 27.0556 46.3542 27.0539 46.422 27.0522C46.6776 27.083 46.8325 27.187 47.0179 27.3609C47.1565 27.6087 47.1409 27.8538 47.1462 28.1335C47.149 28.2268 47.149 28.2268 47.1519 28.322C47.158 28.528 47.1627 28.7339 47.1674 28.94C47.1714 29.0836 47.1754 29.2272 47.1795 29.3708C47.1901 29.7496 47.1995 30.1284 47.2088 30.5072C47.2164 30.8145 47.2249 31.1218 47.2334 31.4291C47.251 32.067 47.268 32.7049 47.2838 33.3428C47.2853 33.4003 47.2868 33.4578 47.2883 33.5171C47.2991 33.9649 47.2998 34.4125 47.2983 34.8604C45.6683 34.8619 44.0382 34.863 42.4081 34.8637C41.6513 34.8641 40.8945 34.8645 40.1376 34.8652C39.4782 34.8659 38.8189 34.8663 38.1595 34.8664C37.8101 34.8665 37.4607 34.8667 37.1114 34.8672C36.7829 34.8676 36.4545 34.8677 36.1261 34.8676C36.0052 34.8677 35.8842 34.8678 35.7633 34.868C35.599 34.8683 35.4347 34.8683 35.2703 34.8681C35.2218 34.8683 35.1733 34.8685 35.1234 34.8687C34.795 34.8677 34.795 34.8677 34.7239 34.7966C34.714 34.6544 34.7086 34.5119 34.7049 34.3694C34.7037 34.3246 34.7024 34.2798 34.7011 34.2337C34.697 34.0842 34.6933 33.9348 34.6897 33.7853C34.687 33.6804 34.6842 33.5756 34.6814 33.4707C34.6756 33.2494 34.67 33.0281 34.6645 32.8068C34.6576 32.5281 34.6503 32.2494 34.6428 31.9706C34.6273 31.3903 34.6138 30.81 34.6021 30.2296C34.5985 30.048 34.5943 29.8664 34.5896 29.6849C34.5839 29.4599 34.5799 29.235 34.5765 29.01C34.5746 28.9463 34.5727 28.8825 34.5707 28.8169C34.5684 28.549 34.5719 28.3926 34.7061 28.1561C34.8589 28.0243 34.9628 27.9688 35.1562 27.9157C35.2141 27.8994 35.2721 27.8832 35.3318 27.8664C35.3918 27.8509 35.4519 27.8353 35.5138 27.8192C35.5733 27.8024 35.6329 27.7855 35.6943 27.7682C35.9937 27.6866 36.2617 27.6251 36.5749 27.6477C36.6005 27.7125 36.6261 27.7773 36.6525 27.8441C37.0182 28.7421 37.4518 29.423 38.2983 29.9455C38.3446 29.9745 38.3908 30.0035 38.4385 30.0333C38.74 30.2036 38.9747 30.2425 39.3196 30.2008C39.3617 30.1377 39.4039 30.0745 39.4473 30.0094C39.6054 29.974 39.6054 29.974 39.8063 29.9535C40.7438 29.8258 41.6314 29.5549 42.2406 28.7844C42.5677 28.3066 42.7386 27.7679 42.8302 27.2008C43.2229 27.1824 43.6156 27.1642 44.0084 27.1463C44.1416 27.1402 44.2748 27.134 44.408 27.1277C44.8885 27.1052 45.3691 27.0864 45.8497 27.0674Z" fill="#8D76EE"/>
<path d="M25.3404 34.9241C32.6074 34.9241 39.8744 34.9241 47.3617 34.9241C47.3617 34.9451 47.3617 34.9662 47.3617 34.9879C47.2902 34.9873 47.2187 34.9867 47.145 34.986C46.4698 34.9806 45.7947 34.9786 45.1194 34.9798C44.7723 34.9803 44.4253 34.9797 44.0782 34.9763C43.7429 34.9731 43.4077 34.973 43.0725 34.9751C42.9448 34.9753 42.8172 34.9744 42.6896 34.9724C41.9856 34.941 41.9856 34.941 41.3524 35.191C41.209 35.3503 41.0956 35.511 40.9787 35.69C40.8461 35.8166 40.8461 35.8166 40.7254 35.9154C40.4197 36.1739 40.1423 36.4581 39.8617 36.7432C39.2899 37.3241 39.2899 37.3241 39.0184 37.5546C38.6036 37.9106 38.2273 38.3096 37.8431 38.698C37.6848 38.8579 37.5264 39.0176 37.3678 39.1772C37.3323 39.2133 37.2968 39.2493 37.2602 39.2865C37.1605 39.3868 37.0594 39.4855 36.9574 39.5836C36.9102 39.6307 36.9102 39.6307 36.8619 39.6786C36.6235 39.9 36.4634 39.9416 36.1423 39.9362C36.0771 39.9358 36.0771 39.9358 36.0106 39.9355C35.862 39.9342 35.7136 39.9305 35.5651 39.9267C35.4575 39.9248 35.3498 39.923 35.2421 39.9213C35.0581 39.9184 34.8741 39.9153 34.6901 39.9116C34.2275 39.9032 33.7654 39.9035 33.3027 39.9079C32.8834 39.9119 32.4642 39.9135 32.0449 39.9136C31.7803 39.9138 31.5157 39.9152 31.2511 39.9193C30.9976 39.9232 30.7443 39.9236 30.4908 39.9217C30.3964 39.9216 30.302 39.9226 30.2076 39.925C29.4836 39.9422 29.4836 39.9422 29.1814 39.6863C29.0361 39.5093 28.9116 39.3288 28.7872 39.1368C28.7105 39.0484 28.6323 38.9613 28.5513 38.8768C28.5152 38.8385 28.479 38.8001 28.4417 38.7607C28.4056 38.7229 28.3696 38.6851 28.3324 38.6461C28.2547 38.5638 28.1771 38.4815 28.0995 38.3991C28.0455 38.3417 28.0455 38.3417 27.9904 38.2831C27.8413 38.1234 27.698 37.959 27.5555 37.7934C27.4153 37.6326 27.2715 37.4753 27.1276 37.3177C26.9071 37.0759 26.6896 36.8321 26.4749 36.5851C26.344 36.4358 26.2114 36.2883 26.0784 36.1408C26.0306 36.0873 25.9828 36.0339 25.9336 35.9788C25.8357 35.8711 25.7361 35.765 25.6349 35.6606C25.5877 35.6111 25.5406 35.5615 25.492 35.5105C25.449 35.4667 25.4061 35.4228 25.3618 35.3776C25.2766 35.2432 25.2766 35.2432 25.3404 34.9241Z" fill="#E6B887"/>
<path d="M51.0384 31.4121C51.1006 31.4165 51.1627 31.421 51.2268 31.4255C51.3689 31.4358 51.5109 31.4468 51.6528 31.4586C51.917 31.4795 52.1811 31.4964 52.4456 31.5123C52.8603 31.5374 53.275 31.5634 53.6896 31.5905C53.7433 31.594 53.797 31.5975 53.8523 31.6011C53.9614 31.6083 54.0705 31.6154 54.1796 31.6225C54.6097 31.6507 55.0399 31.6786 55.4701 31.7064C55.6282 31.7167 55.7864 31.727 55.9446 31.7373C56.4584 31.7708 56.9722 31.8031 57.4862 31.8332C57.5351 31.8361 57.584 31.839 57.6344 31.842C57.8645 31.8555 58.0946 31.8688 58.3248 31.8818C58.4459 31.8889 58.4459 31.8889 58.5695 31.8961C58.6396 31.9 58.7097 31.904 58.782 31.9081C58.978 31.9244 59.1683 31.9532 59.3617 31.9883C59.2889 32.2067 59.2402 32.2399 59.0595 32.372C59.009 32.4094 58.9585 32.4467 58.9064 32.4852C58.8513 32.5252 58.7962 32.5653 58.7393 32.6066C58.6224 32.6929 58.5054 32.7793 58.3885 32.8657C58.3279 32.9104 58.2673 32.955 58.2048 33.0011C57.8592 33.2575 57.5183 33.5201 57.1769 33.7822C57.0742 33.8608 56.9705 33.9381 56.8658 34.014C56.6757 34.1562 56.6757 34.1562 56.5061 34.3349C55.7685 35.0391 54.8835 34.9532 53.9249 34.9318C53.6914 34.9274 53.4578 34.927 53.2242 34.9262C52.7834 34.924 52.3426 34.9183 51.9019 34.9112C51.3994 34.9033 50.8969 34.8995 50.3944 34.896C49.3622 34.8887 48.33 34.8763 47.2979 34.8606C47.2938 34.7162 47.2909 34.5718 47.2885 34.4273C47.2867 34.3469 47.285 34.2665 47.2832 34.1836C47.2973 33.9752 47.3069 33.8979 47.448 33.7508C47.5474 33.6746 47.5474 33.6746 47.6569 33.604C47.6942 33.5763 47.7315 33.5486 47.77 33.5201C47.8484 33.462 47.9277 33.4051 48.0078 33.3493C48.2013 33.213 48.3851 33.0648 48.5705 32.9178C48.6072 32.8892 48.644 32.8607 48.6819 32.8312C48.996 32.5866 49.2984 32.3297 49.5977 32.0671C49.6646 32.0088 49.732 31.951 49.8 31.894C49.8765 31.8292 49.9519 31.7631 50.0259 31.6955C50.369 31.4042 50.599 31.368 51.0384 31.4121Z" fill="#CCA47C"/>
<path d="M25.3404 34.9241C28.4578 34.9241 31.5753 34.9241 34.7872 34.9241C34.5357 35.2175 34.3114 35.4675 34.0292 35.7219C33.9958 35.7522 33.9624 35.7824 33.928 35.8135C33.7054 36.0145 33.4805 36.2128 33.254 36.4094C32.8744 36.741 32.5028 37.0819 32.1303 37.4214C31.8907 37.6395 31.6491 37.8547 31.4045 38.0672C31.262 38.1922 31.1217 38.3193 30.9814 38.4467C30.7153 38.6864 30.4465 38.9227 30.1755 39.1568C30.1386 39.1889 30.1017 39.2211 30.0636 39.2542C29.8394 39.447 29.611 39.6161 29.3617 39.7751C29.0912 39.5121 28.8346 39.2417 28.5882 38.9561C28.4543 38.8018 28.3178 38.6501 28.1808 38.4985C28.0104 38.3097 27.8411 38.1201 27.6742 37.9281C27.4948 37.722 27.3117 37.5196 27.1276 37.3177C26.9071 37.0759 26.6896 36.8321 26.4749 36.5851C26.344 36.4358 26.2114 36.2883 26.0784 36.1408C26.0306 36.0873 25.9828 36.0339 25.9336 35.9788C25.8357 35.8711 25.7361 35.765 25.6349 35.6606C25.5877 35.6111 25.5406 35.5615 25.492 35.5105C25.449 35.4667 25.4061 35.4228 25.3618 35.3776C25.2766 35.2432 25.2766 35.2432 25.3404 34.9241Z" fill="#B48B60"/>
<path d="M15.0488 31.2348C15.1963 31.2966 15.3437 31.359 15.4908 31.4218C15.5713 31.4557 15.6518 31.4895 15.7323 31.5233C15.906 31.5962 16.0795 31.6694 16.253 31.7428C16.6972 31.9306 17.1426 32.1158 17.5878 32.3012C17.7328 32.3616 17.8776 32.4222 18.0225 32.4828C18.4617 32.6663 18.9015 32.8474 19.3441 33.0228C20.7237 33.5727 21.7766 34.2791 22.4194 35.6672C22.6852 36.2886 22.9104 37.1211 22.7874 37.7968C22.6876 37.9683 22.6876 37.9683 22.5321 38.0521C22.2945 38.0861 22.1529 38.0968 21.9496 37.9626C21.7687 37.712 21.7651 37.4567 21.7342 37.1545C21.6129 36.1828 21.3225 35.3557 20.5272 34.7192C20.3276 34.5817 20.1183 34.4721 19.9016 34.3647C19.8344 34.3313 19.8344 34.3313 19.7659 34.2973C19.3169 34.0777 18.8572 33.8889 18.3926 33.7052C18.1373 33.6043 17.8826 33.5017 17.6279 33.3993C17.5752 33.3781 17.5225 33.357 17.4682 33.3351C16.9133 33.1119 16.3613 32.8819 15.8101 32.6499C15.7046 32.6055 15.5991 32.5612 15.4936 32.517C15.3459 32.4551 15.1983 32.3929 15.0508 32.3306C15.0078 32.3127 14.9649 32.2947 14.9207 32.2761C14.7034 32.184 14.4881 32.088 14.2749 31.9869C14.2335 31.9673 14.1921 31.9478 14.1494 31.9276C14.0427 31.8606 14.0427 31.8606 13.915 31.6692C13.9234 31.4341 13.9321 31.2799 14.0826 31.0947C14.412 30.956 14.7353 31.109 15.0488 31.2348Z" fill="#CAAF8C"/>
<path d="M37.0216 28.7966C37.2281 28.9995 37.4261 29.2049 37.612 29.4269C37.6558 29.4781 37.6995 29.5293 37.7446 29.582C37.9564 29.9234 37.9267 30.3526 37.9354 30.7452C37.9367 30.7972 37.938 30.8492 37.9394 30.9027C37.9436 31.0717 37.9474 31.2407 37.9511 31.4097C37.9531 31.496 37.9531 31.496 37.9552 31.5841C37.9807 32.6763 37.9859 33.7679 37.979 34.8605C37.7052 34.8605 37.4313 34.8605 37.1492 34.8605C37.1273 34.2687 37.106 33.677 37.0854 33.0852C37.0839 33.0416 37.0824 32.998 37.0808 32.9531C37.0328 31.5673 37.0021 30.1834 37.0216 28.7966Z" fill="#5E42D0"/>
<path d="M20.2598 12.1571C20.4685 12.3342 20.6597 12.5255 20.851 12.7211C20.9043 12.7746 20.9576 12.8281 21.0125 12.8832C21.1811 13.0528 21.3488 13.2233 21.5165 13.3938C21.6297 13.5077 21.7429 13.6216 21.8562 13.7354C21.9653 13.8454 22.0744 13.9554 22.1835 14.0655C22.2336 14.1161 22.2837 14.1667 22.3354 14.2189C22.5977 14.4856 22.8495 14.7578 23.0939 15.041C23.2422 15.2096 23.3992 15.3663 23.559 15.5241C23.5913 15.5562 23.6237 15.5883 23.6569 15.6213C23.7585 15.722 23.8602 15.8226 23.962 15.9231C24.3379 16.2942 24.7111 16.6629 25.0543 17.065C25.335 17.3788 25.6412 17.6699 25.9407 17.9656C26.6888 18.7041 26.6888 18.7041 26.9281 18.9849C27.2463 19.3578 27.6028 19.6958 27.9513 20.0401C28.737 20.8162 28.737 20.8162 29.0787 21.2171C29.348 21.5189 29.6422 21.7986 29.93 22.0826C30.6442 22.7872 30.6442 22.7872 30.8835 23.068C31.2026 23.4415 31.5595 23.7802 31.9088 24.1252C33.7866 25.98 33.7866 25.98 33.8237 27.181C33.7911 28.2861 33.302 28.9347 32.579 29.7103C32.5054 29.7937 32.4322 29.8774 32.3596 29.9616C32.1434 30.2103 31.9207 30.4529 31.6976 30.6954C31.3699 31.0518 31.046 31.4117 30.7237 31.773C30.3974 32.1377 30.0652 32.4964 29.7307 32.8536C29.512 33.0873 29.2943 33.3219 29.0778 33.5578C28.8 33.8605 28.5181 34.157 28.2251 34.4452C28.1085 34.5637 27.9998 34.6866 27.8915 34.8127C27.7275 35.0036 27.556 35.1825 27.3769 35.3592C27.2016 35.5321 27.0339 35.7066 26.8742 35.8938C26.6618 36.1417 26.4318 36.37 26.1996 36.5991C25.9879 36.809 25.7901 37.0265 25.5966 37.2532C25.4578 37.4108 25.3083 37.5561 25.1585 37.7032C25.0429 37.8209 24.9352 37.9429 24.8277 38.068C24.6733 38.2472 24.5135 38.4166 24.3449 38.5826C24.1777 38.7473 24.0192 38.9152 23.8662 39.0933C23.6782 39.3121 23.4793 39.5153 23.2718 39.7156C23.1523 39.8386 23.0409 39.9641 22.9292 40.0941C22.668 40.3948 22.3868 40.6731 22.1029 40.9523C21.7157 41.3279 21.7157 41.3279 21.3604 41.733C21.1403 41.9926 20.8788 42.1308 20.579 42.2847C20.5365 42.3067 20.4941 42.3287 20.4503 42.3513C19.8758 42.5922 19.0625 42.5702 18.4766 42.3805C17.9096 42.133 17.4485 41.7332 17.0277 41.2872C16.8589 41.1178 16.6808 40.963 16.5002 40.8065C16.2899 40.6221 16.0868 40.4302 15.8835 40.2382C15.7939 40.1539 15.7043 40.0696 15.6147 39.9854C15.5698 39.9431 15.5249 39.9008 15.4787 39.8573C14.8748 39.2895 14.2677 38.7253 13.6578 38.164C13.5904 38.102 13.523 38.04 13.4557 37.9779C13.0023 37.5595 13.0023 37.5595 12.5404 37.1504C12.2767 36.9218 12.0213 36.6843 11.7653 36.4471C11.5557 36.253 11.345 36.0604 11.1322 35.8699C10.8165 35.5869 10.5052 35.2993 10.1939 35.0114C9.76435 34.6141 9.33352 34.2182 8.89814 33.8273C8.32989 33.3169 7.76962 32.7981 7.21167 32.2765C6.73948 31.8353 6.26405 31.3978 5.78246 30.9669C5.46993 30.6865 5.16309 30.4002 4.85699 30.1129C4.66495 29.9328 4.47229 29.7538 4.27572 29.5786C3.58663 28.9639 2.99469 28.2886 2.93829 27.3219C2.91235 26.3134 3.1697 25.6623 3.85307 24.9136C3.98953 24.7725 4.12774 24.6333 4.26686 24.4947C4.31945 24.4418 4.37203 24.389 4.4262 24.3345C4.57074 24.1893 4.71556 24.0444 4.8605 23.8996C5.01733 23.7428 5.17379 23.5856 5.3303 23.4285C5.63638 23.1214 5.94282 22.8146 6.2494 22.5079C6.49869 22.2586 6.74788 22.0091 6.99701 21.7596C7.70434 21.0511 8.41195 20.3429 9.11989 19.6351C9.15798 19.597 9.19608 19.5589 9.23532 19.5197C9.27346 19.4815 9.3116 19.4434 9.3509 19.4041C9.96927 18.7858 10.587 18.1668 11.2044 17.5476C11.8394 16.9108 12.4749 16.2744 13.1109 15.6386C13.4675 15.282 13.8239 14.9252 14.1799 14.5679C14.4828 14.2638 14.7862 13.9601 15.0901 13.657C15.245 13.5026 15.3997 13.3479 15.5538 13.1927C15.7214 13.0241 15.8897 12.8564 16.0583 12.6888C16.1303 12.6158 16.1303 12.6158 16.2038 12.5413C17.358 11.4019 18.9202 11.2359 20.2598 12.1571Z" fill="#FE8B37"/>
<path d="M22.85 29.5031C23.3436 29.7558 23.6526 30.1421 23.8351 30.6677C23.9245 31.272 23.8552 31.755 23.5159 32.2635C23.4804 32.3214 23.4448 32.3793 23.4082 32.439C22.9218 32.9123 22.4175 33.0474 21.7597 33.0499C21.3851 33.044 21.1485 32.9911 20.8351 32.7741C20.7798 32.7399 20.7245 32.7056 20.6675 32.6704C20.2606 32.2634 20.0314 31.7572 19.9854 31.1863C20.0025 30.6626 20.2161 30.211 20.5798 29.8379C21.2766 29.2836 22.0117 29.1515 22.85 29.5031Z" fill="#3868E8"/>
<path d="M23.6435 34.4338C24.4756 35.0846 24.4756 35.0846 24.571 35.4613C24.5677 35.6686 24.5491 35.8172 24.4454 35.9976C24.2401 36.1178 24.094 36.1447 23.8574 36.135C23.6157 36.068 23.4976 35.9004 23.3351 35.7171C22.8448 35.241 22.0777 35.1097 21.4225 35.1126C20.7134 35.1303 20.0504 35.3938 19.5559 35.9101C19.4788 35.9989 19.403 36.0889 19.3293 36.1804C19.1909 36.341 19.1146 36.3484 18.9002 36.3726C18.6648 36.3487 18.6648 36.3487 18.4773 36.2171C18.3456 36.0296 18.3456 36.0296 18.3018 35.8181C18.3622 35.4937 18.5128 35.3149 18.7286 35.0721C18.7771 35.0147 18.7771 35.0147 18.8266 34.9562C20.0241 33.641 22.1872 33.5139 23.6435 34.4338Z" fill="#9D2900"/>
<path d="M19.8133 23.9656C20.0048 24.1212 20.0048 24.1212 20.1324 24.2847C20.164 24.3163 20.164 24.3163 20.1962 24.3486C20.2378 24.6397 20.2521 24.8231 20.107 25.0828C19.353 26.0661 18.1578 26.8056 16.9235 26.9869C16.1441 27.0614 16.1441 27.0614 15.8316 26.821C15.6259 26.6063 15.5954 26.4999 15.5811 26.2136C15.6157 25.961 15.733 25.8591 15.9197 25.689C16.1231 25.5629 16.2808 25.5476 16.5181 25.5414C17.4774 25.4713 18.2273 25.0257 18.8598 24.3206C18.9053 24.2667 18.9508 24.2128 18.9977 24.1573C19.2191 23.9077 19.4976 23.9149 19.8133 23.9656Z" fill="#9E2A00"/>
<path d="M23.7071 23.9657C23.9038 24.09 24.0585 24.2437 24.2177 24.4125C24.8585 25.087 25.62 25.4953 26.5555 25.547C26.8489 25.5749 27.0288 25.6995 27.2457 25.8885C27.3704 26.118 27.366 26.2593 27.3254 26.5131C27.2588 26.7157 27.1423 26.7965 26.9624 26.9018C26.4764 27.1448 25.7873 26.9534 25.2971 26.7912C24.6336 26.555 24.051 26.2082 23.5156 25.7529C23.4695 25.7153 23.4235 25.6777 23.376 25.639C22.7878 25.147 22.7878 25.147 22.7257 24.7827C22.7118 24.5205 22.7278 24.3837 22.8693 24.1572C23.1193 23.9219 23.3756 23.9006 23.7071 23.9657Z" fill="#9E2A00"/>
<path d="M19.7297 27.8113C19.9411 27.8592 19.9411 27.8592 20.0967 27.9509C20.2488 28.2004 20.2627 28.4053 20.1964 28.6889C19.9295 29.2005 19.5159 29.4492 18.9949 29.6531C18.4574 29.8045 17.8459 29.7773 17.3383 29.5409C17.0412 29.3607 16.8024 29.1247 16.5582 28.8804C16.5156 28.4407 16.5156 28.4407 16.6539 28.2102C16.8766 28.0766 17.0751 28.0572 17.3241 28.1145C17.5276 28.2661 17.5276 28.2661 17.7071 28.4336C18.0038 28.6067 18.3307 28.5941 18.6645 28.5613C18.9534 28.4707 19.0832 28.3322 19.2669 28.1025C19.4321 27.9041 19.4658 27.865 19.7297 27.8113Z" fill="#9D2901"/>
<path d="M24.2174 27.8594C24.3781 27.9948 24.517 28.1391 24.657 28.2957C24.8713 28.5151 25.042 28.5805 25.3464 28.5854C25.7741 28.5778 26.1013 28.412 26.4515 28.1785C26.7091 28.1393 26.8039 28.1566 27.018 28.3102C27.1536 28.4977 27.1536 28.4977 27.1895 28.7211C27.1458 28.993 27.1027 29.0787 26.8983 29.2636C26.2522 29.6513 25.5558 29.8519 24.8059 29.6666C24.2851 29.4737 23.8459 29.1806 23.5694 28.6904C23.4833 28.4853 23.4776 28.3323 23.5153 28.1147C23.6999 27.8267 23.8906 27.7897 24.2174 27.8594Z" fill="#9E2901"/>
<path d="M36.8937 26.7542C37.2735 27.0538 37.4161 27.4809 37.6061 27.9136C37.8699 28.4952 38.1544 28.8512 38.7168 29.1558C39.0229 29.3243 39.2815 29.4824 39.5107 29.7542C39.5107 29.8174 39.5107 29.8806 39.5107 29.9457C39.6792 29.9457 39.8477 29.9457 40.0213 29.9457C40.0213 29.9668 40.0213 29.9879 40.0213 30.0096C39.8317 30.0096 39.6422 30.0096 39.4468 30.0096C39.4047 30.0938 39.3626 30.1781 39.3192 30.2649C38.731 30.3456 38.2869 30.0326 37.8179 29.7061C37.2621 29.2554 36.7895 28.5205 36.5745 27.8393C36.5745 27.7762 36.5745 27.713 36.5745 27.6479C36.5113 27.6268 36.4481 27.6057 36.383 27.584C36.3671 27.4818 36.3528 27.3794 36.3391 27.2768C36.331 27.2198 36.3228 27.1628 36.3145 27.1041C36.3192 26.9457 36.3192 26.9457 36.4022 26.8313C36.5743 26.7091 36.6884 26.7214 36.8937 26.7542Z" fill="#C8AC8B"/>
</g>
<defs>
<clipPath id="clip0_262_2269">
<rect width="60" height="42.8936" fill="white" transform="translate(0 8.5625)"/>
</clipPath>
</defs>
</svg>
