<svg width="126" height="91" viewBox="0 0 126 91" fill="none" xmlns="http://www.w3.org/2000/svg">
<g clip-path="url(#clip0_262_1556)">
<path d="M57.794 8.50255C57.9477 8.50292 58.1014 8.5033 58.2598 8.50368C60.5351 8.51438 62.691 8.59636 64.8603 9.34515C65.0721 9.41542 65.0721 9.41542 65.2882 9.48712C68.583 10.611 71.6095 12.6438 73.2862 15.7795C74.2379 17.7255 74.8312 19.699 74.8212 21.8721C74.8206 22.0551 74.8206 22.0551 74.8199 22.2418C74.8193 22.3337 74.8188 22.4256 74.8182 22.5202C74.9862 22.5178 75.1542 22.5155 75.3272 22.513C76.9182 22.4912 78.5091 22.4752 80.1002 22.4647C80.918 22.4591 81.7357 22.4515 82.5535 22.4393C83.3442 22.4276 84.1348 22.4212 84.9256 22.4185C85.2257 22.4165 85.5258 22.4127 85.8259 22.4068C88.1828 22.3629 89.7843 22.6708 91.5839 24.3107C93.6317 26.5239 93.8328 28.8509 93.8444 31.7311C93.8456 31.9068 93.8469 32.0824 93.8482 32.2634C93.852 32.8385 93.8545 33.4135 93.8567 33.9886C93.8576 34.1867 93.8584 34.3847 93.8592 34.5888C93.8624 35.4221 93.8654 36.2553 93.8671 37.0886C93.8696 38.2726 93.8747 39.4565 93.8834 40.6405C93.8901 41.5805 93.8925 42.5205 93.8935 43.4606C93.8945 43.857 93.8968 44.2535 93.9005 44.65C93.9319 48.2245 93.4278 50.9647 91.0573 53.7728C91.0067 53.8233 90.9562 53.8739 90.9041 53.926C90.8891 54.2029 90.885 54.4805 90.885 54.7579C90.8846 54.9385 90.8842 55.1191 90.8838 55.3051C90.8843 55.6051 90.8843 55.6051 90.8848 55.9111C90.8846 56.1225 90.8843 56.3339 90.8839 56.5452C90.8832 57.0017 90.8829 57.4582 90.8829 57.9148C90.8827 58.638 90.8808 59.3612 90.8784 60.0844C90.878 60.2064 90.8776 60.3284 90.8772 60.4542C90.8764 60.7039 90.8756 60.9536 90.8748 61.2033C90.8694 62.8873 90.8653 64.5714 90.8657 66.2555C90.8659 67.3906 90.8635 68.5257 90.8579 69.6608C90.8551 70.2611 90.8537 70.8614 90.8556 71.4617C90.8573 72.028 90.8555 72.5941 90.851 73.1604C90.8495 73.4644 90.8518 73.7685 90.8542 74.0726C90.832 76.0098 90.2195 77.4544 88.8844 78.8333C87.1129 80.3542 85.15 80.475 82.9282 80.4682C82.6757 80.4686 82.4233 80.4691 82.1709 80.4697C81.4788 80.471 80.7867 80.4703 80.0946 80.4694C79.3476 80.4687 78.6006 80.4697 77.8536 80.4706C76.3909 80.472 74.9282 80.4717 73.4655 80.4708C72.2768 80.4701 71.0881 80.47 69.8995 80.4703C69.7303 80.4704 69.5611 80.4704 69.3868 80.4705C69.0431 80.4706 68.6995 80.4707 68.3558 80.4708C65.1333 80.4716 61.9109 80.4706 58.6884 80.469C55.923 80.4676 53.1576 80.4679 50.3922 80.4693C47.181 80.4709 43.9699 80.4716 40.7587 80.4706C40.4163 80.4705 40.074 80.4704 39.7316 80.4703C39.5632 80.4703 39.3947 80.4702 39.2212 80.4702C38.0338 80.4699 36.8463 80.4704 35.6589 80.4711C34.2121 80.4719 32.7653 80.4717 31.3185 80.4701C30.5802 80.4693 29.8419 80.469 29.1037 80.47C28.4279 80.4709 27.7522 80.4704 27.0765 80.4688C26.8319 80.4684 26.5874 80.4686 26.3429 80.4693C26.0105 80.4703 25.6782 80.4693 25.3458 80.4679C25.1612 80.4678 24.9766 80.4678 24.7864 80.4677C23.1439 80.3473 21.5214 79.515 20.4327 78.2845C18.9254 76.2313 18.5708 74.2457 18.5728 71.7633C18.5723 71.5856 18.5719 71.4079 18.5714 71.2248C18.5703 70.7336 18.5699 70.2423 18.5698 69.7511C18.5695 69.2204 18.5683 68.6898 18.5673 68.1592C18.5652 66.9997 18.5643 65.8402 18.5636 64.6807C18.5632 63.956 18.5626 63.2312 18.5619 62.5065C18.56 60.4977 18.5584 58.4889 18.5579 56.4801C18.5579 56.3517 18.5578 56.2232 18.5578 56.0909C18.5578 55.9621 18.5577 55.8334 18.5577 55.7007C18.5576 55.4398 18.5576 55.1789 18.5575 54.918C18.5575 54.7886 18.5574 54.6592 18.5574 54.5259C18.5568 52.4307 18.5541 50.3355 18.5506 48.2402C18.5469 46.0863 18.545 43.9323 18.5448 41.7784C18.5447 40.5701 18.5438 39.3619 18.541 38.1537C18.5387 37.1246 18.5379 36.0954 18.5392 35.0663C18.5397 34.542 18.5396 34.0177 18.5375 33.4933C18.5267 30.355 18.5294 27.1514 20.7391 24.665C21.9983 23.5617 23.4084 22.4999 25.1409 22.5018C25.2862 22.5016 25.4314 22.5014 25.581 22.5012C25.8183 22.502 25.8183 22.502 26.0605 22.5028C26.2279 22.5028 26.3954 22.5028 26.5679 22.5028C27.1216 22.5029 27.6753 22.5041 28.2291 22.5053C28.6129 22.5056 28.9967 22.5058 29.3805 22.5059C30.2877 22.5065 31.1948 22.5077 32.102 22.5092C33.2362 22.5111 34.3705 22.5119 35.5048 22.5127C37.5279 22.5144 39.551 22.517 41.5741 22.5202C41.5729 22.3845 41.5716 22.2488 41.5703 22.109C41.5694 21.9304 41.5684 21.7518 41.5674 21.5678C41.5662 21.391 41.5649 21.2142 41.5636 21.0321C41.5767 20.4022 41.6725 19.8334 41.8326 19.2265C41.8604 19.1169 41.8882 19.0074 41.9169 18.8945C42.8785 15.2337 45.2928 12.5515 48.468 10.5707C48.9668 10.3105 49.4666 10.1332 50 9.95794C50.2941 9.84279 50.5882 9.72762 50.8822 9.61223C50.986 9.57149 51.0899 9.53075 51.1969 9.48877C51.2912 9.45109 51.3855 9.4134 51.4826 9.37458C53.5805 8.57345 55.5738 8.49178 57.794 8.50255Z" fill="#D17B43"/>
<path d="M22.118 25.4309C23.3586 25.8519 24.0143 26.8397 24.5668 27.9587C24.8284 28.6027 24.8947 29.2104 24.8957 29.9017C24.8963 30.0585 24.8969 30.2152 24.8976 30.3767C24.8975 30.547 24.8974 30.7173 24.8973 30.8928C24.8978 31.0735 24.8984 31.2542 24.8989 31.4404C24.9001 31.8327 24.9009 32.2251 24.9014 32.6175C24.9023 33.2398 24.9049 33.862 24.9078 34.4843C24.9087 34.6979 24.9097 34.9115 24.9107 35.1251C24.9111 35.232 24.9116 35.339 24.9121 35.4492C24.9186 36.8968 24.9236 38.3445 24.9255 39.7921C24.9268 40.7699 24.9303 41.7476 24.9361 42.7253C24.9391 43.2417 24.9407 43.7579 24.9403 44.2742C24.9399 44.852 24.9434 45.4296 24.9476 46.0074C24.9466 46.1752 24.9456 46.3431 24.9445 46.516C24.9782 49.3409 26.3193 51.7272 28.3058 53.6715C29.9792 55.1319 32.072 56.274 34.2207 56.8366C34.3783 56.8801 34.5359 56.9235 34.6982 56.9683C36.0441 57.324 37.3304 57.4713 38.7176 57.4809C38.8553 57.4824 38.9929 57.4839 39.1347 57.4855C39.5856 57.4903 40.0366 57.4941 40.4875 57.4979C40.8017 57.501 41.116 57.5042 41.4302 57.5075C42.2543 57.5159 43.0783 57.5235 43.9024 57.5309C44.7445 57.5387 45.5866 57.5472 46.4287 57.5556C48.0788 57.5721 49.7289 57.5876 51.379 57.6026C51.4898 58.6797 51.5551 59.7451 51.5645 60.8275C51.5688 61.1111 51.5732 61.3947 51.5776 61.6782C51.584 62.1176 51.5896 62.5569 51.5936 62.9963C51.5979 63.4256 51.6049 63.8548 51.6123 64.2841C51.6131 64.4802 51.6131 64.4802 51.6138 64.6802C51.6294 65.4381 51.668 66.0208 52.1449 66.6413C53.3261 67.5619 54.6501 67.5065 56.0731 67.4701C56.3022 67.4668 56.5314 67.4638 56.7606 67.461C57.2381 67.4542 57.7154 67.4448 58.1928 67.4333C58.8031 67.4188 59.4132 67.4104 60.0235 67.4041C60.4956 67.3985 60.9677 67.3901 61.4398 67.3807C61.6648 67.3765 61.8898 67.3732 62.1148 67.3707C62.4294 67.3667 62.7436 67.3588 63.0581 67.3499C63.2365 67.3462 63.4149 67.3426 63.5987 67.3388C64.1982 67.2364 64.5381 67.0137 65.0136 66.6413C65.239 66.3414 65.239 66.3414 65.3679 66.0189C65.4147 65.9161 65.4615 65.8132 65.5097 65.7072C65.7637 65.0729 65.8116 64.5132 65.8281 63.8389C65.8313 63.7307 65.8345 63.6225 65.8377 63.5111C65.8477 63.1662 65.8568 62.8212 65.8658 62.4762C65.8724 62.2421 65.8791 62.0081 65.8858 61.774C65.9022 61.2006 65.9178 60.6272 65.9328 60.0538C66.1275 60.0529 66.3223 60.052 66.5229 60.0511C68.3706 60.0422 70.2184 60.0311 72.0661 60.0177C73.0157 60.0109 73.9653 60.0048 74.9149 60.0007C75.8338 59.9967 76.7526 59.9905 77.6714 59.9828C78.0195 59.9803 78.3676 59.9785 78.7157 59.9775C82.7883 59.9651 86.9798 59.6593 90.1992 56.8749C90.4446 56.6834 90.4446 56.6834 90.751 56.6834C90.7689 59.1285 90.7824 61.5736 90.7907 64.0187C90.7946 65.1542 90.8 66.2896 90.8088 67.4251C90.8165 68.4155 90.8214 69.4059 90.8231 70.3963C90.8241 70.9201 90.8264 71.4438 90.832 71.9676C90.8376 72.5543 90.8383 73.1408 90.838 73.7275C90.8407 73.8985 90.8435 74.0695 90.8463 74.2458C90.8343 76.0989 90.1549 77.5211 88.8845 78.8332C87.113 80.3541 85.1501 80.4749 82.9283 80.4681C82.6759 80.4685 82.4234 80.4689 82.171 80.4696C81.4789 80.4708 80.7868 80.4702 80.0947 80.4692C79.3477 80.4686 78.6007 80.4696 77.8537 80.4705C76.391 80.4718 74.9283 80.4715 73.4656 80.4706C72.2769 80.47 71.0883 80.4699 69.8996 80.4702C69.7304 80.4702 69.5612 80.4703 69.3869 80.4703C69.0433 80.4704 68.6996 80.4705 68.3559 80.4706C65.1335 80.4715 61.911 80.4705 58.6885 80.4689C55.9231 80.4675 53.1577 80.4677 50.3923 80.4691C47.1812 80.4708 43.97 80.4714 40.7588 80.4705C40.4165 80.4704 40.0741 80.4703 39.7318 80.4702C39.5633 80.4701 39.3949 80.4701 39.2213 80.4701C38.0339 80.4698 36.8465 80.4702 35.659 80.471C34.2122 80.4718 32.7654 80.4716 31.3186 80.4699C30.5803 80.4691 29.8421 80.4688 29.1038 80.4698C28.4281 80.4708 27.7523 80.4703 27.0766 80.4686C26.8321 80.4683 26.5876 80.4685 26.343 80.4692C26.0107 80.4701 25.6783 80.4692 25.346 80.4678C25.1613 80.4677 24.9767 80.4677 24.7865 80.4676C23.144 80.3471 21.5215 79.5149 20.4328 78.2844C18.9255 76.2312 18.5709 74.2455 18.5729 71.7632C18.5725 71.5855 18.572 71.4078 18.5715 71.2247C18.5704 70.7334 18.57 70.2422 18.5699 69.7509C18.5696 69.2203 18.5685 68.6897 18.5674 68.159C18.5654 66.9996 18.5644 65.8401 18.5638 64.6806C18.5633 63.9559 18.5627 63.2311 18.562 62.5064C18.5601 60.4976 18.5586 58.4888 18.558 56.48C18.558 56.3515 18.558 56.2231 18.5579 56.0907C18.5579 55.962 18.5579 55.8332 18.5578 55.7006C18.5578 55.4397 18.5577 55.1788 18.5576 54.9179C18.5576 54.7885 18.5576 54.6591 18.5575 54.5258C18.5569 52.4306 18.5543 50.3353 18.5507 48.2401C18.547 46.0862 18.5451 43.9322 18.545 41.7782C18.5448 40.57 18.544 39.3618 18.5412 38.1536C18.5388 37.1244 18.538 36.0953 18.5393 35.0662C18.5399 34.5418 18.5398 34.0175 18.5376 33.4932C18.5288 30.9335 18.5236 28.55 19.6668 26.1969C19.7427 26.0389 19.8185 25.8809 19.8966 25.7181C20.5625 25.2187 21.3204 25.3178 22.118 25.4309Z" fill="#D07A42"/>
<path d="M106.544 39.6096C107.761 40.5311 108.451 42.0235 108.675 43.5084C108.862 46.0432 108.472 48.5204 108.062 51.0151C108.262 51.0119 108.462 51.0087 108.669 51.0054C109.417 50.9942 110.166 50.9872 110.915 50.9815C111.238 50.9784 111.561 50.9742 111.884 50.9689C115.75 50.9066 115.75 50.9066 117.321 52.1258C118.125 52.9051 118.506 53.6326 118.557 54.7589C118.525 55.5728 118.345 56.3189 117.867 56.9899C117.539 57.1808 117.539 57.1808 117.254 57.2963C117.317 57.3851 117.38 57.474 117.445 57.5656C118.211 58.676 118.656 59.6035 118.48 60.973C118.2 62.0276 117.77 62.7145 116.948 63.4242C116.981 63.5081 117.014 63.5921 117.048 63.6785C117.583 65.2004 117.713 66.951 117.007 68.4379C115.941 70.1897 114.3 71.162 112.352 71.6969C111.111 71.9785 109.917 72.0499 108.647 72.0522C108.453 72.0537 108.258 72.0553 108.058 72.0568C107.53 72.061 107.002 72.0633 106.474 72.0653C105.921 72.0677 105.367 72.0718 104.813 72.0758C103.767 72.0829 102.721 72.0885 101.675 72.0936C100.26 72.1006 98.8448 72.1099 97.4296 72.1191C95.2034 72.1335 92.9772 72.1448 90.751 72.1565C90.751 68.1121 90.751 64.0676 90.751 59.9006C91.8126 59.749 91.8126 59.749 92.8958 59.5942C95.3767 58.9327 97.2073 57.4636 98.5641 55.3047C98.6443 55.1834 98.7245 55.0622 98.8071 54.9372C100.889 51.6723 101.301 47.4544 101.494 43.6783C101.572 42.3899 101.712 41.0288 102.547 39.9848C103.745 39.1249 105.225 38.8611 106.544 39.6096Z" fill="#F4CF9C"/>
<path d="M22.1182 25.4309C23.3588 25.8519 24.0145 26.8397 24.567 27.9587C24.8286 28.6027 24.8949 29.2104 24.8959 29.9017C24.8965 30.0585 24.8971 30.2152 24.8977 30.3767C24.8977 30.547 24.8976 30.7173 24.8975 30.8928C24.898 31.0735 24.8986 31.2542 24.8991 31.4404C24.9002 31.8327 24.9011 32.2251 24.9016 32.6175C24.9025 33.2398 24.9051 33.862 24.9079 34.4843C24.9089 34.6979 24.9099 34.9115 24.9108 35.1251C24.9113 35.232 24.9118 35.339 24.9123 35.4492C24.9187 36.8968 24.9238 38.3445 24.9257 39.7921C24.927 40.7699 24.9305 41.7476 24.9363 42.7253C24.9393 43.2417 24.9409 43.7579 24.9405 44.2742C24.9401 44.852 24.9435 45.4296 24.9478 46.0074C24.9468 46.1752 24.9457 46.3431 24.9447 46.516C24.9784 49.3409 26.3195 51.7272 28.306 53.6715C29.9794 55.1319 32.0722 56.274 34.2209 56.8366C34.3785 56.8801 34.5361 56.9235 34.6984 56.9683C36.0443 57.324 37.3305 57.4713 38.7178 57.4809C38.8555 57.4824 38.9931 57.4839 39.1349 57.4855C39.5858 57.4903 40.0367 57.4941 40.4877 57.4979C40.8019 57.501 41.1162 57.5042 41.4304 57.5075C42.2545 57.5159 43.0785 57.5235 43.9026 57.5309C44.7447 57.5387 45.5868 57.5472 46.4289 57.5556C48.079 57.5721 49.729 57.5876 51.3791 57.6026C51.49 58.6797 51.5553 59.7451 51.5646 60.8276C51.5689 61.1111 51.5733 61.3947 51.5778 61.6782C51.5842 62.1176 51.5898 62.5569 51.5938 62.9963C51.5981 63.4256 51.6051 63.8548 51.6125 64.2841C51.6133 64.4802 51.6133 64.4802 51.614 64.6802C51.6296 65.4381 51.6682 66.0208 52.1451 66.6413C53.3377 67.5766 54.7001 67.5081 56.1391 67.4821C56.3739 67.4807 56.6087 67.4796 56.8435 67.4788C57.4566 67.4759 58.0695 67.4684 58.6825 67.4599C59.31 67.452 59.9375 67.4486 60.5651 67.4447C61.7927 67.4365 63.0203 67.4235 64.2478 67.4073C64.1778 67.6054 64.1068 67.8032 64.0352 68.0007C63.976 68.166 63.976 68.166 63.9156 68.3345C63.751 68.7201 63.5569 68.9125 63.2137 69.1499C63.068 69.256 63.068 69.256 62.9193 69.3642C61.8377 69.934 60.7599 69.9077 59.5627 69.91C59.3774 69.911 59.1922 69.912 59.0013 69.913C58.6102 69.9146 58.2192 69.9153 57.8281 69.9153C57.233 69.9159 56.6381 69.9215 56.043 69.9273C55.6619 69.9282 55.2808 69.9288 54.8997 69.9291C54.6351 69.9324 54.6351 69.9324 54.3652 69.9358C52.8936 69.9275 51.6318 69.6108 50.5318 68.5886C49.8564 67.8019 49.5203 66.8578 49.5234 65.8279C49.5234 65.6991 49.5234 65.5704 49.5234 65.4377C49.5242 65.3001 49.525 65.1625 49.5258 65.0208C49.5261 64.8078 49.5261 64.8078 49.5264 64.5906C49.5273 64.138 49.5292 63.6853 49.5312 63.2327C49.5319 62.9255 49.5326 62.6183 49.5333 62.3111C49.535 61.5586 49.5376 60.8062 49.5408 60.0538C49.2947 60.0553 49.2947 60.0553 49.0437 60.0569C47.4846 60.0663 45.9254 60.0731 44.3663 60.0776C43.565 60.08 42.7638 60.0832 41.9626 60.0885C41.1868 60.0935 40.411 60.0962 39.6352 60.0974C39.3418 60.0982 39.0485 60.0999 38.7551 60.1024C33.7401 60.1436 29.7502 59.0651 26.1014 55.4865C25.7066 55.0881 25.3619 54.683 25.029 54.2322C25.0218 56.9223 25.0164 59.6124 25.0131 62.3025C25.0115 63.5517 25.0094 64.8008 25.0058 66.05C25.0028 67.1393 25.0008 68.2285 25.0001 69.3178C24.9997 69.8941 24.9988 70.4704 24.9966 71.0467C24.9945 71.5902 24.9939 72.1336 24.9943 72.6771C24.9942 72.9695 24.9925 73.262 24.9908 73.5544C24.996 75.7226 25.3616 77.2882 26.8536 78.8996C27.7399 79.7412 28.616 79.988 29.8148 79.9908C30.1112 79.9921 30.1112 79.9921 30.4136 79.9934C30.6334 79.9936 30.8531 79.9937 31.0729 79.9938C31.306 79.9945 31.5391 79.9953 31.7721 79.9961C32.4135 79.9982 33.0549 79.9994 33.6963 80.0003C34.3877 80.0016 35.079 80.0037 35.7703 80.0057C36.9684 80.009 38.1665 80.0118 39.3645 80.0142C41.0968 80.0177 42.829 80.022 44.5612 80.0265C47.3715 80.0338 50.1818 80.0404 52.9921 80.0466C55.7223 80.0526 58.4526 80.059 61.1828 80.0658C61.351 80.0662 61.5193 80.0666 61.6926 80.067C62.5366 80.0691 63.3806 80.0712 64.2246 80.0733C71.2284 80.0908 78.2322 80.1072 85.236 80.1228C85.236 80.1734 85.236 80.2239 85.236 80.276C77.4724 80.283 69.7087 80.2884 61.9451 80.2916C61.0287 80.292 60.1122 80.2924 59.1958 80.2928C58.9222 80.293 58.9222 80.293 58.643 80.2931C55.6882 80.2944 52.7335 80.2968 49.7788 80.2996C46.7474 80.3025 43.7159 80.3042 40.6845 80.3048C38.8137 80.3052 36.9429 80.3066 35.0721 80.3091C33.7895 80.3107 32.5069 80.3112 31.2243 80.3108C30.4841 80.3106 29.744 80.3109 29.0038 80.3125C28.3259 80.314 27.6481 80.3141 26.9702 80.313C26.7252 80.3129 26.4802 80.3133 26.2352 80.3143C24.0524 80.3223 22.4235 80.1221 20.7328 78.6189C18.3025 76.0491 18.5271 72.5813 18.5352 69.3004C18.5348 68.8734 18.5337 68.4464 18.5327 68.0194C18.5307 66.9846 18.5311 65.9498 18.5324 64.9151C18.5335 64.0734 18.5336 63.2317 18.5331 62.3901C18.533 62.2097 18.533 62.2097 18.5329 62.0257C18.5328 61.7813 18.5326 61.537 18.5325 61.2926C18.5312 59.0069 18.5327 56.7212 18.5351 54.4354C18.5372 52.4781 18.5368 50.5208 18.5347 48.5635C18.5322 46.2851 18.5313 44.0068 18.5327 41.7284C18.5328 41.485 18.533 41.2417 18.5331 40.9983C18.5332 40.8786 18.5333 40.7589 18.5333 40.6356C18.5337 39.7958 18.5331 38.9559 18.532 38.1161C18.5307 37.0915 18.5311 36.0669 18.5335 35.0423C18.5347 34.5204 18.5349 33.9986 18.5336 33.4767C18.528 30.9237 18.5269 28.5437 19.667 26.1969C19.7428 26.0389 19.8187 25.8809 19.8968 25.7181C20.5627 25.2187 21.3205 25.3178 22.1182 25.4309Z" fill="#A85B2D"/>
<path d="M57.7941 8.50255C57.9478 8.50292 58.1015 8.5033 58.2599 8.50368C60.5352 8.51438 62.6911 8.59636 64.8604 9.34515C65.0016 9.392 65.1428 9.43885 65.2883 9.48712C68.5831 10.611 71.6096 12.6438 73.2863 15.7795C74.3749 18.0053 74.8183 20.0511 74.8183 22.5202C72.9983 22.5202 71.1783 22.5202 69.3032 22.5202C69.1515 21.6608 68.9998 20.8013 68.8436 19.9159C68.2792 17.7019 66.997 16.2545 65.0693 15.0721C63.0066 13.9409 60.786 13.6838 58.473 13.708C58.0995 13.7113 57.7265 13.708 57.3531 13.7041C55.328 13.7003 53.4546 14.0137 51.6375 14.9656C51.536 15.0178 51.4345 15.0699 51.3299 15.1236C50.4034 15.6202 49.6441 16.2341 48.9278 17.0051C48.8369 17.1007 48.7461 17.1962 48.6525 17.2947C47.4192 18.7477 47.3314 20.7053 47.0894 22.5202C45.2694 22.5202 43.4494 22.5202 41.5742 22.5202C41.5742 20.2061 41.5742 20.2061 41.8327 19.2265C41.8605 19.1169 41.8884 19.0074 41.917 18.8945C42.8787 15.2337 45.2929 12.5515 48.4682 10.5707C48.9669 10.3105 49.4667 10.1332 50.0001 9.95794C50.2942 9.84279 50.5883 9.72762 50.8823 9.61223C50.9861 9.57149 51.09 9.53075 51.197 9.48877C51.2913 9.45109 51.3856 9.4134 51.4827 9.37458C53.5806 8.57345 55.5739 8.49178 57.7941 8.50255Z" fill="#6CBB8C"/>
<path d="M54.4904 54.3606C54.6863 54.3591 54.8821 54.3577 55.0839 54.3562C55.2974 54.3554 55.5108 54.3548 55.7242 54.3542C55.944 54.3533 56.1638 54.3524 56.3837 54.3515C56.8443 54.3499 57.3049 54.349 57.7656 54.3485C58.3538 54.3477 58.9421 54.344 59.5303 54.3396C59.9844 54.3368 60.4385 54.336 60.8926 54.3357C61.1094 54.3353 61.3261 54.334 61.5429 54.332C63.0573 54.3189 64.1851 54.3542 65.3201 55.4577C65.9491 56.3586 65.8486 57.3463 65.8461 58.4008C65.8469 58.5972 65.8477 58.7936 65.8485 58.996C65.8499 59.4109 65.8495 59.8258 65.848 60.2407C65.8462 60.7695 65.8493 61.2982 65.8538 61.8271C65.8573 62.3351 65.8562 62.843 65.8557 63.351C65.8574 63.5395 65.8591 63.728 65.8609 63.9222C65.8521 65.0034 65.7569 65.7256 65.1669 66.6412C64.4705 67.2879 64.0653 67.4263 63.1277 67.4508C63.0285 67.4535 62.9293 67.4563 62.8271 67.4591C62.498 67.4679 62.1688 67.4754 61.8396 67.4826C61.7268 67.4851 61.6141 67.4876 61.498 67.4902C60.9002 67.5032 60.3025 67.5151 59.7047 67.5263C59.2119 67.5357 58.7192 67.5474 58.2266 67.5611C57.6302 67.5778 57.034 67.5905 56.4375 67.6004C56.2113 67.6048 55.985 67.6105 55.7589 67.6177C54.4245 67.6586 53.2408 67.6511 52.145 66.7944C51.3225 65.8607 51.4408 64.7781 51.4454 63.5826C51.4446 63.3741 51.4437 63.1656 51.4425 62.9571C51.441 62.5215 51.4416 62.0859 51.4439 61.6503C51.4465 61.0948 51.4429 60.5395 51.4375 59.9841C51.4341 59.5539 51.4344 59.1237 51.4357 58.6935C51.4358 58.3901 51.4328 58.0866 51.4297 57.7832C51.4413 56.6572 51.5376 55.8606 52.2982 54.9981C52.9599 54.3765 53.6092 54.366 54.4904 54.3606Z" fill="#F2CE84"/>
<path d="M57.7259 13.5547C58.0987 13.558 58.4711 13.5547 58.8439 13.5508C61.9452 13.5451 64.8292 14.2428 67.1064 16.4766C67.2245 16.6004 67.3426 16.7242 67.4643 16.8518C67.6035 16.9925 67.6035 16.9925 67.7456 17.136C68.9514 18.5224 69.3027 20.7628 69.3027 22.5201C61.9721 22.5201 54.6416 22.5201 47.0889 22.5201C47.0889 21.2927 47.2114 20.4474 47.5485 19.3029C47.5799 19.1904 47.6113 19.0778 47.6436 18.9618C48.2503 17.0702 49.9216 15.7023 51.6274 14.8219C51.7196 14.7733 51.8118 14.7247 51.9068 14.6746C53.7863 13.7565 55.6666 13.5332 57.7259 13.5547Z" fill="#FDFEFF"/>
<path d="M110.096 56.1276C110.268 56.1272 110.441 56.1268 110.619 56.1265C110.981 56.1266 111.342 56.1286 111.704 56.1325C112.258 56.1378 112.811 56.1356 113.365 56.1327C113.718 56.1337 114.071 56.1352 114.424 56.1372C114.589 56.1364 114.754 56.1356 114.924 56.1349C116.061 56.1528 116.061 56.1528 116.665 56.5076C117.004 56.9027 117.094 57.2636 117.254 57.7559C117.377 57.8791 117.501 58.0024 117.628 58.1293C118.244 58.7455 118.501 59.3918 118.547 60.255C118.505 61.3266 118.127 62.2972 117.369 63.0604C117.23 63.1805 117.091 63.3006 116.948 63.4243C116.981 63.5082 117.014 63.5921 117.048 63.6786C117.583 65.2004 117.713 66.951 117.007 68.4379C116.258 69.6691 115.303 70.4227 114.037 71.0842C114.037 70.9325 114.037 70.7809 114.037 70.6246C114.138 70.6246 114.239 70.6246 114.343 70.6246C114.388 70.5298 114.432 70.435 114.478 70.3374C114.65 70.0118 114.65 70.0118 114.956 69.7054C114.805 69.6296 114.805 69.6296 114.65 69.5522C114.65 69.6533 114.65 69.7544 114.65 69.8586C114.119 70.2128 113.909 70.2044 113.282 70.2057C113.101 70.2064 112.92 70.2071 112.733 70.2078C112.445 70.2056 112.445 70.2056 112.151 70.2033C111.858 70.2013 111.858 70.2013 111.56 70.1992C107.624 70.1505 107.624 70.1505 106.224 68.7862C105.343 67.6995 105.034 66.8109 105.152 65.4159C105.419 64.5854 105.857 63.9599 106.377 63.2711C106.314 63.1915 106.252 63.1119 106.187 63.0299C106.104 62.9231 106.022 62.8162 105.937 62.7062C105.814 62.5489 105.814 62.5489 105.689 62.3884C105 61.3656 105.005 60.2399 105.223 59.0527C105.509 58.0665 105.995 57.311 106.885 56.7771C107.981 56.2471 108.887 56.1125 110.096 56.1276ZM115.109 69.2458C115.109 69.3469 115.109 69.448 115.109 69.5522C115.211 69.5017 115.312 69.4511 115.416 69.399C115.315 69.3485 115.214 69.2979 115.109 69.2458Z" fill="#F4CE9C"/>
<path d="M110.096 56.1276C110.268 56.1272 110.441 56.1268 110.619 56.1265C110.981 56.1266 111.342 56.1286 111.704 56.1325C112.258 56.1378 112.811 56.1356 113.365 56.1327C113.718 56.1337 114.071 56.1352 114.424 56.1372C114.589 56.1364 114.754 56.1356 114.924 56.1349C116.063 56.1528 116.063 56.1528 116.667 56.5142C116.949 56.8384 117.056 57.0258 117.101 57.4495C116.341 58.0832 115.487 57.9712 114.55 57.966C114.194 57.9686 113.837 57.9713 113.481 57.974C112.92 57.9756 112.36 57.9761 111.8 57.9759C111.258 57.9764 110.716 57.9806 110.174 57.9851C109.924 57.9832 109.924 57.9832 109.668 57.9813C108.726 57.9905 108.165 58.0434 107.45 58.6751C106.928 59.2663 106.92 59.8421 106.947 60.5997C107.008 61.1257 107.137 61.4645 107.45 61.8923C108.298 62.4705 109.125 62.4121 110.113 62.4033C110.456 62.4053 110.799 62.4073 111.142 62.4093C111.682 62.4099 112.221 62.4093 112.76 62.4071C113.282 62.4058 113.804 62.4091 114.326 62.4129C114.487 62.4109 114.649 62.4088 114.815 62.4067C115.929 62.418 115.929 62.418 116.442 62.8651C116.641 63.2711 116.641 63.2711 116.641 63.7307C116.156 64.0154 115.8 64.0754 115.24 64.0762C115.083 64.0773 114.926 64.0783 114.764 64.0794C114.596 64.0793 114.427 64.0791 114.253 64.079C113.896 64.0821 113.538 64.0853 113.18 64.0885C112.617 64.092 112.054 64.0945 111.49 64.0954C110.946 64.0969 110.402 64.102 109.858 64.1077C109.69 64.1069 109.521 64.1061 109.348 64.1053C108.417 64.1123 108.417 64.1123 107.579 64.4832C106.996 65.143 106.903 65.6912 106.922 66.5583C107.017 67.1021 107.243 67.4032 107.603 67.8096C108.391 68.3521 109.317 68.3711 110.243 68.3739C110.482 68.3778 110.721 68.3816 110.959 68.3856C111.332 68.39 111.704 68.3937 112.077 68.3965C112.439 68.3998 112.801 68.4059 113.163 68.4122C113.275 68.4122 113.386 68.4122 113.501 68.4123C113.951 68.4211 114.269 68.4296 114.648 68.6845C114.803 68.9394 114.803 68.9394 114.784 69.4086C114.65 69.8586 114.65 69.8586 114.19 70.165C113.778 70.2047 113.778 70.2047 113.282 70.2057C113.101 70.2064 112.92 70.2071 112.733 70.2078C112.445 70.2056 112.445 70.2056 112.151 70.2033C111.858 70.2013 111.858 70.2013 111.56 70.1992C107.624 70.1505 107.624 70.1505 106.224 68.7862C105.343 67.6995 105.034 66.8109 105.152 65.4159C105.419 64.5854 105.857 63.9599 106.377 63.2711C106.314 63.1915 106.252 63.1119 106.187 63.0299C106.104 62.9231 106.022 62.8162 105.937 62.7062C105.814 62.5489 105.814 62.5489 105.689 62.3884C105 61.3656 105.005 60.2399 105.223 59.0527C105.509 58.0665 105.995 57.311 106.885 56.7771C107.981 56.2471 108.887 56.1125 110.096 56.1276Z" fill="#E0904C"/>
<path d="M90.4444 54.0791C90.5455 54.0791 90.6466 54.0791 90.7508 54.0791C90.8672 54.9459 90.9777 55.8266 90.7508 56.6835C90.2748 57.2656 89.7233 57.5864 89.06 57.9129C88.755 58.0644 88.4622 58.23 88.1674 58.4004C86.8735 59.1251 85.6528 59.5098 84.1822 59.6993C83.854 59.7438 83.854 59.7438 83.5233 59.822C81.8101 60.1799 80.0612 60.092 78.3202 60.0838C77.9621 60.0832 77.6041 60.0828 77.2461 60.0825C76.3092 60.0813 75.3723 60.0783 74.4355 60.0749C73.4773 60.0717 72.5191 60.0704 71.5609 60.0688C69.6848 60.0655 67.8087 60.0603 65.9326 60.0538C65.9326 59.245 65.9326 58.4361 65.9326 57.6027C66.2213 57.6013 66.2213 57.6013 66.5158 57.5999C68.3432 57.5911 70.1706 57.5799 71.998 57.5666C72.9371 57.5598 73.8763 57.5537 74.8154 57.5496C75.7243 57.5456 76.6332 57.5394 77.5421 57.5317C77.8862 57.5292 78.2303 57.5274 78.5745 57.5264C82.4106 57.5146 86.158 57.2956 89.372 54.9983C89.5568 54.8796 89.7418 54.7615 89.9274 54.644C90.3045 54.419 90.3045 54.419 90.4444 54.0791Z" fill="#A75A2D"/>
<path d="M53.9829 36.9208C54.3701 37.2145 54.4382 37.3674 54.5957 37.84C54.6943 39.2448 54.3694 40.4446 53.4736 41.5449C52.4963 42.6042 51.3981 43.4177 49.9261 43.5598C48.1929 43.578 46.8086 43.3575 45.5235 42.1277C44.52 41.0076 43.7531 39.7446 43.8096 38.2044C43.9197 37.5594 44.1217 37.3293 44.6378 36.9208C45.1082 36.8036 45.3654 36.8404 45.8634 36.9208C46.2725 37.3432 46.3862 37.697 46.4666 38.2708C46.6241 39.1608 46.9499 40.0336 47.7018 40.5975C48.5858 40.8763 49.6592 40.9399 50.5294 40.6065C51.1574 40.2348 51.5088 39.8804 51.8381 39.2188C51.9362 38.7467 51.9915 38.279 52.0488 37.8005C52.1521 37.3469 52.2344 37.1927 52.6041 36.9208C53.1479 36.7395 53.4313 36.7829 53.9829 36.9208Z" fill="#203067"/>
<path d="M63.9411 36.9207C64.5566 37.4483 64.6879 38.0933 64.8938 38.8453C65.1112 39.5237 65.5244 40.153 66.0859 40.5975C67.0432 40.9051 68.1646 40.9236 69.0732 40.5018C69.9056 39.711 70.1459 39.0461 70.2851 37.9297C70.3876 37.48 70.5114 37.2481 70.835 36.9207C71.3329 36.8404 71.5904 36.8027 72.0606 36.9207C72.545 37.3143 72.764 37.5491 72.8942 38.1541C72.9684 39.502 72.4151 40.574 71.5436 41.5646C71.3106 41.8071 71.0747 42.0468 70.835 42.2827C70.7505 42.367 70.666 42.4513 70.5789 42.5382C69.4622 43.5619 67.9396 43.4446 66.5209 43.4113C65.2369 43.342 64.4655 42.8603 63.5868 41.9476C62.6759 40.8338 62.008 39.6241 62.1027 38.1463C62.2942 37.6963 62.2942 37.6963 62.5623 37.3803C62.6618 37.2429 62.6618 37.2429 62.7634 37.1027C63.1738 36.8139 63.4543 36.8413 63.9411 36.9207Z" fill="#1F3066"/>
<path d="M54.5958 44.4276C55.0654 44.7989 55.3234 45.1133 55.5821 45.6532C55.964 46.3865 56.5809 46.8794 57.3534 47.1852C58.8367 47.3423 59.885 47.2015 61.0685 46.3139C61.4072 45.8662 61.6009 45.396 61.8069 44.8758C61.9494 44.5808 61.9494 44.5808 62.2558 44.4276C63.3146 44.3422 63.3146 44.3422 63.8739 44.6287C64.2453 45.3229 64.1346 45.98 63.941 46.7256C63.1693 48.2529 61.5727 49.3496 59.9847 49.8835C58.5055 50.1464 56.8318 50.092 55.515 49.33C54.4886 48.5528 53.0794 47.4282 52.8538 46.0793C52.8265 45.1419 52.8265 45.1419 53.2362 44.6478C53.7579 44.387 54.0211 44.3198 54.5958 44.4276Z" fill="#1F2F67"/>
<path d="M57.2143 57.7302C57.3525 57.7297 57.4908 57.7292 57.6332 57.7287C57.9258 57.7279 58.2184 57.7275 58.511 57.7275C58.9599 57.7272 59.4087 57.7244 59.8576 57.7215C60.1414 57.7211 60.4253 57.7208 60.7091 57.7206C60.9114 57.719 60.9114 57.719 61.1178 57.7173C62.0672 57.7209 62.0672 57.7209 62.4087 58.0623C62.4496 58.3451 62.4496 58.3451 62.4532 58.6921C62.4551 58.822 62.4571 58.9519 62.4591 59.0857C62.4595 59.2263 62.4598 59.3669 62.4601 59.5117C62.4612 59.6561 62.4622 59.8004 62.4632 59.9491C62.4648 60.2548 62.4655 60.5606 62.4655 60.8663C62.4661 61.334 62.4717 61.8016 62.4775 62.2693C62.4784 62.5661 62.479 62.8629 62.4793 63.1598C62.4815 63.2997 62.4837 63.4397 62.486 63.5839C62.479 64.5499 62.479 64.5499 62.1272 65.05C61.7959 65.2627 61.7959 65.2627 61.3267 65.2531C60.8527 65.1018 60.6982 65.0494 60.4171 64.6499C60.377 64.2642 60.3635 63.9174 60.3722 63.5326C60.3729 63.4244 60.3735 63.3163 60.3742 63.2048C60.3768 62.8598 60.3825 62.5149 60.3884 62.17C60.3907 61.9359 60.3928 61.7018 60.3947 61.4677C60.3997 60.8943 60.4076 60.3209 60.4171 59.7475C60.1979 59.7511 60.1979 59.7511 59.9744 59.7548C59.4322 59.7631 58.89 59.7684 58.3478 59.7728C58.1132 59.7751 57.8785 59.7782 57.6439 59.7822C57.3066 59.7878 56.9694 59.7904 56.632 59.7924C56.5272 59.7948 56.4223 59.7971 56.3143 59.7996C55.8772 59.7997 55.5845 59.7956 55.2187 59.5436C54.9619 59.1422 54.9972 58.8322 55.0551 58.3687C55.6237 57.6193 56.3469 57.7313 57.2143 57.7302Z" fill="#E19135"/>
<path d="M55.668 45.8064C55.867 45.9865 55.867 45.9865 56.0701 46.1702C56.5183 46.5469 56.9357 46.7293 57.5064 46.8788C57.4558 46.7777 57.4052 46.6766 57.3532 46.5724C57.6059 46.6229 57.8587 46.6735 58.1191 46.7256C58.1191 46.8773 58.1191 47.0289 58.1191 47.1852C57.2403 47.2555 56.8164 47.1203 56.1276 46.5724C55.8403 46.3234 55.8403 46.3234 55.668 46.1128C55.668 46.0117 55.668 45.9106 55.668 45.8064Z" fill="#D78744"/>
<path d="M107.602 64.3435C107.704 64.3435 107.805 64.3435 107.909 64.3435C107.744 64.6861 107.572 65.0019 107.363 65.3201C107.119 65.7659 107.048 66.1397 106.99 66.6415C106.939 66.6415 106.888 66.6415 106.836 66.6415C106.772 65.7023 106.837 65.2577 107.449 64.4967C107.5 64.4461 107.55 64.3956 107.602 64.3435Z" fill="#F5D6A8"/>
<path d="M18.9003 28.1885C19.0519 28.1885 19.2036 28.1885 19.3599 28.1885C19.3168 28.4154 19.2717 28.6419 19.2258 28.8683C19.2009 28.9945 19.1761 29.1207 19.1504 29.2507C19.1184 29.3552 19.0864 29.4596 19.0535 29.5673C18.9018 29.6431 18.9018 29.6431 18.7471 29.7205C18.7976 29.2149 18.8482 28.7094 18.9003 28.1885Z" fill="#AC633D"/>
<path d="M93.6619 47.1853C93.7124 47.1853 93.763 47.1853 93.8151 47.1853C93.837 48.3233 93.837 48.3233 93.6619 48.8705C93.5608 48.8705 93.4596 48.8705 93.3555 48.8705C93.3555 48.5672 93.3555 48.2638 93.3555 47.9513C93.4566 47.9513 93.5577 47.9513 93.6619 47.9513C93.6619 47.6985 93.6619 47.4457 93.6619 47.1853Z" fill="#DC956F"/>
<path d="M53.5524 36.8251C53.6946 36.8567 53.8368 36.8883 53.9833 36.9209C53.7248 37.1698 53.7248 37.1698 53.3705 37.3805C52.9492 37.256 52.9492 37.256 52.6045 37.0741C53.0641 36.7677 53.0641 36.7677 53.5524 36.8251Z" fill="#363A68"/>
</g>
<defs>
<clipPath id="clip0_262_1556">
<rect width="120.721" height="91" fill="white" transform="translate(4.5)"/>
</clipPath>
</defs>
</svg>
