<?xml version="1.0" encoding="UTF-8"?>
<svg id="Calque_1" xmlns="http://www.w3.org/2000/svg" xmlns:xlink="http://www.w3.org/1999/xlink" version="1.1" viewBox="0 0 318 160">
  <!-- Generator: Adobe Illustrator 30.0.0, SVG Export Plug-In . SVG Version: 2.1.1 Build 123)  -->
  <defs>
    <style>
      .st0 {
        fill: none;
      }

      .st1 {
        fill: #996cff;
      }

      .st1, .st2 {
        fill-opacity: .4;
      }

      .st3 {
        fill: #ed9c11;
      }

      .st4 {
        fill: #eb940e;
      }

      .st5 {
        fill: #f1c08d;
      }

      .st6 {
        fill: #fbd716;
      }

      .st7 {
        fill: #fcce23;
      }

      .st8 {
        fill: #f7d31e;
      }

      .st2 {
        fill: #7645e6;
      }

      .st9 {
        fill: #feca33;
      }

      .st10 {
        clip-path: url(#clippath-1);
      }

      .st11 {
        fill: #fea02f;
      }

      .st12 {
        fill: #fe9f2f;
      }

      .st13 {
        fill: #fedcbb;
      }

      .st14 {
        fill: #ea9617;
      }

      .st15 {
        fill: #25181a;
      }

      .st16 {
        fill: #36251d;
      }

      .st17 {
        fill: #36251e;
      }

      .st18 {
        fill: #fcd61a;
      }

      .st19 {
        fill: #ee9e13;
      }

      .st20 {
        fill: #ffc832;
      }

      .st21 {
        fill: #875aef;
      }

      .st22 {
        clip-path: url(#clippath);
      }
    </style>
    <clipPath id="clippath">
      <rect class="st0" y="0" width="318" height="160" rx="18" ry="18"/>
    </clipPath>
    <clipPath id="clippath-1">
      <rect class="st0" x="121" y="20" width="76" height="72"/>
    </clipPath>
  </defs>
  <g class="st22">
    <g>
      <rect class="st21" y="0" width="318" height="160" rx="18" ry="18"/>
      <path class="st2" d="M177.3,50.5c2.8-3.1,7.3-4.1,11.1-2.4l61.8,27.5c3.8,1.7,6.1,5.7,5.7,9.8l-7.1,67.3c-.4,4.2-3.5,7.6-7.6,8.4l-66.2,14.1c-4.1.9-8.3-1-10.4-4.6l-33.8-58.6c-2.1-3.6-1.6-8.2,1.2-11.3l45.3-50.3Z"/>
      <path class="st2" d="M266.3,78.1c.5-4.2,3.6-7.5,7.7-8.4l66.3-13.4c4.1-.8,8.3,1.1,10.3,4.7l33.2,59c2.1,3.7,1.5,8.2-1.3,11.3l-45.8,49.8c-2.8,3.1-7.3,4-11.1,2.2l-61.5-28.2c-3.8-1.7-6.1-5.7-5.6-9.9l7.8-67.2Z"/>
      <path class="st1" d="M198.7-36.6c.5-4.2,3.6-7.6,7.7-8.4l66.3-13.7c4.1-.8,8.3,1,10.4,4.7l33.5,58.8c2.1,3.6,1.6,8.2-1.3,11.3l-45.6,50c-2.8,3.1-7.3,4-11.1,2.3l-61.7-27.9c-3.8-1.7-6.1-5.7-5.6-9.9l7.5-67.3Z"/>
      <path class="st2" d="M27.4,69.9c2.9-3.1,7.4-3.9,11.2-2.1l74.8,35.1c3.8,1.8,6,5.8,5.5,10l-10.3,82c-.5,4.2-3.7,7.5-7.8,8.3l-81.2,15.6c-4.1.8-8.3-1.2-10.3-4.8l-39.9-72.4c-2-3.7-1.5-8.2,1.4-11.3l56.5-60.3Z"/>
      <path class="st1" d="M56-10c.5-4.2,3.6-7.6,7.7-8.4l66.3-13.7c4.1-.8,8.3,1,10.4,4.7l33.5,58.8c2.1,3.6,1.6,8.2-1.3,11.3l-45.6,50c-2.8,3.1-7.3,4-11.1,2.3l-61.7-27.9c-3.8-1.7-6.1-5.7-5.6-9.9l7.5-67.3Z"/>
      <g class="st10">
        <g>
          <path class="st20" d="M183.5,26.8l.2.2c.8.6,1.5,1.3,2.3,1.9l.3.3c1.6,1.5,2.8,3.3,3.9,5.2v.2c1.3,2.1,2.1,4.3,2.6,6.6v.3c.7,3.1.7,6.7,0,9.7v.3c-1,4.1-3,7.6-5.8,10.6-.2.2-.4.5-.6.7-.4.5-.9.9-1.4,1.3l-.3.3c-2.5,2.1-5.5,3.7-8.6,4.7h-.3c-1.5.5-2.9.8-4.4.9-.3,0-.5,0-.8,0-3,.2-6.2.3-9.2-.5v-.2c-.2-1.2-.8-2.3-1.7-3.1-1-.7-2.2-.9-3.3-.9h-.3c-.4,0-.7,0-1.1,0-1.3,0-2.1,0-3.1-1l-.4-.3c-2-1.6-3.6-3.4-4.9-5.6v-.2c-3.3-5.3-4.1-11.7-2.6-17.7.8-3.1,2.2-6.1,4.2-8.6l.3-.3c2.6-3.2,5.8-6,9.8-7.3,9.8-2.8,15.3-2.4,25.1,2.2Z"/>
          <path class="st13" d="M154.1,65.3h.3c.3,0,.6,0,.9,0q3.5,0,4.8,1.2c.7.8,1.4,1.7,1.4,2.7v.4c.4,0,.8.1,1.2.2h.3c1.4.2,2.7.3,4.1.3h.5c1.7,0,3.4-.1,5.1-.2.8,0,1.7-.1,2.5-.2h.3c1.4,0,2.8-.2,4.2-.2.2,0,.4,0,.6,0,1.1,0,2.3-.1,3.4-.1h.3c1.2,0,2.3.4,3.2,1.3,1,1,1.3,2,1.3,3.4-.1,1.1-.6,2.1-1.4,2.9-.8.6-1.6.9-2.5,1.2h-.4c-.4.3-.9.4-1.3.5-.3.1-.6.2-1,.3-2.5.8-5,1.6-7.5,2.3-.3,0-.5.2-.8.2l-.5.2h-.3c-.4.2-.8.3-1.2.5-1.5.5-3.1.9-4.6,1.5-.8.3-1.7.5-2.6.7h-.3c-1.6.5-3.2.6-4.9.5-.3,0-.7,0-1,0-1.3,0-2.5,0-3.8,0-2,0-4-.1-6-.2h0c-.7,0-1.5,0-2.2,0-.8,0-1.5,0-2.3,0-.3,0-.6,0-.9,0q-2.3,0-4.2,1.1c-.2.1-.4.3-.6.4l-.2.2c-.9.5-1.6.6-2.6.6h-.4c-.4,0-.8,0-1.3,0-.3,0-.6,0-.9,0-.6,0-1.2,0-1.8,0-.8,0-1.6,0-2.4,0-.6,0-1.2,0-1.8,0-.3,0-.6,0-.9,0-.4,0-.8,0-1.2,0h-.4c-.9,0-1.8-.2-2.6-.8-.6-.8-.9-1.4-.9-2.5,0-.5.3-.9.5-1.3v-.3c.6-.9,1.2-1.8,1.7-2.7.1-.2.2-.3.3-.5.3-.4.5-.9.8-1.3.2-.4.4-.7.6-1.1h0c.2-.4.5-.8.7-1.2.4-.6.8-1.3,1.1-1.9l.2-.4c.1-.2.3-.5.4-.7.4-.6.7-1.2,1.2-1.8l.2-.3c1.3-2,3.4-3.7,5.7-4.4,8.3-.8,12.7-.8,19.7-.4Z"/>
          <path class="st19" d="M168.5,33.1c.4.2.7.5.9.9,0,.4,0,.7,0,1.1,0,.1,0,.2,0,.3,0,.2,0,.5,0,.7.2,0,.3,0,.5,0,.6,0,1.1.3,1.7.6,0,0,.2,0,.3.1q1.1.6,1.5,1.1c0,.4,0,.8,0,1.2-.3.4-.5.6-.9.7-.8,0-1.3,0-2-.4q-.8-.4-1.5-.7c0,.1,0,.3,0,.4,0,1.6-.3,3.2-.5,4.9,0,0,.1,0,.2,0,1.8.6,3.3,1.5,4.3,3.2.4,1.1.3,2.3,0,3.4-.1.3-.2.5-.4.7,0,.2,0,.3,0,.5-.1.5-.4.8-.9,1.1-2.3,1.3-4.6,1.8-7.2,1.1-1.9-.6-3.5-1.4-4.7-3-.2-.4-.2-.7-.1-1.1.2-.3.4-.6.8-.7q.8-.1,1.3.2c.3.2.5.5.8.7.7.7,1.4,1.1,2.4,1.5,0-.1,0-.2,0-.3,0-1.1.2-2.2.3-3.3q0-.2,0-.5c0-.4,0-.8.1-1.2-.1,0-.3-.1-.4-.2-1-.5-1.9-.9-2.6-1.7q-.1-.1-.2-.2c-.9-1-1.4-2.2-1.3-3.6.1-1.4.7-2.6,1.8-3.6,1.2-1,2.5-1.4,4.1-1.4q0-.2,0-.3t.6-2c.5-.3.9-.4,1.5-.2Z"/>
          <path class="st4" d="M184.1,27.2l-.3-.3-.8-.4-3.1-1.3-1.5-.6-1.8-.6-1.5-.5,1.7,1.2,1.8,1.2c3.3,2,4.8,3.3,6.7,5.8l.2.2c.8.9,1.4,1.9,2,3,2.8,5.1,3.9,11.5,2.2,17.2,0,.2-.1.4-.2.6-.8,2.7-2,5.3-3.7,7.6l-.2.3c-.9,1.2-1.8,2.2-2.8,3.2l-.2.2c-3.7,3.5-8.4,5.5-13.4,6.1h-.3v.2c2.4,0,4.8,0,7.1-.8h.3c3.1-1.1,6.1-2.7,8.6-4.8l.3-.3c.5-.4,1-.8,1.4-1.3.2-.2.4-.5.6-.7,2.8-3,4.8-6.6,5.7-10.6v-.3c.7-3,.8-6.7.1-9.7v-.3c-.6-2.3-1.4-4.6-2.6-6.6v-.2c-1.2-1.9-2.5-3.7-4.1-5.2l-.3-.3c-.3-.3-.6-.6-.9-.9l-.3-.3-.3-.3-.3-.3Z"/>
          <path class="st11" d="M153.8,45.9c.8.5,1.4,1.3,1.7,2.2.1,1.2,0,2-.6,3-.6.7-1.4,1-2.3,1.1-1,0-1.8-.2-2.5-.8-.9-1.1-1.2-1.9-1-3.3.3-.9.9-1.6,1.8-2.1.9-.4,2.2-.5,3.1,0Z"/>
          <path class="st12" d="M182.5,48.6c.8.5,1.2,1.1,1.5,2,.2,1.1,0,2-.6,2.9-.6.7-1.2,1.1-2.1,1.2-1.1,0-1.9,0-2.8-.8-.6-.6-1-1.5-1.1-2.4,0-.9.3-1.7,1-2.4,1.1-1,2.8-1.3,4.1-.5Z"/>
          <path class="st17" d="M161.2,49.2c.4.2.7.6,1,.9,1.3,1.3,2.8,1.8,4.6,1.8,1.2,0,2.2-.4,3.1-1q.7-.5,1.2-.4c.6.2.8.4,1.1.9,0,.5,0,.8-.2,1.2-.3.4-.7.6-1.1.8q-.1,0-.2.1c-2.3,1.1-4.5,1.3-7,.5-1.6-.6-3.5-1.5-4.3-3.1,0-.5,0-.8.2-1.2.4-.4.9-.5,1.5-.4Z"/>
          <path class="st5" d="M161.5,70.9c.3.1.5.2.7.5.3.8.1,1.7-.2,2.5-.6,1.1-1.6,1.9-2.8,2.3-1,.3-2.1.2-3.2.2-.2,0-.5,0-.7,0-.5,0-.9,0-1.4,0-.6,0-1.2,0-1.8,0-.5,0-.9,0-1.4,0-.2,0-.4,0-.7,0-.3,0-.6,0-.9,0,0,0-.2,0-.3,0-.5,0-.7,0-1-.4-.3-.5-.2-.7,0-1.2q.1-.2.4-.4c.3,0,.6,0,.9,0,0,0,.2,0,.3,0,.2,0,.4,0,.6,0,.3,0,.6,0,1,0,.7,0,1.4,0,2.1,0,.8,0,1.6,0,2.4,0,.3,0,.6,0,.9,0,1.6,0,2.9-.2,4.1-1.2.6-.6.9-1.4,1.2-2.2Z"/>
          <path class="st16" d="M157,41.6c.5.3.9.6,1.2,1.1.2.8.2,1.6-.1,2.3-.3.5-.7.9-1.3,1.1-.5,0-.8,0-1.3-.2-.6-.5-.9-1-1-1.8,0-.7.1-1.3.5-1.9.7-.6,1.1-.7,2-.6Z"/>
          <path class="st16" d="M177.8,43.6c.6.2.8.6,1.1,1.1.2.7.3,1.6,0,2.3-.3.5-.7.9-1.3,1.1-.5,0-.8,0-1.3-.2-.5-.5-.9-1-1-1.7,0-.8,0-1.3.5-2,.7-.6,1.1-.7,2-.6Z"/>
          <path class="st9" d="M167.9,47.1c.2,0,.4.1.5.2,0,0,.2,0,.3,0,.5.2,1.1.5,1.4,1,.2,1.1-.2,1.9-.7,2.9-.6.6-1.3.7-2,.8,0-.7,0-1.3.1-1.9,0,0,0-.2,0-.3,0-.3,0-.5.1-.8,0-.2,0-.4,0-.5,0-.4.1-.9.2-1.3Z"/>
          <path class="st9" d="M166,38.6c-.1,1.5-.3,3.1-.5,4.6-.5-.1-.8-.3-1.2-.6,0,0-.1-.1-.2-.2-.5-.6-.5-1.2-.5-1.9.1-.7.4-1,.9-1.4.5-.3.9-.5,1.5-.5Z"/>
          <path class="st3" d="M164.4,54.1q.7.1,1.5.2h0c.4.2.7.2,1.1.2,0,.3,0,.6,0,1,0,0,0,.2,0,.3,0,.7-.2,1-.7,1.5-.5.2-.8.2-1.3.1-.3-.2-.6-.4-.8-.7,0-.3,0-.6,0-.9s0-.3,0-.5q0-.5.1-1.2Z"/>
          <path class="st6" d="M143.5,43.9h.1c0,0,0,.2,0,.3,0,.4,0,.8,0,1.2,0,.1,0,.3,0,.4,0,.1,0,.3,0,.4,0,.1,0,.2,0,.4,0,.3,0,.6.1,1,0,.3,0,.7,0,1,0,0,0,.2,0,.3,0,.2,0,.5,0,.7h-.1c0-.6-.1-1.2-.1-1.8v-.3c0-.2,0-.4,0-.5,0-.3,0-.5,0-.8v-.5c0-.2,0-.3,0-.5,0-.4,0-.8.1-1.2Z"/>
          <path class="st8" d="M145.5,36.9c.2.3.1.5,0,.8,0,0,0,.2,0,.3q-.1.3-.4.4c0,0-.2,0-.2,0,0-.6.3-1.1.6-1.6Z"/>
          <path class="st14" d="M171.7,69.5c.3,0,.6,0,.9.1v.2c.2,0,.3,0,.5.1-.5,0-1,0-1.5-.1,0-.1,0-.2.1-.4Z"/>
          <path class="st15" d="M160,49.4c.1,0,.2,0,.4.1q-.2.2-.4.5h-.3v.6h-.1q0-.8.2-1.1c0,0,.1,0,.2-.1Z"/>
          <path class="st18" d="M150.2,30c0,0,0,.2.1.2-.1.3-.2.5-.5.6,0,0-.2,0-.3.1q-.1,0-.3.1c.2-.5.5-.8.9-1.1Z"/>
          <path class="st7" d="M146.8,34.4h.4v.4q-.3.3-.6.5t.3-.9Z"/>
        </g>
      </g>
    </g>
  </g>
</svg>