<svg width="318" height="160" viewBox="0 0 318 160" fill="none" xmlns="http://www.w3.org/2000/svg">
<g filter="url(#filter0_d_303_6295)">
<g clip-path="url(#clip0_303_6295)">
<rect width="318" height="160" rx="18" fill="#875AEF"/>
<path d="M177.277 50.5214C180.081 47.4075 184.571 46.4531 188.399 48.1574L250.223 75.6837C254.051 77.388 256.346 81.3634 255.908 85.5306L248.834 152.835C248.396 157.002 245.324 160.414 241.226 161.285L175.029 175.355C170.93 176.226 166.737 174.359 164.642 170.73L130.804 112.122C128.709 108.493 129.189 103.928 131.993 100.814L177.277 50.5214Z" fill="#7645E6" fill-opacity="0.4"/>
<path d="M266.262 78.1447C266.745 73.9824 269.853 70.6043 273.96 69.7771L340.304 56.4171C344.412 55.5899 348.585 57.5018 350.641 61.1529L383.848 120.121C385.904 123.772 385.376 128.332 382.539 131.415L336.718 181.22C333.881 184.303 329.381 185.209 325.572 183.464L264.046 155.277C260.237 153.532 257.984 149.532 258.467 145.37L266.262 78.1447Z" fill="#7645E6" fill-opacity="0.4"/>
<path d="M198.71 -36.6232C199.172 -40.7878 202.264 -44.1811 206.367 -45.0282L272.645 -58.7108C276.749 -59.558 280.931 -57.6664 283.005 -54.0253L316.499 4.78039C318.573 8.42142 318.066 12.9837 315.244 16.0812L269.667 66.1077C266.845 69.2051 262.349 70.1332 258.531 68.4065L196.869 40.5188C193.051 38.7921 190.779 34.8034 191.242 30.6388L198.71 -36.6232Z" fill="#996CFF" fill-opacity="0.4"/>
<path d="M27.4484 69.8905C30.3127 66.8321 34.8206 65.966 38.6143 67.745L113.456 102.841C117.25 104.62 119.467 108.64 118.947 112.798L108.696 194.821C108.176 198.979 105.038 202.33 100.924 203.12L19.7465 218.718C15.6315 219.509 11.4755 217.56 9.45194 213.89L-30.4673 141.506C-32.4908 137.837 -31.9216 133.282 -29.0573 130.224L27.4484 69.8905Z" fill="#7645E6" fill-opacity="0.4"/>
<path d="M56.0466 -10.0251C56.509 -14.1897 59.6005 -17.5829 63.7041 -18.4301L129.982 -32.1126C134.086 -32.9598 138.268 -31.0682 140.342 -27.4272L173.836 31.3785C175.909 35.0196 175.403 39.5819 172.581 42.6793L127.004 92.7058C124.182 95.8033 119.686 96.7313 115.868 95.0046L54.2059 67.117C50.388 65.3903 48.1161 61.4016 48.5785 57.2369L56.0466 -10.0251Z" fill="#996CFF" fill-opacity="0.4"/>
<g clip-path="url(#clip1_303_6295)">
<path d="M183.495 26.7519L183.726 26.931C184.516 27.5505 185.275 28.1934 186.01 28.876L186.339 29.1781C187.928 30.6914 189.179 32.4901 190.284 34.3738L190.419 34.6008C191.625 36.6527 192.424 38.927 192.924 41.246L192.986 41.5279C193.628 44.5824 193.596 48.197 192.924 51.2419L192.852 51.581C191.97 55.6428 189.956 59.1774 187.139 62.2159C186.92 62.4546 186.711 62.6984 186.505 62.948C186.09 63.4306 185.617 63.8291 185.13 64.2365L184.805 64.5211C182.332 66.6496 179.321 68.2633 176.204 69.2345L175.912 69.3266C174.446 69.7774 173.005 69.9866 171.476 70.0887C171.214 70.1066 170.952 70.1285 170.69 70.1511C167.646 70.3917 164.464 70.4045 161.497 69.6093L161.464 69.3755C161.264 68.1772 160.741 67.0997 159.778 66.3143C158.781 65.6241 157.625 65.4584 156.436 65.4528L156.161 65.4515C155.787 65.4513 155.412 65.4532 155.038 65.4598C153.769 65.4788 152.92 65.3699 151.943 64.4864L151.579 64.2165C149.597 62.6279 147.959 60.7942 146.663 58.6138L146.518 58.3694C143.386 53.0574 142.526 46.6921 144.049 40.7147C144.884 37.6285 146.268 34.6172 148.297 32.1247L148.549 31.8026C151.114 28.5771 154.362 25.7864 158.354 24.5028C168.191 21.6754 173.696 22.1425 183.495 26.7519Z" fill="#FFC832"/>
<path d="M154.143 65.2869L154.417 65.291C154.706 65.2953 154.994 65.2972 155.282 65.2986C158.781 65.3157 158.781 65.3157 160.114 66.4856C160.837 67.2429 161.481 68.1371 161.509 69.2062L161.497 69.6093C161.908 69.6698 162.319 69.7295 162.73 69.789L163.077 69.84C164.444 70.0369 165.787 70.1335 167.169 70.1326L167.646 70.1323C169.365 70.1215 171.076 70.0115 172.79 69.8945C173.638 69.8369 174.485 69.7854 175.332 69.7343L175.586 69.719C176.976 69.6353 178.368 69.5576 179.759 69.4857C179.972 69.4747 180.185 69.4634 180.398 69.4519C181.527 69.3914 182.654 69.3477 183.785 69.339L184.082 69.3346C185.31 69.3329 186.39 69.7447 187.271 70.6099C188.231 71.6301 188.577 72.5889 188.558 73.9865C188.456 75.0889 187.945 76.0934 187.141 76.8564C186.364 77.4612 185.578 77.7998 184.643 78.0902L184.208 78.2297C183.778 78.3673 183.347 78.5022 182.916 78.6367C182.596 78.7369 182.275 78.8377 181.954 78.9385C179.451 79.7258 176.943 80.5018 174.436 81.2762C174.178 81.3559 173.92 81.4357 173.662 81.5154L173.147 81.6743L172.892 81.7534C172.477 81.8816 172.062 82.0096 171.647 82.1374C170.119 82.6078 168.593 83.0799 167.077 83.589C166.233 83.8724 165.392 84.136 164.522 84.3299L164.221 84.4019C162.58 84.7807 160.998 84.8907 159.321 84.8788C158.995 84.8766 158.669 84.8763 158.343 84.8763C157.076 84.8736 155.813 84.8356 154.548 84.7765C152.546 84.6841 150.542 84.6546 148.538 84.6251L148.483 84.6243C147.735 84.6131 146.987 84.5996 146.239 84.5817C145.466 84.5633 144.694 84.55 143.921 84.54C143.625 84.5353 143.33 84.5289 143.034 84.5206C140.756 84.4469 140.756 84.4469 138.869 85.6028C138.672 85.7434 138.473 85.8819 138.272 86.0167L138.031 86.187C137.153 86.683 136.406 86.7825 135.415 86.7778L135.027 86.7804C134.606 86.7827 134.184 86.7822 133.763 86.7815C133.469 86.7821 133.175 86.7827 132.88 86.7835C132.264 86.7846 131.648 86.7843 131.032 86.7831C130.245 86.7816 129.458 86.7842 128.67 86.7878C128.063 86.7901 127.455 86.7901 126.848 86.7893C126.557 86.7893 126.267 86.7901 125.977 86.7916C125.57 86.7935 125.164 86.7922 124.757 86.79L124.398 86.7937C123.457 86.7834 122.593 86.5761 121.844 85.9864C121.214 85.2075 120.921 84.5384 120.95 83.5239C121.032 83.023 121.221 82.6214 121.455 82.177L121.591 81.9134C122.079 80.9794 122.617 80.0765 123.164 79.1757C123.269 79.0013 123.374 78.8268 123.479 78.6523C123.74 78.2176 124.003 77.7835 124.266 77.3495C124.478 76.9984 124.69 76.6471 124.902 76.2958L124.93 76.2497C125.164 75.8625 125.397 75.4753 125.632 75.0884C126.009 74.4638 126.385 73.838 126.756 73.2094L126.98 72.8312C127.118 72.5973 127.255 72.3632 127.392 72.1288C127.755 71.5143 128.14 70.9352 128.561 70.359L128.75 70.0408C130.004 68.0023 132.123 66.3098 134.444 65.6677C142.765 64.908 147.096 64.8253 154.143 65.2869Z" fill="#FEDCBB"/>
<path d="M168.537 33.1242C168.923 33.3379 169.216 33.6002 169.417 33.9988C169.405 34.3598 169.387 34.7165 169.362 35.0765C169.355 35.1767 169.348 35.2769 169.342 35.3801C169.325 35.6277 169.308 35.8753 169.291 36.1229C169.445 36.139 169.6 36.1552 169.759 36.1717C170.383 36.2498 170.87 36.4661 171.428 36.7477C171.527 36.7971 171.627 36.8466 171.729 36.8975C172.821 37.4683 172.821 37.4683 173.188 37.9972C173.275 38.4311 173.279 38.8133 173.188 39.2467C172.913 39.5995 172.706 39.7983 172.308 39.9964C171.523 40.0549 171.028 39.9316 170.336 39.5746C169.574 39.1975 169.574 39.1975 168.788 38.8718C168.783 38.9994 168.779 39.1269 168.774 39.2584C168.703 40.8912 168.506 42.5008 168.285 44.1197C168.359 44.1427 168.433 44.1658 168.508 44.1896C170.308 44.7671 171.855 45.7065 172.811 47.3683C173.254 48.4422 173.124 49.6449 172.811 50.7419C172.689 50.9938 172.564 51.2439 172.434 51.4916C172.403 51.6579 172.374 51.8245 172.347 51.9914C172.216 52.5342 171.953 52.7583 171.493 53.0613C169.17 54.3788 166.896 54.8593 164.298 54.1561C162.393 53.5941 160.84 52.7073 159.611 51.1168C159.417 50.7294 159.449 50.4197 159.486 49.9923C159.711 49.6482 159.869 49.4267 160.24 49.2426C161.07 49.1288 161.07 49.1288 161.5 49.407C161.76 49.6355 162.007 49.8723 162.251 50.1172C162.981 50.8246 163.697 51.2333 164.64 51.6166C164.646 51.5119 164.653 51.4072 164.66 51.2993C164.735 50.199 164.84 49.1049 164.962 48.0087C164.988 47.7702 164.988 47.7702 165.015 47.527C165.057 47.1409 165.1 46.7548 165.143 46.3687C165.009 46.3067 164.875 46.2447 164.738 46.1808C163.764 45.7194 162.873 45.2879 162.126 44.4945C162.022 44.3887 162.022 44.3887 161.916 44.2807C160.971 43.2581 160.555 42.0635 160.595 40.6831C160.695 39.2728 161.316 38.1098 162.346 37.1303C163.515 36.1553 164.884 35.6943 166.4 35.7481C166.404 35.5853 166.404 35.5853 166.409 35.4191C166.481 33.9655 166.481 33.9655 167.028 33.3741C167.534 33.0391 167.942 33.0225 168.537 33.1242Z" fill="#EE9E13"/>
<path d="M184.093 27.1736L183.8 26.9188L182.988 26.4918L179.9 25.1935L178.357 24.6033L176.575 24.0131L175.032 23.541L176.694 24.7213L178.475 25.9017C181.804 27.9378 183.23 29.2154 185.216 31.6667L185.382 31.8748C186.132 32.8148 186.816 33.7804 187.409 34.8267C190.22 39.9562 191.281 46.2902 189.646 51.9896C189.582 52.1988 189.518 52.4084 189.458 52.619C188.686 55.3324 187.415 57.8915 185.744 60.1747L185.507 60.488C184.647 61.6426 183.729 62.6913 182.681 63.6821L182.49 63.8617C178.833 67.3181 174.101 69.3992 169.094 69.9558L168.788 69.9842V70.1091C171.221 70.1589 173.574 70.0457 175.913 69.3266L176.205 69.2345C179.321 68.2633 182.333 66.6496 184.806 64.5211L185.13 64.2365C185.618 63.8291 186.091 63.4306 186.505 62.948C186.712 62.6984 186.92 62.4546 187.139 62.2159C189.957 59.1773 191.971 55.6427 192.852 51.581L192.924 51.2418C193.596 48.197 193.628 44.5823 192.986 41.5279L192.924 41.2459C192.425 38.927 191.625 36.6526 190.419 34.6008L190.284 34.3738C189.18 32.4901 187.928 30.6913 186.339 29.1781L186.01 28.876C185.698 28.5866 185.385 28.3004 185.065 28.0204L184.753 27.7515L184.422 27.4552L184.093 27.1736Z" fill="#EB940E"/>
<path d="M153.765 45.9314C154.569 46.4242 155.21 47.2175 155.462 48.118C155.569 49.2847 155.478 50.1555 154.818 51.1402C154.229 51.7915 153.379 52.1881 152.51 52.2711C151.489 52.2989 150.759 52.1082 149.962 51.4604C149.076 50.3836 148.793 49.5187 148.925 48.118C149.225 47.1761 149.837 46.4926 150.685 45.9939C151.553 45.5733 152.872 45.5373 153.765 45.9314Z" fill="#FEA02F"/>
<path d="M182.49 48.6179C183.259 49.1028 183.727 49.7538 183.998 50.6171C184.162 51.695 184.021 52.6033 183.37 53.4909C182.757 54.1518 182.193 54.5646 181.278 54.6662C180.158 54.7085 179.355 54.6185 178.467 53.8657C177.826 53.2453 177.438 52.3882 177.398 51.4995C177.442 50.5933 177.746 49.8043 178.365 49.1333C179.502 48.12 181.128 47.8477 182.49 48.6179Z" fill="#FE9F2F"/>
<path d="M161.245 49.2426C161.626 49.4886 161.932 49.7979 162.251 50.1173C163.561 51.3876 165.059 51.9181 166.876 51.9126C168.061 51.879 169.043 51.5582 170.021 50.8904C170.717 50.423 170.717 50.423 171.223 50.4531C171.792 50.6579 171.999 50.8502 172.307 51.3668C172.387 51.8704 172.387 52.1205 172.104 52.5494C171.762 52.9113 171.402 53.1398 170.964 53.3659C170.841 53.4297 170.841 53.4297 170.715 53.4948C168.429 54.6307 166.191 54.7687 163.759 53.9907C162.11 53.4203 160.303 52.4932 159.485 50.867C159.436 50.3445 159.429 50.0786 159.721 49.6331C160.169 49.1879 160.631 49.1121 161.245 49.2426Z" fill="#36251E"/>
<path d="M161.497 70.8586C161.802 70.9798 161.969 71.0634 162.154 71.3379C162.453 72.1704 162.268 73.0251 161.914 73.8096C161.316 74.8835 160.342 75.7014 159.157 76.0613C158.114 76.3284 157.051 76.2905 155.982 76.29C155.754 76.2909 155.526 76.2919 155.298 76.2929C154.823 76.2946 154.348 76.2948 153.873 76.294C153.265 76.2933 152.656 76.2971 152.048 76.3022C151.578 76.3054 151.109 76.3058 150.64 76.3053C150.415 76.3055 150.191 76.3067 149.966 76.3089C149.653 76.3117 149.34 76.3105 149.028 76.3083C148.935 76.31 148.843 76.3116 148.748 76.3133C148.278 76.3056 148.082 76.2644 147.733 75.9426C147.474 75.4844 147.53 75.2306 147.669 74.7321C147.807 74.5213 147.807 74.5213 148.046 74.3572C148.364 74.3205 148.651 74.3064 148.969 74.3091C149.063 74.3085 149.156 74.3078 149.253 74.3071C149.456 74.3059 149.66 74.3055 149.864 74.3059C150.187 74.3065 150.51 74.3047 150.833 74.3023C151.52 74.2977 152.207 74.296 152.894 74.2947C153.687 74.2932 154.481 74.2905 155.274 74.2847C155.591 74.2831 155.907 74.2836 156.224 74.2842C157.781 74.2789 159.116 74.1077 160.322 73.0506C160.922 72.4269 161.199 71.6572 161.497 70.8586Z" fill="#F1C08D"/>
<path d="M156.971 41.6206C157.508 41.8726 157.866 42.1897 158.141 42.7222C158.385 43.4842 158.351 44.3296 158.016 45.0567C157.698 45.5961 157.319 45.9201 156.719 46.1188C156.2 46.1675 155.907 46.1532 155.439 45.9158C154.832 45.4069 154.516 44.8861 154.427 44.1099C154.402 43.3809 154.534 42.8463 154.96 42.2454C155.611 41.6442 156.099 41.5183 156.971 41.6206Z" fill="#36251D"/>
<path d="M177.839 43.62C178.418 43.8501 178.661 44.2173 178.971 44.7446C179.221 45.4919 179.222 46.3282 178.884 47.0483C178.568 47.593 178.192 47.9181 177.588 48.1182C177.068 48.1669 176.776 48.1526 176.307 47.9152C175.761 47.4569 175.374 46.9399 175.295 46.2191C175.272 45.4485 175.37 44.8788 175.828 44.2448C176.487 43.6368 176.962 43.5383 177.839 43.62Z" fill="#36251D"/>
<path d="M167.908 47.1184C168.088 47.175 168.268 47.2325 168.447 47.2902C168.547 47.3221 168.647 47.354 168.75 47.3869C169.295 47.5875 169.805 47.916 170.171 48.3679C170.372 49.4645 170.017 50.3172 169.44 51.2261C168.865 51.7815 168.182 51.9126 167.405 51.9914C167.395 51.3304 167.427 50.7038 167.515 50.0469C167.526 49.9623 167.537 49.8778 167.549 49.7907C167.584 49.5246 167.62 49.2586 167.657 48.9926C167.681 48.8106 167.705 48.6285 167.729 48.4465C167.788 48.0037 167.848 47.561 167.908 47.1184Z" fill="#FECA33"/>
<path d="M166.022 38.6218C165.889 40.1684 165.745 41.7088 165.519 43.2449C165.038 43.103 164.671 42.9678 164.293 42.6358C164.222 42.5743 164.15 42.5128 164.075 42.4494C163.546 41.8829 163.558 41.2745 163.57 40.5297C163.673 39.869 163.99 39.5202 164.513 39.1216C165.036 38.7831 165.39 38.6218 166.022 38.6218Z" fill="#FECA33"/>
<path d="M164.388 54.1155C165.134 54.2392 165.134 54.2392 165.896 54.3654C165.896 54.4066 165.896 54.4478 165.896 54.4903C166.269 54.5316 166.643 54.5728 167.027 54.6153C167.023 54.9333 167.015 55.2502 167.004 55.568C167.003 55.6571 167.002 55.7461 167.002 55.8379C166.972 56.5463 166.788 56.8713 166.273 57.3641C165.82 57.5143 165.492 57.5299 165.016 57.4891C164.67 57.2647 164.447 57.1077 164.262 56.7394C164.249 56.4376 164.246 56.1355 164.246 55.8335C164.246 55.6705 164.245 55.5075 164.245 55.3396C164.262 54.8652 164.262 54.8652 164.388 54.1155Z" fill="#ED9C11"/>
<path d="M143.521 43.8699C143.562 43.8699 143.604 43.8699 143.647 43.8699C143.646 43.9574 143.645 44.045 143.645 44.1352C143.642 44.5336 143.64 44.9319 143.639 45.3302C143.638 45.468 143.637 45.6058 143.635 45.7478C143.635 45.881 143.635 46.0143 143.634 46.1517C143.634 46.274 143.633 46.3964 143.632 46.5224C143.646 46.8598 143.705 47.1633 143.772 47.4934C143.762 47.8422 143.744 48.1846 143.717 48.532C143.711 48.6246 143.704 48.7171 143.697 48.8124C143.681 49.0392 143.664 49.2659 143.647 49.4926C143.605 49.4926 143.564 49.4926 143.521 49.4926C143.422 48.884 143.379 48.3005 143.378 47.6842C143.378 47.5985 143.378 47.5128 143.378 47.4244C143.378 47.2446 143.378 47.0647 143.379 46.8848C143.379 46.6112 143.379 46.3376 143.378 46.064C143.378 45.8883 143.378 45.7125 143.378 45.5367C143.379 45.3787 143.379 45.2206 143.379 45.0578C143.394 44.6503 143.443 44.2698 143.521 43.8699Z" fill="#FBD716"/>
<path d="M145.532 36.8728C145.693 37.1931 145.642 37.3376 145.571 37.685C145.553 37.7842 145.534 37.8834 145.515 37.9856C145.406 38.2472 145.406 38.2472 145.144 38.4073C145.065 38.437 144.985 38.4666 144.903 38.4971C144.98 37.8899 145.246 37.405 145.532 36.8728Z" fill="#F7D31E"/>
<path d="M171.679 69.4844C171.97 69.5256 172.26 69.5668 172.559 69.6093C172.559 69.6918 172.559 69.7743 172.559 69.8592C172.725 69.9005 172.891 69.9417 173.062 69.9842C172.539 69.9944 172.063 69.982 171.554 69.8592C171.595 69.7355 171.637 69.6118 171.679 69.4844Z" fill="#EA9617"/>
<path d="M159.988 49.3677C160.113 49.4089 160.237 49.4501 160.365 49.4926C160.192 49.7425 160.192 49.7425 159.988 49.9924C159.905 49.9924 159.822 49.9924 159.737 49.9924C159.737 50.1986 159.737 50.4048 159.737 50.6172C159.695 50.6172 159.654 50.6172 159.611 50.6172C159.565 49.8021 159.565 49.8021 159.8 49.5004C159.862 49.4566 159.924 49.4128 159.988 49.3677Z" fill="#25181A"/>
<path d="M150.183 30.0005C150.224 30.083 150.266 30.1654 150.308 30.2504C150.195 30.579 150.109 30.7196 149.806 30.8986C149.723 30.9321 149.64 30.9656 149.554 31.0001C149.43 31.0619 149.43 31.0619 149.303 31.125C149.498 30.6481 149.81 30.3513 150.183 30.0005Z" fill="#FCD61A"/>
<path d="M146.79 34.3738C146.914 34.3738 147.038 34.3738 147.167 34.3738C147.167 34.4975 147.167 34.6212 147.167 34.7486C146.852 35.022 146.852 35.022 146.538 35.2484C146.648 34.5143 146.648 34.5143 146.79 34.3738Z" fill="#FCCE23"/>
</g>
<path d="M36.0633 110.432V120.544H41.1513V122H34.4953V110.432H36.0633ZM45.6584 122.192C43.3544 122.192 41.7704 120.528 41.7704 118.096C41.7704 115.648 43.3224 113.952 45.5944 113.952C47.8184 113.952 49.2744 115.488 49.2744 117.808V118.368L43.2264 118.384C43.3384 120.032 44.2024 120.944 45.6904 120.944C46.8584 120.944 47.6264 120.464 47.8824 119.568H49.2904C48.9064 121.248 47.5944 122.192 45.6584 122.192ZM45.5944 115.216C44.2824 115.216 43.4504 116 43.2584 117.376H47.7704C47.7704 116.08 46.9224 115.216 45.5944 115.216ZM54.4973 118.096C54.4973 115.648 56.0493 113.952 58.3373 113.952C60.3053 113.952 61.6813 115.072 61.9533 116.816H60.4493C60.1933 115.824 59.3933 115.296 58.3853 115.296C56.9613 115.296 55.9853 116.384 55.9853 118.08C55.9853 119.76 56.8973 120.848 58.3213 120.848C59.3933 120.848 60.1933 120.288 60.4653 119.36H61.9693C61.6653 121.056 60.2093 122.192 58.3213 122.192C56.0173 122.192 54.4973 120.56 54.4973 118.096ZM67.8761 114.112V115.488H67.2041C65.7801 115.488 64.9001 116.352 64.9001 117.856V122H63.3961V114.192H64.8041L64.9001 115.376C65.2201 114.56 66.0041 114.016 67.0761 114.016C67.3481 114.016 67.5721 114.048 67.8761 114.112ZM74.1575 111.136L72.7815 113.264H71.6135L72.6855 111.136H74.1575ZM72.2215 122.192C69.9175 122.192 68.3335 120.528 68.3335 118.096C68.3335 115.648 69.8855 113.952 72.1575 113.952C74.3815 113.952 75.8375 115.488 75.8375 117.808V118.368L69.7895 118.384C69.9015 120.032 70.7655 120.944 72.2535 120.944C73.4215 120.944 74.1895 120.464 74.4455 119.568H75.8535C75.4695 121.248 74.1575 122.192 72.2215 122.192ZM72.1575 115.216C70.8455 115.216 70.0135 116 69.8215 117.376H74.3335C74.3335 116.08 73.4855 115.216 72.1575 115.216ZM80.4934 122.192C78.2214 122.192 76.8454 120.496 76.8454 118.112C76.8454 115.712 78.2374 113.952 80.5574 113.952C81.7574 113.952 82.7654 114.48 83.2934 115.44V110.224H84.7814V122H83.4374L83.3094 120.576C82.7974 121.648 81.7414 122.192 80.4934 122.192ZM80.7974 120.832C82.3334 120.832 83.2774 119.696 83.2774 118.064C83.2774 116.464 82.3334 115.312 80.7974 115.312C79.2614 115.312 78.3654 116.464 78.3654 118.064C78.3654 119.68 79.2614 120.832 80.7974 120.832ZM87.5271 112.32C86.9831 112.32 86.5351 111.872 86.5351 111.328C86.5351 110.768 86.9831 110.336 87.5271 110.336C88.0711 110.336 88.5191 110.768 88.5191 111.328C88.5191 111.872 88.0711 112.32 87.5271 112.32ZM86.7911 122V114.176H88.2951V122H86.7911ZM92.5266 122H91.0226V115.44H89.4866V114.176H91.0226V111.728H92.5266V114.176H94.0626V115.44H92.5266V122ZM97.024 121.376C97.024 122.528 96.16 123.488 95.024 123.632V122.96C95.68 122.848 96.144 122.416 96.144 121.92C96.032 121.984 95.904 122.016 95.712 122.016C95.184 122.016 94.736 121.632 94.736 121.04C94.736 120.4 95.168 119.936 95.808 119.936C96.48 119.936 97.024 120.496 97.024 121.376ZM102.733 118.096C102.733 115.648 104.285 113.952 106.573 113.952C108.541 113.952 109.917 115.072 110.189 116.816H108.685C108.429 115.824 107.629 115.296 106.621 115.296C105.197 115.296 104.221 116.384 104.221 118.08C104.221 119.76 105.133 120.848 106.557 120.848C107.629 120.848 108.429 120.288 108.701 119.36H110.205C109.901 121.056 108.445 122.192 106.557 122.192C104.253 122.192 102.733 120.56 102.733 118.096ZM113.04 111.408L112.656 114.72H111.792L111.376 111.408C111.28 110.688 111.776 110.384 112.24 110.384C112.64 110.384 113.136 110.688 113.04 111.408ZM117.863 122.192C115.559 122.192 113.975 120.528 113.975 118.096C113.975 115.648 115.527 113.952 117.799 113.952C120.023 113.952 121.479 115.488 121.479 117.808V118.368L115.431 118.384C115.543 120.032 116.407 120.944 117.895 120.944C119.063 120.944 119.831 120.464 120.087 119.568H121.495C121.111 121.248 119.799 122.192 117.863 122.192ZM117.799 115.216C116.487 115.216 115.655 116 115.463 117.376H119.975C119.975 116.08 119.127 115.216 117.799 115.216ZM122.359 119.728H123.799C123.799 120.528 124.407 121.008 125.399 121.008C126.455 121.008 127.063 120.576 127.063 119.856C127.063 119.328 126.807 119.008 125.991 118.8L124.615 118.48C123.223 118.144 122.567 117.456 122.567 116.304C122.567 114.864 123.783 113.952 125.511 113.952C127.223 113.952 128.343 114.912 128.375 116.4H126.935C126.903 115.616 126.375 115.12 125.463 115.12C124.519 115.12 123.991 115.536 123.991 116.256C123.991 116.784 124.375 117.136 125.143 117.328L126.519 117.664C127.847 117.984 128.503 118.592 128.503 119.76C128.503 121.248 127.223 122.192 125.367 122.192C123.527 122.192 122.359 121.216 122.359 119.728ZM132.219 122H130.715V115.44H129.179V114.176H130.715V111.728H132.219V114.176H133.755V115.44H132.219V122ZM140.696 122H139.192V110.224H140.696V122ZM145.038 122.192C143.358 122.192 142.366 121.248 142.366 119.824C142.366 118.384 143.438 117.488 145.278 117.344L147.742 117.152V116.928C147.742 115.616 146.958 115.152 145.902 115.152C144.638 115.152 143.918 115.712 143.918 116.656H142.606C142.606 115.024 143.95 113.952 145.966 113.952C147.902 113.952 149.214 114.976 149.214 117.088V122H147.934L147.774 120.736C147.374 121.632 146.302 122.192 145.038 122.192ZM145.47 121.024C146.894 121.024 147.758 120.096 147.758 118.624V118.208L145.758 118.368C144.43 118.496 143.886 119.008 143.886 119.776C143.886 120.608 144.494 121.024 145.47 121.024ZM154.712 119.728H156.152C156.152 120.528 156.76 121.008 157.752 121.008C158.808 121.008 159.416 120.576 159.416 119.856C159.416 119.328 159.16 119.008 158.344 118.8L156.968 118.48C155.576 118.144 154.92 117.456 154.92 116.304C154.92 114.864 156.136 113.952 157.864 113.952C159.576 113.952 160.696 114.912 160.728 116.4H159.288C159.256 115.616 158.728 115.12 157.816 115.12C156.872 115.12 156.344 115.536 156.344 116.256C156.344 116.784 156.728 117.136 157.496 117.328L158.872 117.664C160.2 117.984 160.856 118.592 160.856 119.76C160.856 121.248 159.576 122.192 157.72 122.192C155.88 122.192 154.712 121.216 154.712 119.728ZM165.74 122.192C163.436 122.192 161.852 120.528 161.852 118.096C161.852 115.648 163.404 113.952 165.676 113.952C167.9 113.952 169.356 115.488 169.356 117.808V118.368L163.308 118.384C163.42 120.032 164.284 120.944 165.772 120.944C166.94 120.944 167.708 120.464 167.964 119.568H169.372C168.988 121.248 167.676 122.192 165.74 122.192ZM165.676 115.216C164.364 115.216 163.532 116 163.34 117.376H167.852C167.852 116.08 167.004 115.216 165.676 115.216ZM176.284 114.176H177.772V122H176.428L176.268 120.816C175.82 121.632 174.78 122.192 173.628 122.192C171.804 122.192 170.78 120.96 170.78 119.04V114.176H172.284V118.544C172.284 120.224 173.004 120.864 174.156 120.864C175.532 120.864 176.284 119.984 176.284 118.304V114.176ZM181.33 122H179.826V110.224H181.33V122ZM186.76 122.192C184.456 122.192 182.872 120.528 182.872 118.096C182.872 115.648 184.424 113.952 186.696 113.952C188.92 113.952 190.376 115.488 190.376 117.808V118.368L184.328 118.384C184.44 120.032 185.304 120.944 186.792 120.944C187.96 120.944 188.728 120.464 188.984 119.568H190.392C190.008 121.248 188.696 122.192 186.76 122.192ZM186.696 115.216C185.384 115.216 184.552 116 184.36 117.376H188.872C188.872 116.08 188.024 115.216 186.696 115.216ZM196.11 125.504V114.176H197.47L197.582 115.584C198.11 114.512 199.166 113.952 200.414 113.952C202.654 113.952 204.046 115.632 204.046 118.032C204.046 120.416 202.734 122.208 200.414 122.208C199.166 122.208 198.126 121.68 197.614 120.72V125.504H196.11ZM197.63 118.096C197.63 119.696 198.558 120.848 200.094 120.848C201.63 120.848 202.542 119.696 202.542 118.096C202.542 116.48 201.63 115.328 200.094 115.328C198.558 115.328 197.63 116.464 197.63 118.096ZM207.832 122.192C206.152 122.192 205.16 121.248 205.16 119.824C205.16 118.384 206.232 117.488 208.072 117.344L210.536 117.152V116.928C210.536 115.616 209.752 115.152 208.696 115.152C207.432 115.152 206.712 115.712 206.712 116.656H205.4C205.4 115.024 206.744 113.952 208.76 113.952C210.696 113.952 212.008 114.976 212.008 117.088V122H210.728L210.568 120.736C210.168 121.632 209.096 122.192 207.832 122.192ZM208.264 121.024C209.688 121.024 210.552 120.096 210.552 118.624V118.208L208.552 118.368C207.224 118.496 206.68 119.008 206.68 119.776C206.68 120.608 207.288 121.024 208.264 121.024ZM218.411 114.112V115.488H217.739C216.315 115.488 215.435 116.352 215.435 117.856V122H213.931V114.192H215.339L215.435 115.376C215.755 114.56 216.539 114.016 217.611 114.016C217.883 114.016 218.107 114.048 218.411 114.112ZM222.182 122H220.678V115.44H219.142V114.176H220.678V111.728H222.182V114.176H223.718V115.44H222.182V122ZM225.644 112.32C225.1 112.32 224.652 111.872 224.652 111.328C224.652 110.768 225.1 110.336 225.644 110.336C226.188 110.336 226.636 110.768 226.636 111.328C226.636 111.872 226.188 112.32 225.644 112.32ZM224.908 122V114.176H226.412V122H224.908ZM231.812 122.192C229.508 122.192 227.924 120.528 227.924 118.096C227.924 115.648 229.476 113.952 231.748 113.952C233.972 113.952 235.428 115.488 235.428 117.808V118.368L229.38 118.384C229.492 120.032 230.356 120.944 231.844 120.944C233.012 120.944 233.78 120.464 234.036 119.568H235.444C235.06 121.248 233.748 122.192 231.812 122.192ZM231.748 115.216C230.436 115.216 229.604 116 229.412 117.376H233.924C233.924 116.08 233.076 115.216 231.748 115.216ZM240.65 118.032C240.65 115.632 242.058 113.952 244.298 113.952C245.53 113.952 246.602 114.512 247.114 115.584L247.242 114.176H248.586V125.504H247.098V120.72C246.57 121.68 245.53 122.208 244.282 122.208C241.978 122.208 240.65 120.416 240.65 118.032ZM242.17 118.096C242.17 119.696 243.066 120.848 244.602 120.848C246.138 120.848 247.082 119.696 247.082 118.096C247.082 116.464 246.138 115.328 244.602 115.328C243.066 115.328 242.17 116.48 242.17 118.096ZM256.004 114.176H257.492V122H256.148L255.988 120.816C255.54 121.632 254.5 122.192 253.348 122.192C251.524 122.192 250.5 120.96 250.5 119.04V114.176H252.004V118.544C252.004 120.224 252.724 120.864 253.876 120.864C255.252 120.864 256.004 119.984 256.004 118.304V114.176ZM262.734 122.192C260.43 122.192 258.846 120.528 258.846 118.096C258.846 115.648 260.398 113.952 262.67 113.952C264.894 113.952 266.35 115.488 266.35 117.808V118.368L260.302 118.384C260.414 120.032 261.278 120.944 262.766 120.944C263.934 120.944 264.702 120.464 264.958 119.568H266.366C265.982 121.248 264.67 122.192 262.734 122.192ZM262.67 115.216C261.358 115.216 260.526 116 260.334 117.376H264.846C264.846 116.08 263.998 115.216 262.67 115.216ZM274.293 122H272.789V115.44H271.253V114.176H272.789V111.728H274.293V114.176H275.829V115.44H274.293V122ZM282.427 114.176H283.915V122H282.571L282.411 120.816C281.963 121.632 280.923 122.192 279.771 122.192C277.947 122.192 276.923 120.96 276.923 119.04V114.176H278.427V118.544C278.427 120.224 279.147 120.864 280.299 120.864C281.675 120.864 282.427 119.984 282.427 118.304V114.176ZM39.1205 144.504V133.176H40.4805L40.5925 134.584C41.1205 133.512 42.1765 132.952 43.4245 132.952C45.6645 132.952 47.0565 134.632 47.0565 137.032C47.0565 139.416 45.7445 141.208 43.4245 141.208C42.1765 141.208 41.1365 140.68 40.6245 139.72V144.504H39.1205ZM40.6405 137.096C40.6405 138.696 41.5685 139.848 43.1045 139.848C44.6405 139.848 45.5525 138.696 45.5525 137.096C45.5525 135.48 44.6405 134.328 43.1045 134.328C41.5685 134.328 40.6405 135.464 40.6405 137.096ZM51.9303 141.192C49.6263 141.192 48.0423 139.528 48.0423 137.096C48.0423 134.648 49.5943 132.952 51.8663 132.952C54.0903 132.952 55.5463 134.488 55.5463 136.808V137.368L49.4983 137.384C49.6103 139.032 50.4743 139.944 51.9623 139.944C53.1303 139.944 53.8983 139.464 54.1543 138.568H55.5623C55.1783 140.248 53.8663 141.192 51.9303 141.192ZM51.8663 134.216C50.5543 134.216 49.7223 135 49.5303 136.376H54.0423C54.0423 135.08 53.1943 134.216 51.8663 134.216ZM62.4741 133.176H63.9621V141H62.6181L62.4581 139.816C62.0101 140.632 60.9701 141.192 59.8181 141.192C57.9941 141.192 56.9701 139.96 56.9701 138.04V133.176H58.4741V137.544C58.4741 139.224 59.1941 139.864 60.3461 139.864C61.7221 139.864 62.4741 138.984 62.4741 137.304V133.176ZM66.7843 141H65.0563L67.7923 137.128L65.0723 133.176H66.8163L68.8003 136.088L70.7363 133.176H72.4483L69.7283 137.128L72.4003 141H70.6563L68.7043 138.136L66.7843 141ZM77.246 137.032C77.246 134.632 78.654 132.952 80.894 132.952C82.126 132.952 83.198 133.512 83.71 134.584L83.838 133.176H85.182V144.504H83.694V139.72C83.166 140.68 82.126 141.208 80.878 141.208C78.574 141.208 77.246 139.416 77.246 137.032ZM78.766 137.096C78.766 138.696 79.662 139.848 81.198 139.848C82.734 139.848 83.678 138.696 83.678 137.096C83.678 135.464 82.734 134.328 81.198 134.328C79.662 134.328 78.766 135.48 78.766 137.096ZM92.5998 133.176H94.0878V141H92.7438L92.5838 139.816C92.1358 140.632 91.0958 141.192 89.9438 141.192C88.1198 141.192 87.0958 139.96 87.0958 138.04V133.176H88.5998V137.544C88.5998 139.224 89.3198 139.864 90.4718 139.864C91.8478 139.864 92.5998 138.984 92.5998 137.304V133.176ZM96.8459 131.32C96.3019 131.32 95.8539 130.872 95.8539 130.328C95.8539 129.768 96.3019 129.336 96.8459 129.336C97.3899 129.336 97.8379 129.768 97.8379 130.328C97.8379 130.872 97.3899 131.32 96.8459 131.32ZM96.1099 141V133.176H97.6139V141H96.1099ZM101.845 141H100.341V134.44H98.8054V133.176H100.341V130.728H101.845V133.176H103.381V134.44H101.845V141ZM106.92 141H105.416V134.44H103.88V133.176H105.416V130.728H106.92V133.176H108.456V134.44H106.92V141ZM112.943 141.192C110.639 141.192 109.055 139.528 109.055 137.096C109.055 134.648 110.607 132.952 112.879 132.952C115.103 132.952 116.559 134.488 116.559 136.808V137.368L110.511 137.384C110.623 139.032 111.487 139.944 112.975 139.944C114.143 139.944 114.911 139.464 115.167 138.568H116.575C116.191 140.248 114.879 141.192 112.943 141.192ZM112.879 134.216C111.567 134.216 110.735 135 110.543 136.376H115.055C115.055 135.08 114.207 134.216 112.879 134.216ZM122.559 133.112V134.488H121.887C120.463 134.488 119.583 135.352 119.583 136.856V141H118.079V133.192H119.487L119.583 134.376C119.903 133.56 120.687 133.016 121.759 133.016C122.031 133.016 122.255 133.048 122.559 133.112ZM131.401 141.192C129.097 141.192 127.513 139.528 127.513 137.096C127.513 134.648 129.065 132.952 131.337 132.952C133.561 132.952 135.017 134.488 135.017 136.808V137.368L128.969 137.384C129.081 139.032 129.945 139.944 131.433 139.944C132.601 139.944 133.369 139.464 133.625 138.568H135.033C134.649 140.248 133.337 141.192 131.401 141.192ZM131.337 134.216C130.025 134.216 129.193 135 129.001 136.376H133.513C133.513 135.08 132.665 134.216 131.337 134.216ZM138.041 141H136.537V133.176H137.897L138.057 134.376C138.553 133.48 139.545 132.952 140.649 132.952C142.713 132.952 143.657 134.216 143.657 136.216V141H142.153V136.552C142.153 134.968 141.417 134.328 140.265 134.328C138.857 134.328 138.041 135.336 138.041 136.856V141ZM149.299 136.888C149.299 134.68 150.723 132.952 152.995 132.952C154.259 132.952 155.235 133.528 155.731 134.504L155.843 133.176H157.187V140.68C157.187 143.144 155.667 144.712 153.267 144.712C151.139 144.712 149.683 143.512 149.395 141.528H150.899C151.091 142.68 151.955 143.352 153.267 143.352C154.739 143.352 155.699 142.392 155.699 140.904V139.336C155.187 140.248 154.163 140.792 152.931 140.792C150.707 140.792 149.299 139.08 149.299 136.888ZM150.803 136.856C150.803 138.328 151.715 139.48 153.187 139.48C154.707 139.48 155.635 138.392 155.635 136.856C155.635 135.352 154.739 134.264 153.203 134.264C151.699 134.264 150.803 135.416 150.803 136.856ZM161.485 141.192C159.805 141.192 158.813 140.248 158.813 138.824C158.813 137.384 159.885 136.488 161.725 136.344L164.189 136.152V135.928C164.189 134.616 163.405 134.152 162.349 134.152C161.085 134.152 160.365 134.712 160.365 135.656H159.053C159.053 134.024 160.397 132.952 162.413 132.952C164.349 132.952 165.661 133.976 165.661 136.088V141H164.381L164.221 139.736C163.821 140.632 162.749 141.192 161.485 141.192ZM161.917 140.024C163.341 140.024 164.205 139.096 164.205 137.624V137.208L162.205 137.368C160.877 137.496 160.333 138.008 160.333 138.776C160.333 139.608 160.941 140.024 161.917 140.024ZM172.064 133.112V134.488H171.392C169.968 134.488 169.088 135.352 169.088 136.856V141H167.584V133.192H168.992L169.088 134.376C169.408 133.56 170.192 133.016 171.264 133.016C171.536 133.016 171.76 133.048 172.064 133.112ZM176.17 141.192C173.898 141.192 172.522 139.496 172.522 137.112C172.522 134.712 173.914 132.952 176.234 132.952C177.434 132.952 178.442 133.48 178.97 134.44V129.224H180.458V141H179.114L178.986 139.576C178.474 140.648 177.418 141.192 176.17 141.192ZM176.474 139.832C178.01 139.832 178.954 138.696 178.954 137.064C178.954 135.464 178.01 134.312 176.474 134.312C174.938 134.312 174.042 135.464 174.042 137.064C174.042 138.68 174.938 139.832 176.474 139.832ZM184.755 141.192C183.075 141.192 182.083 140.248 182.083 138.824C182.083 137.384 183.155 136.488 184.995 136.344L187.459 136.152V135.928C187.459 134.616 186.675 134.152 185.619 134.152C184.355 134.152 183.635 134.712 183.635 135.656H182.323C182.323 134.024 183.667 132.952 185.683 132.952C187.619 132.952 188.931 133.976 188.931 136.088V141H187.651L187.491 139.736C187.091 140.632 186.019 141.192 184.755 141.192ZM185.187 140.024C186.611 140.024 187.475 139.096 187.475 137.624V137.208L185.475 137.368C184.147 137.496 183.603 138.008 183.603 138.776C183.603 139.608 184.211 140.024 185.187 140.024ZM192.358 141H190.854V133.176H192.214L192.374 134.376C192.87 133.48 193.862 132.952 194.966 132.952C197.03 132.952 197.974 134.216 197.974 136.216V141H196.47V136.552C196.47 134.968 195.734 134.328 194.582 134.328C193.174 134.328 192.358 135.336 192.358 136.856V141ZM202.105 141H200.601V134.44H199.065V133.176H200.601V130.728H202.105V133.176H203.641V134.44H202.105V141ZM211.254 141H209.75V134.44H208.214V133.176H209.75V130.728H211.254V133.176H212.79V134.44H211.254V141ZM217.278 141.192C214.974 141.192 213.39 139.528 213.39 137.096C213.39 134.648 214.942 132.952 217.214 132.952C219.438 132.952 220.894 134.488 220.894 136.808V137.368L214.846 137.384C214.958 139.032 215.822 139.944 217.31 139.944C218.478 139.944 219.246 139.464 219.502 138.568H220.91C220.526 140.248 219.214 141.192 217.278 141.192ZM217.214 134.216C215.902 134.216 215.07 135 214.878 136.376H219.39C219.39 135.08 218.542 134.216 217.214 134.216ZM221.774 138.728H223.214C223.214 139.528 223.822 140.008 224.814 140.008C225.87 140.008 226.478 139.576 226.478 138.856C226.478 138.328 226.222 138.008 225.406 137.8L224.03 137.48C222.638 137.144 221.982 136.456 221.982 135.304C221.982 133.864 223.198 132.952 224.926 132.952C226.638 132.952 227.758 133.912 227.79 135.4H226.35C226.318 134.616 225.79 134.12 224.878 134.12C223.934 134.12 223.406 134.536 223.406 135.256C223.406 135.784 223.79 136.136 224.558 136.328L225.934 136.664C227.262 136.984 227.918 137.592 227.918 138.76C227.918 140.248 226.638 141.192 224.782 141.192C222.942 141.192 221.774 140.216 221.774 138.728ZM233.641 144.504V133.176H235.001L235.113 134.584C235.641 133.512 236.697 132.952 237.945 132.952C240.185 132.952 241.577 134.632 241.577 137.032C241.577 139.416 240.265 141.208 237.945 141.208C236.697 141.208 235.657 140.68 235.145 139.72V144.504H233.641ZM235.161 137.096C235.161 138.696 236.089 139.848 237.625 139.848C239.161 139.848 240.073 138.696 240.073 137.096C240.073 135.48 239.161 134.328 237.625 134.328C236.089 134.328 235.161 135.464 235.161 137.096ZM242.562 137.08C242.562 134.664 244.29 132.968 246.642 132.968C248.978 132.968 250.706 134.664 250.706 137.08C250.706 139.496 248.978 141.192 246.642 141.192C244.29 141.192 242.562 139.496 242.562 137.08ZM244.082 137.08C244.082 138.712 245.122 139.848 246.642 139.848C248.146 139.848 249.202 138.712 249.202 137.08C249.202 135.448 248.146 134.312 246.642 134.312C245.122 134.312 244.082 135.448 244.082 137.08ZM252.947 131.32C252.403 131.32 251.955 130.872 251.955 130.328C251.955 129.768 252.403 129.336 252.947 129.336C253.491 129.336 253.939 129.768 253.939 130.328C253.939 130.872 253.491 131.32 252.947 131.32ZM252.211 141V133.176H253.715V141H252.211ZM257.243 141H255.739V133.176H257.099L257.259 134.376C257.755 133.48 258.747 132.952 259.851 132.952C261.915 132.952 262.859 134.216 262.859 136.216V141H261.355V136.552C261.355 134.968 260.619 134.328 259.467 134.328C258.059 134.328 257.243 135.336 257.243 136.856V141ZM266.99 141H265.486V134.44H263.95V133.176H265.486V130.728H266.99V133.176H268.526V134.44H266.99V141ZM269.076 138.728H270.516C270.516 139.528 271.124 140.008 272.116 140.008C273.172 140.008 273.78 139.576 273.78 138.856C273.78 138.328 273.524 138.008 272.708 137.8L271.332 137.48C269.94 137.144 269.284 136.456 269.284 135.304C269.284 133.864 270.5 132.952 272.228 132.952C273.94 132.952 275.06 133.912 275.092 135.4H273.652C273.62 134.616 273.092 134.12 272.18 134.12C271.236 134.12 270.708 134.536 270.708 135.256C270.708 135.784 271.092 136.136 271.86 136.328L273.236 136.664C274.564 136.984 275.22 137.592 275.22 138.76C275.22 140.248 273.94 141.192 272.084 141.192C270.244 141.192 269.076 140.216 269.076 138.728ZM277.754 141.192C277.13 141.192 276.602 140.68 276.602 140.072C276.602 139.448 277.13 138.936 277.754 138.936C278.362 138.936 278.89 139.448 278.89 140.072C278.89 140.68 278.362 141.192 277.754 141.192Z" fill="white"/>
</g>
</g>
<defs>
<filter id="filter0_d_303_6295" x="-27.5" y="-27.5" width="373" height="215" filterUnits="userSpaceOnUse" color-interpolation-filters="sRGB">
<feFlood flood-opacity="0" result="BackgroundImageFix"/>
<feColorMatrix in="SourceAlpha" type="matrix" values="0 0 0 0 0 0 0 0 0 0 0 0 0 0 0 0 0 0 127 0" result="hardAlpha"/>
<feOffset/>
<feGaussianBlur stdDeviation="13.75"/>
<feComposite in2="hardAlpha" operator="out"/>
<feColorMatrix type="matrix" values="0 0 0 0 0.409129 0 0 0 0 0.535373 0 0 0 0 0.896071 0 0 0 0.04 0"/>
<feBlend mode="normal" in2="BackgroundImageFix" result="effect1_dropShadow_303_6295"/>
<feBlend mode="normal" in="SourceGraphic" in2="effect1_dropShadow_303_6295" result="shape"/>
</filter>
<clipPath id="clip0_303_6295">
<rect width="318" height="160" rx="18" fill="white"/>
</clipPath>
<clipPath id="clip1_303_6295">
<rect width="76" height="72" fill="white" transform="translate(121 20)"/>
</clipPath>
</defs>
</svg>
