<svg width="373" height="215" viewBox="0 0 373 215" fill="none" xmlns="http://www.w3.org/2000/svg">
<g filter="url(#filter0_d_262_2295)">
<g clip-path="url(#clip0_262_2295)">
<rect x="27.5" y="27.5" width="318" height="160" rx="18" fill="#875AEF"/>
<path d="M204.777 78.0214C207.581 74.9075 212.071 73.9531 215.899 75.6574L277.723 103.184C281.551 104.888 283.846 108.863 283.408 113.031L276.334 180.335C275.896 184.502 272.824 187.914 268.726 188.785L202.529 202.855C198.43 203.726 194.237 201.859 192.142 198.23L158.304 139.622C156.209 135.993 156.689 131.428 159.493 128.314L204.777 78.0214Z" fill="#7645E6" fill-opacity="0.4"/>
<path d="M293.762 105.645C294.245 101.482 297.353 98.1043 301.46 97.2771L367.804 83.9171C371.912 83.0899 376.085 85.0018 378.141 88.6529L411.348 147.621C413.404 151.272 412.876 155.832 410.039 158.915L364.218 208.72C361.381 211.803 356.881 212.709 353.072 210.964L291.546 182.777C287.737 181.032 285.484 177.032 285.967 172.87L293.762 105.645Z" fill="#7645E6" fill-opacity="0.4"/>
<path d="M226.21 -9.12321C226.672 -13.2878 229.764 -16.6811 233.867 -17.5282L300.145 -31.2108C304.249 -32.058 308.431 -30.1664 310.505 -26.5253L343.999 32.2804C346.073 35.9214 345.566 40.4837 342.744 43.5812L297.167 93.6077C294.345 96.7051 289.849 97.6332 286.031 95.9065L224.369 68.0188C220.551 66.2921 218.279 62.3034 218.742 58.1388L226.21 -9.12321Z" fill="#996CFF" fill-opacity="0.4"/>
<path d="M54.9484 97.3905C57.8127 94.3321 62.3206 93.466 66.1143 95.245L140.956 130.341C144.75 132.12 146.967 136.14 146.447 140.298L136.196 222.321C135.676 226.479 132.538 229.83 128.424 230.62L47.2465 246.218C43.1315 247.009 38.9755 245.06 36.9519 241.39L-2.9673 169.006C-4.99084 165.337 -4.42159 160.782 -1.55727 157.724L54.9484 97.3905Z" fill="#7645E6" fill-opacity="0.4"/>
<path d="M83.5466 17.4749C84.009 13.3103 87.1005 9.91708 91.2041 9.06991L157.482 -4.61263C161.586 -5.45981 165.768 -3.56822 167.842 0.072811L201.336 58.8785C203.409 62.5196 202.903 67.0819 200.081 70.1793L154.504 120.206C151.682 123.303 147.186 124.231 143.368 122.505L81.7059 94.617C77.888 92.8903 75.6161 88.9016 76.0785 84.7369L83.5466 17.4749Z" fill="#996CFF" fill-opacity="0.4"/>
<g clip-path="url(#clip1_262_2295)">
<path d="M210.995 54.2519L211.226 54.431C212.016 55.0505 212.775 55.6934 213.51 56.376L213.839 56.6781C215.428 58.1914 216.679 59.9901 217.784 61.8738L217.919 62.1008C219.125 64.1527 219.924 66.427 220.424 68.746L220.486 69.0279C221.128 72.0824 221.096 75.697 220.424 78.7419L220.352 79.081C219.47 83.1428 217.456 86.6774 214.639 89.7159C214.42 89.9546 214.211 90.1984 214.005 90.448C213.59 90.9306 213.117 91.3291 212.63 91.7365L212.305 92.0211C209.832 94.1496 206.821 95.7633 203.704 96.7345L203.412 96.8266C201.946 97.2774 200.505 97.4866 198.976 97.5887C198.714 97.6066 198.452 97.6285 198.19 97.6511C195.146 97.8917 191.964 97.9045 188.997 97.1093L188.964 96.8755C188.764 95.6772 188.241 94.5997 187.278 93.8143C186.281 93.1241 185.125 92.9584 183.936 92.9528L183.661 92.9515C183.287 92.9513 182.912 92.9532 182.538 92.9598C181.269 92.9788 180.42 92.8699 179.443 91.9864L179.079 91.7165C177.097 90.1279 175.459 88.2942 174.163 86.1138L174.018 85.8694C170.886 80.5574 170.026 74.1921 171.549 68.2147C172.384 65.1285 173.768 62.1172 175.797 59.6247L176.049 59.3026C178.614 56.0771 181.862 53.2864 185.854 52.0028C195.691 49.1754 201.196 49.6425 210.995 54.2519Z" fill="#FFC832"/>
<path d="M181.643 92.7869L181.917 92.791C182.206 92.7953 182.494 92.7972 182.782 92.7986C186.281 92.8157 186.281 92.8157 187.614 93.9856C188.337 94.7429 188.981 95.6371 189.009 96.7062L188.997 97.1093C189.408 97.1698 189.819 97.2295 190.23 97.289L190.577 97.34C191.944 97.5369 193.287 97.6335 194.669 97.6326L195.146 97.6323C196.865 97.6215 198.576 97.5115 200.29 97.3945C201.138 97.3369 201.985 97.2854 202.832 97.2343L203.086 97.219C204.476 97.1353 205.868 97.0576 207.259 96.9857C207.472 96.9747 207.685 96.9634 207.898 96.9519C209.027 96.8914 210.154 96.8477 211.285 96.839L211.582 96.8346C212.81 96.8329 213.89 97.2447 214.771 98.1099C215.731 99.1301 216.077 100.089 216.058 101.486C215.956 102.589 215.445 103.593 214.641 104.356C213.864 104.961 213.078 105.3 212.143 105.59L211.708 105.73C211.278 105.867 210.847 106.002 210.416 106.137C210.096 106.237 209.775 106.338 209.454 106.439C206.951 107.226 204.443 108.002 201.936 108.776C201.678 108.856 201.42 108.936 201.162 109.015L200.647 109.174L200.392 109.253C199.977 109.382 199.562 109.51 199.147 109.637C197.619 110.108 196.093 110.58 194.577 111.089C193.733 111.372 192.892 111.636 192.022 111.83L191.721 111.902C190.08 112.281 188.498 112.391 186.821 112.379C186.495 112.377 186.169 112.376 185.843 112.376C184.576 112.374 183.313 112.336 182.048 112.277C180.046 112.184 178.042 112.155 176.038 112.125L175.983 112.124C175.235 112.113 174.487 112.1 173.739 112.082C172.966 112.063 172.194 112.05 171.421 112.04C171.125 112.035 170.83 112.029 170.534 112.021C168.256 111.947 168.256 111.947 166.369 113.103C166.172 113.243 165.973 113.382 165.772 113.517L165.531 113.687C164.653 114.183 163.906 114.283 162.915 114.278L162.527 114.28C162.106 114.283 161.684 114.282 161.263 114.282C160.969 114.282 160.675 114.283 160.38 114.283C159.764 114.285 159.148 114.284 158.532 114.283C157.745 114.282 156.958 114.284 156.17 114.288C155.563 114.29 154.955 114.29 154.348 114.289C154.057 114.289 153.767 114.29 153.477 114.292C153.07 114.294 152.664 114.292 152.257 114.29L151.898 114.294C150.957 114.283 150.093 114.076 149.344 113.486C148.714 112.708 148.421 112.038 148.45 111.024C148.532 110.523 148.721 110.121 148.955 109.677L149.091 109.413C149.579 108.479 150.117 107.577 150.664 106.676C150.769 106.501 150.874 106.327 150.979 106.152C151.24 105.718 151.503 105.283 151.766 104.849C151.978 104.498 152.19 104.147 152.402 103.796L152.43 103.75C152.664 103.362 152.897 102.975 153.132 102.588C153.509 101.964 153.885 101.338 154.256 100.709L154.48 100.331C154.618 100.097 154.755 99.8632 154.892 99.6288C155.255 99.0143 155.64 98.4352 156.061 97.859L156.25 97.5408C157.504 95.5023 159.623 93.8098 161.944 93.1677C170.265 92.408 174.596 92.3253 181.643 92.7869Z" fill="#FEDCBB"/>
<path d="M196.037 60.6242C196.423 60.8379 196.716 61.1002 196.917 61.4988C196.905 61.8598 196.887 62.2165 196.862 62.5765C196.855 62.6767 196.848 62.7769 196.842 62.8801C196.825 63.1277 196.808 63.3753 196.791 63.6229C196.945 63.639 197.1 63.6552 197.259 63.6717C197.883 63.7498 198.37 63.9661 198.928 64.2477C199.027 64.2971 199.127 64.3466 199.229 64.3975C200.321 64.9683 200.321 64.9683 200.688 65.4972C200.775 65.9311 200.779 66.3133 200.688 66.7467C200.413 67.0995 200.206 67.2983 199.808 67.4964C199.023 67.5549 198.528 67.4316 197.836 67.0746C197.074 66.6975 197.074 66.6975 196.288 66.3718C196.283 66.4994 196.279 66.6269 196.274 66.7584C196.203 68.3912 196.006 70.0008 195.785 71.6197C195.859 71.6427 195.933 71.6658 196.008 71.6896C197.808 72.2671 199.355 73.2065 200.311 74.8683C200.754 75.9422 200.624 77.1449 200.311 78.2419C200.189 78.4938 200.064 78.7439 199.934 78.9916C199.903 79.1579 199.874 79.3245 199.847 79.4914C199.716 80.0342 199.453 80.2583 198.993 80.5613C196.67 81.8788 194.396 82.3593 191.798 81.6561C189.893 81.0941 188.34 80.2073 187.111 78.6168C186.917 78.2294 186.949 77.9197 186.986 77.4923C187.211 77.1482 187.369 76.9267 187.74 76.7426C188.57 76.6288 188.57 76.6288 189 76.907C189.26 77.1355 189.507 77.3723 189.751 77.6172C190.481 78.3246 191.197 78.7333 192.14 79.1166C192.146 79.0119 192.153 78.9072 192.16 78.7993C192.235 77.699 192.34 76.6049 192.462 75.5087C192.488 75.2702 192.488 75.2702 192.515 75.027C192.557 74.6409 192.6 74.2548 192.643 73.8687C192.509 73.8067 192.375 73.7447 192.238 73.6808C191.264 73.2194 190.373 72.7879 189.626 71.9945C189.522 71.8887 189.522 71.8887 189.416 71.7807C188.471 70.7581 188.055 69.5635 188.095 68.1831C188.195 66.7728 188.816 65.6098 189.846 64.6303C191.015 63.6553 192.384 63.1943 193.9 63.2481C193.904 63.0853 193.904 63.0853 193.909 62.9191C193.981 61.4655 193.981 61.4655 194.528 60.8741C195.034 60.5391 195.442 60.5225 196.037 60.6242Z" fill="#EE9E13"/>
<path d="M211.593 54.6736L211.3 54.4188L210.488 53.9918L207.4 52.6935L205.857 52.1033L204.075 51.5131L202.532 51.041L204.194 52.2213L205.975 53.4017C209.304 55.4378 210.73 56.7154 212.716 59.1667L212.882 59.3748C213.632 60.3148 214.316 61.2804 214.909 62.3267C217.72 67.4562 218.781 73.7902 217.146 79.4896C217.082 79.6988 217.018 79.9084 216.958 80.119C216.186 82.8324 214.915 85.3915 213.244 87.6747L213.007 87.988C212.147 89.1426 211.229 90.1913 210.181 91.1821L209.99 91.3617C206.333 94.8181 201.601 96.8992 196.594 97.4558L196.288 97.4842V97.6091C198.721 97.6589 201.074 97.5457 203.413 96.8266L203.705 96.7345C206.821 95.7633 209.833 94.1496 212.306 92.0211L212.63 91.7365C213.118 91.3291 213.591 90.9306 214.005 90.448C214.212 90.1984 214.42 89.9546 214.639 89.7159C217.457 86.6773 219.471 83.1427 220.352 79.081L220.424 78.7418C221.096 75.697 221.128 72.0823 220.486 69.0279L220.424 68.7459C219.925 66.427 219.125 64.1526 217.919 62.1008L217.784 61.8738C216.68 59.9901 215.428 58.1913 213.839 56.6781L213.51 56.376C213.198 56.0866 212.885 55.8004 212.565 55.5204L212.253 55.2515L211.922 54.9552L211.593 54.6736Z" fill="#EB940E"/>
<path d="M181.265 73.4314C182.069 73.9242 182.71 74.7175 182.962 75.618C183.069 76.7847 182.978 77.6555 182.318 78.6402C181.729 79.2915 180.879 79.6881 180.01 79.7711C178.989 79.7989 178.259 79.6082 177.462 78.9604C176.576 77.8836 176.293 77.0187 176.425 75.618C176.725 74.6761 177.337 73.9926 178.185 73.4939C179.053 73.0733 180.372 73.0373 181.265 73.4314Z" fill="#FEA02F"/>
<path d="M209.99 76.1179C210.759 76.6028 211.227 77.2538 211.498 78.1171C211.662 79.195 211.521 80.1033 210.87 80.9909C210.257 81.6518 209.693 82.0646 208.778 82.1662C207.658 82.2085 206.855 82.1185 205.967 81.3657C205.326 80.7453 204.938 79.8882 204.898 78.9995C204.942 78.0933 205.246 77.3043 205.865 76.6333C207.002 75.62 208.628 75.3477 209.99 76.1179Z" fill="#FE9F2F"/>
<path d="M188.745 76.7426C189.126 76.9886 189.432 77.2979 189.751 77.6173C191.061 78.8876 192.559 79.4181 194.376 79.4126C195.561 79.379 196.543 79.0582 197.521 78.3904C198.217 77.923 198.217 77.923 198.723 77.9531C199.292 78.1579 199.499 78.3502 199.807 78.8668C199.887 79.3704 199.887 79.6205 199.604 80.0494C199.262 80.4113 198.902 80.6398 198.464 80.8659C198.341 80.9297 198.341 80.9297 198.215 80.9948C195.929 82.1307 193.691 82.2687 191.259 81.4907C189.61 80.9203 187.803 79.9932 186.985 78.367C186.936 77.8445 186.929 77.5786 187.221 77.1331C187.669 76.6879 188.131 76.6121 188.745 76.7426Z" fill="#36251E"/>
<path d="M188.997 98.3586C189.302 98.4798 189.469 98.5634 189.654 98.8379C189.953 99.6704 189.768 100.525 189.414 101.31C188.816 102.384 187.842 103.201 186.657 103.561C185.614 103.828 184.551 103.791 183.482 103.79C183.254 103.791 183.026 103.792 182.798 103.793C182.323 103.795 181.848 103.795 181.373 103.794C180.765 103.793 180.156 103.797 179.548 103.802C179.078 103.805 178.609 103.806 178.14 103.805C177.915 103.806 177.691 103.807 177.466 103.809C177.153 103.812 176.84 103.811 176.528 103.808C176.435 103.81 176.343 103.812 176.248 103.813C175.778 103.806 175.582 103.764 175.233 103.443C174.974 102.984 175.03 102.731 175.169 102.232C175.307 102.021 175.307 102.021 175.546 101.857C175.864 101.82 176.151 101.806 176.469 101.809C176.563 101.808 176.656 101.808 176.753 101.807C176.956 101.806 177.16 101.806 177.364 101.806C177.687 101.806 178.01 101.805 178.333 101.802C179.02 101.798 179.707 101.796 180.394 101.795C181.187 101.793 181.981 101.79 182.774 101.785C183.091 101.783 183.407 101.784 183.724 101.784C185.281 101.779 186.616 101.608 187.822 100.551C188.422 99.9269 188.699 99.1572 188.997 98.3586Z" fill="#F1C08D"/>
<path d="M184.471 69.1206C185.008 69.3726 185.366 69.6897 185.641 70.2222C185.885 70.9842 185.851 71.8296 185.516 72.5567C185.198 73.0961 184.819 73.4201 184.219 73.6188C183.7 73.6675 183.407 73.6532 182.939 73.4158C182.332 72.9069 182.016 72.3861 181.927 71.6099C181.902 70.8809 182.034 70.3463 182.46 69.7454C183.111 69.1442 183.599 69.0183 184.471 69.1206Z" fill="#36251D"/>
<path d="M205.339 71.12C205.918 71.3501 206.161 71.7173 206.471 72.2446C206.721 72.9919 206.722 73.8282 206.384 74.5483C206.068 75.093 205.692 75.4181 205.088 75.6182C204.568 75.6669 204.276 75.6526 203.807 75.4152C203.261 74.9569 202.874 74.4399 202.795 73.7191C202.772 72.9485 202.87 72.3788 203.328 71.7448C203.987 71.1368 204.462 71.0383 205.339 71.12Z" fill="#36251D"/>
<path d="M195.408 74.6184C195.588 74.675 195.768 74.7325 195.947 74.7902C196.047 74.8221 196.147 74.854 196.25 74.8869C196.795 75.0875 197.305 75.416 197.671 75.8679C197.872 76.9645 197.517 77.8172 196.94 78.7261C196.365 79.2815 195.682 79.4126 194.905 79.4914C194.895 78.8304 194.927 78.2038 195.015 77.5469C195.026 77.4623 195.037 77.3778 195.049 77.2907C195.084 77.0246 195.12 76.7586 195.157 76.4926C195.181 76.3106 195.205 76.1285 195.229 75.9465C195.288 75.5037 195.348 75.061 195.408 74.6184Z" fill="#FECA33"/>
<path d="M193.522 66.1218C193.389 67.6684 193.245 69.2088 193.019 70.7449C192.538 70.603 192.171 70.4678 191.793 70.1358C191.722 70.0743 191.65 70.0128 191.575 69.9494C191.046 69.3829 191.058 68.7745 191.07 68.0297C191.173 67.369 191.49 67.0202 192.013 66.6216C192.536 66.2831 192.89 66.1218 193.522 66.1218Z" fill="#FECA33"/>
<path d="M191.888 81.6155C192.634 81.7392 192.634 81.7392 193.396 81.8654C193.396 81.9066 193.396 81.9478 193.396 81.9903C193.769 82.0316 194.143 82.0728 194.527 82.1153C194.523 82.4333 194.515 82.7502 194.504 83.068C194.503 83.1571 194.502 83.2461 194.502 83.3379C194.472 84.0463 194.288 84.3713 193.773 84.8641C193.32 85.0143 192.992 85.0299 192.516 84.9891C192.17 84.7647 191.947 84.6077 191.762 84.2394C191.749 83.9376 191.746 83.6355 191.746 83.3335C191.746 83.1705 191.745 83.0075 191.745 82.8396C191.762 82.3652 191.762 82.3652 191.888 81.6155Z" fill="#ED9C11"/>
<path d="M171.021 71.3699C171.062 71.3699 171.104 71.3699 171.147 71.3699C171.146 71.4574 171.145 71.545 171.145 71.6352C171.142 72.0336 171.14 72.4319 171.139 72.8302C171.138 72.968 171.137 73.1058 171.135 73.2478C171.135 73.381 171.135 73.5143 171.134 73.6517C171.134 73.774 171.133 73.8964 171.132 74.0224C171.146 74.3598 171.205 74.6633 171.272 74.9934C171.262 75.3422 171.244 75.6846 171.217 76.032C171.211 76.1246 171.204 76.2171 171.197 76.3124C171.181 76.5392 171.164 76.7659 171.147 76.9926C171.105 76.9926 171.064 76.9926 171.021 76.9926C170.922 76.384 170.879 75.8005 170.878 75.1842C170.878 75.0985 170.878 75.0128 170.878 74.9244C170.878 74.7446 170.878 74.5647 170.879 74.3848C170.879 74.1112 170.879 73.8376 170.878 73.564C170.878 73.3883 170.878 73.2125 170.878 73.0367C170.879 72.8787 170.879 72.7206 170.879 72.5578C170.894 72.1503 170.943 71.7698 171.021 71.3699Z" fill="#FBD716"/>
<path d="M173.032 64.3728C173.193 64.6931 173.142 64.8376 173.071 65.185C173.053 65.2842 173.034 65.3834 173.015 65.4856C172.906 65.7472 172.906 65.7472 172.644 65.9073C172.565 65.937 172.485 65.9666 172.403 65.9971C172.48 65.3899 172.746 64.905 173.032 64.3728Z" fill="#F7D31E"/>
<path d="M199.179 96.9844C199.47 97.0256 199.76 97.0668 200.059 97.1093C200.059 97.1918 200.059 97.2743 200.059 97.3592C200.225 97.4005 200.391 97.4417 200.562 97.4842C200.039 97.4944 199.563 97.482 199.054 97.3592C199.095 97.2355 199.137 97.1118 199.179 96.9844Z" fill="#EA9617"/>
<path d="M187.488 76.8677C187.613 76.9089 187.737 76.9501 187.865 76.9926C187.692 77.2425 187.692 77.2425 187.488 77.4924C187.405 77.4924 187.322 77.4924 187.237 77.4924C187.237 77.6986 187.237 77.9048 187.237 78.1172C187.195 78.1172 187.154 78.1172 187.111 78.1172C187.065 77.3021 187.065 77.3021 187.3 77.0004C187.362 76.9566 187.424 76.9128 187.488 76.8677Z" fill="#25181A"/>
<path d="M177.683 57.5005C177.724 57.583 177.766 57.6654 177.808 57.7504C177.695 58.079 177.609 58.2196 177.306 58.3986C177.223 58.4321 177.14 58.4656 177.054 58.5001C176.93 58.5619 176.93 58.5619 176.803 58.625C176.998 58.1481 177.31 57.8513 177.683 57.5005Z" fill="#FCD61A"/>
<path d="M174.29 61.8738C174.414 61.8738 174.538 61.8738 174.667 61.8738C174.667 61.9975 174.667 62.1212 174.667 62.2486C174.352 62.522 174.352 62.522 174.038 62.7484C174.148 62.0143 174.148 62.0143 174.29 61.8738Z" fill="#FCCE23"/>
</g>
<path d="M63.5633 137.932V149.5H61.9953V137.932H63.5633ZM62.2673 149.5V148.044H68.6513V149.5H62.2673ZM73.1584 149.692C72.401 149.692 71.729 149.521 71.1424 149.18C70.5557 148.828 70.097 148.348 69.7664 147.74C69.4357 147.121 69.2704 146.407 69.2704 145.596C69.2704 144.775 69.4304 144.055 69.7504 143.436C70.081 142.817 70.529 142.332 71.0944 141.98C71.6704 141.628 72.337 141.452 73.0944 141.452C73.841 141.452 74.4864 141.612 75.0304 141.932C75.585 142.252 76.0117 142.7 76.3104 143.276C76.6197 143.852 76.7744 144.529 76.7744 145.308V145.868L70.0704 145.884L70.1024 144.876H75.2704C75.2704 144.225 75.073 143.703 74.6784 143.308C74.2837 142.913 73.7557 142.716 73.0944 142.716C72.593 142.716 72.161 142.828 71.7984 143.052C71.4464 143.265 71.1744 143.585 70.9824 144.012C70.801 144.428 70.7104 144.929 70.7104 145.516C70.7104 146.455 70.9237 147.18 71.3504 147.692C71.777 148.193 72.3904 148.444 73.1904 148.444C73.777 148.444 74.257 148.327 74.6304 148.092C75.0037 147.857 75.2544 147.516 75.3824 147.068H76.7904C76.5984 147.9 76.1877 148.545 75.5584 149.004C74.929 149.463 74.129 149.692 73.1584 149.692ZM81.9973 145.596C81.9973 144.775 82.1573 144.055 82.4773 143.436C82.8079 142.817 83.2613 142.332 83.8373 141.98C84.4133 141.628 85.0799 141.452 85.8373 141.452C86.8186 141.452 87.6346 141.713 88.2853 142.236C88.9359 142.759 89.3253 143.452 89.4533 144.316H87.9493C87.8213 143.815 87.5706 143.436 87.1973 143.18C86.8239 142.924 86.3866 142.796 85.8853 142.796C85.4159 142.796 84.9999 142.913 84.6373 143.148C84.2746 143.372 83.9919 143.692 83.7893 144.108C83.5866 144.524 83.4853 145.015 83.4853 145.58C83.4853 146.145 83.5813 146.636 83.7733 147.052C83.9653 147.457 84.2373 147.777 84.5893 148.012C84.9413 148.236 85.3519 148.348 85.8213 148.348C86.3546 148.348 86.8133 148.215 87.1973 147.948C87.5813 147.681 87.8373 147.319 87.9653 146.86H89.4693C89.3733 147.425 89.1546 147.921 88.8133 148.348C88.4826 148.764 88.0559 149.095 87.5333 149.34C87.0213 149.575 86.4506 149.692 85.8213 149.692C85.0533 149.692 84.3813 149.521 83.8053 149.18C83.2399 148.839 82.7973 148.364 82.4773 147.756C82.1573 147.137 81.9973 146.417 81.9973 145.596ZM95.3761 141.612V142.988H94.7041C93.9895 142.988 93.4241 143.196 93.0081 143.612C92.6028 144.017 92.4001 144.599 92.4001 145.356V149.5H90.8961V141.692H92.3041L92.4321 143.26H92.2881C92.3948 142.748 92.6508 142.332 93.0561 142.012C93.4615 141.681 93.9681 141.516 94.5761 141.516C94.7148 141.516 94.8428 141.527 94.9601 141.548C95.0881 141.559 95.2268 141.58 95.3761 141.612ZM99.7215 149.692C98.9642 149.692 98.2922 149.521 97.7055 149.18C97.1188 148.828 96.6602 148.348 96.3295 147.74C95.9988 147.121 95.8335 146.407 95.8335 145.596C95.8335 144.775 95.9935 144.055 96.3135 143.436C96.6442 142.817 97.0922 142.332 97.6575 141.98C98.2335 141.628 98.9002 141.452 99.6575 141.452C100.404 141.452 101.05 141.612 101.594 141.932C102.148 142.252 102.575 142.7 102.874 143.276C103.183 143.852 103.338 144.529 103.338 145.308V145.868L96.6335 145.884L96.6655 144.876H101.834C101.834 144.225 101.636 143.703 101.242 143.308C100.847 142.913 100.319 142.716 99.6575 142.716C99.1562 142.716 98.7242 142.828 98.3615 143.052C98.0095 143.265 97.7375 143.585 97.5455 144.012C97.3642 144.428 97.2735 144.929 97.2735 145.516C97.2735 146.455 97.4868 147.18 97.9135 147.692C98.3402 148.193 98.9535 148.444 99.7535 148.444C100.34 148.444 100.82 148.327 101.194 148.092C101.567 147.857 101.818 147.516 101.946 147.068H103.354C103.162 147.9 102.751 148.545 102.122 149.004C101.492 149.463 100.692 149.692 99.7215 149.692ZM101.658 138.636L100.282 140.764H99.1135L100.186 138.636H101.658ZM107.993 149.692C107.236 149.692 106.585 149.521 106.041 149.18C105.497 148.828 105.076 148.343 104.777 147.724C104.489 147.105 104.345 146.401 104.345 145.612C104.345 144.812 104.495 144.103 104.793 143.484C105.092 142.855 105.519 142.359 106.073 141.996C106.628 141.633 107.289 141.452 108.057 141.452C108.665 141.452 109.204 141.58 109.673 141.836C110.153 142.081 110.527 142.449 110.793 142.94V137.724H112.281V149.5H110.937L110.809 148.076C110.553 148.599 110.175 148.999 109.673 149.276C109.183 149.553 108.623 149.692 107.993 149.692ZM108.297 148.332C108.809 148.332 109.247 148.215 109.609 147.98C109.983 147.745 110.271 147.42 110.473 147.004C110.676 146.588 110.777 146.108 110.777 145.564C110.777 145.02 110.676 144.545 110.473 144.14C110.271 143.724 109.983 143.399 109.609 143.164C109.247 142.929 108.809 142.812 108.297 142.812C107.785 142.812 107.348 142.935 106.985 143.18C106.623 143.415 106.345 143.74 106.153 144.156C105.961 144.561 105.865 145.031 105.865 145.564C105.865 146.108 105.961 146.588 106.153 147.004C106.345 147.42 106.623 147.745 106.985 147.98C107.348 148.215 107.785 148.332 108.297 148.332ZM114.291 149.5V141.676H115.795V149.5H114.291ZM115.027 139.82C114.76 139.82 114.526 139.724 114.323 139.532C114.131 139.329 114.035 139.095 114.035 138.828C114.035 138.551 114.131 138.316 114.323 138.124C114.526 137.932 114.76 137.836 115.027 137.836C115.304 137.836 115.539 137.932 115.731 138.124C115.923 138.316 116.019 138.551 116.019 138.828C116.019 139.095 115.923 139.329 115.731 139.532C115.539 139.724 115.304 139.82 115.027 139.82ZM116.987 141.676H121.563V142.94H116.987V141.676ZM120.027 149.5H118.523V139.228H120.027V149.5ZM123.644 149.356L123.772 149.324C123.708 149.388 123.628 149.436 123.532 149.468C123.447 149.5 123.34 149.516 123.212 149.516C122.956 149.516 122.727 149.431 122.524 149.26C122.332 149.079 122.236 148.839 122.236 148.54C122.236 148.22 122.332 147.959 122.524 147.756C122.727 147.543 122.988 147.436 123.308 147.436C123.649 147.436 123.937 147.564 124.172 147.82C124.407 148.076 124.524 148.428 124.524 148.876C124.524 149.26 124.433 149.612 124.252 149.932C124.081 150.263 123.847 150.529 123.548 150.732C123.249 150.945 122.908 151.079 122.524 151.132V150.46C122.844 150.396 123.111 150.263 123.324 150.06C123.537 149.868 123.644 149.633 123.644 149.356ZM130.233 145.596C130.233 144.775 130.393 144.055 130.713 143.436C131.044 142.817 131.497 142.332 132.073 141.98C132.649 141.628 133.316 141.452 134.073 141.452C135.054 141.452 135.87 141.713 136.521 142.236C137.172 142.759 137.561 143.452 137.689 144.316H136.185C136.057 143.815 135.806 143.436 135.433 143.18C135.06 142.924 134.622 142.796 134.121 142.796C133.652 142.796 133.236 142.913 132.873 143.148C132.51 143.372 132.228 143.692 132.025 144.108C131.822 144.524 131.721 145.015 131.721 145.58C131.721 146.145 131.817 146.636 132.009 147.052C132.201 147.457 132.473 147.777 132.825 148.012C133.177 148.236 133.588 148.348 134.057 148.348C134.59 148.348 135.049 148.215 135.433 147.948C135.817 147.681 136.073 147.319 136.201 146.86H137.705C137.609 147.425 137.39 147.921 137.049 148.348C136.718 148.764 136.292 149.095 135.769 149.34C135.257 149.575 134.686 149.692 134.057 149.692C133.289 149.692 132.617 149.521 132.041 149.18C131.476 148.839 131.033 148.364 130.713 147.756C130.393 147.137 130.233 146.417 130.233 145.596ZM140.54 138.908L140.156 142.22H139.292L138.876 138.908C138.844 138.663 138.87 138.465 138.956 138.316C139.041 138.167 139.153 138.06 139.292 137.996C139.441 137.921 139.59 137.884 139.74 137.884C139.878 137.884 140.012 137.921 140.14 137.996C140.278 138.06 140.385 138.167 140.46 138.316C140.545 138.465 140.572 138.663 140.54 138.908ZM145.363 149.692C144.606 149.692 143.934 149.521 143.347 149.18C142.761 148.828 142.302 148.348 141.971 147.74C141.641 147.121 141.475 146.407 141.475 145.596C141.475 144.775 141.635 144.055 141.955 143.436C142.286 142.817 142.734 142.332 143.299 141.98C143.875 141.628 144.542 141.452 145.299 141.452C146.046 141.452 146.691 141.612 147.235 141.932C147.79 142.252 148.217 142.7 148.515 143.276C148.825 143.852 148.979 144.529 148.979 145.308V145.868L142.275 145.884L142.307 144.876H147.475C147.475 144.225 147.278 143.703 146.883 143.308C146.489 142.913 145.961 142.716 145.299 142.716C144.798 142.716 144.366 142.828 144.003 143.052C143.651 143.265 143.379 143.585 143.187 144.012C143.006 144.428 142.915 144.929 142.915 145.516C142.915 146.455 143.129 147.18 143.555 147.692C143.982 148.193 144.595 148.444 145.395 148.444C145.982 148.444 146.462 148.327 146.835 148.092C147.209 147.857 147.459 147.516 147.587 147.068H148.995C148.803 147.9 148.393 148.545 147.763 149.004C147.134 149.463 146.334 149.692 145.363 149.692ZM149.859 147.228H151.299C151.299 147.623 151.443 147.937 151.731 148.172C152.019 148.396 152.409 148.508 152.899 148.508C153.433 148.508 153.843 148.407 154.131 148.204C154.419 147.991 154.563 147.708 154.563 147.356C154.563 147.1 154.483 146.887 154.323 146.716C154.174 146.545 153.897 146.407 153.491 146.3L152.115 145.98C151.422 145.809 150.905 145.548 150.563 145.196C150.233 144.844 150.067 144.38 150.067 143.804C150.067 143.324 150.19 142.908 150.435 142.556C150.691 142.204 151.038 141.932 151.475 141.74C151.923 141.548 152.435 141.452 153.011 141.452C153.587 141.452 154.083 141.553 154.499 141.756C154.926 141.959 155.257 142.241 155.491 142.604C155.737 142.967 155.865 143.399 155.875 143.9H154.435C154.425 143.495 154.291 143.18 154.035 142.956C153.779 142.732 153.422 142.62 152.963 142.62C152.494 142.62 152.131 142.721 151.875 142.924C151.619 143.127 151.491 143.404 151.491 143.756C151.491 144.279 151.875 144.636 152.643 144.828L154.019 145.164C154.681 145.313 155.177 145.559 155.507 145.9C155.838 146.231 156.003 146.684 156.003 147.26C156.003 147.751 155.87 148.183 155.603 148.556C155.337 148.919 154.969 149.201 154.499 149.404C154.041 149.596 153.497 149.692 152.867 149.692C151.95 149.692 151.219 149.468 150.675 149.02C150.131 148.572 149.859 147.975 149.859 147.228ZM156.679 141.676H161.255V142.94H156.679V141.676ZM159.719 149.5H158.215V139.228H159.719V149.5ZM168.196 149.5H166.692V137.724H168.196V149.5ZM172.538 149.692C171.706 149.692 171.05 149.473 170.57 149.036C170.101 148.599 169.866 148.028 169.866 147.324C169.866 146.609 170.122 146.039 170.634 145.612C171.146 145.175 171.861 144.919 172.778 144.844L175.242 144.652V144.428C175.242 143.991 175.162 143.644 175.002 143.388C174.842 143.121 174.623 142.935 174.346 142.828C174.069 142.711 173.754 142.652 173.402 142.652C172.773 142.652 172.282 142.785 171.93 143.052C171.589 143.308 171.418 143.676 171.418 144.156H170.106C170.106 143.612 170.245 143.137 170.522 142.732C170.799 142.327 171.189 142.012 171.69 141.788C172.202 141.564 172.794 141.452 173.466 141.452C174.117 141.452 174.682 141.569 175.162 141.804C175.653 142.028 176.031 142.375 176.298 142.844C176.575 143.303 176.714 143.884 176.714 144.588V149.5H175.434L175.274 148.236C175.071 148.684 174.719 149.041 174.218 149.308C173.727 149.564 173.167 149.692 172.538 149.692ZM172.97 148.524C173.685 148.524 174.245 148.311 174.65 147.884C175.055 147.447 175.258 146.86 175.258 146.124V145.708L173.258 145.868C172.597 145.932 172.117 146.087 171.818 146.332C171.53 146.577 171.386 146.892 171.386 147.276C171.386 147.692 171.525 148.007 171.802 148.22C172.09 148.423 172.479 148.524 172.97 148.524ZM182.212 147.228H183.652C183.652 147.623 183.796 147.937 184.084 148.172C184.372 148.396 184.761 148.508 185.252 148.508C185.785 148.508 186.196 148.407 186.484 148.204C186.772 147.991 186.916 147.708 186.916 147.356C186.916 147.1 186.836 146.887 186.676 146.716C186.526 146.545 186.249 146.407 185.844 146.3L184.468 145.98C183.774 145.809 183.257 145.548 182.916 145.196C182.585 144.844 182.42 144.38 182.42 143.804C182.42 143.324 182.542 142.908 182.788 142.556C183.044 142.204 183.39 141.932 183.828 141.74C184.276 141.548 184.788 141.452 185.364 141.452C185.94 141.452 186.436 141.553 186.852 141.756C187.278 141.959 187.609 142.241 187.844 142.604C188.089 142.967 188.217 143.399 188.228 143.9H186.788C186.777 143.495 186.644 143.18 186.388 142.956C186.132 142.732 185.774 142.62 185.316 142.62C184.846 142.62 184.484 142.721 184.228 142.924C183.972 143.127 183.844 143.404 183.844 143.756C183.844 144.279 184.228 144.636 184.996 144.828L186.372 145.164C187.033 145.313 187.529 145.559 187.86 145.9C188.19 146.231 188.356 146.684 188.356 147.26C188.356 147.751 188.222 148.183 187.956 148.556C187.689 148.919 187.321 149.201 186.852 149.404C186.393 149.596 185.849 149.692 185.22 149.692C184.302 149.692 183.572 149.468 183.028 149.02C182.484 148.572 182.212 147.975 182.212 147.228ZM193.24 149.692C192.482 149.692 191.81 149.521 191.224 149.18C190.637 148.828 190.178 148.348 189.848 147.74C189.517 147.121 189.352 146.407 189.352 145.596C189.352 144.775 189.512 144.055 189.832 143.436C190.162 142.817 190.61 142.332 191.176 141.98C191.752 141.628 192.418 141.452 193.176 141.452C193.922 141.452 194.568 141.612 195.112 141.932C195.666 142.252 196.093 142.7 196.392 143.276C196.701 143.852 196.856 144.529 196.856 145.308V145.868L190.152 145.884L190.184 144.876H195.352C195.352 144.225 195.154 143.703 194.76 143.308C194.365 142.913 193.837 142.716 193.176 142.716C192.674 142.716 192.242 142.828 191.88 143.052C191.528 143.265 191.256 143.585 191.064 144.012C190.882 144.428 190.792 144.929 190.792 145.516C190.792 146.455 191.005 147.18 191.432 147.692C191.858 148.193 192.472 148.444 193.272 148.444C193.858 148.444 194.338 148.327 194.712 148.092C195.085 147.857 195.336 147.516 195.464 147.068H196.872C196.68 147.9 196.269 148.545 195.64 149.004C195.01 149.463 194.21 149.692 193.24 149.692ZM203.784 141.676H205.272V149.5H203.928L203.768 148.316C203.544 148.721 203.192 149.052 202.712 149.308C202.232 149.564 201.704 149.692 201.128 149.692C200.221 149.692 199.517 149.409 199.016 148.844C198.525 148.268 198.28 147.5 198.28 146.54V141.676H199.784V146.044C199.784 146.876 199.949 147.473 200.28 147.836C200.621 148.188 201.08 148.364 201.656 148.364C202.349 148.364 202.877 148.151 203.24 147.724C203.602 147.287 203.784 146.647 203.784 145.804V141.676ZM208.83 149.5H207.326V137.724H208.83V149.5ZM214.26 149.692C213.502 149.692 212.83 149.521 212.244 149.18C211.657 148.828 211.198 148.348 210.868 147.74C210.537 147.121 210.372 146.407 210.372 145.596C210.372 144.775 210.532 144.055 210.852 143.436C211.182 142.817 211.63 142.332 212.196 141.98C212.772 141.628 213.438 141.452 214.196 141.452C214.942 141.452 215.588 141.612 216.132 141.932C216.686 142.252 217.113 142.7 217.412 143.276C217.721 143.852 217.876 144.529 217.876 145.308V145.868L211.172 145.884L211.204 144.876H216.372C216.372 144.225 216.174 143.703 215.78 143.308C215.385 142.913 214.857 142.716 214.196 142.716C213.694 142.716 213.262 142.828 212.9 143.052C212.548 143.265 212.276 143.585 212.084 144.012C211.902 144.428 211.812 144.929 211.812 145.516C211.812 146.455 212.025 147.18 212.452 147.692C212.878 148.193 213.492 148.444 214.292 148.444C214.878 148.444 215.358 148.327 215.732 148.092C216.105 147.857 216.356 147.516 216.484 147.068H217.892C217.7 147.9 217.289 148.545 216.66 149.004C216.03 149.463 215.23 149.692 214.26 149.692ZM223.61 153.004V141.676H224.97L225.082 143.084C225.338 142.54 225.717 142.135 226.218 141.868C226.73 141.591 227.296 141.452 227.914 141.452C228.661 141.452 229.306 141.628 229.85 141.98C230.394 142.321 230.81 142.801 231.098 143.42C231.397 144.028 231.546 144.732 231.546 145.532C231.546 146.332 231.402 147.047 231.114 147.676C230.837 148.305 230.426 148.801 229.882 149.164C229.349 149.527 228.693 149.708 227.914 149.708C227.285 149.708 226.725 149.58 226.234 149.324C225.744 149.068 225.37 148.7 225.114 148.22V153.004H223.61ZM225.13 145.596C225.13 146.119 225.226 146.593 225.418 147.02C225.621 147.436 225.904 147.761 226.266 147.996C226.64 148.231 227.082 148.348 227.594 148.348C228.106 148.348 228.544 148.231 228.906 147.996C229.269 147.751 229.546 147.42 229.738 147.004C229.941 146.588 230.042 146.119 230.042 145.596C230.042 145.052 229.941 144.572 229.738 144.156C229.546 143.74 229.269 143.415 228.906 143.18C228.544 142.945 228.106 142.828 227.594 142.828C227.082 142.828 226.64 142.945 226.266 143.18C225.904 143.415 225.621 143.74 225.418 144.156C225.226 144.572 225.13 145.052 225.13 145.596ZM235.332 149.692C234.5 149.692 233.844 149.473 233.364 149.036C232.895 148.599 232.66 148.028 232.66 147.324C232.66 146.609 232.916 146.039 233.428 145.612C233.94 145.175 234.655 144.919 235.572 144.844L238.036 144.652V144.428C238.036 143.991 237.956 143.644 237.796 143.388C237.636 143.121 237.418 142.935 237.14 142.828C236.863 142.711 236.548 142.652 236.196 142.652C235.567 142.652 235.076 142.785 234.724 143.052C234.383 143.308 234.212 143.676 234.212 144.156H232.9C232.9 143.612 233.039 143.137 233.316 142.732C233.594 142.327 233.983 142.012 234.484 141.788C234.996 141.564 235.588 141.452 236.26 141.452C236.911 141.452 237.476 141.569 237.956 141.804C238.447 142.028 238.826 142.375 239.092 142.844C239.37 143.303 239.508 143.884 239.508 144.588V149.5H238.228L238.068 148.236C237.866 148.684 237.514 149.041 237.012 149.308C236.522 149.564 235.962 149.692 235.332 149.692ZM235.764 148.524C236.479 148.524 237.039 148.311 237.444 147.884C237.85 147.447 238.052 146.86 238.052 146.124V145.708L236.052 145.868C235.391 145.932 234.911 146.087 234.612 146.332C234.324 146.577 234.18 146.892 234.18 147.276C234.18 147.692 234.319 148.007 234.596 148.22C234.884 148.423 235.274 148.524 235.764 148.524ZM245.911 141.612V142.988H245.239C244.524 142.988 243.959 143.196 243.543 143.612C243.138 144.017 242.935 144.599 242.935 145.356V149.5H241.431V141.692H242.839L242.967 143.26H242.823C242.93 142.748 243.186 142.332 243.591 142.012C243.996 141.681 244.503 141.516 245.111 141.516C245.25 141.516 245.378 141.527 245.495 141.548C245.623 141.559 245.762 141.58 245.911 141.612ZM246.642 141.676H251.218V142.94H246.642V141.676ZM249.682 149.5H248.178V139.228H249.682V149.5ZM252.408 149.5V141.676H253.912V149.5H252.408ZM253.144 139.82C252.877 139.82 252.643 139.724 252.44 139.532C252.248 139.329 252.152 139.095 252.152 138.828C252.152 138.551 252.248 138.316 252.44 138.124C252.643 137.932 252.877 137.836 253.144 137.836C253.421 137.836 253.656 137.932 253.848 138.124C254.04 138.316 254.136 138.551 254.136 138.828C254.136 139.095 254.04 139.329 253.848 139.532C253.656 139.724 253.421 139.82 253.144 139.82ZM259.312 149.692C258.554 149.692 257.882 149.521 257.296 149.18C256.709 148.828 256.25 148.348 255.92 147.74C255.589 147.121 255.424 146.407 255.424 145.596C255.424 144.775 255.584 144.055 255.904 143.436C256.234 142.817 256.682 142.332 257.248 141.98C257.824 141.628 258.49 141.452 259.248 141.452C259.994 141.452 260.64 141.612 261.184 141.932C261.738 142.252 262.165 142.7 262.464 143.276C262.773 143.852 262.928 144.529 262.928 145.308V145.868L256.224 145.884L256.256 144.876H261.424C261.424 144.225 261.226 143.703 260.832 143.308C260.437 142.913 259.909 142.716 259.248 142.716C258.746 142.716 258.314 142.828 257.952 143.052C257.6 143.265 257.328 143.585 257.136 144.012C256.954 144.428 256.864 144.929 256.864 145.516C256.864 146.455 257.077 147.18 257.504 147.692C257.93 148.193 258.544 148.444 259.344 148.444C259.93 148.444 260.41 148.327 260.784 148.092C261.157 147.857 261.408 147.516 261.536 147.068H262.944C262.752 147.9 262.341 148.545 261.712 149.004C261.082 149.463 260.282 149.692 259.312 149.692ZM268.15 145.532C268.15 144.732 268.3 144.028 268.598 143.42C268.897 142.801 269.318 142.321 269.862 141.98C270.406 141.628 271.052 141.452 271.798 141.452C272.417 141.452 272.977 141.591 273.478 141.868C273.98 142.135 274.358 142.54 274.614 143.084L274.742 141.676H276.086V153.004H274.598V148.22C274.332 148.7 273.953 149.068 273.462 149.324C272.972 149.58 272.412 149.708 271.782 149.708C271.014 149.708 270.358 149.527 269.814 149.164C269.27 148.801 268.854 148.305 268.566 147.676C268.289 147.047 268.15 146.332 268.15 145.532ZM269.67 145.596C269.67 146.119 269.766 146.588 269.958 147.004C270.15 147.42 270.428 147.751 270.79 147.996C271.153 148.231 271.59 148.348 272.102 148.348C272.614 148.348 273.052 148.231 273.414 147.996C273.788 147.761 274.076 147.436 274.278 147.02C274.481 146.593 274.582 146.119 274.582 145.596C274.582 145.052 274.481 144.572 274.278 144.156C274.076 143.74 273.788 143.415 273.414 143.18C273.052 142.945 272.614 142.828 272.102 142.828C271.59 142.828 271.153 142.945 270.79 143.18C270.428 143.415 270.15 143.74 269.958 144.156C269.766 144.572 269.67 145.052 269.67 145.596ZM283.504 141.676H284.992V149.5H283.648L283.488 148.316C283.264 148.721 282.912 149.052 282.432 149.308C281.952 149.564 281.424 149.692 280.848 149.692C279.941 149.692 279.237 149.409 278.736 148.844C278.245 148.268 278 147.5 278 146.54V141.676H279.504V146.044C279.504 146.876 279.669 147.473 280 147.836C280.341 148.188 280.8 148.364 281.376 148.364C282.069 148.364 282.597 148.151 282.96 147.724C283.323 147.287 283.504 146.647 283.504 145.804V141.676ZM290.234 149.692C289.477 149.692 288.805 149.521 288.218 149.18C287.631 148.828 287.173 148.348 286.842 147.74C286.511 147.121 286.346 146.407 286.346 145.596C286.346 144.775 286.506 144.055 286.826 143.436C287.157 142.817 287.605 142.332 288.17 141.98C288.746 141.628 289.413 141.452 290.17 141.452C290.917 141.452 291.562 141.612 292.106 141.932C292.661 142.252 293.087 142.7 293.386 143.276C293.695 143.852 293.85 144.529 293.85 145.308V145.868L287.146 145.884L287.178 144.876H292.346C292.346 144.225 292.149 143.703 291.754 143.308C291.359 142.913 290.831 142.716 290.17 142.716C289.669 142.716 289.237 142.828 288.874 143.052C288.522 143.265 288.25 143.585 288.058 144.012C287.877 144.428 287.786 144.929 287.786 145.516C287.786 146.455 287.999 147.18 288.426 147.692C288.853 148.193 289.466 148.444 290.266 148.444C290.853 148.444 291.333 148.327 291.706 148.092C292.079 147.857 292.33 147.516 292.458 147.068H293.866C293.674 147.9 293.263 148.545 292.634 149.004C292.005 149.463 291.205 149.692 290.234 149.692ZM298.753 141.676H303.329V142.94H298.753V141.676ZM301.793 149.5H300.289V139.228H301.793V149.5ZM309.927 141.676H311.415V149.5H310.071L309.911 148.316C309.687 148.721 309.335 149.052 308.855 149.308C308.375 149.564 307.847 149.692 307.271 149.692C306.364 149.692 305.66 149.409 305.159 148.844C304.668 148.268 304.423 147.5 304.423 146.54V141.676H305.927V146.044C305.927 146.876 306.092 147.473 306.423 147.836C306.764 148.188 307.223 148.364 307.799 148.364C308.492 148.364 309.02 148.151 309.383 147.724C309.745 147.287 309.927 146.647 309.927 145.804V141.676ZM66.6205 172.004V160.676H67.9805L68.0925 162.084C68.3485 161.54 68.7272 161.135 69.2285 160.868C69.7405 160.591 70.3058 160.452 70.9245 160.452C71.6712 160.452 72.3165 160.628 72.8605 160.98C73.4045 161.321 73.8205 161.801 74.1085 162.42C74.4072 163.028 74.5565 163.732 74.5565 164.532C74.5565 165.332 74.4125 166.047 74.1245 166.676C73.8472 167.305 73.4365 167.801 72.8925 168.164C72.3592 168.527 71.7032 168.708 70.9245 168.708C70.2952 168.708 69.7352 168.58 69.2445 168.324C68.7538 168.068 68.3805 167.7 68.1245 167.22V172.004H66.6205ZM68.1405 164.596C68.1405 165.119 68.2365 165.593 68.4285 166.02C68.6312 166.436 68.9138 166.761 69.2765 166.996C69.6498 167.231 70.0925 167.348 70.6045 167.348C71.1165 167.348 71.5538 167.231 71.9165 166.996C72.2792 166.751 72.5565 166.42 72.7485 166.004C72.9512 165.588 73.0525 165.119 73.0525 164.596C73.0525 164.052 72.9512 163.572 72.7485 163.156C72.5565 162.74 72.2792 162.415 71.9165 162.18C71.5538 161.945 71.1165 161.828 70.6045 161.828C70.0925 161.828 69.6498 161.945 69.2765 162.18C68.9138 162.415 68.6312 162.74 68.4285 163.156C68.2365 163.572 68.1405 164.052 68.1405 164.596ZM79.4303 168.692C78.6729 168.692 78.0009 168.521 77.4143 168.18C76.8276 167.828 76.3689 167.348 76.0383 166.74C75.7076 166.121 75.5423 165.407 75.5423 164.596C75.5423 163.775 75.7023 163.055 76.0223 162.436C76.3529 161.817 76.8009 161.332 77.3663 160.98C77.9423 160.628 78.6089 160.452 79.3663 160.452C80.1129 160.452 80.7583 160.612 81.3023 160.932C81.8569 161.252 82.2836 161.7 82.5823 162.276C82.8916 162.852 83.0463 163.529 83.0463 164.308V164.868L76.3423 164.884L76.3743 163.876H81.5423C81.5423 163.225 81.3449 162.703 80.9503 162.308C80.5556 161.913 80.0276 161.716 79.3663 161.716C78.8649 161.716 78.4329 161.828 78.0703 162.052C77.7183 162.265 77.4463 162.585 77.2543 163.012C77.0729 163.428 76.9823 163.929 76.9823 164.516C76.9823 165.455 77.1956 166.18 77.6223 166.692C78.0489 167.193 78.6623 167.444 79.4623 167.444C80.0489 167.444 80.5289 167.327 80.9023 167.092C81.2756 166.857 81.5263 166.516 81.6543 166.068H83.0623C82.8703 166.9 82.4596 167.545 81.8303 168.004C81.2009 168.463 80.4009 168.692 79.4303 168.692ZM89.9741 160.676H91.4621V168.5H90.1181L89.9581 167.316C89.7341 167.721 89.3821 168.052 88.9021 168.308C88.4221 168.564 87.8941 168.692 87.3181 168.692C86.4115 168.692 85.7075 168.409 85.2061 167.844C84.7155 167.268 84.4701 166.5 84.4701 165.54V160.676H85.9741V165.044C85.9741 165.876 86.1395 166.473 86.4701 166.836C86.8115 167.188 87.2701 167.364 87.8461 167.364C88.5395 167.364 89.0675 167.151 89.4301 166.724C89.7928 166.287 89.9741 165.647 89.9741 164.804V160.676ZM94.2843 168.5H92.5563L95.2923 164.628L92.5723 160.676H94.3163L96.3003 163.588L98.2363 160.676H99.9483L97.2283 164.628L99.9003 168.5H98.1563L96.2043 165.636L94.2843 168.5ZM104.746 164.532C104.746 163.732 104.895 163.028 105.194 162.42C105.493 161.801 105.914 161.321 106.458 160.98C107.002 160.628 107.647 160.452 108.394 160.452C109.013 160.452 109.573 160.591 110.074 160.868C110.575 161.135 110.954 161.54 111.21 162.084L111.338 160.676H112.682V172.004H111.194V167.22C110.927 167.7 110.549 168.068 110.058 168.324C109.567 168.58 109.007 168.708 108.378 168.708C107.61 168.708 106.954 168.527 106.41 168.164C105.866 167.801 105.45 167.305 105.162 166.676C104.885 166.047 104.746 165.332 104.746 164.532ZM106.266 164.596C106.266 165.119 106.362 165.588 106.554 166.004C106.746 166.42 107.023 166.751 107.386 166.996C107.749 167.231 108.186 167.348 108.698 167.348C109.21 167.348 109.647 167.231 110.01 166.996C110.383 166.761 110.671 166.436 110.874 166.02C111.077 165.593 111.178 165.119 111.178 164.596C111.178 164.052 111.077 163.572 110.874 163.156C110.671 162.74 110.383 162.415 110.01 162.18C109.647 161.945 109.21 161.828 108.698 161.828C108.186 161.828 107.749 161.945 107.386 162.18C107.023 162.415 106.746 162.74 106.554 163.156C106.362 163.572 106.266 164.052 106.266 164.596ZM120.1 160.676H121.588V168.5H120.244L120.084 167.316C119.86 167.721 119.508 168.052 119.028 168.308C118.548 168.564 118.02 168.692 117.444 168.692C116.537 168.692 115.833 168.409 115.332 167.844C114.841 167.268 114.596 166.5 114.596 165.54V160.676H116.1V165.044C116.1 165.876 116.265 166.473 116.596 166.836C116.937 167.188 117.396 167.364 117.972 167.364C118.665 167.364 119.193 167.151 119.556 166.724C119.918 166.287 120.1 165.647 120.1 164.804V160.676ZM123.61 168.5V160.676H125.114V168.5H123.61ZM124.346 158.82C124.079 158.82 123.845 158.724 123.642 158.532C123.45 158.329 123.354 158.095 123.354 157.828C123.354 157.551 123.45 157.316 123.642 157.124C123.845 156.932 124.079 156.836 124.346 156.836C124.623 156.836 124.858 156.932 125.05 157.124C125.242 157.316 125.338 157.551 125.338 157.828C125.338 158.095 125.242 158.329 125.05 158.532C124.858 158.724 124.623 158.82 124.346 158.82ZM126.305 160.676H130.881V161.94H126.305V160.676ZM129.345 168.5H127.841V158.228H129.345V168.5ZM131.38 160.676H135.956V161.94H131.38V160.676ZM134.42 168.5H132.916V158.228H134.42V168.5ZM140.443 168.692C139.686 168.692 139.014 168.521 138.427 168.18C137.841 167.828 137.382 167.348 137.051 166.74C136.721 166.121 136.555 165.407 136.555 164.596C136.555 163.775 136.715 163.055 137.035 162.436C137.366 161.817 137.814 161.332 138.379 160.98C138.955 160.628 139.622 160.452 140.379 160.452C141.126 160.452 141.771 160.612 142.315 160.932C142.87 161.252 143.297 161.7 143.595 162.276C143.905 162.852 144.059 163.529 144.059 164.308V164.868L137.355 164.884L137.387 163.876H142.555C142.555 163.225 142.358 162.703 141.963 162.308C141.569 161.913 141.041 161.716 140.379 161.716C139.878 161.716 139.446 161.828 139.083 162.052C138.731 162.265 138.459 162.585 138.267 163.012C138.086 163.428 137.995 163.929 137.995 164.516C137.995 165.455 138.209 166.18 138.635 166.692C139.062 167.193 139.675 167.444 140.475 167.444C141.062 167.444 141.542 167.327 141.915 167.092C142.289 166.857 142.539 166.516 142.667 166.068H144.075C143.883 166.9 143.473 167.545 142.843 168.004C142.214 168.463 141.414 168.692 140.443 168.692ZM150.059 160.612V161.988H149.387C148.673 161.988 148.107 162.196 147.691 162.612C147.286 163.017 147.083 163.599 147.083 164.356V168.5H145.579V160.692H146.987L147.115 162.26H146.971C147.078 161.748 147.334 161.332 147.739 161.012C148.145 160.681 148.651 160.516 149.259 160.516C149.398 160.516 149.526 160.527 149.643 160.548C149.771 160.559 149.91 160.58 150.059 160.612ZM158.901 168.692C158.144 168.692 157.472 168.521 156.885 168.18C156.298 167.828 155.84 167.348 155.509 166.74C155.178 166.121 155.013 165.407 155.013 164.596C155.013 163.775 155.173 163.055 155.493 162.436C155.824 161.817 156.272 161.332 156.837 160.98C157.413 160.628 158.08 160.452 158.837 160.452C159.584 160.452 160.229 160.612 160.773 160.932C161.328 161.252 161.754 161.7 162.053 162.276C162.362 162.852 162.517 163.529 162.517 164.308V164.868L155.813 164.884L155.845 163.876H161.013C161.013 163.225 160.816 162.703 160.421 162.308C160.026 161.913 159.498 161.716 158.837 161.716C158.336 161.716 157.904 161.828 157.541 162.052C157.189 162.265 156.917 162.585 156.725 163.012C156.544 163.428 156.453 163.929 156.453 164.516C156.453 165.455 156.666 166.18 157.093 166.692C157.52 167.193 158.133 167.444 158.933 167.444C159.52 167.444 160 167.327 160.373 167.092C160.746 166.857 160.997 166.516 161.125 166.068H162.533C162.341 166.9 161.93 167.545 161.301 168.004C160.672 168.463 159.872 168.692 158.901 168.692ZM165.541 168.5H164.037V160.676H165.397L165.557 161.876C165.802 161.428 166.154 161.081 166.613 160.836C167.082 160.58 167.594 160.452 168.149 160.452C169.173 160.452 169.93 160.745 170.421 161.332C170.911 161.919 171.157 162.713 171.157 163.716V168.5H169.653V164.052C169.653 163.263 169.482 162.697 169.141 162.356C168.799 162.004 168.341 161.828 167.765 161.828C167.061 161.828 166.511 162.057 166.117 162.516C165.733 162.975 165.541 163.588 165.541 164.356V168.5ZM176.799 164.388C176.799 163.652 176.948 162.991 177.247 162.404C177.546 161.807 177.972 161.332 178.527 160.98C179.082 160.628 179.738 160.452 180.495 160.452C181.199 160.452 181.802 160.623 182.303 160.964C182.804 161.295 183.162 161.759 183.375 162.356L183.183 162.564L183.343 160.676H184.687V168.18C184.687 169.001 184.527 169.711 184.207 170.308C183.887 170.916 183.434 171.385 182.847 171.716C182.26 172.047 181.567 172.212 180.767 172.212C179.7 172.212 178.826 171.929 178.143 171.364C177.46 170.799 177.044 170.02 176.895 169.028H178.399C178.495 169.604 178.751 170.052 179.167 170.372C179.583 170.692 180.116 170.852 180.767 170.852C181.503 170.852 182.09 170.628 182.527 170.18C182.975 169.743 183.199 169.151 183.199 168.404V166.196L183.391 166.404C183.188 166.991 182.82 167.455 182.287 167.796C181.754 168.127 181.135 168.292 180.431 168.292C179.684 168.292 179.039 168.121 178.495 167.78C177.951 167.428 177.53 166.959 177.231 166.372C176.943 165.785 176.799 165.124 176.799 164.388ZM178.303 164.356C178.303 164.847 178.399 165.289 178.591 165.684C178.794 166.079 179.071 166.393 179.423 166.628C179.786 166.863 180.207 166.98 180.687 166.98C181.199 166.98 181.636 166.868 181.999 166.644C182.362 166.42 182.639 166.111 182.831 165.716C183.034 165.321 183.135 164.868 183.135 164.356C183.135 163.844 183.039 163.396 182.847 163.012C182.655 162.628 182.378 162.324 182.015 162.1C181.652 161.876 181.215 161.764 180.703 161.764C180.202 161.764 179.77 161.881 179.407 162.116C179.055 162.351 178.783 162.665 178.591 163.06C178.399 163.444 178.303 163.876 178.303 164.356ZM188.985 168.692C188.153 168.692 187.497 168.473 187.017 168.036C186.548 167.599 186.313 167.028 186.313 166.324C186.313 165.609 186.569 165.039 187.081 164.612C187.593 164.175 188.308 163.919 189.225 163.844L191.689 163.652V163.428C191.689 162.991 191.609 162.644 191.449 162.388C191.289 162.121 191.071 161.935 190.793 161.828C190.516 161.711 190.201 161.652 189.849 161.652C189.22 161.652 188.729 161.785 188.377 162.052C188.036 162.308 187.865 162.676 187.865 163.156H186.553C186.553 162.612 186.692 162.137 186.969 161.732C187.247 161.327 187.636 161.012 188.137 160.788C188.649 160.564 189.241 160.452 189.913 160.452C190.564 160.452 191.129 160.569 191.609 160.804C192.1 161.028 192.479 161.375 192.745 161.844C193.023 162.303 193.161 162.884 193.161 163.588V168.5H191.881L191.721 167.236C191.519 167.684 191.167 168.041 190.665 168.308C190.175 168.564 189.615 168.692 188.985 168.692ZM189.417 167.524C190.132 167.524 190.692 167.311 191.097 166.884C191.503 166.447 191.705 165.86 191.705 165.124V164.708L189.705 164.868C189.044 164.932 188.564 165.087 188.265 165.332C187.977 165.577 187.833 165.892 187.833 166.276C187.833 166.692 187.972 167.007 188.249 167.22C188.537 167.423 188.927 167.524 189.417 167.524ZM199.564 160.612V161.988H198.892C198.178 161.988 197.612 162.196 197.196 162.612C196.791 163.017 196.588 163.599 196.588 164.356V168.5H195.084V160.692H196.492L196.62 162.26H196.476C196.583 161.748 196.839 161.332 197.244 161.012C197.65 160.681 198.156 160.516 198.764 160.516C198.903 160.516 199.031 160.527 199.148 160.548C199.276 160.559 199.415 160.58 199.564 160.612ZM203.67 168.692C202.912 168.692 202.262 168.521 201.718 168.18C201.174 167.828 200.752 167.343 200.454 166.724C200.166 166.105 200.022 165.401 200.022 164.612C200.022 163.812 200.171 163.103 200.47 162.484C200.768 161.855 201.195 161.359 201.75 160.996C202.304 160.633 202.966 160.452 203.734 160.452C204.342 160.452 204.88 160.58 205.35 160.836C205.83 161.081 206.203 161.449 206.47 161.94V156.724H207.958V168.5H206.614L206.486 167.076C206.23 167.599 205.851 167.999 205.35 168.276C204.859 168.553 204.299 168.692 203.67 168.692ZM203.974 167.332C204.486 167.332 204.923 167.215 205.286 166.98C205.659 166.745 205.947 166.42 206.15 166.004C206.352 165.588 206.454 165.108 206.454 164.564C206.454 164.02 206.352 163.545 206.15 163.14C205.947 162.724 205.659 162.399 205.286 162.164C204.923 161.929 204.486 161.812 203.974 161.812C203.462 161.812 203.024 161.935 202.662 162.18C202.299 162.415 202.022 162.74 201.83 163.156C201.638 163.561 201.542 164.031 201.542 164.564C201.542 165.108 201.638 165.588 201.83 166.004C202.022 166.42 202.299 166.745 202.662 166.98C203.024 167.215 203.462 167.332 203.974 167.332ZM212.255 168.692C211.423 168.692 210.767 168.473 210.287 168.036C209.818 167.599 209.583 167.028 209.583 166.324C209.583 165.609 209.839 165.039 210.351 164.612C210.863 164.175 211.578 163.919 212.495 163.844L214.959 163.652V163.428C214.959 162.991 214.879 162.644 214.719 162.388C214.559 162.121 214.341 161.935 214.063 161.828C213.786 161.711 213.471 161.652 213.119 161.652C212.49 161.652 211.999 161.785 211.647 162.052C211.306 162.308 211.135 162.676 211.135 163.156H209.823C209.823 162.612 209.962 162.137 210.239 161.732C210.517 161.327 210.906 161.012 211.407 160.788C211.919 160.564 212.511 160.452 213.183 160.452C213.834 160.452 214.399 160.569 214.879 160.804C215.37 161.028 215.749 161.375 216.015 161.844C216.293 162.303 216.431 162.884 216.431 163.588V168.5H215.151L214.991 167.236C214.789 167.684 214.437 168.041 213.935 168.308C213.445 168.564 212.885 168.692 212.255 168.692ZM212.687 167.524C213.402 167.524 213.962 167.311 214.367 166.884C214.773 166.447 214.975 165.86 214.975 165.124V164.708L212.975 164.868C212.314 164.932 211.834 165.087 211.535 165.332C211.247 165.577 211.103 165.892 211.103 166.276C211.103 166.692 211.242 167.007 211.519 167.22C211.807 167.423 212.197 167.524 212.687 167.524ZM219.858 168.5H218.354V160.676H219.714L219.874 161.876C220.12 161.428 220.472 161.081 220.93 160.836C221.4 160.58 221.912 160.452 222.466 160.452C223.49 160.452 224.248 160.745 224.738 161.332C225.229 161.919 225.474 162.713 225.474 163.716V168.5H223.97V164.052C223.97 163.263 223.8 162.697 223.458 162.356C223.117 162.004 222.658 161.828 222.082 161.828C221.378 161.828 220.829 162.057 220.434 162.516C220.05 162.975 219.858 163.588 219.858 164.356V168.5ZM226.565 160.676H231.141V161.94H226.565V160.676ZM229.605 168.5H228.101V158.228H229.605V168.5ZM235.714 160.676H240.29V161.94H235.714V160.676ZM238.754 168.5H237.25V158.228H238.754V168.5ZM244.778 168.692C244.02 168.692 243.348 168.521 242.762 168.18C242.175 167.828 241.716 167.348 241.386 166.74C241.055 166.121 240.89 165.407 240.89 164.596C240.89 163.775 241.05 163.055 241.37 162.436C241.7 161.817 242.148 161.332 242.714 160.98C243.29 160.628 243.956 160.452 244.714 160.452C245.46 160.452 246.106 160.612 246.65 160.932C247.204 161.252 247.631 161.7 247.93 162.276C248.239 162.852 248.394 163.529 248.394 164.308V164.868L241.69 164.884L241.722 163.876H246.89C246.89 163.225 246.692 162.703 246.298 162.308C245.903 161.913 245.375 161.716 244.714 161.716C244.212 161.716 243.78 161.828 243.418 162.052C243.066 162.265 242.794 162.585 242.602 163.012C242.42 163.428 242.33 163.929 242.33 164.516C242.33 165.455 242.543 166.18 242.97 166.692C243.396 167.193 244.01 167.444 244.81 167.444C245.396 167.444 245.876 167.327 246.25 167.092C246.623 166.857 246.874 166.516 247.002 166.068H248.41C248.218 166.9 247.807 167.545 247.178 168.004C246.548 168.463 245.748 168.692 244.778 168.692ZM249.274 166.228H250.714C250.714 166.623 250.858 166.937 251.146 167.172C251.434 167.396 251.823 167.508 252.314 167.508C252.847 167.508 253.258 167.407 253.546 167.204C253.834 166.991 253.978 166.708 253.978 166.356C253.978 166.1 253.898 165.887 253.738 165.716C253.588 165.545 253.311 165.407 252.906 165.3L251.53 164.98C250.836 164.809 250.319 164.548 249.978 164.196C249.647 163.844 249.482 163.38 249.482 162.804C249.482 162.324 249.604 161.908 249.85 161.556C250.106 161.204 250.452 160.932 250.89 160.74C251.338 160.548 251.85 160.452 252.426 160.452C253.002 160.452 253.498 160.553 253.914 160.756C254.34 160.959 254.671 161.241 254.906 161.604C255.151 161.967 255.279 162.399 255.29 162.9H253.85C253.839 162.495 253.706 162.18 253.45 161.956C253.194 161.732 252.836 161.62 252.378 161.62C251.908 161.62 251.546 161.721 251.29 161.924C251.034 162.127 250.906 162.404 250.906 162.756C250.906 163.279 251.29 163.636 252.058 163.828L253.434 164.164C254.095 164.313 254.591 164.559 254.922 164.9C255.252 165.231 255.418 165.684 255.418 166.26C255.418 166.751 255.284 167.183 255.018 167.556C254.751 167.919 254.383 168.201 253.914 168.404C253.455 168.596 252.911 168.692 252.282 168.692C251.364 168.692 250.634 168.468 250.09 168.02C249.546 167.572 249.274 166.975 249.274 166.228ZM261.141 172.004V160.676H262.501L262.613 162.084C262.869 161.54 263.247 161.135 263.749 160.868C264.261 160.591 264.826 160.452 265.445 160.452C266.191 160.452 266.837 160.628 267.381 160.98C267.925 161.321 268.341 161.801 268.629 162.42C268.927 163.028 269.077 163.732 269.077 164.532C269.077 165.332 268.933 166.047 268.645 166.676C268.367 167.305 267.957 167.801 267.413 168.164C266.879 168.527 266.223 168.708 265.445 168.708C264.815 168.708 264.255 168.58 263.765 168.324C263.274 168.068 262.901 167.7 262.645 167.22V172.004H261.141ZM262.661 164.596C262.661 165.119 262.757 165.593 262.949 166.02C263.151 166.436 263.434 166.761 263.797 166.996C264.17 167.231 264.613 167.348 265.125 167.348C265.637 167.348 266.074 167.231 266.437 166.996C266.799 166.751 267.077 166.42 267.269 166.004C267.471 165.588 267.573 165.119 267.573 164.596C267.573 164.052 267.471 163.572 267.269 163.156C267.077 162.74 266.799 162.415 266.437 162.18C266.074 161.945 265.637 161.828 265.125 161.828C264.613 161.828 264.17 161.945 263.797 162.18C263.434 162.415 263.151 162.74 262.949 163.156C262.757 163.572 262.661 164.052 262.661 164.596ZM270.062 164.58C270.062 163.78 270.238 163.071 270.59 162.452C270.942 161.833 271.422 161.348 272.03 160.996C272.649 160.644 273.353 160.468 274.142 160.468C274.932 160.468 275.63 160.644 276.238 160.996C276.846 161.348 277.326 161.833 277.678 162.452C278.03 163.071 278.206 163.78 278.206 164.58C278.206 165.38 278.03 166.089 277.678 166.708C277.326 167.327 276.846 167.812 276.238 168.164C275.63 168.516 274.932 168.692 274.142 168.692C273.353 168.692 272.649 168.516 272.03 168.164C271.422 167.812 270.942 167.327 270.59 166.708C270.238 166.089 270.062 165.38 270.062 164.58ZM271.582 164.58C271.582 165.124 271.689 165.604 271.902 166.02C272.126 166.436 272.43 166.761 272.814 166.996C273.198 167.231 273.641 167.348 274.142 167.348C274.644 167.348 275.086 167.231 275.47 166.996C275.854 166.761 276.153 166.436 276.366 166.02C276.59 165.604 276.702 165.124 276.702 164.58C276.702 164.025 276.59 163.545 276.366 163.14C276.153 162.724 275.854 162.399 275.47 162.164C275.086 161.929 274.644 161.812 274.142 161.812C273.641 161.812 273.198 161.929 272.814 162.164C272.43 162.399 272.126 162.724 271.902 163.14C271.689 163.545 271.582 164.025 271.582 164.58ZM279.711 168.5V160.676H281.215V168.5H279.711ZM280.447 158.82C280.18 158.82 279.946 158.724 279.743 158.532C279.551 158.329 279.455 158.095 279.455 157.828C279.455 157.551 279.551 157.316 279.743 157.124C279.946 156.932 280.18 156.836 280.447 156.836C280.724 156.836 280.959 156.932 281.151 157.124C281.343 157.316 281.439 157.551 281.439 157.828C281.439 158.095 281.343 158.329 281.151 158.532C280.959 158.724 280.724 158.82 280.447 158.82ZM284.743 168.5H283.239V160.676H284.599L284.759 161.876C285.004 161.428 285.356 161.081 285.815 160.836C286.284 160.58 286.796 160.452 287.351 160.452C288.375 160.452 289.132 160.745 289.623 161.332C290.113 161.919 290.359 162.713 290.359 163.716V168.5H288.855V164.052C288.855 163.263 288.684 162.697 288.343 162.356C288.001 162.004 287.543 161.828 286.967 161.828C286.263 161.828 285.713 162.057 285.319 162.516C284.935 162.975 284.743 163.588 284.743 164.356V168.5ZM291.45 160.676H296.026V161.94H291.45V160.676ZM294.49 168.5H292.986V158.228H294.49V168.5ZM296.576 166.228H298.016C298.016 166.623 298.16 166.937 298.448 167.172C298.736 167.396 299.125 167.508 299.616 167.508C300.149 167.508 300.56 167.407 300.848 167.204C301.136 166.991 301.28 166.708 301.28 166.356C301.28 166.1 301.2 165.887 301.04 165.716C300.89 165.545 300.613 165.407 300.208 165.3L298.832 164.98C298.138 164.809 297.621 164.548 297.28 164.196C296.949 163.844 296.784 163.38 296.784 162.804C296.784 162.324 296.906 161.908 297.152 161.556C297.408 161.204 297.754 160.932 298.192 160.74C298.64 160.548 299.152 160.452 299.728 160.452C300.304 160.452 300.8 160.553 301.216 160.756C301.642 160.959 301.973 161.241 302.208 161.604C302.453 161.967 302.581 162.399 302.592 162.9H301.152C301.141 162.495 301.008 162.18 300.752 161.956C300.496 161.732 300.138 161.62 299.68 161.62C299.21 161.62 298.848 161.721 298.592 161.924C298.336 162.127 298.208 162.404 298.208 162.756C298.208 163.279 298.592 163.636 299.36 163.828L300.736 164.164C301.397 164.313 301.893 164.559 302.224 164.9C302.554 165.231 302.72 165.684 302.72 166.26C302.72 166.751 302.586 167.183 302.32 167.556C302.053 167.919 301.685 168.201 301.216 168.404C300.757 168.596 300.213 168.692 299.584 168.692C298.666 168.692 297.936 168.468 297.392 168.02C296.848 167.572 296.576 166.975 296.576 166.228ZM305.254 168.692C304.944 168.692 304.672 168.585 304.438 168.372C304.214 168.148 304.102 167.881 304.102 167.572C304.102 167.252 304.214 166.985 304.438 166.772C304.672 166.548 304.944 166.436 305.254 166.436C305.563 166.436 305.83 166.548 306.054 166.772C306.278 166.985 306.39 167.252 306.39 167.572C306.39 167.881 306.278 168.148 306.054 168.372C305.83 168.585 305.563 168.692 305.254 168.692Z" fill="white"/>
</g>
</g>
<defs>
<filter id="filter0_d_262_2295" x="0" y="0" width="373" height="215" filterUnits="userSpaceOnUse" color-interpolation-filters="sRGB">
<feFlood flood-opacity="0" result="BackgroundImageFix"/>
<feColorMatrix in="SourceAlpha" type="matrix" values="0 0 0 0 0 0 0 0 0 0 0 0 0 0 0 0 0 0 127 0" result="hardAlpha"/>
<feOffset/>
<feGaussianBlur stdDeviation="13.75"/>
<feComposite in2="hardAlpha" operator="out"/>
<feColorMatrix type="matrix" values="0 0 0 0 0.409129 0 0 0 0 0.535373 0 0 0 0 0.896071 0 0 0 0.04 0"/>
<feBlend mode="normal" in2="BackgroundImageFix" result="effect1_dropShadow_262_2295"/>
<feBlend mode="normal" in="SourceGraphic" in2="effect1_dropShadow_262_2295" result="shape"/>
</filter>
<clipPath id="clip0_262_2295">
<rect x="27.5" y="27.5" width="318" height="160" rx="18" fill="white"/>
</clipPath>
<clipPath id="clip1_262_2295">
<rect width="76" height="72" fill="white" transform="translate(148.5 47.5)"/>
</clipPath>
</defs>
</svg>
