<svg width="75" height="75" viewBox="0 0 75 75" fill="none" xmlns="http://www.w3.org/2000/svg">
<g clip-path="url(#clip0_262_1451)">
<path d="M0 28C0 12.536 12.536 0 28 0H47C62.464 0 75 12.536 75 28V71C75 73.2091 73.2091 75 71 75H4C1.79086 75 0 73.2091 0 71V28Z" fill="#E4EBFE"/>
<path d="M48.5883 10.7223C49.9129 9.12988 52.4544 9.511 53.2536 11.4219L81.9846 80.1162C82.7976 82.0602 81.219 84.1611 79.1256 83.921L0.734513 74.9298C-1.44376 74.6799 -2.47387 72.1112 -1.07179 70.4256L48.5883 10.7223Z" fill="#12C66F"/>
<path d="M71.595 38.3121L71.3663 40.8852L71.3653 40.8851L71.3641 40.8994C70.9789 45.2349 67.152 48.4371 62.8166 48.0519L55.4484 47.3972C51.1129 47.012 47.9107 43.1851 48.2959 38.8497L48.297 38.8353L38.8882 37.9993C38.2857 42.1016 34.5768 45.0688 30.3944 44.6971L24.9223 44.2109C20.7399 43.8392 17.6122 40.2646 17.7425 36.1204L17.7363 36.1198L17.7474 35.995C17.7526 35.8849 17.76 35.7742 17.7698 35.6633L17.8481 34.7842L17.8548 34.7847L17.9649 33.5468L71.595 38.3121Z" fill="#022B17"/>
<path d="M43.9355 39.9299C45.5676 39.9299 46.8908 41.2532 46.8908 42.8853C46.8908 44.5175 45.5676 45.8406 43.9355 45.8407H41.9652C40.3331 45.8407 39.0098 44.5175 39.0098 42.8853C39.0098 41.2532 40.333 39.9299 41.9652 39.9299H43.9355Z" fill="#FE8253"/>
<path d="M48.8744 50.4821C49.4524 49.7771 50.3988 49.3421 51.2452 49.6807C52.0916 50.0193 52.5162 50.9946 51.9991 51.7453C51.3874 52.6332 50.5768 53.403 49.5988 54.0175C48.1201 54.9465 46.3102 55.4885 44.3489 55.5896C42.3877 55.6906 40.3433 55.3473 38.419 54.5937C37.0347 54.0516 35.7473 53.3107 34.6208 52.4132C33.9455 51.8752 34.0603 50.8561 34.7866 50.3894C35.3308 50.0397 36.0402 50.1286 36.5423 50.5365C37.3723 51.2107 38.3271 51.766 39.3561 52.169C40.7441 52.7125 42.2186 52.9602 43.6332 52.8873C45.0478 52.8144 46.3532 52.4235 47.4197 51.7534C47.9865 51.3973 48.4753 50.9689 48.8744 50.4821Z" fill="#004E28"/>
</g>
<defs>
<clipPath id="clip0_262_1451">
<path d="M0 28C0 12.536 12.536 0 28 0H47C62.464 0 75 12.536 75 28V71C75 73.2091 73.2091 75 71 75H4C1.79086 75 0 73.2091 0 71V28Z" fill="white"/>
</clipPath>
</defs>
</svg>
