<svg width="75" height="75" viewBox="0 0 75 75" fill="none" xmlns="http://www.w3.org/2000/svg">
<g clip-path="url(#clip0_262_1433)">
<path d="M0 28C0 12.536 12.536 0 28 0H47C62.464 0 75 12.536 75 28V71C75 73.2091 73.2091 75 71 75H4C1.79086 75 0 73.2091 0 71V28Z" fill="#E4EBFE"/>
<path d="M9.61088 -1.91358C15.2825 -1.85965 18.6725 4.42095 15.6052 9.19184L14.6986 10.602C14.3553 11.136 14.8731 11.7044 15.5079 11.7104L35.4785 11.9003C36.1063 11.9063 36.6104 12.42 36.6044 13.0478L36.4145 33.0185C36.4085 33.6533 36.9669 34.1818 37.5074 33.8487L38.9345 32.969C43.7628 29.993 49.9778 33.5019 49.9239 39.1735C49.8699 44.8451 43.5893 48.2351 38.8185 45.1678L37.4084 44.2612C36.8743 43.9178 36.306 44.4355 36.2999 45.0703L36.1124 64.7852C36.1065 65.4129 35.5927 65.917 34.9649 65.9111L15.2501 65.7236C14.6152 65.7175 14.0976 65.1492 14.441 64.6151L15.3476 63.205C18.4149 58.4341 15.0249 52.1535 9.35325 52.0996C3.68164 52.0457 0.172804 58.2607 3.14879 63.089L4.02847 64.5161C4.36158 65.0566 3.83304 65.615 3.19822 65.609L-16.6185 65.4205C-17.2868 65.4142 -17.7827 64.7988 -17.6469 64.1445C-14.2063 47.5637 -13.9742 30.4773 -16.9631 13.8092L-17.1598 12.7122C-17.2822 12.0294 -16.7536 11.4036 -16.0599 11.4102L3.45585 11.5958C4.09067 11.6018 4.6192 11.0434 4.2861 10.5029L3.40642 9.07584C0.430403 4.24748 3.93926 -1.96752 9.61088 -1.91358Z" fill="#9A7BF8"/>
<rect x="11.8389" y="36.134" width="6.65565" height="6.65565" rx="3.32783" transform="rotate(-8.00134 11.8389 36.134)" fill="#FE8253"/>
<path d="M103.937 39.4313C103.883 45.1029 97.6025 48.493 92.8316 45.4257L91.4215 44.519C90.9209 44.1971 90.4238 44.7244 90.5276 45.3105L93.935 64.5488C94.0572 65.2389 93.5319 65.8742 92.8311 65.8837L69.0049 66.208C68.3656 66.2167 67.8393 66.7835 68.1747 67.3278L69.0544 68.7549C72.0304 73.5833 68.5216 79.7982 62.85 79.7443C57.1784 79.6903 53.7884 73.4098 56.8556 68.6389L57.7623 67.2288C58.1056 66.6947 57.588 66.1264 56.9531 66.1203L37.2383 65.9329C36.6105 65.9269 36.1064 65.4131 36.1124 64.7853L36.2999 45.0705C36.3059 44.4356 36.8743 43.918 37.4083 44.2614L38.8184 45.168C43.5893 48.2353 49.8699 44.8453 49.9239 39.1737C49.9778 33.5021 43.7628 29.9932 38.9344 32.9692L37.5073 33.8489C37.4712 33.8712 37.4345 33.8924 37.3972 33.9126C36.8797 34.1929 36.3453 33.7381 36.2694 33.1544L33.6753 13.1863C33.5864 12.5019 34.1228 11.8968 34.8129 11.9031L57.4667 12.11C58.1015 12.1158 58.6192 12.684 58.2759 13.218L57.3692 14.6281C54.3019 19.399 57.692 25.6796 63.3636 25.7336C69.0352 25.7875 72.544 19.5725 69.568 14.7441L68.6884 13.317C68.6712 13.2892 68.6546 13.261 68.6387 13.2325C68.3459 12.7081 68.8176 12.1656 69.4151 12.1047L86.8553 10.3262C87.4807 10.2624 88.039 10.7183 88.1017 11.3437L90.3098 33.3777C90.3698 33.9761 90.9127 34.4488 91.4376 34.1552C91.4655 34.1396 91.4932 34.1234 91.5205 34.1065L92.9476 33.2269C97.776 30.2508 103.991 33.7597 103.937 39.4313Z" fill="#FF9066"/>
<rect x="55.7129" y="37.4635" width="6.65565" height="6.65565" rx="3.32783" transform="rotate(-8.00134 55.7129 37.4635)" fill="#7045F4"/>
<rect width="4.86375" height="8.76842" rx="2.43187" transform="matrix(-0.952461 0.304662 0.304662 0.952461 53.8184 28.1652)" fill="#9C2B00"/>
<rect x="21.3926" y="26.5001" width="4.86375" height="8.76842" rx="2.43187" transform="rotate(17.7378 21.3926 26.5001)" fill="#113088"/>
<rect width="4.86375" height="8.76842" rx="2.43187" transform="matrix(-0.952461 0.304662 0.304662 0.952461 67.5391 28.3047)" fill="#9C2B00"/>
<rect x="7.67188" y="26.6395" width="4.86375" height="8.76842" rx="2.43187" transform="rotate(17.7378 7.67188 26.6395)" fill="#113088"/>
<path d="M20.8283 41.3222C21.6593 41.3018 22.3658 41.966 22.2094 42.7824C22.1161 43.2699 21.9711 43.7475 21.7762 44.207C21.3847 45.1302 20.8004 45.9591 20.0625 46.6381C19.3247 47.3172 18.4502 47.8308 17.4978 48.1445C16.5453 48.4582 15.5369 48.5648 14.5399 48.4572C13.5429 48.3496 12.5804 48.0302 11.7169 47.5204C10.8533 47.0107 10.1087 46.3223 9.53271 45.5014C8.95677 44.6805 8.56286 43.7461 8.37734 42.7606C8.28499 42.27 8.24534 41.7725 8.25817 41.2763C8.27965 40.4453 9.11161 39.9472 9.91911 40.1445C10.7266 40.3418 11.1912 41.1723 11.3021 41.9961C11.3115 42.0655 11.3226 42.1347 11.3356 42.2037C11.4418 42.7677 11.6673 43.3026 11.9969 43.7725C12.3266 44.2423 12.7528 44.6364 13.2471 44.9281C13.7414 45.2199 14.2923 45.4027 14.863 45.4643C15.4336 45.5259 16.0109 45.4649 16.556 45.2853C17.1012 45.1058 17.6017 44.8118 18.0241 44.4231C18.4464 44.0344 18.7808 43.56 19.005 43.0316C19.0324 42.967 19.058 42.9018 19.082 42.836C19.3662 42.0548 19.9973 41.3426 20.8283 41.3222Z" fill="#113088"/>
<path d="M65.7482 44.5727C66.5792 44.5523 67.2857 45.2165 67.1293 46.0329C67.036 46.5204 66.8911 46.998 66.6961 47.4575C66.3046 48.3807 65.7203 49.2096 64.9824 49.8886C64.2446 50.5677 63.3701 51.0813 62.4177 51.395C61.4653 51.7087 60.4568 51.8153 59.4598 51.7077C58.4628 51.6 57.5003 51.2807 56.6368 50.7709C55.7732 50.2611 55.0286 49.5728 54.4526 48.7519C53.8767 47.931 53.4828 46.9965 53.2973 46.0111C53.2049 45.5205 53.1653 45.023 53.1781 44.5268C53.1996 43.6958 54.0315 43.1977 54.839 43.395C55.6465 43.5923 56.1111 44.4228 56.222 45.2466C56.2314 45.316 56.2426 45.3852 56.2555 45.4542C56.3617 46.0182 56.5872 46.5531 56.9169 47.023C57.2465 47.4928 57.6728 47.8868 58.167 48.1786C58.6613 48.4704 59.2122 48.6532 59.7829 48.7148C60.3536 48.7764 60.9308 48.7154 61.476 48.5358C62.0211 48.3563 62.5216 48.0623 62.944 47.6736C63.3663 47.2849 63.7007 46.8105 63.9249 46.2821C63.9523 46.2175 63.978 46.1522 64.0019 46.0865C64.2861 45.3053 64.9172 44.5931 65.7482 44.5727Z" fill="#962900"/>
</g>
<defs>
<clipPath id="clip0_262_1433">
<path d="M0 28C0 12.536 12.536 0 28 0H47C62.464 0 75 12.536 75 28V71C75 73.2091 73.2091 75 71 75H4C1.79086 75 0 73.2091 0 71V28Z" fill="white"/>
</clipPath>
</defs>
</svg>
