<svg width="94" height="96" viewBox="0 0 94 96" fill="none" xmlns="http://www.w3.org/2000/svg">
<path d="M46.5508 44.0949H53.0766L61.1251 81.4007L70.6339 82.8525C73.3596 83.2686 75.3731 85.6127 75.3731 88.37C75.3731 92.2097 72.2604 95.3224 68.4207 95.3224H50.9013L46.5508 44.0949Z" fill="#EAD5C0"/>
<path d="M46.6592 44.0949H40.1334V81.4007L29.1529 82.9153C26.4076 83.2939 24.3628 85.6402 24.3628 88.4115C24.3628 92.2283 27.4569 95.3224 31.2737 95.3224H51.0098L46.6592 44.0949Z" fill="#EAD5C0"/>
<rect x="46.5508" y="54.2183" width="1.74021" height="35.4149" rx="0.870106" transform="rotate(-3.86 46.5508 54.2183)" fill="#C3AB91"/>
<path d="M49.1602 8.08675C51.1753 5.66419 55.0422 6.24386 56.2581 9.15089L74.0248 51.6298C75.2617 54.5873 72.8601 57.7835 69.6753 57.4184L21.1988 51.8587C17.8849 51.4784 16.3179 47.5705 18.451 45.0059L49.1602 8.08675Z" fill="#12C66F"/>
<rect x="0.84668" y="19.732" width="14.213" height="3.96873" rx="1.98437" transform="rotate(12.3203 0.84668 19.732)" fill="#FE8253"/>
<rect x="78.5576" y="27.5556" width="14.213" height="3.96873" rx="1.98437" transform="rotate(-0.360054 78.5576 27.5556)" fill="#FE8253"/>
<rect x="74.8291" y="12.2642" width="14.213" height="3.96873" rx="1.98437" transform="rotate(-30 74.8291 12.2642)" fill="#FE8253"/>
<rect x="13.8389" width="14.213" height="3.96873" rx="1.98437" transform="rotate(41.8564 13.8389 0)" fill="#FE8253"/>
<rect y="43.0193" width="14.213" height="3.96873" rx="1.98437" transform="rotate(-21.6019 0 43.0193)" fill="#FE8253"/>
<rect x="79.3369" y="44.7475" width="14.213" height="3.96873" rx="1.98437" transform="rotate(15 79.3369 44.7475)" fill="#FE8253"/>
<path d="M42.822 35.8828C43.6126 33.9559 45.6566 32.8583 47.6996 33.2635C49.4671 33.614 50.8364 35.0166 51.1443 36.792L51.9524 41.4513C52.5927 45.1427 49.5697 48.4424 45.8365 48.1272C41.9867 47.8021 39.5602 43.832 41.0269 40.2576L42.822 35.8828Z" fill="#044C29"/>
<rect width="4.133" height="14.3568" rx="2.0665" transform="matrix(6.24105e-08 -1 -1 -6.24105e-08 43.5049 28.6598)" fill="#01341B"/>
<rect width="4.133" height="14.3568" rx="2.0665" transform="matrix(0.303327 -0.952887 -0.952887 -0.303327 65.4521 34.3333)" fill="#01341B"/>
<rect width="4.133" height="14.3568" rx="2.0665" transform="matrix(-0.370873 -0.928684 -0.928684 0.370873 66.4199 25.7455)" fill="#01341B"/>
<rect width="4.133" height="12.9715" rx="2.0665" transform="matrix(-0.747498 0.664264 0.664264 0.747498 35.1162 16.4169)" fill="#01341B"/>
<rect x="44.5928" y="25.1701" width="5.65569" height="5.65569" rx="2.82785" fill="#FE8253"/>
</svg>
