<svg width="112" height="83" viewBox="0 0 112 83" fill="none" xmlns="http://www.w3.org/2000/svg">
<path d="M32.7505 3.57203C37.7664 4.3258 39.9867 10.3097 36.6765 14.1528L35.6981 15.2887C35.3275 15.7189 35.7154 16.2867 36.2768 16.3711L52.966 18.8791C54.0583 19.0432 54.8108 20.0618 54.6466 21.1541L52.1386 37.8433C52.0543 38.4048 52.483 38.9423 53.0031 38.7146L54.3764 38.1132C59.0227 36.0788 64.0897 39.9598 63.336 44.9757C62.5822 49.9915 56.5983 52.2119 52.7552 48.9017L51.6193 47.9233C51.1891 47.5527 50.6213 47.9404 50.5369 48.5018L48.0629 64.9649C47.8988 66.0572 46.8802 66.8096 45.7879 66.6455L29.3249 64.1715C28.7635 64.0871 28.3758 63.5193 28.7463 63.0891L29.7248 61.9533C33.0349 58.1101 30.8147 52.1262 25.7988 51.3724C20.7829 50.6187 16.9019 55.6857 18.9363 60.332L19.5377 61.7053C19.7654 62.2254 19.2278 62.6541 18.6664 62.5698L0.295347 59.8091C0.142087 59.786 0.0480659 59.6287 0.10037 59.4828C5.40178 44.6961 7.82124 29.0306 7.22791 13.3334L7.18914 12.3076C7.18306 12.1469 7.32463 12.0203 7.48366 12.0442L25.6181 14.7694C26.1795 14.8537 26.7171 14.425 26.4894 13.9049L25.888 12.5316C23.8536 7.8853 27.7346 2.81827 32.7505 3.57203Z" fill="#9A7BF8"/>
<rect x="29.9883" y="37.5434" width="5.95199" height="5.95199" rx="2.976" fill="#FE8253"/>
<path d="M111.137 51.9275C110.383 56.9434 104.399 59.1637 100.556 55.8535L99.4202 54.8751C99.0169 54.5277 98.5111 54.9328 98.5301 55.4647L99.1116 71.7697C99.1555 73.002 98.0847 73.9801 96.8614 73.8251L76.8689 71.2917C76.3017 71.2199 75.765 71.6563 75.9943 72.1801L76.5957 73.5534C78.6301 78.1997 74.7492 83.2667 69.7333 82.5129C64.7174 81.7591 62.4971 75.7753 65.8072 71.9322L66.7857 70.7963C67.1562 70.3661 66.7686 69.7983 66.2071 69.7139L49.7441 67.24C48.6518 67.0758 47.8993 66.0573 48.0635 64.9649L50.5375 48.5019C50.6218 47.9405 51.1896 47.5528 51.6198 47.9234L52.7557 48.9018C56.5988 52.212 62.5827 49.9917 63.3365 44.9758C64.0903 39.9599 59.0232 36.0789 54.3769 38.1133L53.0036 38.7147C52.4625 38.9517 51.9889 38.4226 51.995 37.8319L52.1703 21.0693C52.183 19.8551 53.2659 18.9323 54.4667 19.1123L73.3851 21.9479C73.9466 22.0321 74.3343 22.5997 73.9638 23.0299L72.9853 24.1658C69.6751 28.0089 71.8954 33.9928 76.9114 34.7466C81.9273 35.5004 85.8082 30.4333 83.7738 25.787L83.1724 24.4137C82.9372 23.8766 83.4686 23.4116 84.0545 23.4339L98.6484 23.9891C99.7535 24.0311 100.615 24.9621 100.571 26.0671L99.826 44.7844C99.8027 45.37 100.267 45.9015 100.804 45.6664L102.177 45.065C106.824 43.0306 111.891 46.9116 111.137 51.9275Z" fill="#FF9066"/>
<rect x="68.6768" y="44.1821" width="5.95199" height="5.95199" rx="2.976" fill="#9A7BF8"/>
<rect width="4.34953" height="7.84139" rx="2.17477" transform="matrix(-0.985596 0.169117 0.169117 0.985596 68.1562 35.712)" fill="#9C2B00"/>
<rect width="4.34953" height="7.84139" rx="2.17477" transform="matrix(-0.985596 0.169117 0.169117 0.985596 80.2891 37.5434)" fill="#9C2B00"/>
<path d="M29.3297 30.7901C30.0731 30.7901 30.6901 31.3995 30.5324 32.1259C30.4183 32.6513 30.237 33.1618 29.9915 33.6443C29.5418 34.5285 28.8895 35.2939 28.0877 35.8781C27.286 36.4623 26.3575 36.8487 25.3781 37.0059C24.3986 37.1632 23.3958 37.0867 22.4516 36.7828C21.5073 36.4788 20.6481 35.956 19.9443 35.257C19.2404 34.558 18.7117 33.7025 18.4012 32.7604C18.0907 31.8182 18.0073 30.816 18.1578 29.8355C18.2399 29.3004 18.3903 28.78 18.6041 28.2867C18.8997 27.6046 19.7563 27.4696 20.3602 27.9032C20.964 28.3368 21.0717 29.1809 20.8883 29.9013C20.8596 30.014 20.8363 30.1282 20.8186 30.2437C20.7325 30.8049 20.7803 31.3786 20.958 31.9179C21.1357 32.4571 21.4383 32.9468 21.8412 33.3469C22.2441 33.747 22.7358 34.0463 23.2763 34.2202C23.8168 34.3942 24.3908 34.438 24.9514 34.348C25.5121 34.258 26.0435 34.0368 26.5024 33.7024C26.9613 33.368 27.3347 32.9299 27.5921 32.4238C27.6451 32.3197 27.6928 32.2133 27.7352 32.105C28.0065 31.4129 28.5863 30.7901 29.3297 30.7901Z" fill="#113088"/>
<path d="M46.2578 34.5691C46.9958 34.4798 47.6816 35.0105 47.6123 35.7506C47.571 36.1926 47.4829 36.6302 47.3487 37.0559C47.0792 37.9112 46.6301 38.6991 46.0315 39.3667C45.4328 40.0344 44.6984 40.5665 43.8774 40.9273C43.0565 41.2881 42.1679 41.4694 41.2712 41.459C40.3745 41.4486 39.4904 41.2467 38.678 40.8669C37.8657 40.4871 37.1438 39.9381 36.5608 39.2567C35.9779 38.5753 35.5472 37.7772 35.2976 36.9159C35.1734 36.4871 35.0955 36.0476 35.0644 35.6049C35.0124 34.8633 35.7103 34.3486 36.446 34.4551C37.1817 34.5616 37.6663 35.261 37.8357 35.9849C37.8499 36.0458 37.8658 36.1065 37.8833 36.1668C38.0261 36.6598 38.2726 37.1166 38.6063 37.5066C38.94 37.8966 39.3532 38.2109 39.8182 38.4283C40.2832 38.6457 40.7892 38.7612 41.3025 38.7672C41.8157 38.7731 42.3243 38.6694 42.7942 38.4629C43.2642 38.2563 43.6845 37.9518 44.0272 37.5696C44.3698 37.1874 44.6269 36.7365 44.7812 36.2469C44.8 36.1871 44.8173 36.1268 44.833 36.0662C45.0191 35.3465 45.5199 34.6585 46.2578 34.5691Z" fill="#113088"/>
<path d="M37.303 43.2569C38.0415 43.3422 38.5844 44.0183 38.3443 44.7219C38.201 45.142 38.0132 45.5469 37.7834 45.9296C37.3217 46.6984 36.7011 47.3596 35.9631 47.8691C35.2252 48.3786 34.3869 48.7246 33.5044 48.8839C32.6219 49.0431 31.7155 49.012 30.846 48.7926C29.9765 48.5732 29.1639 48.1705 28.4627 47.6116C27.7614 47.0527 27.1876 46.3504 26.7798 45.5517C26.3719 44.7531 26.1394 43.8765 26.0978 42.9807C26.0771 42.5348 26.1039 42.0893 26.177 41.6515C26.2995 40.9183 27.0982 40.5807 27.7888 40.856C28.4793 41.1312 28.7873 41.9244 28.783 42.6678C28.7827 42.7304 28.784 42.7931 28.7869 42.8558C28.8107 43.3685 28.9438 43.8703 29.1772 44.3274C29.4107 44.7845 29.7391 45.1865 30.1405 45.5064C30.5419 45.8264 31.007 46.0568 31.5047 46.1824C32.0024 46.308 32.5212 46.3258 33.0263 46.2347C33.5314 46.1435 34.0113 45.9455 34.4337 45.6539C34.8561 45.3622 35.2113 44.9837 35.4755 44.5437C35.5079 44.4899 35.5387 44.4353 35.5681 44.38C35.917 43.7236 36.5646 43.1715 37.303 43.2569Z" fill="#113088"/>
<path d="M76.678 51.727C77.4165 51.8124 77.9594 52.4885 77.7193 53.192C77.576 53.6121 77.3882 54.017 77.1584 54.3997C76.6967 55.1685 76.0761 55.8298 75.3381 56.3393C74.6002 56.8488 73.7619 57.1948 72.8794 57.354C71.9969 57.5133 71.0905 57.4822 70.221 57.2627C69.3515 57.0433 68.5389 56.6407 67.8377 56.0818C67.1364 55.5228 66.5626 54.8205 66.1548 54.0219C65.7469 53.2232 65.5144 52.3467 65.4728 51.4509C65.4521 51.005 65.4789 50.5594 65.552 50.1216C65.6745 49.3884 66.4732 49.0509 67.1638 49.3261C67.8543 49.6014 68.1623 50.3946 68.158 51.138C68.1577 51.2006 68.159 51.2633 68.1619 51.3259C68.1857 51.8387 68.3188 52.3404 68.5522 52.7976C68.7857 53.2547 69.1141 53.6567 69.5155 53.9766C69.9169 54.2965 70.382 54.527 70.8797 54.6526C71.3774 54.7782 71.8962 54.796 72.4013 54.7048C72.9064 54.6137 73.3863 54.4156 73.8087 54.124C74.2311 53.8324 74.5863 53.4539 74.8505 53.0138C74.8829 52.96 74.9137 52.9054 74.9431 52.8501C75.292 52.1938 75.9396 51.6417 76.678 51.727Z" fill="#962900"/>
</svg>
