<svg width="120" height="81" viewBox="0 0 120 81" fill="none" xmlns="http://www.w3.org/2000/svg">
<g clip-path="url(#clip0_262_1813)">
<path d="M85.5736 3.67125C86.5159 4.46276 87.0588 5.38449 87.1988 6.6139C87.2135 6.98376 87.2154 7.35124 87.2116 7.72137C87.2118 7.85738 87.212 7.99338 87.2122 8.13352C87.212 8.57107 87.2084 9.0085 87.2042 9.44603C87.203 9.67016 87.203 9.67016 87.2018 9.89882C87.19 12.0617 87.1564 14.209 86.8709 16.3559C86.8419 16.5759 86.8419 16.5759 86.8123 16.8004C86.5162 18.9762 86.1186 21.1312 85.6635 23.279C85.577 23.6909 85.4948 24.1035 85.4131 24.5164C85.0263 26.4063 84.4222 28.1672 83.7072 29.9572C83.5751 30.2889 83.4466 30.6217 83.3202 30.9556C82.6347 32.7369 81.8168 34.4327 80.7628 36.0254C80.5363 36.3799 80.3426 36.7388 80.1502 37.1127C79.2426 38.8083 78.0822 40.4204 76.8512 41.8965C76.3164 42.5478 76.3082 43.0288 76.3152 43.8396C76.3152 44.0311 76.3152 44.0311 76.3152 44.2265C76.3157 44.6511 76.3185 45.0755 76.3213 45.5001C76.3223 45.799 76.3233 46.0979 76.3242 46.3969C76.3329 48.5069 76.3722 50.6159 76.4204 52.7253C76.5188 57.1278 76.5188 57.1278 76.5339 59.0589C76.5363 59.3134 76.5397 59.5678 76.5443 59.8222C76.5871 62.313 76.5871 62.313 75.9159 63.3469C75.7646 63.588 75.7646 63.588 75.6102 63.834C75.4449 64.0611 75.4449 64.0611 75.2763 64.2929C75.2159 64.3761 75.1555 64.4593 75.0933 64.545C74.4927 65.3618 73.8527 66.1473 73.2065 66.9283C73.1298 67.0211 73.053 67.1139 72.9739 67.2095C72.9054 67.2918 72.8368 67.3741 72.7661 67.4588C72.5877 67.6735 72.5877 67.6735 72.4565 67.9595C72.3613 67.9595 72.2662 67.9595 72.1682 67.9595C72.1336 68.0634 72.0991 68.1673 72.0635 68.2743C71.8532 68.7392 71.5963 69.0371 71.2493 69.41C71.1382 69.5306 71.027 69.6512 70.9126 69.7754C70.8037 69.8897 70.6948 70.004 70.5826 70.1217C70.4854 70.2298 70.3883 70.338 70.2881 70.4494C69.9287 70.7665 69.6252 70.773 69.1552 70.7889C68.5093 70.5953 68.1828 70.0675 67.8653 69.504C67.7788 69.3231 67.6936 69.1416 67.6096 68.9595C67.0875 67.8698 66.5154 66.8135 65.924 65.7599C65.6134 65.203 65.3382 64.6616 65.1051 64.0676C64.8905 63.6402 64.6641 63.2191 64.4385 62.7974C63.7756 61.5488 63.1375 60.2896 62.5105 59.0226C62.3876 58.7854 62.3876 58.7854 62.2622 58.5434C62.0781 58.1577 62.0781 58.1577 62.0781 57.8694C61.9995 57.9215 61.9209 57.9735 61.8399 58.0271C61.0431 58.5175 60.4193 58.7453 59.4835 58.5902C59.1936 58.4991 58.9049 58.4039 58.6186 58.3019C58.5454 58.4288 58.4722 58.5557 58.3968 58.6865C57.3032 60.5452 57.3032 60.5452 56.3123 61.0406C56.0422 61.0508 55.7718 61.0528 55.5015 61.0496C55.357 61.0483 55.2124 61.047 55.0635 61.0457C54.8968 61.0432 54.8968 61.0432 54.7267 61.0406C54.7056 61.2215 54.7056 61.2215 54.684 61.406C54.2765 64.5775 53.2723 67.7372 51.2673 70.2658C51.1709 70.3954 51.0744 70.5249 50.9751 70.6583C50.0953 71.8133 49.0124 73.1197 47.5105 73.3649C46.9352 73.267 46.741 73.0075 46.3664 72.5722C46.2233 72.427 46.0794 72.2826 45.934 72.1397C45.8496 72.222 45.7652 72.3044 45.6783 72.3892C44.5418 73.4626 43.3046 74.3586 42.027 75.2567C41.8037 75.4188 41.5897 75.5935 41.3788 75.7715C41.0386 76.0274 40.7097 76.181 40.3161 76.3385C39.9709 76.4869 39.6448 76.6598 39.314 76.8379C39.1872 76.9061 39.0604 76.9743 38.9297 77.0446C38.6696 77.1854 38.4098 77.3269 38.1505 77.4691C37.3035 77.9225 36.4822 78.2344 35.5556 78.4821C35.3831 78.5386 35.2107 78.595 35.0331 78.6532C34.2236 78.8481 33.4213 78.9098 32.6727 78.4821C31.644 77.4152 31.8564 75.6965 31.8746 74.3319C31.9684 70.4495 33.39 66.7728 35.1231 63.3469C34.9929 63.3519 34.8626 63.357 34.7284 63.3621C34.5584 63.366 34.3884 63.3699 34.2132 63.374C34.0443 63.379 33.8754 63.384 33.7014 63.3892C33.2493 63.3469 33.2493 63.3469 32.979 63.1713C32.6149 62.5947 32.7002 61.9769 32.8168 61.3289C34.0408 57.8534 37.064 54.8518 40.3208 53.2546C40.6914 53.0773 41.064 52.9058 41.4396 52.7394C41.7902 52.5839 42.1337 52.4233 42.4745 52.2478C42.4269 52.1497 42.3794 52.0516 42.3304 51.9505C42.0875 51.2371 42.0913 50.6499 42.4114 49.9685C42.7419 49.3543 43.1598 48.8057 43.5854 48.2546C43.8034 47.941 43.8034 47.941 43.7425 47.611C43.6318 47.3282 43.6318 47.3282 43.4024 47.0496C43.0864 46.4038 43.136 45.7484 43.1952 45.0406C43.2428 44.9455 43.2904 44.8503 43.3394 44.7523C43.2011 44.7425 43.2011 44.7425 43.06 44.7325C41.9704 44.6455 40.9094 44.4712 39.8349 44.2749C38.3576 44.0115 36.8824 43.7877 35.3934 43.5992C33.9502 43.4125 32.5122 43.2075 31.0781 42.9595C30.9152 42.9334 30.7523 42.9073 30.5845 42.8804C29.7038 42.7216 29.185 42.5947 28.6367 41.8694C28.5891 41.8219 28.5415 41.7743 28.4925 41.7253C28.4521 40.6733 28.9554 40.035 29.5567 39.2225C29.9549 38.6825 30.3068 38.1156 30.6645 37.5483C31.1594 36.7741 31.678 36.0161 32.1952 35.2568C32.3038 35.0966 32.4124 34.9363 32.521 34.776C32.6772 34.5463 32.6772 34.5463 32.8365 34.312C32.9764 34.1064 32.9764 34.1064 33.119 33.8965C34.1609 32.4254 35.3715 31.9873 37.0561 31.4212C37.3289 31.3294 37.6009 31.2354 37.8729 31.1414C38.6721 30.869 39.4651 30.6132 40.2876 30.4207C41.4512 30.1427 42.5663 29.7238 43.6907 29.3199C43.9128 29.2409 44.1349 29.162 44.3571 29.0831C45.4256 28.7063 45.4256 28.7063 46.4834 28.3012C46.8371 28.1605 47.1841 28.0784 47.5556 27.9956C48.6342 27.7346 49.6696 27.3603 50.7082 26.9728C50.979 26.8785 50.979 26.8785 51.4458 26.7647C51.9812 26.53 52.1856 26.1687 52.4655 25.6803C52.5771 25.4967 52.6889 25.3133 52.8011 25.1301C52.8573 25.037 52.9135 24.9439 52.9714 24.848C53.6656 23.7201 54.4525 22.6536 55.2909 21.6296C55.5698 21.2839 55.8383 20.9318 56.1052 20.5769C56.7307 19.7471 57.3893 18.9668 58.1028 18.211C58.4045 17.8912 58.6619 17.5883 58.9069 17.2208C59.0021 17.2208 59.0972 17.2208 59.1952 17.2208C59.2428 17.0781 59.2904 16.9354 59.3394 16.7884C59.5449 16.5812 59.5449 16.5812 59.8168 16.3559C60.3255 15.9267 60.8108 15.48 61.2943 15.0226C62.1721 14.2077 63.1159 13.5059 64.0929 12.8151C64.3955 12.6003 64.6958 12.3827 64.9959 12.1645C66.1081 11.3612 67.2278 10.628 68.4295 9.96573C68.7662 9.77454 69.0685 9.58078 69.3754 9.34693C69.9243 8.93351 70.5391 8.65918 71.1552 8.35988C71.5429 8.16429 71.9079 7.95454 72.2763 7.72531C73.1584 7.18569 74.0816 6.73503 75.0106 6.28351C75.3487 6.1171 75.6838 5.94544 76.019 5.77317C82.9677 2.26326 82.9677 2.26326 85.5736 3.67125Z" fill="#57B27C"/>
<path d="M42.9072 52.5361C43.1876 52.7416 43.1876 52.7416 43.5018 53.0136C44.1791 53.5718 44.8863 54.0623 45.6189 54.5451C45.7881 54.6566 45.7881 54.6566 45.9607 54.7704C46.1844 54.9179 46.4082 55.0653 46.632 55.2127C47.7863 55.9776 48.9142 56.7815 50.0392 57.5887C50.6183 58.004 51.2004 58.4149 51.7841 58.8237C52.0987 59.0449 52.4119 59.2681 52.7248 59.4916C53.0556 59.7276 53.3865 59.9518 53.7293 60.1707C54.5176 60.6974 54.5176 60.6974 54.6798 61.1915C54.7041 61.5942 54.6546 61.9404 54.5829 62.3379C54.5556 62.5064 54.5283 62.675 54.5001 62.8486C54.0071 65.4759 52.9558 68.1847 51.2676 70.2658C51.1713 70.3948 51.0751 70.5237 50.9759 70.6566C50.0976 71.8127 49.0126 73.1197 47.5108 73.3649C46.9355 73.267 46.7413 73.0075 46.3667 72.5721C46.2236 72.427 46.0797 72.2826 45.9343 72.1397C45.8499 72.222 45.7655 72.3043 45.6786 72.3891C44.5421 73.4626 43.3049 74.3586 42.0273 75.2567C41.804 75.4188 41.59 75.5935 41.3791 75.7715C41.0389 76.0274 40.71 76.181 40.3164 76.3385C39.9712 76.4869 39.6451 76.6597 39.3143 76.8379C39.1875 76.9061 39.0607 76.9743 38.93 77.0445C38.6699 77.1854 38.4101 77.3269 38.1508 77.4691C37.3038 77.9225 36.4825 78.2344 35.5559 78.482C35.2972 78.5668 35.2972 78.5668 35.0334 78.6532C34.2239 78.8481 33.4216 78.9098 32.673 78.482C31.6443 77.4152 31.8567 75.6964 31.8749 74.3318C31.9687 70.4495 33.3904 66.7728 35.1235 63.3469C34.9281 63.3544 34.9281 63.3544 34.7287 63.3621C34.5587 63.366 34.3887 63.3699 34.2135 63.3739C34.0446 63.379 33.8757 63.384 33.7017 63.3891C33.2496 63.3469 33.2496 63.3469 32.9793 63.1712C32.6152 62.5947 32.7005 61.9769 32.8171 61.3289C34.0915 57.7104 37.2376 54.7378 40.6245 53.1057C42.3088 52.3137 42.3088 52.3137 42.9072 52.5361Z" fill="#ED7F3E"/>
<path d="M75.9166 42.8784C76.0117 42.8784 76.1068 42.8784 76.2048 42.8784C76.2432 44.5054 76.2809 46.1324 76.3176 47.7594C76.3347 48.5156 76.352 49.2718 76.37 50.028C76.4147 51.9218 76.4545 53.8156 76.4859 55.7097C76.4907 55.9971 76.4957 56.2846 76.5009 56.5721C76.5158 57.4029 76.5275 58.2337 76.5344 59.0647C76.5369 59.3187 76.5404 59.5727 76.5449 59.8267C76.5875 62.3039 76.5875 62.3039 75.9166 63.3469C75.8157 63.5076 75.7148 63.6683 75.6108 63.8339C75.5006 63.9854 75.3904 64.1368 75.2769 64.2928C75.2165 64.376 75.1562 64.4592 75.094 64.5449C74.4933 65.3618 73.8533 66.1473 73.2071 66.9283C73.1304 67.0211 73.0536 67.1139 72.9745 67.2095C72.906 67.2918 72.8374 67.374 72.7667 67.4588C72.5883 67.6734 72.5883 67.6734 72.4571 67.9595C72.362 67.9595 72.2668 67.9595 72.1688 67.9595C72.1342 68.0634 72.0997 68.1672 72.0641 68.2743C71.8538 68.7392 71.5969 69.037 71.2499 69.4099C71.0832 69.5908 71.0832 69.5908 70.9132 69.7754C70.8043 69.8896 70.6954 70.0039 70.5832 70.1217C70.486 70.2298 70.3889 70.3379 70.2887 70.4494C69.9293 70.7665 69.6258 70.773 69.1559 70.7889C68.5099 70.5952 68.1835 70.0675 67.8659 69.504C67.7794 69.3231 67.6942 69.1416 67.6102 68.9595C67.0881 67.8697 66.516 66.8135 65.9246 65.7599C65.614 65.203 65.3388 64.6616 65.1057 64.0676C64.8912 63.6401 64.6647 63.2191 64.4391 62.7973C63.9619 61.8977 63.4898 60.9962 63.0337 60.0856C62.9891 59.9972 62.9446 59.9088 62.8987 59.8177C62.6558 59.3304 62.4271 58.8385 62.2067 58.3405C62.1556 58.2249 62.1044 58.1093 62.0516 57.9902C62.013 57.9028 61.9744 57.8154 61.9346 57.7253C62.0547 57.6153 62.1748 57.5054 62.2986 57.3921C63.8346 55.9772 65.3161 54.5101 66.791 53.0318C67.1309 52.6912 67.4712 52.3512 67.8119 52.0114C68.1429 51.681 68.4734 51.3501 68.8039 51.0192C68.9244 50.899 69.0448 50.7789 69.1689 50.6551C69.7856 50.036 70.3814 49.407 70.9505 48.7437C71.2462 48.3995 71.5546 48.0675 71.8625 47.7343C72.4474 47.093 73.0018 46.4339 73.5466 45.7585C74.0383 45.1583 74.5453 44.5717 75.0539 43.9858C75.3645 43.6264 75.6526 43.2743 75.9166 42.8784Z" fill="#E05A44"/>
<path d="M51.8439 26.5901C51.6524 27.1134 51.2729 27.8322 50.961 28.2928C50.3591 29.2225 49.8788 30.1975 49.3951 31.1917C49.16 31.6742 48.9212 32.1548 48.6817 32.6352C48.6108 32.778 48.6108 32.778 48.5384 32.9237C48.2936 33.4138 48.0429 33.8995 47.7808 34.3807C46.9888 35.8351 46.3167 37.3172 45.6811 38.846C45.4846 39.3153 45.2839 39.7827 45.0826 40.25C44.94 40.5826 44.7973 40.9152 44.6547 41.2478C44.5877 41.4026 44.5208 41.5575 44.4518 41.7171C44.1058 42.5288 43.8026 43.3323 43.5662 44.1829C43.4835 44.464 43.4835 44.464 43.3394 44.7523C42.1546 44.6683 41.0025 44.4881 39.8349 44.2748C38.3576 44.0115 36.8824 43.7876 35.3934 43.5991C33.9502 43.4124 32.5122 43.2074 31.0781 42.9595C30.9152 42.9334 30.7523 42.9073 30.5845 42.8804C29.7038 42.7215 29.185 42.5946 28.6367 41.8694C28.5891 41.8218 28.5415 41.7743 28.4925 41.7253C28.4521 40.6733 28.9554 40.0349 29.5567 39.2224C29.9549 38.6824 30.3068 38.1155 30.6645 37.5482C31.1594 36.7741 31.678 36.0161 32.1952 35.2568C32.3038 35.0965 32.4124 34.9362 32.521 34.7759C32.6251 34.6228 32.7292 34.4697 32.8365 34.312C32.9298 34.1749 33.023 34.0378 33.119 33.8965C34.1609 32.4253 35.3715 31.9872 37.0561 31.4211C37.3289 31.3294 37.6009 31.2354 37.8729 31.1414C38.6721 30.8689 39.4651 30.6132 40.2876 30.4206C41.4512 30.1427 42.5663 29.7237 43.6907 29.3198C43.9128 29.2409 44.1349 29.1619 44.3571 29.0831C45.4256 28.7063 45.4256 28.7063 46.4834 28.3012C46.8371 28.1605 47.1841 28.0783 47.5556 27.9955C48.4405 27.7834 49.2826 27.4869 50.132 27.164C50.6722 26.9639 51.2656 26.5392 51.8439 26.5901Z" fill="#E05A45"/>
<path d="M74.4751 20.2476C76.0111 21.3932 77.1492 22.9531 77.5022 24.8602C77.7321 27.2199 77.3658 29.1359 75.9166 31.0584C74.5484 32.6946 72.6441 33.4717 70.5523 33.6856C68.7434 33.7576 67.0136 33.0579 65.6553 31.8962C64.1582 30.4695 63.2286 28.7858 63.1612 26.6978C63.1527 24.5222 63.7585 22.7599 65.2769 21.1395C67.8208 18.7597 71.5109 18.3505 74.4751 20.2476Z" fill="#1F3066"/>
<path d="M46.5103 55.1307C46.8763 55.359 47.2296 55.6032 47.5824 55.8514C47.6826 55.921 47.7828 55.9907 47.886 56.0625C48.7398 56.6578 49.5872 57.2621 50.4321 57.87C50.7072 58.0666 50.9857 58.2584 51.2671 58.446C51.655 59.7307 50.8306 61.2236 50.2581 62.3379C49.2235 64.1961 47.7251 66.2599 45.7896 67.2388C45.3149 67.3362 45.3149 67.3362 44.9247 67.3829C44.782 67.0499 44.6393 66.717 44.4923 66.3739C44.246 66.575 43.9998 66.7763 43.7536 66.9775C43.6092 67.0953 43.4648 67.2131 43.3161 67.3345C43.005 67.5904 42.6981 67.8495 42.3932 68.1126C42.0419 68.3919 42.0419 68.3919 41.7536 68.3919C41.7536 68.487 41.7536 68.5822 41.7536 68.6802C40.8714 69.1126 40.8714 69.1126 40.3482 69.1126C39.89 68.909 39.7818 68.7088 39.5914 68.2478C39.3413 66.7474 40.4118 65.0981 41.0329 63.7793C40.8974 63.7662 40.8974 63.7662 40.7592 63.7528C40.6414 63.7408 40.5236 63.7287 40.4022 63.7162C40.2852 63.7045 40.1681 63.6928 40.0475 63.6808C39.7356 63.6352 39.7356 63.6352 39.4473 63.491C39.5124 60.815 41.1986 58.522 43.0509 56.7162C45.439 54.564 45.439 54.564 46.5103 55.1307Z" fill="#F4C04A"/>
<path d="M43.9168 47.6353C44.4381 47.8227 44.8375 48.0453 45.2738 48.3853C45.394 48.478 45.5142 48.5708 45.6381 48.6664C45.8296 48.816 45.8296 48.816 46.025 48.9686C46.2972 49.1786 46.5695 49.3884 46.842 49.5981C47.048 49.7569 47.048 49.7569 47.2583 49.9189C49.4048 51.5616 51.6046 53.1367 53.8362 54.6614C54.4586 55.0873 55.0751 55.5206 55.6892 55.9584C56.643 56.6381 57.5963 57.2963 58.6195 57.8695C58.4724 58.9246 57.7996 59.9433 56.9889 60.6262C56.375 61.0545 55.9419 61.1434 55.195 61.1347C54.3196 60.9586 53.6765 60.3612 52.9919 59.8182C52.4907 59.4293 51.9684 59.0703 51.4484 58.7073C51.2396 58.5603 51.0309 58.4131 50.8223 58.2659C49.3089 57.2002 47.7926 56.1385 46.2609 55.0992C46.1415 55.018 46.0221 54.9369 45.8991 54.8532C45.6656 54.6946 45.4319 54.5363 45.1979 54.3784C42.5338 52.5671 42.5338 52.5671 42.1871 51.5271C42.0375 50.0011 43.0955 48.8314 43.9168 47.6353Z" fill="#1F3066"/>
<path d="M72.4567 22.4098C73.6138 23.0371 74.2082 24.0257 74.6729 25.2297C74.9425 26.7125 74.6533 27.9861 73.79 29.2387C73.1069 30.0783 72.2219 30.5754 71.1594 30.7702C69.6971 30.9033 68.6767 30.6611 67.5287 29.7432C66.6101 28.8907 66.051 27.8973 65.9358 26.6508C65.8948 25.1752 66.418 24.0699 67.4116 22.9864C68.8512 21.7316 70.7295 21.6307 72.4567 22.4098Z" fill="#6AC6D0"/>
<path d="M84.5656 26.8784C84.5181 27.3065 84.4705 27.7346 84.4215 28.1757C84.3739 28.1757 84.3264 28.1757 84.2774 28.1757C84.2774 27.9379 84.2774 27.7 84.2774 27.455C84.1347 27.455 83.992 27.455 83.8449 27.455C83.8449 27.5501 83.8449 27.6453 83.8449 27.7433C83.7498 27.6957 83.6547 27.6481 83.5566 27.5991C84.2541 26.8784 84.2541 26.8784 84.5656 26.8784Z" fill="#63B482"/>
<path d="M45.502 38.6982C45.5495 38.7934 45.5971 38.8885 45.6461 38.9865C45.5114 39.2794 45.3676 39.5682 45.2137 39.8514C45.1661 39.7563 45.1185 39.6611 45.0695 39.5631C44.9744 39.5631 44.8793 39.5631 44.7812 39.5631C44.8173 39.2928 44.8173 39.2928 44.9254 38.9865C45.2227 38.8064 45.2227 38.8064 45.502 38.6982Z" fill="#D76048"/>
<path d="M33.5379 59.7432C33.6806 59.8859 33.8233 60.0286 33.9703 60.1756C33.8752 60.1756 33.7801 60.1756 33.682 60.1756C33.5869 60.4134 33.4918 60.6513 33.3938 60.8963C33.2986 60.8963 33.2035 60.8963 33.1055 60.8963C33.3757 60.0675 33.3757 60.0675 33.5379 59.7432Z" fill="#ED7F4F"/>
<path d="M43.052 44.1758C43.1471 44.3661 43.2422 44.5563 43.3403 44.7524C42.9122 44.7048 42.484 44.6572 42.043 44.6082C42.043 44.5606 42.043 44.5131 42.043 44.4641C42.3759 44.3689 42.7089 44.2738 43.052 44.1758Z" fill="#DB4D39"/>
<path d="M29.0693 41.8694C29.1169 41.9645 29.1645 42.0597 29.2135 42.1577C29.3086 42.1577 29.4038 42.1577 29.5018 42.1577C29.5493 42.0625 29.5969 41.9674 29.6459 41.8694C29.741 42.0597 29.8362 42.2499 29.9342 42.446C29.3937 42.6081 29.3937 42.6081 29.0693 42.446C29.0693 42.2557 29.0693 42.0654 29.0693 41.8694Z" fill="#E2654F"/>
</g>
<defs>
<clipPath id="clip0_262_1813">
<rect width="67.4595" height="80" fill="white" transform="translate(26.1865 0.5)"/>
</clipPath>
</defs>
</svg>
