<svg width="120" height="120" viewBox="0 0 120 120" fill="none" xmlns="http://www.w3.org/2000/svg">
<g clip-path="url(#clip0_262_2191)">
<rect x="11.7861" y="10.4465" width="96.8304" height="61.7411" fill="#E1EEFF"/>
<path d="M18.0466 7.98438C18.1972 7.98372 18.3477 7.98306 18.5029 7.98237C19.0054 7.98064 19.5079 7.98176 20.0104 7.98287C20.3751 7.98244 20.7398 7.9814 21.1046 7.9804C21.8966 7.97854 22.6885 7.97817 23.4805 7.97879C24.6583 7.9797 25.8361 7.97833 27.0139 7.97652C29.2402 7.97318 31.4665 7.97257 33.6928 7.97283C35.4124 7.97301 37.132 7.9725 38.8517 7.9715C39.0989 7.97136 39.3461 7.97122 39.5933 7.97108C39.7774 7.97097 39.7774 7.97097 39.9652 7.97087C40.0881 7.9708 40.2111 7.97073 40.3378 7.97066C40.4609 7.97059 40.5841 7.97052 40.711 7.97044C44.1743 7.96849 47.6376 7.96738 51.1009 7.968C51.2967 7.96803 51.2967 7.96803 51.4965 7.96807C52.158 7.96819 52.8195 7.96831 53.4811 7.96844C53.6781 7.96848 53.6781 7.96848 53.8792 7.96852C54.1449 7.96857 54.4105 7.96863 54.6762 7.96868C58.8088 7.96948 62.9413 7.96741 67.0738 7.96311C71.719 7.95827 76.3643 7.95569 81.0095 7.95635C81.5052 7.95641 82.0008 7.95647 82.4965 7.95651C82.6796 7.95654 82.6796 7.95654 82.8663 7.95656C84.706 7.95672 86.5458 7.95512 88.3855 7.95261C90.4789 7.94976 92.5723 7.94926 94.6657 7.95185C95.8361 7.95323 97.0065 7.95278 98.1768 7.94963C98.9602 7.94772 99.7435 7.94827 100.527 7.95077C100.972 7.95212 101.417 7.95208 101.863 7.94979C104.401 7.93758 106.843 8.05918 109.018 9.50891C109.14 9.58729 109.261 9.66567 109.387 9.74642C111.702 11.324 113.067 13.6563 113.65 16.3632C113.771 17.1816 113.742 18.0123 113.74 18.8378C113.74 19.0509 113.74 19.264 113.741 19.4772C113.742 20.0608 113.741 20.6444 113.741 21.228C113.74 21.8582 113.741 22.4884 113.742 23.1186C113.743 24.3525 113.743 25.5864 113.742 26.8203C113.741 27.8235 113.741 28.8266 113.741 29.8297C113.741 29.9726 113.741 30.1154 113.742 30.2626C113.742 30.5528 113.742 30.843 113.742 31.1333C113.743 33.8542 113.742 36.5751 113.74 39.2959C113.739 41.6291 113.739 43.9622 113.74 46.2954C113.742 49.006 113.742 51.7166 113.742 54.4272C113.742 54.7165 113.741 55.0058 113.741 55.295C113.741 55.4373 113.741 55.5796 113.741 55.7263C113.741 56.7277 113.741 57.729 113.742 58.7304C113.743 59.9516 113.743 61.1728 113.741 62.394C113.74 63.0167 113.74 63.6394 113.741 64.2621C113.742 64.8329 113.741 65.4036 113.74 65.9744C113.74 66.1802 113.74 66.3859 113.741 66.5917C113.75 69.6966 112.948 72.4851 110.737 74.7525C110.611 74.8797 110.484 75.0068 110.357 75.1339C110.254 75.2418 110.151 75.3497 110.045 75.4609C109.411 76.0821 108.727 76.5473 107.955 76.9754C107.873 77.0227 107.791 77.0699 107.706 77.1186C105.686 78.1782 103.484 78.3114 101.252 78.2903C100.967 78.2901 100.681 78.2902 100.396 78.2906C99.6297 78.2908 98.8634 78.2869 98.0971 78.2822C97.2931 78.2779 96.4892 78.2776 95.6852 78.2768C94.1665 78.2747 92.6478 78.2692 91.1291 78.2625C89.3985 78.255 87.668 78.2513 85.9374 78.248C82.3809 78.241 78.8245 78.2292 75.2681 78.2143C75.2956 78.3406 75.3232 78.467 75.3516 78.5972C75.3878 78.7642 75.424 78.9313 75.4613 79.1033C75.4972 79.2684 75.533 79.4334 75.57 79.6034C75.7041 80.2561 75.8006 80.9105 75.8875 81.5709C75.9197 81.8096 75.9522 82.0483 75.9848 82.2871C75.9984 82.3894 76.0119 82.4918 76.0259 82.5973C76.0751 82.9246 76.1383 83.2474 76.2056 83.5714C76.3071 83.5693 76.4086 83.5672 76.5132 83.565C80.308 83.4972 85.371 83.4094 88.3931 86.1161C88.7853 86.6773 88.8794 87.0345 88.7948 87.7232C88.152 89.0357 86.7366 89.6179 85.4466 90.1339C85.0882 90.2464 84.7443 90.3294 84.3752 90.4018C84.4415 90.5205 84.5078 90.6393 84.5761 90.7617C84.6251 90.8496 84.6742 90.9374 84.7247 91.028C84.9108 91.3483 84.9108 91.3483 85.1474 91.6715C86.4849 93.6225 87.0134 96.0461 87.4822 98.3365C87.5933 98.8573 87.7372 99.3568 87.8989 99.8634C87.9843 100.155 88.0473 100.439 88.1027 100.737C88.2274 101.377 88.3688 102.011 88.515 102.646C88.5382 102.747 88.5614 102.848 88.5853 102.952C88.6825 103.373 88.7799 103.794 88.8774 104.216C88.9493 104.527 89.0209 104.838 89.0925 105.149C89.1144 105.243 89.1363 105.337 89.1589 105.434C89.6919 107.751 89.5706 109.794 88.3606 111.88C87.2931 113.479 85.8221 114.571 83.965 115.078C82.1188 115.433 80.3287 115.2 78.6916 114.258C77.3507 113.346 76.2208 112.077 75.2393 110.798C74.9139 110.38 74.5594 109.993 74.205 109.6C73.9041 109.258 73.6195 108.905 73.3345 108.549C72.0711 107.002 70.8275 105.853 68.8395 105.402C68.3081 105.348 67.7815 105.347 67.2478 105.35C67.0945 105.349 66.9413 105.348 66.7833 105.348C66.2803 105.346 65.7772 105.347 65.2742 105.348C64.9223 105.348 64.5704 105.348 64.2185 105.347C63.4824 105.347 62.7463 105.347 62.0101 105.349C61.1626 105.352 60.3152 105.351 59.4677 105.349C58.648 105.347 57.8284 105.347 57.0088 105.348C56.662 105.348 56.3152 105.348 55.9684 105.347C55.4826 105.346 54.9968 105.348 54.511 105.35C54.3694 105.349 54.2277 105.348 54.0818 105.347C52.3432 105.362 50.7662 105.863 49.4743 107.064C48.7886 107.801 48.175 108.596 47.5601 109.392C47.0603 110.036 46.5284 110.637 45.9738 111.234C45.7067 111.523 45.4485 111.816 45.1927 112.115C43.71 113.81 42.1426 115.071 39.812 115.239C37.8772 115.313 36.3562 114.922 34.8216 113.705C34.7029 113.625 34.5841 113.545 34.4617 113.463C33.0983 112.173 32.2777 110.337 32.199 108.475C32.1654 106.346 32.6569 104.357 33.1595 102.302C33.2773 101.82 33.3885 101.339 33.4813 100.851C33.6565 99.9409 33.8841 99.0422 34.1073 98.1426C34.159 97.9336 34.2101 97.7245 34.2607 97.5153C34.5387 96.3662 34.8434 95.2353 35.2339 94.1188C35.2658 94.0271 35.2977 93.9353 35.3306 93.8408C35.6391 92.9866 36.0675 92.2309 36.5627 91.4732C36.6805 91.2919 36.6805 91.2919 36.8007 91.107C36.9866 90.8253 37.1747 90.5457 37.3663 90.2678C37.2817 90.2594 37.1971 90.2509 37.1099 90.2422C35.6334 90.0401 34.3165 89.3914 33.2145 88.3928C32.9122 87.9443 32.816 87.6779 32.796 87.1373C33.1175 86.1011 33.7991 85.5845 34.7379 85.0865C38.1213 83.4851 41.9988 83.5401 45.6698 83.3036C45.6645 83.1432 45.6591 82.9828 45.6536 82.8175C45.6538 81.944 45.796 81.093 45.9293 80.2316C45.9538 80.0668 45.9782 79.902 46.0034 79.7322C46.1869 78.5194 46.1869 78.5194 46.3395 78.2143C46.1178 78.215 46.1178 78.215 45.8916 78.2158C42.2886 78.2277 38.6857 78.2365 35.0827 78.242C33.3403 78.2448 31.5979 78.2485 29.8555 78.2547C28.3361 78.26 26.8168 78.2635 25.2974 78.2647C24.4935 78.2654 23.6897 78.267 22.8858 78.2709C22.1277 78.2746 21.3697 78.2757 20.6117 78.2749C20.3348 78.275 20.058 78.2761 19.7811 78.2781C17.774 78.2924 15.8476 78.1621 14.0376 77.1931C13.9064 77.1248 13.9064 77.1248 13.7725 77.0551C11.1009 75.6148 9.20403 73.3159 8.27466 70.4226C7.88652 69.023 7.86312 67.6007 7.86707 66.1595C7.86666 65.9477 7.86614 65.736 7.86552 65.5242C7.86415 64.9469 7.86443 64.3696 7.86501 63.7924C7.86534 63.168 7.86413 62.5436 7.86313 61.9192C7.86142 60.6979 7.86118 59.4765 7.86149 58.2551C7.86173 57.262 7.86149 56.2689 7.86093 55.2758C7.86085 55.1342 7.86077 54.9926 7.86068 54.8467C7.86052 54.5591 7.86036 54.2714 7.8602 53.9837C7.85874 51.289 7.85903 48.5942 7.85985 45.8994C7.86054 43.4364 7.85903 40.9734 7.85648 38.5105C7.85389 35.9785 7.85278 33.4465 7.85329 30.9145C7.85354 29.4941 7.85321 28.0738 7.85132 26.6535C7.84972 25.4445 7.84953 24.2356 7.85115 23.0266C7.85194 22.4104 7.85209 21.7942 7.85048 21.1779C7.84902 20.6128 7.84945 20.0476 7.85132 19.4825C7.85168 19.2791 7.85136 19.0757 7.85029 18.8723C7.84201 17.1943 8.01992 15.5783 8.73067 14.0374C8.7711 13.948 8.81153 13.8586 8.85318 13.7666C10.0622 11.1911 12.2396 9.44525 14.8663 8.43748C15.9348 8.10386 16.931 7.97735 18.0466 7.98438ZM15.1592 15C15.0672 15.0884 14.9752 15.1768 14.8804 15.2678C14.024 16.4881 13.8311 17.6807 13.8482 19.1428C13.8479 19.326 13.8474 19.5091 13.8465 19.6922C13.845 20.191 13.8477 20.6897 13.851 21.1885C13.854 21.728 13.853 22.2675 13.8525 22.807C13.8521 23.7403 13.8542 24.6736 13.858 25.6069C13.8634 26.9562 13.8652 28.3056 13.866 29.6549C13.8675 31.8445 13.8719 34.034 13.8783 36.2235C13.8844 38.3497 13.8891 40.4758 13.892 42.602C13.8922 42.7345 13.8923 42.8671 13.8925 43.0036C13.8939 44.0402 13.8952 45.0767 13.8965 46.1133C13.9028 51.1886 13.9163 56.2639 13.9288 61.3393C25.1989 61.4056 25.1989 61.4056 36.6966 61.4732C36.4315 61.65 36.1663 61.8268 35.8931 62.0089C35.2934 62.6572 35.1641 63.2185 35.1784 64.0838C35.273 64.7898 35.5529 65.4489 36.0844 65.9333C36.9573 66.5696 37.8436 66.5225 38.8865 66.5131C39.08 66.5138 39.2735 66.5147 39.467 66.516C39.99 66.5184 40.5129 66.5167 41.036 66.5141C41.5848 66.5119 42.1337 66.5131 42.6826 66.5138C43.6043 66.5144 44.526 66.5122 45.4477 66.5085C46.5111 66.5042 47.5745 66.5042 48.6379 66.5065C49.6635 66.5086 50.6891 66.5077 51.7147 66.5055C52.1499 66.5045 52.5851 66.5047 53.0204 66.5057C53.5337 66.5067 54.0469 66.505 54.5602 66.5014C54.7477 66.5005 54.9354 66.5005 55.123 66.5014C56.3166 66.5069 57.3576 66.4531 58.2848 65.6334C58.8385 64.8004 58.9559 64.0689 58.7948 63.0803C58.5415 62.3324 58.0222 61.8235 57.3216 61.4732C73.8953 61.429 90.469 61.3848 107.545 61.3393C107.553 54.1408 107.561 46.9423 107.57 39.5256C107.575 36.1144 107.575 36.1144 107.581 32.6341C107.582 30.5982 107.582 30.5982 107.583 28.5623C107.584 27.6544 107.585 26.7466 107.587 25.8387C107.59 24.7915 107.591 23.7443 107.59 22.6971C107.59 22.1615 107.591 21.6259 107.593 21.0903C107.595 20.6055 107.595 20.1207 107.593 19.6359C107.593 19.3785 107.595 19.1212 107.597 18.8639C107.588 17.227 107.25 16.0967 106.121 14.9032C105.134 13.9711 103.999 13.869 102.693 13.8776C102.471 13.8767 102.471 13.8767 102.244 13.8757C101.748 13.8741 101.252 13.8754 100.756 13.8766C100.397 13.8761 100.037 13.8754 99.6783 13.8744C98.8973 13.8728 98.1162 13.8726 97.3352 13.8734C96.1737 13.8747 95.0123 13.8736 93.8508 13.8721C91.7763 13.8694 89.7019 13.8691 87.6275 13.8698C85.812 13.8704 83.9965 13.8703 82.1811 13.8696C81.9376 13.8695 81.6941 13.8694 81.4506 13.8693C81.0837 13.8691 80.7168 13.869 80.3499 13.8688C76.9385 13.8674 73.5272 13.8667 70.1159 13.8678C69.9873 13.8678 69.8587 13.8679 69.7262 13.8679C68.6819 13.8682 67.6375 13.8686 66.5932 13.8689C62.5192 13.8703 58.4452 13.8692 54.3712 13.8661C49.7942 13.8626 45.2173 13.8609 40.6403 13.8618C40.1524 13.8619 39.6645 13.862 39.1765 13.8621C39.0564 13.8621 38.9363 13.8621 38.8125 13.8621C36.9982 13.8625 35.184 13.8614 33.3698 13.8596C31.3068 13.8576 29.2438 13.8575 27.1809 13.8599C26.0263 13.8612 24.8718 13.861 23.7172 13.8587C22.9459 13.8573 22.1747 13.8578 21.4034 13.8599C20.964 13.8611 20.5247 13.8611 20.0852 13.8594C19.6115 13.8576 19.1378 13.8591 18.664 13.8615C18.4603 13.8596 18.4603 13.8596 18.2525 13.8576C17.0899 13.8695 15.9991 14.1521 15.1592 15Z" fill="#AAC9EF"/>
<path d="M14.0626 61.4731C21.4876 61.4731 28.9126 61.4731 36.5626 61.4731C36.2312 61.8046 36.2312 61.8046 35.893 62.1428C35.3876 62.7384 35.3003 63.3158 35.3118 64.0832C35.4202 64.885 35.7521 65.5459 36.3914 66.0413C37.156 66.46 38.0237 66.3692 38.8713 66.3639C39.0647 66.3646 39.2582 66.3656 39.4517 66.3667C39.9752 66.3692 40.4987 66.3682 41.0223 66.3665C41.5716 66.3652 42.1208 66.3664 42.67 66.3673C43.5926 66.3682 44.515 66.367 45.4376 66.3644C46.502 66.3615 47.5663 66.3624 48.6307 66.3654C49.5465 66.3678 50.4622 66.3682 51.3779 66.3668C51.924 66.3659 52.4701 66.3658 53.0162 66.3676C53.53 66.3691 54.0438 66.368 54.5576 66.365C54.7454 66.3643 54.9333 66.3645 55.1211 66.3656C56.1592 66.3716 57.1072 66.3615 57.9912 65.7589C58.5434 65.1876 58.7045 64.667 58.7362 63.8755C58.7019 63.1398 58.5824 62.7204 58.1251 62.1428C57.8663 61.937 57.6075 61.776 57.3216 61.6071C57.3216 61.5629 57.3216 61.5187 57.3216 61.4731C73.8952 61.4731 90.4689 61.4731 107.545 61.4731C107.545 68.2897 107.545 68.2897 106.001 69.8929C105.134 70.6405 104.167 70.9983 103.028 70.9993C102.841 71 102.841 71 102.651 71.0007C102.447 71.0004 102.447 71.0004 102.239 71.0001C102.094 71.0004 101.948 71.0007 101.798 71.001C101.307 71.0019 100.816 71.0018 100.325 71.0018C99.9708 71.0022 99.6165 71.0027 99.2623 71.0033C98.3885 71.0045 97.5148 71.0051 96.641 71.0054C95.5947 71.0058 94.5483 71.0069 93.5019 71.0081C90.9728 71.0109 88.4438 71.0123 85.9147 71.0135C84.7184 71.014 83.5222 71.0147 82.326 71.0154C78.2317 71.0178 74.1375 71.0198 70.0432 71.0208C69.7862 71.0209 69.5291 71.021 69.2721 71.021C69.1446 71.0211 69.0172 71.0211 68.8858 71.0211C68.24 71.0213 67.5942 71.0214 66.9484 71.0216C66.8202 71.0216 66.692 71.0217 66.56 71.0217C62.4035 71.0228 58.2471 71.0259 54.0906 71.0303C49.6969 71.0348 45.3032 71.0375 40.9095 71.0379C40.4273 71.038 39.9451 71.038 39.4628 71.0381C39.2847 71.0381 39.2847 71.0381 39.103 71.0382C37.1914 71.0385 35.2798 71.0406 33.3682 71.0433C31.4471 71.046 29.5261 71.0468 27.605 71.0455C26.4635 71.0448 25.3221 71.0456 24.1806 71.0485C23.4181 71.0503 22.6555 71.0502 21.893 71.0485C21.4585 71.0475 21.0241 71.0477 20.5897 71.0497C20.1212 71.0518 19.6529 71.0505 19.1844 71.0484C19.0502 71.0497 18.916 71.0511 18.7777 71.0525C17.4188 71.0392 16.2646 70.573 15.268 69.6428C13.1816 67.3624 14.0626 64.63 14.0626 61.4731Z" fill="#50B173"/>
<path d="M47.9467 23.086C49.0361 23.6957 49.6435 24.8954 50.2361 25.9472C50.5213 26.4351 50.8284 26.9033 51.1443 27.3717C51.9461 28.5614 52.719 29.7683 53.488 30.9794C53.9405 31.6919 54.4001 32.3995 54.8597 33.1073C55.2451 33.7023 55.6248 34.3004 56.0008 34.9014C56.7911 36.1643 57.613 37.4044 58.4435 38.641C59.136 39.6731 59.8017 40.714 60.4293 41.7868C60.7159 42.264 61.0324 42.7125 61.3569 43.1643C61.6733 43.6221 61.967 44.092 62.2604 44.5648C62.3177 44.6572 62.375 44.7495 62.4341 44.8447C62.4914 44.9371 62.5487 45.0294 62.6077 45.1246C63.2439 46.1497 63.8941 47.1656 64.5706 48.1647C64.6427 48.2715 64.7148 48.3783 64.7891 48.4883C64.9299 48.6964 65.0715 48.9041 65.2138 49.1112C65.7949 49.9701 66.2933 50.7534 66.161 51.8304C65.8941 52.6193 65.4979 53.0967 64.8217 53.5715C64.4457 53.6968 64.2181 53.7225 63.8293 53.7234C63.647 53.7243 63.647 53.7243 63.4611 53.7252C63.2606 53.7252 63.2606 53.7252 63.056 53.7251C62.8432 53.7259 62.8432 53.7259 62.6261 53.7266C62.1483 53.7281 61.6705 53.7286 61.1927 53.7291C60.8511 53.73 60.5095 53.7309 60.1679 53.7318C59.1411 53.7344 58.1143 53.7358 57.0876 53.737C56.604 53.7376 56.1205 53.7383 55.637 53.739C54.0297 53.7413 52.4224 53.7432 50.8151 53.7442C50.398 53.7444 49.9809 53.7447 49.5638 53.745C49.4602 53.745 49.3565 53.7451 49.2497 53.7452C47.5702 53.7463 45.8907 53.7497 44.2112 53.754C42.487 53.7584 40.7627 53.7608 39.0385 53.7613C38.0704 53.7616 37.1023 53.7627 36.1341 53.7662C35.2235 53.7694 34.3129 53.7698 33.4023 53.7685C33.0679 53.7684 32.7335 53.7693 32.3992 53.7711C31.9429 53.7734 31.4868 53.7725 31.0305 53.7707C30.8318 53.773 30.8318 53.7729 30.629 53.7752C29.8113 53.7676 29.3304 53.6478 28.661 53.1697C28.0502 52.5093 27.7885 51.9681 27.812 51.0739C27.8902 50.5322 28.1505 50.1439 28.4518 49.6959C28.5161 49.5956 28.5804 49.4952 28.6466 49.3918C28.8718 49.042 29.1012 48.6952 29.3307 48.3483C29.5167 48.0633 29.7026 47.7781 29.8883 47.4929C30.1835 47.0403 30.479 46.5878 30.7759 46.1363C31.4152 45.1636 32.0406 44.184 32.6538 43.1946C33.3516 42.0688 34.0751 40.9602 34.8134 39.8606C35.4466 38.9164 36.0494 37.9549 36.6488 36.9891C38.3172 34.305 38.3172 34.305 38.9317 33.4487C39.3633 32.8467 39.7385 32.2172 40.116 31.5806C40.9568 30.1656 41.8694 28.7986 42.7876 27.4331C43.1812 26.8452 43.5605 26.2511 43.9283 25.6469C45.9868 22.2681 45.9868 22.2681 47.9467 23.086Z" fill="#5AC587"/>
<path d="M75.5948 20.198C75.7567 20.1999 75.9186 20.2017 76.0853 20.2035C76.4827 20.2083 76.88 20.2148 77.2773 20.2232C77.2781 20.3816 77.2781 20.3816 77.2788 20.5432C77.2839 21.5402 77.2915 22.5372 77.302 23.5343C77.3072 24.0468 77.3116 24.5593 77.3136 25.0719C77.3157 25.5669 77.3203 26.0618 77.3267 26.5568C77.3286 26.7453 77.3297 26.9337 77.3298 27.1222C77.3301 27.387 77.3341 27.6518 77.3381 27.9165C77.3393 28.067 77.3405 28.2175 77.3417 28.3726C77.4265 28.8869 77.6443 29.1801 77.947 29.5982C77.947 29.6866 77.947 29.7749 77.947 29.866C78.689 30.1153 79.3417 30.1736 80.1215 30.1728C80.302 30.1741 80.302 30.1741 80.4861 30.1755C80.8816 30.178 81.277 30.1786 81.6724 30.1789C81.9484 30.1797 82.2244 30.1806 82.5003 30.1816C83.0777 30.1832 83.6551 30.1837 84.2326 30.1835C84.9719 30.1835 85.7112 30.1871 86.4505 30.1918C87.02 30.1947 87.5895 30.1953 88.1591 30.1951C88.4317 30.1954 88.7043 30.1966 88.9768 30.1987C89.358 30.2013 89.739 30.2006 90.1201 30.1989C90.2322 30.2004 90.3443 30.202 90.4598 30.2035C91.1722 30.1958 91.588 30.0839 92.1434 29.5982C92.61 29.032 92.7465 28.6453 92.7522 27.9165C92.7549 27.745 92.7575 27.5734 92.7602 27.3967C92.7605 27.2115 92.7606 27.0263 92.7607 26.8411C92.7627 26.6501 92.765 26.4591 92.7674 26.268C92.7733 25.7674 92.776 25.2667 92.778 24.766C92.7806 24.2543 92.7862 23.7425 92.7916 23.2308C92.8017 22.2283 92.8084 21.2257 92.813 20.2232C93.2985 20.2074 93.7839 20.198 94.2695 20.1897C94.4052 20.1852 94.5409 20.1807 94.6807 20.1761C95.8018 20.1617 96.7973 20.3403 97.6628 21.0999C97.7836 21.2258 97.9044 21.3517 98.0289 21.4814C98.0958 21.5497 98.1627 21.6181 98.2317 21.6885C98.442 21.9041 98.6493 22.1223 98.8566 22.3409C99.1324 22.6271 99.4094 22.9121 99.6863 23.1973C99.7522 23.2657 99.8181 23.334 99.8861 23.4045C100.337 23.8697 100.804 24.3048 101.302 24.7196C101.711 25.0803 102.077 25.4921 102.322 25.9821C102.336 26.2356 102.341 26.4896 102.342 26.7434C102.343 26.9865 102.343 26.9865 102.345 27.2344C102.345 27.415 102.345 27.5955 102.346 27.776C102.347 27.9654 102.347 28.1548 102.348 28.3443C102.351 28.9675 102.353 29.5907 102.354 30.2139C102.354 30.4286 102.355 30.6432 102.356 30.8579C102.358 31.8668 102.36 32.8757 102.361 33.8846C102.362 35.0482 102.366 36.2117 102.371 37.3753C102.375 38.2751 102.377 39.1749 102.378 40.0747C102.378 40.6118 102.379 41.1489 102.383 41.686C102.386 42.192 102.386 42.698 102.385 43.204C102.385 43.389 102.386 43.574 102.388 43.759C102.399 44.9373 102.405 45.9748 101.543 46.8551C100.462 47.6615 99.1482 47.5216 97.8654 47.5104C97.6043 47.511 97.3433 47.512 97.0823 47.5133C96.3764 47.5159 95.6706 47.5134 94.9647 47.5098C94.2247 47.5067 93.4846 47.5078 92.7446 47.5084C91.5024 47.5086 90.2602 47.5056 89.0179 47.5007C87.5829 47.495 86.148 47.4941 84.713 47.4958C83.3306 47.4973 81.9482 47.4958 80.5658 47.4928C79.9783 47.4915 79.3908 47.4913 78.8033 47.4919C78.1114 47.4924 77.4196 47.4902 76.7277 47.486C76.4741 47.4848 76.2206 47.4846 75.9671 47.4853C75.6203 47.4862 75.2736 47.4838 74.9268 47.4805C74.7773 47.482 74.7773 47.482 74.6248 47.4836C73.8964 47.4715 73.3341 47.2759 72.7238 46.8749C72.1038 46.2061 71.8867 45.7594 71.8817 44.8472C71.8808 44.7492 71.8799 44.6511 71.879 44.5501C71.8763 44.2207 71.8756 43.8914 71.8749 43.5619C71.8734 43.3261 71.8719 43.0903 71.8702 42.8545C71.8661 42.213 71.8638 41.5716 71.8621 40.9301C71.8611 40.5293 71.8597 40.1285 71.8583 39.7277C71.8539 38.4736 71.8507 37.2195 71.849 35.9653C71.8471 34.5179 71.8413 33.0705 71.832 31.6231C71.825 30.5042 71.8217 29.3854 71.8211 28.2665C71.8206 27.5982 71.8186 26.9301 71.8129 26.2619C71.8075 25.633 71.8067 25.0042 71.8092 24.3752C71.8094 24.1448 71.808 23.9144 71.8048 23.684C71.7795 21.7279 71.7795 21.7279 72.3699 21.0318C73.3578 20.1151 74.3033 20.1706 75.5948 20.198Z" fill="#ED7C46"/>
<path d="M80.1346 33.966C80.3006 33.9653 80.4666 33.9646 80.6377 33.9638C81.0915 33.9624 81.5453 33.9627 81.9991 33.964C82.4749 33.965 82.9507 33.9641 83.4265 33.9634C84.2254 33.9627 85.0242 33.9637 85.8231 33.9656C86.7456 33.9678 87.6681 33.9671 88.5906 33.9648C89.3839 33.963 90.1771 33.9628 90.9704 33.9638C91.4436 33.9644 91.9168 33.9645 92.3901 33.9632C92.9178 33.9618 93.4454 33.9637 93.9731 33.966C94.1293 33.9652 94.2854 33.9643 94.4463 33.9635C95.3375 33.9705 96.0001 34.0161 96.6784 34.6546C96.7424 34.7346 96.8065 34.8145 96.8725 34.8969C96.9383 34.9771 97.004 35.0574 97.0718 35.1401C97.443 35.6419 97.3842 36.1249 97.3816 36.7251C97.3816 36.8388 97.3816 36.9525 97.3816 37.0696C97.3815 37.4464 97.3805 37.8233 97.3794 38.2001C97.3792 38.4609 97.379 38.7218 97.3789 38.9826C97.3783 39.67 97.377 40.3574 97.3755 41.0448C97.3742 41.7459 97.3736 42.447 97.3729 43.1481C97.3715 44.5244 97.3691 45.9006 97.3664 47.2769C98.3829 47.2769 99.3994 47.2769 100.447 47.2769C100.447 47.3211 100.447 47.3653 100.447 47.4108C91.6516 47.4108 82.8565 47.4108 73.7949 47.4108C73.7949 47.3666 73.7949 47.3224 73.7949 47.2769C74.7672 47.2769 75.7396 47.2769 76.7414 47.2769C76.7392 46.941 76.7371 46.6051 76.735 46.2591C76.7283 45.1477 76.7239 44.0364 76.7205 42.925C76.7184 42.2514 76.7156 41.5778 76.711 40.9041C76.7067 40.2537 76.7043 39.6033 76.7032 38.9529C76.7025 38.7051 76.701 38.4573 76.6989 38.2095C76.6959 37.8616 76.6956 37.5139 76.6957 37.166C76.6943 37.0642 76.6928 36.9624 76.6914 36.8575C76.6969 35.8933 76.9939 35.1242 77.6789 34.4197C78.4493 33.8933 79.2371 33.9613 80.1346 33.966Z" fill="#F1A46E"/>
<path d="M41.7864 53.7053C45.1895 53.7053 48.5926 53.7053 52.0989 53.7053C52.5593 56.6852 52.5593 56.6852 52.7039 57.6239C52.742 57.8698 52.7801 58.1156 52.8182 58.3614C52.8378 58.4888 52.8573 58.6162 52.8775 58.7475C52.8965 58.8698 52.9155 58.992 52.9351 59.1181C52.9597 59.2769 52.9597 59.2769 52.9847 59.4389C53.0329 59.7328 53.0329 59.7328 53.1089 60.0204C53.2171 60.4561 53.1778 60.8923 53.1703 61.3393C53.2824 61.3357 53.3944 61.3322 53.5098 61.3286C53.9302 61.3171 54.3504 61.3088 54.7708 61.3025C55.0404 61.2975 55.31 61.289 55.5795 61.2804C56.6018 61.2676 57.3503 61.2981 58.1257 62.0089C58.7843 62.7182 58.8601 63.3227 58.8487 64.2658C58.7633 64.9402 58.5009 65.4426 57.9917 65.8928C56.9945 66.5158 55.9902 66.5059 54.847 66.5C54.6533 66.5009 54.4596 66.5021 54.2658 66.5035C53.7428 66.5065 53.2199 66.5061 52.6969 66.5049C52.2593 66.5042 51.8216 66.5052 51.3839 66.5062C50.3512 66.5084 49.3184 66.508 48.2857 66.5057C47.2222 66.5035 46.1587 66.5056 45.0952 66.5099C44.1799 66.5135 43.2647 66.5145 42.3494 66.5133C41.8036 66.5127 41.258 66.513 40.7122 66.5157C40.1992 66.5182 39.6862 66.5174 39.1731 66.5141C38.9855 66.5134 38.7978 66.5139 38.6101 66.5156C37.5468 66.5245 36.7078 66.501 35.8935 65.7589C35.3686 65.0984 35.1204 64.3366 35.1768 63.4952C35.3302 62.5802 35.7112 62.1306 36.4292 61.6071C36.9158 61.2827 37.1415 61.308 37.7199 61.3131C37.9808 61.3144 37.9808 61.3144 38.247 61.3157C38.4307 61.3179 38.6144 61.3202 38.7981 61.3225C38.9834 61.3239 39.1687 61.3251 39.354 61.3262C39.8076 61.3293 40.2613 61.3337 40.715 61.3393C40.7362 61.1809 40.7574 61.0226 40.7793 60.8595C41.1019 58.4727 41.4457 56.0899 41.7864 53.7053Z" fill="#F2D4B7"/>
<path d="M32.1779 18.5297C32.4506 18.7235 32.6982 18.9277 32.9464 19.1518C33.029 19.2251 33.1115 19.2985 33.1965 19.3741C34.0642 20.1915 34.5915 21.1023 34.9554 22.2321C34.9554 22.3647 34.9554 22.4973 34.9554 22.6339C35.1791 22.5013 35.1791 22.5013 35.4074 22.3661C36.0628 22.0743 36.668 22.0382 37.3745 22.0312C37.4756 22.0288 37.5767 22.0264 37.681 22.0239C38.6931 22.0345 39.4958 22.41 40.2121 23.1278C40.9419 23.9079 41.2731 24.634 41.317 25.7059C41.266 26.9597 40.8524 27.8506 39.9322 28.702C39.1936 29.2804 38.413 29.6136 37.4727 29.6179C37.3283 29.6189 37.1839 29.6198 37.0352 29.6208C36.8767 29.6212 36.7183 29.6215 36.5551 29.6219C36.3882 29.6228 36.2214 29.6237 36.0495 29.6246C35.4959 29.6272 34.9424 29.6288 34.3888 29.6301C34.198 29.6307 34.0072 29.6312 33.8164 29.6318C32.9196 29.6343 32.0229 29.6362 31.1262 29.6373C30.0924 29.6386 29.0586 29.6422 28.0249 29.6476C27.225 29.6516 26.4252 29.6536 25.6254 29.6541C25.148 29.6544 24.6708 29.6556 24.1935 29.6589C23.6603 29.6626 23.1272 29.6621 22.5941 29.6611C22.3585 29.6637 22.3585 29.6637 22.1181 29.6663C21.0115 29.6593 20.3013 29.4878 19.4531 28.736C19.3537 28.6228 19.2543 28.5095 19.1518 28.3928C19.0579 28.2934 18.964 28.194 18.8672 28.0915C18.3393 27.3172 18.0544 26.3826 18.2143 25.4464C18.5414 24.38 19.1503 23.5373 20.0726 22.9101C20.9352 22.4626 21.9582 22.5386 22.9018 22.6339C23.3015 22.7715 23.3015 22.7715 23.5714 22.9018C23.5604 22.7747 23.5493 22.6476 23.538 22.5167C23.5426 21.3697 24.1901 20.3954 24.9107 19.5536C24.9732 19.4722 25.0357 19.3909 25.1001 19.3072C26.7596 17.3626 30.1015 17.2853 32.1779 18.5297Z" fill="#FBFCFD"/>
<path d="M95.1415 51.3628C96.3541 52.2481 97.3053 53.3316 97.7683 54.7769C97.8132 55.1136 97.806 55.3747 97.7683 55.7144C97.8617 55.6713 97.9551 55.6281 98.0513 55.5836C99.0925 55.2145 100.244 55.3636 101.231 55.8232C102.236 56.3792 102.768 57.1871 103.125 58.2591C103.22 59.3052 103.147 60.042 102.59 60.9376C102.546 60.9818 102.501 61.026 102.456 61.0716C104.091 61.1158 105.726 61.16 107.411 61.2055C107.411 61.2497 107.411 61.2939 107.411 61.3394C90.7049 61.3394 73.9986 61.3394 56.7861 61.3394C56.7861 61.2952 56.7861 61.251 56.7861 61.2055C65.4928 61.1613 74.1995 61.1171 83.1701 61.0716C82.8386 60.6738 82.8386 60.6738 82.5004 60.268C81.9496 59.3688 82.0027 58.4806 82.0986 57.4555C82.321 56.5577 82.958 55.955 83.7058 55.4466C84.7173 54.8944 85.6721 54.7375 86.7861 55.0448C86.8133 54.9231 86.8133 54.9231 86.8411 54.7989C87.2706 53.1269 88.2966 51.986 89.7697 51.1143C91.4197 50.257 93.5777 50.3749 95.1415 51.3628Z" fill="#FAFCFD"/>
<path d="M46.3397 78.0803C55.8861 78.0803 65.4326 78.0803 75.2683 78.0803C75.735 80.414 75.735 80.414 75.8961 81.5792C75.9134 81.6987 75.9308 81.8181 75.9486 81.9412C76.0272 82.4982 76.0718 83.0047 76.0718 83.5714C65.9951 83.5714 55.9183 83.5714 45.5361 83.5714C45.7565 81.7347 45.9988 79.8985 46.3397 78.0803Z" fill="#6190DD"/>
<path d="M77.2764 20.2231C82.4032 20.2231 87.53 20.2231 92.8121 20.2231C92.8231 21.6209 92.8342 23.0186 92.8456 24.4586C92.8505 24.8988 92.8553 25.339 92.8604 25.7925C92.8619 26.142 92.8633 26.4916 92.8644 26.8411C92.8658 26.9312 92.8672 27.0213 92.8687 27.1141C92.8726 27.3815 92.8728 27.649 92.8729 27.9165C92.8741 28.067 92.8753 28.2175 92.8765 28.3725C92.7732 29.0497 92.4296 29.4632 91.9248 29.9079C91.3457 30.3193 90.8709 30.2885 90.18 30.2894C90.06 30.29 89.94 30.2907 89.8163 30.2914C89.4179 30.2933 89.0195 30.2943 88.6211 30.295C88.3445 30.2958 88.0678 30.2965 87.7912 30.2973C87.2104 30.2987 86.6295 30.2995 86.0487 30.3C85.3053 30.3007 84.5619 30.3039 83.8186 30.3077C83.2467 30.3102 82.6749 30.3109 82.1031 30.3111C81.8291 30.3115 81.5551 30.3126 81.2811 30.3144C80.8971 30.3167 80.5131 30.3164 80.1291 30.3155C80.0164 30.3168 79.9037 30.318 79.7876 30.3193C78.9886 30.3136 78.3364 30.2038 77.7103 29.662C77.1253 28.7743 77.1908 27.8442 77.211 26.8149C77.2117 26.6475 77.2123 26.4801 77.213 26.3076C77.2165 25.6857 77.2259 25.0638 77.2345 24.4419C77.2483 23.0497 77.2622 21.6575 77.2764 20.2231Z" fill="#FAE5CC"/>
<path d="M87.6775 22.4466C87.8255 22.4461 87.9734 22.4456 88.1259 22.4451C88.2804 22.4466 88.4349 22.4482 88.5941 22.4498C88.8259 22.4474 88.8259 22.4474 89.0623 22.4451C89.2103 22.4456 89.3582 22.4461 89.5107 22.4466C89.6463 22.4471 89.7819 22.4475 89.9216 22.448C90.328 22.509 90.419 22.5862 90.67 22.9018C90.7083 23.2911 90.7231 23.6511 90.7187 24.0402C90.7187 24.1516 90.7188 24.2631 90.7189 24.3779C90.7185 24.6134 90.7172 24.8489 90.715 25.0844C90.7119 25.4451 90.7123 25.8056 90.7132 26.1663C90.7124 26.3951 90.7115 26.6239 90.7103 26.8527C90.7105 27.0147 90.7105 27.0147 90.7107 27.1799C90.7041 27.6975 90.6958 27.9524 90.4021 28.3929C90.044 28.4427 90.044 28.4427 89.5944 28.4415C89.4333 28.4414 89.2722 28.4413 89.1063 28.4412C88.8528 28.438 88.8528 28.438 88.5941 28.4347C88.4251 28.4351 88.2561 28.4356 88.0819 28.436C86.8218 28.4286 86.8218 28.4286 86.5182 28.125C86.4898 27.7358 86.4775 27.3598 86.4779 26.9704C86.4774 26.8558 86.4768 26.7412 86.4762 26.6231C86.4754 26.3805 86.4754 26.1379 86.4759 25.8953C86.4764 25.5237 86.4732 25.1523 86.4698 24.7807C86.4695 24.5452 86.4694 24.3097 86.4696 24.0742C86.4683 23.9628 86.4671 23.8515 86.4658 23.7368C86.4721 22.96 86.4721 22.96 86.7006 22.6716C87.0221 22.4202 87.2737 22.448 87.6775 22.4466Z" fill="#ED7C45"/>
<path d="M44.196 43.3929C44.4758 43.6424 44.4758 43.6424 44.7233 43.9704C45.2665 44.6223 45.687 44.9393 46.5533 45.0408C47.3939 45.0802 48.0736 44.9878 48.7495 44.4643C48.916 44.2786 49.0778 44.0887 49.235 43.8951C49.6358 43.4037 49.6358 43.4037 50.1223 43.3008C50.4906 43.3929 50.4906 43.3929 50.7417 43.5268C50.9913 43.9705 50.9964 44.3815 50.8924 44.8661C50.4077 45.8482 49.5064 46.4866 48.512 46.8928C47.3407 47.2076 46.0173 47.1873 44.9158 46.6657C44.1005 46.192 43.3617 45.6211 42.9906 44.7321C42.9192 43.9177 42.9192 43.9177 43.1413 43.5352C43.5122 43.325 43.7757 43.3477 44.196 43.3929Z" fill="#0F1C1F"/>
<path d="M43.9702 37.9018C44.6148 38.2667 45.0846 38.6986 45.4016 39.375C45.5043 39.8581 45.4969 40.267 45.2593 40.7143C44.8366 40.9325 44.5282 40.9136 44.0623 40.8482C43.7693 40.5469 43.7693 40.5469 43.5266 40.1786C43.1955 39.7562 43.0692 39.6557 42.5305 39.5675C41.9273 39.6628 41.7727 39.8519 41.3837 40.3125C41.0573 40.6976 41.0573 40.6976 40.7141 40.9822C40.2939 40.9657 40.0167 40.9013 39.6427 40.7143C39.4984 40.1063 39.4338 39.8024 39.7013 39.2327C40.8772 37.8847 42.1914 37.1037 43.9702 37.9018Z" fill="#101F21"/>
<path d="M53.1545 37.9804C53.722 38.36 54.203 38.8971 54.509 39.509C54.5862 40.4824 54.5862 40.4824 54.2914 40.8567C53.8294 41.0391 53.6399 41.0235 53.1697 40.8483C52.9014 40.5868 52.6679 40.3132 52.4352 40.0196C52.16 39.6905 52.0147 39.6497 51.5877 39.5927C50.9128 39.6721 50.6498 40.1232 50.2316 40.6223C49.9554 40.8483 49.9554 40.8483 49.5453 40.9069C49.1518 40.8483 49.1518 40.8483 48.9007 40.7144C48.6509 40.2702 48.647 39.86 48.7501 39.3751C49.1289 38.567 49.735 38.103 50.5387 37.7476C51.4582 37.4528 52.2943 37.5556 53.1545 37.9804Z" fill="#0F1E20"/>
<path d="M61.4736 73.3929C61.9335 73.6608 62.3055 73.9853 62.545 74.4643C62.6124 75.1496 62.6577 75.7404 62.3107 76.3477C61.7247 76.8523 61.2371 76.9481 60.4754 76.9368C59.9087 76.8342 59.5613 76.5018 59.1968 76.0715C58.9452 75.5683 58.974 75.0108 59.0629 74.4643C59.6392 73.4749 60.3585 73.2115 61.4736 73.3929Z" fill="#5BC586"/>
<path d="M47.0373 85.6945C47.1587 85.694 47.2802 85.6936 47.4053 85.693C47.8107 85.6916 48.2161 85.6911 48.6215 85.6905C48.9129 85.6897 49.2042 85.6888 49.4956 85.6879C50.4516 85.6851 51.4076 85.6837 52.3636 85.6823C52.6936 85.6818 53.0237 85.6812 53.3538 85.6807C54.9057 85.6781 56.4576 85.6762 58.0095 85.6751C59.7956 85.6738 61.5816 85.6703 63.3677 85.6649C64.7514 85.6608 66.1351 85.6588 67.5188 85.6584C68.3436 85.6581 69.1684 85.6569 69.9933 85.6535C70.7708 85.6504 71.5483 85.6498 72.3258 85.6512C72.6091 85.6513 72.8924 85.6504 73.1757 85.6486C75.8879 85.6318 78.2595 85.9402 80.6251 87.3214C80.7567 87.3944 80.8882 87.4674 81.0238 87.5427C83.7004 89.1201 85.6169 91.7409 86.5263 94.6791C86.5726 94.8257 86.6188 94.9723 86.6664 95.1233C86.9946 96.1848 87.2592 97.2487 87.4822 98.3365C87.5932 98.8572 87.7371 99.3568 87.8988 99.8634C87.9842 100.155 88.0472 100.439 88.1026 100.737C88.2273 101.377 88.3688 102.011 88.5149 102.646C88.5497 102.797 88.5497 102.797 88.5853 102.952C88.6824 103.373 88.7798 103.794 88.8773 104.216C88.9492 104.527 89.0208 104.838 89.0924 105.149C89.1253 105.29 89.1253 105.29 89.1588 105.434C89.6918 107.751 89.5705 109.794 88.3605 111.879C87.293 113.478 85.822 114.571 83.965 115.078C82.1187 115.433 80.3286 115.2 78.6915 114.258C77.3506 113.346 76.2207 112.077 75.2392 110.798C74.9138 110.38 74.5594 109.993 74.2049 109.6C73.9041 109.258 73.6194 108.905 73.3344 108.549C72.071 107.002 70.8274 105.853 68.8394 105.402C68.3081 105.348 67.7814 105.347 67.2477 105.35C67.0944 105.349 66.9412 105.348 66.7833 105.348C66.2802 105.346 65.7772 105.347 65.2741 105.348C64.9222 105.348 64.5703 105.348 64.2184 105.347C63.4823 105.346 62.7462 105.347 62.0101 105.349C61.1626 105.352 60.3151 105.351 59.4676 105.349C58.6479 105.347 57.8283 105.347 57.0087 105.348C56.6619 105.348 56.3151 105.348 55.9683 105.347C55.4825 105.346 54.9967 105.348 54.5109 105.35C54.3693 105.349 54.2277 105.348 54.0817 105.347C52.3431 105.362 50.7662 105.863 49.4742 107.064C48.7885 107.801 48.1749 108.596 47.56 109.392C47.0602 110.036 46.5284 110.636 45.9737 111.234C45.7066 111.523 45.4484 111.816 45.1926 112.115C43.7099 113.81 42.1425 115.071 39.812 115.239C37.8771 115.313 36.3562 114.922 34.8215 113.705C34.7028 113.625 34.584 113.545 34.4616 113.463C33.0983 112.173 32.2776 110.337 32.1989 108.475C32.1653 106.346 32.6569 104.357 33.1594 102.302C33.2772 101.82 33.3885 101.339 33.4812 100.851C33.6564 99.9409 33.884 99.0422 34.1072 98.1426C34.1589 97.9336 34.21 97.7245 34.2607 97.5152C34.5388 96.3654 34.8438 95.2342 35.2354 94.1172C35.2675 94.0253 35.2996 93.9333 35.3327 93.8385C36.5126 90.5768 39.1309 88.0445 42.2206 86.5796C42.5648 86.4487 42.9028 86.3427 43.259 86.25C43.3953 86.2123 43.5315 86.1747 43.6718 86.1359C44.7997 85.8383 45.8732 85.6943 47.0373 85.6945Z" fill="#494E57"/>
<path d="M46.7916 90.3597C46.9843 90.3539 46.9843 90.3539 47.1808 90.348C48.1263 90.3394 48.1263 90.3394 48.563 90.647C48.8705 91.1236 48.9004 91.4986 48.8973 92.0522C48.8969 92.1898 48.8965 92.3275 48.896 92.4694C48.8943 92.6847 48.8943 92.6847 48.8926 92.9044C48.892 93.0495 48.8914 93.1946 48.8908 93.3441C48.8892 93.7026 48.887 94.061 48.8842 94.4195C48.9869 94.4167 49.0896 94.4138 49.1954 94.411C49.6609 94.3998 50.1263 94.3928 50.5918 94.386C50.7534 94.3815 50.915 94.377 51.0815 94.3724C51.3146 94.3698 51.3146 94.3698 51.5524 94.3671C51.6954 94.3643 51.8385 94.3615 51.9859 94.3586C52.4608 94.4345 52.6105 94.5803 52.9021 94.9552C53.0656 95.4458 53.0607 95.9008 53.0611 96.4116C53.0628 96.5064 53.0644 96.6012 53.0661 96.6989C53.0676 97.2478 53.0416 97.6882 52.7682 98.1695C52.3356 98.5785 52.0345 98.6195 51.4477 98.6105C51.2984 98.6092 51.149 98.6079 50.9952 98.6066C50.7624 98.6015 50.7624 98.6015 50.5249 98.5964C50.3676 98.5945 50.2103 98.5927 50.0483 98.5909C49.6602 98.5861 49.2723 98.5795 48.8842 98.5712C48.8863 98.6651 48.8885 98.759 48.8906 98.8557C48.899 99.2826 48.9042 99.7095 48.9094 100.137C48.9127 100.284 48.9161 100.432 48.9196 100.584C48.9208 100.727 48.9221 100.87 48.9235 101.017C48.9256 101.148 48.9277 101.279 48.9299 101.414C48.8752 101.859 48.7537 102.1 48.4825 102.455C47.9393 102.819 47.3819 102.772 46.7498 102.773C46.6428 102.777 46.5359 102.78 46.4257 102.783C45.8865 102.786 45.6036 102.764 45.1337 102.477C44.7257 102.035 44.7125 101.651 44.6901 101.072C44.6845 100.935 44.6789 100.797 44.6731 100.655C44.6678 100.512 44.6625 100.368 44.6571 100.22C44.6513 100.075 44.6456 99.93 44.6396 99.7805C44.6254 99.4221 44.6117 99.0636 44.5985 98.7052C44.5047 98.7046 44.4108 98.7041 44.3141 98.7035C43.887 98.6991 43.4602 98.6896 43.0332 98.6801C42.8855 98.6793 42.7378 98.6785 42.5857 98.6777C41.9482 98.6604 41.5079 98.6438 40.9516 98.3175C40.6055 97.7101 40.6167 97.1832 40.6309 96.4953C40.6283 96.3698 40.6257 96.2443 40.623 96.115C40.6271 95.5425 40.667 95.1749 40.9474 94.669C41.6406 94.273 42.3181 94.3491 43.1002 94.3776C43.2569 94.3806 43.4135 94.3836 43.575 94.3868C43.961 94.3946 44.3466 94.4056 44.7325 94.4195C44.7304 94.3256 44.7282 94.2317 44.7261 94.135C44.7177 93.7081 44.7125 93.2812 44.7073 92.8542C44.704 92.7065 44.7006 92.5588 44.6971 92.4066C44.6958 92.2637 44.6946 92.1209 44.6932 91.9737C44.6911 91.8425 44.689 91.7114 44.6868 91.5763C44.7406 91.1386 44.876 90.8897 45.1342 90.5355C45.6368 90.2842 46.2385 90.3653 46.7916 90.3597Z" fill="#172029"/>
<path d="M70.5806 94.0178C71.1529 94.2425 71.5418 94.5417 71.9115 95.0306C72.1791 95.6445 72.2552 96.155 72.1877 96.8303C71.8919 97.5575 71.4319 98.0762 70.7474 98.4579C70.1971 98.6655 69.6828 98.6757 69.1073 98.5714C68.5147 98.2751 68.1438 97.9087 67.7681 97.366C67.5411 96.685 67.5662 95.9573 67.7095 95.2566C68.4122 94.1567 69.328 93.8676 70.5806 94.0178Z" fill="#4579C8"/>
<path d="M75.6867 89.5395C76.2474 89.8509 76.6076 90.2186 76.8754 90.8035C77.0534 91.4284 77.0457 91.8875 76.8586 92.5111C76.5119 93.112 76.0844 93.6694 75.4021 93.8838C74.6787 93.9313 74.07 93.9043 73.3932 93.616C72.9249 93.1782 72.4837 92.7171 72.4238 92.0612C72.39 90.6329 72.39 90.6329 72.9914 89.9999C73.853 89.3493 74.6587 89.0848 75.6867 89.5395Z" fill="#F0CC4E"/>
<path d="M81.0284 94.4808C81.537 94.8755 81.7718 95.2826 81.8801 95.9153C81.923 96.672 81.7456 97.2903 81.2946 97.9017C80.5967 98.4688 80.0491 98.6235 79.1544 98.6085C78.524 98.5219 78.1087 98.0898 77.7037 97.6339C77.3121 97.0969 77.3121 97.0969 77.2768 96.6964C77.2602 96.5306 77.2436 96.3649 77.2266 96.1941C77.2341 95.5233 77.5348 95.0653 77.9464 94.5535C78.8467 93.7078 80.0454 93.8748 81.0284 94.4808Z" fill="#E88261"/>
<path d="M75.6956 98.665C76.2728 98.9605 76.6181 99.3243 76.8753 99.9106C76.9832 100.7 77.0457 101.51 76.5991 102.204C76.1521 102.709 75.6454 102.937 74.9778 103.033C74.2104 103.075 73.6165 102.904 72.9914 102.455C72.4899 101.954 72.4158 101.534 72.3887 100.848C72.4142 100.16 72.5109 99.7593 72.9914 99.241C73.1018 99.1139 73.2123 98.9868 73.3262 98.8559C73.9784 98.3431 74.9408 98.4242 75.6956 98.665Z" fill="#5BC789"/>
<path d="M64.0767 100.137C64.2684 100.131 64.2684 100.131 64.4641 100.125C65.3993 100.116 65.3993 100.116 65.8428 100.416C66.0638 100.774 66.0971 101.087 66.1112 101.505C65.9676 101.984 65.762 102.162 65.3573 102.455C64.8642 102.554 64.3855 102.549 63.8841 102.539C63.6863 102.543 63.6863 102.543 63.4844 102.547C62.8459 102.542 62.5141 102.531 61.9887 102.145C61.6639 101.673 61.6494 101.41 61.7413 100.848C62.3574 100.041 63.1467 100.146 64.0767 100.137Z" fill="#19222B"/>
<path d="M56.601 100.259C56.8221 100.258 56.8221 100.258 57.0476 100.258C57.2015 100.259 57.3554 100.261 57.514 100.262C57.6673 100.261 57.8207 100.259 57.9788 100.258C58.1263 100.258 58.2738 100.259 58.4258 100.259C58.5607 100.26 58.6956 100.26 58.8346 100.261C59.2522 100.321 59.434 100.419 59.7321 100.714C59.8661 101.166 59.8661 101.166 59.8661 101.652C59.5867 102.111 59.4409 102.285 58.9286 102.455C58.4438 102.5 57.9586 102.505 57.4721 102.514C57.2724 102.523 57.2724 102.523 57.0687 102.533C56.1165 102.547 56.1165 102.547 55.7398 102.29C55.3944 101.901 55.3125 101.68 55.3125 101.158C55.5435 100.393 55.8166 100.262 56.601 100.259Z" fill="#18212A"/>
<path d="M75.9372 102.723C75.893 102.856 75.8488 102.988 75.8033 103.125C75.2652 103.238 74.8634 103.266 74.3301 103.125C74.3301 103.081 74.3301 103.037 74.3301 102.991C74.5476 102.946 74.7653 102.901 74.983 102.857C75.1042 102.832 75.2254 102.807 75.3502 102.782C75.6694 102.723 75.6694 102.723 75.9372 102.723Z" fill="#4D5F5D"/>
<path d="M34.8216 95.625C34.9699 96.0699 34.9518 96.3805 34.8216 96.8304C34.7332 96.9187 34.6448 97.0071 34.5537 97.0982C34.5726 96.9028 34.5923 96.7075 34.6123 96.5123C34.6232 96.4035 34.6341 96.2947 34.6453 96.1827C34.6876 95.8929 34.6876 95.8929 34.8216 95.625Z" fill="#353944"/>
</g>
<defs>
<clipPath id="clip0_262_2191">
<rect width="120" height="120" fill="white"/>
</clipPath>
</defs>
</svg>
