<svg width="92" height="92" viewBox="0 0 92 92" fill="none" xmlns="http://www.w3.org/2000/svg">
<g clip-path="url(#clip0_262_1303)">
<path d="M0 28C0 12.536 12.536 0 28 0H64C79.464 0 92 12.536 92 28V88C92 90.2091 90.2091 92 88 92H4C1.79086 92 0 90.2091 0 88V28Z" fill="#E4EBFE"/>
<path d="M17.93 37.0511C22.5001 25.5498 33.624 18 46 18C58.376 18 69.4999 25.5498 74.07 37.0511L81.5 55.75L96.5 93.5H-4.5L17.93 37.0511Z" fill="#3D66DC"/>
<mask id="mask0_262_1303" style="mask-type:alpha" maskUnits="userSpaceOnUse" x="10" y="18" width="72" height="76">
<path d="M17.93 37.0511C22.5001 25.5498 33.624 18 46 18C58.376 18 69.4999 25.5498 74.07 37.0511L79.2879 50.1829C87.541 70.9532 72.2385 93.5 49.8885 93.5H42.1115C19.7615 93.5 4.459 70.9532 12.7121 50.1829L17.93 37.0511Z" fill="#3D66DC"/>
</mask>
<g mask="url(#mask0_262_1303)">
<path d="M19.5133 8.60638C23.0702 -3.04242 33.8203 -11 46 -11C58.1797 -11 68.9298 -3.04243 72.4867 8.60637L75.8831 19.7296C81.1636 37.0233 68.2268 54.5 50.1448 54.5H41.8552C23.7732 54.5 10.8364 37.0233 16.1169 19.7296L19.5133 8.60638Z" fill="#1F48BE" fill-opacity="0.58"/>
</g>
<path d="M46.542 37.0509C48.544 37.0341 50.1807 38.6437 50.1975 40.6457C50.2142 42.6478 48.6048 44.2844 46.6028 44.3012L44.1861 44.3215C42.184 44.3383 40.5472 42.7289 40.5304 40.7268C40.5136 38.7247 42.1232 37.088 44.1252 37.0712L46.542 37.0509Z" fill="#FE8253"/>
<path d="M32.8962 30.6379C33.0275 28.6401 34.7536 27.1269 36.7514 27.2582C38.7492 27.3895 40.2624 29.1155 40.1311 31.1133L39.9727 33.5249C39.8414 35.5227 38.1154 37.036 36.1176 36.9048C34.1197 36.7735 32.6064 35.0474 32.7377 33.0495L32.8962 30.6379Z" fill="#062477"/>
<path d="M50.7321 31.1365C50.5884 29.1395 52.0908 27.4041 54.0878 27.2603C56.0847 27.1166 57.8202 28.6189 57.964 30.6158L58.1375 33.0264C58.2813 35.0233 56.779 36.7589 54.782 36.9027C52.785 37.0465 51.0494 35.5441 50.9057 33.5471L50.7321 31.1365Z" fill="#062477"/>
<path d="M34.5 59.9399C34.5 53.898 39.398 49 45.4399 49H46.5601C52.602 49 57.5 53.898 57.5 59.9399C57.5 61.6299 56.1299 63 54.4399 63H46H37.5601C35.8701 63 34.5 61.6299 34.5 59.9399Z" fill="#1E3A8A"/>
</g>
<defs>
<clipPath id="clip0_262_1303">
<path d="M0 28C0 12.536 12.536 0 28 0H64C79.464 0 92 12.536 92 28V88C92 90.2091 90.2091 92 88 92H4C1.79086 92 0 90.2091 0 88V28Z" fill="white"/>
</clipPath>
</defs>
</svg>
