<svg width="60" height="60" viewBox="0 0 60 60" fill="none" xmlns="http://www.w3.org/2000/svg">
<rect width="60" height="60" rx="8" fill="#E4EBFE"/>
<path d="M19.883 11.9351C20.4732 12.3537 20.9444 12.8842 21.3939 13.4461C21.4604 13.4793 21.5269 13.5126 21.5954 13.5468C21.5954 13.6133 21.5954 13.6798 21.5954 13.7483C21.6559 13.7748 21.7164 13.8012 21.7787 13.8285C22.0118 13.9572 22.1225 14.0712 22.2883 14.2771C22.8539 14.9452 23.4867 15.5494 24.1073 16.1658C24.2352 16.2931 24.363 16.4204 24.4908 16.5478C24.8013 16.8572 25.1121 17.1663 25.4231 17.4752C25.431 17.3614 25.431 17.3614 25.439 17.2453C25.4467 17.1456 25.4545 17.0459 25.4625 16.9433C25.4698 16.8445 25.4771 16.7458 25.4846 16.644C25.5385 16.2639 25.6715 16.0464 25.9268 15.7628C26.5001 15.3355 27.1301 15.4117 27.8124 15.4157C28.0348 15.4166 28.257 15.4137 28.4794 15.4105C28.622 15.4103 28.7647 15.4104 28.9073 15.4107C29.036 15.4105 29.1647 15.4103 29.2972 15.4101C29.7216 15.4703 29.9309 15.5896 30.2581 15.8636C30.54 16.2466 30.5921 16.4779 30.5447 16.9478C30.5348 17.0629 30.5249 17.178 30.5147 17.2966C30.5036 17.421 30.4924 17.5454 30.4808 17.6736C30.1755 21.0145 30.1755 21.0145 31.4928 23.9553C32.3096 24.8452 33.2513 25.6188 34.2351 26.3171C34.433 26.4763 34.4819 26.5916 34.5163 26.8419C34.5197 26.9191 34.523 26.9964 34.5265 27.076C34.5314 27.1525 34.5364 27.2289 34.5415 27.3077C34.4811 27.5827 34.3825 27.7504 34.1794 27.9459C33.7248 28.1937 33.1462 28.1008 32.6441 28.0833C32.5215 28.081 32.3989 28.0787 32.2725 28.0764C31.9702 28.0705 31.6683 28.0622 31.3661 28.0518C31.3665 28.1488 31.3669 28.2459 31.3673 28.3459C31.3762 30.7065 31.3828 33.0671 31.387 35.4277C31.3891 36.5693 31.3919 37.7109 31.3965 38.8525C31.4005 39.8474 31.4031 40.8424 31.404 41.8373C31.4046 42.3642 31.4058 42.891 31.4087 43.4179C31.4115 43.9138 31.4123 44.4097 31.4117 44.9056C31.4118 45.0876 31.4126 45.2696 31.4142 45.4516C31.4162 45.7002 31.4157 45.9487 31.4146 46.1973C31.4158 46.2692 31.4169 46.3411 31.4181 46.4152C31.4121 46.9205 31.2773 47.2027 30.9632 47.5933C30.4291 48.0637 30.102 48.1121 29.4057 48.1131C29.2717 48.1138 29.2717 48.1138 29.1351 48.1146C28.8342 48.1162 28.5332 48.1171 28.2323 48.1179C28.0172 48.1189 27.8021 48.1199 27.5871 48.1209C26.8791 48.1241 26.1712 48.1261 25.4632 48.128C25.3429 48.1283 25.2225 48.1286 25.0985 48.129C23.9637 48.1321 22.8289 48.1348 21.694 48.1365C20.2416 48.1387 18.7891 48.1429 17.3367 48.1499C16.3159 48.1547 15.2952 48.1571 14.2745 48.1579C13.6646 48.1584 13.0548 48.1599 12.4449 48.1639C11.871 48.1676 11.2971 48.1684 10.7231 48.1671C10.5126 48.1671 10.3021 48.1681 10.0916 48.1703C9.80377 48.1731 9.51619 48.1721 9.22836 48.1703C9.1454 48.1719 9.06245 48.1736 8.97698 48.1754C8.42516 48.1664 8.08352 48.0249 7.66001 47.6682C7.19963 47.1829 7.14686 46.6304 7.1548 45.9913C7.15455 45.9142 7.15429 45.8371 7.15402 45.7577C7.15353 45.5009 7.15518 45.2442 7.15684 44.9875C7.15692 44.8028 7.15687 44.6181 7.1567 44.4334C7.15662 43.9332 7.15839 43.4329 7.1605 42.9327C7.16239 42.4094 7.16257 41.8862 7.16293 41.363C7.16387 40.3727 7.16635 39.3824 7.16938 38.3921C7.17276 37.2645 7.17442 36.1369 7.17594 35.0092C7.17909 32.6901 7.18441 30.3709 7.19114 28.0518C7.11444 28.055 7.03775 28.0581 6.95872 28.0614C6.61023 28.074 6.26178 28.0818 5.91314 28.0896C5.79245 28.0946 5.67176 28.0997 5.54741 28.1049C4.6785 28.1194 4.6785 28.1194 4.37843 27.9285C4.09402 27.605 3.98573 27.2777 4.01149 26.8466C4.11722 26.4667 4.37313 26.185 4.67292 25.9365C4.7394 25.9365 4.80588 25.9365 4.87437 25.9365C4.8966 25.8815 4.91883 25.8266 4.94173 25.77C5.11878 25.4578 5.35702 25.2246 5.60977 24.974C5.66478 24.9187 5.71978 24.8634 5.77646 24.8064C5.96095 24.6211 6.14615 24.4366 6.33136 24.252C6.46375 24.1193 6.59611 23.9866 6.72842 23.8538C7.088 23.4933 7.44821 23.1335 7.80857 22.7738C8.18537 22.3975 8.56168 22.0207 8.93807 21.644C9.57026 21.0114 10.2029 20.3793 10.8357 19.7474C11.5677 19.0165 12.2989 18.2849 13.0298 17.553C13.657 16.9249 14.2846 16.2971 14.9125 15.6698C15.2877 15.2949 15.6627 14.9199 16.0374 14.5446C16.3896 14.1917 16.7424 13.8394 17.0955 13.4875C17.2251 13.3581 17.3546 13.2286 17.4838 13.0989C17.6601 12.922 17.837 12.7458 18.014 12.5698C18.0908 12.4923 18.0908 12.4923 18.1692 12.4133C18.7091 11.8793 19.1455 11.6801 19.883 11.9351Z" fill="#FE6737"/>
<path d="M43.7562 22.9145C44.5278 23.4265 45.1798 24.2222 45.8321 24.8766C46.0285 25.0734 46.2253 25.2697 46.4222 25.466C46.9669 26.0104 47.5049 26.5528 48.0037 27.1401C48.4603 27.651 48.96 28.1243 49.4474 28.6057C50.6817 29.8249 50.6817 29.8249 51.0508 30.2599C51.3713 30.6361 51.7174 30.9826 52.0683 31.3301C52.1277 31.3889 52.187 31.4477 52.2481 31.5082C52.496 31.7533 52.7442 31.998 52.9929 32.2422C53.1762 32.4225 53.3589 32.6034 53.5415 32.7844C53.5977 32.8393 53.654 32.8942 53.7119 32.9507C54.2139 33.4494 54.2139 33.4494 54.3328 33.7933C54.3173 34.1645 54.2771 34.3439 54.0369 34.6306C53.6571 34.9413 53.3961 34.912 52.91 34.9076C52.7809 34.9067 52.6518 34.9058 52.5189 34.9048C52.4194 34.9037 52.3199 34.9025 52.2175 34.9013C52.2178 34.9641 52.2182 35.0268 52.2186 35.0915C52.2275 36.62 52.2341 38.1484 52.2383 39.6768C52.2404 40.416 52.2432 41.1551 52.2478 41.8942C52.2519 42.5386 52.2545 43.1829 52.2554 43.8272C52.2559 44.1683 52.2571 44.5094 52.2601 44.8505C52.263 45.2315 52.2634 45.6125 52.2632 45.9935C52.2646 46.1063 52.2661 46.219 52.2676 46.3352C52.2644 46.936 52.2443 47.3346 51.8145 47.7946C51.4166 48.0852 51.1354 48.1348 50.6464 48.1359C50.581 48.1364 50.5156 48.1369 50.4482 48.1375C50.2298 48.1389 50.0115 48.1382 49.7931 48.1375C49.6362 48.1381 49.4793 48.1388 49.3224 48.1396C48.8968 48.1414 48.4713 48.1413 48.0456 48.1407C47.6902 48.1404 47.3347 48.141 46.9793 48.1416C46.1406 48.143 45.302 48.1429 44.4634 48.1417C43.5985 48.1406 42.7337 48.142 41.8688 48.1447C41.1259 48.1469 40.383 48.1476 39.6402 48.147C39.1966 48.1467 38.7531 48.1469 38.3096 48.1486C37.8924 48.1502 37.4753 48.1498 37.0582 48.1479C36.9053 48.1475 36.7524 48.1478 36.5995 48.1489C36.3903 48.1502 36.1814 48.1491 35.9723 48.1473C35.8554 48.1473 35.7385 48.1472 35.618 48.1472C35.2205 48.0852 35.0032 47.9431 34.6906 47.6939C34.4694 47.362 34.4641 47.2661 34.4649 46.8812C34.4646 46.7757 34.4643 46.6702 34.4641 46.5614C34.4648 46.4457 34.4655 46.33 34.4663 46.2108C34.4662 46.0889 34.4662 45.9671 34.4662 45.8415C34.4663 45.5073 34.4673 45.1731 34.4687 44.8389C34.47 44.4896 34.4701 44.1404 34.4703 43.7911C34.4709 43.1297 34.4726 42.4683 34.4746 41.8069C34.4769 41.054 34.478 40.301 34.479 39.548C34.4811 37.9991 34.4846 36.4502 34.4891 34.9013C34.3859 34.906 34.2827 34.9106 34.1763 34.9155C34.0393 34.9192 33.9022 34.9229 33.7651 34.9265C33.6973 34.9298 33.6294 34.9332 33.5595 34.9367C33.1986 34.9437 32.9952 34.9117 32.6851 34.7219C32.4445 34.4665 32.3574 34.2584 32.335 33.9061C32.3844 33.6346 32.4816 33.5247 32.6681 33.3227C32.7324 33.2528 32.7967 33.1829 32.863 33.1109C33.3289 32.6272 33.8063 32.1557 34.2849 31.6846C34.3658 31.6045 34.4467 31.5244 34.53 31.4419C34.638 31.3356 34.638 31.3356 34.7482 31.2272C34.9448 31.0228 35.13 30.8155 35.3148 30.6007C35.672 30.1914 36.0466 29.8041 36.4312 29.4206C36.5008 29.3509 36.5703 29.2812 36.6419 29.2094C36.8691 28.9818 37.0966 28.7546 37.3241 28.5274C37.483 28.3685 37.6418 28.2095 37.8007 28.0506C38.1321 27.7189 38.4638 27.3875 38.7956 27.0562C39.2215 26.6309 39.6469 26.2051 40.0722 25.7792C40.3994 25.4516 40.7269 25.1243 41.0544 24.797C41.2115 24.64 41.3685 24.4829 41.5254 24.3258C41.7439 24.1071 41.9626 23.8887 42.1815 23.6704C42.2465 23.6052 42.3115 23.5399 42.3786 23.4727C42.8534 23.0001 43.0705 22.8261 43.7562 22.9145Z" fill="#FBD29A"/>
<path d="M19.8837 11.9351C20.4739 12.3537 20.9451 12.8842 21.3947 13.4461C21.4611 13.4793 21.5276 13.5126 21.5961 13.5468C21.5961 13.6133 21.5961 13.6798 21.5961 13.7483C21.6566 13.7748 21.7171 13.8012 21.7795 13.8285C22.0125 13.9572 22.1232 14.0712 22.289 14.2771C22.8546 14.9452 23.4874 15.5494 24.1081 16.1658C24.2359 16.2931 24.3637 16.4204 24.4915 16.5478C24.802 16.8572 25.1128 17.1663 25.4238 17.4752C25.4317 17.3614 25.4317 17.3614 25.4397 17.2453C25.4474 17.1456 25.4552 17.0459 25.4632 16.9433C25.4705 16.8445 25.4778 16.7458 25.4853 16.644C25.5392 16.2639 25.6722 16.0464 25.9275 15.7628C26.5008 15.3355 27.1308 15.4117 27.8131 15.4157C28.0355 15.4166 28.2577 15.4137 28.4801 15.4105C28.6228 15.4103 28.7654 15.4104 28.908 15.4107C29.0367 15.4105 29.1654 15.4103 29.2979 15.4101C29.7223 15.4703 29.9316 15.5896 30.2588 15.8636C30.5407 16.2466 30.5928 16.4779 30.5454 16.9478C30.5355 17.0629 30.5257 17.178 30.5155 17.2966C30.5043 17.421 30.4931 17.5454 30.4815 17.6736C30.1762 21.0145 30.1762 21.0145 31.4935 23.9553C32.3103 24.8452 33.252 25.6188 34.2358 26.3171C34.4337 26.4763 34.4826 26.5916 34.517 26.8419C34.5204 26.9191 34.5237 26.9964 34.5272 27.076C34.5322 27.1525 34.5371 27.2289 34.5422 27.3077C34.4577 27.693 34.3014 27.8157 33.9858 28.0518C33.5953 28.1282 33.2089 28.1201 32.812 28.1164C32.6918 28.1173 32.5716 28.1181 32.4478 28.119C32.1145 28.1209 31.7814 28.1205 31.4481 28.1191C31.0885 28.1182 30.729 28.1201 30.3695 28.1217C29.6653 28.1244 28.9612 28.1242 28.257 28.1231C27.6847 28.1223 27.1125 28.1224 26.5402 28.1231C26.4181 28.1233 26.4181 28.1233 26.2935 28.1234C26.1281 28.1237 25.9627 28.1239 25.7973 28.1241C24.2461 28.1261 22.6949 28.1248 21.1436 28.1226C19.8123 28.1208 18.4811 28.1219 17.1498 28.1251C15.6041 28.1288 14.0585 28.1305 12.5128 28.1291C12.3481 28.129 12.1833 28.1289 12.0185 28.1288C11.9374 28.1287 11.8563 28.1286 11.7728 28.1286C11.2011 28.1283 10.6295 28.1294 10.0579 28.1311C9.36136 28.1331 8.66485 28.1331 7.96831 28.1302C7.61285 28.1288 7.25745 28.1284 6.90199 28.1306C6.51686 28.133 6.13183 28.1307 5.7467 28.1279C5.63407 28.1293 5.52143 28.1307 5.40539 28.1322C4.67344 28.1214 4.67344 28.1214 4.3914 27.9261C4.13844 27.6421 4.06543 27.4255 4 27.0508C4.0259 26.6171 4.23462 26.3731 4.52175 26.0624C4.67363 25.9365 4.67363 25.9365 4.87508 25.9365C4.89731 25.8815 4.91954 25.8266 4.94244 25.77C5.11949 25.4578 5.35773 25.2246 5.61048 24.974C5.66549 24.9187 5.7205 24.8634 5.77717 24.8064C5.96166 24.6211 6.14686 24.4366 6.33207 24.252C6.46446 24.1193 6.59682 23.9866 6.72914 23.8538C7.08871 23.4933 7.44892 23.1335 7.80928 22.7738C8.18608 22.3975 8.56239 22.0207 8.93878 21.644C9.57097 21.0114 10.2036 20.3793 10.8364 19.7474C11.5684 19.0165 12.2997 18.2849 13.0305 17.553C13.6577 16.9249 14.2853 16.2971 14.9132 15.6698C15.2884 15.2949 15.6634 14.9199 16.0381 14.5446C16.3903 14.1917 16.7431 13.8394 17.0962 13.4875C17.2258 13.3581 17.3553 13.2286 17.4845 13.0989C17.6608 12.922 17.8377 12.7458 18.0147 12.5698C18.0915 12.4923 18.0915 12.4923 18.1699 12.4133C18.7098 11.8793 19.1463 11.6801 19.8837 11.9351Z" fill="#FE8538"/>
<path d="M43.7565 22.9145C44.5282 23.4265 45.1802 24.2222 45.8325 24.8766C46.0288 25.0734 46.2256 25.2697 46.4225 25.466C46.9672 26.0104 47.5052 26.5528 48.0041 27.1401C48.4606 27.651 48.9604 28.1243 49.4477 28.6057C50.682 29.8249 50.682 29.8249 51.0511 30.2599C51.3716 30.6361 51.7178 30.9826 52.0687 31.3301C52.128 31.3889 52.1873 31.4477 52.2485 31.5082C52.4963 31.7533 52.7445 31.998 52.9932 32.2422C53.1765 32.4225 53.3592 32.6034 53.5418 32.7844C53.5981 32.8393 53.6543 32.8942 53.7122 32.9507C54.2142 33.4494 54.2142 33.4494 54.3331 33.7933C54.3189 34.1347 54.2767 34.3353 54.078 34.6148C53.7283 34.8762 53.4079 34.8561 52.9883 34.851C52.8599 34.8519 52.8599 34.8519 52.7289 34.8527C52.4415 34.8541 52.1542 34.8526 51.8668 34.8511C51.661 34.8515 51.4552 34.852 51.2493 34.8527C50.6899 34.8542 50.1305 34.853 49.5711 34.8514C48.9863 34.85 48.4014 34.8506 47.8165 34.851C46.8342 34.8513 45.852 34.8499 44.8697 34.8476C43.7333 34.8449 42.597 34.8447 41.4606 34.8459C40.3684 34.847 39.2762 34.8463 38.184 34.8449C37.7187 34.8443 37.2535 34.8444 36.7882 34.8448C36.2406 34.8453 35.6929 34.8443 35.1453 34.8421C34.944 34.8416 34.7428 34.8415 34.5416 34.842C34.2673 34.8426 33.9932 34.8414 33.7189 34.8396C33.5988 34.8405 33.5988 34.8405 33.4763 34.8414C33.1553 34.8377 32.9176 34.8216 32.6312 34.6702C32.4225 34.4408 32.362 34.2163 32.3389 33.9097C32.3838 33.6335 32.4788 33.5267 32.6681 33.3223C32.7324 33.2525 32.7968 33.1826 32.8631 33.1107C33.3295 32.6274 33.8066 32.1557 34.2853 31.6846C34.3661 31.6045 34.447 31.5244 34.5304 31.4419C34.6384 31.3356 34.6384 31.3356 34.7486 31.2272C34.9451 31.0228 35.1304 30.8155 35.3151 30.6007C35.6724 30.1914 36.0469 29.8041 36.4316 29.4206C36.5011 29.3509 36.5706 29.2812 36.6423 29.2094C36.8694 28.9818 37.0969 28.7546 37.3244 28.5274C37.4833 28.3685 37.6422 28.2095 37.801 28.0506C38.1325 27.7189 38.4641 27.3875 38.7959 27.0562C39.2218 26.6309 39.6472 26.2051 40.0725 25.7792C40.3998 25.4516 40.7272 25.1243 41.0548 24.797C41.2118 24.64 41.3688 24.4829 41.5258 24.3258C41.7442 24.1071 41.9629 23.8887 42.1818 23.6704C42.2468 23.6052 42.3119 23.5399 42.3789 23.4727C42.8537 23.0001 43.0709 22.8261 43.7565 22.9145Z" fill="#FE8438"/>
<path d="M17.8435 36.3587C17.9575 36.3583 18.0715 36.3579 18.1889 36.3575C18.4293 36.3572 18.6698 36.358 18.9102 36.3597C19.2777 36.3618 19.6449 36.3597 20.0124 36.3571C20.2463 36.3574 20.4803 36.3579 20.7143 36.3587C20.8786 36.3574 20.8786 36.3574 21.0463 36.3562C21.6459 36.3636 22.0435 36.388 22.5022 36.8151C22.9624 37.3545 22.9609 37.7922 22.9509 38.4682C22.951 38.5725 22.951 38.6767 22.9511 38.7841C22.9508 39.1275 22.9477 39.4708 22.9445 39.8142C22.9438 40.0527 22.9432 40.2912 22.9428 40.5297C22.9412 41.1567 22.9373 41.7836 22.9328 42.4106C22.928 43.1632 22.9261 43.9159 22.9238 44.6686C22.9199 45.8114 22.9122 46.954 22.9052 48.0968C20.5118 48.0968 18.1185 48.0968 15.6527 48.0968C15.6365 45.4563 15.6365 45.4563 15.633 44.3308C15.6306 43.5628 15.6277 42.7949 15.6223 42.0269C15.6179 41.4077 15.6155 40.7886 15.6144 40.1694C15.6137 39.9332 15.6122 39.697 15.6101 39.4608C15.6071 39.1299 15.6067 38.7991 15.6069 38.4682C15.6055 38.3706 15.604 38.2729 15.6025 38.1723C15.606 37.6 15.6698 37.2673 16.0556 36.8151C16.5961 36.3119 17.1441 36.3535 17.8435 36.3587Z" fill="#1A305B"/>
<path d="M27.8137 15.4155C28.0362 15.4164 28.2584 15.4135 28.4808 15.4103C28.6234 15.4101 28.7661 15.4102 28.9087 15.4105C29.0374 15.4103 29.166 15.4101 29.2986 15.4099C29.723 15.4701 29.9323 15.5894 30.2595 15.8634C30.5144 16.2209 30.5993 16.4641 30.5976 16.9015C30.5979 17.0057 30.5982 17.11 30.5985 17.2174C30.5972 17.329 30.596 17.4407 30.5947 17.5557C30.5945 17.6716 30.5943 17.7874 30.5942 17.9068C30.5935 18.1518 30.5921 18.3967 30.59 18.6417C30.5869 19.015 30.5859 19.3883 30.5853 19.7617C30.5844 20.0001 30.5833 20.2385 30.5821 20.4768C30.5815 20.6434 30.5815 20.6434 30.5808 20.8133C30.5755 21.3883 30.5465 21.9428 30.4609 22.5115C29.8087 21.9679 29.2015 21.3962 28.6494 20.7503C28.1826 20.2139 27.6789 19.7143 27.1754 19.2129C27.0095 19.0475 26.8442 18.8816 26.6789 18.7157C26.5729 18.6098 26.467 18.5039 26.361 18.3981C26.3118 18.3488 26.2627 18.2995 26.2121 18.2487C25.9916 18.0297 25.7851 17.8498 25.5252 17.6765C25.4357 17.0926 25.4452 16.5389 25.6952 16.0019C26.3224 15.3577 26.9685 15.4105 27.8137 15.4155Z" fill="#E06129"/>
<path d="M39.7332 38.0681C39.8429 38.067 39.9525 38.0659 40.0655 38.0648C40.8628 38.0721 40.8628 38.0721 41.168 38.2927C41.4947 38.7428 41.4002 39.2943 41.3953 39.8309C41.3989 40.0092 41.3989 40.0092 41.4025 40.1911C41.4017 40.6853 41.3976 41.0402 41.1556 41.4768C40.6682 41.7405 40.2222 41.7235 39.6766 41.7133C39.5206 41.7162 39.5206 41.7162 39.3614 41.7192C38.9068 41.7162 38.5995 41.6953 38.1979 41.4732C37.9094 40.9594 37.9417 40.4667 37.9516 39.8875C37.9496 39.7739 37.9477 39.6603 37.9457 39.5433C37.9485 39.064 37.9613 38.7253 38.1944 38.3015C38.6971 38.0272 39.1701 38.0557 39.7332 38.0681Z" fill="#192D5A"/>
<path d="M46.9294 38.0616C47.0334 38.0596 47.1374 38.0577 47.2445 38.0557C47.7012 38.0586 48.0063 38.0788 48.4084 38.3047C48.6911 38.8045 48.6605 39.2728 48.6481 39.8369C48.6492 39.9457 48.6503 40.0545 48.6514 40.1666C48.6441 40.9578 48.6441 40.9578 48.399 41.3667C47.9575 41.7497 47.5089 41.6722 46.9482 41.6752C46.8525 41.6773 46.7567 41.6794 46.6581 41.6815C45.7667 41.6865 45.7667 41.6865 45.3681 41.3479C45.1558 40.9233 45.2353 40.3727 45.2296 39.9062C45.2258 39.7912 45.222 39.6762 45.2181 39.5577C45.213 39.071 45.2104 38.7308 45.4491 38.3004C45.9369 38.0338 46.3822 38.0513 46.9294 38.0616Z" fill="#182D5A"/>
<path d="M8.70289 21.9072C8.76937 21.9405 8.83585 21.9737 8.90435 22.008C8.84735 22.0626 8.79034 22.1173 8.73161 22.1736C8.65773 22.2457 8.58385 22.3177 8.50773 22.392C8.4341 22.4633 8.36048 22.5346 8.28463 22.608C8.07753 22.8093 8.07753 22.8093 7.99779 23.116C7.73967 23.2356 7.73967 23.2356 7.49414 23.3174C7.65397 22.9243 7.9105 22.6793 8.21184 22.3857C8.30351 22.2958 8.39518 22.206 8.48963 22.1134C8.56 22.0454 8.63038 21.9773 8.70289 21.9072Z" fill="#FD792A"/>
<path d="M16.4586 36.5129C16.5583 36.5462 16.658 36.5794 16.7608 36.6137C16.5593 36.9159 16.5593 36.9159 16.2949 36.9851C16.1765 37.0007 16.1765 37.0007 16.0557 37.0166C16.2319 36.6263 16.2319 36.6263 16.4586 36.5129Z" fill="#0D2862"/>
</svg>
