<svg width="97" height="92" viewBox="0 0 97 92" fill="none" xmlns="http://www.w3.org/2000/svg">
<path d="M32.9864 3.07716C35.6882 0.0833323 40.015 -0.834233 43.7038 0.804362L85.4702 19.3574C89.159 20.996 91.3707 24.8181 90.9487 28.8246L86.1695 74.1888C85.7475 78.1954 82.7876 81.4751 78.8379 82.3127L34.1178 91.7962C30.1682 92.6338 26.1272 90.8387 24.1082 87.3498L1.24881 47.8468C-0.770113 44.3579 -0.307722 39.9688 2.39416 36.9749L32.9864 3.07716Z" fill="#03DC73" fill-opacity="0.27"/>
<path d="M10.4453 12.041C10.4453 8.89984 12.9917 6.35345 16.1328 6.35345C17.1799 6.35345 18.0286 7.20225 18.0286 8.24929V57.0833H10.4453V12.041Z" fill="#FECB53"/>
<path d="M16.46 13.8714C16.46 10.7303 19.0063 8.1839 22.1475 8.1839C23.1945 8.1839 24.0433 9.03269 24.0433 10.0797V58.9138H16.46V13.8714Z" fill="#F1B320"/>
<path d="M41.5635 9.6875C41.5635 6.54638 44.1099 4 47.251 4C48.298 4 49.1468 4.84879 49.1468 5.89583V54.7299H41.5635V9.6875Z" fill="#F1B320"/>
<path d="M33.9795 10.472C33.9795 7.33087 36.5259 4.78448 39.667 4.78448C40.714 4.78448 41.5628 5.63328 41.5628 6.68032V55.5144H33.9795V10.472Z" fill="#FFE971"/>
<path d="M26.9199 10.472C26.9199 7.33087 29.4663 4.78448 32.6074 4.78448C33.6545 4.78448 34.5033 5.63328 34.5033 6.68032V55.5144H26.9199V10.472Z" fill="#FECB53"/>
<path d="M22.2129 17.5324C22.2129 14.3912 24.7593 11.8448 27.9004 11.8448C28.9474 11.8448 29.7962 12.6936 29.7962 13.7407V62.5747H22.2129V17.5324Z" fill="#FFE971"/>
<path d="M6 25.181H13.3218C19.2082 39.0139 38.8148 39.0139 44.7011 25.181H52.2845L49.6695 77.4799H8.61494L6 25.181Z" fill="#F04A2D"/>
<mask id="mask0_262_1238" style="mask-type:alpha" maskUnits="userSpaceOnUse" x="6" y="25" width="47" height="53">
<path d="M6 25.181H13.3218C19.2082 39.0139 38.8148 39.0139 44.7011 25.181H52.2845L49.6695 77.4799H8.61494L6 25.181Z" fill="#F04A2D"/>
</mask>
<g mask="url(#mask0_262_1238)">
<path d="M6 25.181H13.3218C19.2082 39.0139 38.8148 39.0139 44.7011 25.181H52.2845" stroke="#EE8C0B" stroke-width="15"/>
</g>
<path d="M59.6064 14.4597H94.6467C94.6467 14.4597 93.9246 23.7766 93.033 29.6918C92.1294 35.6863 90.8027 38.9103 90.0361 44.9238C89.2825 50.8355 88.6529 54.1965 88.6529 60.1558C88.6529 61.449 88.6964 62.8982 88.7644 64.3749C89.0364 70.2826 84.4453 75.3879 78.5313 75.3879H75.7218C69.8078 75.3879 65.2167 70.2826 65.4887 64.3749C65.5567 62.8982 65.6002 61.449 65.6002 60.1558C65.6002 54.1965 65.0125 50.8301 64.217 44.9238C63.4054 38.8981 61.8931 35.7045 60.9896 29.6918C60.102 23.7849 59.6064 14.4597 59.6064 14.4597Z" fill="#4D342A"/>
<path d="M57.2529 8.1839H97C97 8.1839 96.181 18.7804 95.1696 25.5079C94.1446 32.3257 92.6397 35.9925 91.7702 42.8319C90.9153 49.5555 90.2012 53.3781 90.2012 60.1559C90.2012 62.0684 90.2845 64.281 90.4041 66.472C90.7263 72.3762 86.1193 77.4799 80.2063 77.4799H74.0467C68.1337 77.4799 63.5267 72.3762 63.8489 66.472C63.9685 64.281 64.0518 62.0684 64.0518 60.1559C64.0518 53.3781 63.3852 49.5493 62.4828 42.8319C61.5622 35.9786 59.8468 32.3464 58.8219 25.5079C57.815 18.7898 57.2529 8.1839 57.2529 8.1839Z" fill="#E9E9E9" fill-opacity="0.2"/>
<path d="M59.6064 14.4597H94.6467C94.6467 14.4597 93.9246 23.7766 93.033 29.6918C92.1294 35.6863 90.8027 38.9103 90.0361 44.9238C89.2825 50.8355 88.6529 54.1965 88.6529 60.1558C88.6529 61.449 88.6964 62.8982 88.7644 64.3749C89.0364 70.2826 84.4453 75.3879 78.5313 75.3879H75.7218C69.8078 75.3879 65.2167 70.2826 65.4887 64.3749C65.5567 62.8982 65.6002 61.449 65.6002 60.1558C65.6002 54.1965 65.0125 50.8301 64.217 44.9238C63.4054 38.8981 61.8931 35.7045 60.9896 29.6918C60.102 23.7849 59.6064 14.4597 59.6064 14.4597Z" fill="#4D342A"/>
<path d="M95.3721 9.6839C95.3684 9.72803 95.3652 9.773 95.3613 9.81866C95.2691 10.9131 95.1357 12.4425 94.9707 14.181C94.64 17.6658 94.1858 21.9633 93.6865 25.2845C93.1844 28.6244 92.5661 31.1885 91.9512 33.8206C91.3356 36.4552 90.7272 39.1434 90.2822 42.6429C89.4345 49.3102 88.7012 53.2571 88.7012 60.1556C88.7012 62.1065 88.786 64.3498 88.9062 66.554C89.1838 71.6427 85.2151 75.9798 80.2061 75.9798H74.0469C69.0378 75.9798 65.0691 71.6427 65.3467 66.554C65.467 64.3498 65.5518 62.1065 65.5518 60.1556C65.5517 53.2563 64.8678 49.3171 63.9697 42.6321C63.4969 39.1124 62.8186 36.4187 62.1445 33.7913C61.4713 31.1672 60.8052 28.6188 60.3057 25.2855C59.8107 21.9829 59.4211 17.6967 59.1553 14.2122C59.0227 12.4752 58.9216 10.9468 58.8535 9.85284C58.8499 9.79533 58.8471 9.73897 58.8438 9.6839H95.3721Z" stroke="#C5CDE6" stroke-width="3"/>
<path d="M82.0584 32.3471C82.3826 30.6179 83.8923 29.3649 85.6516 29.3649C88.1469 29.3649 89.9089 31.8096 89.1198 34.1769L87.0932 40.2567C86.7257 41.3594 86.4905 42.5019 86.3926 43.6602L85.2211 57.5226C85.0797 59.1963 83.6799 60.4827 82.0003 60.4827C80.0898 60.4827 78.5961 58.8346 78.7835 56.9333L80.2641 41.9167L82.0584 32.3471Z" fill="#3E241A"/>
<path d="M30.5801 70.2365C30.5801 69.2545 31.3762 68.4584 32.3582 68.4584H72.21C73.192 68.4584 73.9881 69.2545 73.9881 70.2365C73.9881 74.1647 70.8037 77.3492 66.8755 77.3492H37.6927C33.7645 77.3492 30.5801 74.1647 30.5801 70.2365Z" fill="#EAC49E"/>
<path d="M31.626 70.2888C31.626 68.989 32.6797 67.9354 33.9794 67.9354H70.5886C71.8884 67.9354 72.9421 68.989 72.9421 70.2888C72.9421 71.5886 71.8884 72.6423 70.5886 72.6423H33.9794C32.6797 72.6423 31.626 71.5886 31.626 70.2888Z" fill="#ECA257"/>
<path d="M30.5801 66.3664C30.5801 64.2001 32.3362 62.444 34.5025 62.444H70.0657C72.232 62.444 73.9881 64.2001 73.9881 66.3664C73.9881 68.5327 72.232 70.2888 70.0657 70.2888H34.5025C32.3362 70.2888 30.5801 68.5327 30.5801 66.3664Z" fill="#73554A"/>
<path d="M30.5801 61.1939C30.5801 58.8515 32.479 56.9526 34.8215 56.9526H69.4008C71.9343 56.9526 73.9881 59.0064 73.9881 61.5399C73.9881 63.4907 72.7544 65.228 70.9126 65.8709L63.7838 68.3593C61.3854 69.1965 58.8156 69.42 56.3087 69.0096L34.1362 65.3796C32.0855 65.0439 30.5801 63.2719 30.5801 61.1939Z" fill="#FE8253"/>
<path d="M30.5801 60.0614C30.5801 57.4779 32.6744 55.3836 35.2579 55.3836H69.797C72.1117 55.3836 73.9881 57.26 73.9881 59.5747C73.9881 61.6686 72.4428 63.4411 70.3685 63.7267L45.0254 67.2152C42.8418 67.5158 40.6175 67.2434 38.5709 66.4248L33.5206 64.4046C31.7446 63.6943 30.5801 61.9742 30.5801 60.0614Z" fill="#12C66F"/>
<path d="M30.5801 59.306C30.5801 57.1397 32.3362 55.3836 34.5025 55.3836H70.0657C72.232 55.3836 73.9881 57.1397 73.9881 59.306C73.9881 61.4723 72.232 63.2284 70.0657 63.2284H34.5025C32.3362 63.2284 30.5801 61.4723 30.5801 59.306Z" fill="#EAC49E"/>
<path d="M31.626 57.7371C31.626 56.4373 32.6797 55.3836 33.9794 55.3836H70.5886C71.8884 55.3836 72.9421 56.4373 72.9421 57.7371C72.9421 59.0368 71.8884 60.0905 70.5886 60.0905H33.9794C32.6797 60.0905 31.626 59.0368 31.626 57.7371Z" fill="#ECA257"/>
<path d="M31.626 57.7371C31.626 56.4373 32.6797 55.3836 33.9794 55.3836H70.5886C71.8884 55.3836 72.9421 56.4373 72.9421 57.7371C72.9421 59.0368 71.8884 60.0905 70.5886 60.0905H33.9794C32.6797 60.0905 31.626 59.0368 31.626 57.7371Z" fill="#ECA257"/>
<path d="M30.5801 53.0301C30.5801 50.8639 32.3362 49.1077 34.5025 49.1077H70.0657C72.232 49.1077 73.9881 50.8639 73.9881 53.0301C73.9881 55.1964 72.232 56.9526 70.0657 56.9526H34.5025C32.3362 56.9526 30.5801 55.1964 30.5801 53.0301Z" fill="#73554A"/>
<path d="M30.5801 47.6966C30.5801 45.1543 32.641 43.0934 35.1833 43.0934H69.7858C72.1067 43.0934 73.9881 44.9748 73.9881 47.2957C73.9881 49.3861 72.4517 51.1586 70.3825 51.4555L46.4021 54.8957C44.1686 55.2161 41.8906 54.9862 39.7662 54.2259L33.6322 52.0305C31.8016 51.3754 30.5801 49.6408 30.5801 47.6966Z" fill="#FE8253"/>
<path d="M30.5801 47.2574C30.5801 44.9577 32.4444 43.0934 34.744 43.0934H68.9847C71.748 43.0934 73.9881 45.3335 73.9881 48.0968C73.9881 49.8589 73.0612 51.4911 71.5478 52.3938L69.3418 53.7097C67.523 54.7946 65.3945 55.2425 63.2926 54.9827L34.2331 51.3899C32.1469 51.1319 30.5801 49.3595 30.5801 47.2574Z" fill="#12C66F"/>
<path d="M30.5801 46.6796C30.5801 38.6333 37.1028 32.1106 45.149 32.1106H59.4192C67.4654 32.1106 73.9881 38.6333 73.9881 46.6796C73.9881 48.0206 72.901 49.1077 71.56 49.1077H33.0082C31.6672 49.1077 30.5801 48.0206 30.5801 46.6796Z" fill="#EAC49E"/>
<path d="M59.4756 40.6092C56.2954 39.5279 57.1742 34.7111 60.5071 35.1293L64.3588 35.6127C65.817 35.7957 67.1122 36.6336 67.8768 37.8887C69.578 40.6812 66.6122 43.9792 63.6554 42.583L59.4756 40.6092Z" fill="#E0A265"/>
</svg>
