<svg width="293" height="440" viewBox="0 0 293 440" fill="none" xmlns="http://www.w3.org/2000/svg">
<g filter="url(#filter0_i_660_253)">
<path d="M126.772 1.45486C79.4091 10.3144 39.8335 44.4867 24.131 90.0498C15.1945 116.249 15.1945 147.51 24.3863 174.089C30.8971 192.947 45.1954 214.969 58.983 227.119L65.7491 233.194L46.2167 295.084C21.3224 373.933 0.768617 437.595 0.00263837 438.987C-0.380351 439.494 40.9825 440 91.7924 440C167.88 440 186.263 439.62 195.2 438.102C244.605 429.622 281.628 394.69 291.33 347.482C292.862 339.635 293.245 332.927 292.862 319.891C292.351 304.829 291.713 301.159 288.138 290.654C279.84 266.227 264.904 246.23 244.605 232.055L241.669 230.03L249.584 221.424C265.031 204.717 275.372 186.112 281.372 164.216C284.308 153.459 284.691 149.535 284.691 131.183C284.819 112.199 284.436 109.161 281.245 97.7703C274.861 74.9887 263.627 56.0041 246.009 38.7913C228.009 21.0723 206.945 9.17529 182.816 3.22678C168.901 -0.19046 140.56 -1.07642 126.772 1.45486ZM171.199 52.0806C200.561 59.6744 224.69 83.3419 232.605 112.199C235.413 122.703 235.413 140.549 232.605 151.307C226.605 174.468 206.434 196.997 184.604 205.35C181.412 206.489 178.348 208.008 177.71 208.514C177.071 209.147 178.859 220.284 182.05 235.472L187.667 261.544L194.689 263.569C216.775 269.771 233.371 285.592 239.754 306.222C243.201 317.739 242.563 337.103 238.35 347.861C230.307 368.365 210.902 383.932 187.923 388.235C184.476 388.868 156.773 389.374 126.261 389.374C74.0472 389.374 70.8557 389.248 71.494 387.096C71.877 385.957 75.4515 374.693 79.2814 362.163C83.239 349.633 91.7924 321.156 98.4309 298.881C105.069 276.606 113.623 247.749 117.453 234.586C121.41 221.55 124.602 210.412 124.602 209.78C124.602 209.147 122.559 207.881 120.006 207.122C112.602 204.717 97.1543 193.579 89.6222 185.479C82.3454 177.379 75.4515 165.482 71.494 153.965C69.579 148.523 69.0684 143.46 69.1961 131.183C69.1961 117.135 69.7067 114.35 72.643 106.25C74.5579 101.188 77.4942 94.8593 79.0261 92.0749C90.2605 72.584 109.282 57.5228 129.708 52.2072C139.155 49.6758 161.624 49.6758 171.199 52.0806Z" fill="#DFCBB4" fill-opacity="0.1"/>
</g>
<defs>
<filter id="filter0_i_660_253" x="0" y="0" width="293" height="440" filterUnits="userSpaceOnUse" color-interpolation-filters="sRGB">
<feFlood flood-opacity="0" result="BackgroundImageFix"/>
<feBlend mode="normal" in="SourceGraphic" in2="BackgroundImageFix" result="shape"/>
<feColorMatrix in="SourceAlpha" type="matrix" values="0 0 0 0 0 0 0 0 0 0 0 0 0 0 0 0 0 0 127 0" result="hardAlpha"/>
<feOffset/>
<feGaussianBlur stdDeviation="6"/>
<feComposite in2="hardAlpha" operator="arithmetic" k2="-1" k3="1"/>
<feColorMatrix type="matrix" values="0 0 0 0 0 0 0 0 0 0 0 0 0 0 0 0 0 0 0.02 0"/>
<feBlend mode="normal" in2="shape" result="effect1_innerShadow_660_253"/>
</filter>
</defs>
</svg>
