<svg width="120" height="80" viewBox="0 0 120 80" fill="none" xmlns="http://www.w3.org/2000/svg">
<g clip-path="url(#clip0_262_1958)">
<ellipse cx="57" cy="76.5" rx="51.5" ry="4" fill="#C6CDE0"/>
<path d="M75.2107 13.3514C75.516 13.52 75.8214 13.6886 76.136 13.8624C83.6177 18.3206 88.3115 25.1982 91.7215 33.0373C91.8868 33.4106 92.0522 33.7838 92.2225 34.1684C93.1804 36.5466 93.4329 38.636 93.5104 41.1623C93.6263 44.2698 94.6005 46.3483 96.7595 48.603C99.8628 51.4788 103.198 51.5683 107.28 51.4531C106.789 59.5967 104.058 69.4957 98.3756 75.6686C96.2364 77.5644 94.1332 77.5378 91.4137 77.551C91.0924 77.5538 90.771 77.5565 90.44 77.5593C89.3619 77.568 88.2838 77.5745 87.2057 77.5808C86.4333 77.5864 85.6609 77.5922 84.8885 77.598C77.8468 77.6484 70.805 77.6753 63.7632 77.6964C62.8216 77.6993 61.8801 77.7022 60.9385 77.7052C60.7045 77.7059 60.4705 77.7066 60.2294 77.7074C56.4365 77.7197 52.6439 77.7453 48.8512 77.776C44.9557 77.8073 41.0603 77.8254 37.1646 77.8309C34.9779 77.8343 32.7915 77.8438 30.6049 77.8683C28.5486 77.8914 26.4927 77.8968 24.4362 77.8902C23.6814 77.8907 22.9266 77.8971 22.1719 77.91C16.4616 78.0023 16.4616 78.0023 14.9054 76.7275C14.3149 75.8232 13.946 75.0201 13.6128 73.9967C13.4165 73.5905 13.2169 73.1859 13.0125 72.7837C8.26401 61.2398 8.46682 47.9996 13.2643 36.4667C18.1306 25.1958 26.3052 15.4874 37.9125 10.8046C50.3094 6.11969 63.6233 6.92191 75.2107 13.3514Z" fill="#86ADFF"/>
<path d="M104.105 14.9388C105.785 15.8581 106.464 17.0556 107.065 18.8544C107.541 21.4262 107.375 24.0826 107.28 26.6868C107.614 26.6991 107.614 26.6991 107.955 26.7117C110.733 26.8777 112.584 27.3951 114.504 29.4651C114.857 29.9075 115.202 30.3572 115.536 30.8145C115.675 31 115.813 31.1854 115.956 31.3764C117.311 33.5581 117.208 36.3495 116.654 38.7848C115.314 43.5787 113.208 48.4682 108.828 51.0958C106.15 52.0827 102.657 52.1181 99.9777 51.1355C97.0872 49.7023 94.5782 47.2013 93.5083 44.1254C92.7738 40.6917 93.1617 37.1967 94.5799 33.9897C94.9103 33.5217 95.2477 33.0585 95.592 32.6006C96.8711 30.6563 96.6785 28.4712 96.7224 26.2241C96.7978 22.4849 97.4168 18.3022 100.216 15.5341C101.57 14.7531 102.579 14.6128 104.105 14.9388Z" fill="#F2D4B7"/>
<path d="M66.1025 48.5C66.9558 48.8572 66.9559 48.8572 67.5909 49.4922C67.8437 51.6953 67.8437 51.6953 66.9955 52.8261C66.6702 53.0973 66.3383 53.3608 66.0033 53.6199C65.7684 53.8233 65.5334 54.0268 65.2914 54.2364C62.2751 56.7875 59.5367 57.8828 55.5824 57.8344C52.7032 57.5868 49.0073 55.9923 46.9524 53.9374C46.8602 53.0613 46.8511 52.5286 47.2898 51.7545C48.0499 51.3131 48.5644 51.3458 49.4169 51.5065C50.683 51.8777 51.8816 52.408 53.0894 52.9353C55.0656 53.7905 57.1009 53.9994 59.1916 53.3805C60.8389 52.6758 62.2207 51.843 63.3503 50.4237C64.8481 48.5473 64.8481 48.5473 66.1025 48.5Z" fill="#2259BB"/>
<path d="M59.8121 32.2634C61.1819 33.5989 61.936 34.7603 62.0347 36.6689C61.9427 38.5239 61.2827 40.0013 59.951 41.2927C58.4523 41.8029 57.0844 41.9154 55.5256 41.6102C53.8801 40.6729 52.6135 39.2966 52.033 37.4825C51.7787 35.9076 51.8407 34.7179 52.7474 33.3747C54.4188 31.1925 57.4591 31.2129 59.8121 32.2634Z" fill="#2259BB"/>
<path d="M99.0247 30.4971C99.339 30.6019 99.6534 30.7066 99.9772 30.8146C100.082 31.9672 100.187 33.1197 100.295 34.3072C102.495 34.3072 104.696 34.3072 106.963 34.3072C106.963 34.6216 106.963 34.9359 106.963 35.2598C104.748 35.8243 102.523 36.3379 100.295 36.8474C100.19 37.8952 100.085 38.943 99.9772 40.0225C102.073 40.0225 104.168 40.0225 106.328 40.0225C106.223 40.4416 106.118 40.8608 106.01 41.2926C105.625 41.3558 105.625 41.3558 105.232 41.4203C104.893 41.4764 104.554 41.5325 104.204 41.5902C103.869 41.6455 103.534 41.7008 103.188 41.7577C102.327 41.9057 101.469 42.0737 100.612 42.2451C100.298 43.5025 99.9836 44.7598 99.6597 46.0553C99.3454 45.9505 99.0311 45.8457 98.7072 45.7378C98.1559 44.6352 98.3862 43.3786 98.4095 42.1657C98.4521 41.3045 98.4521 41.3045 98.0722 40.6575C97.9858 39.2503 97.9986 37.8402 97.9928 36.4306C97.9862 36.0379 97.9797 35.6452 97.9729 35.2406C97.9713 34.8618 97.9697 34.483 97.968 34.0927C97.965 33.7459 97.962 33.3991 97.959 33.0418C98.0855 31.9719 98.4105 31.3708 99.0247 30.4971Z" fill="#C17B57"/>
<path d="M44.9174 34.3241C45.7923 35.1116 45.7923 35.1116 46.3173 36.1907C46.2353 37.3445 46.2353 37.3445 45.8507 38.5238C45.0176 39.2165 45.0176 39.2165 43.955 39.8071C41.7748 41.1311 40.3659 42.6945 38.8147 44.7031C37.9179 45.5233 37.9179 45.5233 36.7003 45.702C35.5847 45.5233 35.5847 45.5233 34.6515 44.5901C34.3759 43.1436 34.4401 42.1804 35.1473 40.8752C37.185 37.9848 41.1053 33.7523 44.9174 34.3241Z" fill="#27313C"/>
<path d="M66.4985 29.9998C69.6027 30.2854 72.5206 31.0482 74.9886 33.0389C75.5644 33.7766 75.5644 33.7766 75.4173 35.2778C75.3104 35.7149 75.2036 36.152 75.0935 36.6024C72.7371 37.187 71.3545 36.9175 69.1182 36.0137C68.5919 35.8072 68.0655 35.6008 67.5232 35.3882C66.2957 34.7916 65.5208 34.4077 64.7324 33.3057C64.9956 30.0165 64.9956 30.0165 66.4985 29.9998Z" fill="#252F3B"/>
<path d="M98.707 50.5005C98.98 50.5693 99.253 50.638 99.5343 50.7089C102.179 51.3319 104.556 51.5752 107.28 51.453C107.244 52.0089 107.203 52.5645 107.161 53.12C107.139 53.4294 107.117 53.7388 107.094 54.0576C106.967 54.9128 106.761 55.4758 106.327 56.2158C106.312 55.9673 106.296 55.7189 106.28 55.4629C106.257 55.1416 106.233 54.8203 106.208 54.4893C106.186 54.1688 106.164 53.8483 106.141 53.5181C106.098 53.2558 106.055 52.9934 106.01 52.7231C104.873 52.1548 103.532 52.4208 102.283 52.4564C101.228 52.4046 100.582 52.2768 99.6596 51.7705C99.0841 51.0958 99.0841 51.0958 98.707 50.5005Z" fill="#86ADFF"/>
</g>
<defs>
<clipPath id="clip0_262_1958">
<rect width="120" height="80" rx="8" fill="white"/>
</clipPath>
</defs>
</svg>
