<svg width="109" height="75" viewBox="0 0 109 75" fill="none" xmlns="http://www.w3.org/2000/svg">
<path fill-rule="evenodd" clip-rule="evenodd" d="M70.3744 7.19392C69.82 6.26629 69.3021 5.40062 68.3933 4.77851C65.5301 3.17 63.0323 4.27067 61.2681 6.79348C61.1111 7.02329 60.9541 7.25303 60.7957 7.48188C60.3387 8.14082 59.8857 8.80239 59.4336 9.46471C59.2205 9.77691 59.0075 10.0891 58.7943 10.4012L58.5724 10.7261C57.9841 11.5872 57.3916 12.4453 56.7956 13.3011C55.6351 14.9661 54.4841 16.6372 53.3427 18.3154C53.1724 18.5659 53.0019 18.8165 52.8315 19.067L52.5699 19.4515C51.9287 20.3936 51.2826 21.3319 50.6307 22.2665L50.5131 22.435C49.8823 23.3386 49.2516 24.2422 48.6366 25.1566L48.4551 25.4279C48.189 25.8241 47.9281 26.2168 47.7059 26.6398L47.6026 26.8633C46.8517 26.7283 46.1078 26.6667 45.3475 26.6129L44.8101 26.5762C44.549 26.5572 44.2507 26.5195 43.9325 26.4793C42.7019 26.3238 41.1737 26.1306 40.3517 26.8345C40.2258 27.0463 40.1473 27.1783 40.0979 27.3205C40.0163 27.5556 40.0143 27.8183 40.0089 28.5158L40.0168 28.9946C40.0362 30.8748 40.3003 32.4208 41.0868 34.1359C41.0999 34.162 41.1129 34.188 41.126 34.214C41.2907 34.542 41.4524 34.864 41.5764 35.2107C41.6094 35.3474 41.6287 35.427 41.6168 35.5018C41.6002 35.6062 41.5229 35.7009 41.3374 35.928C41.1203 36.2094 40.9064 36.489 40.7037 36.781L40.4751 37.1198L40.2307 37.4796C39.0367 39.2398 37.8245 40.987 36.6066 42.7308C36.6066 42.7308 39.5296 59.5031 40.2256 62.6348C41.0901 65.8325 40.5562 66.9313 37.1634 67.228L34.5188 67.6456C36.7782 67.7612 39.0382 67.8306 41.2996 67.89C42.411 67.9191 43.5223 67.9493 44.6336 67.9798L44.9754 67.9892C47.0186 68.0454 49.0615 68.1077 51.1043 68.1772C51.4273 68.1882 51.7503 68.1992 52.0733 68.2102L52.5686 68.227L53.0783 68.2444L53.6029 68.2622C56.0305 68.3447 58.4583 68.4246 60.886 68.5031C61.6015 68.5262 62.317 68.5492 63.0325 68.5726C66.2981 68.6801 69.5633 68.7789 72.8301 68.8398C74.2123 68.8653 75.5929 68.9006 76.9739 68.9636C78.7023 69.0428 80.4312 69.1003 82.1605 69.1553C82.4399 69.1642 82.7193 69.173 82.9986 69.1819C83.8896 69.2103 84.7805 69.2387 85.6715 69.2667C86.6902 69.2987 87.709 69.331 88.7278 69.364C89.5298 69.39 90.3318 69.4157 91.1339 69.4409L91.1893 69.4426C91.557 69.4542 91.9247 69.4657 92.2925 69.4774C94.2213 69.5404 96.1499 69.5994 98.0797 69.6157L98.5972 69.619C99.9408 69.6348 101.095 69.5754 102.303 68.9336C103.645 68.0954 104.536 66.9496 104.991 65.4398C105.109 64.9009 105.2 64.4868 105.208 64.0711C105.234 62.691 104.343 61.2938 100.494 55.2578C99.81 54.1855 99.132 53.1096 98.4586 52.0304C97.5648 50.5975 96.6651 49.1685 95.7619 47.7416C94.9433 46.4485 94.1265 45.1543 93.3158 43.8562L93.2591 43.7654C92.6237 42.7476 91.9883 41.7299 91.3477 40.7154L91.1425 40.3907C90.7975 39.8441 90.4522 39.2977 90.1041 38.753L89.8686 38.385C89.7162 38.1459 89.5638 37.9069 89.4114 37.6678C89.1559 37.271 88.9029 36.8739 88.6632 36.4673C88.6504 36.4426 88.638 36.4188 88.6259 36.3957C88.4477 36.0544 88.3567 35.8801 88.4599 35.4821C88.7827 34.8366 89.0078 34.1898 89.1805 33.4912L89.2548 33.179C89.4468 32.4055 89.5741 31.6982 89.4984 30.8998C89.2414 30.4464 89.0822 30.2533 88.5893 30.0799L88.1761 30.0299C87.0867 29.8979 85.9897 29.8521 84.8937 29.8069L84.3484 29.7863C84.3484 29.6654 84.3484 29.597 84.3335 29.532C84.3142 29.4473 84.2696 29.3684 84.167 29.1866L83.9308 28.8119L83.7183 28.4683L83.4921 28.1062L83.2368 27.6976L82.9652 27.2635C82.3806 26.3285 81.7952 25.394 81.2058 24.462C80.2497 22.9509 79.3013 21.435 78.3544 19.9181C77.0172 17.7758 75.6776 15.6351 74.3268 13.5012C74.1253 13.1829 73.9238 12.8645 73.7225 12.5462L73.5178 12.2224C73.0536 11.4882 72.5913 10.7529 72.1313 10.016C71.86 9.58095 71.5885 9.14599 71.3161 8.71161C71.2782 8.65125 71.2403 8.5909 71.2024 8.53055C70.9238 8.08663 70.6451 7.64277 70.3744 7.19392Z" fill="#12C66F"/>
<path d="M33.8142 65.2881C34.0313 66.0811 34.2547 66.8667 34.5188 67.6456L37.1634 67.228C40.5562 66.9313 41.0901 65.8325 40.2256 62.6348C39.5296 59.5031 36.6066 42.7308 36.6066 42.7308C36.4611 42.3231 36.4611 42.3231 36.3904 41.9281L36.3054 41.4537L36.2078 40.9122C36.1169 40.4041 36.0255 39.8961 35.9339 39.3881L35.8754 39.0641C35.6734 37.9437 35.4678 36.8241 35.2609 35.7046C35.0011 34.3 34.7391 32.8958 34.4905 31.4892C34.3858 30.8936 34.2798 30.2982 34.1725 29.7031C34.0769 29.1744 33.9818 28.6457 33.8887 28.1167C33.7448 27.2974 33.5996 26.4784 33.4514 25.6598C33.3894 25.3187 33.3276 24.9775 33.2661 24.6363C33.1798 24.1404 33.0935 23.6446 33.0031 23.1494L32.9181 22.6876L32.9119 22.6505C32.8262 22.142 32.7423 21.6442 32.5702 21.1566C32.2448 20.7911 32.0723 20.6281 31.5893 20.5591L31.2903 20.6047L30.9204 20.6591L30.4823 20.739C29.8867 20.8464 29.2924 20.9583 28.6988 21.0764C28.2148 21.1733 27.7307 21.2698 27.2463 21.3653L26.4578 21.5209C24.8351 21.8418 23.2111 22.1558 21.5866 22.4679L21.1219 22.5572C19.3489 22.8981 17.5759 23.2384 15.8014 23.5717C14.88 23.7448 13.9588 23.919 13.0379 24.0946C12.8212 24.136 12.6045 24.1774 12.3878 24.2187C11.6174 24.3652 10.8472 24.5122 10.0775 24.662C9.82397 24.7116 9.57047 24.761 9.31695 24.8103C8.95803 24.8785 8.59916 24.9467 8.24066 25.0171L7.91147 25.0821C7.29192 25.1976 6.71206 25.271 6.26349 25.7498C6.08283 26.4138 6.08283 26.4138 6.64154 29.3077C6.6845 29.5299 6.72701 29.7522 6.76904 29.9745C6.94896 30.9321 7.13254 31.889 7.31837 32.8455C7.70921 34.8555 8.08418 36.8675 8.44019 38.884C8.86119 41.2728 9.27918 43.6622 9.74844 46.0421C10.1607 48.1274 10.5585 50.2151 10.9484 52.3047L11.0481 52.8394C11.4811 55.1602 11.9075 57.482 12.3212 59.8063C12.7312 62.1102 13.1458 64.4134 13.5893 66.711C13.6442 66.9935 13.699 67.2761 13.7536 67.5586C13.8282 67.9558 13.9028 68.3528 13.9806 68.7494L14.0521 69.1104C14.1269 69.5185 14.2165 69.8904 14.3364 70.2902L14.3394 70.2939C14.6224 70.6499 14.7566 70.8187 15.2031 70.9111L15.5369 70.8991C15.8937 70.8932 16.2326 70.857 16.5831 70.7899C17.2816 70.6458 17.9809 70.5114 18.6835 70.3885L19.0308 70.3283C19.4074 70.2625 19.784 70.1968 20.1607 70.1313C20.4212 70.086 20.6817 70.0406 20.9423 69.9952C21.5467 69.8898 22.1511 69.7844 22.7555 69.6793L23.2445 69.5943C23.2445 69.3159 23.2445 69.3159 23.1934 69.0415L23.1227 68.7102L23.0466 68.3513L22.9661 67.9762C22.8736 67.5412 22.7809 67.1062 22.6878 66.6713L21.0175 66.8105V66.2537C20.7204 65.6166 20.3559 65.0308 19.8518 64.54L19.4864 64.3051C18.5267 63.6236 17.5336 63.1697 16.3373 63.1655L15.8675 63.1916C15.8977 62.6308 15.8113 62.1169 15.7085 61.5687L15.6375 61.2011C15.56 60.7905 15.4822 60.3801 15.4038 59.9697C15.3472 59.6743 15.2909 59.3788 15.2349 59.0832C15.118 58.4657 15.0011 57.8483 14.8837 57.2309C14.6273 55.882 14.3738 54.5327 14.1211 53.1831C13.9889 52.4767 13.8566 51.7703 13.7241 51.064C13.5655 50.2187 13.407 49.3735 13.2488 48.5282C12.9296 46.8232 12.6101 45.1183 12.2879 43.4139C11.5696 39.6153 10.8559 35.8161 10.1608 32.0133C11.0233 31.8134 11.6667 31.3207 12.3106 30.7231C13.2054 29.7854 13.8041 28.8663 13.8145 27.5419L13.7797 27.0025C14.3364 27.0025 14.3364 27.0025 14.6429 26.9553L14.9806 26.888L15.368 26.8116L15.787 26.7274C16.0861 26.6682 16.3852 26.609 16.6843 26.5498C17.4876 26.3896 18.2912 26.2302 19.0948 26.0714L19.5783 25.976C20.991 25.6967 22.4046 25.4231 23.8203 25.1592L24.1057 25.106C24.7001 24.9953 25.2945 24.885 25.8891 24.7755C25.8891 25.5817 25.8891 25.5817 27.281 27.0025C28.3698 27.8783 29.4824 28.1842 30.8618 28.1356L31.1783 28.116C31.1507 28.6263 31.1947 29.0966 31.287 29.5965C31.4021 30.1957 31.5131 30.7952 31.6186 31.3961C32.5777 36.8669 33.5977 42.3264 34.6232 47.7851C35.3521 51.6641 36.0551 55.5475 36.7458 59.4335H36.4675C35.249 60.0001 34.3684 60.8608 33.6163 61.9633C33.134 62.8139 33.134 62.8139 33.7008 64.8817L33.8142 65.2881Z" fill="#099A61"/>
<path d="M34.5188 67.6456C34.2547 66.8667 34.0313 66.0811 33.8142 65.2881L33.7008 64.8817C33.134 62.8139 33.134 62.8139 33.6163 61.9633C34.3684 60.8608 35.249 60.0001 36.4675 59.4335H36.7458C36.0551 55.5475 35.3521 51.6641 34.6232 47.7851C33.5977 42.3264 32.5777 36.8669 31.6186 31.3961C31.5131 30.7952 31.4021 30.1957 31.287 29.5965C31.1947 29.0966 31.1507 28.6263 31.1783 28.116L30.8618 28.1356C29.4824 28.1842 28.3698 27.8783 27.281 27.0025C25.8891 25.5817 25.8891 25.5817 25.8891 24.7755C25.2945 24.885 24.7001 24.9953 24.1057 25.106L23.8203 25.1592C22.4046 25.4231 20.991 25.6967 19.5783 25.976L19.0948 26.0714C18.2912 26.2302 17.4876 26.3896 16.6843 26.5498C16.3852 26.609 16.0861 26.6682 15.787 26.7274L15.368 26.8116L14.9806 26.888L14.6429 26.9553C14.3364 27.0025 14.3364 27.0025 13.7797 27.0025L13.8145 27.5419C13.8041 28.8663 13.2054 29.7854 12.3106 30.7231C11.6667 31.3207 11.0233 31.8134 10.1608 32.0133C10.8559 35.8161 11.5696 39.6153 12.2879 43.4139C12.6101 45.1183 12.9296 46.8232 13.2488 48.5282C13.407 49.3735 13.5655 50.2187 13.7241 51.064C13.8566 51.7703 13.9889 52.4767 14.1211 53.1831C14.3738 54.5327 14.6273 55.882 14.8837 57.2309C15.0011 57.8483 15.118 58.4657 15.2349 59.0832C15.2909 59.3788 15.3472 59.6743 15.4038 59.9697C15.4822 60.3801 15.56 60.7905 15.6375 61.2011L15.7085 61.5687C15.8113 62.1169 15.8977 62.6308 15.8675 63.1916L16.3373 63.1655C17.5336 63.1697 18.5267 63.6236 19.4864 64.3051L19.8518 64.54C20.3559 65.0308 20.7204 65.6166 21.0175 66.2537V66.8105L22.6878 66.6713C22.7809 67.1062 22.8736 67.5412 22.9661 67.9762L23.0466 68.3513L23.1227 68.7102L23.1934 69.0415C23.2445 69.3159 23.2445 69.3159 23.2445 69.5943L34.5188 67.6456Z" fill="#099A61"/>
<path d="M25.8893 24.7756C25.9282 24.8648 25.9671 24.9539 26.0073 25.0458C26.5757 26.2724 27.2661 27.114 28.5119 27.6873C29.0451 27.8698 29.5552 27.9359 30.1133 27.996C30.216 28.0079 30.3188 28.0198 30.4246 28.032C30.6758 28.061 30.9271 28.0887 31.1784 28.1161C31.1979 28.2331 31.2174 28.35 31.2374 28.4705C31.6691 31.0527 32.1285 33.6279 32.6234 36.1986C32.9941 38.1247 33.3524 40.0527 33.7012 41.9828C34.0149 43.7179 34.3309 45.4524 34.6582 47.185C35.0446 49.231 35.4169 51.2795 35.7869 53.3286C35.8315 53.575 35.8761 53.8214 35.9206 54.0677C35.9423 54.188 35.964 54.3082 35.9863 54.4321C36.1016 55.0683 36.2212 55.7033 36.3468 56.3375C36.3726 56.469 36.3984 56.6004 36.425 56.7358C36.4744 56.9858 36.5245 57.2356 36.5755 57.4853C36.7061 58.1487 36.7716 58.7574 36.746 59.4336C36.6468 59.4826 36.5476 59.5316 36.4453 59.582C34.9778 60.3385 33.9505 61.2743 33.362 62.8437C33.3146 63.016 33.3146 63.016 33.2663 63.1917C32.7502 62.5566 32.7502 62.5566 32.5355 62.2358C31.8341 61.2115 30.8209 60.393 29.6104 60.0518C27.8443 59.7667 26.306 59.9108 24.8111 60.9527C23.5222 62.006 22.8027 63.4843 22.6303 65.1354C22.6206 65.3179 22.6109 65.5004 22.6009 65.6884C22.5956 65.7836 22.5902 65.8787 22.5846 65.9768C22.5717 66.2083 22.5601 66.4398 22.5487 66.6714C22.0301 66.8171 21.5563 66.8209 21.0177 66.8106C20.9839 66.7182 20.9502 66.6258 20.9154 66.5306C20.3512 65.044 19.5816 64.3885 18.1991 63.644C17.7044 63.4791 17.2544 63.3957 16.7398 63.32C16.5766 63.2957 16.4133 63.2715 16.2451 63.2465C16.1206 63.2284 15.996 63.2103 15.8677 63.1917C15.1942 59.6796 14.5332 56.1654 13.88 52.6495C13.5012 50.6118 13.1188 48.5749 12.7185 46.5412C12.2769 44.2973 11.8636 42.0484 11.4533 39.7985C11.2165 38.5005 10.9789 37.2028 10.7307 35.9069C10.7107 35.8019 10.6907 35.6968 10.67 35.5886C10.579 35.1118 10.4873 34.6352 10.3942 34.1587C10.3629 33.9957 10.3317 33.8326 10.2996 33.6646C10.2591 33.4564 10.2591 33.4564 10.2177 33.244C10.1581 32.8286 10.151 32.4325 10.1609 32.0134C10.2585 31.966 10.3562 31.9187 10.4567 31.8699C11.9178 31.1234 12.9285 30.2389 13.5015 28.6729C13.5615 28.3807 13.6141 28.0869 13.6591 27.7921C13.6823 27.6436 13.7055 27.4952 13.7294 27.3423C13.746 27.2302 13.7627 27.1181 13.7798 27.0026C16.626 26.4101 19.4743 25.8333 22.3304 25.2902C22.6814 25.2216 23.0312 25.1507 23.3809 25.0765C23.4735 25.0572 23.566 25.0378 23.6613 25.0179C23.9187 24.9638 24.1759 24.9087 24.4331 24.8535C24.927 24.7736 25.3899 24.762 25.8893 24.7756Z" fill="#6ADAA6"/>
<path d="M33.2663 63.1917C32.7502 62.5566 32.7502 62.5566 32.5355 62.2358C31.8341 61.2115 30.8209 60.393 29.6104 60.0518C27.8443 59.7667 26.306 59.9108 24.8111 60.9527C23.5222 62.006 22.8027 63.4843 22.6303 65.1354L22.6009 65.6884L22.5846 65.9768C22.5717 66.2083 22.5601 66.4398 22.5487 66.6714L32.5355 64.4444L33.362 64.2356L33.2663 63.1917Z" fill="#6ADAA6"/>
<path d="M68.3933 4.77851C69.3021 5.40062 69.82 6.26629 70.3744 7.19392C70.6819 7.70379 70.9996 8.20722 71.316 8.71161C71.5885 9.14599 71.86 9.58095 72.1313 10.016C72.5913 10.7529 73.0536 11.4882 73.5177 12.2224C73.5853 12.3292 73.6529 12.4361 73.7225 12.5462C73.9238 12.8645 74.1253 13.1829 74.3268 13.5012C75.6775 15.6351 77.0172 17.7758 78.3544 19.9181C79.3013 21.435 80.2496 22.9509 81.2058 24.462C81.7951 25.394 82.3806 26.3285 82.9652 27.2635C83.0548 27.4067 83.1444 27.55 83.2368 27.6976C83.321 27.8325 83.4052 27.9673 83.492 28.1062C83.5667 28.2257 83.6413 28.3452 83.7183 28.4683C83.7884 28.5817 83.8585 28.6951 83.9308 28.812C84.0088 28.9356 84.0867 29.0592 84.167 29.1866C84.3484 29.5079 84.3484 29.5079 84.3484 29.7863C82.2701 29.7063 80.202 29.5576 78.13 29.379C77.5886 29.3324 77.0471 29.2864 76.5055 29.2407C76.4126 29.2328 76.3197 29.225 76.224 29.2169C76.0345 29.2009 75.845 29.1849 75.6555 29.1689C75.368 29.1446 75.0805 29.1203 74.793 29.0959C72.7937 28.9267 70.794 28.7641 68.794 28.6032C68.617 28.5889 68.4399 28.5747 68.2575 28.56C65.4731 28.336 62.6883 28.1161 59.9033 27.8985C59.8111 27.8913 59.7188 27.8841 59.6237 27.8767C57.5464 27.7143 55.469 27.5537 53.3914 27.3967C53.0523 27.371 52.7132 27.3452 52.3742 27.3195C51.7427 27.2716 51.1113 27.2243 50.4798 27.1773C50.1987 27.156 49.9176 27.1347 49.6365 27.1134C49.5101 27.1042 49.3837 27.0949 49.2535 27.0854C48.6934 27.0425 48.1508 26.9933 47.6025 26.8633C47.8385 26.3529 48.1423 25.8934 48.4551 25.4279C48.515 25.3384 48.5749 25.2489 48.6366 25.1566C49.2898 24.1853 49.9608 23.2263 50.6307 22.2665C51.2826 21.3319 51.9287 20.3936 52.5698 19.4515C52.6562 19.3246 52.7425 19.1978 52.8315 19.067C53.0019 18.8165 53.1723 18.5659 53.3427 18.3154C54.4841 16.6372 55.6351 14.9661 56.7956 13.3011C57.3916 12.4453 57.9841 11.5872 58.5724 10.7261C58.6456 10.6189 58.7188 10.5117 58.7943 10.4012C59.0074 10.0891 59.2205 9.77691 59.4336 9.46471C59.8857 8.8024 60.3387 8.14083 60.7957 7.48188C60.954 7.25303 61.1111 7.02329 61.268 6.79348C63.0323 4.27067 65.5301 3.17 68.3933 4.77851Z" fill="#12C66F"/>
<path d="M46.2279 26.6809C46.3983 26.6933 46.5688 26.7056 46.7444 26.7183C49.4753 26.9161 52.2036 27.1402 54.9315 27.3767C58.0312 27.6452 61.1327 27.8841 64.2354 28.1163C67.6385 28.3711 71.0398 28.6374 74.4396 28.9329C76.4355 29.1061 78.4318 29.2693 80.4297 29.4179C80.5346 29.4258 80.6395 29.4336 80.7476 29.4417C81.7766 29.5184 82.8055 29.5945 83.8347 29.6683C84.1207 29.689 84.4066 29.7099 84.6926 29.731C85.0403 29.7565 85.3881 29.7815 85.7359 29.8059C86.202 29.8405 86.6668 29.8808 87.132 29.9258C87.2971 29.9413 87.4622 29.9569 87.6323 29.9729C87.7934 29.9921 87.9545 30.0113 88.1205 30.0311C88.2648 30.0475 88.4092 30.0639 88.5579 30.0807C89.0591 30.242 89.2234 30.4579 89.4982 30.9001C89.5686 31.6722 89.4619 32.374 89.2807 33.1271C89.2563 33.2285 89.232 33.3299 89.2069 33.4343C88.7803 35.1024 88.0792 36.6561 86.9928 37.9987C86.8585 38.1718 86.8585 38.1718 86.7215 38.3483C85.421 39.918 83.7699 40.7632 81.8428 41.3392C81.689 41.3882 81.5353 41.4372 81.3768 41.4877C80.1887 41.7914 78.9921 41.7822 77.7715 41.7829C77.5339 41.7855 77.5339 41.7855 77.2914 41.7881C73.6141 41.7943 70.2542 40.6322 67.5498 38.1118C66.4562 36.9731 65.7277 35.6069 65.2793 34.1014C65.2325 33.9512 65.2325 33.9512 65.1847 33.798C64.9899 33.112 65.001 32.6238 65.001 31.8744C63.7608 31.8285 62.5206 31.7825 61.2429 31.7352C61.0319 32.2433 61.0319 32.2433 60.8166 32.7617C60.4079 33.7116 59.9456 34.5452 59.2942 35.3541C59.1728 35.5118 59.1728 35.5118 59.049 35.6727C57.3395 37.7586 54.6171 38.9981 51.983 39.3466C49.6562 39.5586 47.4927 39.3121 45.3753 38.2771C45.2469 38.2172 45.1184 38.1572 44.986 38.0955C42.6898 36.9473 41.3227 35.0264 40.4765 32.6622C40.1102 31.4414 40.029 30.2681 40.0166 28.9949C40.014 28.8369 40.0114 28.6789 40.0088 28.5162C40.0173 27.3971 40.0173 27.3971 40.3515 26.8348C41.5703 25.7911 44.7352 26.571 46.2279 26.6809Z" fill="#00321E"/>
<path d="M27.1069 40.7997C28.1177 41.3829 28.7779 42.0557 29.2296 43.1486C29.2296 43.2864 29.2296 43.4242 29.2296 43.5661C29.4018 43.5317 29.5741 43.4972 29.7515 43.4617C30.2003 43.406 30.297 43.397 30.6911 43.6531C30.9418 44.0501 31.0032 44.2201 30.8998 44.6796C30.5035 45.076 30.1879 45.26 29.6471 45.3756C29.6367 45.47 29.6263 45.5643 29.6156 45.6616C29.444 46.8762 29.0505 47.8267 28.1335 48.6639C27.5513 48.9201 27.2175 48.9382 26.585 48.8553C26.2979 48.6291 26.2979 48.6291 26.1674 48.2985C26.1674 47.5351 26.5168 47.1851 27.0026 46.6283C27.3779 45.9848 27.3864 45.2639 27.2809 44.5404C27.0476 43.9185 26.7791 43.3427 26.3066 42.8702C25.8949 42.8006 25.8949 42.8006 25.4715 42.8702C25.0338 43.2927 24.9289 43.7355 24.895 44.3292C24.8934 44.4565 24.8919 44.5838 24.8903 44.715C24.8869 44.857 24.8836 44.999 24.8802 45.1453C24.8743 45.44 24.8699 45.7347 24.8671 46.0294C24.8373 47.139 24.7048 48.2935 23.9528 49.1628C23.2278 49.8456 22.4657 50.2557 21.4611 50.3168C20.5148 50.2823 19.7529 49.9164 19.053 49.2865C18.5716 48.7671 18.2529 48.3068 18.0945 47.6026C17.9165 47.6083 17.7385 47.6141 17.5551 47.62C17.2517 47.6298 17.2517 47.6298 16.981 47.6026C16.7026 47.3242 16.7026 47.3242 16.6504 46.8458C16.7026 46.3499 16.7026 46.3499 16.9462 46.0802C17.2593 45.9323 17.2593 45.9323 17.8161 45.9323C17.8075 45.7974 17.7989 45.6625 17.79 45.5235C17.7991 44.3994 18.2326 43.6176 18.9823 42.8049C19.2945 42.5101 19.4545 42.4561 19.8865 42.4091C20.3215 42.4526 20.3215 42.4526 20.6608 42.6701C20.8782 43.0094 20.8782 43.0094 20.8782 43.4791C20.7391 43.9837 20.7391 43.9837 20.452 44.3404C20.0153 45.1152 20.0698 45.8999 20.1823 46.7675C20.3353 47.227 20.5086 47.5634 20.8782 47.881C21.389 48.0389 21.389 48.0389 21.8526 48.0202C22.3153 47.4568 22.4208 47.0109 22.4436 46.2923C22.4479 46.1755 22.4523 46.0587 22.4568 45.9384C22.4612 45.8159 22.4656 45.6933 22.4702 45.567C22.6007 42.6941 22.6007 42.6941 23.5228 41.6175C24.6059 40.6465 25.6872 40.3738 27.1069 40.7997Z" fill="#0BA76A"/>
<path d="M56.7884 42.8702C57.4517 43.2784 57.7436 43.7436 58.1335 44.4029C58.7783 45.3627 59.8546 45.9384 60.9466 46.2455C63.0808 46.6517 65.2112 46.3724 67.0579 45.1973C67.4761 44.8733 67.8002 44.5037 68.1225 44.0859C68.4444 43.7304 68.7229 43.5812 69.2017 43.5401C69.8096 43.5906 70.0911 43.6569 70.5767 44.0533C70.896 44.5145 70.9394 44.9406 70.9035 45.4925C70.7014 46.5568 69.5979 47.4422 68.7553 48.0409C66.3202 49.5968 63.5255 50.1184 60.665 49.6046C58.2051 48.9685 56.1769 47.5388 54.8397 45.3756C54.5824 44.861 54.6343 44.267 54.7005 43.7053C55.2312 42.8385 55.8224 42.7299 56.7884 42.8702Z" fill="#00301D"/>
<path d="M63.8871 34.945C64.8185 35.5614 65.4358 36.3488 65.6965 37.4417C65.8124 38.5041 65.4703 39.5834 64.8081 40.424C64.0581 41.154 63.2284 41.3842 62.1994 41.4173C61.0453 41.3685 60.3892 41.0939 59.5983 40.2603C58.9565 39.4676 58.638 38.6591 58.6805 37.6309C58.8637 36.5672 59.4501 35.8065 60.2594 35.1277C61.295 34.4373 62.7802 34.3728 63.8871 34.945Z" fill="#F76C45"/>
<path d="M21.8525 32.2918C22.3022 32.5253 22.6024 32.7037 22.8616 33.1443C23.4995 35.5896 23.4995 35.5896 23.0704 36.5979C22.6686 37.0715 22.4091 37.1482 21.7916 37.2156C21.1737 37.1506 20.995 37.0897 20.5998 36.6066C20.4136 36.0583 20.2926 35.5043 20.1822 34.9364C20.144 34.7528 20.144 34.7528 20.105 34.5656C19.9021 33.5012 19.9021 33.5012 20.1887 33.0231C20.7123 32.3809 21.0308 32.2128 21.8525 32.2918Z" fill="#0AA769"/>
<path d="M25.3327 53.7269C25.7735 53.928 26.0355 54.1599 26.307 54.562C26.67 55.6473 26.8614 56.7803 26.5854 57.9026C26.3208 58.2439 26.1318 58.4077 25.7503 58.5985C25.2124 58.6493 24.886 58.664 24.416 58.3843C23.9952 57.9554 23.8798 57.5425 23.7581 56.9717C23.7358 56.8723 23.7135 56.7728 23.6905 56.6703C23.3947 55.2864 23.3947 55.2864 23.5232 54.562C23.9806 53.9343 24.5426 53.5294 25.3327 53.7269Z" fill="#0BA76A"/>
<path d="M80.1719 23.1055C80.7689 23.6207 81.112 24.2678 81.5029 24.941C82.124 25.9963 82.766 27.0323 83.4458 28.0508C83.7585 28.5242 84.0228 28.9672 84.2083 29.5082C83.9787 29.5082 83.749 29.5082 83.5124 29.5082C83.6502 29.4393 83.6502 29.4393 83.7908 29.369C83.3943 28.5421 82.9469 27.7735 82.4511 27.0028C82.3035 26.771 82.156 26.5392 82.0085 26.3074C81.8603 26.0752 81.712 25.843 81.5638 25.6109C81.296 25.191 81.0293 24.7705 80.7634 24.3495C80.7036 24.2559 80.6437 24.1623 80.582 24.0659C80.1719 23.4155 80.1719 23.4155 80.1719 23.1055Z" fill="#0CA75D"/>
<path d="M16.9811 46.0715C17.2769 46.1237 17.2769 46.1237 17.5379 46.2107C17.4001 46.2968 17.4001 46.2968 17.2595 46.3847C17.1677 46.4651 17.0758 46.5455 16.9811 46.6283C16.9811 46.812 16.9811 46.9957 16.9811 47.185C17.2567 47.2769 17.5323 47.3688 17.8163 47.4634C17.8163 47.5094 17.8163 47.5553 17.8163 47.6026C17.4161 47.62 17.4161 47.62 16.9811 47.6026C16.7028 47.3242 16.7028 47.3242 16.668 46.8371C16.7028 46.3499 16.7028 46.3499 16.9811 46.0715Z" fill="#07A061"/>
<path d="M32.7085 22.5486C32.7544 22.5486 32.8004 22.5486 32.8477 22.5486C32.8948 22.7688 32.941 22.9892 32.9869 23.2097C33.0127 23.3325 33.0385 23.4552 33.0652 23.5816C33.1261 23.9405 33.1261 23.9405 33.1261 24.4972C33.0342 24.4972 32.9423 24.4972 32.8477 24.4972C32.5982 23.7782 32.5526 23.3127 32.7085 22.5486Z" fill="#19A567"/>
<path d="M8.35099 25.1933C7.9618 25.4527 7.7425 25.5396 7.29837 25.6369C7.1891 25.6619 7.07983 25.6868 6.96725 25.7125C6.68072 25.75 6.68072 25.75 6.40234 25.6108C7.04094 25.1851 7.59478 25.1757 8.35099 25.1933Z" fill="#0A9D59"/>
<path d="M59.7115 34.9363C59.8493 34.9822 59.9871 35.0281 60.1291 35.0755C59.8855 35.6148 59.8855 35.6148 59.5723 35.7714C59.4805 35.6795 59.3886 35.5877 59.2939 35.493C59.4317 35.3093 59.5695 35.1256 59.7115 34.9363Z" fill="#10AF6D"/>
<path d="M10.4389 48.7161C10.5767 48.762 10.7145 48.8079 10.8564 48.8553C10.8105 49.2686 10.7646 49.682 10.7173 50.108C10.4395 49.5524 10.4117 49.3146 10.4389 48.7161Z" fill="#059C55"/>
<path d="M9.18635 42.0352C9.40383 42.2613 9.40383 42.2613 9.60392 42.5919C9.56042 43.0443 9.56042 43.0443 9.46473 43.427C9.17333 42.9535 9.16138 42.5846 9.18635 42.0352Z" fill="#069D57"/>
</svg>
