<svg width="60" height="60" viewBox="0 0 60 60" fill="none" xmlns="http://www.w3.org/2000/svg">
<g clip-path="url(#clip0_262_2325)">
<path fill-rule="evenodd" clip-rule="evenodd" d="M40.0179 10.329C39.5721 9.91352 39.1113 9.52769 38.6007 9.19422C36.9211 8.21205 35.5313 9.11891 34.153 10.118C33.9898 10.2367 33.8265 10.3552 33.6629 10.4734C33.2287 10.7865 32.7948 11.0999 32.361 11.4136C32.1711 11.551 31.9812 11.6884 31.7912 11.8257L31.6039 11.9611C31.2223 12.2369 30.8402 12.512 30.4564 12.7848C30.0274 13.0897 29.6018 13.3986 29.1787 13.7116C28.6182 14.1264 28.0561 14.5379 27.4854 14.9386L27.4446 14.9673C27.1674 15.1618 26.8902 15.3563 26.6148 15.5534L26.4322 15.6849C26.3089 15.7734 26.1859 15.8623 26.0632 15.9516C26.0333 15.9742 26.0036 15.9969 25.974 16.0196C25.6986 16.2297 25.4274 16.4367 25.1144 16.5905C24.7638 16.7496 24.4307 16.916 24.129 17.1571C23.6664 17.6593 23.6664 17.6593 23.7481 19.8366C23.7852 20.7358 23.6861 21.5934 23.4384 22.462L23.3772 22.6639C23.3117 22.8844 23.2452 23.1045 23.1764 23.324L23.1112 23.5285C22.5253 25.369 21.4827 27.1416 20.0719 28.4697L20.5736 33.0239C20.5736 33.1724 20.5736 33.2311 20.5796 33.2892C20.5835 33.3272 20.59 33.3649 20.6008 33.4273L20.6401 33.6104L20.6858 33.8232L20.7373 34.0574C20.9159 34.8757 21.1111 35.6894 21.3103 36.5029C21.4842 37.2116 21.656 37.9203 21.8085 38.634C21.9327 39.2203 22.0588 39.8056 22.2048 40.387L22.2568 40.5906C22.3985 41.1635 22.5984 41.6683 22.927 42.1612C23.6423 42.9163 24.4157 43.0888 25.4288 43.1384C25.7483 43.1489 26.0598 43.1634 26.3767 43.2062C27.2735 43.3363 28.1735 43.4163 29.0762 43.4944C29.2656 43.5108 29.4549 43.5272 29.6443 43.5438C30.1524 43.5884 30.6605 43.6327 31.1686 43.6768C31.5932 43.7136 32.0177 43.7505 32.4422 43.7876C34.9178 44.0038 37.3936 44.2186 39.8704 44.4207C40.8335 44.4991 41.7955 44.5813 42.7566 44.6807C43.4749 44.7552 44.1884 44.8242 44.911 44.8357L45.141 44.8369C45.4791 44.8392 45.7776 44.8406 46.1009 44.7356L46.2768 44.6477C47.3506 44.152 47.737 43.2412 48.1547 42.2019C48.251 41.9598 48.3487 41.7199 48.4585 41.4837C48.6803 41.017 48.8864 40.5474 49.0804 40.0688C49.2645 39.6137 49.4587 39.1646 49.6637 38.7186C50.0612 37.8555 50.4418 36.9862 50.8142 36.112C50.9585 35.7728 51.1026 35.4334 51.2467 35.0938C52.3447 32.5063 53.4457 29.912 54.6559 27.3767C54.9702 26.7216 55.2802 26.066 55.5218 25.3799C55.6827 24.8301 55.6963 24.3458 55.4285 23.831L55.3066 23.6206C55.1353 23.3185 54.9521 23.1148 54.6797 22.8989C54.5878 22.8262 54.4974 22.7517 54.4082 22.6757L54.2681 22.5536L54.1229 22.4274C53.6646 22.0286 53.2051 21.6313 52.7435 21.2365C52.4472 20.9832 52.1515 20.7292 51.8574 20.4732C51.3985 20.0736 50.9398 19.6754 50.4668 19.2924C50.1812 19.0612 49.9047 18.8236 49.6329 18.5761C49.4256 18.3872 49.2172 18.2025 49.0011 18.0236C48.6367 17.7288 48.2763 17.4333 47.9293 17.1181C47.5123 16.7387 47.0853 16.3722 46.6566 16.0063C46.4135 15.7989 46.1707 15.5912 45.9282 15.3832C45.6424 15.1381 45.3567 14.8931 45.0707 14.6483C45.0073 14.594 44.9438 14.5398 44.8804 14.4855L44.787 14.4055L44.6447 14.2838C44.3997 14.074 44.1549 13.8641 43.9114 13.6527L43.8193 13.5725C43.3386 13.1539 42.8585 12.7358 42.363 12.3345C42.0773 12.1033 41.8008 11.8657 41.5291 11.6183C41.2493 11.3633 40.9638 11.1196 40.6695 10.8816C40.447 10.702 40.2289 10.522 40.0179 10.329Z" fill="#B899FF"/>
<path d="M14.9254 8.13917C14.9895 8.15363 15.0535 8.16808 15.1196 8.18298C16.9768 8.6103 18.7289 9.50381 20.1642 10.7586C20.2048 10.7934 20.2454 10.8281 20.2872 10.864C22.2475 12.5527 23.3403 14.7714 23.766 17.3072C23.78 17.3813 23.7941 17.4553 23.8086 17.5317C24.0227 18.9886 23.95 20.708 23.6022 22.1367C23.5778 22.2389 23.5778 22.2389 23.553 22.3431C22.691 25.8477 20.4823 28.8355 17.388 30.7104C16.3668 31.302 15.0628 31.9049 13.8612 31.8778C13.9058 31.9804 13.9058 31.9804 13.9512 32.0851C14.174 32.6012 14.3924 33.1185 14.6008 33.6406C14.6627 33.7944 14.7247 33.9482 14.7866 34.1019C14.8284 34.2063 14.8699 34.3108 14.9111 34.4155C14.9721 34.5703 15.0345 34.7245 15.0971 34.8786C15.133 34.9687 15.1689 35.0587 15.2058 35.1514C15.3505 35.4278 15.5073 35.6047 15.744 35.8069C16.1639 35.8842 16.3922 35.7427 16.7365 35.5102C16.7849 35.4779 16.8333 35.4456 16.8831 35.4123C17.392 35.0699 17.8918 34.7136 18.3931 34.3602C18.8589 34.0328 19.3289 33.7131 19.8061 33.4023C19.8648 33.3638 19.9234 33.3253 19.9838 33.2857C20.3898 33.0238 20.3898 33.0238 20.5735 33.0238C20.7005 33.551 20.8272 34.0782 20.9537 34.6055C20.9968 34.7848 21.0399 34.9641 21.0831 35.1434C21.1452 35.4014 21.2071 35.6595 21.269 35.9175C21.2883 35.9974 21.3075 36.0772 21.3274 36.1594C21.4165 36.5318 21.5 36.9012 21.5558 37.2803C17.1222 40.6021 17.1222 40.6021 14.7617 40.3909C14.0643 40.2652 13.5619 39.9624 13.0427 39.4905C12.9933 39.4486 12.9439 39.4067 12.893 39.3635C12.4231 38.937 12.1239 38.4009 11.8148 37.8533C11.7748 37.783 11.7348 37.7126 11.6936 37.6401C11.0797 36.5518 10.5231 35.4437 10.0037 34.3079C9.96472 34.2233 9.96472 34.2233 9.92494 34.137C9.11352 32.3707 9.11352 32.3707 9.11352 31.7959C9.04008 31.7839 8.96664 31.7718 8.89097 31.7594C6.16688 31.2698 3.6787 29.7079 2.08621 27.4327C0.349318 24.8674 -0.455108 21.605 0.0430429 18.5302C0.593393 15.7478 1.75644 13.4644 3.71095 11.4135C3.7655 11.3546 3.82005 11.2957 3.87626 11.235C5.48566 9.54771 7.68713 8.49786 9.93209 7.97546C10.0578 7.94523 10.0578 7.94523 10.186 7.91438C11.7463 7.60947 13.3925 7.77822 14.9254 8.13917Z" fill="#FED65E"/>
<path d="M12.4808 29.4783C12.9881 29.8863 13.2857 30.2687 13.5226 30.882C13.5435 30.9357 13.5644 30.9893 13.5859 31.0446C13.6513 31.2129 13.7159 31.3816 13.7803 31.5503C13.8206 31.655 13.8609 31.7596 13.9013 31.8643C13.981 32.0714 14.0604 32.2787 14.1396 32.486C14.4578 33.3181 14.7762 34.1505 15.131 34.9678C15.168 35.0554 15.168 35.0554 15.2057 35.1448C15.3384 35.4427 15.4456 35.6616 15.7449 35.8069C16.169 35.8681 16.3894 35.7453 16.7374 35.5101C16.7858 35.4778 16.8342 35.4455 16.8841 35.4123C17.393 35.0699 17.8927 34.7136 18.3941 34.3602C18.8599 34.0328 19.3299 33.713 19.807 33.4023C19.8657 33.3638 19.9243 33.3253 19.9848 33.2857C20.3908 33.0237 20.3908 33.0237 20.5745 33.0237C20.7014 33.5509 20.8281 34.0782 20.9547 34.6055C20.9977 34.7848 21.0408 34.9641 21.084 35.1433C21.1461 35.4014 21.2081 35.6594 21.2699 35.9175C21.2892 35.9973 21.3085 36.0772 21.3283 36.1594C21.4174 36.5318 21.501 36.9011 21.5567 37.2803C17.1232 40.602 17.1232 40.602 14.7626 40.3909C14.0652 40.2652 13.5628 39.9623 13.0436 39.4904C12.9942 39.4486 12.9448 39.4067 12.894 39.3635C12.424 38.937 12.1248 38.4009 11.8157 37.8533C11.7757 37.7829 11.7358 37.7126 11.6946 37.6401C11.0843 36.5582 10.5289 35.4562 10.0098 34.3283C9.98412 34.2733 9.95847 34.2183 9.93204 34.1617C9.64652 33.5471 9.39861 32.9324 9.20462 32.2825C9.18767 32.2261 9.17071 32.1696 9.15323 32.1114C8.97564 31.4852 8.89176 30.821 9.1605 30.2099C9.9213 28.9428 11.2439 28.8103 12.4808 29.4783Z" fill="#FEE5C9"/>
<path d="M15.5961 14.7184C15.7445 14.9332 15.7445 14.9332 15.7547 15.1993C15.6004 15.7136 15.3954 16.1962 14.9259 16.4885C14.6494 16.4811 14.4586 16.3792 14.225 16.243C13.6113 15.8859 12.8344 15.9046 12.1427 15.9974C11.1011 16.2791 10.4668 16.9977 9.9326 17.8801C10.0308 17.8841 10.1291 17.8881 10.2303 17.8923C10.9903 17.9254 11.7483 17.9703 12.506 18.0387C12.5781 18.0448 12.6502 18.0509 12.7244 18.0572C13.3929 18.1207 13.3929 18.1207 13.698 18.2894C13.9177 18.6189 13.926 18.8848 13.8617 19.2717C13.7134 19.4814 13.7134 19.4814 13.4525 19.5991C12.6017 19.6892 11.705 19.5244 10.8586 19.4354C10.705 19.4196 10.5513 19.4038 10.3977 19.3881C10.0243 19.3497 9.65102 19.3109 9.27774 19.2717C9.27774 19.6228 9.27774 19.974 9.27774 20.3358C9.37975 20.344 9.48175 20.3522 9.58685 20.3607C9.96607 20.3916 10.3451 20.4244 10.7241 20.4577C10.888 20.4719 11.052 20.4855 11.216 20.4987C11.452 20.5176 11.6879 20.5385 11.9237 20.5596C12.0333 20.5679 12.0333 20.5679 12.1452 20.5762C12.5632 20.6159 12.8254 20.6694 13.125 20.9907C13.1873 21.3274 13.09 21.6402 12.9306 21.9371C12.3471 22.2567 11.4089 22.0325 10.7665 21.9781C10.6771 21.971 10.5877 21.9638 10.4955 21.9565C10.0853 21.9228 9.68338 21.8808 9.27774 21.8092C9.55089 22.9354 10.1219 23.7025 11.0786 24.3468C11.7826 24.6988 12.537 24.6618 13.2683 24.4338C13.3556 24.4044 13.443 24.3749 13.533 24.3446C13.7517 24.2741 13.9632 24.2229 14.1892 24.1831C14.5376 24.7134 14.593 25.2771 14.5166 25.9021C14.2553 26.357 13.7799 26.4372 13.3015 26.5736C12.0691 26.8848 10.8939 26.735 9.77048 26.1416C8.41356 25.2762 7.58829 23.9597 7.20509 22.419C7.14082 22.0928 7.12249 21.8121 7.14946 21.4818C7.07739 21.4847 7.00532 21.4875 6.93106 21.4905C6.83599 21.4927 6.74092 21.4949 6.64297 21.4972C6.50194 21.5014 6.50194 21.5014 6.35806 21.5058C6.06022 21.4796 5.91368 21.4132 5.67603 21.2362C5.50697 20.9947 5.46265 20.7904 5.51231 20.4995C5.68644 20.1982 5.68644 20.1982 5.9216 20.0902C6.30594 20.0554 6.68278 20.0668 7.0676 20.0902C7.07504 19.9956 7.07504 19.9956 7.08263 19.899C7.08949 19.8169 7.09635 19.7348 7.10341 19.6503C7.11006 19.5686 7.11671 19.4869 7.12356 19.4028C7.14946 19.1898 7.14946 19.1898 7.23131 19.0261C7.1498 19.0304 7.1498 19.0304 7.06664 19.0347C6.32013 19.0576 6.32013 19.0576 6.00346 18.7805C5.81346 18.5182 5.79439 18.2794 5.83974 17.962C5.99898 17.7407 5.99898 17.7407 6.24903 17.5527C6.50777 17.5148 6.75237 17.5396 7.01132 17.568C7.07975 17.5738 7.14818 17.5795 7.21868 17.5854C7.38679 17.5999 7.55466 17.6169 7.72246 17.6345C7.73385 17.5489 7.73385 17.5489 7.74548 17.4615C8.02271 16.3481 9.09978 15.3051 10.0145 14.6877C11.7549 13.6583 13.9073 13.4601 15.5961 14.7184Z" fill="#F4A14D"/>
<path d="M26.4673 43.2558C27.1971 43.2351 27.9157 43.2916 28.6417 43.3563C28.8376 43.3736 29.0336 43.3903 29.2295 43.4069C29.3549 43.4178 29.4803 43.4287 29.6057 43.4397C29.6639 43.4446 29.722 43.4496 29.7819 43.4547C30.0492 43.4788 30.3012 43.5141 30.5602 43.5833C30.3527 44.4295 30.1322 45.2705 29.8951 46.109C29.8633 46.222 29.8316 46.3349 29.7999 46.4479C29.7331 46.6856 29.6663 46.9232 29.5994 47.1608C29.4244 47.7819 29.2498 48.4031 29.0759 49.0245C29.05 49.117 29.05 49.117 29.0236 49.2114C28.7999 50.0111 28.5814 50.8118 28.3711 51.6152C28.3486 51.7009 28.3261 51.7867 28.303 51.8751C28.2011 52.2642 28.1004 52.6537 28.0015 53.0436C27.5227 54.9048 27.5227 54.9048 26.7947 55.3707C25.929 55.7417 24.9006 55.518 24.0076 55.3426C23.8375 55.3093 23.667 55.2779 23.4965 55.2466C21.6951 54.9082 21.6951 54.9082 21.2352 54.2839C20.9972 53.905 20.9372 53.6094 20.9829 53.1606C21.1575 52.6565 21.4095 52.3655 21.8672 52.0891C22.0918 51.996 22.266 51.996 22.5088 51.9986C22.5963 51.9991 22.6839 51.9996 22.7741 52.0002C22.9106 52.0022 22.9106 52.0022 23.0498 52.0043C23.1881 52.0054 23.1881 52.0054 23.3292 52.0066C23.5567 52.0085 23.7841 52.0112 24.0116 52.0146C24.2428 51.2973 24.4366 50.5767 24.6132 49.8443C24.9401 48.4929 25.3046 47.1527 25.6794 45.8139C25.7045 45.7239 25.7296 45.6339 25.7555 45.5412C25.8276 45.2828 25.9002 45.0246 25.973 44.7664C25.9944 44.6896 26.0159 44.6128 26.038 44.5336C26.1615 44.0984 26.3024 43.6772 26.4673 43.2558Z" fill="#FEE5C9"/>
<path d="M38.911 44.3201C39.8107 44.3613 40.709 44.4162 41.6071 44.4838C41.746 44.494 41.746 44.494 41.8877 44.5044C41.9748 44.5111 42.0619 44.5178 42.1517 44.5247C42.268 44.5336 42.268 44.5336 42.3867 44.5426C42.5723 44.5632 42.7425 44.5969 42.922 44.6475C42.9359 44.7347 42.9498 44.8219 42.9642 44.9117C43.355 47.337 43.7908 49.7588 44.8677 51.991C45.1826 52.6592 45.3553 53.2382 45.214 53.9792C45.0957 54.3083 44.9399 54.4555 44.641 54.6341C44.1154 54.8616 43.5593 54.9927 43.0038 55.1252C42.922 55.1452 42.8401 55.1652 42.7558 55.1858C40.2609 55.7844 40.2609 55.7844 39.4737 55.4117C39.0107 55.009 38.7801 54.5661 38.7217 53.9588C38.7599 53.4995 38.8846 53.1658 39.2346 52.855C39.6441 52.5657 40.0657 52.3902 40.5481 52.2602C40.5042 51.8512 40.412 51.5255 40.2463 51.15C39.9069 50.3448 39.6962 49.5044 39.484 48.6585C39.4596 48.563 39.4352 48.4675 39.4101 48.3691C39.2544 47.7034 39.1595 47.027 39.0593 46.3511C39.0447 46.2538 39.03 46.1565 39.0149 46.0563C38.9317 45.4731 38.8914 44.909 38.911 44.3201Z" fill="#FEE5C9"/>
<path d="M51.189 35.0703C51.4338 35.181 51.612 35.3061 51.8067 35.4905C51.8618 35.5423 51.9168 35.5941 51.9735 35.6475C52.032 35.7036 52.0905 35.7596 52.1508 35.8173C52.2118 35.8754 52.2729 35.9335 52.3358 35.9934C52.5271 36.1762 52.7176 36.3599 52.908 36.5437C52.9976 36.6299 52.9976 36.6299 53.0891 36.7178C55.2587 38.8093 55.2587 38.8093 55.32 40.1326C55.354 42.235 53.5196 43.7331 52.1713 45.1387C52.1265 45.1858 52.0818 45.2329 52.0357 45.2814C50.8591 46.5174 50.8591 46.5174 49.9509 46.561C49.4824 46.5533 49.1126 46.3904 48.7333 46.121C48.2103 45.5674 48.1221 45.1343 48.1385 44.3825C48.194 43.5962 48.7051 43.1541 49.2244 42.6012C49.3187 42.4925 49.4125 42.3833 49.5058 42.2737C49.7321 42.0131 49.9716 41.7696 50.2169 41.5268C50.7535 41.054 50.7535 41.054 51.0608 40.4409C51.0093 40.1311 50.8578 40.0505 50.6109 39.8641C50.5292 39.801 50.4475 39.7379 50.3634 39.6729C50.2453 39.5826 50.2453 39.5826 50.1248 39.4906C50.0097 39.3944 49.8953 39.2973 49.7821 39.199C49.7061 39.1331 49.6301 39.0673 49.5518 38.9995C49.6064 38.6285 49.7461 38.3064 49.8988 37.9673C49.9251 37.9078 49.9515 37.8484 49.9786 37.7871C50.0628 37.5976 50.1475 37.4083 50.2323 37.2191C50.2883 37.0931 50.3443 36.9671 50.4003 36.8411C50.5312 36.5467 50.6625 36.2525 50.7939 35.9584C50.9261 35.6626 51.0575 35.3664 51.189 35.0703Z" fill="#FDE4C9"/>
<path d="M15.7445 8.38477C17.3691 8.77662 18.9134 9.66467 20.1648 10.7586C20.2054 10.7934 20.2459 10.8282 20.2877 10.864C22.248 12.5528 23.3408 14.7714 23.7665 17.3072C23.7876 17.4183 23.7876 17.4183 23.8092 17.5317C24.0233 18.9887 23.9506 20.7081 23.6028 22.1368C23.5865 22.2049 23.5703 22.273 23.5535 22.3432C22.6916 25.8477 20.4828 28.8355 17.3886 30.7105C16.3995 31.2834 15.0341 31.9534 13.8618 31.8778C13.6162 31.3355 13.6162 31.3355 13.6162 31.0592C13.6996 31.0332 13.7829 31.0073 13.8688 30.9805C15.2864 30.5208 16.4983 29.8183 17.6272 28.8491C17.6992 28.7876 17.7711 28.7262 17.8453 28.663C18.0495 28.4834 18.2483 28.2993 18.4458 28.1123C18.524 28.0394 18.6022 27.9665 18.6827 27.8914C19.9868 26.6505 21.0192 25.0543 21.6382 23.3646C21.6738 23.269 21.6738 23.269 21.7102 23.1714C22.8074 20.1661 22.8045 16.6324 21.4659 13.6953C21.0493 12.8224 20.5611 12.0584 19.9192 11.3316C19.8752 11.2759 19.8312 11.2202 19.7859 11.1628C18.7636 9.89206 17.2351 9.11972 15.7445 8.54848C15.7445 8.49445 15.7445 8.44043 15.7445 8.38477Z" fill="#F3A04D"/>
<path d="M15.2532 11.2499C15.3758 11.3028 15.3758 11.3028 15.5007 11.3567C17.2131 12.1522 18.4231 13.5579 19.2956 15.1966C19.3461 15.3428 19.3461 15.3428 19.2642 15.5884C19.2354 15.5319 19.2066 15.4754 19.177 15.4173C18.2779 13.7061 16.8243 12.3929 14.9754 11.7807C12.8477 11.1203 10.5438 11.2994 8.56142 12.3345C7.96675 12.6573 7.42405 13.0262 6.90381 13.4601C6.8233 13.5262 6.74279 13.5924 6.65984 13.6606C5.01332 15.0855 3.84442 17.1879 3.54767 19.3538C3.5387 19.4148 3.52973 19.4758 3.52049 19.5386C3.22621 21.9164 3.75331 24.3499 5.23182 26.2621C6.44229 27.7722 7.9527 28.6055 9.85067 28.9311C9.85067 28.9581 9.85067 28.9851 9.85067 29.0129C7.86997 28.9789 6.19253 28.1073 4.80584 26.7093C3.0195 24.8248 2.49496 22.3839 2.55423 19.8592C2.67123 17.1326 4.01402 14.6632 5.98804 12.8308C8.58692 10.6704 12.0951 9.87854 15.2532 11.2499Z" fill="#F3A04C"/>
<path d="M31.7064 27.6215C32.0314 27.8149 32.3093 28.0671 32.5928 28.3157C33.7642 29.2904 35.3197 29.5291 36.7911 29.4C37.7342 29.2674 38.5541 28.9187 39.3191 28.3582C39.6373 28.1362 39.8289 28.0638 40.2195 28.1127C40.5056 28.2492 40.6146 28.337 40.7925 28.6038C40.8646 29.1258 40.7558 29.3974 40.4456 29.8182C39.4831 31.0005 38.1037 31.5131 36.6178 31.7144C34.8178 31.8488 33.0385 31.3267 31.6485 30.1709C31.1591 29.7132 30.6479 29.1285 30.6064 28.435C30.6462 28.0771 30.7107 27.9475 30.9697 27.7034C31.2531 27.6089 31.4086 27.5822 31.7064 27.6215Z" fill="#3A06D9"/>
<path d="M41.9265 22.9635C42.3865 23.3123 42.711 23.8716 42.8388 24.4289C42.8709 24.7806 42.8918 25.1146 42.675 25.4112C42.3705 25.6142 42.2168 25.6128 41.8565 25.5749C41.6003 25.3992 41.5012 25.1948 41.3756 24.92C41.2167 24.5875 41.0493 24.4278 40.7105 24.2652C40.4614 24.2038 40.4614 24.2038 40.2193 24.2652C39.9668 24.4696 39.82 24.6566 39.6617 24.9405C39.4751 25.1751 39.4378 25.2083 39.1603 25.2628C38.8886 25.2755 38.826 25.2463 38.5822 25.094C38.3614 24.749 38.3466 24.5004 38.4185 24.1015C38.6347 23.4585 39.0691 23.0515 39.6463 22.7099C40.4213 22.3655 41.2143 22.5422 41.9265 22.9635Z" fill="#3A06D9"/>
<path d="M32.1 22.0279C32.6762 22.3763 33.0849 22.8201 33.3701 23.4313C33.4454 23.7805 33.4346 24.083 33.3445 24.4289C33.1748 24.6803 33.0606 24.7406 32.7766 24.8433C32.5259 24.8382 32.5259 24.8382 32.3111 24.6796C32.1535 24.4764 32.0585 24.3196 31.9529 24.0912C31.8127 23.794 31.6976 23.6495 31.3799 23.5285C31.037 23.4701 30.9203 23.5075 30.6279 23.7024C30.3977 23.9134 30.2789 24.1435 30.1521 24.4289C29.9884 24.5926 29.9884 24.5926 29.6712 24.6284C29.4078 24.6198 29.3462 24.6025 29.1289 24.434C28.925 24.0178 28.9293 23.6721 29.0783 23.2343C29.37 22.593 29.7475 22.2282 30.3874 21.9425C31.0062 21.7197 31.5086 21.7352 32.1 22.0279Z" fill="#3A06D9"/>
<path d="M7.14941 31.2229C7.35577 31.2484 7.56212 31.274 7.76846 31.2996C7.82613 31.3068 7.88379 31.3139 7.9432 31.3212C8.3068 31.3665 8.66956 31.4156 9.03213 31.4685C9.05914 31.5765 9.08615 31.6846 9.11399 31.7959C8.44204 31.6711 7.7927 31.5418 7.14941 31.3048C7.14941 31.2777 7.14941 31.2507 7.14941 31.2229Z" fill="#F7AB47"/>
<path d="M33.2614 23.6104C33.3154 23.6374 33.3694 23.6644 33.4251 23.6922C33.4179 23.81 33.4091 23.9276 33.3995 24.0452C33.3948 24.1107 33.39 24.1763 33.3851 24.2438C33.3365 24.4586 33.2648 24.536 33.0977 24.6745C33.1179 24.5909 33.1179 24.5909 33.1386 24.5057C33.1881 24.2554 33.1881 24.2554 33.1795 23.9582C33.1795 23.6922 33.1795 23.6922 33.2614 23.6104Z" fill="#3A06D9"/>
<path d="M50.5341 36.6255C50.6257 36.9311 50.5964 37.0739 50.4522 37.3622C50.3982 37.4162 50.3442 37.4703 50.2885 37.5259C50.2066 37.2803 50.2066 37.2803 50.2703 37.1131C50.3016 37.0552 50.3329 36.9973 50.3652 36.9376C50.3964 36.879 50.4275 36.8204 50.4596 36.7601C50.4841 36.7157 50.5087 36.6713 50.5341 36.6255Z" fill="#F2E8C8"/>
<path d="M8.45898 31.4688C8.64807 31.4688 8.83716 31.4688 9.03198 31.4688C9.059 31.5768 9.08601 31.6849 9.11384 31.7962C8.92475 31.7692 8.73566 31.7422 8.54084 31.7143C8.51383 31.6333 8.48682 31.5522 8.45898 31.4688Z" fill="#EDA354"/>
</g>
<defs>
<clipPath id="clip0_262_2325">
<rect width="60" height="60" rx="8" fill="white"/>
</clipPath>
</defs>
</svg>
