<svg width="120" height="80" viewBox="0 0 120 80" fill="none" xmlns="http://www.w3.org/2000/svg">
<g clip-path="url(#clip0_262_2671)">
<rect width="120" height="80" rx="8" fill="#E4EBFE"/>
<path d="M99.5664 -5.72285C101.267 -7.76684 104.529 -7.27763 105.555 -4.82486L142.434 83.3509C143.477 85.8461 141.451 88.5428 138.764 88.2346L38.1415 76.6935C35.3454 76.3728 34.0232 73.0757 35.8229 70.912L99.5664 -5.72285Z" fill="#12C66F"/>
<path d="M129.097 29.6913L128.803 32.9941L128.802 32.9939L128.8 33.0123C128.306 38.5772 123.394 42.6877 117.829 42.1932L108.371 41.3528C102.806 40.8584 98.6955 35.9462 99.19 30.3813L99.1914 30.3628L87.1143 29.2897C86.341 34.5554 81.5802 38.3641 76.2117 37.887L69.1877 37.2629C63.8192 36.7858 59.8045 32.1975 59.9718 26.8779L59.9639 26.8773L59.978 26.7171C59.9847 26.5756 59.9942 26.4336 60.0068 26.2913L60.1073 25.1628L60.116 25.1635L60.2573 23.5745L129.097 29.6913Z" fill="#022B17"/>
<path d="M93.5951 31.7678C95.6901 31.7679 97.3885 33.4664 97.3885 35.5614C97.3885 37.6565 95.6901 39.3549 93.5951 39.3549H91.0661C88.971 39.3549 87.2725 37.6565 87.2725 35.5614C87.2725 33.4664 88.971 31.7678 91.0661 31.7678H93.5951Z" fill="#FE8253"/>
<path d="M99.9333 45.3125C100.675 44.4076 101.89 43.8492 102.977 44.2838C104.063 44.7184 104.608 45.9703 103.944 46.934C103.159 48.0737 102.119 49.0618 100.863 49.8505C98.9651 51.043 96.6419 51.7387 94.1244 51.8684C91.607 51.9982 88.9829 51.5575 86.5128 50.5901C84.736 49.8943 83.0834 48.9433 81.6375 47.7913C80.7707 47.1007 80.918 45.7926 81.8504 45.1935C82.5489 44.7446 83.4594 44.8588 84.1039 45.3823C85.1693 46.2478 86.3949 46.9605 87.7157 47.4778C89.4973 48.1755 91.39 48.4934 93.2057 48.3998C95.0215 48.3062 96.6971 47.8044 98.0661 46.9443C98.7936 46.4872 99.4211 45.9374 99.9333 45.3125Z" fill="#004E28"/>
<path d="M48.8856 63.5738L48.5488 63.6363C48.0538 63.7121 47.5627 63.7495 47.0634 63.777L46.7572 63.795C46.4203 63.8147 46.0834 63.8337 45.7465 63.8528L45.7342 63.8535C45.4843 63.8679 45.2344 63.8824 44.9846 63.8969C44.2919 63.9371 43.5992 63.9767 42.9065 64.0162C42.246 64.0539 41.5856 64.0919 40.9251 64.1299L40.6782 64.1441C39.6924 64.2008 38.7067 64.2574 37.7209 64.3138C35.4696 64.4427 33.2183 64.5732 30.9671 64.7047C29.0697 64.8156 27.1722 64.926 25.2748 65.036C24.0934 65.1045 22.912 65.1733 21.7307 65.2426C20.7113 65.3024 19.692 65.3617 18.6725 65.4204C18.1463 65.4507 17.62 65.4813 17.0938 65.5124C13.4135 65.7303 13.4135 65.7303 11.8724 65.7384L11.5769 65.741C10.3668 65.7333 9.38896 65.3521 8.51601 64.515C7.50948 63.3163 7.32999 61.8353 7.24184 60.3272L7.21604 59.9257C7.18816 59.4881 7.16164 59.0504 7.13513 58.6127C7.11559 58.3013 7.09597 57.99 7.07627 57.6787C7.02443 56.8554 6.97374 56.032 6.92328 55.2087C6.87873 54.485 6.83323 53.7614 6.78774 53.0378L6.77126 52.7756C6.57112 49.5821 6.37898 46.3881 6.19324 43.1937C6.0702 41.081 5.93934 38.9688 5.80384 36.8568C5.77262 36.3697 5.74156 35.8826 5.71056 35.3955L5.67959 34.909L5.6176 33.9349C5.56519 33.1122 5.51233 32.2896 5.45868 31.4671C5.04367 25.0929 5.04367 25.0929 5.01189 22.8657L5 22.4443C5.00144 21.3657 5.35264 20.5317 6.02552 19.6912L6.29992 19.4523L6.56806 19.2071C7.90332 18.374 9.30867 18.3208 10.8333 18.2452C11.0692 18.2318 11.305 18.2182 11.5409 18.2044C12.1613 18.1688 12.7818 18.1358 13.4024 18.1033C13.9856 18.0725 14.5687 18.0395 15.1518 18.0065L15.2488 18.001C16.0971 17.9532 16.9455 17.9062 17.7939 17.8602C19.0807 17.7904 20.3672 17.716 21.6535 17.6369C23.4492 17.5265 25.2452 17.4207 27.0414 17.3166L27.4613 17.2922C28.1811 17.2504 28.9009 17.2087 29.6207 17.167L29.6208 17.167C35.0175 16.855 35.0175 16.855 40.4136 16.5314L40.724 16.5125C41.7375 16.4505 42.7509 16.388 43.7643 16.3247C45.6313 16.2089 47.4978 16.1128 49.3671 16.0425C49.6595 16.0312 49.9519 16.0185 50.2442 16.0055C51.4488 15.9573 52.3674 16.2237 53.3262 16.965C54.4441 18.058 54.6753 19.1497 54.7696 20.6568L54.8016 21.1175C54.8347 21.6029 54.8654 22.0884 54.8954 22.574L54.9246 23.0413C54.9946 24.1711 55.0583 25.3012 55.1213 26.4313C55.1415 26.7895 55.1617 27.1478 55.182 27.506C55.2294 28.3438 55.2765 29.1816 55.3234 30.0194C55.3921 31.2464 55.4614 32.4734 55.5307 33.7004L55.5617 34.25L55.577 34.5215C55.6113 35.1287 55.6454 35.7359 55.6794 36.3431C55.7218 37.0994 55.7648 37.8556 55.8081 38.6118C55.8285 38.9709 55.8484 39.3301 55.8681 39.6893C55.8792 39.8842 55.8904 40.0791 55.9017 40.274L55.9288 40.7603C55.9503 41.1477 55.9503 41.1477 56.0973 41.5381L56.6315 56.5625C56.8144 61.3465 55.8993 62.6614 52.8533 63.1064L48.8856 63.5738Z" fill="white"/>
<path d="M48.2885 21.4812C48.4431 21.4763 48.5977 21.4714 48.757 21.4664C48.8967 21.4611 49.0365 21.4557 49.1804 21.4502C49.5532 21.5056 49.5532 21.5056 49.8637 21.7366C50.1126 22.074 50.1628 22.2441 50.1889 22.6579C50.1979 22.7808 50.2069 22.9038 50.2162 23.0305C50.2234 23.1641 50.2307 23.2977 50.2382 23.4353C50.2478 23.5767 50.2575 23.718 50.2675 23.8636C50.288 24.1676 50.3074 24.4716 50.3259 24.7757C50.3541 25.2378 50.3855 25.6996 50.4181 26.1614C50.4865 27.1384 50.5501 28.1156 50.6133 29.0929C50.6307 29.3598 50.648 29.6267 50.6654 29.8935C50.839 32.5589 51.0008 35.2249 51.1544 37.8915C51.2236 39.0923 51.2934 40.2931 51.3733 41.4933C51.3798 41.5907 51.3863 41.6881 51.3929 41.7884C51.4218 42.2219 51.4514 42.6554 51.4819 43.0888C51.6567 45.6613 51.6567 45.6613 51.2894 46.2124C50.9199 46.3355 50.6502 46.3742 50.2658 46.3979C50.1396 46.4059 50.0133 46.4139 49.8833 46.4221C49.7468 46.4302 49.6103 46.4383 49.4697 46.4466C49.3285 46.4553 49.1873 46.464 49.0419 46.473C48.7424 46.4913 48.4428 46.5094 48.1433 46.5272C47.689 46.5543 47.2347 46.5824 46.7805 46.6107C46.4889 46.6284 46.1973 46.646 45.9056 46.6636C45.7713 46.672 45.637 46.6803 45.4987 46.6889C44.6233 46.7402 43.7525 46.7562 42.8757 46.7466C42.8925 46.8915 42.9092 47.0364 42.9265 47.1857C43.1121 48.8387 43.2355 50.4921 43.3341 52.1523C43.3597 52.5783 43.3868 53.0042 43.4141 53.4301C43.5031 54.8696 43.5649 56.308 43.58 57.7503C43.5826 57.8868 43.5853 58.0232 43.5881 58.1638C43.5884 58.2897 43.5887 58.4156 43.589 58.5453C43.59 58.656 43.5909 58.7666 43.5919 58.8806C43.5313 59.2388 43.4328 59.3534 43.1428 59.5674C42.7782 59.6368 42.4386 59.6799 42.0702 59.7087C41.955 59.7189 41.8398 59.7292 41.7211 59.7397C39.8746 59.8952 38.0228 59.99 36.1728 60.0926C35.7646 60.1155 35.3565 60.139 34.9483 60.1626C33.9574 60.2197 32.9663 60.274 31.975 60.3244C31.4113 60.3532 30.8477 60.3845 30.2842 60.4177C29.8532 60.4424 29.4219 60.4634 28.9907 60.485C28.8351 60.4948 28.6795 60.5047 28.5192 60.5149C28.3054 60.5245 28.3054 60.5245 28.0874 60.5343C27.9637 60.541 27.84 60.5477 27.7126 60.5547C27.3839 60.5022 27.3839 60.5022 27.078 60.2838C26.7898 59.8851 26.7779 59.6454 26.7684 59.1563C26.764 59.0013 26.7597 58.8464 26.7553 58.6868C26.7534 58.5256 26.7515 58.3645 26.7496 58.1985C26.7456 58.0353 26.7417 57.8721 26.7376 57.7039C26.7281 57.3012 26.7211 56.8985 26.7162 56.4957C26.6083 56.5024 26.5005 56.5091 26.3894 56.516C25.3604 56.5797 24.3314 56.6426 23.3024 56.7047C22.7737 56.7366 22.2449 56.7688 21.7163 56.8017C17.674 57.0528 17.674 57.0528 16.0385 57.0716C15.8812 57.0752 15.8812 57.0752 15.7207 57.0788C15.151 57.0781 14.8433 57.0239 14.4296 56.6293C14.3497 56.3697 14.3497 56.3697 14.3307 56.0646C14.3221 55.9455 14.3135 55.8264 14.3047 55.7037C14.2977 55.5701 14.2907 55.4366 14.2835 55.299C14.274 55.1547 14.2645 55.0104 14.2547 54.8617C14.2274 54.4356 14.2027 54.0094 14.179 53.583C14.1553 53.1634 14.13 52.7439 14.1048 52.3244C14.0156 50.8347 13.9324 49.3447 13.8502 47.8546C13.7865 46.7017 13.7221 45.5488 13.6575 44.3959C13.6505 44.2709 13.6435 44.1458 13.6363 44.017C13.5421 42.3358 13.4409 40.6552 13.3302 38.975C13.1847 36.761 13.0535 34.5461 12.9222 32.3311C12.8919 31.8207 12.8614 31.3103 12.8305 30.7999C12.7925 30.1708 12.755 29.5417 12.7179 28.9126C12.7039 28.6769 12.6897 28.4413 12.6754 28.2057C12.6373 27.5785 12.6018 26.9513 12.5728 26.3237C12.5604 26.057 12.5466 25.7904 12.5328 25.5239C12.5279 25.3691 12.523 25.2144 12.518 25.055C12.513 24.9226 12.508 24.7903 12.5029 24.654C12.5599 24.3102 12.5599 24.3102 12.7712 24.0049C13.1967 23.7033 13.5108 23.6817 14.029 23.6424C14.2797 23.6228 14.2797 23.6228 14.5355 23.6028C14.7202 23.5916 14.9048 23.5807 15.0895 23.5702C15.1913 23.5641 15.2931 23.558 15.398 23.5517C15.6179 23.5386 15.8379 23.5256 16.0579 23.5128C16.4095 23.4923 16.7611 23.4714 17.1126 23.4503C17.8626 23.4054 18.6126 23.3611 19.3626 23.3169C20.3432 23.2591 21.3238 23.201 22.3043 23.1422C22.424 23.135 22.5437 23.1278 22.667 23.1204C24.1053 23.0336 25.5411 22.9348 26.9765 22.8073C28.969 22.6341 30.9673 22.5304 32.9637 22.4116C33.5656 22.3757 34.1675 22.3394 34.7694 22.3032C34.8905 22.2959 35.0116 22.2886 35.1364 22.2811C35.3817 22.2663 35.6271 22.2516 35.8724 22.2368C36.241 22.2146 36.6096 22.1925 36.9781 22.1704C38.457 22.0815 39.9358 21.9905 41.4144 21.8971C41.7192 21.8778 42.024 21.8587 42.3288 21.8395C42.4269 21.8334 42.525 21.8272 42.6261 21.8208C42.8201 21.8086 43.0142 21.7965 43.2082 21.7843C43.6726 21.7551 44.137 21.7257 44.6014 21.6958C45.1121 21.6631 45.6228 21.631 46.1336 21.599C46.3528 21.5847 46.3528 21.5847 46.5765 21.57C47.1469 21.5348 47.7178 21.5108 48.2885 21.4812Z" fill="white"/>
<path d="M48.2885 21.4812C48.4431 21.4763 48.5977 21.4714 48.757 21.4664C48.8967 21.4611 49.0365 21.4557 49.1804 21.4502C49.5532 21.5056 49.5532 21.5056 49.8637 21.7366C50.1126 22.074 50.1628 22.2441 50.1889 22.6579C50.1979 22.7808 50.2069 22.9038 50.2162 23.0305C50.2234 23.1641 50.2307 23.2977 50.2382 23.4353C50.2478 23.5767 50.2575 23.718 50.2675 23.8636C50.288 24.1676 50.3074 24.4716 50.3259 24.7757C50.3541 25.2378 50.3855 25.6996 50.4181 26.1614C50.4865 27.1384 50.5501 28.1156 50.6133 29.0929C50.6307 29.3598 50.648 29.6267 50.6654 29.8935C50.839 32.5589 51.0008 35.2249 51.1544 37.8915C51.2236 39.0923 51.2934 40.2931 51.3733 41.4933C51.3798 41.5907 51.3863 41.6881 51.3929 41.7884C51.4218 42.2219 51.4514 42.6554 51.4819 43.0888C51.6567 45.6613 51.6567 45.6613 51.2894 46.2124C50.9199 46.3355 50.6502 46.3742 50.2658 46.3979C50.1396 46.4059 50.0133 46.4139 49.8833 46.4221C49.7468 46.4302 49.6103 46.4383 49.4697 46.4466C49.3285 46.4553 49.1873 46.464 49.0419 46.473C48.7424 46.4913 48.4428 46.5094 48.1433 46.5272C47.689 46.5543 47.2347 46.5824 46.7805 46.6107C46.4889 46.6284 46.1973 46.646 45.9056 46.6636C45.7713 46.672 45.637 46.6803 45.4987 46.6889C44.6233 46.7402 43.7525 46.7562 42.8757 46.7466C42.8925 46.8915 42.9092 47.0364 42.9265 47.1857C43.1121 48.8387 43.2355 50.4921 43.3341 52.1523C43.3597 52.5783 43.3868 53.0042 43.4141 53.4301C43.5031 54.8696 43.5649 56.308 43.58 57.7503C43.5826 57.8868 43.5853 58.0232 43.5881 58.1638C43.5884 58.2897 43.5887 58.4156 43.589 58.5453C43.59 58.656 43.5909 58.7666 43.5919 58.8806C43.5313 59.2388 43.4328 59.3534 43.1428 59.5674C42.7782 59.6368 42.4386 59.6799 42.0702 59.7087C41.955 59.7189 41.8398 59.7292 41.7211 59.7397C39.8746 59.8952 38.0228 59.99 36.1728 60.0926C35.7646 60.1155 35.3565 60.139 34.9483 60.1626C33.9574 60.2197 32.9663 60.274 31.975 60.3244C31.4113 60.3532 30.8477 60.3845 30.2842 60.4177C29.8532 60.4424 29.4219 60.4634 28.9907 60.485C28.8351 60.4948 28.6795 60.5047 28.5192 60.5149C28.3054 60.5245 28.3054 60.5245 28.0874 60.5343C27.9637 60.541 27.84 60.5477 27.7126 60.5547C27.3839 60.5022 27.3839 60.5022 27.078 60.2838C26.7898 59.8851 26.7779 59.6454 26.7684 59.1563C26.764 59.0013 26.7597 58.8464 26.7553 58.6868C26.7534 58.5256 26.7515 58.3645 26.7496 58.1985C26.7456 58.0353 26.7417 57.8721 26.7376 57.7039C26.7281 57.3012 26.7211 56.8985 26.7162 56.4957C26.6083 56.5024 26.5005 56.5091 26.3894 56.516C25.3604 56.5797 24.3314 56.6426 23.3024 56.7047C22.7737 56.7366 22.2449 56.7688 21.7163 56.8017C17.674 57.0528 17.674 57.0528 16.0385 57.0716C15.8812 57.0752 15.8812 57.0752 15.7207 57.0788C15.151 57.0781 14.8433 57.0239 14.4296 56.6293C14.3497 56.3697 14.3497 56.3697 14.3307 56.0646C14.3221 55.9455 14.3135 55.8264 14.3047 55.7037C14.2977 55.5701 14.2907 55.4366 14.2835 55.299C14.274 55.1547 14.2645 55.0104 14.2547 54.8617C14.2274 54.4356 14.2027 54.0094 14.179 53.583C14.1553 53.1634 14.13 52.7439 14.1048 52.3244C14.0156 50.8347 13.9324 49.3447 13.8502 47.8546C13.7865 46.7017 13.7221 45.5488 13.6575 44.3959C13.6505 44.2709 13.6435 44.1458 13.6363 44.017C13.5421 42.3358 13.4409 40.6552 13.3302 38.975C13.1847 36.761 13.0535 34.5461 12.9222 32.3311C12.8919 31.8207 12.8614 31.3103 12.8305 30.7999C12.7925 30.1708 12.755 29.5417 12.7179 28.9126C12.7039 28.6769 12.6897 28.4413 12.6754 28.2057C12.6373 27.5785 12.6018 26.9513 12.5728 26.3237C12.5604 26.057 12.5466 25.7904 12.5328 25.5239C12.5279 25.3691 12.523 25.2144 12.518 25.055C12.513 24.9226 12.508 24.7903 12.5029 24.654C12.5599 24.3102 12.5599 24.3102 12.7712 24.0049C13.1967 23.7033 13.5108 23.6817 14.029 23.6424C14.2797 23.6228 14.2797 23.6228 14.5355 23.6028C14.7202 23.5916 14.9048 23.5807 15.0895 23.5702C15.1913 23.5641 15.2931 23.558 15.398 23.5517C15.6179 23.5386 15.8379 23.5256 16.0579 23.5128C16.4095 23.4923 16.7611 23.4714 17.1126 23.4503C17.8626 23.4054 18.6126 23.3611 19.3626 23.3169C20.3432 23.2591 21.3238 23.201 22.3043 23.1422C22.424 23.135 22.5437 23.1278 22.667 23.1204C24.1053 23.0336 25.5411 22.9348 26.9765 22.8073C28.969 22.6341 30.9673 22.5304 32.9637 22.4116C33.5656 22.3757 34.1675 22.3394 34.7694 22.3032C34.8905 22.2959 35.0116 22.2886 35.1364 22.2811C35.3817 22.2663 35.6271 22.2516 35.8724 22.2368C36.241 22.2146 36.6096 22.1925 36.9781 22.1704C38.457 22.0815 39.9358 21.9905 41.4144 21.8971C41.7192 21.8778 42.024 21.8587 42.3288 21.8395C42.4269 21.8334 42.525 21.8272 42.6261 21.8208C42.8201 21.8086 43.0142 21.7965 43.2082 21.7843C43.6726 21.7551 44.137 21.7257 44.6014 21.6958C45.1121 21.6631 45.6228 21.631 46.1336 21.599C46.3528 21.5847 46.3528 21.5847 46.5765 21.57C47.1469 21.5348 47.7178 21.5108 48.2885 21.4812ZM45.6698 23.4489C45.48 23.4606 45.48 23.4606 45.2863 23.4725C44.8723 23.4982 44.4583 23.5244 44.0443 23.5506C43.7512 23.5689 43.4581 23.5872 43.165 23.6054C40.9906 23.7412 38.8166 23.8823 36.6427 24.0257C35.2823 24.1153 33.9218 24.2025 32.5611 24.2862C32.4145 24.2952 32.2679 24.3043 32.1169 24.3136C31.4081 24.3573 30.6993 24.4006 29.9905 24.4435C29.7343 24.4592 29.478 24.4749 29.2218 24.4907C29.1073 24.4975 28.9928 24.5043 28.8749 24.5113C28.152 24.5561 27.4355 24.6259 26.7162 24.7108C26.6812 26.4828 26.7919 28.2359 26.9165 30.0028C26.9453 30.4183 26.9739 30.8339 27.0022 31.2495C27.0198 31.5058 27.0376 31.7621 27.0557 32.0183C27.1724 33.7056 27.1724 33.7056 26.9082 34.1178C26.5826 34.3264 26.5826 34.3264 26.0985 34.3264C25.6478 34.1929 25.6478 34.1929 25.4901 33.9619C25.3639 33.6121 25.3339 33.3186 25.3157 32.9471C25.3081 32.8048 25.3006 32.6625 25.2928 32.5159C25.2858 32.3626 25.2788 32.2093 25.2717 32.0514C25.2635 31.8926 25.2553 31.7338 25.2468 31.5702C25.2208 31.0617 25.1963 30.5531 25.172 30.0445C25.1469 29.5392 25.1215 29.034 25.0958 28.5288C25.0799 28.2146 25.0644 27.9003 25.0494 27.5861C25.0043 26.6695 24.9377 25.7576 24.8465 24.8444C24.5686 24.8607 24.2907 24.8771 24.0128 24.8934C23.8801 24.9012 23.8801 24.9012 23.7446 24.9092C23.2451 24.9386 22.7457 24.968 22.2462 24.9975C21.2814 25.0544 20.3166 25.1111 19.3517 25.1662C18.944 25.1895 18.5363 25.213 18.1286 25.2365C17.935 25.2477 17.7413 25.2587 17.5477 25.2696C17.2748 25.285 17.002 25.3007 16.7292 25.3165C16.4977 25.3297 16.4977 25.3297 16.2615 25.3432C15.6494 25.3869 15.0398 25.4483 14.4296 25.5121C14.5103 27.7569 14.6236 29.9979 14.7635 32.2397C14.7984 32.8056 14.8331 33.3714 14.8678 33.9373C14.8762 34.0729 14.8846 34.2085 14.8932 34.3482C14.9522 35.3108 15.0049 36.2737 15.0483 37.2372C15.0793 37.8752 15.1451 38.5012 15.2309 39.1342C15.3546 39.1269 15.4783 39.1196 15.6058 39.1121C16.6473 39.0506 17.6888 38.9898 18.7304 38.9298C19.3233 38.8956 19.9162 38.8612 20.5092 38.8268C20.8148 38.8091 21.1206 38.7915 21.4263 38.7739C21.8748 38.7482 22.3233 38.7222 22.7718 38.696C22.9067 38.6884 23.0417 38.6807 23.1808 38.6728C24.0057 38.6243 24.8263 38.5557 25.6478 38.4665C25.7098 38.2392 25.7098 38.2392 25.773 38.0074C25.9149 37.5316 25.9149 37.5316 26.0484 37.3981C26.8285 37.3486 26.8285 37.3486 27.1168 37.3981C27.7687 38.3759 27.6 39.981 27.651 41.1375C27.6584 41.2907 27.6658 41.4439 27.6735 41.6018C27.6771 41.7295 27.6807 41.8572 27.6844 41.9889C27.6879 42.0973 27.6913 42.2058 27.6949 42.3175C27.6383 42.6903 27.51 42.8708 27.2504 43.1407C26.8497 43.1992 26.8497 43.1992 26.4491 43.1407C26.1726 42.9303 26.0637 42.8008 25.9784 42.4617C25.9693 42.3575 25.9602 42.2532 25.9509 42.1459C25.9401 42.0327 25.9294 41.9195 25.9183 41.8029C25.9089 41.6852 25.8995 41.5675 25.8898 41.4463C25.8789 41.3271 25.868 41.2079 25.8567 41.085C25.83 40.791 25.8049 40.4969 25.7813 40.2026C25.668 40.2099 25.5546 40.2173 25.4377 40.2248C24.28 40.2984 23.122 40.3667 21.9637 40.4322C21.8146 40.4406 21.6656 40.4491 21.512 40.4578C20.8915 40.493 20.2709 40.5282 19.6504 40.5629C19.1917 40.5886 18.733 40.6147 18.2744 40.6408C18.1361 40.6485 17.9978 40.6561 17.8553 40.664C17.0223 40.7119 16.1939 40.7799 15.3644 40.8704C15.4464 43.0698 15.5465 45.2678 15.6646 47.4655C15.6899 47.9394 15.7146 48.4134 15.7393 48.8873C15.8501 50.981 15.9948 53.0706 16.1657 55.1602C18.2672 55.2122 20.3542 55.0605 22.4492 54.9126C22.9167 54.8797 23.3842 54.8479 23.8516 54.8159C24.762 54.7535 25.6724 54.6901 26.5826 54.626C26.5622 54.0706 26.5414 53.5152 26.5206 52.9598C26.5119 52.7254 26.5119 52.7254 26.5032 52.4863C26.4722 51.668 26.434 50.8519 26.374 50.0352C26.3214 49.2146 26.2885 48.395 26.2738 47.5729C26.2698 47.4571 26.2659 47.3412 26.2618 47.2219C26.2607 47.1137 26.2597 47.0056 26.2587 46.8942C26.2567 46.798 26.2548 46.7018 26.2528 46.6027C26.3437 46.2309 26.5308 46.1454 26.8497 45.9453C27.146 45.881 27.146 45.881 27.4717 45.8609C27.6557 45.8483 27.6557 45.8483 27.8433 45.8354C27.9749 45.8283 28.1065 45.8211 28.2421 45.8138C28.3784 45.8052 28.5148 45.7965 28.6553 45.7876C28.9436 45.7697 29.232 45.7527 29.5204 45.7365C29.9602 45.7117 30.3997 45.684 30.8393 45.6557C31.1198 45.6387 31.4004 45.6218 31.681 45.6051C31.8118 45.5969 31.9426 45.5887 32.0774 45.5803C32.7603 45.5431 33.3915 45.5297 34.0614 45.6782C34.3285 45.9453 34.3285 45.9453 34.3703 46.3376C34.3285 46.7466 34.3285 46.7466 34.1586 46.9674C33.7528 47.2836 33.2357 47.2417 32.739 47.2693C32.6222 47.2773 32.5055 47.2853 32.3852 47.2936C32.012 47.3189 31.6386 47.3416 31.2652 47.3642C30.8923 47.3883 30.5195 47.4128 30.1467 47.4378C29.9147 47.4532 29.6827 47.4679 29.4506 47.4819C29.345 47.4886 29.2394 47.4954 29.1305 47.5023C28.9918 47.5107 28.9918 47.5107 28.8502 47.5193C28.5746 47.5491 28.3187 47.6082 28.0517 47.6814C28.1066 49.9866 28.2313 52.2839 28.3856 54.5843C28.3943 54.7163 28.4031 54.8482 28.4122 54.9842C28.4377 55.3662 28.4637 55.7481 28.4899 56.13C28.4975 56.2434 28.5052 56.3568 28.5131 56.4737C28.5637 57.1959 28.6353 57.9134 28.7194 58.6325C32.2118 58.5158 35.7001 58.3249 39.1864 58.09C39.3458 58.0794 39.5052 58.0688 39.6694 58.0579C39.8168 58.0477 39.9642 58.0374 40.116 58.0268C40.2435 58.018 40.371 58.0093 40.5023 58.0002C40.897 57.9624 41.2835 57.9007 41.6738 57.8312C41.713 56.2582 41.6092 54.6913 41.5173 53.1217C41.4903 52.6592 41.4646 52.1965 41.439 51.7338C41.3465 50.1078 41.2256 48.4942 41.006 46.8801C40.846 46.8827 40.6859 46.8852 40.521 46.8879C40.4256 46.8894 40.3302 46.8908 40.232 46.8924C40.0332 46.8956 39.8344 46.8997 39.6357 46.9042C39.1276 46.9081 38.9007 46.9011 38.4686 46.613C38.4154 46.3626 38.4154 46.3626 38.4185 46.0788C38.4175 45.9852 38.4164 45.8915 38.4154 45.795C38.4686 45.5446 38.4686 45.5446 38.8692 45.2775C39.9992 45.1028 41.151 45.0755 42.292 45.0141C42.5058 45.0023 42.7197 44.9905 42.9336 44.9787C43.4927 44.9479 44.0519 44.9175 44.6111 44.8872C45.1832 44.8561 45.7553 44.8246 46.3274 44.7931C47.4472 44.7316 48.567 44.6706 49.6868 44.6098C49.4157 39.9381 49.4157 39.9381 49.0941 35.2696C48.7998 31.308 48.5822 27.341 48.3513 23.3753C47.454 23.3659 46.5651 23.3914 45.6698 23.4489Z" fill="#02B36D"/>
<path d="M39.6389 28.4074C40.8203 29.1055 41.9897 30.1147 42.4158 31.4681C43.0236 34.776 40.8335 37.945 39.1433 40.6126C38.7184 41.2205 38.7184 41.2205 38.4683 41.4045C37.9317 41.4812 37.6538 41.493 37.211 41.1677C32.3368 35.4323 32.3368 35.4323 32.5921 32.1896C32.821 30.9209 33.4537 29.8386 34.4618 29.0308C35.9805 28.0074 37.9264 27.5857 39.6389 28.4074Z" fill="#02B36D"/>
<path d="M38.3595 31.0129C38.843 31.3245 39.1461 31.6764 39.4029 32.1899C39.4763 32.8591 39.4778 33.378 39.1691 33.9844C38.6646 34.559 38.2791 34.8202 37.5081 34.9109C36.8455 34.8458 36.4339 34.6216 35.9306 34.1931C35.5322 33.6453 35.459 33.143 35.4824 32.4809C35.5779 31.8958 35.9068 31.5268 36.3396 31.1465C36.9932 30.7459 37.6528 30.7497 38.3595 31.0129Z" fill="white"/>
<path d="M26.7162 24.7109C27.3332 24.7109 27.9502 24.7109 28.5859 24.7109C28.5859 24.755 28.5859 24.7991 28.5859 24.8445C27.7927 24.9106 27.7927 24.9106 26.9833 24.978C26.993 25.1221 27.0026 25.2662 27.0126 25.4147C27.1075 26.9182 27.1319 28.4132 27.1169 29.9194C27.0728 29.9194 27.0288 29.9194 26.9833 29.9194C26.8111 28.1764 26.6829 26.4629 26.7162 24.7109Z" fill="#FCF2E5"/>
<path d="M26.1816 56.3623C26.402 56.3623 26.6224 56.3623 26.8494 56.3623C27.129 56.8166 27.1405 57.1706 27.1165 57.6978C26.9843 57.7419 26.8521 57.7859 26.7158 57.8314C26.7158 57.3906 26.7158 56.9499 26.7158 56.4959C26.5396 56.4518 26.3633 56.4077 26.1816 56.3623Z" fill="#02B36D"/>
<path d="M25.648 37.3979C25.7816 37.665 25.7816 37.665 25.648 38.4663C25.031 38.4663 24.414 38.4663 23.7783 38.4663C23.7783 38.4223 23.7783 38.3782 23.7783 38.3328C24.5716 38.2667 24.5716 38.2667 25.3809 38.1992C25.425 37.9789 25.4691 37.7585 25.5145 37.5315C25.5585 37.4874 25.6026 37.4434 25.648 37.3979Z" fill="#FCF5E6"/>
</g>
<defs>
<clipPath id="clip0_262_2671">
<rect width="120" height="80" rx="8" fill="white"/>
</clipPath>
</defs>
</svg>
