<svg width="120" height="80" viewBox="0 0 120 80" fill="none" xmlns="http://www.w3.org/2000/svg">
<g clip-path="url(#clip0_262_2714)">
<rect width="120" height="80" rx="8" fill="#E4EBFE"/>
<path d="M120.458 69.7076L108.812 68.6089L113.826 101.173C114.782 107.377 120.093 111.974 126.371 112.031L145.351 112.2L148.276 124.877C149.373 129.632 153.608 133 158.487 133C168.413 133 174.707 122.361 169.928 113.662L162.794 100.673C160.889 97.206 157.397 94.9018 153.461 94.5147L131.473 92.3519C128.897 92.0985 126.726 90.3189 125.973 87.8421L120.458 69.7076Z" fill="#FAE4CD"/>
<path d="M120.458 69.7076L108.812 68.6089L113.826 101.173C114.782 107.377 120.093 111.974 126.371 112.031L145.351 112.2L148.276 124.877C149.373 129.632 153.608 133 158.487 133C168.413 133 174.707 122.361 169.928 113.662L162.794 100.673C160.889 97.206 157.397 94.9018 153.461 94.5147L131.473 92.3519C128.897 92.0985 126.726 90.3189 125.973 87.8421L120.458 69.7076Z" fill="url(#paint0_linear_262_2714)"/>
<path d="M93.7418 71.5505L91.8897 65.0301L71.1117 69.7433C67.0588 70.6627 64.9415 75.139 66.8018 78.8553L75.7514 96.7332L67.5975 95.2706C63.2836 94.4968 59.1202 97.2398 58.1286 101.509C56.582 108.168 61.864 114.447 68.6898 114.062L91.8675 112.757C97.4294 112.444 100.663 106.329 97.7916 101.555L83.4243 77.6745L93.7418 71.5505Z" fill="#FEDCBA"/>
<path d="M93.7418 71.5505L91.8897 65.0301L71.1117 69.7433C67.0588 70.6627 64.9415 75.139 66.8018 78.8553L75.7514 96.7332L67.5975 95.2706C63.2836 94.4968 59.1202 97.2398 58.1286 101.509C56.582 108.168 61.864 114.447 68.6898 114.062L91.8675 112.757C97.4294 112.444 100.663 106.329 97.7916 101.555L83.4243 77.6745L93.7418 71.5505Z" fill="url(#paint1_linear_262_2714)"/>
<rect width="2.80413" height="32.6801" rx="1.40207" transform="matrix(-0.876406 0.481572 0.481572 0.876406 82.2734 72.6936)" fill="#DC9E83"/>
<path d="M110.149 -1.00692C106.767 -4.31288 101.342 -4.24046 98.0499 -0.845401L62.7141 35.5936C59.562 38.8441 59.4952 43.99 62.562 47.3211L92.9296 80.3066C95.9855 83.6259 101.096 83.9949 104.597 81.1489L146.084 47.4244C150.042 44.2067 150.314 38.259 146.667 34.6931L110.149 -1.00692Z" fill="#D9D9D9"/>
<path d="M110.149 -1.00692C106.767 -4.31288 101.342 -4.24046 98.0499 -0.845401L62.7141 35.5936C59.562 38.8441 59.4952 43.99 62.562 47.3211L92.9296 80.3066C95.9855 83.6259 101.096 83.9949 104.597 81.1489L146.084 47.4244C150.042 44.2067 150.314 38.259 146.667 34.6931L110.149 -1.00692Z" fill="#FE8253"/>
<path d="M98.8024 52.0044C99.5182 51.1312 100.691 50.5924 101.739 51.0117C102.787 51.4311 103.313 52.6391 102.673 53.569C101.915 54.6688 100.911 55.6222 99.6996 56.3833C97.8681 57.534 95.6263 58.2053 93.197 58.3306C90.7678 58.4557 88.2356 58.0305 85.8521 57.097C84.1376 56.4256 82.5429 55.5079 81.1476 54.3963C80.3112 53.7299 80.4533 52.4676 81.353 51.8895C82.0271 51.4564 82.9057 51.5666 83.5276 52.0717C84.5556 52.9069 85.7384 53.5946 87.0129 54.0938C88.732 54.767 90.5584 55.0738 92.3105 54.9835C94.0626 54.8932 95.6796 54.409 97.0006 53.579C97.7026 53.1379 98.3081 52.6073 98.8024 52.0044Z" fill="#982B04"/>
<rect x="82.3516" y="40.8203" width="10.4091" height="10.4091" rx="5.20456" transform="rotate(-15 82.3516 40.8203)" fill="#315CDA"/>
<rect width="6.01183" height="14.831" rx="3.00591" transform="matrix(0.140668 -0.990057 -0.990057 -0.140668 110.106 40.3813)" fill="#9C2B00"/>
<rect width="6.18652" height="12.0564" rx="3.09326" transform="matrix(0.48907 0.872245 0.872245 -0.48907 73.6973 38.6296)" fill="#9C2B00"/>
<path d="M3.62742 -3.17675C3.46772 -3.08746 3.46772 -3.08746 3.30479 -2.99638C3.00442 -2.81274 2.73216 -2.61546 2.4568 -2.39634C2.32502 -2.29347 2.32502 -2.29347 2.19057 -2.18853C1.58061 -1.65068 1.21098 -1.03994 0.847206 -0.323372C0.803772 -0.238051 0.760334 -0.15273 0.715584 -0.0648229C-0.258354 1.96423 -0.161671 4.61539 0.547375 6.71696C0.576572 6.79999 0.605766 6.88303 0.635845 6.96858C0.66655 7.05732 0.697254 7.14606 0.728886 7.23748C1.45247 9.27061 2.52429 11.0043 4.01762 12.5615C4.14327 12.7152 4.26801 12.8696 4.39157 13.0249C5.26056 14.0451 6.42884 14.8054 7.52947 15.5531C7.21381 16.6747 6.82138 17.7672 6.42389 18.8617C6.37114 19.0076 6.37114 19.0076 6.31733 19.1565C5.81895 20.535 5.31032 21.9096 4.79651 23.2825C4.74086 23.4313 4.68521 23.5801 4.62787 23.7334C4.35046 24.4749 4.07231 25.216 3.79305 25.9567C3.6899 26.2317 3.58675 26.5067 3.48363 26.7816C3.43628 26.9065 3.38892 27.0314 3.34014 27.1601C2.94728 28.2103 2.66912 29.1892 2.66003 30.3158C2.65576 30.4054 2.65148 30.4949 2.64708 30.5872C2.63135 32.1946 3.40876 33.8201 4.07552 35.245C4.23502 35.5858 4.39168 35.928 4.5486 36.2701C4.63231 36.4525 4.71617 36.6348 4.80016 36.8172C5.24751 37.7893 5.67998 38.7678 6.11246 39.7466C6.81573 41.3377 7.52962 42.9228 8.26247 44.5004C8.92315 45.9244 9.56375 47.3573 10.2036 48.7907C10.4419 49.3244 10.6813 49.8576 10.9214 50.3906C11.8037 52.3504 12.6716 54.3162 13.5339 56.2849C14.2469 57.9125 14.9645 59.5379 15.697 61.1568C15.9749 61.7717 16.2511 62.3857 16.5042 63.0113C17.3918 65.1978 18.75 66.7936 20.9189 67.8075C23.7878 68.9837 26.186 68.026 28.8851 66.9545C29.1487 66.8504 29.4123 66.7465 29.6759 66.6426C30.239 66.4207 30.8019 66.1984 31.3647 65.9758C32.244 65.6285 33.1241 65.2835 34.0045 64.9389C37.9476 63.3951 41.8834 61.8336 45.8126 60.2547C46.5414 59.9619 47.2705 59.67 47.9996 59.3782C48.5623 59.1529 49.1247 58.927 49.687 58.701C49.9488 58.5958 50.2107 58.4909 50.4727 58.3862C55.4754 56.3861 55.4754 56.3861 56.6709 53.6631C57.5815 51.3088 57.2635 49.054 56.2771 46.7847C56.1183 46.4262 55.9559 46.0694 55.7929 45.7127C55.7053 45.5179 55.6178 45.3231 55.5304 45.1282C55.3534 44.734 55.1757 44.3402 54.9972 43.9467C54.77 43.4455 54.5458 42.9431 54.3226 42.4401C52.4459 38.2159 50.4781 34.033 48.5048 29.8533C47.5265 27.7809 46.561 25.7046 45.6291 23.6108C44.9001 21.9776 44.1409 20.3589 43.3754 18.7425C43.1336 18.2308 42.8981 17.7168 42.6667 17.2003C42.1099 15.9683 41.6028 14.8976 40.5668 13.9923C40.4778 13.9127 40.3888 13.833 40.2971 13.751C39.8119 13.3953 39.3059 13.17 38.756 12.9309C38.6421 12.8805 38.5282 12.8301 38.4108 12.7782C37.0871 12.1957 35.7545 11.6338 34.4211 11.0739C34.161 10.9644 33.9009 10.8549 33.6408 10.7454C33.0211 10.4846 32.4013 10.2243 31.7813 9.96411C31.5016 9.84668 31.2219 9.72913 30.9423 9.61148C29.4858 8.99902 28.0252 8.39742 26.5601 7.8059C26.4223 7.74989 26.2845 7.69388 26.1426 7.63617C25.9501 7.55897 25.9501 7.55897 25.7538 7.48022C25.6408 7.43469 25.5279 7.38916 25.4115 7.34224C23.5346 6.68216 21.6821 7.27122 19.886 7.87906C19.8377 7.72883 19.7894 7.5786 19.7396 7.42382C19.6588 7.18519 19.5775 6.94676 19.4958 6.70845C19.445 6.55704 19.3941 6.40564 19.3418 6.24965C18.5437 3.94843 17.3353 2.02329 15.7238 0.205031C15.6346 0.102587 15.5454 0.000142574 15.4535 -0.105406C14.1339 -1.51968 12.4176 -2.55483 10.6511 -3.30681C10.515 -3.366 10.3788 -3.42519 10.2385 -3.48617C8.27843 -4.18586 5.45065 -4.2514 3.62742 -3.17675Z" fill="#FE9542"/>
<path d="M4.16359 -1.26648C3.01093 -0.405686 2.37469 0.623127 2.06623 2.02588C1.81703 5.04421 2.64779 7.9197 4.57697 10.2992C4.97963 10.7673 5.4065 11.2097 5.83822 11.6509C5.92808 11.7473 6.01795 11.8438 6.11055 11.9431C6.76021 12.626 7.48716 13.2657 8.30951 13.732C8.77455 13.577 8.81165 13.4727 9.05741 13.0654C10.4783 10.8929 12.9723 10.2632 15.3332 9.50481C15.587 9.42197 15.8407 9.33898 16.0943 9.25585C16.7072 9.05532 17.3207 8.85678 17.9346 8.65936C17.8948 8.45253 17.8546 8.24578 17.8142 8.03906C17.7918 7.92392 17.7695 7.80877 17.7465 7.69014C17.2811 5.54906 15.9772 3.51476 14.5528 1.89581C14.4924 1.81684 14.4321 1.73787 14.3699 1.6565C12.2413 -1.10157 7.39935 -3.28952 4.16359 -1.26648Z" fill="#FDFAF5"/>
<path d="M7.91981 15.6833C7.79104 15.7263 7.66227 15.7692 7.5296 15.8134C7.37343 16.1424 7.37343 16.1424 7.21764 16.5943C7.17329 16.7203 7.17329 16.7203 7.12804 16.8488C7.06253 17.0352 6.9977 17.2218 6.93343 17.4086C6.7527 17.9335 6.56689 18.4566 6.38134 18.9798C6.3198 19.1538 6.3198 19.1538 6.257 19.3313C5.89439 20.3513 5.51578 21.365 5.1335 22.3778C5.10301 22.4587 5.07251 22.5395 5.04109 22.6228C4.76406 23.3573 4.48648 24.0915 4.20776 24.8253C4.03243 25.2871 3.85789 25.7492 3.68344 26.2113C3.63107 26.3484 3.5787 26.4855 3.52474 26.6267C3.06747 27.8407 2.64718 29.0319 2.65204 30.3404C2.64835 30.4282 2.64466 30.516 2.64086 30.6064C2.63507 32.2034 3.41323 33.8295 4.07566 35.2452C4.23516 35.586 4.39182 35.9282 4.54873 36.2702C4.63245 36.4527 4.7163 36.635 4.8003 36.8173C5.24764 37.7895 5.68012 38.768 6.11259 39.7468C6.81587 41.3378 7.52975 42.923 8.2626 44.5006C8.92328 45.9246 9.56388 47.3575 10.2037 48.7909C10.442 49.3246 10.6815 49.8578 10.9215 50.3908C11.8038 52.3506 12.6717 54.3164 13.5341 56.2851C14.2471 57.9127 14.9646 59.5381 15.6971 61.157C15.975 61.7718 16.2512 62.3859 16.5043 63.0115C17.3919 65.198 18.7502 66.7937 20.919 67.8077C22.7789 68.5702 24.6785 68.5855 26.5496 67.858C26.7585 67.7705 26.9647 67.6764 27.1699 67.5806C27.1699 67.5377 27.1699 67.4948 27.1699 67.4505C27.0581 67.4369 27.0581 67.4369 26.944 67.423C24.4999 67.1181 22.3258 66.7109 20.6096 64.7841C20.4961 64.6342 20.3851 64.4823 20.2763 64.3289C20.2037 64.2377 20.1311 64.1465 20.0563 64.0525C19.4715 63.2846 19.1209 62.4777 18.7825 61.5838C18.5983 61.1001 18.3852 60.6342 18.1627 60.1667C17.7936 59.3905 17.4461 58.6067 17.1059 57.8174C16.4919 56.3948 15.8613 54.9799 15.228 53.5658C15.1801 53.4588 15.1322 53.3518 15.0829 53.2416C14.2315 51.3399 14.2315 51.3399 13.8191 50.44C13.4473 49.6241 13.0991 48.7981 12.7486 47.9728C12.282 46.8781 11.8077 45.7896 11.297 44.7145C10.9245 43.925 10.5694 43.1276 10.2123 42.3311C10.1572 42.2082 10.1572 42.2082 10.1009 42.0829C9.57848 40.9168 9.06508 39.7471 8.56742 38.5702C8.23499 37.7852 7.88426 37.0094 7.5296 36.2341C6.28406 33.5568 6.28406 33.5568 5.31844 30.7713C5.27971 30.6357 5.27971 30.6357 5.2402 30.4974C4.85079 28.6458 5.55833 26.6468 6.11124 24.9016C6.23616 24.505 6.3581 24.1076 6.4794 23.71C6.94423 22.1872 7.41698 20.6673 7.90911 19.1531C7.94483 19.0422 7.98055 18.9314 8.01736 18.8172C8.04888 18.7202 8.0804 18.6232 8.11288 18.5233C8.17994 18.2847 8.17994 18.2847 8.17994 18.0246C8.28876 18.0828 8.39758 18.1409 8.50969 18.2009C9.63222 18.7839 10.7344 19.2358 11.9519 19.5854C12.0658 19.6191 12.1796 19.6528 12.2969 19.6875C13.2532 19.9156 14.2097 19.8269 15.1813 19.7522C15.296 19.7441 15.4107 19.736 15.5288 19.7277C15.6321 19.7192 15.7354 19.7107 15.8418 19.702C16.1544 19.6941 16.1544 19.6941 16.5043 19.9756C16.452 19.8549 16.452 19.8549 16.3986 19.7317C16.1859 19.1718 16.0214 18.5994 15.854 18.0246C15.723 18.0227 15.5921 18.0209 15.4572 18.019C12.9313 17.9481 10.4956 17.2222 8.33237 15.9033C8.19622 15.8307 8.06008 15.7581 7.91981 15.6833Z" fill="#EE7935"/>
<path d="M3.62702 -3.17675C3.52055 -3.11722 3.41408 -3.0577 3.30438 -2.99638C3.00402 -2.81274 2.73176 -2.61546 2.4564 -2.39634C2.32462 -2.29347 2.32462 -2.29347 2.19017 -2.18853C1.58021 -1.65068 1.21058 -1.03994 0.846804 -0.323371C0.781651 -0.19539 0.781651 -0.19539 0.715179 -0.0648224C-0.258757 1.96423 -0.162075 4.61539 0.546974 6.71696C0.57617 6.79999 0.605364 6.88303 0.635443 6.96858C0.681499 7.10169 0.681499 7.10169 0.728485 7.23748C1.45207 9.27061 2.52389 11.0043 4.01722 12.5615C4.14287 12.7152 4.26761 12.8696 4.39117 13.0249C6.25381 15.2039 9.13606 16.7062 11.834 17.5559C12.0478 17.6235 12.2601 17.6958 12.4722 17.7688C14.1478 18.2813 16.3573 18.3142 17.9345 17.5041C18.8973 16.9627 19.6056 16.1209 19.9343 15.0572C20.0156 14.6426 20.0156 14.6426 20.0156 14.1223C19.392 14.0455 18.8148 14.0066 18.1947 14.1223C17.8915 14.43 17.75 14.7034 17.5845 15.1004C17.3381 15.5675 17.0059 15.7269 16.519 15.9006C13.3836 16.3866 10.138 14.9484 7.64862 13.1421C4.981 11.1267 2.6708 8.15274 2.19626 4.75742C2.16413 4.29663 2.15223 3.83728 2.14749 3.37545C2.14568 3.2622 2.14386 3.14895 2.14199 3.03227C2.15256 1.5778 2.60478 0.412291 3.5696 -0.673438C4.33732 -1.40802 5.4397 -1.7868 6.48852 -1.87606C6.5752 -1.88428 6.66189 -1.89249 6.7512 -1.90096C9.15168 -2.02437 11.5004 -0.82302 13.2521 0.725305C13.3282 0.782982 13.4043 0.840659 13.4827 0.900084C15.8173 2.69756 17.0773 5.81482 17.9345 8.5294C18.5636 8.40058 19.1671 8.27486 19.7555 8.00913C19.3398 5.02778 17.6816 2.41442 15.7234 0.205031C15.6342 0.102587 15.545 0.000143051 15.4531 -0.105405C14.1335 -1.51968 12.4172 -2.55483 10.6507 -3.30681C10.5146 -3.366 10.3784 -3.42519 10.2381 -3.48617C8.27803 -4.18586 5.45025 -4.2514 3.62702 -3.17675Z" fill="#3B444C"/>
<path d="M31.072 34.4132C30.6106 34.6401 30.3445 34.9895 30.0477 35.405C29.5403 36.9272 30.0964 38.6157 30.7776 40.0051C31.3045 41.0165 31.9177 41.9501 32.958 42.4856C33.5079 42.6329 33.9116 42.6549 34.4538 42.4775C35.0494 42.1066 35.3579 41.7333 35.5629 41.0752C35.9459 39.2773 35.0831 37.4965 34.1936 35.974C33.4192 34.8665 32.484 34.1453 31.072 34.4132Z" fill="#FC9742"/>
<path d="M21.837 38.0551C21.1734 38.4056 20.7739 38.7732 20.5363 39.4858C20.366 41.4018 20.9637 43.3229 22.1581 44.8349C23.2201 46.058 23.2201 46.058 23.9374 46.1584C24.589 46.1618 25.0629 46.1228 25.609 45.7291C26.1892 44.9424 26.3337 44.2084 26.2593 43.2578C26.179 42.8609 26.0597 42.4853 25.926 42.1034C25.8913 42.002 25.8567 41.9005 25.8209 41.7959C25.517 40.9468 25.1136 40.2064 24.5684 39.4858C24.4849 39.3748 24.4014 39.2638 24.3154 39.1495C23.6373 38.3527 22.8891 37.8826 21.837 38.0551Z" fill="#FC9642"/>
<path d="M20.0161 14.2524C19.9875 14.353 19.959 14.4536 19.9297 14.5573C19.564 15.7585 19.1198 16.7162 18 17.3614C17.312 17.6634 16.5808 17.8417 15.8539 18.0244C15.983 19.1113 16.3026 19.821 17.1114 20.5653C17.8802 21.1688 18.7527 21.3434 19.7178 21.3168C20.6433 21.1906 21.4856 20.6712 22.0971 19.9754C22.7773 18.9045 22.9361 17.7435 22.6723 16.4992C22.3395 15.522 21.6684 14.8796 20.7924 14.3541C20.5363 14.2524 20.5363 14.2524 20.0161 14.2524Z" fill="#FDFAF4"/>
<path d="M29.1391 27.1604C31.6428 27.0363 33.1852 27.1226 35.3177 28.6237C34.2933 30.4158 34.2933 30.4158 33.2482 32.2441C32.4691 32.1416 31.69 32.0391 30.9108 31.9365C29.7671 31.8562 29.3322 32.1161 28.4133 32.8102C27.3461 34.0397 27.1316 35.0053 26.9222 36.6042C27.1038 36.7953 27.2854 36.9864 27.4726 37.1832C29.1686 36.4803 30.8646 35.7774 32.612 35.0532C33.0614 35.7172 33.5107 36.3813 33.9737 37.0654C31.8455 38.4049 29.6834 39.5477 27.3867 40.5714C27.5589 41.1351 27.7311 41.6989 27.9085 42.2798C28.1165 42.1488 28.3245 42.0179 28.5388 41.883C28.8163 41.7115 29.0938 41.5401 29.3796 41.3635C29.6527 41.1934 29.9258 41.0233 30.2072 40.8481C31.0528 40.3883 31.8451 40.1074 32.7727 39.8603C33.2221 40.5243 33.6714 41.1883 34.1344 41.8724C33.4901 42.2214 32.8455 42.5699 32.2008 42.9182C31.8419 43.1124 31.483 43.3065 31.1132 43.5065C30.4119 43.8785 29.6995 44.2302 28.9806 44.5671C30.3131 45.9033 31.3121 46.8011 33.1867 47.2164C35.0953 46.8751 35.6211 46.2223 36.8863 44.7674C37.3233 44.0793 37.3233 44.0793 37.7691 43.3772C38.8825 43.5919 39.9959 43.8065 41.143 44.0277C41.1993 46.0935 40.8249 47.4378 39.5342 49.068C37.6192 50.9802 36.0573 51.9584 33.3122 52.0226C30.1623 51.768 28.6823 50.709 26.5348 48.4076C26.1898 48.0394 25.8448 47.6712 25.4893 47.2918C25.2273 47.0095 24.9653 46.7271 24.6954 46.4362C23.7064 46.8307 23.7064 46.8307 22.6975 47.2332C22.3437 46.4784 21.9899 45.7235 21.6253 44.9458C22.1986 44.4009 22.7718 43.8561 23.3623 43.2947C23.1854 42.9173 23.0085 42.5398 22.8263 42.151C22.2578 42.5095 21.6893 42.868 21.1036 43.2374C20.0497 41.6215 20.0497 41.6215 19.7562 40.6606C20.1277 40.4893 20.4991 40.3181 20.8818 40.1417C21.5613 39.7112 21.5613 39.7112 22.0579 39.0237C22.2536 37.9698 22.2536 37.9698 22.2735 36.7866C22.4625 32.2595 24.6558 28.493 29.1391 27.1604Z" fill="#364454"/>
<path d="M8.82988 16.3335C8.74487 16.4928 8.66111 16.6529 8.57787 16.8131C8.5077 16.9467 8.5077 16.9467 8.43611 17.0829C8.30038 17.3953 8.23529 17.6893 8.17953 18.0244C9.40902 18.6818 10.6102 19.2 11.9515 19.5852C12.0654 19.6189 12.1792 19.6526 12.2965 19.6873C13.2528 19.9154 14.2092 19.8267 15.1809 19.752C15.2956 19.7439 15.4103 19.7358 15.5284 19.7275C15.6833 19.7148 15.6833 19.7148 15.8414 19.7018C16.154 19.6939 16.154 19.6939 16.5039 19.9754C16.469 19.8949 16.4342 19.8144 16.3982 19.7315C16.1854 19.1716 16.021 18.5992 15.8536 18.0244C15.7226 18.0225 15.5917 18.0207 15.4568 18.0188C13.3182 17.9585 11.4135 17.4179 9.48377 16.5098C9.09001 16.3335 9.09001 16.3335 8.82988 16.3335Z" fill="#F58738"/>
<path d="M16.7646 14.7727C16.2657 15.0054 16.2657 15.0054 16.0737 15.2523C15.837 15.4762 15.837 15.4762 15.3745 15.3824C15.2324 15.3529 15.0902 15.3234 14.9437 15.293C14.9008 15.3788 14.8578 15.4647 14.8136 15.5531C14.7224 15.5129 14.6312 15.4726 14.5372 15.4312C14.0194 15.2398 13.5804 15.1216 13.0333 15.2361C12.6982 15.3358 12.6982 15.3358 12.3423 15.0328C12.1686 15.0748 11.9952 15.1184 11.8221 15.1629C11.5607 15.1277 11.3 15.0857 11.0416 15.0328C11.4022 15.3934 11.8254 15.4816 12.3017 15.6263C12.3921 15.655 12.4826 15.6838 12.5758 15.7134C13.495 15.9975 14.3619 16.09 15.3258 16.0815C15.4147 16.0809 15.5037 16.0803 15.5953 16.0797C15.8117 16.0782 16.028 16.0759 16.2444 16.0734C16.2015 15.9875 16.1585 15.9017 16.1143 15.8133C16.2436 15.5493 16.2436 15.5493 16.4313 15.2767C16.4929 15.1825 16.5544 15.0883 16.6178 14.9912C16.6663 14.9191 16.7147 14.847 16.7646 14.7727Z" fill="#F58E3B"/>
<path d="M18.0645 14.2524C17.3406 14.4117 16.9117 14.6247 16.3736 15.1629C16.1297 15.5938 16.1297 15.5938 15.9834 15.9433C16.4668 15.9894 16.7314 15.9595 17.1702 15.7401C17.6217 15.3573 17.8088 15.0434 18.0645 14.5126C18.0645 14.4267 18.0645 14.3409 18.0645 14.2524Z" fill="#F6F4EF"/>
<path d="M25.0888 67.3203C25.0168 67.5903 24.9588 67.8203 24.9588 68.1007C24.7871 68.1437 24.6154 68.1866 24.4385 68.2308C25.4554 68.3305 26.2438 67.9758 27.1699 67.5805C27.1699 67.5375 27.1699 67.4946 27.1699 67.4504C26.4742 67.3734 25.79 67.3019 25.0888 67.3203Z" fill="#F0742B"/>
<path d="M34.2868 11.2471C34.1761 11.3183 34.1761 11.3183 34.0633 11.3909C34.5108 11.6893 34.6776 11.7811 35.2339 11.7811C35.2768 11.867 35.3197 11.9528 35.3639 12.0413C35.6644 12.0413 35.9649 12.0413 36.2744 12.0413C35.9359 11.7469 35.5701 11.5453 35.1688 11.3503C35.0709 11.3025 34.973 11.2547 34.8721 11.2055C34.5835 11.1308 34.5835 11.1308 34.2868 11.2471Z" fill="#FC8C34"/>
<path d="M23.5358 7.07444C23.3736 7.07259 23.2115 7.07075 23.0444 7.06885C22.6171 7.09882 22.6171 7.09882 22.2269 7.35896C23.4502 7.42334 23.4502 7.42334 24.6982 7.48903C24.6982 7.40318 24.6982 7.31734 24.6982 7.22889C24.3138 7.03666 23.9634 7.07664 23.5358 7.07444Z" fill="#FD872F"/>
<path d="M20.0161 14.2524C19.7002 15.2187 19.7002 15.2187 19.886 15.6832C20.0495 15.3052 20.1462 15.0594 20.1462 14.6426C20.4466 14.6856 20.7471 14.7285 21.0566 14.7727C21.0566 14.6869 21.0566 14.601 21.0566 14.5126C20.655 14.2831 20.506 14.2524 20.0161 14.2524Z" fill="#F1EDE7"/>
<path d="M16.7646 14.7727C16.4699 14.9048 16.2744 14.9943 16.0737 15.2523C15.837 15.4762 15.837 15.4762 15.3745 15.3824C15.2324 15.3529 15.0902 15.3234 14.9437 15.293C15.2242 15.5735 15.5122 15.7453 15.8542 15.9433C16.2391 15.585 16.5093 15.2323 16.7646 14.7727Z" fill="#F9822C"/>
<path d="M20.7969 36.364C20.2594 36.5488 19.8107 36.8229 19.3361 37.1287C19.1057 37.2801 19.1057 37.2801 18.8459 37.4046C18.9746 37.5333 19.1034 37.6621 19.2361 37.7948C19.279 37.666 19.3219 37.5372 19.3661 37.4046C19.5368 37.3126 19.7112 37.2274 19.8864 37.1444C20.1981 36.939 20.5062 36.7285 20.7969 36.4941C20.7969 36.4512 20.7969 36.4082 20.7969 36.364Z" fill="#EC9C41"/>
<path d="M24.959 67.9707C24.5727 67.9707 24.1864 67.9707 23.7884 67.9707C23.7884 68.0565 23.7884 68.1424 23.7884 68.2308C23.4879 68.2308 23.1875 68.2308 22.8779 68.2308C22.8779 68.2738 22.8779 68.3167 22.8779 68.3609C23.5217 68.3609 24.1656 68.3609 24.8289 68.3609C24.8718 68.2321 24.9148 68.1034 24.959 67.9707Z" fill="#ED8141"/>
<path d="M21.9668 15.293C21.881 15.3359 21.7952 15.3788 21.7067 15.423C21.7952 15.5639 21.7952 15.5639 21.8856 15.7076C22.078 16.0407 22.2234 16.3638 22.3571 16.7237C22.4429 16.7237 22.5287 16.7237 22.6172 16.7237C22.5481 16.1365 22.3094 15.7682 21.9668 15.293Z" fill="#FCF4EA"/>
</g>
<defs>
<linearGradient id="paint0_linear_262_2714" x1="95.7508" y1="28.2" x2="172.472" y2="109.445" gradientUnits="userSpaceOnUse">
<stop stop-color="#F2C89E"/>
<stop offset="1" stop-color="#F6E1CC"/>
</linearGradient>
<linearGradient id="paint1_linear_262_2714" x1="129.351" y1="15.1332" x2="103.364" y2="118.851" gradientUnits="userSpaceOnUse">
<stop stop-color="#F0AE95"/>
<stop offset="1" stop-color="#FFD3BE"/>
</linearGradient>
<clipPath id="clip0_262_2714">
<rect width="120" height="80" rx="8" fill="white"/>
</clipPath>
</defs>
</svg>
