<svg width="92" height="92" viewBox="0 0 92 92" fill="none" xmlns="http://www.w3.org/2000/svg">
<g clip-path="url(#clip0_262_1324)">
<path d="M0 28C0 12.536 12.536 0 28 0H64C79.464 0 92 12.536 92 28V88C92 90.2091 90.2091 92 88 92H4C1.79086 92 0 90.2091 0 88V28Z" fill="#E4EBFE"/>
<path d="M44.4199 14.2028C45.3432 11.8358 48.4486 11.2929 50.1202 13.2064L102.212 91.9931C103.913 93.9397 102.891 96.997 100.362 97.5301L4.65235 97.4898C2.0206 98.0444 -0.174943 95.4551 0.802421 92.9494L44.4199 14.2028Z" fill="#12C66F"/>
<path d="M81.824 42.825L81.808 45.9938L81.8068 45.9937L81.8068 46.0114C81.7801 51.3504 77.4302 55.6569 72.0912 55.6301L63.0174 55.5846C57.6784 55.5579 53.372 51.208 53.3987 45.869L53.3986 45.8513L41.8118 45.7932C41.4956 50.8696 37.2659 54.8765 32.1153 54.8507L25.3764 54.8169C20.2259 54.7911 16.0364 50.742 15.7712 45.6628L15.7636 45.6628L15.7643 45.5091C15.7594 45.3738 15.7571 45.2379 15.7578 45.1013L15.7633 44.0186L15.7717 44.0185L15.7794 42.494L81.824 42.825Z" fill="#022B17"/>
<path d="M48.1803 47.636C50.1754 47.4689 51.9284 48.9508 52.0956 50.946C52.2627 52.9411 50.7809 54.694 48.7858 54.8613L46.3774 55.0631C44.3823 55.2303 42.6292 53.7485 42.4619 51.7533C42.2947 49.7582 43.7767 48.0051 45.7719 47.8379L48.1803 47.636Z" fill="#FE8253"/>
<path d="M55.2974 60.0288C55.9317 59.1078 57.0441 58.4791 58.1134 58.8062C59.1827 59.1334 59.8016 60.2821 59.2464 61.2528C58.5896 62.4009 57.6776 63.4248 56.545 64.2762C54.8327 65.5632 52.6758 66.4112 50.2888 66.7356C47.9018 67.0601 45.3676 66.8499 42.9381 66.1258C41.1905 65.6049 39.5408 64.8312 38.0719 63.8495C37.1913 63.261 37.2272 62.0036 38.0673 61.3586C38.6967 60.8754 39.5729 60.9115 40.2284 61.3586C41.3121 62.0978 42.5362 62.6787 43.8353 63.0659C45.5876 63.5881 47.4153 63.7398 49.137 63.5058C50.8587 63.2717 52.4144 62.6601 53.6495 61.7318C54.3058 61.2384 54.8595 60.6647 55.2974 60.0288Z" fill="#004E28"/>
</g>
<defs>
<clipPath id="clip0_262_1324">
<path d="M0 28C0 12.536 12.536 0 28 0H64C79.464 0 92 12.536 92 28V88C92 90.2091 90.2091 92 88 92H4C1.79086 92 0 90.2091 0 88V28Z" fill="white"/>
</clipPath>
</defs>
</svg>
