<svg width="120" height="80" viewBox="0 0 120 80" fill="none" xmlns="http://www.w3.org/2000/svg">
<g clip-path="url(#clip0_262_2068)">
<path d="M64.6215 7.92736C65.1055 8.37553 65.5507 8.85603 65.9782 9.35786C66.4907 9.94402 67.0451 10.4888 67.5959 11.0386C67.7168 11.1596 67.8376 11.2806 67.9585 11.4017C68.2848 11.7284 68.6113 12.0549 68.938 12.3812C69.281 12.7239 69.6237 13.0669 69.9665 13.4098C70.542 13.9855 71.1177 14.5609 71.6935 15.1363C72.3578 15.8 73.0217 16.4641 73.6854 17.1284C74.2568 17.7003 74.8285 18.272 75.4003 18.8435C75.7411 19.1842 76.0818 19.5249 76.4224 19.8658C76.7427 20.1864 77.0633 20.5067 77.384 20.8269C77.5012 20.9439 77.6183 21.0611 77.7353 21.1783C78.2863 21.7303 78.8373 22.2772 79.4319 22.7829C79.6682 22.9856 79.8882 23.2028 80.1079 23.4232C80.1866 23.5016 80.2653 23.5801 80.3464 23.6609C80.5491 23.8739 80.7417 24.0891 80.9331 24.3119C81.3758 24.8214 81.8515 25.2959 82.3296 25.7719C82.4165 25.8591 82.5034 25.9464 82.5928 26.0363C82.9734 26.4163 83.3539 26.7888 83.7646 27.1362C84.1502 27.4674 84.478 27.8357 84.8139 28.2164C85.2968 28.7487 85.8085 29.253 86.3175 29.7602C86.5068 29.949 86.6955 30.1383 86.8843 30.3277C87.434 30.8777 87.9828 31.4221 88.5751 31.9266C89.3278 32.5682 89.9501 33.3216 90.5625 34.0936C90.6586 34.2081 90.6586 34.2081 90.7565 34.3249C91.9655 35.7943 92.3521 37.4096 92.1875 39.2733C92.0275 40.4372 91.5246 41.524 90.7657 42.4218C90.6986 42.4218 90.6316 42.4218 90.5625 42.4218C90.5218 42.512 90.5218 42.512 90.4802 42.6041C90.3576 42.8313 90.2333 42.9794 90.0513 43.1613C89.9881 43.2249 89.9249 43.2885 89.8598 43.3541C89.7905 43.4227 89.7213 43.4914 89.65 43.5621C89.577 43.6353 89.504 43.7085 89.4287 43.7839C89.1869 44.0261 88.9444 44.2675 88.7019 44.5089C88.5333 44.6774 88.3647 44.8459 88.1962 45.0144C87.8426 45.368 87.4886 45.7211 87.1343 46.074C86.6816 46.525 86.2297 46.9765 85.7779 47.4284C85.4296 47.7767 85.081 48.1247 84.7323 48.4726C84.5657 48.639 84.3991 48.8053 84.2326 48.9718C83.9988 49.2053 83.7647 49.4386 83.5305 49.6717C83.4625 49.7397 83.3945 49.8078 83.3245 49.8779C82.9312 50.2685 82.5271 50.6408 82.1068 51.0021C81.8643 51.213 81.6362 51.4365 81.4088 51.6636C81.3184 51.7538 81.228 51.8441 81.1349 51.9371C81.0432 52.0292 80.9515 52.1213 80.857 52.2162C80.7649 52.3079 80.6728 52.3996 80.5779 52.4941C80.4876 52.5845 80.3973 52.6749 80.3043 52.768C80.2239 52.8486 80.1434 52.9292 80.0605 53.0122C79.8546 53.2284 79.6585 53.4471 79.4637 53.673C79.0689 54.1273 78.6491 54.553 78.2231 54.9778C78.1024 55.0987 78.1024 55.0987 77.9792 55.222C77.8101 55.3912 77.6408 55.5603 77.4715 55.7292C77.2141 55.986 76.9574 56.2433 76.7006 56.5007C76.5353 56.6659 76.3699 56.8312 76.2045 56.9964C76.1288 57.0724 76.053 57.1483 75.9749 57.2266C75.5647 57.635 75.1449 58.0243 74.7066 58.4023C74.4119 58.6614 74.1347 58.9366 73.8579 59.2145C73.7996 59.2727 73.7413 59.3308 73.6813 59.3908C73.5595 59.5125 73.4378 59.6344 73.3162 59.7564C73.1319 59.9412 72.947 60.1256 72.7621 60.3099C72.6428 60.4292 72.5235 60.5487 72.4043 60.6681C72.35 60.7222 72.2957 60.7763 72.2398 60.832C71.9733 61.1001 71.721 61.3723 71.4801 61.6637C71.2055 61.9889 70.9028 62.2578 70.5794 62.5335C70.1147 62.943 69.6833 63.3881 69.2459 63.8265C69.1413 63.931 69.0366 64.0356 68.932 64.1401C68.7141 64.3579 68.4964 64.5758 68.2788 64.7939C68.0012 65.072 67.7231 65.3498 67.4449 65.6274C67.2292 65.8426 67.0138 66.0582 66.7985 66.2738C66.6961 66.3763 66.5936 66.4787 66.491 66.581C65.9939 67.0772 65.5142 67.5728 65.0703 68.1171C64.2967 68.7495 63.479 69.2176 62.5313 69.539C62.4603 69.5638 62.3894 69.5887 62.3163 69.6143C60.8698 70.0252 59.1294 69.7907 57.8086 69.1327C56.7922 68.5496 55.953 67.7819 55.1894 66.8991C54.8094 66.4686 54.3994 66.0665 53.9937 65.6605C53.9169 65.5833 53.8401 65.506 53.7609 65.4264C53.6857 65.3514 53.6106 65.2764 53.5331 65.1991C53.4666 65.1327 53.4001 65.0663 53.3315 64.9979C53.1286 64.8059 52.9223 64.6232 52.7107 64.441C52.23 64.0227 51.7804 63.5761 51.3304 63.125C51.2431 63.0378 51.1558 62.9506 51.0658 62.8607C50.8823 62.6772 50.6988 62.4936 50.5155 62.3099C50.2367 62.0305 49.9573 61.7517 49.6779 61.4729C49.4987 61.2936 49.3196 61.1144 49.1405 60.9351C49.0165 60.8114 49.0165 60.8114 48.8901 60.6853C48.4639 60.2574 48.0553 59.8214 47.6613 59.3639C47.4264 59.0954 47.1781 58.8445 46.926 58.592C46.8748 58.5408 46.8236 58.4895 46.7709 58.4367C46.6639 58.3296 46.5568 58.2227 46.4496 58.1159C46.2879 57.9548 46.1268 57.7931 45.9657 57.6313C45.477 57.1424 44.9837 56.6658 44.4581 56.2162C44.0468 55.8505 43.6614 55.4574 43.2732 55.0675C43.1267 54.9205 42.9798 54.7741 42.8327 54.6277C42.7369 54.5318 42.6411 54.4359 42.5453 54.3399C42.4606 54.2551 42.3759 54.1702 42.2886 54.0828C42.0873 53.8719 41.8979 53.6603 41.7091 53.4388C41.2472 52.9097 40.7485 52.4193 40.2487 51.9263C40.1438 51.8225 40.0389 51.7186 39.9341 51.6147C39.7097 51.3924 39.4852 51.1702 39.2606 50.9481C38.9045 50.5957 38.549 50.2427 38.1937 49.8895C38.1033 49.7997 38.1033 49.7997 38.0111 49.7081C37.888 49.5857 37.7649 49.4634 37.6418 49.341C36.8157 48.52 35.9893 47.6995 35.1609 46.8808C34.6004 46.3269 34.0411 45.7719 33.4829 45.2157C33.1884 44.9223 32.8934 44.6294 32.597 44.3379C32.3178 44.0633 32.0401 43.7872 31.7635 43.5101C31.6626 43.4096 31.5613 43.3096 31.4594 43.2102C30.3387 42.1161 29.3536 40.6698 29.2664 39.0615C29.2647 38.8486 29.2658 38.6356 29.2696 38.4227C29.2707 38.3112 29.2719 38.1996 29.2731 38.0847C29.2927 37.263 29.3864 36.5756 29.7266 35.8202C29.7622 35.7329 29.7978 35.6456 29.8345 35.5556C30.6126 33.813 32.4203 32.1557 33.8557 30.9293C34.3298 30.5163 34.774 30.0768 35.2173 29.6312C35.2949 29.5541 35.3725 29.4769 35.4524 29.3974C35.8006 29.0486 36.141 28.6982 36.4615 28.3236C36.9106 27.8023 37.3992 27.3199 37.8864 26.8347C38.0481 26.6735 38.2092 26.5118 38.3703 26.3501C38.8694 25.8508 39.3728 25.3624 39.9096 24.9032C40.1858 24.6631 40.4443 24.4067 40.7017 24.1469C40.7541 24.0943 40.8065 24.0416 40.8605 23.9874C41.2026 23.6415 41.5266 23.2845 41.8427 22.9146C42.2853 22.4131 42.7623 21.9462 43.272 21.5136C43.8834 20.9794 44.4482 20.3977 45.0194 19.8215C45.1468 19.6935 45.2742 19.5654 45.4016 19.4374C45.6746 19.163 45.9475 18.8885 46.2203 18.6138C46.6525 18.1789 47.0852 17.7445 47.518 17.3102C47.6666 17.1611 47.8152 17.0119 47.9638 16.8628C48.0381 16.7882 48.1125 16.7135 48.1892 16.6366C49.1956 15.6265 50.2016 14.6159 51.2065 13.6042C51.8859 12.9203 52.566 12.2372 53.247 11.5548C53.6066 11.1944 53.9658 10.8336 54.3241 10.4719C54.6613 10.1315 54.9994 9.79217 55.3383 9.45351C55.4618 9.32969 55.585 9.20553 55.7078 9.08099C58.0738 6.68306 61.7706 5.46929 64.6215 7.92736Z" fill="#FA914C"/>
<path d="M19.7738 44.7579C20.5983 45.1916 21.3451 45.7409 22.0971 46.2877C22.178 46.3463 22.2589 46.405 22.3423 46.4654C22.8499 46.8412 23.3021 47.2431 23.7347 47.7032C23.7546 47.6112 23.7745 47.5192 23.7951 47.4243C24.0275 46.4776 24.327 45.7544 25.1892 45.2217C25.9148 44.8846 26.697 44.8154 27.466 45.0436C28.3775 45.4419 28.8302 46.1233 29.1937 47.024C29.5832 48.073 29.7747 49.1534 29.9319 50.2573C30.4789 54.0473 31.4984 58.1526 33.2626 61.58C33.3832 61.8204 33.3832 61.8204 33.3832 62.0235C33.5839 61.8742 33.7841 61.7243 33.9838 61.5737C34.1403 61.4558 34.2979 61.3394 34.4559 61.2237C34.7269 60.9876 34.9493 60.733 35.1824 60.46C35.4889 60.1105 35.8071 59.7725 36.1254 59.4337C36.5477 58.9834 36.9659 58.5317 37.3683 58.0634C37.5577 57.8476 37.7522 57.6369 37.9473 57.4264C38.3605 56.9807 38.7597 56.531 39.1405 56.0567C39.4713 55.6458 39.819 55.2717 40.197 54.9043C40.7037 54.3996 41.155 53.8404 41.6097 53.2892C41.9312 53.6103 42.252 53.9321 42.5723 54.2544C42.809 54.4924 43.0459 54.7301 43.2828 54.9678C43.4069 55.0924 43.5309 55.2171 43.6548 55.3418C44.5352 56.2287 44.5352 56.2287 45.4636 57.0643C45.9608 57.5071 46.4223 57.99 46.891 58.4625C46.9998 58.5718 47.1086 58.6811 47.2175 58.7904C47.4813 59.0553 47.7449 59.3206 48.0082 59.586C47.9412 59.6196 47.8741 59.6531 47.8051 59.6876C47.7769 59.7461 47.7488 59.8046 47.7198 59.8649C47.5677 60.1604 47.3662 60.3661 47.1386 60.608C46.7121 61.0672 46.3112 61.541 45.9174 62.0287C45.5865 62.433 45.2452 62.828 44.9037 63.2234C44.6023 63.5734 44.3093 63.9281 44.0219 64.2897C43.0126 65.5257 41.8691 66.651 40.7475 67.7841C40.6345 67.8985 40.5217 68.013 40.4093 68.1279C38.3998 70.1761 35.9852 71.8131 33.0214 71.9005C30.6841 71.8712 28.6286 70.8753 26.9982 69.2484C24.2419 66.2825 22.8743 61.6572 21.7551 57.8627C21.7041 57.6923 21.653 57.522 21.6019 57.3517C21.5778 57.2681 21.5537 57.1845 21.5288 57.0984C21.3874 56.6343 21.2553 56.318 20.891 55.9806C20.8097 55.9048 20.7284 55.829 20.6446 55.7509C20.2934 55.4454 19.9359 55.1493 19.5727 54.8582C19.1652 54.5277 18.7689 54.1851 18.3722 53.8419C18.0103 53.5299 17.642 53.2294 17.2665 52.9337C15.9632 51.8715 14.8009 50.4933 14.1879 48.922C14.1439 48.8214 14.0999 48.7209 14.0546 48.6173C13.7989 47.5016 14.0811 46.4492 14.6639 45.4816C15.8464 43.828 18.1221 43.947 19.7738 44.7579Z" fill="#F2D4B7"/>
<path d="M105.858 44.5178C106.485 44.8744 106.805 45.2445 107.098 45.8877C107.128 45.9506 107.159 46.0136 107.19 46.0785C107.597 46.933 107.722 47.9122 107.461 48.8375C107.064 49.8937 106.378 50.6738 105.594 51.4609C105.47 51.6015 105.347 51.7431 105.226 51.8862C104.595 52.6095 103.914 53.2461 103.165 53.8457C102.73 54.2005 102.309 54.5702 101.887 54.9406C101.447 55.3246 100.996 55.6845 100.521 56.0237C99.8901 56.6616 99.7127 57.6285 99.4621 58.4648C96.4509 68.4671 96.4509 68.4671 92.5938 70.7578C90.5814 71.7891 88.2908 72.24 86.1018 71.5417C83.7126 70.716 81.9792 68.9828 80.2222 67.2348C80.1312 67.1443 80.0401 67.0538 79.9464 66.9605C79.4353 66.4482 78.9474 65.9242 78.4766 65.375C78.3288 65.2117 78.1808 65.0487 78.0322 64.8862C77.639 64.4505 77.2664 64.0014 76.8972 63.5453C76.6161 63.2028 76.3284 62.8667 76.0391 62.5312C75.5211 61.9299 75.0156 61.3195 74.5156 60.7031C74.3444 60.4935 74.1729 60.2841 74.0015 60.0747C73.8682 59.9118 73.7349 59.7488 73.6016 59.5859C73.7708 59.1458 74.0967 58.8615 74.4268 58.5386C74.5096 58.4558 74.5096 58.4558 74.5942 58.3713C74.887 58.0816 75.1863 57.8041 75.4993 57.5363C75.9556 57.1384 76.3831 56.7157 76.8095 56.2863C76.889 56.2067 76.9686 56.127 77.0505 56.0449C77.3018 55.793 77.5528 55.5408 77.8037 55.2886C77.9744 55.1173 78.1451 54.9462 78.3159 54.775C78.6895 54.4004 79.0628 54.0256 79.436 53.6506C79.5561 53.5299 79.6765 53.4095 79.7969 53.289C80.3636 53.8466 80.9257 54.4021 81.4421 55.0073C81.6629 55.2626 81.8915 55.51 82.1201 55.7583C82.4635 56.134 82.7916 56.5168 83.1104 56.9136C83.4439 57.327 83.7942 57.7039 84.1748 58.074C84.4277 58.3259 84.6594 58.5932 84.8925 58.8635C85.2524 59.2795 85.6227 59.6861 85.9922 60.0937C86.0422 60.1496 86.0922 60.2054 86.1438 60.2629C86.3042 60.442 86.4655 60.6202 86.627 60.7983C86.6773 60.8548 86.7276 60.9112 86.7794 60.9694C87.1737 61.4019 87.5408 61.7121 88.125 61.8203C89.8765 58.0776 91.2036 54.0228 91.7393 49.9207C91.9538 48.3184 92.2709 46.544 93.5249 45.4049C94.0983 44.9757 94.7142 44.8918 95.4208 44.9133C96.0913 45.0126 96.6848 45.2893 97.1621 45.775C97.5647 46.3277 97.7339 46.9394 97.875 47.6015C97.9553 47.5181 97.9553 47.5181 98.0373 47.4329C99.3201 46.1826 100.967 45.0821 102.648 44.4531C102.743 44.4158 102.838 44.3785 102.936 44.34C103.873 44.078 104.96 44.165 105.858 44.5178Z" fill="#F2D4B7"/>
<path d="M67.6395 49.7313C69.1851 51.0211 69.1851 51.0211 69.2784 51.8609C69.2595 52.2973 69.1155 52.5497 68.8277 52.8829C68.4995 53.16 68.2953 53.2779 67.8693 53.3399C67.2334 53.2506 66.86 52.9489 66.4093 52.521C64.5009 50.7849 62.3123 50.2278 59.785 50.3208C59.0968 50.3734 58.4899 50.5826 57.859 50.8516C57.6954 50.9213 57.6954 50.9213 57.5285 50.9924C56.4872 51.4779 55.6105 52.1888 54.73 52.917C54.3208 53.2277 54.0198 53.3353 53.4946 53.3216C53.0614 53.2532 52.776 52.9929 52.4952 52.6734C52.2476 52.2693 52.2122 51.9254 52.2731 51.461C52.4729 51.1534 52.7246 50.9064 52.984 50.6485C53.055 50.5727 53.1259 50.4969 53.199 50.4188C57.0044 46.4305 63.4539 46.3419 67.6395 49.7313Z" fill="#71300F"/>
<path d="M63.8678 38.7247C64.547 39.282 65.0087 39.9214 65.1719 40.7968C65.2602 41.8326 65.0552 42.6673 64.4526 43.5184C63.6236 44.4707 62.4265 44.9969 61.1792 45.0867C59.6854 45.1167 58.5314 44.7613 57.4273 43.7318C56.7707 43.0473 56.4258 42.3603 56.3867 41.4062C56.4291 40.402 56.8086 39.7205 57.4987 39.002C59.2951 37.3624 61.9222 37.2857 63.8678 38.7247Z" fill="#1A52A1"/>
<path d="M56.3364 30.8438C56.83 31.0771 57.1082 31.3717 57.3521 31.8594C57.4599 32.5783 57.2315 33.0844 56.8442 33.6876C55.8794 34.9732 53.9289 35.772 52.3711 35.9985C50.5356 36.1513 48.5554 36.0165 47.0859 34.7889C46.6565 34.3761 46.4642 33.986 46.4277 33.3829C46.4503 32.8545 46.6225 32.5343 46.9927 32.1641C47.3647 31.8346 47.7388 31.791 48.2217 31.8019C48.7147 31.8983 49.1159 32.1498 49.5436 32.405C50.3968 32.887 51.6881 32.7822 52.6238 32.6061C53.2817 32.3868 53.7874 32.0072 54.3052 31.5548C54.3736 31.4961 54.4421 31.4375 54.5127 31.377C54.6335 31.2734 54.7537 31.169 54.8729 31.0636C55.2875 30.7214 55.8277 30.7927 56.3364 30.8438Z" fill="#70300F"/>
<path d="M66.0858 30.8437C66.4009 30.9982 66.6155 31.175 66.8693 31.4138C67.9613 32.4209 69.0423 32.7223 70.4899 32.7008C71.2471 32.6701 71.9166 32.4428 72.5541 32.0371C72.9869 31.8084 73.3245 31.7726 73.8046 31.8593C74.141 32.0307 74.141 32.0307 74.4139 32.2656C74.5333 32.3661 74.5333 32.3661 74.6551 32.4687C74.9212 32.9599 74.8914 33.4467 74.8202 33.9922C74.5437 34.6143 74.0222 35.0361 73.3984 35.2953C71.4003 36.0481 69.3096 36.2572 67.3046 35.414C67.2359 35.3857 67.1673 35.3574 67.0967 35.3282C65.9979 34.862 64.9136 34.232 64.2787 33.1836C64.077 32.6758 64.0759 32.1933 64.1561 31.6562C64.5662 30.8361 65.2563 30.7493 66.0858 30.8437Z" fill="#70300F"/>
<path d="M42.625 22.1094C42.692 22.1429 42.7591 22.1764 42.8281 22.2109C42.7525 22.2848 42.7525 22.2848 42.6754 22.3601C42.2452 22.7846 41.8418 23.2169 41.4614 23.6868C41.3047 23.8359 41.3047 23.8359 41 23.8359C41.1946 23.6243 41.3892 23.4127 41.584 23.2012C41.6387 23.1416 41.6934 23.082 41.7498 23.0207C42.0356 22.7105 42.3237 22.4048 42.625 22.1094Z" fill="#FB8539"/>
<path d="M56.9453 43.2344C57.3319 43.5601 57.7117 43.8851 58.0625 44.25C57.7712 44.2414 57.5997 44.1904 57.3853 43.9905C56.9453 43.4868 56.9453 43.4868 56.9453 43.2344Z" fill="#E9923F"/>
<path d="M64.2578 43.6406C64.3248 43.7412 64.3919 43.8417 64.4609 43.9453C64.2934 43.9788 64.1258 44.0123 63.9531 44.0469C63.9196 44.1809 63.8861 44.315 63.8516 44.4531C63.751 44.4196 63.6505 44.3861 63.5469 44.3516C63.7839 44.1146 64.0208 43.8776 64.2578 43.6406Z" fill="#F6973C"/>
</g>
<defs>
<clipPath id="clip0_262_2068">
<rect width="120" height="80" rx="8" fill="white"/>
</clipPath>
</defs>
</svg>
