<svg width="120" height="80" viewBox="0 0 120 80" fill="none" xmlns="http://www.w3.org/2000/svg">
<g clip-path="url(#clip0_262_2085)">
<path d="M61.4058 18.6699C61.7577 18.8979 62.0773 19.1524 62.3976 19.4225C62.6072 19.5981 62.8212 19.7678 63.0352 19.938C63.2027 20.0712 63.3696 20.2051 63.5364 20.3391C63.8519 20.5921 64.1692 20.8427 64.4874 21.0924C64.5632 21.1519 64.5632 21.1519 64.6406 21.2126C64.8929 21.4105 65.1455 21.6081 65.3983 21.8055C66.0076 22.282 66.6106 22.7655 67.2099 23.2546C67.6358 23.6016 68.0662 23.9423 68.4993 24.2803C68.8946 24.5896 69.2843 24.9056 69.673 25.2232C70.0913 25.5649 70.5124 25.9009 70.9419 26.2285C71.5605 26.7003 72.1619 27.1922 72.7644 27.6843C72.9615 27.8448 73.16 28.0036 73.3589 28.1621C73.6735 28.4128 73.9858 28.6661 74.2976 28.9202C74.8612 29.3796 75.4281 29.834 76.001 30.2817C76.3902 30.5862 76.7725 30.8983 77.154 31.2125C77.428 31.4353 77.7057 31.6528 77.9841 31.87C78.4555 32.2379 78.9189 32.6146 79.3794 32.9961C79.8796 33.4103 80.3843 33.8174 80.8965 34.2166C81.3493 34.5701 81.7945 34.9326 82.2395 35.2958C82.6141 35.601 82.9918 35.9016 83.3729 36.1986C83.8352 36.5591 84.2892 36.9288 84.7407 37.3027C85.1963 37.6797 85.6539 38.0532 86.1195 38.4178C86.1689 38.4565 86.2182 38.4951 86.2691 38.535C86.5263 38.736 86.7845 38.9357 87.0434 39.1347C89.0474 40.6795 89.0474 40.6795 89.2036 41.7813C89.2719 42.8084 89.0905 43.6837 88.7562 44.6471C88.7118 44.7809 88.6675 44.9149 88.6235 45.0489C88.5106 45.3906 88.3951 45.7314 88.2789 46.0719C88.1764 46.3736 88.0762 46.6761 87.9762 46.9786C87.8393 47.3917 87.7018 47.8046 87.5633 48.2172C87.2676 49.0983 86.9783 49.9815 86.6908 50.8653C86.6659 50.9417 86.6411 51.0182 86.6155 51.0969C86.2652 52.1739 85.9167 53.2514 85.5685 54.3291C85.5288 54.452 85.489 54.5749 85.4493 54.6978C85.4294 54.7594 85.4095 54.821 85.389 54.8845C85.3071 55.1378 85.2253 55.3911 85.1434 55.6445C85.0812 55.8368 85.0191 56.0291 84.957 56.2215C84.3406 58.1291 83.7182 60.0347 83.0918 61.9391C82.6156 63.3872 82.1455 64.8369 81.6901 66.2917C81.2813 67.5967 80.8512 68.894 80.4145 70.1899C80.2748 70.6058 80.138 71.0225 80.0031 71.44C79.9098 71.7287 79.8158 72.0172 79.7216 72.3056C79.6773 72.4422 79.6334 72.5789 79.5898 72.7158C79.2123 73.9013 78.8272 74.9231 77.6742 75.536C76.9876 75.8532 76.3189 75.8481 75.5786 75.8434C75.439 75.8438 75.2993 75.8444 75.1597 75.8451C74.7777 75.8466 74.3958 75.8458 74.0138 75.8447C73.6012 75.8439 73.1886 75.8452 72.7759 75.8461C71.9683 75.8477 71.1607 75.8474 70.353 75.8463C69.6965 75.8456 69.0399 75.8454 68.3834 75.8458C68.2898 75.8459 68.1963 75.8459 68.1 75.846C67.91 75.8461 67.72 75.8462 67.53 75.8463C65.7493 75.8473 63.9685 75.8462 62.1877 75.8443C60.6606 75.8427 59.1334 75.843 57.6063 75.8446C55.8319 75.8465 54.0576 75.8472 52.2832 75.8462C52.0939 75.8461 51.9046 75.8459 51.7153 75.8458C51.6222 75.8458 51.5291 75.8457 51.4331 75.8457C50.7776 75.8454 50.122 75.8459 49.4665 75.8467C48.6673 75.8477 47.8681 75.8474 47.0689 75.8455C46.6613 75.8446 46.2537 75.8443 45.8462 75.8454C45.4727 75.8465 45.0992 75.8459 44.7257 75.844C44.591 75.8436 44.4563 75.8438 44.3215 75.8447C43.3468 75.8504 42.4261 75.7765 41.6853 75.0737C41.6176 75.0116 41.5498 74.9495 41.48 74.8855C41.0389 74.3827 40.7709 73.839 40.5644 73.2074C40.5406 73.1371 40.5168 73.0668 40.4923 72.9944C40.4148 72.7649 40.3387 72.535 40.2626 72.3051C40.2079 72.142 40.1531 71.979 40.0982 71.8159C39.9598 71.4039 39.8224 70.9915 39.6853 70.5789C39.5741 70.2452 39.4619 69.9118 39.3497 69.5785C38.4147 66.7965 37.5105 64.0042 36.6014 61.2137C36.4833 60.8514 36.3652 60.4891 36.2471 60.1268C36.2182 60.0382 36.1893 59.9495 36.1595 59.8582C35.7336 58.5519 35.3006 57.2481 34.8638 55.9454C34.4677 54.7627 34.0853 53.5761 33.7092 52.3869C33.34 51.2196 32.9663 50.0543 32.5776 48.8933C32.5568 48.8309 32.5359 48.7685 32.5144 48.7042C32.3841 48.3154 32.2535 47.9267 32.1228 47.538C31.9024 46.8824 31.6826 46.2266 31.4632 45.5707C31.382 45.3284 31.3006 45.0862 31.2191 44.8441C31.1691 44.6946 31.1191 44.5452 31.0691 44.3957C31.0464 44.3287 31.0238 44.2616 31.0004 44.1925C30.6292 43.079 30.4658 42.1778 30.9956 41.082C31.5091 40.2161 32.3669 39.6484 33.1465 39.0403C33.5015 38.7627 33.8497 38.4771 34.1978 38.1909C34.7033 37.7761 35.2157 37.3701 35.7307 36.9672C36.3651 36.4706 36.9918 35.965 37.6162 35.456C37.9368 35.1947 38.2596 34.9364 38.583 34.6787C38.8287 34.4815 39.0729 34.2827 39.317 34.0837C39.8192 33.6744 40.3229 33.268 40.8339 32.8697C41.2962 32.5092 41.7501 32.1395 42.2017 31.7656C42.7019 31.3514 43.2065 30.9443 43.7188 30.5451C44.1107 30.2391 44.4971 29.9267 44.8823 29.6123C45.3165 29.2579 45.7532 28.9075 46.1952 28.5631C46.6575 28.2026 47.1115 27.8329 47.563 27.4589C48.063 27.0449 48.5674 26.6381 49.0794 26.239C49.6002 25.8323 50.1119 25.4145 50.6241 24.997C50.9446 24.7357 51.2675 24.4774 51.5909 24.2197C51.8365 24.0225 52.0807 23.8237 52.3249 23.6247C52.827 23.2154 53.3307 22.809 53.8417 22.4107C54.3775 21.9928 54.9023 21.5623 55.4259 21.1293C55.8151 20.8075 56.2061 20.4884 56.6027 20.1757C56.7934 20.0221 56.9805 19.8659 57.1671 19.7074C58.4857 18.5965 59.6991 17.9092 61.4058 18.6699Z" fill="#B899FF"/>
<path d="M40.3296 3.16823C40.4184 3.16837 40.5072 3.16851 40.5986 3.16865C41.3185 3.1804 41.9246 3.28716 42.5983 3.55275C42.6695 3.57914 42.7408 3.60554 42.8142 3.63274C44.0873 4.14779 45.0965 5.00678 45.6619 6.26993C46.4039 8.05415 46.5055 9.74255 45.8152 11.5772C45.458 12.4348 44.9524 13.2162 44.4275 13.9788C43.6736 15.0844 43.3251 16.1735 43.2877 17.5181C43.2852 17.5924 43.2827 17.6667 43.2802 17.7432C43.2761 17.8889 43.2741 18.0346 43.2743 18.1802C43.2658 18.5369 43.2373 18.7751 43.012 19.0599C42.5624 19.4855 42.232 19.5006 41.6239 19.4881C41.2716 19.4508 41.0937 19.3563 40.8405 19.1094C40.0892 18.0147 39.9665 16.5701 40.1912 15.2858C40.5969 13.8579 41.4488 12.6074 42.2467 11.375C42.8106 10.5021 43.0632 9.79246 42.8949 8.74928C42.687 8.02096 42.3045 7.46309 41.6497 7.07867C40.8213 6.65935 39.8405 6.70392 38.968 6.97739C38.0032 7.34792 37.3428 7.84413 36.8848 8.78361C36.6642 9.33559 36.559 9.93295 36.4301 10.5117C36.2869 11.108 36.1491 11.5969 35.6549 11.9902C35.2492 12.2185 34.8823 12.2334 34.4244 12.166C33.9785 11.9819 33.6246 11.6988 33.3698 11.2871C32.9785 10.1757 33.0894 8.84158 33.5455 7.7715C33.5828 7.68346 33.6201 7.59543 33.6585 7.50473C34.5373 5.60758 36.0782 4.31761 37.9909 3.54966C38.7646 3.28047 39.5111 3.16686 40.3296 3.16823Z" fill="#875AEF"/>
<path d="M82.5 13.2207C83.3988 13.8418 84.055 14.621 84.4003 15.672C84.6177 16.8822 84.3349 18.1049 83.6426 19.1093C82.7152 20.2865 81.3067 20.8921 79.9451 21.4242C79.2515 21.7058 78.8552 22.0905 78.3856 22.6579C78.1317 22.9626 78.1317 22.9626 77.8459 22.9975C77.359 23.0132 77.0799 22.9592 76.6992 22.6249C76.4564 22.2303 76.4718 21.8443 76.5234 21.3945C76.7243 20.6229 77.2276 20.1015 77.9005 19.7022C78.5503 19.3376 79.2139 19.0471 79.9127 18.7907C80.6615 18.5128 81.208 18.2242 81.5771 17.4833C81.7627 16.9937 81.7833 16.5994 81.5716 16.1155C81.1578 15.37 80.4771 15.0673 79.6844 14.8391C79.1526 14.727 78.6797 14.7595 78.2023 15.0248C77.893 15.2415 77.6245 15.5018 77.3477 15.7578C77.0438 16.0303 76.769 16.2746 76.3449 16.313C75.9949 16.2927 75.8437 16.2282 75.5676 16.0002C75.2177 15.5679 75.1669 15.3338 75.1769 14.79C75.2188 14.4162 75.3521 14.1469 75.5566 13.8359C75.6038 13.7616 75.6509 13.6872 75.6995 13.6107C77.5266 11.7355 80.4224 11.8959 82.5 13.2207Z" fill="#9031D9"/>
<path d="M65.3555 59.583C65.8142 59.9569 66.2715 60.3915 66.5036 60.9453C66.5437 61.3862 66.515 61.649 66.2399 62C65.8523 62.3403 65.6375 62.4474 65.1207 62.4769C64.6356 62.3857 64.275 61.9862 63.9218 61.6649C62.65 60.5669 60.9622 60.218 59.3191 60.3123C57.9658 60.4338 56.8377 61.1582 55.887 62.079C55.4958 62.4514 55.2311 62.4876 54.7087 62.4793C54.319 62.4162 54.0874 62.2172 53.8473 61.9121C53.6465 61.5834 53.6477 61.3511 53.7021 60.9772C53.9598 60.0438 54.9911 59.4464 55.7754 58.9952C58.9042 57.2425 62.4423 57.43 65.3555 59.583Z" fill="#875AEF"/>
<path d="M61.4708 49.5681C62.2104 50.0403 62.845 50.6823 63.1318 51.5284C63.288 52.4312 63.2105 53.3017 62.7249 54.09C62.3133 54.6112 61.855 54.9995 61.2308 55.2325C61.15 55.2637 61.0692 55.2949 60.986 55.327C60.2418 55.5413 59.4006 55.5 58.6998 55.167C57.9083 54.7165 57.2154 54.0776 56.9626 53.174C56.8246 52.3606 56.8369 51.5544 57.2757 50.838C58.2495 49.5352 59.9024 48.8066 61.4708 49.5681Z" fill="#9031D9"/>
<path d="M54.6772 43.5484C55.2877 44.0101 55.7179 44.629 55.8692 45.3887C56.0123 46.6445 55.9774 48.0449 55.188 49.0965C54.7152 49.561 54.193 49.7158 53.5401 49.7447C52.9944 49.725 52.5958 49.6134 52.1778 49.2558C51.4689 48.4832 51.2697 47.2089 51.2796 46.1968C51.3348 45.3907 51.5944 44.5163 52.1998 43.9549C52.9191 43.398 53.8046 43.2787 54.6772 43.5484Z" fill="#875AEF"/>
<path d="M67.5095 43.5485C68.2377 44.0991 68.5641 44.8455 68.7015 45.7402C68.7597 46.7088 68.7228 47.5538 68.35 48.4649C68.3215 48.5354 68.2931 48.606 68.2638 48.6787C68.054 49.1455 67.8065 49.4223 67.3186 49.614C66.7677 49.7702 66.1255 49.8129 65.5804 49.6153C64.8846 49.2032 64.5328 48.608 64.307 47.8496C64.0537 46.6574 64.0275 45.5423 64.6167 44.4449C64.9178 43.9837 65.3324 43.6681 65.8561 43.4963C66.4064 43.3877 66.973 43.3826 67.5095 43.5485Z" fill="#875AEF"/>
<path d="M55.7537 37.0555C56.0679 37.2275 56.2197 37.3434 56.3964 37.6543C56.4739 38.1681 56.3339 38.5536 56.0448 38.9727C54.4729 40.865 52.268 42.1613 49.8046 42.4883C48.6754 42.5845 48.6754 42.5845 48.2668 42.3767C48.0122 42.1592 47.8041 41.9576 47.7621 41.6135C47.7463 41.1234 47.8032 40.852 48.1346 40.4668C48.5665 40.0576 48.9877 39.9545 49.5629 39.8735C51.4031 39.5802 52.9988 38.7553 54.1898 37.3117C54.6385 36.8638 55.1738 36.8688 55.7537 37.0555Z" fill="#875AEF"/>
<path d="M65.8008 36.9511C66.0535 37.1214 66.0535 37.1214 66.2402 37.3906C67.3958 38.8805 69.1711 39.5151 70.9805 39.8223C71.0398 39.8327 71.0991 39.8431 71.1602 39.8539C71.329 39.8829 71.4982 39.9095 71.6675 39.936C72.0089 40.0451 72.1133 40.1696 72.3047 40.4668C72.4698 40.797 72.4509 41.1628 72.3926 41.5214C72.2168 41.8233 72.0038 42.0674 71.6895 42.2246C69.4649 42.3656 67.0557 41.5508 65.3558 40.0949C65.1448 39.9022 64.94 39.7101 64.7461 39.5C64.7019 39.4542 64.6577 39.4084 64.6122 39.3613C64.1899 38.904 63.996 38.4786 63.9111 37.863C63.9707 37.4609 64.1093 37.3242 64.3945 37.039C64.8054 36.8336 65.3547 36.9069 65.8008 36.9511Z" fill="#875AEF"/>
<path d="M44.4207 21.191C44.8956 21.4674 45.1364 21.8304 45.3116 22.3449C45.4615 22.9396 45.5464 23.5028 45.2292 24.0533C44.8281 24.6111 44.3353 25.0295 43.6527 25.1739C43.024 25.2483 42.5022 25.2032 41.9828 24.8223C41.4946 24.3449 41.2727 23.8342 41.2412 23.1579C41.2678 22.4348 41.5964 21.8841 42.0844 21.365C42.7541 20.7606 43.6479 20.8428 44.4207 21.191Z" fill="#875AEF"/>
<path d="M76.9633 24.119C77.3903 24.3209 77.6343 24.5741 77.8422 24.9979C77.9541 25.5431 77.8095 25.9981 77.5438 26.4766C77.313 26.7894 77.0743 26.9268 76.6996 27.0194C76.2588 27.0834 75.9309 27.0704 75.524 26.8821C75.1562 26.5405 74.9262 26.2139 74.9033 25.701C74.9301 25.2668 75.044 24.9001 75.3538 24.5818C75.8808 24.1207 76.2604 24.0484 76.9633 24.119Z" fill="#9031D9"/>
<path d="M34.4238 11.9023C34.6849 11.9023 34.9459 11.9023 35.2148 11.9023C35.2438 11.9894 35.2729 12.0764 35.3027 12.166C35.0127 12.166 34.7227 12.166 34.4238 12.166C34.4238 12.079 34.4238 11.992 34.4238 11.9023Z" fill="#31798B"/>
</g>
<defs>
<clipPath id="clip0_262_2085">
<rect width="120" height="80" rx="8" fill="white"/>
</clipPath>
</defs>
</svg>
