<svg width="120" height="80" viewBox="0 0 120 80" fill="none" xmlns="http://www.w3.org/2000/svg">
<g clip-path="url(#clip0_262_2363)">
<path d="M53.2881 3.88196C53.3484 3.89527 53.4086 3.90857 53.4707 3.92228C55.8979 4.4612 58.2294 5.35442 60.4248 6.51575C60.5163 6.56384 60.5163 6.56384 60.6096 6.61291C62.2226 7.46716 63.7317 8.4998 65.0758 9.73796C65.2482 9.89636 65.424 10.0491 65.6021 10.2009C66.2792 10.7934 66.8919 11.4315 67.4514 12.1358C67.6214 12.3469 67.7973 12.5511 67.9764 12.7546C70.9225 16.1321 72.7128 20.4804 73.4238 24.8673C73.4451 24.9982 73.4451 24.9982 73.4667 25.1317C74.4971 31.832 72.6735 38.774 68.7103 44.2419C68.2977 44.8014 67.8603 45.339 67.3916 45.8527C67.5145 46.1344 67.6676 46.3193 67.885 46.5353C67.9845 46.6347 67.9845 46.6347 68.086 46.7362C68.1576 46.8069 68.2292 46.8777 68.303 46.9505C68.3763 47.0236 68.4496 47.0966 68.5251 47.1719C68.7593 47.4052 68.9941 47.6378 69.2289 47.8705C69.3878 48.0285 69.5467 48.1866 69.7055 48.3447C70.0949 48.7323 70.4848 49.1193 70.875 49.506C70.9669 49.4648 71.0589 49.4235 71.1536 49.381C71.8015 49.0904 72.6029 49.164 73.2592 49.3998C74.3558 49.9284 75.2097 50.935 76.0488 51.7898C76.1172 51.8594 76.1856 51.929 76.2561 52.0007C76.3162 52.0623 76.3762 52.1239 76.4381 52.1873C76.6097 52.3534 76.7834 52.5089 76.9644 52.6643C77.3215 52.9759 77.6577 53.3042 77.9914 53.6405C78.0534 53.7026 78.1154 53.7647 78.1793 53.8287C78.3125 53.9623 78.4457 54.096 78.5788 54.2298C78.7893 54.4413 79 54.6526 79.2108 54.8638C79.6574 55.3114 80.1037 55.7593 80.5499 56.2073C81.0689 56.7283 81.5881 57.2491 82.1075 57.7696C82.3155 57.9781 82.5231 58.1868 82.7308 58.3956C82.8574 58.5225 82.984 58.6494 83.1107 58.7763C83.1686 58.8347 83.2265 58.893 83.2861 58.9531C83.339 59.006 83.3919 59.0589 83.4464 59.1133C83.4923 59.1595 83.5382 59.2056 83.5856 59.2532C83.7036 59.3708 83.7036 59.3708 83.874 59.4464C83.874 59.5025 83.874 59.5586 83.874 59.6163C83.9493 59.6502 83.9493 59.6502 84.0262 59.6848C84.2191 59.7891 84.3444 59.8961 84.4985 60.0511C84.5803 60.1327 84.5803 60.1327 84.6638 60.216C84.7227 60.2756 84.7815 60.3352 84.8422 60.3966C84.9364 60.491 84.9364 60.491 85.0324 60.5872C85.2401 60.7954 85.4471 61.0042 85.6542 61.213C85.7988 61.3581 85.9433 61.5031 86.0879 61.648C86.469 62.0303 86.8497 62.413 87.2302 62.7959C87.838 63.4073 88.4463 64.0181 89.0548 64.6287C89.2668 64.8415 89.4785 65.0546 89.6902 65.2678C89.8213 65.3995 89.9524 65.5312 90.0836 65.6629C90.1418 65.7217 90.2 65.7804 90.2599 65.841C90.5899 66.1718 90.9289 66.4865 91.2836 66.7907C91.524 67 91.7506 67.2226 91.9769 67.447C92.025 67.4947 92.0731 67.5423 92.1227 67.5914C92.2236 67.6915 92.3243 67.7916 92.4249 67.8919C92.576 68.0422 92.728 68.1916 92.8801 68.3409C94.0142 69.4644 94.9114 70.5244 94.9455 72.1906C94.9308 73.6882 94.2676 74.8105 93.2197 75.8439C92.1805 76.7695 91.0192 77.0333 89.6648 76.965C89.232 76.9258 88.854 76.7886 88.4619 76.6085C88.3432 76.5545 88.3432 76.5545 88.222 76.4993C87.2611 76.0182 86.539 75.2076 85.7905 74.4533C85.6484 74.3101 85.5061 74.1672 85.3636 74.0243C85.0615 73.7213 84.7598 73.4179 84.4581 73.1145C84.1074 72.7618 83.7565 72.4092 83.4053 72.0569C83.2662 71.9173 83.1274 71.7774 82.9886 71.6375C82.5787 71.2256 82.1654 70.823 81.7235 70.4451C81.3602 70.1317 81.0272 69.7842 80.688 69.4453C80.61 69.3683 80.532 69.2914 80.4517 69.2121C80.3413 69.102 80.3413 69.102 80.2287 68.9896C80.1618 68.9231 80.095 68.8566 80.0261 68.788C79.8809 68.6222 79.8809 68.6222 79.8809 68.4523C79.811 68.4238 79.811 68.4238 79.7398 68.3947C79.481 68.2484 79.2878 68.0528 79.0801 67.8436C79.0346 67.7984 78.9891 67.7533 78.9423 67.7067C78.7899 67.5553 78.6382 67.4032 78.4864 67.2511C78.3773 67.1423 78.2682 67.0336 78.159 66.9249C77.8622 66.6293 77.566 66.3332 77.2699 66.0369C77.0223 65.7891 76.7744 65.5416 76.5264 65.2941C75.9408 64.7094 75.3555 64.1242 74.7706 63.5387C74.1689 62.9366 73.5665 62.3352 72.9637 61.7342C72.4452 61.2172 71.9271 60.6996 71.4095 60.1817C71.1008 59.8728 70.7919 59.5642 70.4826 59.256C70.1909 58.9655 69.8999 58.6743 69.6093 58.3826C69.5033 58.2764 69.3971 58.1704 69.2906 58.0646C67.1259 55.9132 67.1259 55.9132 67.1155 54.3965C67.1129 54.3009 67.1129 54.3009 67.1102 54.2032C67.1073 53.7946 67.1751 53.597 67.3916 53.2443C67.2874 52.9525 67.1029 52.7629 66.888 52.5447C66.8194 52.4747 66.7508 52.4048 66.6801 52.3326C66.6058 52.2579 66.5316 52.1832 66.4551 52.1063C66.3788 52.0292 66.3025 51.9522 66.2239 51.8728C66.0626 51.7103 65.9011 51.5479 65.7393 51.3859C65.5318 51.1779 65.3257 50.9686 65.1199 50.759C64.9234 50.5593 64.7254 50.3611 64.5275 50.1628C64.4166 50.0494 64.4166 50.0494 64.3035 49.9338C64.2344 49.8651 64.1652 49.7965 64.0939 49.7258C64.0333 49.6647 63.9727 49.6037 63.9103 49.5408C63.748 49.4001 63.748 49.4001 63.5557 49.4389C63.3836 49.5123 63.241 49.5972 63.0875 49.7044C63.0279 49.7454 62.9683 49.7863 62.907 49.8284C62.8112 49.8949 62.8112 49.8949 62.7135 49.9627C61.9163 50.504 61.097 50.9924 60.2549 51.4601C60.1904 51.4962 60.126 51.5323 60.0596 51.5696C54.6131 54.6043 47.6747 55.537 41.6485 53.839C38.2906 52.851 35.1384 51.3441 32.3877 49.1661C32.2612 49.0668 32.2612 49.0668 32.1322 48.9654C30.9416 48.0105 29.7916 46.9501 28.8419 45.7528C28.6712 45.5399 28.4948 45.3335 28.3155 45.1278C27.296 43.9518 26.48 42.6541 25.7105 41.3046C25.6102 41.1287 25.5083 40.9539 25.406 40.7792C23.824 37.9723 22.9817 34.8157 22.6412 31.6315C22.6263 31.4933 22.6103 31.3552 22.5926 31.2173C22.5034 30.4738 22.5116 29.725 22.511 28.9773C22.5109 28.9036 22.5108 28.8299 22.5107 28.754C22.5116 27.6341 22.5629 26.5425 22.749 25.436C22.788 25.2021 22.8221 24.9679 22.8558 24.7332C23.2322 22.234 24.076 19.8332 25.166 17.5607C25.2002 17.4895 25.2343 17.4184 25.2695 17.345C26.2794 15.2695 27.6009 13.3684 29.1828 11.6904C29.3727 11.4876 29.5569 11.2824 29.738 11.0718C30.2115 10.5262 30.7311 10.0393 31.2832 9.57434C31.351 9.51685 31.351 9.51685 31.4202 9.45819C37.3234 4.47482 45.6847 2.11372 53.2881 3.88196Z" fill="#6FB8D4"/>
<path d="M61.6146 11.8682C61.7282 11.9576 61.7282 11.9576 61.844 12.0488C65.9259 15.2905 68.5911 19.8581 69.601 24.9522C69.6163 25.0285 69.6317 25.1047 69.6475 25.1833C70.6371 30.3597 69.4123 36.2432 66.5318 40.6328C66.4235 40.7879 66.3138 40.9419 66.2025 41.0948C66.1435 41.177 66.0845 41.2591 66.0236 41.3437C65.0855 42.6223 64.0241 43.9341 62.7994 44.9486C62.6771 45.0518 62.5585 45.1597 62.4423 45.2698C58.3752 49.1256 52.6842 50.8543 47.1687 50.7152C42.2034 50.5576 37.6289 48.5874 33.9174 45.3429C33.8443 45.2793 33.7713 45.2158 33.696 45.1504C32.8938 44.4413 32.1369 43.6988 31.4711 42.8591C31.2744 42.6127 31.0696 42.3747 30.8641 42.1356C30.3887 41.5635 29.9765 40.9619 29.5844 40.3302C29.5443 40.2657 29.5042 40.2012 29.4629 40.1348C28.4119 38.4226 27.6207 36.584 27.1205 34.6378C27.1015 34.5656 27.0825 34.4935 27.0629 34.4192C25.6308 28.9052 26.3849 22.8319 29.2445 17.9005C29.8075 16.9799 30.4365 16.1062 31.1137 15.2667C31.1809 15.182 31.2482 15.0974 31.3174 15.0101C32.345 13.741 33.5241 12.5657 34.8519 11.6134C34.9423 11.5477 35.0327 11.4819 35.1257 11.4142C35.8051 10.9322 36.5096 10.4995 37.2309 10.0841C37.3264 10.0282 37.4219 9.97236 37.5203 9.91481C38.9952 9.08763 40.6193 8.50426 42.2435 8.045C42.3011 8.02862 42.3587 8.01223 42.4181 7.99535C43.0807 7.81021 43.7469 7.67164 44.426 7.56179C44.4885 7.55164 44.5509 7.54149 44.6153 7.53103C50.4914 6.6389 56.9848 8.03485 61.6146 11.8682ZM45.557 13.9073C45.348 14.0792 45.1367 14.2483 44.9251 14.4171C44.8707 14.4607 44.8162 14.5043 44.7601 14.5492C44.3525 14.8743 43.9373 15.1882 43.519 15.4993C42.7373 16.0863 41.978 16.7017 41.2208 17.3196C40.809 17.6551 40.3928 17.9844 39.9742 18.3113C39.5941 18.6089 39.2191 18.9122 38.8451 19.2174C38.2754 19.6821 37.6999 20.1387 37.1204 20.5912C36.9351 20.7362 36.7502 20.8818 36.5653 21.0273C36.5594 21.032 36.5535 21.0366 36.5476 21.0413C36.0474 21.435 35.5456 21.8267 35.0431 22.2176C34.9476 22.2919 34.9476 22.2919 34.8501 22.3679C34.5146 22.629 34.1783 22.889 33.8407 23.1475C33.7726 23.1998 33.7045 23.2522 33.6344 23.3062C33.5053 23.4054 33.3759 23.5044 33.2462 23.6029C32.4375 24.2261 31.7154 24.9284 31.5047 25.9686C31.3829 26.933 31.6613 27.8332 31.9551 28.7409C32.0619 29.073 32.1647 29.4062 32.2673 29.7396C32.7215 31.2089 33.2019 32.6682 33.7037 34.122C34.1299 35.3572 34.539 36.5974 34.943 37.84C35.5921 39.8422 35.5921 39.8422 36.275 41.8329C36.3054 41.9198 36.3358 42.0068 36.3671 42.0964C36.7573 43.1795 37.2072 44.2944 38.295 44.8237C39.0771 45.1747 39.8373 45.2175 40.6828 45.2299C40.814 45.2326 40.9452 45.2355 41.0765 45.2383C41.4938 45.2469 41.9111 45.2528 42.3285 45.2579C42.4298 45.2592 42.4298 45.2592 42.5331 45.2605C43.5957 45.2734 44.6583 45.2782 45.721 45.2811C45.8359 45.2815 45.8359 45.2815 45.9532 45.2818C46.6794 45.2839 47.4056 45.2858 48.1318 45.2869C49.0491 45.2883 49.9663 45.2911 50.8836 45.2959C51.5361 45.2992 52.1886 45.3009 52.841 45.3013C53.228 45.3016 53.6149 45.3026 54.0019 45.3054C54.3642 45.308 54.7264 45.3085 55.0886 45.3075C55.2205 45.3075 55.3524 45.3082 55.4843 45.3097C56.7241 45.323 57.7224 45.0359 58.6294 44.1727C59.2595 43.5115 59.5317 42.6351 59.8218 41.7858C59.8517 41.6995 59.8816 41.6131 59.9124 41.5242C60.0095 41.2432 60.1058 40.9619 60.2022 40.6806C60.2703 40.4827 60.3384 40.2847 60.4065 40.0868C61.6695 36.411 62.864 32.7161 64.0148 29.0038C64.039 28.9257 64.0632 28.8477 64.0882 28.7672C64.1563 28.5473 64.2243 28.3274 64.2922 28.1074C64.3124 28.0422 64.3327 27.9769 64.3535 27.9097C64.6487 26.9517 64.7336 26.1197 64.2949 25.1832C64.0948 24.8315 63.8599 24.552 63.5687 24.2725C63.5221 24.2271 63.4754 24.1816 63.4274 24.1348C62.9983 23.7408 62.5246 23.4032 62.0572 23.0569C61.5823 22.703 61.1294 22.329 60.6807 21.9428C60.4444 21.7402 60.205 21.5427 59.9632 21.3467C59.6024 21.0531 59.2482 20.7528 58.8959 20.4493C58.3927 20.0162 57.8834 19.5917 57.3666 19.1749C57.2969 19.1185 57.2969 19.1185 57.2258 19.0609C56.6177 18.569 56.0039 18.0862 55.3806 17.6137C54.6991 17.0964 54.0392 16.5553 53.3811 16.0086C52.6192 15.3774 51.8498 14.7553 51.0691 14.1475C50.8494 13.9764 50.6325 13.8038 50.4187 13.6252C48.772 12.25 47.1127 12.5537 45.557 13.9073Z" fill="#E9EFFF"/>
<path d="M45.557 13.9073C45.348 14.0792 45.1367 14.2483 44.9251 14.4171L44.7601 14.5492C44.3525 14.8743 43.9373 15.1882 43.519 15.4993C42.7373 16.0863 41.978 16.7017 41.2208 17.3196C40.809 17.6551 40.3928 17.9844 39.9742 18.3113C39.5941 18.6089 39.2191 18.9122 38.8451 19.2174C38.2754 19.6821 37.6999 20.1387 37.1204 20.5912C36.9351 20.7362 36.7502 20.8818 36.5653 21.0273L36.5476 21.0413C36.0474 21.435 35.5456 21.8267 35.0431 22.2176L34.8501 22.3679C34.5146 22.629 34.1783 22.889 33.8407 23.1475L33.6344 23.3062C33.5053 23.4054 33.3759 23.5044 33.2462 23.6029C32.4375 24.2261 31.7154 24.9284 31.5047 25.9686C31.3829 26.933 31.6613 27.8332 31.9551 28.7409C32.0619 29.073 32.1647 29.4062 32.2673 29.7396C32.7215 31.2089 33.2019 32.6682 33.7037 34.122C34.1299 35.3572 34.539 36.5974 34.943 37.84C35.5921 39.8422 35.5921 39.8422 36.275 41.8329L36.3671 42.0964C36.7573 43.1795 37.2072 44.2944 38.295 44.8237C39.0771 45.1747 39.8373 45.2175 40.6828 45.2299C40.814 45.2326 40.9452 45.2355 41.0765 45.2383C41.4938 45.2469 41.9111 45.2528 42.3285 45.2579L42.5331 45.2605C43.5957 45.2734 44.6583 45.2782 45.721 45.2811L45.9532 45.2818C46.6794 45.2839 47.4056 45.2858 48.1318 45.2869C49.0491 45.2883 49.9663 45.2911 50.8836 45.2959C51.5361 45.2992 52.1886 45.3009 52.841 45.3013C53.228 45.3016 53.6149 45.3026 54.0019 45.3054C54.3642 45.308 54.7264 45.3085 55.0886 45.3075C55.2205 45.3075 55.3524 45.3082 55.4843 45.3097C56.7241 45.323 57.7224 45.0359 58.6294 44.1727C59.2595 43.5115 59.5317 42.6351 59.8218 41.7858L59.9124 41.5242C60.0095 41.2432 60.1058 40.9619 60.2022 40.6806C60.2703 40.4827 60.3384 40.2847 60.4065 40.0868C61.6695 36.411 62.864 32.7161 64.0148 29.0038L64.0882 28.7672C64.1563 28.5473 64.2243 28.3274 64.2922 28.1074L64.3535 27.9097C64.6487 26.9517 64.7336 26.1197 64.2949 25.1832C64.0948 24.8315 63.8599 24.552 63.5687 24.2725L63.4274 24.1348C62.9983 23.7408 62.5246 23.4032 62.0572 23.0569C61.5823 22.703 61.1294 22.329 60.6807 21.9428C60.4444 21.7402 60.205 21.5427 59.9632 21.3467C59.6024 21.0531 59.2482 20.7528 58.8959 20.4493C58.3927 20.0162 57.8834 19.5917 57.3666 19.1749L57.2258 19.0609C56.6177 18.569 56.0039 18.0862 55.3806 17.6137C54.6991 17.0964 54.0392 16.5553 53.3811 16.0086C52.6192 15.3774 51.8498 14.7553 51.0691 14.1475C50.8494 13.9764 50.6325 13.8038 50.4187 13.6252C48.772 12.25 47.1127 12.5537 45.557 13.9073Z" fill="#E9EFFF"/>
<path d="M67.2952 46.0372C67.5281 46.1273 67.6514 46.2516 67.8271 46.429C67.9291 46.531 67.9291 46.531 68.0332 46.6351C68.1058 46.709 68.1784 46.7829 68.2532 46.8591C68.3281 46.9344 68.4031 47.0097 68.4803 47.0873C68.6791 47.2873 68.8773 47.4878 69.0753 47.6886C69.2776 47.8935 69.4806 48.0977 69.6836 48.3019C70.0814 48.7025 70.4785 49.1039 70.875 49.5058C70.9669 49.4646 71.0588 49.4233 71.1536 49.3808C71.8015 49.0902 72.6029 49.1638 73.2592 49.3996C74.3558 49.9282 75.2097 50.9348 76.0488 51.7896C76.1514 51.894 76.1514 51.894 76.2561 52.0005C76.3161 52.0621 76.3762 52.1237 76.4381 52.1871C76.6097 52.3532 76.7834 52.5087 76.9644 52.6641C77.3214 52.9757 77.6577 53.304 77.9914 53.6403C78.0844 53.7334 78.0844 53.7334 78.1792 53.8285C78.3125 53.9621 78.4457 54.0958 78.5788 54.2296C78.7892 54.4411 79 54.6524 79.2108 54.8636C79.6574 55.3112 80.1037 55.7591 80.5499 56.2071C81.0689 56.7281 81.588 57.2489 82.1075 57.7694C82.3154 57.9779 82.5231 58.1866 82.7308 58.3954C82.8574 58.5223 82.984 58.6492 83.1107 58.7761C83.1975 58.8636 83.1975 58.8636 83.2861 58.9529C83.339 59.0058 83.3919 59.0587 83.4463 59.1131C83.4923 59.1593 83.5382 59.2054 83.5856 59.2529C83.7035 59.3706 83.7035 59.3706 83.874 59.4462C83.874 59.5023 83.874 59.5584 83.874 59.6161C83.9242 59.6387 83.9744 59.6613 84.0262 59.6846C84.2191 59.7889 84.3444 59.8959 84.4985 60.0509C84.5531 60.1053 84.6076 60.1597 84.6638 60.2158C84.7226 60.2754 84.7815 60.335 84.8422 60.3964C84.905 60.4593 84.9677 60.5222 85.0324 60.587C85.2401 60.7952 85.4471 61.004 85.6542 61.2128C85.7987 61.3579 85.9433 61.5029 86.0879 61.6478C86.469 62.0301 86.8497 62.4128 87.2302 62.7957C87.8379 63.4071 88.4462 64.0179 89.0548 64.6285C89.2668 64.8413 89.4785 65.0544 89.6901 65.2676C89.8213 65.3993 89.9524 65.531 90.0836 65.6627C90.1418 65.7215 90.1999 65.7802 90.2599 65.8408C90.5899 66.1716 90.9289 66.4863 91.2836 66.7905C91.524 66.9998 91.7506 67.2224 91.9768 67.4468C92.025 67.4945 92.0731 67.5421 92.1227 67.5912C92.2236 67.6913 92.3243 67.7914 92.4249 67.8917C92.576 68.042 92.728 68.1914 92.88 68.3407C94.0142 69.4642 94.9114 70.5242 94.9455 72.1904C94.9308 73.688 94.2676 74.8103 93.2197 75.8437C92.1805 76.7693 91.0192 77.0331 89.6648 76.9648C89.2319 76.9256 88.854 76.7884 88.4619 76.6083C88.3827 76.5723 88.3035 76.5363 88.222 76.4991C87.2611 76.018 86.5389 75.2074 85.7905 74.4531C85.6484 74.3099 85.506 74.167 85.3636 74.0241C85.0615 73.7211 84.7598 73.4177 84.4581 73.1143C84.1074 72.7616 83.7565 72.409 83.4053 72.0567C83.2662 71.9171 83.1274 71.7772 82.9886 71.6373C82.5787 71.2254 82.1654 70.8228 81.7235 70.4449C81.3602 70.1315 81.0272 69.784 80.688 69.4451C80.61 69.3681 80.532 69.2912 80.4517 69.2119C80.3781 69.1385 80.3045 69.065 80.2287 68.9894C80.1618 68.9229 80.0949 68.8564 80.0261 68.7878C79.8809 68.622 79.8809 68.622 79.8809 68.4521C79.8343 68.4331 79.7877 68.4141 79.7397 68.3945C79.481 68.2482 79.2877 68.0526 79.0801 67.8434C79.0346 67.7982 78.9891 67.7531 78.9423 67.7065C78.7899 67.5551 78.6382 67.403 78.4864 67.2509C78.3773 67.1421 78.2681 67.0334 78.1589 66.9247C77.8622 66.6291 77.566 66.333 77.2699 66.0367C77.0223 65.7889 76.7743 65.5414 76.5264 65.2939C75.9407 64.7092 75.3555 64.124 74.7705 63.5385C74.1689 62.9364 73.5665 62.335 72.9637 61.734C72.4451 61.217 71.9271 60.6994 71.4095 60.1815C71.1008 59.8726 70.7919 59.564 70.4826 59.2558C70.1909 58.9653 69.8999 58.6741 69.6093 58.3824C69.5033 58.2762 69.3971 58.1702 69.2906 58.0644C67.1258 55.913 67.1258 55.913 67.1155 54.3964C67.1137 54.3326 67.112 54.2688 67.1102 54.203C67.1073 53.7944 67.1751 53.5968 67.3916 53.2441C67.2866 52.9466 67.0957 52.7576 66.8748 52.5381C66.8034 52.4667 66.732 52.3952 66.6584 52.3217C66.5426 52.2072 66.5426 52.2072 66.4245 52.0905C66.3061 51.9724 66.3061 51.9724 66.1852 51.8519C65.9758 51.6431 65.7659 51.4349 65.5559 51.2267C65.3414 51.014 65.1275 50.8009 64.9135 50.5877C64.4939 50.17 64.0738 49.7527 63.6533 49.3359C63.9252 49.0626 64.1998 48.7964 64.487 48.5394C64.5541 48.4791 64.6213 48.4189 64.6904 48.3568C64.8191 48.2428 64.9481 48.1291 65.0791 48.0177C65.3998 47.7433 65.7028 47.4595 65.9964 47.1561C66.0943 47.0549 66.0943 47.0549 66.1942 46.9516C66.3289 46.8115 66.463 46.6708 66.5964 46.5295C66.6613 46.4629 66.7261 46.3963 66.7929 46.3277C66.8798 46.2366 66.8798 46.2366 66.9685 46.1437C67.1367 46.0224 67.1367 46.0224 67.2952 46.0372Z" fill="#206990"/>
<path d="M67.2956 46.0369C67.5267 46.1268 67.6515 46.2499 67.8271 46.4249C67.9291 46.5257 67.9291 46.5257 68.0332 46.6285C68.1058 46.7016 68.1784 46.7747 68.2532 46.8501C68.3281 46.9248 68.4031 46.9995 68.4803 47.0764C68.6386 47.2346 68.7966 47.3929 68.9542 47.5517C69.1563 47.7553 69.3596 47.9578 69.5633 48.1599C69.7573 48.3528 69.9504 48.5467 70.1435 48.7404C70.2168 48.8132 70.2901 48.8859 70.3656 48.9609C70.4325 49.0287 70.4995 49.0964 70.5684 49.1662C70.6278 49.2257 70.6871 49.2853 70.7483 49.3467C70.875 49.5058 70.875 49.5058 70.875 49.7606C70.7709 49.8714 70.7709 49.8714 70.6145 49.9953C70.0772 50.4457 69.5906 50.9474 69.096 51.4436C68.9249 51.6152 68.7532 51.7864 68.5816 51.9575C68.4726 52.0665 68.3637 52.1755 68.2548 52.2846C68.2035 52.3357 68.1522 52.3869 68.0993 52.4396C67.8415 52.6905 67.8415 52.6905 67.6465 52.9892C67.3536 52.8631 67.1645 52.6977 66.9405 52.4724C66.8691 52.4009 66.7977 52.3295 66.7241 52.2559C66.6096 52.1402 66.6096 52.1402 66.4929 52.0221C66.4142 51.9431 66.3354 51.8641 66.2543 51.7828C66.0456 51.5734 65.8373 51.3634 65.6291 51.1534C65.4165 50.939 65.2033 50.725 64.9901 50.511C64.5724 50.0914 64.1552 49.6713 63.7383 49.2509C64.1831 48.8008 64.1831 48.8008 64.4236 48.6027C65.1842 47.9647 65.8849 47.2848 66.5672 46.5631C66.6709 46.4561 66.6709 46.4561 66.7766 46.3469C66.8379 46.2823 66.8992 46.2177 66.9624 46.1512C67.1367 46.0224 67.1367 46.0224 67.2956 46.0369Z" fill="#317B9F"/>
<path d="M71.3848 59.9561C71.8703 60.3596 72.3169 60.7922 72.7618 61.2399C72.8786 61.3568 72.9953 61.4737 73.112 61.5906C73.2363 61.7152 73.3606 61.8399 73.4847 61.9647C73.7441 62.2252 74.0037 62.4853 74.2634 62.7454C74.8139 63.2969 75.3641 63.8487 75.9142 64.4006C76.5097 64.9979 77.1053 65.5952 77.7012 66.1921C77.9595 66.4508 78.2176 66.7097 78.4755 66.9688C78.597 67.0908 78.7186 67.2127 78.8403 67.3346C78.9888 67.4833 79.1372 67.6322 79.2853 67.7813C79.383 67.879 79.383 67.879 79.4827 67.9787C79.5394 68.0356 79.5961 68.0925 79.6546 68.1511C79.7904 68.2894 79.7904 68.2894 79.9658 68.3672C79.9658 68.4233 79.9658 68.4793 79.9658 68.5371C80.092 68.5792 80.092 68.5792 80.2207 68.6221C80.3369 68.7402 80.3369 68.7402 80.465 68.8982C80.7546 69.2398 81.062 69.5586 81.3783 69.8752C81.425 69.9224 81.4718 69.9695 81.52 70.018C81.7824 70.2796 82.05 70.5204 82.3447 70.7461C82.3167 70.8022 82.2887 70.8582 82.2598 70.916C81.7102 70.4509 81.1971 69.9538 80.688 69.4451C80.571 69.3297 80.571 69.3297 80.4517 69.212C80.3781 69.1386 80.3045 69.0651 80.2287 68.9895C80.1618 68.9229 80.0949 68.8564 80.0261 68.7879C79.8809 68.6221 79.8809 68.6221 79.8809 68.4521C79.8076 68.4203 79.8076 68.4203 79.7328 68.3877C79.514 68.2674 79.3672 68.1298 79.1905 67.9533C79.1214 67.8847 79.0523 67.8161 78.9811 67.7454C78.9061 67.67 78.831 67.5946 78.7537 67.5169C78.6733 67.4368 78.5929 67.3567 78.5125 67.2766C78.2945 67.0593 78.077 66.8415 77.8596 66.6236C77.6321 66.3957 77.4043 66.1683 77.1765 65.9408C76.7943 65.5588 76.4124 65.1765 76.0307 64.794C75.5889 64.3513 75.1465 63.9093 74.7038 63.4675C74.324 63.0884 73.9445 62.709 73.5652 62.3294C73.3386 62.1025 73.1119 61.8757 72.8849 61.6493C72.6321 61.3971 72.3801 61.1442 72.1281 60.8913C72.0524 60.8159 71.9766 60.7405 71.8986 60.6628C71.8305 60.5942 71.7623 60.5256 71.6921 60.4549C71.6324 60.3951 71.5727 60.3354 71.5112 60.2738C71.3848 60.126 71.3848 60.126 71.3848 59.9561Z" fill="#1C5F89"/>
<path d="M44.0933 17.7209C44.5839 17.786 45.0571 17.9274 45.531 18.066C45.8309 18.1534 46.1319 18.2316 46.4356 18.3045C46.8413 18.402 47.244 18.5082 47.6464 18.6185C48.1478 18.7556 48.6504 18.88 49.157 18.9963C50.0521 19.2043 50.9398 19.4394 51.823 19.693C52.0865 19.7684 52.3505 19.8406 52.6156 19.9103C52.8871 19.9818 53.1565 20.0583 53.4254 20.139C54.032 20.3205 54.6439 20.4658 55.2613 20.6055C57.1303 21.03 57.1303 21.03 57.8258 21.7817C58.1003 22.2769 58.2196 22.7487 58.282 23.3072C58.2959 23.4187 58.2959 23.4187 58.3101 23.5323C58.3386 23.7644 58.3655 23.9966 58.3922 24.229C58.4095 24.3729 58.4267 24.5168 58.4441 24.6606C58.4959 25.0945 58.5449 25.5285 58.5936 25.9627C58.6115 26.1208 58.6294 26.2789 58.6473 26.4369C58.683 26.753 58.7186 27.0692 58.754 27.3853C58.7916 27.7199 58.8294 28.0544 58.8674 28.3889C59.0082 29.6283 59.1399 30.8686 59.2625 32.11C59.2764 32.2509 59.2904 32.3918 59.3044 32.5327C59.5948 35.4502 59.5948 35.4502 58.9372 36.3222C58.6484 36.6579 58.4041 36.8709 57.9992 37.0542C57.9617 37.0713 57.9242 37.0883 57.8856 37.1059C57.7599 37.163 57.6341 37.2198 57.5083 37.2765C57.418 37.3174 57.3278 37.3583 57.2376 37.3993C56.992 37.5107 56.7462 37.6218 56.5004 37.7328C56.2413 37.8498 55.9824 37.9671 55.7235 38.0843C55.2867 38.2821 54.8498 38.4795 54.4129 38.6769C53.913 38.9027 53.4133 39.1288 52.9137 39.3552C52.4819 39.5509 52.0499 39.7463 51.6179 39.9416C51.3613 40.0576 51.1047 40.1737 50.8482 40.29C50.1961 40.5854 49.5429 40.8783 48.888 41.1675C48.8423 41.1878 48.7966 41.208 48.7495 41.2288C48.4776 41.3491 48.2052 41.4681 47.932 41.5853C47.8485 41.6213 47.7652 41.6576 47.6821 41.6943C46.9325 42.0243 46.1799 42.2485 45.3854 41.941C44.415 41.5038 43.6857 40.5214 42.9743 39.758C42.8753 39.6521 42.7763 39.5462 42.6773 39.4403C42.045 38.7629 41.4181 38.0807 40.7958 37.394C40.2871 36.8327 39.7717 36.2784 39.2512 35.728C38.5866 35.0251 37.9334 34.3137 37.2936 33.588C37.2577 33.5474 37.2218 33.5067 37.1848 33.4648C37.0837 33.3502 36.9829 33.2354 36.8822 33.1205C36.8526 33.0868 36.823 33.0531 36.7924 33.0183C36.3016 32.4555 35.9129 31.8109 35.9247 31.0476C35.9978 30.2901 36.3368 29.6929 36.7032 29.0424C36.8459 28.7889 36.9823 28.5326 37.1158 28.2742C37.1364 28.2344 37.1569 28.1946 37.1781 28.1536C37.2194 28.0736 37.2607 27.9937 37.3019 27.9137C37.3634 27.7948 37.4254 27.6762 37.4876 27.5576C37.7392 27.0775 37.9844 26.5946 38.2258 26.1093C38.3975 25.7647 38.5739 25.4229 38.7527 25.082C38.9148 24.772 39.0718 24.4596 39.2276 24.1464C39.465 23.6693 39.7086 23.1958 39.9561 22.7239C40.0377 22.568 40.1188 22.4117 40.1999 22.2555C40.5669 21.549 40.9356 20.8432 41.3123 20.1418C41.3427 20.0851 41.3427 20.0851 41.3738 20.0272C41.4316 19.9197 41.4896 19.8122 41.5475 19.7048C41.6531 19.5022 41.7484 19.2965 41.844 19.0891C42.2885 18.1968 43.0763 17.6629 44.0933 17.7209Z" fill="#B899FF"/>
<path d="M49.9661 31.15C50.7491 31.2635 51.5059 31.6368 52.0179 32.2493C52.1206 32.4136 52.2013 32.5834 52.2788 32.7607C52.2996 32.8077 52.3203 32.8548 52.3416 32.9032C52.6259 33.5802 52.6084 34.1817 52.3316 34.8616C52.0337 35.4639 51.5902 35.779 50.9951 36.0577C50.946 36.0811 50.897 36.1045 50.8464 36.1287C50.3603 36.3431 49.8706 36.3563 49.3557 36.2248C48.5266 35.8662 48.1239 35.258 47.7964 34.4477C47.5458 33.7569 47.6147 33.0017 47.8894 32.3302C48.2947 31.5123 49.0442 31.0961 49.9661 31.15Z" fill="#875AEF"/>
<path d="M50.3902 25.933C50.824 25.9302 51.1072 26.0945 51.4153 26.3885C51.7427 26.8609 51.9214 27.3353 51.883 27.9173C51.8026 28.1987 51.6654 28.4033 51.4091 28.5533C51.0867 28.7106 50.8875 28.7739 50.5311 28.664C50.0282 28.4613 49.7868 28.2379 49.5517 27.7596C49.3833 27.3606 49.3201 27.0677 49.4716 26.6577C49.6649 26.2252 49.9029 26.0004 50.3902 25.933Z" fill="#875AEF"/>
<path d="M44.6728 28.5434C45.0384 28.6111 45.4264 28.7616 45.6944 29.0275C45.9813 29.502 46.1402 29.9498 46.023 30.5009C45.9015 30.8594 45.7779 31.0735 45.4356 31.2567C45.1868 31.3622 44.9946 31.3938 44.7219 31.3599C44.1271 31.075 43.8889 30.6912 43.6692 30.0788C43.5775 29.6314 43.6393 29.2886 43.8803 28.9019C44.0688 28.6699 44.3847 28.5768 44.6728 28.5434Z" fill="#875AEF"/>
<path d="M48.3548 22.9574C48.5475 22.9234 48.7387 22.9115 48.934 22.9023C48.9877 22.8993 49.0415 22.8963 49.0969 22.8931C49.2086 22.887 49.3203 22.8814 49.4319 22.8761C49.5935 22.8681 49.7547 22.8576 49.916 22.8467C50.0156 22.8409 50.1152 22.8353 50.2149 22.8298C50.2603 22.8265 50.3058 22.8232 50.3527 22.8198C50.6802 22.8051 50.881 22.8683 51.1627 23.0388C51.2854 23.2176 51.3521 23.3365 51.325 23.5563C51.261 23.8047 51.2082 23.9528 50.9863 24.0844C50.7279 24.1757 50.5052 24.1676 50.2338 24.1603C49.7472 24.1533 49.2776 24.1832 48.7962 24.2559C48.4929 24.296 48.3189 24.2718 48.0623 24.1035C47.8896 23.9632 47.8088 23.7784 47.7523 23.5678C47.8157 23.1829 48.0032 23.0698 48.3548 22.9574Z" fill="#895AEF"/>
<path d="M43.2274 25.2561C43.4043 25.1799 43.4786 25.1661 43.6782 25.1789C43.9133 25.2907 43.9828 25.3946 44.0896 25.6307C44.1164 25.943 44.0578 26.1309 43.8945 26.3948C43.7267 26.5743 43.5464 26.7392 43.3649 26.9047C43.0591 27.1861 42.7628 27.4643 42.4969 27.7843C42.3285 27.9577 42.1369 28.0662 41.8988 28.1087C41.6175 28.0302 41.5044 27.9574 41.344 27.7134C41.2777 27.4665 41.3025 27.3638 41.3858 27.1242C41.5074 26.9493 41.5074 26.9493 41.6649 26.7698C41.6932 26.7375 41.7215 26.7051 41.7507 26.6718C42.1135 26.2664 42.5145 25.898 42.9145 25.53C43.1395 25.305 43.1395 25.305 43.2274 25.2561Z" fill="#895AEF"/>
</g>
<defs>
<clipPath id="clip0_262_2363">
<rect width="120" height="80" rx="8" fill="white"/>
</clipPath>
</defs>
</svg>
