<svg width="60" height="60" viewBox="0 0 60 60" fill="none" xmlns="http://www.w3.org/2000/svg">
<rect width="60" height="60" rx="8" fill="#E4EBFE"/>
<path d="M31.7097 12.0087C31.8141 12.008 31.8141 12.008 31.9205 12.0074C32.0674 12.0066 32.2142 12.0061 32.3611 12.0058C32.58 12.0051 32.7989 12.0028 33.0178 12.0003C34.3101 11.9928 35.5865 12.107 36.8266 12.4903C36.9398 12.5244 36.9398 12.5244 37.0553 12.5593C39.4457 13.3049 41.5316 14.5897 43.2956 16.3621C43.3336 16.3999 43.3716 16.4378 43.4108 16.4767C45.9979 19.0779 47.3596 22.8855 47.3526 26.5139C47.3312 27.7328 47.1409 28.9496 46.8726 30.1372C46.5858 30.244 46.4092 30.1785 46.1258 30.0801C45.569 29.8979 45.0127 29.7857 44.4372 29.6806C44.4717 29.2778 44.519 28.882 44.5903 28.484C44.6904 27.8369 44.6991 27.1947 44.6988 26.5412C44.6989 26.4778 44.6989 26.4144 44.699 26.3491C44.6931 23.8013 43.9318 21.2558 42.3062 19.2541C42.2551 19.1878 42.204 19.1215 42.1513 19.0532C40.2475 16.6345 37.4861 15.1085 34.4452 14.6622C31.135 14.2754 27.9235 15.0156 25.2634 17.0518C24.8392 17.3886 24.4466 17.7575 24.06 18.1363C24.0087 18.1858 23.9575 18.2353 23.9048 18.2863C23.575 18.6177 23.2997 18.9712 23.0316 19.3526C22.9793 19.4264 22.9793 19.4264 22.9259 19.5017C22.8408 19.622 22.7559 19.7425 22.671 19.863C22.7575 19.8632 22.8439 19.8634 22.933 19.8635C25.0367 19.868 27.1405 19.8738 29.2442 19.8809C29.4468 19.8816 29.6493 19.8823 29.8519 19.883C29.9022 19.8831 29.9526 19.8833 30.0045 19.8835C30.7684 19.886 31.5323 19.8878 32.2963 19.8894C33.183 19.8911 34.0698 19.8936 34.9566 19.8971C35.4261 19.899 35.8956 19.9004 36.3651 19.9009C36.8071 19.9013 37.2492 19.9028 37.6913 19.9052C37.8533 19.9058 38.0154 19.9061 38.1775 19.906C38.3992 19.9059 38.6209 19.9071 38.8427 19.9087C38.9064 19.9084 38.9701 19.908 39.0358 19.9076C39.6622 19.9151 40.1784 20.068 40.6619 20.4727C41.0899 21.0027 41.1319 21.468 41.1231 22.1264C41.1231 22.2141 41.1232 22.3017 41.1232 22.3921C41.123 22.6803 41.1207 22.9686 41.1183 23.2568C41.1177 23.4573 41.1173 23.6578 41.117 23.8582C41.116 24.331 41.1135 24.8037 41.1105 25.2765C41.1071 25.815 41.1054 26.3535 41.1039 26.8921C41.1007 27.9992 41.0953 29.1063 41.0885 30.2133C41.015 30.255 40.9415 30.2967 40.8658 30.3396C40.7686 30.3949 40.6714 30.4502 40.5742 30.5055C40.5258 30.5329 40.4775 30.5603 40.4276 30.5885C38.7671 31.5341 37.6835 32.9617 37.1311 34.7797C37.018 35.2694 37.018 35.2694 36.9027 35.769C32.9848 35.7941 29.0669 35.8193 25.0303 35.8451C25.9593 36.5127 25.9593 36.5127 26.9377 37.0771C27.0121 37.1154 27.0865 37.1537 27.1631 37.1932C27.9012 37.5628 28.6503 37.8318 29.4444 38.0522C29.5 38.0691 29.5555 38.0859 29.6128 38.1033C30.5672 38.3875 31.5346 38.3842 32.5219 38.3852C32.588 38.3853 32.654 38.3855 32.722 38.3856C33.7807 38.3853 34.7683 38.2819 35.7945 38.0094C36.188 37.9064 36.5756 37.8061 36.9789 37.7478C36.9964 37.8251 37.014 37.9024 37.0321 37.982C37.1875 38.6453 37.3855 39.2548 37.6638 39.8787C37.6889 39.9541 37.714 40.0294 37.7399 40.107C36.0701 40.7812 34.4186 41.0527 32.6218 41.0441C32.5601 41.0439 32.4983 41.0438 32.4347 41.0436C31.4967 41.0396 30.5901 41.0025 29.6727 40.792C29.6044 40.7769 29.5361 40.7617 29.4657 40.7462C27.2131 40.2366 25.2219 39.2842 23.4321 37.8239C23.1346 37.9444 22.9356 38.1486 22.715 38.3739C22.6766 38.4125 22.6382 38.4511 22.5986 38.4909C22.4765 38.6139 22.355 38.7373 22.2334 38.8608C22.1505 38.9445 22.0676 39.0281 21.9846 39.1117C21.7817 39.3163 21.5794 39.5213 21.3772 39.7265C20.6416 38.9908 19.9059 38.2551 19.1702 37.5195C19.7227 36.9669 20.2752 36.4144 20.8445 35.8451C20.6125 35.8444 20.3806 35.8437 20.1416 35.843C19.3742 35.8404 18.6069 35.8362 17.8396 35.8311C17.3745 35.8281 16.9094 35.8257 16.4443 35.8245C15.9952 35.8234 15.5462 35.8207 15.0971 35.8171C14.926 35.816 14.7549 35.8154 14.5837 35.8153C14.3436 35.8151 14.1036 35.8131 13.8635 35.8106C13.7931 35.811 13.7227 35.8113 13.6501 35.8117C13.1129 35.8031 12.7123 35.6706 12.3023 35.3177C12.2612 35.2689 12.2202 35.22 12.178 35.1697C12.1358 35.1212 12.0936 35.0728 12.0502 35.0228C11.8055 34.6513 11.7688 34.2882 11.7676 33.8514C11.7673 33.7979 11.7669 33.7445 11.7666 33.6895C11.7656 33.5114 11.7657 33.3334 11.7658 33.1553C11.7654 33.0273 11.7649 32.8992 11.7643 32.7712C11.7629 32.424 11.7626 32.0768 11.7625 31.7296C11.7624 31.5125 11.7621 31.2955 11.7617 31.0784C11.7602 30.3207 11.7596 29.5631 11.7597 28.8054C11.7598 28.0998 11.7582 27.3942 11.7558 26.6886C11.7538 26.0822 11.753 25.4758 11.7531 24.8694C11.7532 24.5075 11.7527 24.1456 11.7511 23.7836C11.7496 23.4432 11.7496 23.1028 11.7507 22.7623C11.7509 22.6376 11.7505 22.513 11.7496 22.3883C11.7444 21.6306 11.7632 21.0916 12.2684 20.4909C12.797 20.0483 13.2329 19.9251 13.9136 19.9428C14.0391 19.9453 14.1646 19.9477 14.2901 19.9501C14.3564 19.9514 14.4228 19.9528 14.4911 19.9542C14.9175 19.9617 15.344 19.9636 15.7704 19.9662C16.1447 19.9688 16.5188 19.9736 16.8931 19.9832C17.2557 19.9924 17.618 19.9956 17.9807 19.9947C18.1185 19.9955 18.2562 19.9984 18.3939 20.0035C19.0264 20.0321 19.0264 20.0321 19.6268 19.863C19.9315 19.5699 20.0833 19.1874 20.2401 18.8022C20.3587 18.5425 20.5231 18.3176 20.6923 18.0888C20.7263 18.0426 20.7602 17.9963 20.7953 17.9487C20.8868 17.825 20.9797 17.7023 21.0728 17.5798C21.1239 17.5115 21.175 17.4433 21.2277 17.3729C23.4476 14.5329 26.8649 12.5723 30.4372 12.0787C30.8623 12.0284 31.2818 12.0108 31.7097 12.0087Z" fill="#6FB8D4"/>
<path d="M22.5193 19.9391C24.7302 19.9338 26.9411 19.9298 29.152 19.9273C29.3564 19.9271 29.5608 19.9268 29.7652 19.9266C29.8414 19.9265 29.8414 19.9265 29.9191 19.9264C30.741 19.9254 31.5629 19.9236 32.3848 19.9215C33.2286 19.9194 34.0723 19.9181 34.9161 19.9177C35.3898 19.9174 35.8636 19.9167 36.3373 19.915C36.7834 19.9134 37.2294 19.913 37.6755 19.9133C37.8391 19.9133 38.0026 19.9128 38.1662 19.9119C38.3899 19.9108 38.6136 19.9111 38.8373 19.9117C38.9017 19.911 38.966 19.9104 39.0323 19.9097C39.6609 19.9144 40.1772 20.0666 40.6624 20.4728C41.0903 21.0027 41.1324 21.468 41.1236 22.1264C41.1236 22.2141 41.1236 22.3018 41.1237 22.3921C41.1235 22.6804 41.1211 22.9686 41.1187 23.2569C41.1182 23.4573 41.1177 23.6578 41.1174 23.8583C41.1165 24.331 41.114 24.8038 41.1109 25.2765C41.1075 25.8151 41.1058 26.3536 41.1043 26.8921C41.1011 27.9992 41.0958 29.1063 41.089 30.2134C41.0155 30.255 40.942 30.2967 40.8662 30.3397C40.769 30.3949 40.6718 30.4502 40.5746 30.5055C40.5263 30.5329 40.4779 30.5603 40.4281 30.5885C38.7887 31.5221 37.6487 32.9636 37.1315 34.7797C37.0904 34.9511 37.0503 35.1227 37.0112 35.2946C36.9909 35.3835 36.9706 35.4724 36.9497 35.564C36.9343 35.6317 36.919 35.6993 36.9032 35.7691C35.3525 35.7905 33.8018 35.8065 32.251 35.8164C31.5308 35.8211 30.8108 35.8275 30.0907 35.838C29.4627 35.8471 28.8347 35.853 28.2067 35.855C27.8744 35.8562 27.5423 35.859 27.2101 35.8656C26.8966 35.8719 26.5834 35.8737 26.2699 35.8724C26.1555 35.8726 26.0412 35.8744 25.9269 35.8779C25.3519 35.8948 24.9087 35.8446 24.4634 35.4581C24.2616 35.2659 24.0736 35.0646 23.8892 34.8558C23.811 34.7701 23.7328 34.6845 23.6546 34.599C21.2653 31.9551 20.5441 28.6648 20.6835 25.2026C20.7742 23.5864 21.3653 21.9942 22.1519 20.5949C22.1873 20.5317 22.2226 20.4685 22.259 20.4033C22.3456 20.2485 22.4324 20.0938 22.5193 19.9391Z" fill="#66DDAC"/>
<path d="M13.9245 19.9305C14.017 19.9305 14.017 19.9305 14.1113 19.9304C14.3147 19.9305 14.5182 19.9311 14.7216 19.9317C14.8628 19.9318 15.004 19.9319 15.1451 19.932C15.5165 19.9323 15.8878 19.9331 16.2592 19.9339C16.6382 19.9347 17.0172 19.935 17.3963 19.9354C18.1398 19.9362 18.8833 19.9375 19.6268 19.9391C19.6004 20.0012 19.6004 20.0012 19.5735 20.0646C19.4931 20.2541 19.4129 20.4437 19.3327 20.6334C19.3051 20.6985 19.2774 20.7636 19.2489 20.8307C18.1338 23.4701 17.778 26.5621 18.4091 29.3762C18.4214 29.4354 18.4336 29.4946 18.4462 29.5555C18.8963 31.7093 19.8049 33.7221 21.1489 35.4646C21.0987 35.5651 21.0485 35.6656 20.9967 35.7691C19.9752 35.7761 18.9538 35.7815 17.9323 35.7848C17.458 35.7864 16.9836 35.7886 16.5093 35.792C16.0514 35.7953 15.5935 35.7972 15.1355 35.7979C14.961 35.7985 14.7865 35.7996 14.6119 35.8012C14.3671 35.8035 14.1223 35.8038 13.8774 35.8036C13.8056 35.8047 13.7338 35.8058 13.6598 35.8069C13.1163 35.8036 12.717 35.6747 12.3023 35.3178C12.2612 35.2689 12.2202 35.2201 12.178 35.1697C12.1358 35.1213 12.0936 35.0728 12.0502 35.0229C11.8056 34.6513 11.7688 34.2883 11.7676 33.8514C11.7673 33.798 11.7669 33.7446 11.7666 33.6895C11.7656 33.5115 11.7657 33.3334 11.7658 33.1553C11.7654 33.0273 11.7649 32.8993 11.7643 32.7712C11.7629 32.424 11.7626 32.0768 11.7625 31.7296C11.7624 31.5126 11.7621 31.2955 11.7617 31.0784C11.7602 30.3208 11.7596 29.5631 11.7597 28.8054C11.7598 28.0998 11.7582 27.3942 11.7558 26.6886C11.7538 26.0822 11.753 25.4758 11.7531 24.8694C11.7532 24.5075 11.7527 24.1456 11.7511 23.7837C11.7496 23.4432 11.7496 23.1028 11.7507 22.7623C11.7509 22.6377 11.7505 22.513 11.7496 22.3883C11.7444 21.6306 11.7632 21.0917 12.2684 20.4909C12.7986 20.047 13.2423 19.9273 13.9245 19.9305Z" fill="#0BC179"/>
<path d="M32.4343 14.5159C32.5934 14.5167 32.7525 14.5159 32.9116 14.5149C33.931 14.5137 34.9258 14.6114 35.9094 14.8925C35.9802 14.9124 36.051 14.9323 36.124 14.9529C38.1009 15.5269 39.7577 16.5447 41.2415 17.9605C41.3019 18.0168 41.3622 18.0731 41.4244 18.1311C42.7808 19.4327 43.7685 21.2041 44.3143 22.9929C44.3315 23.0491 44.3488 23.1052 44.3665 23.163C44.6654 24.2085 44.7792 25.2336 44.768 26.3171C44.7662 26.5043 44.7664 26.6913 44.7669 26.8785C44.7657 27.5721 44.7233 28.2366 44.5902 28.9196C44.5758 28.995 44.5614 29.0703 44.5465 29.148C44.5116 29.3259 44.4756 29.5034 44.438 29.6807C44.3013 29.685 44.3013 29.685 44.1618 29.6893C43.2254 29.7247 42.3541 29.8313 41.4528 30.1036C41.3846 30.1242 41.3164 30.1448 41.2462 30.1659C41.1944 30.1816 41.1427 30.1973 41.0893 30.2134C41.0892 30.1677 41.0891 30.122 41.089 30.0749C41.0862 28.9607 41.0817 27.8465 41.0753 26.7323C41.0723 26.1934 41.0698 25.6546 41.0687 25.1158C41.0676 24.5957 41.0649 24.0756 41.0613 23.5555C41.0602 23.3571 41.0596 23.1588 41.0595 22.9605C41.0593 22.6825 41.0573 22.4045 41.0548 22.1265C41.0551 22.0447 41.0555 21.9629 41.0559 21.8787C41.0482 21.3176 40.9617 20.8942 40.5646 20.4702C40.4924 20.4192 40.4924 20.4192 40.4186 20.3673C40.3711 20.3322 40.3235 20.2971 40.2745 20.2609C39.8142 20.0146 39.3694 19.9929 38.8588 19.9941C38.7891 19.9937 38.7193 19.9932 38.6475 19.9928C38.4146 19.9915 38.1817 19.9913 37.9488 19.991C37.7815 19.9903 37.6142 19.9896 37.447 19.9887C36.9934 19.9866 36.5398 19.9855 36.0862 19.9845C35.6119 19.9833 35.1377 19.9813 34.6634 19.9793C33.8676 19.9762 33.0718 19.9735 32.276 19.9713C31.4565 19.969 30.637 19.9664 29.8175 19.9634C29.7669 19.9632 29.7163 19.963 29.6643 19.9628C29.4106 19.9618 29.157 19.9609 28.9034 19.9599C26.8008 19.9521 24.6983 19.9453 22.5957 19.9392C23.3951 18.5247 24.6633 17.3198 26.0204 16.4384C26.0702 16.4057 26.12 16.3731 26.1713 16.3395C28.0451 15.1297 30.2064 14.5024 32.4343 14.5159Z" fill="#C4ECFE"/>
<path d="M22.5196 19.9391C24.7305 19.9338 26.9414 19.9298 29.1523 19.9273C29.3567 19.9271 29.5611 19.9268 29.7655 19.9266C29.8417 19.9265 29.8417 19.9265 29.9194 19.9264C30.7413 19.9254 31.5632 19.9236 32.3851 19.9215C33.2289 19.9194 34.0726 19.9181 34.9164 19.9177C35.3901 19.9174 35.8639 19.9167 36.3376 19.915C36.7837 19.9134 37.2298 19.913 37.6758 19.9133C37.8394 19.9133 38.0029 19.9128 38.1665 19.9119C38.3902 19.9108 38.6139 19.9111 38.8376 19.9117C38.902 19.911 38.9663 19.9104 39.0326 19.9097C39.6612 19.9144 40.1775 20.0666 40.6627 20.4728C41.0906 21.0027 41.1327 21.468 41.1239 22.1264C41.1239 22.2141 41.124 22.3018 41.124 22.3921C41.1238 22.6804 41.1214 22.9686 41.119 23.2569C41.1185 23.4573 41.118 23.6578 41.1177 23.8583C41.1168 24.331 41.1143 24.8038 41.1112 25.2765C41.1078 25.8151 41.1062 26.3536 41.1046 26.8921C41.1014 27.9992 41.0961 29.1063 41.0893 30.2134C41.0158 30.255 40.9423 30.2967 40.8666 30.3397C40.7693 30.3949 40.6721 30.4502 40.5749 30.5055C40.5266 30.5329 40.4782 30.5603 40.4284 30.5885C38.789 31.5221 37.649 32.9636 37.1318 34.7797C37.0907 34.9511 37.0507 35.1227 37.0115 35.2946C36.9912 35.3835 36.9709 35.4724 36.95 35.564C36.9347 35.6317 36.9193 35.6993 36.9035 35.7691C35.3528 35.7905 33.8021 35.8065 32.2513 35.8164C31.5311 35.8211 30.8111 35.8275 30.091 35.838C29.463 35.8471 28.835 35.853 28.207 35.855C27.8747 35.8562 27.5426 35.8589 27.2104 35.8656C26.8969 35.8719 26.5837 35.8737 26.2702 35.8724C26.1558 35.8726 26.0415 35.8744 25.9272 35.8779C25.3449 35.895 24.9052 35.8412 24.4558 35.449C24.257 35.2589 24.0726 35.0611 23.8895 34.8558C23.8405 34.804 23.7915 34.7522 23.741 34.6988C23.6342 34.5836 23.5331 34.4631 23.4328 34.3421C23.3685 34.2656 23.3041 34.1891 23.2378 34.1102C23.0312 33.8387 22.8526 33.5469 22.6718 33.2576C27.0418 33.2576 31.4117 33.2576 35.9141 33.2576C35.9393 33.0316 35.9644 32.8055 35.9902 32.5726C36.2862 31.7958 36.9142 31.1201 37.6592 30.7491C38.0559 30.5808 38.2509 30.5939 38.73 30.5939C38.73 28.7354 38.73 26.8769 38.73 24.9621C38.4789 24.937 38.2277 24.9119 37.969 24.886C37.1674 24.6231 36.5283 24.0294 36.1425 23.2878C36.0163 22.9598 35.9141 22.6513 35.9141 22.2984C31.1423 22.2984 26.3705 22.2984 21.4541 22.2984C21.5397 21.7845 21.5397 21.7845 21.6574 21.5549C21.683 21.5045 21.7085 21.4541 21.7347 21.4022C21.7614 21.3511 21.7881 21.2999 21.8156 21.2472C21.8411 21.1969 21.8666 21.1466 21.8929 21.0948C22.0364 20.8141 22.1863 20.5372 22.3398 20.2618C22.3736 20.2011 22.4074 20.1404 22.4422 20.0778C22.4678 20.0321 22.4933 19.9863 22.5196 19.9391Z" fill="#0CC179"/>
<path d="M43.8198 31.3264C43.9403 31.3277 43.9403 31.3277 44.0633 31.329C45.4792 31.3587 46.775 31.8637 47.7868 32.877C48.7787 33.9422 49.3761 35.262 49.3306 36.7435C49.1833 38.3941 48.5354 39.7939 47.2541 40.8681C46.063 41.754 44.5494 42.2008 43.0678 41.9877C41.6146 41.7256 40.3534 40.9547 39.469 39.7705C38.5916 38.4454 38.3357 36.8467 38.631 35.2871C38.9735 33.9817 39.8399 32.7995 41.0039 32.1072C41.1578 32.0212 41.313 31.9392 41.4701 31.8591C41.5178 31.8346 41.5656 31.8101 41.6149 31.7849C42.3306 31.439 43.0287 31.3152 43.8198 31.3264Z" fill="#FE9D00"/>
<path d="M48.1522 30.9842C48.3661 31.1523 48.5714 31.3279 48.7761 31.5071C48.829 31.5523 48.8818 31.5975 48.9363 31.6441C50.1246 32.7399 50.9109 34.5274 50.9986 36.1272C51.0339 37.9676 50.5409 39.8405 49.2613 41.2153C49.1265 41.3549 48.9895 41.492 48.8522 41.6291C48.8079 41.6787 48.7637 41.7284 48.7181 41.7795C47.6278 42.9824 45.7919 43.6116 44.2148 43.7009C42.1246 43.7634 40.3049 42.9944 38.7872 41.5673C37.9237 40.6601 37.0092 39.2227 36.9723 37.9475C36.9748 37.8816 36.9772 37.8156 36.9797 37.7477C36.9349 37.7608 36.8901 37.7738 36.8439 37.7872C36.6371 37.8472 36.4303 37.9069 36.2234 37.9665C36.153 37.987 36.0825 38.0075 36.0098 38.0287C35.1194 38.2849 34.2709 38.4402 33.343 38.4535C33.2505 38.4549 33.2505 38.4549 33.1561 38.4564C31.7789 38.4736 30.4698 38.4605 29.1409 38.0521C29.0472 38.024 29.0472 38.024 28.9516 37.9953C27.5502 37.5608 26.1658 36.8563 25.0312 35.9212C25.0061 35.871 24.981 35.8207 24.9551 35.769C28.8981 35.769 32.8411 35.769 36.9036 35.769C36.9287 35.5429 36.9539 35.3169 36.9797 35.084C37.3924 33.2841 38.4888 31.7252 40.0477 30.727C40.8325 30.2667 41.6426 29.935 42.5354 29.7566C42.6021 29.7428 42.6687 29.729 42.7373 29.7147C44.6256 29.4613 46.6122 29.8277 48.1522 30.9842ZM39.7956 33.1053C38.7025 34.461 38.4667 35.8213 38.578 37.5194C38.7574 38.9496 39.5871 40.1182 40.692 40.9983C41.8817 41.8433 43.2098 42.1536 44.6497 41.9737C46.1068 41.7223 47.461 40.9713 48.3342 39.7518C49.1532 38.5046 49.501 37.0231 49.2232 35.5502C48.8907 34.1623 48.1526 32.9869 46.9496 32.192C44.6104 30.7866 41.6722 31.061 39.7956 33.1053Z" fill="#FEC83E"/>
<path d="M18.4239 37.4244C18.4941 37.4224 18.5642 37.4205 18.6365 37.4185C19.1501 37.4743 19.4871 37.7137 19.8399 38.0749C19.879 38.1138 19.918 38.1528 19.9583 38.1929C20.0402 38.2749 20.1217 38.3573 20.2029 38.4401C20.3261 38.5655 20.4507 38.6895 20.5755 38.8133C20.6554 38.8937 20.7353 38.9742 20.815 39.0547C20.8701 39.1095 20.8701 39.1095 20.9262 39.1653C21.2217 39.469 21.4876 39.8066 21.5677 40.2308C21.5332 41.6323 20.1196 42.5987 19.1975 43.5259C19.1294 43.5943 19.0614 43.6628 18.9914 43.7333C18.7054 44.0208 18.4194 44.3083 18.133 44.5955C17.7259 45.0038 17.3195 45.4128 16.914 45.8227C16.592 46.1479 16.269 46.4721 15.9457 46.796C15.8093 46.9329 15.6731 47.0702 15.5374 47.2078C15.3471 47.4004 15.1557 47.5918 14.964 47.783C14.909 47.8392 14.854 47.8955 14.7974 47.9534C14.1809 48.5626 13.5244 48.9369 12.6494 48.9591C11.9347 48.953 11.3203 48.671 10.7991 48.1844C10.2334 47.5999 10.0259 47.0341 10 46.2241C10.04 44.988 10.9389 44.2029 11.7693 43.379C11.8951 43.2541 12.02 43.1283 12.1449 43.0024C12.2248 42.9226 12.3048 42.8428 12.3848 42.7631C12.4221 42.7255 12.4594 42.688 12.4977 42.6492C12.7603 42.3903 12.7603 42.3903 12.9301 42.3903C12.9492 42.3464 12.9684 42.3025 12.9882 42.2573C13.0941 42.0642 13.2141 41.9347 13.3696 41.7788C13.4285 41.7194 13.4874 41.66 13.5481 41.5988C13.6118 41.5355 13.6755 41.4721 13.7411 41.4069C13.8064 41.3414 13.8717 41.276 13.9389 41.2085C14.0769 41.0704 14.2151 40.9325 14.3535 40.7948C14.566 40.5831 14.7777 40.3706 14.9894 40.158C15.1234 40.024 15.2575 39.8901 15.3916 39.7563C15.4553 39.6924 15.5189 39.6284 15.5845 39.5625C15.6729 39.4748 15.6729 39.4748 15.7631 39.3854C15.841 39.3077 15.841 39.3077 15.9204 39.2284C16.0504 39.1177 16.0504 39.1177 16.2026 39.1177C16.2233 39.0724 16.2441 39.027 16.2654 38.9803C16.4067 38.7164 16.6149 38.5283 16.8257 38.3186C16.8677 38.2754 16.9098 38.2321 16.9531 38.1875C17.3694 37.7708 17.8191 37.4344 18.4239 37.4244Z" fill="#986BF4"/>
<path d="M28.6834 23.8966C28.7325 23.9317 28.7817 23.9668 28.8323 24.003C29.7227 24.6984 30.2913 25.8514 30.5099 26.9408C30.5433 27.265 30.5498 27.5854 30.548 27.9111C30.5476 27.998 30.5472 28.0848 30.5468 28.1743C30.5325 28.8691 30.4286 29.4276 30.1294 30.0611C30.0972 30.1345 30.065 30.2079 30.0319 30.2835C29.5151 31.3471 28.5848 32.1807 27.4829 32.5934C26.67 32.8587 25.5399 32.8747 24.7571 32.5212C24.6966 32.4879 24.636 32.4547 24.5737 32.4204C24.5029 32.3816 24.4322 32.3429 24.3593 32.303C23.1815 31.6027 22.5334 30.5483 22.13 29.2584C21.8616 28.1317 21.9441 26.7668 22.4427 25.7231C22.4749 25.6498 22.5071 25.5765 22.5402 25.501C22.9419 24.6731 23.6176 23.961 24.4215 23.516C24.4731 23.4866 24.5247 23.4572 24.5778 23.4269C25.9409 22.695 27.4786 23.0158 28.6834 23.8966Z" fill="#007940"/>
<path d="M16.8873 22.2983C17.4649 22.2983 18.0425 22.2983 18.6377 22.2983C18.5935 22.6075 18.5498 22.9088 18.4902 23.214C18.4771 23.282 18.4639 23.35 18.4504 23.42C18.423 23.5601 18.3957 23.7002 18.3683 23.8404C18.3552 23.9084 18.342 23.9763 18.3285 24.0464C18.3107 24.1376 18.3107 24.1376 18.2925 24.2306C18.2113 24.6867 18.1684 25.13 18.1656 25.5932C18.1651 25.6525 18.1645 25.7118 18.164 25.773C18.1626 25.9641 18.1622 26.1551 18.162 26.3462C18.162 26.4114 18.1619 26.4766 18.1619 26.5438C18.1631 27.5068 18.1979 28.4333 18.4094 29.3761C18.4216 29.4353 18.4339 29.4945 18.4465 29.5555C18.7148 30.8396 19.1875 32.0544 19.7032 33.2575C18.7739 33.2575 17.8447 33.2575 16.8873 33.2575C16.837 33.0064 16.7868 32.7552 16.735 32.4965C16.4068 31.6942 15.904 31.2147 15.1368 30.8221C14.8103 30.7217 14.4838 30.6212 14.1475 30.5177C14.1475 28.6843 14.1475 26.851 14.1475 24.962C14.4488 24.8867 14.7502 24.8113 15.0607 24.7337C15.775 24.4396 16.3088 23.9822 16.6589 23.2877C16.7989 22.9448 16.833 22.6785 16.8873 22.2983Z" fill="#66DDAC"/>
<path d="M24.9551 35.769C28.8981 35.769 32.8411 35.769 36.9036 35.769C36.9036 36.422 36.9036 37.075 36.9036 37.7478C35.7211 38.1282 34.5917 38.4357 33.343 38.4535C33.2813 38.4545 33.2197 38.4555 33.1561 38.4564C31.7789 38.4737 30.4698 38.4606 29.1409 38.0522C29.0784 38.0335 29.0159 38.0147 28.9516 37.9954C27.5502 37.5608 26.1658 36.8564 25.0312 35.9213C25.0061 35.871 24.981 35.8208 24.9551 35.769Z" fill="#C4ECFD"/>
<path d="M44.2713 33.4667C44.352 33.4676 44.352 33.4676 44.4343 33.4685C45.1131 33.4824 45.65 33.5836 46.1882 34.0185C46.3785 34.3039 46.3812 34.4415 46.3404 34.7796C46.1634 35.0243 46.0536 35.1405 45.7553 35.2029C45.523 35.1634 45.3723 35.1045 45.1608 35.0079C44.6743 34.8015 44.1973 34.7917 43.6767 34.8557C43.323 35.0203 43.1529 35.2387 42.9156 35.5406C42.9934 35.5423 42.9934 35.5423 43.0727 35.544C43.3074 35.5496 43.542 35.557 43.7766 35.5644C43.899 35.567 43.899 35.567 44.0238 35.5696C44.1411 35.5736 44.1411 35.5736 44.2609 35.5778C44.333 35.5798 44.4051 35.5818 44.4795 35.5838C44.6962 35.622 44.7672 35.6677 44.8944 35.845C44.9267 36.1554 44.9182 36.266 44.7422 36.53C44.5363 36.5629 44.5363 36.5629 44.2778 36.5689C44.1395 36.573 44.1395 36.573 43.9984 36.5771C43.9016 36.5788 43.8049 36.5805 43.7052 36.5823C43.6079 36.5849 43.5106 36.5875 43.4103 36.5902C43.1693 36.5965 42.9284 36.6017 42.6873 36.6061C42.6873 36.7065 42.6873 36.807 42.6873 36.9105C42.7465 36.912 42.8056 36.9135 42.8666 36.9151C43.1335 36.9223 43.4003 36.9307 43.6672 36.9391C43.8068 36.9426 43.8068 36.9426 43.9493 36.9462C44.0381 36.9491 44.1269 36.9521 44.2184 36.9551C44.3415 36.9587 44.3415 36.9587 44.4671 36.9624C44.6661 36.9866 44.6661 36.9866 44.8183 37.1388C44.8412 37.2982 44.8412 37.2982 44.8421 37.4813C44.8433 37.5417 44.8446 37.6022 44.8459 37.6644C44.8368 37.717 44.8277 37.7696 44.8183 37.8238C44.5632 37.9938 44.4821 37.9941 44.1848 37.9909C44.0674 37.9901 44.0674 37.9901 43.9477 37.9894C43.8661 37.9881 43.7845 37.9868 43.7005 37.9855C43.618 37.9848 43.5356 37.9841 43.4506 37.9834C43.2469 37.9816 43.0432 37.9791 42.8395 37.976C42.8882 38.0466 42.9369 38.1173 42.987 38.19C43.144 38.4326 43.144 38.4326 43.2201 38.6609C43.6361 38.8866 44.1251 38.9608 44.59 38.8893C44.9234 38.7889 45.234 38.6728 45.5136 38.4626C45.6554 38.3565 45.6554 38.3565 45.8457 38.3185C46.036 38.3565 46.036 38.3565 46.212 38.5087C46.3767 38.8017 46.4039 39.0172 46.3404 39.3459C46.1306 39.7473 45.7623 39.8893 45.351 40.0308C44.6235 40.2247 43.6264 40.2604 42.9585 39.8977C42.8406 39.8183 42.7243 39.7363 42.6112 39.6503C42.5406 39.6064 42.47 39.5624 42.3972 39.5171C42.0006 39.1092 41.7513 38.5775 41.5457 38.0521C41.4935 38.0492 41.4412 38.0464 41.3873 38.0435C41.3187 38.0385 41.2501 38.0335 41.1795 38.0283C41.0775 38.0217 41.0775 38.0217 40.9735 38.0149C40.7561 37.9701 40.6794 37.9318 40.5564 37.7477C40.5454 37.5809 40.5454 37.5809 40.5706 37.4004C40.5817 37.3108 40.5817 37.3108 40.5929 37.2194C40.6325 37.0627 40.6325 37.0627 40.7847 36.9105C40.9893 36.89 41.1874 36.9039 41.3935 36.9105C41.3935 36.8101 41.3935 36.7096 41.3935 36.6061C41.3119 36.6124 41.2303 36.6186 41.1462 36.6251C40.8608 36.6061 40.8608 36.6061 40.6753 36.4872C40.5122 36.2328 40.5186 36.0654 40.5564 35.7689C40.6497 35.6384 40.6497 35.6384 40.7847 35.5406C40.9574 35.5311 40.9574 35.5311 41.151 35.5406C41.3565 35.5354 41.3565 35.5354 41.5457 35.4645C41.7 35.2686 41.795 35.0704 41.9001 34.8447C42.2109 34.1842 42.7725 33.8206 43.435 33.5503C43.717 33.475 43.9817 33.4627 44.2713 33.4667Z" fill="#DF6100"/>
<path d="M21.2448 35.6211C21.4208 35.7159 21.5252 35.8302 21.6538 35.983C21.6988 36.0353 21.7437 36.0876 21.79 36.1415C21.9107 36.3017 21.9107 36.3017 21.9886 36.4691C22.0574 36.6332 22.0574 36.6332 22.2912 36.6822C22.4167 36.8095 22.4167 36.8095 22.5481 36.9676C22.5948 37.0223 22.6415 37.0769 22.6896 37.1332C22.7339 37.1853 22.7783 37.2374 22.824 37.2911C23.0868 37.5852 23.2079 37.6741 23.585 37.7477C23.7499 37.8637 23.8918 37.9923 24.0416 38.1282C23.7442 38.1282 23.6523 38.0136 23.4328 37.8238C23.1353 37.9444 22.9363 38.1485 22.7157 38.3738C22.6581 38.4317 22.6581 38.4317 22.5993 38.4909C22.4772 38.6138 22.3557 38.7373 22.2341 38.8607C22.1512 38.9444 22.0683 39.028 21.9853 39.1116C21.7825 39.3162 21.5801 39.5212 21.378 39.7264C20.6423 38.9908 19.9066 38.2551 19.1709 37.5194C19.4351 37.2458 19.7005 36.9735 19.9671 36.7023C20.0576 36.6098 20.1478 36.517 20.2377 36.4239C20.3668 36.2902 20.497 36.1578 20.6276 36.0255C20.6677 35.9835 20.7077 35.9415 20.749 35.8982C21.0313 35.6157 21.0313 35.6157 21.2448 35.6211Z" fill="#2C363C"/>
<path d="M34.6154 26.6888C34.7269 26.6869 34.7269 26.6869 34.8406 26.6851C35.3867 26.6847 35.7193 26.7631 36.1328 27.1407C36.3411 27.4715 36.356 27.7019 36.2945 28.0825C36.187 28.3989 36.0518 28.598 35.7677 28.7796C35.4072 28.9253 35.0077 28.8932 34.6249 28.8911C34.5371 28.8935 34.4492 28.896 34.3587 28.8985C33.9426 28.899 33.6371 28.8984 33.3094 28.6232C33.0731 28.3823 32.951 28.1919 32.9414 27.8464C32.9646 27.3985 33.0749 27.1701 33.4025 26.8648C33.8041 26.67 34.1775 26.6873 34.6154 26.6888Z" fill="#00793E"/>
<path d="M24.9551 35.769C28.873 35.769 32.7909 35.769 36.8275 35.769C36.8275 35.7942 36.8275 35.8193 36.8275 35.8451C31.1767 35.8828 31.1767 35.8828 25.4117 35.9213C25.4368 36.0217 25.4619 36.1222 25.4878 36.2257C25.3988 36.1641 25.3101 36.1022 25.2214 36.0402C25.172 36.0057 25.1226 35.9713 25.0716 35.9358C25.0332 35.9059 24.9947 35.876 24.9551 35.8451C24.9551 35.82 24.9551 35.7949 24.9551 35.769Z" fill="#E2F2FE"/>
<path d="M18.79 37.5195C19.2865 37.557 19.2865 37.557 19.4702 37.7526C19.4969 37.8013 19.5236 37.8499 19.5511 37.9001C19.4255 37.9001 19.2999 37.9001 19.1706 37.9001C19.1706 37.8247 19.1706 37.7494 19.1706 37.6717C19.045 37.6466 18.9194 37.6215 18.79 37.5956C18.79 37.5705 18.79 37.5454 18.79 37.5195Z" fill="#8E63E4"/>
<path d="M24.9551 35.769C25.1058 35.769 25.2565 35.769 25.4117 35.769C25.4368 35.9197 25.4619 36.0704 25.4878 36.2257C25.3988 36.1641 25.3101 36.1022 25.2214 36.0402C25.172 36.0057 25.1226 35.9713 25.0716 35.9358C25.0332 35.9059 24.9947 35.876 24.9551 35.8451C24.9551 35.82 24.9551 35.7949 24.9551 35.769Z" fill="#D9EDF3"/>
<path d="M39.1859 31.5071C39.0808 31.8223 38.9121 31.9121 38.6532 32.1159C38.603 32.0908 38.5527 32.0657 38.501 32.0398C38.5861 31.9506 38.6719 31.8619 38.7578 31.7734C38.8294 31.6993 38.8294 31.6993 38.9023 31.6236C39.0337 31.5071 39.0337 31.5071 39.1859 31.5071Z" fill="#EECC38"/>
<path d="M20.9209 39.1938C21.1457 39.2982 21.3349 39.4213 21.5297 39.5744C21.4544 39.6246 21.3791 39.6748 21.3014 39.7266C21.1759 39.5508 21.0503 39.375 20.9209 39.1938Z" fill="#1B2A26"/>
</svg>
