<svg width="110" height="78" viewBox="0 0 110 78" fill="none" xmlns="http://www.w3.org/2000/svg">
<path d="M40.0422 7.15837C41.1031 7.98702 42.0281 8.97787 42.9769 9.92983C43.2263 10.1783 43.4758 10.4266 43.7253 10.6749C44.4003 11.347 45.0737 12.0206 45.7468 12.6945C46.3097 13.258 46.8734 13.8207 47.4371 14.3835C48.7673 15.7114 50.0962 17.0405 51.4244 18.3705C52.7926 19.7406 54.1629 21.1086 55.5343 22.4757C56.7136 23.6514 57.8916 24.8284 59.0687 26.0064C59.7709 26.7091 60.4735 27.4113 61.1773 28.1124C61.8391 28.7717 62.4993 29.4326 63.1584 30.0947C63.3999 30.3368 63.6419 30.5783 63.8845 30.8192C66.2467 33.1662 66.2467 33.1662 66.917 34.5796C67.0181 34.7919 67.0181 34.7919 67.1212 35.0084C67.9097 36.7621 67.7173 38.7086 67.1682 40.5001C66.2812 42.3541 64.773 43.7244 63.3398 45.156C63.0902 45.4069 62.8408 45.658 62.5914 45.9092C61.917 46.5878 61.2411 47.2649 60.5648 47.9416C60.1417 48.3651 59.7189 48.7889 59.2962 49.2128C57.896 50.6173 56.4948 52.0208 55.0922 53.4229C55.0168 53.4983 54.9414 53.5737 54.8638 53.6513C54.7883 53.7268 54.7128 53.8022 54.6351 53.88C53.4117 55.1032 52.1907 56.3287 50.9708 57.5554C49.7148 58.8185 48.4568 60.0796 47.1971 61.339C46.4913 62.0447 45.7863 62.7511 45.0831 63.4594C44.4216 64.1256 43.7579 64.7893 43.0924 65.4513C42.8494 65.6938 42.6072 65.9371 42.366 66.1813C41.0899 67.4719 39.9628 68.5762 38.2346 69.2241C38.1272 69.2652 38.0198 69.3064 37.9092 69.3487C35.864 70.0275 33.8565 69.4696 32.0018 68.5991C30.3601 67.5503 29.0243 65.9917 27.6599 64.6116C26.1123 63.039 26.1123 63.039 24.4772 61.5592C23.947 61.0914 23.5006 60.5463 23.0373 60.0141C22.6039 59.5555 22.1477 59.1531 21.6702 58.7421C21.0162 58.1633 20.4019 57.5444 19.7844 56.9273C19.6518 56.7968 19.5193 56.6662 19.3828 56.5317C19.2577 56.407 19.1327 56.2822 19.0038 56.1537C18.8905 56.0411 18.7772 55.9284 18.6605 55.8124C18.4147 55.5274 18.4147 55.5274 18.4147 55.2052C18.3198 55.1647 18.2248 55.1242 18.127 55.0824C17.7256 54.858 17.5086 54.6217 17.2162 54.2686C16.4673 53.3702 15.6169 52.5706 14.7841 51.7511C13.7408 50.7236 12.7 49.6936 11.6605 48.6622C11.0329 48.0396 10.4044 47.418 9.7739 46.7984C9.1617 46.1968 8.55195 45.5928 7.94376 44.9871C7.7129 44.758 7.4812 44.5298 7.2486 44.3024C5.44701 42.54 3.92177 40.8022 3.84282 38.1328C3.83612 35.812 4.50744 34.0321 6.12923 32.3526C6.31139 32.1705 6.49511 31.9899 6.68064 31.8111C6.94877 31.5431 7.19194 31.2681 7.43581 30.9781C8.34046 29.9381 9.32708 28.9758 10.2997 28C10.5222 27.7762 10.7447 27.5524 10.9671 27.3286C11.6939 26.5976 12.4216 25.8674 13.1494 25.1373C13.4009 24.8849 13.6524 24.6326 13.9039 24.3802C14.9504 23.3302 15.9972 22.2805 17.0445 21.2313C18.5409 19.7323 20.0359 18.232 21.5289 16.7297C22.5817 15.6707 23.636 14.6133 24.6915 13.557C25.3206 12.9272 25.9491 12.2969 26.5759 11.6648C27.1657 11.0701 27.7575 10.4773 28.3507 9.88601C28.567 9.6697 28.7827 9.45271 28.9976 9.23496C32.0643 6.12996 36.0631 4.45562 40.0422 7.15837Z" fill="#F6833A"/>
<path d="M100.951 4.47838C103.014 6.1271 104.708 7.98791 106.074 10.2479C106.139 10.3554 106.204 10.463 106.271 10.5737C109.086 15.3158 109.856 20.9245 108.555 26.2772C107.087 31.6002 103.58 36.2947 98.8224 39.0915C94.1641 41.72 88.5837 42.855 83.3199 41.5407C82.9508 41.4317 82.5873 41.3168 82.2253 41.1863C82.1821 41.3244 82.1389 41.4626 82.0944 41.6049C81.9021 42.1558 81.6723 42.6651 81.419 43.1904C81.3251 43.3899 81.2314 43.5894 81.1379 43.789C80.993 44.0978 80.8471 44.4059 80.6977 44.7125C80.0745 45.9956 79.7482 47.0697 79.7035 48.5152C79.6087 49.468 79.2537 50.2981 78.855 51.1622C78.7189 51.4624 78.5963 51.7662 78.4732 52.0719C78.2101 52.6533 77.9751 53.115 77.5523 53.5939C76.9971 53.803 76.5368 53.8677 75.9455 53.8922C75.0399 53.9366 74.4143 54.3549 73.7354 54.9232C72.3048 56.6245 70.8534 59.2294 70.8148 61.4795C70.9145 62.6283 71.2366 63.3435 71.9314 64.2604C72.0619 64.433 72.0619 64.433 72.195 64.6092C72.2613 64.6964 72.3276 64.7836 72.3959 64.8735C72.0761 65.6148 71.7524 66.3542 71.4252 67.0923C71.3146 67.3431 71.2051 67.5944 71.0966 67.8462C70.9397 68.2099 70.7791 68.5717 70.6177 68.9334C70.5707 69.0447 70.5236 69.156 70.4752 69.2707C70.0026 70.3115 69.2733 70.9983 68.2265 71.46C67.269 71.7686 66.3661 71.8001 65.4368 71.3895C64.5723 70.9046 63.912 70.1397 63.5334 69.2242C63.2597 67.8706 63.5955 66.8562 64.171 65.6508C64.3041 65.3638 64.4372 65.0767 64.5703 64.7897C64.6733 64.5702 64.6733 64.5702 64.7783 64.3463C65.1028 63.6514 65.4173 62.9521 65.7326 62.2531C65.8583 61.9758 65.984 61.6985 66.1098 61.4212C67.1005 59.236 68.0909 57.051 69.0523 54.8527C69.5613 53.6892 70.0755 52.5304 70.6234 51.3845C70.9045 50.7915 71.1665 50.1908 71.4291 49.5893C71.5647 49.2838 71.7009 48.9784 71.8373 48.6732C71.9693 48.3752 72.0975 48.0757 72.2256 47.776C72.7728 46.5586 73.359 45.6385 74.4907 44.8924C74.597 44.8924 74.7034 44.8924 74.813 44.8924C74.8553 44.7567 74.8977 44.6209 74.9413 44.481C75.1465 43.8934 75.3943 43.3355 75.6602 42.7737C75.7098 42.6678 75.7594 42.5619 75.8106 42.4527C75.9677 42.1176 76.1255 41.7829 76.2833 41.4481C76.3906 41.2197 76.4978 40.9912 76.605 40.7627C76.8665 40.2054 77.1286 39.6483 77.3912 39.0915C77.2658 39.043 77.1405 38.9945 77.0114 38.9446C73.0012 37.2936 69.9149 32.8523 68.2838 29.0072C66.7576 24.9727 66.276 20.2429 67.4007 16.0489C67.4301 15.9367 67.4595 15.8244 67.4899 15.7088C68.4874 12.0546 70.4647 8.9587 73.0405 6.2195C73.1252 6.12436 73.21 6.02923 73.2973 5.93121C74.2529 4.90246 75.4377 4.11668 76.5855 3.31903C76.7199 3.22555 76.8543 3.13208 76.9927 3.03578C79.0414 1.71799 81.4549 0.875887 83.8367 0.418555C84.0509 0.37622 84.0509 0.37622 84.2695 0.333029C90.1559 -0.748979 96.2293 0.850436 100.951 4.47838Z" fill="#8DD9FE"/>
<path d="M98.2395 9.38178C101.046 11.7644 102.871 15.1664 103.496 18.7882C103.531 19.4357 103.526 20.0835 103.526 20.7319C103.528 20.9042 103.53 21.0765 103.532 21.254C103.535 22.9568 103.298 24.5669 102.75 26.1803C102.709 26.3033 102.667 26.4263 102.624 26.553C101.219 30.5158 98.2194 33.4731 94.4771 35.2575C90.7417 36.9663 86.3639 37.0094 82.5145 35.6919C80.6492 34.9707 78.974 34.0004 77.535 32.6114C77.2491 32.3137 77.2491 32.3137 76.9081 32.1626C76.9081 32.0562 76.9081 31.9499 76.9081 31.8403C76.8017 31.8403 76.6954 31.8403 76.5858 31.8403C76.3185 31.5374 76.0732 31.2355 75.8304 30.9138C75.7585 30.8188 75.6866 30.7239 75.6125 30.6261C73.0803 27.2261 71.903 23.1044 72.4467 18.879C72.9997 15.4544 74.4985 12.5728 76.9081 10.0868C76.9928 9.99017 77.0776 9.89358 77.1649 9.79407C82.6121 3.80491 92.4245 4.55248 98.2395 9.38178Z" fill="#E2F5FE"/>
<path d="M18.2536 55.6887C18.8308 55.7372 19.1049 56.001 19.4968 56.4069C19.6074 56.5198 19.718 56.6327 19.8319 56.749C19.9459 56.8677 20.0598 56.9864 20.1772 57.1087C20.4032 57.3418 20.6296 57.5745 20.8563 57.8068C20.9627 57.9158 21.069 58.0247 21.1785 58.137C21.4957 58.4569 21.4957 58.4569 21.9604 58.8126C22.0665 58.8984 22.1727 58.9842 22.282 59.0726C22.282 59.179 22.282 59.2853 22.282 59.3949C22.3703 59.4287 22.4586 59.4626 22.5495 59.4975C23.0624 59.7963 23.4152 60.2129 23.8028 60.6538C23.9534 60.8228 24.1043 60.9917 24.2553 61.1605C24.3284 61.2422 24.4015 61.324 24.4768 61.4082C24.808 61.7697 25.155 62.113 25.5048 62.4565C25.4354 62.6295 25.366 62.8025 25.2945 62.9808C24.9658 63.8592 24.7457 64.7605 24.5178 65.6692C24.4188 66.0551 24.3195 66.4409 24.2201 66.8267C24.1412 67.1333 24.1412 67.1333 24.0608 67.446C24.0199 67.6046 24.0199 67.6046 23.9783 67.7665C23.9206 67.9907 23.863 68.215 23.8054 68.4393C23.623 69.1496 23.438 69.8592 23.2499 70.568C23.1896 70.797 23.1301 71.0262 23.0715 71.2557C22.508 73.4597 21.7264 75.5857 19.724 76.838C18.2687 77.6562 16.9096 77.9476 15.2396 77.9542C15.121 77.9552 15.0024 77.9563 14.8803 77.9574C14.4913 77.9605 14.1024 77.9624 13.7134 77.9641C13.5796 77.9647 13.4458 77.9654 13.3079 77.9661C12.5997 77.9694 11.8916 77.9717 11.1834 77.9732C10.4558 77.975 9.72826 77.9806 9.00066 77.987C8.43759 77.9912 7.87454 77.9925 7.31145 77.9931C7.04338 77.9939 6.7753 77.9957 6.50725 77.9987C4.33091 78.0216 2.81942 77.7621 1.19508 76.2142C0.162756 75.0649 -0.0156958 73.8326 0.00102785 72.3375C0.0988452 71.1497 0.66505 70.2284 1.46322 69.3627C2.57944 68.419 3.89723 67.9237 5.34169 67.9021C5.62713 67.8972 5.62713 67.8972 5.91833 67.8923C6.12296 67.8896 6.32759 67.8869 6.53842 67.8842C6.74853 67.8808 6.95863 67.8775 7.17511 67.874C7.73246 67.8651 8.28982 67.8572 8.84718 67.8494C9.41643 67.8413 9.98566 67.8323 10.5549 67.8234C11.6709 67.8061 12.7869 67.7898 13.9029 67.774C13.9367 67.664 13.9706 67.554 14.0054 67.4407C14.2843 66.534 14.5633 65.6273 14.8424 64.7207C15.0509 64.0433 15.2591 63.3657 15.4667 62.688C15.6666 62.0355 15.8683 61.3836 16.0711 60.7319C16.1512 60.4737 16.2306 60.2152 16.3095 59.9566C17.3311 56.6112 17.3311 56.6112 18.2536 55.6887Z" fill="#F4D7B4"/>
<path d="M70.9853 48.7498C71.2844 48.7548 71.2844 48.7548 71.5896 48.7599C71.7861 49.3494 71.7 49.463 71.4536 50.0163C71.3855 50.171 71.3174 50.3258 71.2472 50.4852C71.174 50.647 71.1009 50.8088 71.0256 50.9755C70.9575 51.1299 70.8893 51.2842 70.8191 51.4432C70.3305 52.5442 69.8213 53.6354 69.3106 54.7263C68.4729 56.5166 67.6499 58.3137 66.8297 60.1121C66.4597 60.9222 66.0849 61.7299 65.7063 62.5361C65.4633 63.0553 65.2235 63.576 64.9845 64.0971C64.8708 64.343 64.7558 64.5882 64.6393 64.8328C63.7919 66.6142 63.4194 68.0438 63.855 70.03C61.594 71.3582 59.4572 71.8839 56.8443 71.3688C56.368 71.2202 55.928 71.0461 55.4759 70.8357C55.2453 70.7304 55.2453 70.7304 55.0101 70.6229C54.1 70.1679 53.4145 69.6489 52.7227 68.9058C52.3116 68.4713 51.8635 68.0886 51.409 67.7004C51.1399 67.4647 50.8798 67.2357 50.6417 66.9684C50.6417 66.8621 50.6417 66.7557 50.6417 66.6461C50.5532 66.6101 50.4646 66.574 50.3734 66.5369C49.8854 66.2605 49.5237 65.8903 49.1348 65.493C49.0543 65.4119 48.9737 65.3309 48.8906 65.2474C48.6343 64.9893 48.3791 64.7301 48.124 64.4708C47.9511 64.2963 47.7783 64.122 47.6053 63.9477C47.2889 63.6287 46.973 63.3093 46.6576 62.9894C46.4287 62.7573 46.1992 62.5259 45.9688 62.2954C48.2021 60.0621 50.4355 57.8287 52.7365 55.5277C53.6422 56.071 53.6422 56.071 54.0595 56.5097C54.1526 56.6064 54.2457 56.7032 54.3416 56.8029C54.4396 56.9061 54.5377 57.0094 54.6387 57.1157C54.8511 57.3346 55.0637 57.5533 55.2763 57.7719C55.6089 58.1155 55.9406 58.4599 56.2701 58.8064C56.5899 59.1417 56.9131 59.4734 57.237 59.8047C57.3344 59.9089 57.4318 60.0132 57.5322 60.1205C58.0341 60.6285 58.2513 60.8297 58.9813 60.9203C59.5048 60.861 59.5048 60.861 59.9877 60.684C60.0675 60.4448 60.0675 60.4448 60.1488 60.2006C60.5822 59.729 61.0489 59.3124 61.5386 58.9015C61.9462 58.5593 62.2513 58.2141 62.5659 57.7836C62.6722 57.7836 62.7786 57.7836 62.8882 57.7836C62.9266 57.6899 62.965 57.5962 63.0046 57.4997C63.2511 57.0677 63.544 56.8423 63.9255 56.5247C64.7577 55.7203 64.8588 54.986 65.0283 53.871C65.3127 52.3992 66.2556 51.0063 67.4 50.049C68.49 49.3612 69.6738 48.728 70.9853 48.7498Z" fill="#F4D7B4"/>
<path d="M77.3912 39.2527C77.5665 39.3383 77.7418 39.4238 77.9224 39.512C79.2817 40.168 80.6126 40.7612 82.0642 41.1863C81.9724 41.9352 81.7644 42.5136 81.4347 43.1905C81.3404 43.3899 81.2462 43.5895 81.1521 43.7891C81.0052 44.0977 80.8573 44.4057 80.7065 44.7125C80.0789 45.9963 79.7472 47.0665 79.7031 48.5152C79.6089 49.4682 79.2537 50.2981 78.855 51.1622C78.7189 51.4624 78.5963 51.7662 78.4732 52.0719C78.2101 52.6534 77.9751 53.1151 77.5523 53.5939C76.9971 53.8031 76.5368 53.8678 75.9455 53.8922C75.0399 53.9367 74.4143 54.3549 73.7354 54.9233C72.3048 56.6245 70.8534 59.2295 70.8148 61.4796C70.9145 62.6283 71.2366 63.3435 71.9314 64.2604C72.0619 64.4331 72.0619 64.4331 72.195 64.6092C72.2613 64.6964 72.3276 64.7837 72.3959 64.8735C72.0761 65.6148 71.7524 66.3542 71.4252 67.0923C71.3146 67.3431 71.2051 67.5944 71.0966 67.8462C70.9397 68.2099 70.7791 68.5717 70.6177 68.9334C70.5707 69.0447 70.5236 69.1561 70.4752 69.2708C70.0026 70.3115 69.2733 70.9983 68.2265 71.46C67.269 71.7687 66.3661 71.8002 65.4368 71.3895C64.5723 70.9046 63.912 70.1398 63.5334 69.2242C63.2597 67.8706 63.5955 66.8562 64.171 65.6509C64.3041 65.3638 64.4372 65.0768 64.5703 64.7897C64.639 64.6434 64.7076 64.4971 64.7783 64.3463C65.1028 63.6515 65.4173 62.9522 65.7326 62.2531C65.8583 61.9758 65.984 61.6985 66.1098 61.4212C67.1005 59.236 68.0909 57.051 69.0523 54.8528C69.5613 53.6892 70.0755 52.5305 70.6234 51.3846C70.9045 50.7915 71.1665 50.1908 71.4291 49.5894C71.5647 49.2838 71.7009 48.9785 71.8373 48.6732C71.9693 48.3753 72.0975 48.0757 72.2256 47.7761C72.7728 46.5587 73.359 45.6386 74.4907 44.8925C74.597 44.8925 74.7034 44.8925 74.813 44.8925C74.8562 44.7552 74.8994 44.6178 74.9439 44.4763C75.1389 43.9153 75.3689 43.3885 75.6193 42.8499C75.6649 42.7516 75.7106 42.6532 75.7576 42.5518C75.8534 42.3457 75.9494 42.1398 76.0457 41.9339C76.1935 41.6178 76.3403 41.3012 76.487 40.9846C77.2076 39.4362 77.2076 39.4362 77.3912 39.2527Z" fill="#66BBFD"/>
<path d="M78.6727 54.1382C79.6946 54.9491 80.2039 55.9464 80.3615 57.2294C80.3315 58.1185 79.976 58.8999 79.6281 59.7074C79.525 59.9471 79.4235 60.1875 79.323 60.4283C79.1451 60.8539 78.9633 61.2775 78.7803 61.701C78.7238 61.8356 78.6674 61.9703 78.6092 62.109C78.0866 63.2905 77.3994 64.3239 76.2424 64.9539C75.1182 65.3844 73.7589 65.4359 72.647 64.9439C71.6458 64.3448 71.1063 63.563 70.7839 62.4563C70.5527 60.7089 71.0206 59.3836 71.791 57.8538C71.8868 57.6537 71.9823 57.4535 72.0774 57.253C72.8999 55.5552 73.719 54.5032 75.4468 53.6945C76.6534 53.4482 77.6091 53.4737 78.6727 54.1382Z" fill="#F4D7B3"/>
<path d="M40.6521 37.8024C41.5236 38.3722 42.0987 39.0711 42.4246 40.0583C42.5672 41.1291 42.6501 42.2469 42.0922 43.2106C41.4472 44.0494 40.7011 44.7249 39.6853 45.0536C38.3016 45.2259 37.1121 45.0982 35.9791 44.2479C35.1365 43.3948 34.6911 42.4903 34.6396 41.287C34.6729 40.1225 35.0752 39.2301 35.8582 38.3727C37.2566 37.1429 39.0069 37.0471 40.6521 37.8024Z" fill="#1158CA"/>
<path d="M32.9174 46.6651C33.2494 46.9889 33.4669 47.2559 33.7231 47.6319C34.603 48.7947 35.5038 49.4334 36.9458 49.7267C38.4099 49.8612 39.9922 49.7477 41.1757 48.7882C41.3841 48.5875 41.5923 48.3865 41.8001 48.1852C42.149 47.9184 42.3516 47.8634 42.787 47.8434C43.3913 47.9542 43.3913 47.9542 43.7942 48.216C44.1256 48.7408 44.1655 48.9526 44.0359 49.5655C42.9996 51.2209 41.2092 51.9789 39.383 52.4156C37.1233 52.6416 34.9658 52.2519 33.132 50.8477C31.2983 49.274 31.2983 49.274 31.0807 48.0876C31.0587 47.6235 31.0971 47.2441 31.306 46.8262C31.8392 46.5596 32.3472 46.529 32.9174 46.6651Z" fill="#8C350B"/>
<path d="M77.3907 39.2527C77.566 39.3383 77.7413 39.4238 77.9219 39.512C79.2812 40.168 80.6121 40.7612 82.0637 41.1863C81.9687 41.9479 81.7528 42.5648 81.4399 43.2641C81.3944 43.3661 81.3489 43.4681 81.302 43.5731C81.2063 43.7869 81.1099 44.0005 81.0131 44.2138C80.8647 44.5412 80.7187 44.8695 80.5728 45.1981C80.4793 45.4062 80.3856 45.6142 80.2918 45.8222C80.2067 46.011 80.1217 46.1997 80.0341 46.3942C79.8078 46.8261 79.8078 46.8261 79.4855 46.9873C79.4344 46.8919 79.3833 46.7966 79.3306 46.6984C78.7175 45.66 78.0823 45.0643 76.9073 44.7314C76.2558 44.673 75.6253 44.681 74.9736 44.7314C75.0777 44.0485 75.3113 43.4901 75.6031 42.8657C75.649 42.7671 75.6948 42.6684 75.7421 42.5668C75.8387 42.3597 75.9357 42.1528 76.0331 41.9461C76.1825 41.6286 76.3307 41.3106 76.4786 40.9925C77.2046 39.4388 77.2046 39.4388 77.3907 39.2527Z" fill="#48A6EA"/>
<path d="M47.5801 28.6175C48.2299 29.0877 48.746 29.5607 49.1915 30.2289C49.1185 31.2687 49.1185 31.2687 48.7081 31.6791C48.2158 31.7726 47.751 31.7635 47.2578 31.6791C46.7543 31.2964 46.7543 31.2964 46.291 30.8734C45.18 30.4414 44.2066 30.3723 43.1186 30.8432C42.7198 31.0351 42.3625 31.2356 41.9907 31.4777C41.4983 31.7439 41.2024 31.7729 40.6512 31.6791C40.1907 31.2671 40.0299 30.9975 39.916 30.39C40.059 29.6275 40.5044 29.3197 41.1189 28.8831C42.9847 27.6584 45.6037 27.4993 47.5801 28.6175Z" fill="#8C350B"/>
<path d="M33.3296 30.1785C33.6946 30.7658 33.6482 31.1547 33.5612 31.8403C33.3296 32.1726 33.3296 32.1726 32.9166 32.3237C32.2405 32.3176 31.6238 32.215 30.983 32.0014C29.7432 31.8756 28.6858 32.0185 27.5991 32.6459C27.254 32.9332 26.9296 33.2359 26.6021 33.5429C26.31 33.7739 26.31 33.7739 25.7863 33.8847C25.2177 33.7425 25.0198 33.6235 24.6986 33.1294C24.5609 32.0443 24.5609 32.0443 24.9737 31.433C26.9719 29.2783 30.8006 28.5131 33.3296 30.1785Z" fill="#8C350B"/>
<path d="M31.4668 37.6414C32.2146 37.9095 32.7315 38.3335 33.1587 39.001C33.4077 39.5923 33.5099 39.9123 33.4005 40.5419C33.1386 41.0051 33.1386 41.0051 32.7559 41.3475C32.2725 41.4382 32.2725 41.4382 31.7891 41.3475C31.3652 41.0061 31.1252 40.674 30.8223 40.2196C30.6096 40.2196 30.3969 40.2196 30.1777 40.2196C30.1046 40.3725 30.0315 40.5253 29.9561 40.6829C29.6943 41.1864 29.6943 41.1864 29.372 41.5087C28.7567 41.5771 28.3852 41.5955 27.8513 41.267C27.5003 40.7054 27.4792 40.2099 27.5995 39.575C28.4447 37.9171 29.6864 37.4473 31.4668 37.6414Z" fill="#8B350A"/>
<path d="M46.6136 36.0298C47.4573 36.4286 48.1271 37.123 48.5473 37.9634C48.6182 38.7972 48.6182 38.7972 48.3861 39.2324C47.8662 39.5249 47.345 39.54 46.7748 39.4137C46.3316 39.0008 46.3316 39.0008 45.9691 38.608C45.6171 38.555 45.6171 38.555 45.3245 38.7691C45.2614 38.9054 45.1982 39.0417 45.1332 39.182C44.8411 39.5748 44.8411 39.5748 44.5056 39.6504C43.9242 39.6729 43.5307 39.6807 43.0585 39.323C42.8471 38.7732 42.8368 38.3881 42.9075 37.8023C43.7708 36.1715 44.88 35.8685 46.6136 36.0298Z" fill="#8C350A"/>
<path d="M73.8458 5.41382C73.9521 5.46699 74.0585 5.52017 74.168 5.57496C74.0764 5.66469 73.9848 5.75442 73.8905 5.84687C73.1663 6.56255 72.4717 7.28755 71.8171 8.06755C71.5899 8.31429 71.5899 8.31429 71.2676 8.47543C71.516 7.9003 71.8629 7.49536 72.2848 7.03526C72.4779 6.82433 72.4779 6.82433 72.675 6.60913C73.0572 6.20122 73.4441 5.80251 73.8458 5.41382Z" fill="#7ED4FD"/>
<path d="M64.1785 65.8403C64.3673 66.4307 64.3673 66.4307 64.118 66.9179C63.7928 67.5808 63.742 68.1733 63.695 68.9019C63.6419 68.9019 63.5887 68.9019 63.5339 68.9019C63.4531 67.6809 63.542 66.8945 64.1785 65.8403Z" fill="#54B7FB"/>
<path d="M26.3106 30.3901C26.3106 30.8735 26.3106 30.8735 26.0991 31.097C25.8473 31.2911 25.5955 31.4852 25.3438 31.6792C25.2374 31.6261 25.1311 31.5729 25.0215 31.5181C25.4369 31.0915 25.8137 30.7214 26.3106 30.3901Z" fill="#842F07"/>
<path d="M44.3584 36.1909C44.518 36.2441 44.6775 36.2973 44.8418 36.3521C44.1337 36.9972 44.1337 36.9972 43.875 37.1577C43.7155 37.1046 43.556 37.0514 43.3916 36.9966C44.0997 36.3514 44.0997 36.3514 44.3584 36.1909Z" fill="#812D07"/>
</svg>
