<svg width="97" height="80" viewBox="0 0 97 80" fill="none" xmlns="http://www.w3.org/2000/svg">
<path d="M47.9914 5.56844C48.8028 6.1385 49.3842 6.96397 49.917 7.78562C49.9734 7.87146 50.0299 7.9573 50.088 8.04574C50.2615 8.30999 50.4339 8.57487 50.6061 8.83991C50.7087 8.9971 50.8113 9.15429 50.9139 9.31147C51.115 9.62002 51.3155 9.9289 51.5157 10.238C51.8553 10.7623 52.1966 11.2854 52.538 11.8084C53.2089 12.8363 53.2089 12.8363 53.5238 13.3225C54.0209 14.0896 54.5208 14.8549 55.0239 15.6181C55.0738 15.6937 55.1236 15.7694 55.175 15.8473C55.2257 15.9242 55.2765 16.0012 55.3287 16.0805C55.4332 16.2389 55.5376 16.3973 55.642 16.5557C55.6939 16.6345 55.7459 16.7133 55.7994 16.7945C56.4334 17.7566 57.0616 18.7213 57.6759 19.6961C58.1808 20.4941 58.7065 21.278 59.2317 22.0626C59.7457 22.8305 60.2515 23.6031 60.751 24.3805C60.9925 24.7552 61.2358 25.1287 61.4789 25.5024C61.5824 25.6617 61.686 25.821 61.7896 25.9802C61.8941 26.141 61.9986 26.3017 62.1032 26.4625C62.4638 27.0168 62.8243 27.5713 63.1845 28.1259C63.2768 28.2679 63.3691 28.41 63.4614 28.552C63.928 29.2702 64.3914 29.9903 64.8499 30.7137C65.4909 31.7251 66.1458 32.7259 66.8151 33.7188C66.6094 33.9245 66.5016 33.9609 66.2283 34.0435C66.1474 34.0687 66.0664 34.094 65.983 34.12C65.8961 34.147 65.8091 34.174 65.7196 34.2018C62.4359 35.2633 59.8945 37.4964 58.2965 40.5436C58.0155 41.1032 57.7863 41.6721 57.5856 42.265C57.5602 42.3398 57.5347 42.4146 57.5085 42.4916C57.1002 43.7731 56.9617 45.0327 56.9731 46.3703C56.9735 46.4781 56.9735 46.4781 56.974 46.588C56.9807 47.7379 57.0676 48.819 57.3913 49.9278C57.4201 50.0329 57.4201 50.0329 57.4494 50.1402C58.2764 53.1163 60.1283 55.3756 62.5744 57.1841C62.6366 57.2152 62.6988 57.2463 62.7629 57.2784C62.5884 59.263 61.9771 61.3558 60.8781 63.0269C60.8397 63.0929 60.8013 63.1588 60.7617 63.2268C60.5954 63.4039 60.5954 63.4039 60.3487 63.4517C60.1981 63.4523 60.1981 63.4523 60.0445 63.4528C59.9283 63.4541 59.8121 63.4554 59.6924 63.4568C59.5623 63.4563 59.4322 63.4558 59.3021 63.4553C59.1638 63.4561 59.0255 63.4571 58.8872 63.4583C58.5026 63.4609 58.118 63.4612 57.7335 63.4611C57.311 63.4614 56.8886 63.4639 56.4662 63.4661C55.6196 63.4701 54.773 63.472 53.9264 63.4731C53.2269 63.4741 52.5275 63.4758 51.8281 63.4781C51.7277 63.4784 51.6273 63.4787 51.5238 63.479C51.3184 63.4797 51.1129 63.4804 50.9075 63.481C48.8483 63.4874 46.7891 63.491 44.7298 63.4938C42.7376 63.4965 40.7454 63.5007 38.7531 63.5058C35.6776 63.5136 32.6021 63.5197 29.5265 63.5236C29.2832 63.5239 29.0398 63.5242 28.7964 63.5245C28.6344 63.5247 28.4723 63.5249 28.3103 63.5251C27.0944 63.5266 25.8786 63.5291 24.6627 63.532C23.2646 63.5354 21.8664 63.5373 20.4683 63.5375C19.6747 63.5377 18.8811 63.5389 18.0874 63.5415C17.5519 63.5432 17.0164 63.5435 16.4809 63.5427C16.1745 63.5423 15.8682 63.5427 15.5619 63.5443C15.2303 63.546 14.8987 63.5453 14.5671 63.5441C14.4724 63.5451 14.3777 63.5461 14.2801 63.5472C13.0818 63.5364 12.0845 63.1017 11.2145 62.2844C10.3478 61.3598 10.0311 60.2809 10.055 59.035C10.1953 57.3576 11.3059 55.8784 12.1911 54.5031C12.3467 54.2607 12.501 54.0174 12.655 53.7739C13.3134 52.733 13.983 51.7 14.6586 50.6702C15.1134 49.9761 15.5629 49.2788 16.0089 48.579C16.551 47.7291 17.0992 46.8833 17.6522 46.0405C17.6894 45.9837 17.7267 45.9269 17.7651 45.8684C18.0703 45.4033 18.3757 44.9385 18.6813 44.4737C19.6909 42.9379 20.694 41.3987 21.675 39.8443C21.7703 39.6934 21.8657 39.5424 21.961 39.3915C22.1 39.1713 22.2391 38.9512 22.378 38.7309C23.1641 37.4856 23.9532 36.2422 24.7551 35.007C25.1369 34.4184 25.5145 33.8271 25.8921 33.2358C26.4403 32.3779 26.9937 31.5236 27.5512 30.6717C27.9839 30.0094 28.4114 29.3439 28.8371 28.6771C29.3775 27.8305 29.9232 26.9876 30.4733 26.1473C30.9005 25.4936 31.3214 24.836 31.7408 24.1772C32.3174 23.272 32.9085 22.3775 33.506 21.4861C33.9537 20.818 34.3945 20.147 34.8164 19.4623C35.2729 18.7222 35.7513 17.9963 36.2266 17.2682C36.4539 16.9193 36.6802 16.5697 36.9062 16.2199C36.9483 16.155 36.9903 16.09 37.0336 16.023C37.1178 15.8928 37.202 15.7625 37.2862 15.6323C37.5011 15.3 37.7161 14.9678 37.9311 14.6356C38.0175 14.5021 38.1038 14.3686 38.1902 14.2351C39.7452 11.832 39.7452 11.832 39.8747 11.6318C39.9612 11.4981 40.0477 11.3645 40.1341 11.2308C40.3486 10.8992 40.5633 10.5677 40.7785 10.2365C40.864 10.1048 40.9495 9.97298 41.0351 9.84119C41.0986 9.74341 41.0986 9.74341 41.1635 9.64365C41.3948 9.28671 41.6224 8.92787 41.846 8.56603C43.6521 5.64823 43.6521 5.64823 45.4249 5.10645C46.3235 4.93276 47.2011 5.11781 47.9914 5.56844Z" fill="#12C66F"/>
<path d="M78.0411 36.2571C78.195 36.3838 78.3481 36.5114 78.5005 36.64C78.6151 36.7355 78.6151 36.7355 78.732 36.8329C81.2185 38.9787 82.7178 42.154 83.0239 45.4042C83.1999 48.4289 82.447 51.4543 80.7622 53.9798C80.7035 54.0449 80.6449 54.1101 80.5844 54.1771C80.5498 54.2364 80.5152 54.2957 80.4795 54.3568C80.5993 54.7346 80.7957 55.0593 80.9996 55.3975C81.0317 55.451 81.0638 55.5046 81.0969 55.5598C81.2329 55.7869 81.3696 56.0135 81.5064 56.2401C83.0993 58.8847 83.0993 58.8847 82.7294 60.4234C82.3621 61.6489 81.7161 62.4458 80.6326 63.0963C79.9958 63.4024 79.4295 63.4296 78.7335 63.4221C78.6403 63.4218 78.5471 63.4215 78.4511 63.4213C78.1554 63.4202 77.8597 63.4178 77.564 63.4154C77.3627 63.4145 77.1614 63.4136 76.9601 63.4129C76.4683 63.4108 75.9766 63.4076 75.4849 63.4037C75.5471 63.0628 75.6341 62.7399 75.74 62.4101C76.2384 60.8371 76.6549 59.2892 76.8984 57.6551C76.8003 57.7098 76.7021 57.7645 76.601 57.8208C74.2582 59.1068 71.9503 59.6568 69.2651 59.5399C69.3586 58.8952 69.4827 58.2626 69.6369 57.6301C69.6535 57.5615 69.67 57.4928 69.6871 57.4221C69.7557 57.1383 69.8244 56.8546 69.8958 56.5715C70.2824 55.0309 70.4482 53.686 69.609 52.2548C69.162 51.5932 68.5235 51.1739 67.7573 50.9642C66.8091 50.8676 66.0295 50.953 65.2515 51.5186C63.8863 52.6642 63.4223 54.2502 63.1102 55.9412C63.0852 56.0718 63.0601 56.2024 63.0349 56.333C62.9746 56.6479 62.9153 56.9629 62.8569 57.2782C62.4669 57.1974 62.2101 57.0034 61.9028 56.7599C61.8487 56.7175 61.7947 56.6751 61.739 56.6314C59.1159 54.5531 57.4773 51.6686 56.9555 48.3627C56.8914 47.7863 56.8885 47.2103 56.8902 46.6311C56.8905 46.4188 56.8883 46.2066 56.8859 45.9942C56.8801 44.7113 57.0721 43.4952 57.4853 42.2766C57.5131 42.1947 57.5408 42.1127 57.5693 42.0283C58.0857 40.5712 58.828 39.2217 59.8413 38.0536C59.8841 38.0031 59.927 37.9527 59.9711 37.9007C60.9839 36.7145 62.1612 35.8057 63.5166 35.0379C63.6019 34.9889 63.6872 34.9398 63.775 34.8892C68.3224 32.4416 74.0279 33.1185 78.0411 36.2571Z" fill="#FCBE21"/>
<path d="M68.482 51.1184C69.4645 51.7012 69.9454 52.5357 70.3013 53.6031C70.4163 54.8719 70.1328 56.0356 69.836 57.2608C69.7912 57.4512 69.7466 57.6417 69.7022 57.8323C69.621 58.178 69.5394 58.5235 69.4561 58.8686C69.4396 58.9371 69.423 59.0056 69.406 59.0762C69.3653 59.2327 69.3158 59.3868 69.2646 59.5402C72.0842 59.5209 74.4481 58.9256 76.8979 57.5612C77.0248 57.9416 76.9295 58.241 76.8449 58.6213C76.8279 58.6997 76.8108 58.7781 76.7932 58.8589C76.654 59.4851 76.5026 60.1083 76.3443 60.7299C76.3236 60.8128 76.3029 60.8957 76.2815 60.9811C76.0644 61.8133 75.7741 62.583 75.4844 63.4039C76.7594 63.4039 78.0345 63.4039 79.3481 63.4039C79.3481 63.435 79.3481 63.4661 79.3481 63.4982C78.042 63.5293 76.7359 63.5604 75.3901 63.5924C75.256 63.8995 75.1219 64.2066 74.9837 64.523C74.1402 66.4012 73.0144 68.1122 71.6096 69.6203C71.4619 69.78 71.3252 69.9419 71.1906 70.1125C70.8909 70.4584 70.5563 70.7424 70.207 71.0372C70.111 71.1202 70.0151 71.2033 69.9192 71.2864C69.3162 71.8067 68.7082 72.2986 68.0396 72.7335C67.948 72.7933 67.8564 72.8531 67.762 72.9146C66.1445 73.94 64.3723 74.7616 62.5207 75.2603C62.4576 75.2775 62.3946 75.2947 62.3296 75.3124C60.9781 75.6526 59.6196 75.7968 58.2287 75.786C57.9969 75.7845 57.7654 75.786 57.5336 75.7878C53.1431 75.7935 49.2296 73.8042 46.1115 70.8134C44.474 69.1274 41.9355 65.832 41.9355 63.4039C42.031 63.4046 42.1265 63.4052 42.2248 63.4059C44.5482 63.4213 46.8716 63.4296 49.195 63.4305C50.3187 63.4312 51.4422 63.4341 52.5658 63.4424C53.5452 63.4496 54.5245 63.4525 55.5039 63.4503C56.0225 63.4493 56.5408 63.4504 57.0594 63.4567C57.5477 63.4625 58.0357 63.4626 58.5241 63.4583C58.7031 63.4577 58.8821 63.4592 59.0611 63.463C59.8425 63.4889 59.8425 63.4889 60.5947 63.3097C60.9742 62.9417 61.152 62.577 61.3486 62.0846C61.4014 61.9661 61.4547 61.8479 61.5086 61.7299C62.0984 60.4181 62.4042 58.9961 62.6838 57.5921C62.7019 57.5017 62.7199 57.4114 62.7385 57.3183C62.8296 56.8609 62.9188 56.4032 63.0051 55.9449C63.3273 54.2708 63.8021 52.5376 65.2124 51.4357C66.2303 50.8373 67.3676 50.5886 68.482 51.1184Z" fill="#F2D4B7"/>
<path d="M78.0411 36.2571C78.195 36.3838 78.3481 36.5114 78.5005 36.64C78.6151 36.7355 78.6151 36.7355 78.732 36.8329C81.2185 38.9787 82.7178 42.154 83.0239 45.4042C83.1999 48.4289 82.447 51.4543 80.7622 53.9798C80.7035 54.0449 80.6449 54.1101 80.5844 54.1771C80.5498 54.2364 80.5152 54.2957 80.4795 54.3568C80.5993 54.7346 80.7957 55.0593 80.9996 55.3975C81.0317 55.451 81.0638 55.5046 81.0969 55.5598C81.2329 55.7869 81.3696 56.0135 81.5064 56.2401C83.0993 58.8847 83.0993 58.8847 82.7294 60.4234C82.3621 61.6489 81.7161 62.4458 80.6326 63.0963C79.9958 63.4024 79.4295 63.4296 78.7335 63.4221C78.6403 63.4218 78.5471 63.4215 78.4511 63.4213C78.1554 63.4202 77.8597 63.4178 77.564 63.4154C77.3627 63.4145 77.1614 63.4136 76.9601 63.4129C76.4683 63.4108 75.9766 63.4076 75.4849 63.4037C75.5471 63.0628 75.6341 62.7399 75.74 62.4101C76.2384 60.8371 76.6549 59.2892 76.8984 57.6551C76.8003 57.7098 76.7021 57.7645 76.601 57.8208C74.2582 59.1068 71.9503 59.6568 69.2651 59.5399C69.6126 57.3076 69.6126 57.3076 69.9248 56.9955C70.1484 56.9499 70.1484 56.9499 70.4302 56.9178C70.5864 56.8983 70.5864 56.8983 70.7457 56.8785C70.8577 56.8646 70.9697 56.8507 71.0851 56.8364C72.6951 56.6164 74.2248 56.2323 75.5791 55.2992C75.6666 55.24 75.754 55.1809 75.8441 55.1199C78.1547 53.4993 79.7227 51.2131 80.249 48.4257C80.6372 45.5493 80.0723 42.6033 78.3143 40.2663C76.525 37.9751 73.9772 36.4604 71.0786 36.096C68.2718 35.8119 65.5027 36.6365 63.3116 38.4163C61.0932 40.2763 59.8379 42.7345 59.4644 45.5926C59.2486 48.2026 60.1669 51.0198 61.8203 53.0375C62.253 53.5198 62.7153 54.0038 63.2258 54.4039C63.3281 54.5453 63.3281 54.5453 63.3244 54.7879C63.3062 54.8847 63.288 54.9815 63.2692 55.0812C63.2401 55.2427 63.2401 55.2427 63.2103 55.4074C63.187 55.5272 63.1637 55.647 63.1396 55.7704C63.114 55.909 63.0885 56.0477 63.0631 56.1863C62.9961 56.5506 62.927 56.9145 62.8569 57.2782C62.466 57.2253 62.2025 56.9974 61.9028 56.7599C61.8487 56.7175 61.7947 56.6751 61.739 56.6314C59.1159 54.5531 57.4773 51.6686 56.9555 48.3627C56.8914 47.7863 56.8885 47.2103 56.8902 46.6311C56.8905 46.4188 56.8883 46.2066 56.8859 45.9942C56.8801 44.7113 57.0721 43.4952 57.4853 42.2766C57.5131 42.1947 57.5408 42.1127 57.5693 42.0283C58.0857 40.5712 58.828 39.2217 59.8413 38.0536C59.8841 38.0031 59.927 37.9527 59.9711 37.9007C60.9839 36.7145 62.1612 35.8057 63.5166 35.0379C63.6019 34.9889 63.6872 34.9398 63.775 34.8892C68.3224 32.4416 74.0279 33.1185 78.0411 36.2571Z" fill="#FED13A"/>
<path d="M80.2905 54.5454C80.3527 54.5454 80.4149 54.5454 80.479 54.5454C80.6028 54.7195 80.7174 54.9001 80.828 55.0829C80.8619 55.1387 80.8959 55.1946 80.9309 55.2522C81.0031 55.3715 81.075 55.491 81.1466 55.6107C81.254 55.7899 81.3624 55.9683 81.4711 56.1467C83.1074 58.8494 83.1074 58.8494 82.7289 60.4235C82.3616 61.6491 81.7156 62.446 80.6321 63.0964C79.9953 63.4025 79.429 63.4298 78.733 63.4222C78.5932 63.4218 78.5932 63.4218 78.4506 63.4214C78.1549 63.4204 77.8592 63.418 77.5635 63.4156C77.3622 63.4146 77.1609 63.4138 76.9596 63.413C76.4679 63.4109 75.9761 63.4078 75.4844 63.4038C75.5466 63.063 75.6336 62.74 75.7395 62.4103C75.7872 62.2597 75.7872 62.2597 75.8359 62.1061C75.8695 61.9998 75.9032 61.8936 75.9379 61.7841C76.1683 61.047 76.3881 60.313 76.5504 59.5577C76.5654 59.4901 76.5803 59.4225 76.5957 59.3528C76.6607 59.05 76.7138 58.7509 76.7514 58.4434C76.8344 57.8762 76.9418 57.5516 77.4017 57.1846C77.6174 57.0269 77.8377 56.8771 78.0599 56.7287C78.8073 56.2063 79.5128 55.498 80.0844 54.7869C80.1524 54.7072 80.2204 54.6275 80.2905 54.5454Z" fill="#12C66F"/>
<path d="M40.8999 36.3572C41.2966 36.5984 41.5831 36.9452 41.8835 37.2937C42.7896 38.3409 44.1147 39.1962 45.5176 39.3728C47.2831 39.4972 48.9144 39.2583 50.3167 38.1106C50.7792 37.665 51.1569 37.1822 51.5043 36.6429C51.6431 36.4514 51.6431 36.4514 51.9258 36.263C52.3861 36.1959 52.756 36.1943 53.1568 36.4397C53.4698 36.783 53.4776 37.056 53.4711 37.5087C53.348 38.3682 52.6026 39.0623 52.02 39.6555C51.9562 39.7216 51.8925 39.7877 51.8268 39.8558C50.2397 41.386 48.0432 41.7883 45.9196 41.7542C44.1627 41.689 42.4835 41.0281 41.1826 39.844C41.1035 39.7771 41.0244 39.7101 40.943 39.6412C39.4645 38.3685 39.4645 38.3685 39.3597 37.6397C39.3218 36.9465 39.3218 36.9465 39.5095 36.6311C39.9328 36.2166 40.3488 36.1562 40.8999 36.3572Z" fill="#044C23"/>
<path d="M50.7946 28.1586C51.3856 28.3998 51.523 28.8389 51.7841 29.3973C52.0195 29.8454 52.2893 30.0392 52.7442 30.2613C53.4507 30.4079 54.0598 30.4138 54.6908 30.0408C54.8469 29.9491 54.8469 29.9491 55.1296 29.8549C55.2373 29.6848 55.2373 29.6848 55.3181 29.478C55.347 29.409 55.3759 29.34 55.4057 29.2689C55.4351 29.1979 55.4645 29.127 55.4948 29.0539C55.7629 28.4589 55.7629 28.4589 56.072 28.2529C56.5038 28.1484 56.7183 28.1221 57.1381 28.2646C57.4266 28.466 57.5434 28.5859 57.674 28.9125C57.7648 29.6647 57.5554 30.352 57.1064 30.9622C56.2689 31.9226 55.3105 32.5404 54.0083 32.6305C52.5974 32.6814 51.3891 32.4477 50.3235 31.457C49.8008 30.8539 49.3889 30.1821 49.3398 29.3719C49.396 28.8744 49.5875 28.6178 49.9288 28.2646C50.2365 28.1064 50.4533 28.1174 50.7946 28.1586Z" fill="#044C23"/>
<path d="M36.5642 28.2528C37.0138 28.4981 37.1303 28.8202 37.3158 29.2721C37.4973 29.6592 37.7804 29.8743 38.1191 30.1199C38.7909 30.3479 39.5189 30.3368 40.1805 30.0728C40.6907 29.7867 40.8854 29.343 41.1189 28.8238C41.2913 28.5075 41.4461 28.3528 41.7473 28.1586C42.1031 28.1141 42.3293 28.1261 42.6602 28.2646C42.991 28.5328 43.23 28.7721 43.2772 29.2132C43.2377 30.0914 42.8304 30.8998 42.1949 31.4981C41.1156 32.3666 39.8231 32.7116 38.4489 32.5878C37.3275 32.3938 36.2246 31.8862 35.5504 30.9423C35.1624 30.3182 34.8815 29.7592 34.9621 29.0067C35.3365 28.2856 35.7873 28.027 36.5642 28.2528Z" fill="#044C23"/>
<path d="M47.9668 31.2687C48.5269 31.6007 48.8947 32.1677 49.0977 32.7765C49.164 33.6931 49.1578 34.3828 48.5819 35.1221C48.0892 35.6765 47.5284 35.9354 46.7947 36.0163C45.8328 36.0484 45.1446 35.8452 44.4332 35.1932C43.8867 34.5955 43.7791 33.9542 43.7887 33.1693C43.8582 32.5131 44.1672 32.0139 44.639 31.5632C45.6859 30.7324 46.7853 30.7003 47.9668 31.2687Z" fill="#FD7A29"/>
<path d="M52.9619 63.498C55.4498 63.498 57.9377 63.498 60.501 63.498C60.4699 63.5602 60.4388 63.6224 60.4067 63.6865C60.3445 63.6865 60.2823 63.6865 60.2183 63.6865C60.1957 63.7412 60.1731 63.7959 60.1498 63.8522C59.6899 64.6619 58.5846 65.158 57.7427 65.4594C56.7159 65.7337 55.6137 65.6539 54.6582 65.1943C53.9536 64.7804 53.4041 64.282 52.9619 63.5923C52.9619 63.5612 52.9619 63.5301 52.9619 63.498Z" fill="white"/>
<path d="M50.6055 9.02832C50.9478 9.34157 51.1877 9.68898 51.4359 10.0767C51.4755 10.1364 51.515 10.196 51.5558 10.2575C51.6536 10.4093 51.7429 10.5667 51.8306 10.7246C51.7995 10.7868 51.7684 10.849 51.7363 10.9131C51.3473 10.5661 51.176 10.262 50.9824 9.78223C50.8576 9.5932 50.7321 9.4046 50.6055 9.2168C50.6055 9.1546 50.6055 9.0924 50.6055 9.02832Z" fill="#13AE65"/>
<path d="M69.3599 59.0688C69.391 59.1621 69.4221 59.2554 69.4541 59.3516C69.8895 59.3516 70.3249 59.3516 70.7734 59.3516C70.7423 59.4138 70.7112 59.476 70.6792 59.54C70.2127 59.54 69.7462 59.54 69.2656 59.54C69.2967 59.3845 69.3278 59.2291 69.3599 59.0688Z" fill="#FDCF2C"/>
<path d="M65.1191 34.2842C65.1502 34.3464 65.1813 34.4086 65.2134 34.4727C65.0626 34.5519 64.9113 34.6303 64.7599 34.7083C64.6336 34.7739 64.6336 34.7739 64.5048 34.8408C64.271 34.9438 64.271 34.9438 63.9883 34.9438C64.2053 34.6988 64.4123 34.5813 64.7127 34.455C64.7889 34.4226 64.8651 34.3901 64.9435 34.3567C65.0015 34.3328 65.0594 34.3088 65.1191 34.2842Z" fill="#F5D433"/>
<path d="M41.5586 28.2529C41.6519 28.284 41.7452 28.3151 41.8413 28.3472C41.5148 28.6271 41.5148 28.6271 41.1816 28.9126C41.272 28.551 41.2981 28.4794 41.5586 28.2529Z" fill="#023F19"/>
</svg>
