<svg width="120" height="80" viewBox="0 0 120 80" fill="none" xmlns="http://www.w3.org/2000/svg">
<g clip-path="url(#clip0_262_2692)">
<rect width="120" height="80" rx="8" fill="#E4EBFE"/>
<path d="M32.6125 -11.9158C35.5591 -9.97296 38.0488 -6.95358 40.5396 -4.4701C41.2892 -3.72312 42.0408 -2.9782 42.7927 -2.23346C44.8727 -0.167423 46.927 1.89087 48.8319 4.11924C50.5753 6.0582 52.4835 7.85426 54.3446 9.68113C59.0579 14.3077 59.0579 14.3077 60.4673 15.9583C61.6912 17.3861 63.0128 18.7008 64.3528 20.0197C64.5793 20.2428 64.8059 20.4658 65.0393 20.6956C65.9858 21.6256 66.9336 22.5541 67.8831 23.481C68.5832 24.1651 69.2808 24.8516 69.9781 25.5384C70.1928 25.7466 70.4076 25.9549 70.6288 26.1695C72.5457 28.062 72.5457 28.062 72.9996 29.3668C72.9406 30.7756 72.7871 31.4562 71.8697 32.5442C70.4195 33.7234 69.4228 33.6122 67.5666 33.5954C67.0737 33.592 66.5809 33.5885 66.0731 33.585C65.6933 33.5805 65.3135 33.5761 64.9222 33.5715C64.9236 33.8097 64.925 34.048 64.9265 34.2934C64.9605 40.0935 64.9859 45.8935 65.0019 51.6937C65.0098 54.4986 65.0207 57.3035 65.0383 60.1083C65.0536 62.5535 65.0635 64.9985 65.067 67.4437C65.069 68.7381 65.0737 70.0323 65.0849 71.3266C65.096 72.7726 65.0976 74.2183 65.0969 75.6643C65.1024 76.0922 65.1079 76.52 65.1136 76.9608C65.1014 79.2407 65.0248 80.7533 63.3836 82.4991C61.8639 83.6018 60.7905 83.7901 58.9229 83.794C58.6732 83.796 58.4234 83.7981 58.1661 83.8002C57.3322 83.8057 56.4986 83.803 55.6647 83.8002C55.0656 83.8024 54.4665 83.8051 53.8675 83.8082C52.2423 83.815 50.6172 83.8146 48.992 83.8124C47.6346 83.8112 46.2773 83.8136 44.92 83.8159C41.7176 83.8212 38.5152 83.8206 35.3128 83.8163C32.0103 83.8119 28.7079 83.8173 25.4054 83.8275C22.5687 83.836 19.732 83.8385 16.8952 83.8363C15.2015 83.835 13.5079 83.8359 11.8142 83.8425C10.2214 83.8484 8.62881 83.8469 7.036 83.8397C6.45207 83.8383 5.86813 83.8395 5.28421 83.8435C4.48569 83.8485 3.68775 83.8441 2.88926 83.8374C2.44289 83.8373 1.99651 83.8372 1.53662 83.8371C0.018446 83.6017 -0.811152 83.0626 -2.00494 82.1168C-2.84974 80.8575 -2.8697 80.4936 -2.86672 79.0327C-2.86778 78.6323 -2.86884 78.2319 -2.86993 77.8194C-2.86716 77.3803 -2.8644 76.9412 -2.86155 76.4888C-2.86166 76.0264 -2.86177 75.5639 -2.86189 75.0874C-2.86144 73.8191 -2.85758 72.5509 -2.85222 71.2827C-2.84741 69.9573 -2.84695 68.6319 -2.84604 67.3065C-2.84365 64.7967 -2.83733 62.2868 -2.82962 59.777C-2.82102 56.9197 -2.81679 54.0623 -2.81293 51.205C-2.80488 45.3271 -2.79135 39.4493 -2.77422 33.5715C-3.1684 33.5893 -3.56257 33.607 -3.9687 33.6253C-4.49206 33.6396 -5.01543 33.6535 -5.53881 33.6671C-5.79787 33.6799 -6.05694 33.6927 -6.32386 33.7059C-7.70214 33.7326 -8.47874 33.6111 -9.66316 32.8906C-10.5818 31.9214 -10.9143 31.1318 -11 29.795C-10.8114 28.7648 -10.4402 28.3476 -9.72776 27.581C-9.48221 27.3158 -9.23665 27.0506 -8.98365 26.7773C-7.20469 24.9418 -5.3816 23.1526 -3.55401 21.365C-3.24511 21.061 -2.93621 20.757 -2.61796 20.4438C-2.20555 20.0406 -2.20555 20.0406 -1.78482 19.6292C-1.03431 18.8534 -0.32689 18.0668 0.378553 17.2516C1.74269 15.6984 3.17299 14.2286 4.64182 12.7735C4.90734 12.509 5.17286 12.2445 5.44643 11.9719C6.31375 11.1083 7.18245 10.2461 8.05126 9.38399C8.65791 8.78086 9.2645 8.17767 9.87103 7.57443C11.1368 6.316 12.4032 5.05826 13.6701 3.80101C15.2964 2.18702 16.921 0.571294 18.545 -1.04494C19.7946 -2.28808 21.045 -3.5303 22.2957 -4.77226C22.8955 -5.36804 23.495 -5.96411 24.0942 -6.56047C24.9283 -7.39036 25.7636 -8.21902 26.5993 -9.04735C26.8476 -9.29495 27.096 -9.54255 27.3519 -9.79764C29.1651 -11.591 29.9943 -12.2515 32.6125 -11.9158Z" fill="#4675FB"/>
<path d="M32.6136 -11.9158C35.5601 -9.97295 38.0498 -6.95358 40.5406 -4.4701C41.2902 -3.72312 42.0419 -2.9782 42.7937 -2.23346C44.8737 -0.167422 46.928 1.89087 48.8329 4.11924C50.5763 6.05821 52.4846 7.85426 54.3457 9.68113C59.0589 14.3077 59.0589 14.3077 60.4683 15.9583C61.6922 17.3861 63.0138 18.7008 64.3538 20.0197C64.5804 20.2428 64.8069 20.4658 65.0404 20.6956C65.9868 21.6256 66.9347 22.5541 67.8842 23.481C68.5842 24.1651 69.2818 24.8516 69.9791 25.5384C70.1939 25.7466 70.4086 25.9549 70.6299 26.1695C72.5468 28.062 72.5468 28.062 73.0006 29.3668C72.9463 30.6625 72.7852 31.4237 72.0264 32.4845C70.6912 33.4761 69.4676 33.4001 67.8655 33.3809C67.3751 33.384 67.3751 33.384 66.8748 33.3873C65.7774 33.3925 64.6804 33.3867 63.583 33.3811C62.7971 33.3825 62.0111 33.3846 61.2252 33.3873C59.089 33.3927 56.953 33.3884 54.8168 33.3821C52.5834 33.3768 50.3501 33.3792 48.1167 33.3806C44.3658 33.3816 40.615 33.3765 36.8641 33.3676C32.5249 33.3574 28.1858 33.3568 23.8465 33.3613C19.6758 33.3654 15.5052 33.363 11.3344 33.3576C9.55789 33.3554 7.78136 33.3554 6.00481 33.3573C3.91354 33.3591 1.82236 33.3552 -0.268894 33.347C-1.03736 33.3448 -1.80583 33.3447 -2.5743 33.3466C-3.62144 33.3488 -4.66832 33.3441 -5.71544 33.3375C-6.17409 33.3409 -6.17409 33.3409 -6.642 33.3444C-7.86781 33.3303 -8.77534 33.2692 -9.86888 32.6947C-10.6659 31.8241 -10.897 30.9721 -10.9854 29.8085C-10.814 28.7605 -10.4511 28.3554 -9.72823 27.5795C-9.48246 27.3145 -9.23669 27.0495 -8.98346 26.7765C-7.20266 24.9427 -5.38056 23.1526 -3.55298 21.365C-3.24408 21.061 -2.93518 20.757 -2.61692 20.4438C-2.20452 20.0406 -2.20452 20.0406 -1.78379 19.6292C-1.03327 18.8534 -0.325858 18.0668 0.379584 17.2516C1.74372 15.6984 3.17402 14.2286 4.64285 12.7735C4.90837 12.509 5.17389 12.2445 5.44746 11.9719C6.31478 11.1083 7.18348 10.2461 8.05229 9.384C8.65894 8.78086 9.26553 8.17767 9.87207 7.57443C11.1378 6.316 12.4042 5.05826 13.6712 3.80101C15.2975 2.18702 16.922 0.571295 18.5461 -1.04494C19.7956 -2.28807 21.046 -3.5303 22.2968 -4.77226C22.8965 -5.36804 23.496 -5.96411 24.0952 -6.56047C24.9293 -7.39036 25.7646 -8.21902 26.6003 -9.04735C26.8487 -9.29495 27.097 -9.54255 27.3529 -9.79764C29.1661 -11.591 29.9953 -12.2515 32.6136 -11.9158Z" fill="#8AB2FF"/>
<path d="M17.2511 45.5884C17.6698 45.5842 18.0885 45.58 18.5199 45.5757C21.5645 45.6036 21.5645 45.6036 22.7297 46.4404C23.9775 48.1486 23.6166 50.2416 23.5976 52.2777C23.6114 52.9544 23.6114 52.9544 23.6254 53.6447C23.6222 55.5202 23.6066 56.8667 22.6826 58.5235C20.8215 59.5244 19.1181 59.4597 17.0347 59.4209C16.439 59.432 16.439 59.432 15.8312 59.4433C14.0954 59.4322 12.922 59.3527 11.3884 58.5101C10.2866 56.56 10.4099 54.6904 10.4478 52.4927C10.4404 52.0616 10.4329 51.6304 10.4253 51.1862C10.4361 49.3675 10.4847 48.0824 11.3748 46.4738C13.2945 45.433 15.1006 45.5414 17.2511 45.5884Z" fill="#CCDBFF"/>
<path d="M44.729 45.5644C45.1261 45.557 45.5233 45.5496 45.9325 45.542C47.6763 45.5532 48.8414 45.6297 50.3768 46.4872C51.4564 48.3837 51.3394 50.1607 51.2919 52.3015C51.2961 52.7144 51.3003 53.1273 51.3046 53.5527C51.2767 56.5548 51.2767 56.5548 50.3408 58.1068C48.6549 59.5599 46.9421 59.2661 44.8011 59.2775C44.4354 59.2854 44.0697 59.2932 43.693 59.3014C40.2893 59.3203 40.2893 59.3203 38.7671 58.0352C37.9564 56.424 38.2601 54.3346 38.2382 52.5643C38.2238 52.128 38.2094 51.6916 38.1946 51.2421C38.1751 49.3951 38.165 48.1042 39.0766 46.4707C40.9394 45.4591 42.6395 45.5255 44.729 45.5644Z" fill="#CCDBFF"/>
<ellipse cx="46.353" cy="3.58112" rx="46.353" ry="3.58112" transform="matrix(-1 0 0 1 143.391 78.9106)" fill="#C6CDE0"/>
<path d="M80.6468 25.9562C80.372 26.1072 80.0972 26.2582 79.814 26.4137C73.08 30.405 68.8553 36.5624 65.7861 43.5806C65.6373 43.9148 65.4885 44.249 65.3352 44.5933C64.473 46.7225 64.2457 48.593 64.176 50.8548C64.0717 53.6369 63.1949 55.4977 61.2516 57.5162C58.4585 60.091 55.457 60.1711 51.7828 60.068C52.2248 67.3587 54.6825 76.2211 59.797 81.7476C61.7224 83.4449 63.6154 83.421 66.0631 83.4329C66.3524 83.4353 66.6416 83.4378 66.9396 83.4403C67.9099 83.4481 68.8802 83.4538 69.8506 83.4595C70.5458 83.4646 71.241 83.4697 71.9362 83.4749C78.2741 83.52 84.6122 83.5441 90.9502 83.563C91.7977 83.5656 92.6451 83.5682 93.4926 83.5709C93.7032 83.5715 93.9138 83.5722 94.1309 83.5729C97.5446 83.5839 100.958 83.6068 104.372 83.6343C107.878 83.6623 111.384 83.6785 114.89 83.6834C116.859 83.6865 118.827 83.695 120.795 83.7169C122.645 83.7376 124.496 83.7424 126.347 83.7365C127.026 83.7369 127.706 83.7427 128.385 83.7542C133.524 83.8369 133.524 83.8369 134.925 82.6955C135.457 81.8859 135.789 81.167 136.088 80.2507C136.265 79.8871 136.445 79.5248 136.629 79.1648C140.903 68.8298 140.72 56.9761 136.402 46.6509C132.022 36.5603 124.665 27.8685 114.217 23.6761C103.059 19.4818 91.0761 20.2 80.6468 25.9562Z" fill="#86ADFF"/>
<path d="M54.6405 27.3774C53.1283 28.2004 52.5173 29.2725 51.9769 30.883C51.548 33.1854 51.6978 35.5637 51.7827 37.8952C51.4821 37.9062 51.4821 37.9062 51.1754 37.9174C48.6756 38.0661 47.0088 38.5293 45.2811 40.3825C44.963 40.7786 44.6529 41.1812 44.3523 41.5906C44.2275 41.7566 44.1026 41.9226 43.9739 42.0937C42.7546 44.0469 42.8477 46.546 43.3457 48.7263C44.5518 53.0181 46.4478 57.3956 50.3895 59.748C52.8005 60.6316 55.9439 60.6633 58.3556 59.7836C60.9573 58.5005 63.2155 56.2614 64.1785 53.5075C64.8395 50.4334 64.4904 47.3045 63.2139 44.4333C62.9165 44.0143 62.6129 43.5996 62.303 43.1896C61.1518 41.449 61.3251 39.4927 61.2855 37.481C61.2177 34.1333 60.6606 30.3886 58.1413 27.9104C56.9228 27.2112 56.014 27.0855 54.6405 27.3774Z" fill="#F2D4B7"/>
<path d="M88.8438 57.4241C88.0758 57.7439 88.0758 57.7439 87.5042 58.3124C87.2767 60.2847 87.2767 60.2847 88.0401 61.2972C88.3329 61.5399 88.6316 61.7758 88.9331 62.0078C89.1446 62.19 89.356 62.3721 89.5739 62.5597C92.2888 64.8437 94.7534 65.8243 98.3126 65.781C100.904 65.5593 104.23 64.1318 106.08 62.2921C106.163 61.5078 106.171 61.0308 105.776 60.3378C105.092 59.9426 104.629 59.9719 103.862 60.1157C102.722 60.448 101.643 60.9229 100.556 61.3949C98.7777 62.1605 96.9458 62.3476 95.064 61.7935C93.5814 61.1625 92.3376 60.417 91.321 59.1463C89.9728 57.4665 89.9728 57.4665 88.8438 57.4241Z" fill="#2259BB"/>
<path d="M94.5057 42.8877C93.2728 44.0834 92.5941 45.1232 92.5052 46.8319C92.588 48.4926 93.182 49.8153 94.3807 50.9715C95.7296 51.4282 96.9607 51.529 98.3637 51.2557C99.8448 50.4166 100.985 49.1844 101.507 47.5603C101.736 46.1503 101.68 45.0852 100.864 43.8826C99.3599 41.929 96.6235 41.9473 94.5057 42.8877Z" fill="#2259BB"/>
<path d="M59.2127 41.3064C58.9297 41.4002 58.6468 41.494 58.3553 41.5907C58.261 42.6225 58.1667 43.6544 58.0695 44.7176C56.0891 44.7176 54.1086 44.7176 52.0681 44.7176C52.0681 44.999 52.0681 45.2804 52.0681 45.5704C54.0614 46.0758 56.0643 46.5356 58.0695 46.9917C58.1638 47.9298 58.2582 48.8678 58.3553 49.8343C56.4692 49.8343 54.583 49.8343 52.6397 49.8343C52.734 50.2096 52.8283 50.5848 52.9255 50.9714C53.2719 51.028 53.2719 51.028 53.6254 51.0858C53.9308 51.136 54.2362 51.1862 54.5509 51.2379C54.8526 51.2874 55.1543 51.3368 55.4651 51.3878C56.2403 51.5203 57.0124 51.6707 57.7838 51.8242C58.0667 52.9499 58.3496 54.0756 58.6411 55.2354C58.924 55.1415 59.2069 55.0477 59.4984 54.9511C59.9946 53.964 59.7874 52.8389 59.7664 51.7531C59.7281 50.982 59.7281 50.982 60.07 50.4029C60.1477 49.143 60.1362 47.8806 60.1415 46.6186C60.1473 46.267 60.1532 45.9154 60.1593 45.5532C60.1608 45.214 60.1623 44.8749 60.1638 44.5255C60.1665 44.215 60.1691 43.9045 60.1719 43.5846C60.058 42.6268 59.7655 42.0886 59.2127 41.3064Z" fill="#C17B57"/>
<path d="M107.913 44.7327C107.125 45.4377 107.125 45.4377 106.653 46.4038C106.727 47.4368 106.727 47.4368 107.073 48.4926C107.823 49.1128 107.823 49.1128 108.779 49.6415C110.741 50.8268 112.009 52.2265 113.406 54.0248C114.213 54.7591 114.213 54.7591 115.309 54.9191C116.313 54.7591 116.313 54.7591 117.153 53.9236C117.401 52.6286 117.343 51.7663 116.706 50.5978C114.872 48.01 111.344 44.2208 107.913 44.7327Z" fill="#27313C"/>
<path d="M88.4885 40.8611C85.6946 41.1168 83.0683 41.7998 80.847 43.582C80.3287 44.2424 80.3287 44.2424 80.4611 45.5864C80.5573 45.9777 80.6535 46.3691 80.7526 46.7723C82.8735 47.2957 84.1179 47.0544 86.1307 46.2452C86.6044 46.0604 87.0782 45.8756 87.5663 45.6852C88.6711 45.1511 89.3685 44.8075 90.0781 43.8208C89.8413 40.8761 89.8413 40.8761 88.4885 40.8611Z" fill="#252F3B"/>
<path d="M59.499 59.2151C59.2533 59.2766 59.0076 59.3382 58.7544 59.4016C56.3737 59.9595 54.2349 60.1773 51.7829 60.0679C51.8157 60.5655 51.8521 61.063 51.8901 61.5603C51.91 61.8373 51.9299 62.1143 51.9504 62.3997C52.0643 63.1653 52.2502 63.6694 52.6403 64.3318C52.6543 64.1094 52.6683 63.887 52.6827 63.6578C52.7041 63.3702 52.7254 63.0825 52.7474 62.7862C52.7673 62.4992 52.7872 62.2123 52.8077 61.9167C52.8468 61.6818 52.8858 61.4469 52.926 61.2049C53.949 60.6962 55.1564 60.9343 56.2806 60.9662C57.2301 60.9198 57.8119 60.8053 58.6417 60.3521C59.1597 59.7481 59.1597 59.7481 59.499 59.2151Z" fill="#86ADFF"/>
</g>
<defs>
<clipPath id="clip0_262_2692">
<rect width="120" height="80" rx="8" fill="white"/>
</clipPath>
</defs>
</svg>
