<svg width="404" height="209" viewBox="27.5 27.5 349 154" fill="none" preserveAspectRatio="none" xmlns="http://www.w3.org/2000/svg">
<g filter="url(#filter0_d_368_3800)">
<rect x="27.5" y="27.5" width="349" height="154" rx="8" fill="#4675FB" shape-rendering="crispEdges"/>
<rect x="27.9" y="27.9" width="348.2" height="153.2" rx="7.6" stroke="black" stroke-opacity="0.08" stroke-width="0.8" shape-rendering="crispEdges"/>
<rect x="267.5" y="38.5" width="132" height="132" rx="66" transform="rotate(90 267.5 38.5)" fill="#86ADFF"/>
<path d="M177.414 111.76C176.547 111.76 175.774 111.673 175.094 111.5C174.427 111.313 173.86 111.047 173.394 110.7C172.94 110.34 172.594 109.9 172.354 109.38C172.127 108.847 172.02 108.233 172.034 107.54L173.974 107.02C173.947 107.687 174.074 108.24 174.354 108.68C174.634 109.12 175.047 109.453 175.594 109.68C176.154 109.893 176.794 110 177.514 110C178.22 110 178.814 109.913 179.294 109.74C179.774 109.567 180.134 109.333 180.374 109.04C180.627 108.733 180.754 108.387 180.754 108C180.754 107.56 180.6 107.213 180.294 106.96C180 106.693 179.607 106.487 179.114 106.34C178.62 106.18 178.067 106.033 177.454 105.9C176.827 105.767 176.207 105.613 175.594 105.44C174.98 105.267 174.42 105.04 173.914 104.76C173.42 104.467 173.02 104.093 172.714 103.64C172.42 103.187 172.274 102.613 172.274 101.92C172.274 101.12 172.474 100.433 172.874 99.86C173.274 99.2867 173.84 98.84 174.574 98.52C175.32 98.2 176.2 98.04 177.214 98.04C178.227 98.04 179.114 98.2 179.874 98.52C180.647 98.8267 181.254 99.28 181.694 99.88C182.147 100.467 182.38 101.18 182.394 102.02L180.394 102.54C180.394 102.087 180.314 101.687 180.154 101.34C180.007 100.993 179.794 100.707 179.514 100.48C179.234 100.253 178.9 100.087 178.514 99.98C178.127 99.86 177.687 99.8 177.194 99.8C176.62 99.8 176.12 99.8867 175.694 100.06C175.267 100.22 174.934 100.447 174.694 100.74C174.467 101.02 174.354 101.353 174.354 101.74C174.354 102.22 174.52 102.6 174.854 102.88C175.2 103.147 175.654 103.367 176.214 103.54C176.774 103.7 177.374 103.853 178.014 104C178.587 104.12 179.154 104.267 179.714 104.44C180.287 104.6 180.807 104.82 181.274 105.1C181.754 105.38 182.134 105.747 182.414 106.2C182.707 106.653 182.854 107.233 182.854 107.94C182.854 108.713 182.647 109.387 182.234 109.96C181.834 110.533 181.234 110.98 180.434 111.3C179.634 111.607 178.627 111.76 177.414 111.76ZM188.766 111.72C187.74 111.72 186.973 111.44 186.466 110.88C185.973 110.32 185.726 109.46 185.726 108.3V102.88H184.186L184.226 101.1H185.226C185.573 101.1 185.833 101.047 186.006 100.94C186.18 100.82 186.286 100.613 186.326 100.32L186.526 98.78H187.826V101.1H190.686V102.92H187.826V108.24C187.826 108.76 187.946 109.133 188.186 109.36C188.426 109.587 188.78 109.7 189.246 109.7C189.5 109.7 189.753 109.673 190.006 109.62C190.273 109.553 190.526 109.433 190.766 109.26V111.36C190.366 111.493 190 111.587 189.666 111.64C189.333 111.693 189.033 111.72 188.766 111.72ZM196.324 111.76C195.15 111.76 194.264 111.36 193.664 110.56C193.064 109.747 192.764 108.527 192.764 106.9V101.1H194.944V106.66C194.944 107.753 195.11 108.567 195.444 109.1C195.777 109.633 196.304 109.9 197.024 109.9C197.424 109.9 197.777 109.8 198.084 109.6C198.39 109.4 198.657 109.12 198.884 108.76C199.124 108.4 199.31 107.98 199.444 107.5C199.59 107.007 199.69 106.467 199.744 105.88V101.1H201.904V107.18V111.5H200.064L200.164 108.2H199.824C199.65 109.027 199.404 109.707 199.084 110.24C198.777 110.76 198.39 111.147 197.924 111.4C197.47 111.64 196.937 111.76 196.324 111.76ZM208.596 111.76C207.716 111.76 206.956 111.533 206.316 111.08C205.676 110.613 205.19 109.973 204.856 109.16C204.523 108.333 204.356 107.38 204.356 106.3C204.356 105.247 204.51 104.313 204.816 103.5C205.136 102.673 205.603 102.027 206.216 101.56C206.843 101.093 207.61 100.86 208.516 100.86C209.236 100.86 209.83 101.007 210.296 101.3C210.763 101.58 211.136 101.967 211.416 102.46C211.71 102.953 211.93 103.5 212.076 104.1H212.476C212.41 103.713 212.343 103.313 212.276 102.9C212.21 102.473 212.156 102.067 212.116 101.68C212.076 101.28 212.056 100.927 212.056 100.62V97.4H214.256V106.38V111.5H212.356L212.436 108.62H212.076C211.916 109.273 211.69 109.833 211.396 110.3C211.103 110.767 210.723 111.127 210.256 111.38C209.803 111.633 209.25 111.76 208.596 111.76ZM209.196 109.92C209.663 109.92 210.076 109.813 210.436 109.6C210.796 109.387 211.096 109.107 211.336 108.76C211.576 108.413 211.756 108.04 211.876 107.64C212.01 107.227 212.076 106.84 212.076 106.48V106.2C212.076 105.933 212.036 105.647 211.956 105.34C211.89 105.02 211.776 104.707 211.616 104.4C211.47 104.08 211.283 103.793 211.056 103.54C210.83 103.287 210.556 103.087 210.236 102.94C209.93 102.78 209.583 102.7 209.196 102.7C208.636 102.7 208.163 102.86 207.776 103.18C207.403 103.487 207.116 103.913 206.916 104.46C206.716 105.007 206.616 105.633 206.616 106.34C206.616 107.06 206.716 107.693 206.916 108.24C207.13 108.773 207.43 109.187 207.816 109.48C208.203 109.773 208.663 109.92 209.196 109.92ZM217.24 111.5V101.1H219.4V111.5H217.24ZM218.32 99.36C217.854 99.36 217.5 99.2667 217.26 99.08C217.02 98.88 216.9 98.5867 216.9 98.2C216.9 97.8267 217.02 97.54 217.26 97.34C217.5 97.14 217.854 97.04 218.32 97.04C218.8 97.04 219.16 97.14 219.4 97.34C219.64 97.54 219.76 97.8267 219.76 98.2C219.76 98.5867 219.64 98.88 219.4 99.08C219.16 99.2667 218.8 99.36 218.32 99.36ZM226.956 111.76C225.956 111.76 225.069 111.547 224.296 111.12C223.523 110.693 222.916 110.073 222.476 109.26C222.049 108.447 221.836 107.447 221.836 106.26C221.836 105.047 222.063 104.04 222.516 103.24C222.969 102.44 223.576 101.84 224.336 101.44C225.109 101.04 225.976 100.84 226.936 100.84C227.923 100.84 228.803 101.047 229.576 101.46C230.349 101.873 230.956 102.487 231.396 103.3C231.849 104.113 232.076 105.127 232.076 106.34C232.076 107.54 231.849 108.547 231.396 109.36C230.956 110.16 230.349 110.76 229.576 111.16C228.803 111.56 227.929 111.76 226.956 111.76ZM227.036 110.04C227.636 110.04 228.149 109.9 228.576 109.62C229.003 109.34 229.329 108.927 229.556 108.38C229.783 107.833 229.896 107.18 229.896 106.42C229.896 105.633 229.776 104.96 229.536 104.4C229.296 103.827 228.949 103.387 228.496 103.08C228.056 102.773 227.516 102.62 226.876 102.62C226.303 102.62 225.796 102.76 225.356 103.04C224.929 103.307 224.603 103.713 224.376 104.26C224.149 104.793 224.036 105.447 224.036 106.22C224.036 107.433 224.303 108.373 224.836 109.04C225.369 109.707 226.103 110.04 227.036 110.04Z" fill="#001DDB"/>
</g>
<defs>
<filter id="filter0_d_368_3800" x="0" y="0" width="404" height="209" filterUnits="userSpaceOnUse" color-interpolation-filters="sRGB">
<feFlood flood-opacity="0" result="BackgroundImageFix"/>
<feColorMatrix in="SourceAlpha" type="matrix" values="0 0 0 0 0 0 0 0 0 0 0 0 0 0 0 0 0 0 127 0" result="hardAlpha"/>
<feOffset/>
<feGaussianBlur stdDeviation="13.75"/>
<feComposite in2="hardAlpha" operator="out"/>
<feColorMatrix type="matrix" values="0 0 0 0 0.409129 0 0 0 0 0.535373 0 0 0 0 0.896071 0 0 0 0.1 0"/>
<feBlend mode="normal" in2="BackgroundImageFix" result="effect1_dropShadow_368_3800"/>
<feBlend mode="normal" in="SourceGraphic" in2="effect1_dropShadow_368_3800" result="shape"/>
</filter>
</defs>
</svg>
