<svg width="209" height="210" viewBox="26 27.5 155 155" fill="none" xmlns="http://www.w3.org/2000/svg">
<g filter="url(#filter0_d_262_1170)">
<rect x="26" y="27.5" width="155" height="155" rx="8" fill="#4675FB" shape-rendering="crispEdges"/>
<rect x="26.4" y="27.9" width="154.2" height="154.2" rx="7.6" stroke="black" stroke-opacity="0.08" stroke-width="0.8" shape-rendering="crispEdges"/>
<rect x="151" y="56.5" width="96.1605" height="96.1605" rx="48.0803" transform="rotate(90 151 56.5)" fill="#86ADFF"/>
<path d="M78.9137 112.26C78.047 112.26 77.2737 112.173 76.5937 112C75.927 111.813 75.3603 111.547 74.8937 111.2C74.4403 110.84 74.0937 110.4 73.8537 109.88C73.627 109.347 73.5203 108.733 73.5337 108.04L75.4737 107.52C75.447 108.187 75.5737 108.74 75.8537 109.18C76.1337 109.62 76.547 109.953 77.0937 110.18C77.6537 110.393 78.2937 110.5 79.0137 110.5C79.7203 110.5 80.3137 110.413 80.7937 110.24C81.2737 110.067 81.6337 109.833 81.8737 109.54C82.127 109.233 82.2537 108.887 82.2537 108.5C82.2537 108.06 82.1003 107.713 81.7937 107.46C81.5003 107.193 81.107 106.987 80.6137 106.84C80.1203 106.68 79.567 106.533 78.9537 106.4C78.327 106.267 77.707 106.113 77.0937 105.94C76.4803 105.767 75.9203 105.54 75.4137 105.26C74.9203 104.967 74.5203 104.593 74.2137 104.14C73.9203 103.687 73.7737 103.113 73.7737 102.42C73.7737 101.62 73.9737 100.933 74.3737 100.36C74.7737 99.7867 75.3403 99.34 76.0737 99.02C76.8203 98.7 77.7003 98.54 78.7137 98.54C79.727 98.54 80.6137 98.7 81.3737 99.02C82.147 99.3267 82.7537 99.78 83.1937 100.38C83.647 100.967 83.8803 101.68 83.8937 102.52L81.8937 103.04C81.8937 102.587 81.8137 102.187 81.6537 101.84C81.507 101.493 81.2937 101.207 81.0137 100.98C80.7337 100.753 80.4003 100.587 80.0137 100.48C79.627 100.36 79.187 100.3 78.6937 100.3C78.1203 100.3 77.6203 100.387 77.1937 100.56C76.767 100.72 76.4337 100.947 76.1937 101.24C75.967 101.52 75.8537 101.853 75.8537 102.24C75.8537 102.72 76.0203 103.1 76.3537 103.38C76.7003 103.647 77.1537 103.867 77.7137 104.04C78.2737 104.2 78.8737 104.353 79.5137 104.5C80.087 104.62 80.6537 104.767 81.2137 104.94C81.787 105.1 82.307 105.32 82.7737 105.6C83.2537 105.88 83.6337 106.247 83.9137 106.7C84.207 107.153 84.3537 107.733 84.3537 108.44C84.3537 109.213 84.147 109.887 83.7337 110.46C83.3337 111.033 82.7337 111.48 81.9337 111.8C81.1337 112.107 80.127 112.26 78.9137 112.26ZM90.2662 112.22C89.2395 112.22 88.4728 111.94 87.9662 111.38C87.4728 110.82 87.2262 109.96 87.2262 108.8V103.38H85.6862L85.7262 101.6H86.7262C87.0728 101.6 87.3328 101.547 87.5062 101.44C87.6795 101.32 87.7862 101.113 87.8262 100.82L88.0262 99.28H89.3262V101.6H92.1862V103.42H89.3262V108.74C89.3262 109.26 89.4462 109.633 89.6862 109.86C89.9262 110.087 90.2795 110.2 90.7462 110.2C90.9995 110.2 91.2528 110.173 91.5062 110.12C91.7728 110.053 92.0262 109.933 92.2662 109.76V111.86C91.8662 111.993 91.4995 112.087 91.1662 112.14C90.8328 112.193 90.5328 112.22 90.2662 112.22ZM97.8238 112.26C96.6505 112.26 95.7638 111.86 95.1638 111.06C94.5638 110.247 94.2638 109.027 94.2638 107.4V101.6H96.4438V107.16C96.4438 108.253 96.6105 109.067 96.9438 109.6C97.2772 110.133 97.8038 110.4 98.5238 110.4C98.9238 110.4 99.2772 110.3 99.5838 110.1C99.8905 109.9 100.157 109.62 100.384 109.26C100.624 108.9 100.81 108.48 100.944 108C101.09 107.507 101.19 106.967 101.244 106.38V101.6H103.404V107.68V112H101.564L101.664 108.7H101.324C101.15 109.527 100.904 110.207 100.584 110.74C100.277 111.26 99.8905 111.647 99.4238 111.9C98.9705 112.14 98.4372 112.26 97.8238 112.26ZM110.096 112.26C109.216 112.26 108.456 112.033 107.816 111.58C107.176 111.113 106.69 110.473 106.356 109.66C106.023 108.833 105.856 107.88 105.856 106.8C105.856 105.747 106.01 104.813 106.316 104C106.636 103.173 107.103 102.527 107.716 102.06C108.343 101.593 109.11 101.36 110.016 101.36C110.736 101.36 111.33 101.507 111.796 101.8C112.263 102.08 112.636 102.467 112.916 102.96C113.21 103.453 113.43 104 113.576 104.6H113.976C113.91 104.213 113.843 103.813 113.776 103.4C113.71 102.973 113.656 102.567 113.616 102.18C113.576 101.78 113.556 101.427 113.556 101.12V97.9H115.756V106.88V112H113.856L113.936 109.12H113.576C113.416 109.773 113.19 110.333 112.896 110.8C112.603 111.267 112.223 111.627 111.756 111.88C111.303 112.133 110.75 112.26 110.096 112.26ZM110.696 110.42C111.163 110.42 111.576 110.313 111.936 110.1C112.296 109.887 112.596 109.607 112.836 109.26C113.076 108.913 113.256 108.54 113.376 108.14C113.51 107.727 113.576 107.34 113.576 106.98V106.7C113.576 106.433 113.536 106.147 113.456 105.84C113.39 105.52 113.276 105.207 113.116 104.9C112.97 104.58 112.783 104.293 112.556 104.04C112.33 103.787 112.056 103.587 111.736 103.44C111.43 103.28 111.083 103.2 110.696 103.2C110.136 103.2 109.663 103.36 109.276 103.68C108.903 103.987 108.616 104.413 108.416 104.96C108.216 105.507 108.116 106.133 108.116 106.84C108.116 107.56 108.216 108.193 108.416 108.74C108.63 109.273 108.93 109.687 109.316 109.98C109.703 110.273 110.163 110.42 110.696 110.42ZM118.74 112V101.6H120.9V112H118.74ZM119.82 99.86C119.354 99.86 119 99.7667 118.76 99.58C118.52 99.38 118.4 99.0867 118.4 98.7C118.4 98.3267 118.52 98.04 118.76 97.84C119 97.64 119.354 97.54 119.82 97.54C120.3 97.54 120.66 97.64 120.9 97.84C121.14 98.04 121.26 98.3267 121.26 98.7C121.26 99.0867 121.14 99.38 120.9 99.58C120.66 99.7667 120.3 99.86 119.82 99.86ZM128.456 112.26C127.456 112.26 126.569 112.047 125.796 111.62C125.023 111.193 124.416 110.573 123.976 109.76C123.549 108.947 123.336 107.947 123.336 106.76C123.336 105.547 123.563 104.54 124.016 103.74C124.469 102.94 125.076 102.34 125.836 101.94C126.609 101.54 127.476 101.34 128.436 101.34C129.423 101.34 130.303 101.547 131.076 101.96C131.849 102.373 132.456 102.987 132.896 103.8C133.349 104.613 133.576 105.627 133.576 106.84C133.576 108.04 133.349 109.047 132.896 109.86C132.456 110.66 131.849 111.26 131.076 111.66C130.303 112.06 129.429 112.26 128.456 112.26ZM128.536 110.54C129.136 110.54 129.649 110.4 130.076 110.12C130.503 109.84 130.829 109.427 131.056 108.88C131.283 108.333 131.396 107.68 131.396 106.92C131.396 106.133 131.276 105.46 131.036 104.9C130.796 104.327 130.449 103.887 129.996 103.58C129.556 103.273 129.016 103.12 128.376 103.12C127.803 103.12 127.296 103.26 126.856 103.54C126.429 103.807 126.103 104.213 125.876 104.76C125.649 105.293 125.536 105.947 125.536 106.72C125.536 107.933 125.803 108.873 126.336 109.54C126.869 110.207 127.603 110.54 128.536 110.54Z" fill="#001DDB"/>
</g>
<defs>
<filter id="filter0_d_262_1170" x="-1.5" y="0" width="210" height="210" filterUnits="userSpaceOnUse" color-interpolation-filters="sRGB">
<feFlood flood-opacity="0" result="BackgroundImageFix"/>
<feColorMatrix in="SourceAlpha" type="matrix" values="0 0 0 0 0 0 0 0 0 0 0 0 0 0 0 0 0 0 127 0" result="hardAlpha"/>
<feOffset/>
<feGaussianBlur stdDeviation="13.75"/>
<feComposite in2="hardAlpha" operator="out"/>
<feColorMatrix type="matrix" values="0 0 0 0 0.409129 0 0 0 0 0.535373 0 0 0 0 0.896071 0 0 0 0.1 0"/>
<feBlend mode="normal" in2="BackgroundImageFix" result="effect1_dropShadow_262_1170"/>
<feBlend mode="normal" in="SourceGraphic" in2="effect1_dropShadow_262_1170" result="shape"/>
</filter>
</defs>
</svg>
