<svg width="404" height="209" viewBox="27.5 27.5 349 154" fill="none" preserveAspectRatio="none" xmlns="http://www.w3.org/2000/svg">
<g filter="url(#filter0_d_368_3805)">
<g clip-path="url(#clip0_368_3805)">
<rect x="27.5" y="27.5" width="349" height="154" rx="8" fill="#FE8253"/>
<path d="M187.722 45.3605C190.129 41.655 195.083 40.6019 198.789 43.0082L266.101 86.7217C269.807 89.1281 270.86 94.0827 268.453 97.7882L224.74 165.101C222.333 168.806 217.379 169.859 213.673 167.453L146.361 123.739C142.655 121.333 141.602 116.378 144.009 112.673L187.722 45.3605Z" fill="#FFB485"/>
<path d="M277.259 105.997C279.666 102.292 284.62 101.239 288.326 103.645L355.638 147.358C359.344 149.765 360.397 154.719 357.99 158.425L314.277 225.737C311.87 229.443 306.916 230.496 303.21 228.089L235.898 184.376C232.193 181.97 231.139 177.015 233.546 173.309L277.259 105.997Z" fill="#F76B36"/>
<path d="M195.121 111.5V98.3H197.321V111.5H195.121ZM191.161 100.18V98.3H201.301V100.18H191.161ZM202.579 111.5V109.08L207.419 105.58C207.685 105.367 207.959 105.14 208.239 104.9C208.532 104.647 208.799 104.367 209.039 104.06C209.292 103.753 209.492 103.427 209.639 103.08C209.799 102.733 209.879 102.353 209.879 101.94C209.879 101.527 209.785 101.167 209.599 100.86C209.412 100.553 209.132 100.313 208.759 100.14C208.399 99.9667 207.945 99.88 207.399 99.88C206.985 99.88 206.612 99.9467 206.279 100.08C205.945 100.2 205.665 100.393 205.439 100.66C205.212 100.913 205.045 101.247 204.939 101.66C204.832 102.073 204.779 102.573 204.779 103.16L202.679 102.76C202.652 101.787 202.819 100.947 203.179 100.24C203.539 99.5333 204.072 98.9867 204.779 98.6C205.499 98.2 206.385 98 207.439 98C208.359 98 209.165 98.1533 209.859 98.46C210.552 98.7533 211.085 99.18 211.459 99.74C211.845 100.3 212.039 100.98 212.039 101.78C212.039 102.42 211.932 103.007 211.719 103.54C211.505 104.073 211.225 104.553 210.879 104.98C210.545 105.407 210.179 105.787 209.779 106.12C209.379 106.453 208.985 106.747 208.599 107L205.039 109.58V109.74L212.339 109.66V111.5H202.579Z" fill="#9C2B00"/>
</g>
<rect x="27.9" y="27.9" width="348.2" height="153.2" rx="7.6" stroke="black" stroke-opacity="0.08" stroke-width="0.8"/>
</g>
<defs>
<filter id="filter0_d_368_3805" x="0" y="0" width="404" height="209" filterUnits="userSpaceOnUse" color-interpolation-filters="sRGB">
<feFlood flood-opacity="0" result="BackgroundImageFix"/>
<feColorMatrix in="SourceAlpha" type="matrix" values="0 0 0 0 0 0 0 0 0 0 0 0 0 0 0 0 0 0 127 0" result="hardAlpha"/>
<feOffset/>
<feGaussianBlur stdDeviation="13.75"/>
<feComposite in2="hardAlpha" operator="out"/>
<feColorMatrix type="matrix" values="0 0 0 0 0.409129 0 0 0 0 0.535373 0 0 0 0 0.896071 0 0 0 0.1 0"/>
<feBlend mode="normal" in2="BackgroundImageFix" result="effect1_dropShadow_368_3805"/>
<feBlend mode="normal" in="SourceGraphic" in2="effect1_dropShadow_368_3805" result="shape"/>
</filter>
<clipPath id="clip0_368_3805">
<rect x="27.5" y="27.5" width="349" height="154" rx="8" fill="white"/>
</clipPath>
</defs>
</svg>
