<svg width="209" height="210" viewBox="27.5 27.5 155 155" fill="none" xmlns="http://www.w3.org/2000/svg">
<g filter="url(#filter0_d_262_1175)">
<g clip-path="url(#clip0_262_1175)">
<rect x="27.5" y="27.5" width="155" height="155" rx="8" fill="#FE8253"/>
<path d="M89.6812 58.8296C92.0876 55.1242 97.0422 54.071 100.748 56.4774L152.247 89.9218C155.952 92.3281 157.006 97.2828 154.599 100.988L121.155 152.488C118.749 156.193 113.794 157.246 110.088 154.84L58.5891 121.395C54.8836 118.989 53.8305 114.034 56.2369 110.329L89.6812 58.8296Z" fill="#FFB485"/>
<path d="M161.681 107.589C164.088 103.884 169.042 102.83 172.748 105.237L224.247 138.681C227.952 141.088 229.006 146.042 226.599 149.748L193.155 201.247C190.749 204.952 185.794 206.006 182.088 203.599L130.589 170.155C126.884 167.748 125.83 162.794 128.237 159.088L161.681 107.589Z" fill="#F76B36"/>
<path d="M98.1212 112V98.8H100.321V112H98.1212ZM94.1612 100.68V98.8H104.301V100.68H94.1612ZM105.579 112V109.58L110.419 106.08C110.685 105.867 110.959 105.64 111.239 105.4C111.532 105.147 111.799 104.867 112.039 104.56C112.292 104.253 112.492 103.927 112.639 103.58C112.799 103.233 112.879 102.853 112.879 102.44C112.879 102.027 112.785 101.667 112.599 101.36C112.412 101.053 112.132 100.813 111.759 100.64C111.399 100.467 110.945 100.38 110.399 100.38C109.985 100.38 109.612 100.447 109.279 100.58C108.945 100.7 108.665 100.893 108.439 101.16C108.212 101.413 108.045 101.747 107.939 102.16C107.832 102.573 107.779 103.073 107.779 103.66L105.679 103.26C105.652 102.287 105.819 101.447 106.179 100.74C106.539 100.033 107.072 99.4867 107.779 99.1C108.499 98.7 109.385 98.5 110.439 98.5C111.359 98.5 112.165 98.6533 112.859 98.96C113.552 99.2533 114.085 99.68 114.459 100.24C114.845 100.8 115.039 101.48 115.039 102.28C115.039 102.92 114.932 103.507 114.719 104.04C114.505 104.573 114.225 105.053 113.879 105.48C113.545 105.907 113.179 106.287 112.779 106.62C112.379 106.953 111.985 107.247 111.599 107.5L108.039 110.08V110.24L115.339 110.16V112H105.579Z" fill="#9C2B00"/>
</g>
<rect x="27.9" y="27.9" width="154.2" height="154.2" rx="7.6" stroke="black" stroke-opacity="0.08" stroke-width="0.8"/>
</g>
<defs>
<filter id="filter0_d_262_1175" x="0" y="0" width="210" height="210" filterUnits="userSpaceOnUse" color-interpolation-filters="sRGB">
<feFlood flood-opacity="0" result="BackgroundImageFix"/>
<feColorMatrix in="SourceAlpha" type="matrix" values="0 0 0 0 0 0 0 0 0 0 0 0 0 0 0 0 0 0 127 0" result="hardAlpha"/>
<feOffset/>
<feGaussianBlur stdDeviation="13.75"/>
<feComposite in2="hardAlpha" operator="out"/>
<feColorMatrix type="matrix" values="0 0 0 0 0.409129 0 0 0 0 0.535373 0 0 0 0 0.896071 0 0 0 0.1 0"/>
<feBlend mode="normal" in2="BackgroundImageFix" result="effect1_dropShadow_262_1175"/>
<feBlend mode="normal" in="SourceGraphic" in2="effect1_dropShadow_262_1175" result="shape"/>
</filter>
<clipPath id="clip0_262_1175">
<rect x="27.5" y="27.5" width="155" height="155" rx="8" fill="white"/>
</clipPath>
</defs>
</svg>
