<svg width="406" height="209" viewBox="27.5 27.5 351 154" fill="none" preserveAspectRatio="none" xmlns="http://www.w3.org/2000/svg">
<g filter="url(#filter0_d_368_3812)">
<g clip-path="url(#clip0_368_3812)">
<rect x="27.5" y="27.5" width="351" height="154" rx="8" fill="#12C66F"/>
<path d="M182.398 36.933C184.301 31.076 191.831 29.4755 195.952 34.0521L273.594 120.284C277.715 124.861 275.336 132.182 269.313 133.462L155.812 157.587C149.788 158.867 144.637 153.147 146.54 147.29L182.398 36.933Z" fill="#30E48D"/>
<path d="M162.639 26.7988C168.684 25.6265 173.732 31.4386 171.724 37.2606L133.896 146.957C131.888 152.779 124.331 154.244 120.293 149.595L44.2071 61.986C40.169 57.3363 42.6786 50.0589 48.7244 48.8866L162.639 26.7988Z" fill="#03B46A"/>
<path d="M301.848 116.493C300.024 122.375 292.516 124.077 288.334 119.557L209.535 34.3799C205.353 29.8593 207.633 22.5067 213.639 21.1452L326.804 -4.50815C332.81 -5.86965 338.037 -0.218898 336.214 5.66322L301.848 116.493Z" fill="#03B46A"/>
<path d="M195.838 111.5V98.3H198.038V111.5H195.838ZM191.878 100.18V98.3H202.018V100.18H191.878ZM208.288 111.78C207.461 111.78 206.741 111.687 206.128 111.5C205.514 111.327 205.001 111.073 204.588 110.74C204.188 110.407 203.881 110 203.668 109.52C203.454 109.04 203.328 108.513 203.288 107.94L205.288 107.34C205.314 107.847 205.414 108.273 205.588 108.62C205.761 108.953 205.988 109.227 206.268 109.44C206.561 109.64 206.881 109.787 207.228 109.88C207.588 109.96 207.954 110 208.328 110C208.901 110 209.421 109.92 209.888 109.76C210.354 109.6 210.728 109.347 211.008 109C211.288 108.653 211.428 108.207 211.428 107.66C211.428 106.953 211.208 106.4 210.768 106C210.341 105.587 209.721 105.3 208.908 105.14C208.108 104.967 207.148 104.913 206.028 104.98V103.64L210.608 100.24V100.08L203.848 100.12V98.28H212.787V100.5L208.548 103.72V103.88C209.774 103.853 210.754 104.007 211.488 104.34C212.234 104.673 212.768 105.133 213.088 105.72C213.421 106.293 213.588 106.94 213.588 107.66C213.588 108.5 213.394 109.227 213.008 109.84C212.621 110.453 212.034 110.933 211.248 111.28C210.461 111.613 209.474 111.78 208.288 111.78Z" fill="#006F39"/>
</g>
<rect x="27.9" y="27.9" width="350.2" height="153.2" rx="7.6" stroke="black" stroke-opacity="0.08" stroke-width="0.8"/>
</g>
<defs>
<filter id="filter0_d_368_3812" x="0" y="0" width="406" height="209" filterUnits="userSpaceOnUse" color-interpolation-filters="sRGB">
<feFlood flood-opacity="0" result="BackgroundImageFix"/>
<feColorMatrix in="SourceAlpha" type="matrix" values="0 0 0 0 0 0 0 0 0 0 0 0 0 0 0 0 0 0 127 0" result="hardAlpha"/>
<feOffset/>
<feGaussianBlur stdDeviation="13.75"/>
<feComposite in2="hardAlpha" operator="out"/>
<feColorMatrix type="matrix" values="0 0 0 0 0.409129 0 0 0 0 0.535373 0 0 0 0 0.896071 0 0 0 0.1 0"/>
<feBlend mode="normal" in2="BackgroundImageFix" result="effect1_dropShadow_368_3812"/>
<feBlend mode="normal" in="SourceGraphic" in2="effect1_dropShadow_368_3812" result="shape"/>
</filter>
<clipPath id="clip0_368_3812">
<rect x="27.5" y="27.5" width="351" height="154" rx="8" fill="white"/>
</clipPath>
</defs>
</svg>
