<svg width="209" height="210" viewBox="26 27.5 155 155" fill="none" xmlns="http://www.w3.org/2000/svg">
<g filter="url(#filter0_d_262_1182)">
<g clip-path="url(#clip0_262_1182)">
<rect x="26" y="27.5" width="155" height="155" rx="8" fill="#12C66F"/>
<path d="M85.5908 53.8894C87.4938 48.0324 95.0236 46.4319 99.1444 51.0085L157.466 115.781C161.586 120.358 159.208 127.679 153.184 128.96L67.9282 147.081C61.9044 148.361 56.7534 142.64 58.6565 136.783L85.5908 53.8894Z" fill="#30E48D"/>
<path d="M67.7871 42.9664C73.8329 41.7941 78.8806 47.6062 76.8729 53.4282L48.4581 135.826C46.4504 141.648 38.8931 143.114 34.855 138.464L-22.2966 72.657C-26.3347 68.0073 -23.8251 60.7299 -17.7793 59.5576L67.7871 42.9664Z" fill="#03B46A"/>
<path d="M179.394 107.263C177.57 113.145 170.062 114.847 165.88 110.326L106.691 46.3457C102.509 41.8251 104.788 34.4725 110.794 33.111L195.798 13.8415C201.804 12.48 207.031 18.1308 205.208 24.0129L179.394 107.263Z" fill="#03B46A"/>
<path d="M96.338 112V98.8H98.538V112H96.338ZM92.378 100.68V98.8H102.518V100.68H92.378ZM108.788 112.28C107.961 112.28 107.241 112.187 106.628 112C106.014 111.827 105.501 111.573 105.088 111.24C104.688 110.907 104.381 110.5 104.168 110.02C103.954 109.54 103.828 109.013 103.788 108.44L105.788 107.84C105.814 108.347 105.914 108.773 106.088 109.12C106.261 109.453 106.488 109.727 106.768 109.94C107.061 110.14 107.381 110.287 107.728 110.38C108.088 110.46 108.454 110.5 108.828 110.5C109.401 110.5 109.921 110.42 110.388 110.26C110.854 110.1 111.228 109.847 111.508 109.5C111.788 109.153 111.928 108.707 111.928 108.16C111.928 107.453 111.708 106.9 111.268 106.5C110.841 106.087 110.221 105.8 109.408 105.64C108.608 105.467 107.648 105.413 106.528 105.48V104.14L111.108 100.74V100.58L104.348 100.62V98.78H113.287V101L109.048 104.22V104.38C110.274 104.353 111.254 104.507 111.988 104.84C112.734 105.173 113.268 105.633 113.588 106.22C113.921 106.793 114.088 107.44 114.088 108.16C114.088 109 113.894 109.727 113.508 110.34C113.121 110.953 112.534 111.433 111.748 111.78C110.961 112.113 109.974 112.28 108.788 112.28Z" fill="#006F39"/>
</g>
<rect x="26.4" y="27.9" width="154.2" height="154.2" rx="7.6" stroke="black" stroke-opacity="0.08" stroke-width="0.8"/>
</g>
<defs>
<filter id="filter0_d_262_1182" x="-1.5" y="0" width="210" height="210" filterUnits="userSpaceOnUse" color-interpolation-filters="sRGB">
<feFlood flood-opacity="0" result="BackgroundImageFix"/>
<feColorMatrix in="SourceAlpha" type="matrix" values="0 0 0 0 0 0 0 0 0 0 0 0 0 0 0 0 0 0 127 0" result="hardAlpha"/>
<feOffset/>
<feGaussianBlur stdDeviation="13.75"/>
<feComposite in2="hardAlpha" operator="out"/>
<feColorMatrix type="matrix" values="0 0 0 0 0.409129 0 0 0 0 0.535373 0 0 0 0 0.896071 0 0 0 0.1 0"/>
<feBlend mode="normal" in2="BackgroundImageFix" result="effect1_dropShadow_262_1182"/>
<feBlend mode="normal" in="SourceGraphic" in2="effect1_dropShadow_262_1182" result="shape"/>
</filter>
<clipPath id="clip0_262_1182">
<rect x="26" y="27.5" width="155" height="155" rx="8" fill="white"/>
</clipPath>
</defs>
</svg>
