<svg width="406" height="209" viewBox="27.5 27.5 351 154" fill="none" preserveAspectRatio="none" xmlns="http://www.w3.org/2000/svg">
<g filter="url(#filter0_d_368_3820)">
<g clip-path="url(#clip0_368_3820)">
<rect x="27.5" y="27.5" width="351" height="154" rx="8" fill="#9A7BF8"/>
<path d="M185.15 46.1977C187.469 43.6221 191.183 42.8327 194.349 44.2424L252.558 70.159C255.724 71.5686 257.623 74.8568 257.26 78.3036L250.6 141.672C250.238 145.119 247.697 147.941 244.307 148.661L181.981 161.909C178.591 162.629 175.123 161.085 173.39 158.083L141.531 102.902C139.798 99.9006 140.195 96.1247 142.514 93.5491L185.15 46.1977Z" fill="#B899FF"/>
<path d="M266.038 80.2788C266.437 76.836 269.008 74.0419 272.405 73.3577L334.869 60.779C338.267 60.0948 341.718 61.6762 343.419 64.696L374.685 120.216C376.385 123.236 375.948 127.007 373.601 129.558L330.461 176.449C328.114 179 324.392 179.75 321.241 178.306L263.313 151.767C260.162 150.323 258.299 147.015 258.698 143.572L266.038 80.2788Z" fill="#875AEF"/>
<path d="M204.537 -34.3035C204.92 -37.7482 207.477 -40.5548 210.871 -41.2555L273.273 -54.1379C276.667 -54.8387 280.126 -53.2741 281.842 -50.2625L313.377 5.10439C315.092 8.11597 314.673 11.8895 312.339 14.4515L269.427 61.5526C267.093 64.1145 263.374 64.8822 260.217 63.454L202.16 37.1971C199.002 35.7689 197.123 32.4698 197.506 29.0251L204.537 -34.3035Z" fill="#875AEF"/>
<path d="M73.0215 -9.78401C73.404 -13.2287 75.961 -16.0353 79.3552 -16.736L141.757 -29.6184C145.151 -30.3191 148.611 -28.7545 150.326 -25.743L181.861 29.6239C183.577 32.6355 183.158 36.4091 180.823 38.971L137.911 86.0721C135.577 88.6341 131.859 89.4017 128.701 87.9735L70.6446 61.7166C67.4868 60.2885 65.6077 56.9893 65.9901 53.5447L73.0215 -9.78401Z" fill="#875AEF"/>
<path d="M191.629 111.5V98.3H193.829V111.5H191.629ZM187.669 100.18V98.3H197.809V100.18H187.669ZM197.456 108.72V106.4C198.096 105.72 198.682 105.04 199.216 104.36C199.762 103.667 200.256 102.98 200.696 102.3C201.149 101.62 201.542 100.947 201.876 100.28C202.222 99.6 202.509 98.9333 202.736 98.28H206.536V111.5H204.376V99.86H204.196C203.796 100.793 203.349 101.673 202.856 102.5C202.376 103.313 201.856 104.067 201.296 104.76C200.749 105.453 200.189 106.107 199.616 106.72V106.92H208.256V108.72H197.456ZM212.719 109.24V101.3H214.559V109.24H212.719ZM209.679 106.14V104.4H217.599V106.14H209.679Z" fill="#3A06D9"/>
</g>
<rect x="27.9" y="27.9" width="350.2" height="153.2" rx="7.6" stroke="black" stroke-opacity="0.08" stroke-width="0.8"/>
</g>
<defs>
<filter id="filter0_d_368_3820" x="0" y="0" width="406" height="209" filterUnits="userSpaceOnUse" color-interpolation-filters="sRGB">
<feFlood flood-opacity="0" result="BackgroundImageFix"/>
<feColorMatrix in="SourceAlpha" type="matrix" values="0 0 0 0 0 0 0 0 0 0 0 0 0 0 0 0 0 0 127 0" result="hardAlpha"/>
<feOffset/>
<feGaussianBlur stdDeviation="13.75"/>
<feComposite in2="hardAlpha" operator="out"/>
<feColorMatrix type="matrix" values="0 0 0 0 0.409129 0 0 0 0 0.535373 0 0 0 0 0.896071 0 0 0 0.1 0"/>
<feBlend mode="normal" in2="BackgroundImageFix" result="effect1_dropShadow_368_3820"/>
<feBlend mode="normal" in="SourceGraphic" in2="effect1_dropShadow_368_3820" result="shape"/>
</filter>
<clipPath id="clip0_368_3820">
<rect x="27.5" y="27.5" width="351" height="154" rx="8" fill="white"/>
</clipPath>
</defs>
</svg>
