<svg width="209" height="210" viewBox="27.5 27.5 155 155" fill="none" xmlns="http://www.w3.org/2000/svg">
<g filter="url(#filter0_d_262_1190)">
<g clip-path="url(#clip0_262_1190)">
<rect x="27.5" y="27.5" width="155" height="155" rx="8" fill="#9A7BF8"/>
<path d="M88.8585 52.8638C91.1776 50.2882 94.8914 49.4988 98.0576 50.9085L149.194 73.6761C152.36 75.0857 154.258 78.3738 153.896 81.8207L148.045 137.49C147.683 140.937 145.142 143.758 141.752 144.479L86.9994 156.116C83.6093 156.837 80.1408 155.293 78.4079 152.291L50.4202 103.815C48.6873 100.813 49.0842 97.0373 51.4033 94.4617L88.8585 52.8638Z" fill="#B899FF"/>
<path d="M161.764 83.5928C162.164 80.15 164.734 77.3559 168.132 76.6717L223.006 65.6213C226.404 64.9371 229.855 66.5185 231.556 69.5384L259.022 118.312C260.723 121.332 260.286 125.103 257.939 127.654L220.04 168.848C217.694 171.399 213.972 172.148 210.821 170.705L159.932 147.39C156.781 145.947 154.918 142.639 155.317 139.196L161.764 83.5928Z" fill="#875AEF"/>
<path d="M106.586 -19.2152C106.969 -22.6599 109.526 -25.4665 112.92 -26.1672L167.74 -37.4843C171.134 -38.1851 174.593 -36.6205 176.309 -33.6089L204.012 15.0306C205.727 18.0421 205.308 21.8157 202.974 24.3777L165.276 65.7557C162.942 68.3176 159.224 69.0853 156.066 67.6571L105.064 44.5906C101.906 43.1624 100.027 39.8632 100.409 36.4186L106.586 -19.2152Z" fill="#875AEF"/>
<path d="M-11.4139 2.78476C-11.0314 -0.659884 -8.47439 -3.46651 -5.08016 -4.16722L49.7396 -15.4843C53.1338 -16.1851 56.5932 -14.6205 58.3085 -11.6089L86.012 37.0306C87.7273 40.0421 87.3083 43.8157 84.9742 46.3777L47.2761 87.7557C44.942 90.3176 41.2236 91.0853 38.0658 89.6571L-12.9364 66.5906C-16.0942 65.1624 -17.9733 61.8632 -17.5909 58.4186L-11.4139 2.78476Z" fill="#875AEF"/>
<path d="M93.629 112V98.8H95.829V112H93.629ZM89.669 100.68V98.8H99.809V100.68H89.669ZM99.4555 109.22V106.9C100.096 106.22 100.682 105.54 101.216 104.86C101.762 104.167 102.256 103.48 102.696 102.8C103.149 102.12 103.542 101.447 103.876 100.78C104.222 100.1 104.509 99.4333 104.736 98.78H108.536V112H106.376V100.36H106.196C105.796 101.293 105.349 102.173 104.856 103C104.376 103.813 103.856 104.567 103.296 105.26C102.749 105.953 102.189 106.607 101.616 107.22V107.42H110.256V109.22H99.4555ZM114.719 109.74V101.8H116.559V109.74H114.719ZM111.679 106.64V104.9H119.599V106.64H111.679Z" fill="#3A06D9"/>
</g>
<rect x="27.9" y="27.9" width="154.2" height="154.2" rx="7.6" stroke="black" stroke-opacity="0.08" stroke-width="0.8"/>
</g>
<defs>
<filter id="filter0_d_262_1190" x="0" y="0" width="210" height="210" filterUnits="userSpaceOnUse" color-interpolation-filters="sRGB">
<feFlood flood-opacity="0" result="BackgroundImageFix"/>
<feColorMatrix in="SourceAlpha" type="matrix" values="0 0 0 0 0 0 0 0 0 0 0 0 0 0 0 0 0 0 127 0" result="hardAlpha"/>
<feOffset/>
<feGaussianBlur stdDeviation="13.75"/>
<feComposite in2="hardAlpha" operator="out"/>
<feColorMatrix type="matrix" values="0 0 0 0 0.409129 0 0 0 0 0.535373 0 0 0 0 0.896071 0 0 0 0.1 0"/>
<feBlend mode="normal" in2="BackgroundImageFix" result="effect1_dropShadow_262_1190"/>
<feBlend mode="normal" in="SourceGraphic" in2="effect1_dropShadow_262_1190" result="shape"/>
</filter>
<clipPath id="clip0_262_1190">
<rect x="27.5" y="27.5" width="155" height="155" rx="8" fill="white"/>
</clipPath>
</defs>
</svg>
