<svg width="60" height="60" viewBox="0 0 60 60" fill="none" xmlns="http://www.w3.org/2000/svg">
<g clip-path="url(#clip0_262_2226)">
<path d="M0 0C19.8 0 39.6 0 60 0C60 19.8 60 39.6 60 60C40.2 60 20.4 60 0 60C0 40.2 0 20.4 0 0Z" fill="#E4EBFE"/>
<path d="M32.4612 10.3125C32.8097 10.5734 33.0368 10.8507 33.2486 11.228C33.2776 11.278 33.3066 11.328 33.3365 11.3794C33.4009 11.4903 33.4649 11.6014 33.5286 11.7126C33.6402 11.9069 33.7532 12.1003 33.8668 12.2935C33.887 12.3279 33.9072 12.3623 33.9281 12.3978C33.9697 12.4687 34.0114 12.5395 34.053 12.6104C34.1386 12.7561 34.2239 12.902 34.3092 13.0479C34.6088 13.5599 34.9111 14.0702 35.214 14.5803C35.4144 14.9179 35.6139 15.2559 35.8118 15.5949C35.8323 15.63 35.8528 15.6651 35.8739 15.7012C35.8944 15.7364 35.915 15.7716 35.9362 15.8079C35.9778 15.8792 36.0194 15.9504 36.0611 16.0217C36.0919 16.0745 36.0919 16.0745 36.1233 16.1284C36.4569 16.699 36.7981 17.2646 37.1427 17.8287C37.4373 18.3113 37.7234 18.7979 38.0016 19.2902C38.2577 19.7422 38.525 20.1871 38.7934 20.632C39.1273 21.1863 39.455 21.7442 39.7811 22.3032C40.0064 22.6888 40.2339 23.0729 40.4641 23.4556C40.6185 23.7123 40.7718 23.9696 40.9243 24.2274C40.946 24.2639 40.9676 24.3004 40.9898 24.338C41.0342 24.413 41.0787 24.488 41.1231 24.5631C41.4324 25.0856 41.742 25.6078 42.0589 26.1257C42.0814 26.1625 42.1038 26.1992 42.127 26.2371C42.2326 26.4099 42.3386 26.5825 42.4452 26.7547C43.2589 28.0819 43.2589 28.0819 43.1839 28.8281C43.0794 29.2462 42.8747 29.6083 42.5393 29.8828C42.3497 29.9836 42.1591 30.0562 41.9534 30.1172C41.9188 30.1275 41.8842 30.1378 41.8485 30.1485C41.556 30.2102 41.2474 30.1856 40.9498 30.185C40.9105 30.1849 40.8712 30.1849 40.8308 30.1848C39.7015 30.183 38.5735 30.133 37.4453 30.0879C37.0225 30.0711 36.5996 30.0545 36.1767 30.0385C36.1264 30.0366 36.0761 30.0346 36.0243 30.0327C35.2268 30.0027 34.4312 29.989 33.6331 30C33.6445 30.0595 33.656 30.119 33.6677 30.1804C33.9052 31.417 34.1388 32.6542 34.3655 33.8928C34.3765 33.953 34.3875 34.0131 34.3989 34.0751C34.4099 34.1354 34.4209 34.1957 34.4323 34.2578C34.4545 34.3791 34.4767 34.5005 34.4989 34.6218C34.5099 34.6815 34.5208 34.7411 34.532 34.8026C34.6427 35.4065 34.7548 36.0102 34.8672 36.6138C34.8863 36.7161 34.9053 36.8185 34.9244 36.9209C35.014 37.4026 35.104 37.8843 35.1946 38.3659C35.2376 38.5947 35.2804 38.8236 35.3233 39.0524C35.3436 39.1605 35.3639 39.2687 35.3844 39.3768C35.4984 39.9802 35.6042 40.5823 35.6839 41.1914C35.8352 41.2172 35.9866 41.2428 36.138 41.2683C36.2087 41.2803 36.2087 41.2803 36.2809 41.2925C36.5331 41.3346 36.7853 41.3745 37.0386 41.4098C37.8012 41.5161 38.5269 41.6184 39.1995 42.0117C39.1996 41.9665 39.1997 41.9212 39.1998 41.8746C39.2019 40.7712 39.2054 39.6678 39.2103 38.5645C39.2126 38.0309 39.2145 37.4973 39.2154 36.9637C39.2161 36.4984 39.2177 36.033 39.2203 35.5677C39.2216 35.3215 39.2225 35.0754 39.2225 34.8292C39.2224 34.597 39.2235 34.3648 39.2253 34.1327C39.2258 34.0479 39.2259 33.9632 39.2256 33.8784C39.2225 32.9566 39.4806 32.1361 40.137 31.4649C41.0202 30.746 41.9401 30.6949 43.0397 30.7004C43.1156 30.7006 43.1916 30.7008 43.2699 30.701C43.4561 30.7015 43.6422 30.7022 43.8284 30.7031C43.8279 30.6509 43.8274 30.5986 43.8268 30.5447C43.8221 30.0499 43.8186 29.5552 43.8163 29.0604C43.815 28.8061 43.8134 28.5518 43.8107 28.2975C43.8082 28.0517 43.8068 27.8059 43.8062 27.5601C43.8057 27.4667 43.8049 27.3733 43.8036 27.2799C43.7945 26.5847 43.849 25.9932 44.3565 25.4693C44.8595 25.0451 45.5054 25.1025 46.1255 25.1094C46.2928 25.1111 46.46 25.1106 46.6273 25.1098C46.735 25.1102 46.8428 25.1107 46.9506 25.1113C47.0245 25.1111 47.0245 25.1111 47.0999 25.1108C47.5735 25.1182 48.0345 25.2312 48.3987 25.5469C48.7001 25.9706 48.8164 26.2728 48.8155 26.7918C48.8155 26.8342 48.8155 26.8765 48.8155 26.9201C48.8155 27.0596 48.815 27.1991 48.8146 27.3386C48.8145 27.4355 48.8144 27.5323 48.8143 27.6292C48.8141 27.8839 48.8135 28.1386 48.8129 28.3933C48.8123 28.6533 48.812 28.9133 48.8117 29.1733C48.8111 29.6832 48.8101 30.1932 48.8089 30.7031C48.8606 30.7104 48.9124 30.7177 48.9657 30.7252C49.0339 30.7351 49.1021 30.7451 49.1723 30.7553C49.2398 30.765 49.3073 30.7747 49.3768 30.7847C50.0714 30.9124 50.6887 31.366 51.094 31.9336C51.5263 32.6764 51.639 33.2974 51.6375 34.145C51.6377 34.2384 51.638 34.3318 51.6384 34.4252C51.6391 34.678 51.6392 34.9308 51.639 35.1836C51.639 35.3953 51.6393 35.607 51.6395 35.8187C51.6402 36.3186 51.6402 36.8186 51.6399 37.3185C51.6395 37.8326 51.6402 38.3466 51.6415 38.8606C51.6425 39.3033 51.6429 39.746 51.6427 40.1887C51.6426 40.4525 51.6427 40.7162 51.6435 40.98C51.6443 41.2285 51.6442 41.4769 51.6434 41.7254C51.6433 41.8159 51.6434 41.9065 51.6439 41.997C51.6476 42.7438 51.5983 43.4579 51.2048 44.1104C51.1168 44.3261 51.1988 44.4942 51.2698 44.707C51.322 45.1967 51.274 45.5937 50.9768 45.9961C50.6589 46.3108 50.3245 46.4634 49.8782 46.4905C49.5378 46.4823 49.2584 46.3728 48.9846 46.1719C48.9345 46.1025 48.8847 46.033 48.8351 45.9632C48.69 45.7927 48.5989 45.7321 48.375 45.7124C48.2738 45.7112 48.1726 45.7123 48.0714 45.7152C47.9882 45.7151 47.9882 45.7151 47.9033 45.715C47.7206 45.7153 47.5381 45.7185 47.3555 45.7217C47.2285 45.7224 47.1016 45.723 46.9747 45.7234C46.6412 45.725 46.3077 45.729 45.9742 45.7336C45.6337 45.7378 45.2932 45.7396 44.9527 45.7417C44.2849 45.7461 43.6172 45.7531 42.9495 45.7617C42.9256 45.8294 42.9256 45.8294 42.9012 45.8984C42.7888 46.1534 42.585 46.2868 42.3489 46.4246C41.9583 46.5222 41.5929 46.5109 41.2397 46.3085C40.9977 46.1314 40.8135 45.9378 40.7339 45.6455C40.6447 45.4188 40.5428 45.3627 40.3347 45.2417C40.276 45.2068 40.2172 45.1719 40.1567 45.136C40.1115 45.1104 40.0663 45.0849 40.0198 45.0586C39.9928 45.0813 39.9657 45.1039 39.9379 45.1273C39.2416 45.6832 38.4797 45.78 37.6122 45.7794C37.5329 45.7796 37.4536 45.7798 37.3743 45.7801C37.2089 45.7806 37.0435 45.7805 36.8781 45.7802C36.6676 45.7799 36.4572 45.7809 36.2467 45.7822C36.0832 45.7831 35.9197 45.7832 35.7562 45.783C35.6413 45.783 35.5265 45.7838 35.4117 45.7847C34.6505 45.7807 34.0797 45.6118 33.5264 45.0717C33.022 44.4722 32.9796 43.5818 32.881 42.8359C32.8661 42.7275 32.8512 42.619 32.8362 42.5106C32.8048 42.2832 32.7737 42.0558 32.7428 41.8284C32.6747 41.3299 32.6026 40.8319 32.5306 40.334C32.4981 40.1092 32.4657 39.8844 32.4334 39.6596C32.3914 39.3682 32.3494 39.0768 32.3074 38.7854C32.2987 38.7252 32.29 38.665 32.2811 38.603C32.0187 36.7834 31.7533 34.9643 31.4834 33.1458C31.4761 33.0961 31.4687 33.0464 31.4611 32.9953C31.3071 31.9576 31.1524 30.9201 30.9964 29.8828C30.7257 29.8635 30.455 29.8442 30.1761 29.8242C30.1771 29.9381 30.1782 30.0519 30.1793 30.1691C30.1791 30.6768 30.1527 31.1817 30.1243 31.6885C30.1187 31.7921 30.1131 31.8956 30.1075 31.9992C30.0954 32.2225 30.0832 32.4459 30.0709 32.6692C30.0408 33.2161 30.0112 33.7632 29.9817 34.3102C29.9747 34.4403 29.9676 34.5704 29.9606 34.7005C29.9032 35.7612 29.8487 36.8219 29.7954 37.8828C29.7856 38.0777 29.7757 38.2726 29.7659 38.4675C29.7313 39.1537 29.6968 39.8399 29.6629 40.5262C29.6487 40.8124 29.6343 41.0985 29.6198 41.3847C29.6131 41.5171 29.6065 41.6496 29.6001 41.782C29.5695 42.4096 29.5345 43.0359 29.4745 43.6615C29.47 43.7091 29.4656 43.7567 29.4611 43.8058C29.3994 44.4067 29.1827 44.9445 28.705 45.3353C28.1172 45.7471 27.5999 45.7877 26.9017 45.783C26.8112 45.783 26.7208 45.783 26.6303 45.7831C26.4415 45.7831 26.2527 45.7825 26.0639 45.7814C25.8225 45.7801 25.5811 45.7801 25.3397 45.7805C25.1532 45.7807 24.9667 45.7803 24.7802 45.7797C24.6912 45.7795 24.6022 45.7794 24.5132 45.7795C24.3887 45.7795 24.2642 45.7788 24.1397 45.7778C24.0337 45.7774 24.0337 45.7774 23.9256 45.777C23.7258 45.7613 23.5673 45.7109 23.3792 45.6445C23.2101 45.6642 23.0721 45.7078 22.9104 45.7617C22.8299 45.7671 22.7491 45.7694 22.6683 45.7696C22.6188 45.7699 22.5693 45.7701 22.5183 45.7704C22.4366 45.7704 22.4366 45.7704 22.3533 45.7704C22.2955 45.7706 22.2377 45.7708 22.1782 45.771C21.9836 45.7717 21.789 45.7719 21.5944 45.7721C21.4552 45.7725 21.3161 45.7729 21.1769 45.7733C20.7587 45.7744 20.3406 45.775 19.9224 45.7755C19.7254 45.7758 19.5285 45.7761 19.3316 45.7764C18.677 45.7774 18.0224 45.7783 17.3678 45.7787C17.198 45.7788 17.0281 45.7789 16.8583 45.779C16.8161 45.7791 16.7738 45.7791 16.7303 45.7791C16.0463 45.7796 15.3623 45.7811 14.6782 45.783C13.976 45.7849 13.2737 45.786 12.5715 45.7862C12.1772 45.7863 11.7829 45.7868 11.3886 45.7883C11.0177 45.7897 10.6469 45.7899 10.276 45.7893C10.1398 45.7893 10.0036 45.7897 9.86745 45.7905C9.68166 45.7915 9.49594 45.7911 9.31015 45.7903C9.22911 45.7913 9.22911 45.7913 9.14643 45.7923C8.82441 45.789 8.63009 45.7495 8.37918 45.5274C8.22347 45.3242 8.24511 45.0903 8.24593 44.8445C8.24563 44.7991 8.24532 44.7537 8.245 44.7069C8.24412 44.5546 8.24408 44.4023 8.24404 44.25C8.2436 44.1409 8.2431 44.0317 8.24257 43.9226C8.24128 43.626 8.24076 43.3294 8.24047 43.0328C8.24025 42.8475 8.23989 42.6622 8.23947 42.4769C8.23803 41.8307 8.23727 41.1844 8.23706 40.5382C8.23685 39.9356 8.2351 39.333 8.23264 38.7305C8.23061 38.2133 8.22971 37.696 8.22966 37.1788C8.22962 36.8698 8.2291 36.5609 8.22744 36.2519C8.22591 35.9613 8.22577 35.6708 8.22672 35.3802C8.22682 35.2736 8.22643 35.1669 8.22549 35.0603C8.2243 34.9147 8.22491 34.7692 8.22598 34.6235C8.2252 34.5814 8.22443 34.5392 8.22363 34.4958C8.22912 34.1664 8.33006 34.0319 8.55496 33.8086C8.70463 33.7338 8.81371 33.7407 8.98129 33.738C9.0458 33.7368 9.11031 33.7356 9.17677 33.7344C9.24666 33.7335 9.31655 33.7325 9.38855 33.7315C9.45992 33.7303 9.53128 33.729 9.60481 33.7278C9.83347 33.7239 10.0621 33.7205 10.2908 33.7171C10.4455 33.7145 10.6003 33.712 10.755 33.7094C11.1349 33.7031 11.5149 33.6971 11.8948 33.6914C11.8755 33.6528 11.8561 33.6141 11.8362 33.5742C11.8311 33.3991 11.8294 33.2253 11.8305 33.0501C11.8306 32.9982 11.8307 32.9464 11.8307 32.893C11.8311 32.727 11.8318 32.561 11.8326 32.395C11.8328 32.2827 11.8331 32.1703 11.8334 32.0579C11.834 31.7821 11.835 31.5063 11.8362 31.2305C11.7763 31.2321 11.7763 31.2321 11.7151 31.2338C11.6626 31.2347 11.61 31.2355 11.5558 31.2364C11.4778 31.2381 11.4778 31.2381 11.3981 31.2398C11.1749 31.2257 11.0606 31.1461 10.8987 30.9961C10.7439 30.7587 10.6818 30.5752 10.7229 30.293C10.8874 30.0143 11.086 29.7959 11.3137 29.5699C11.3488 29.5346 11.3839 29.4993 11.42 29.4629C11.5353 29.3472 11.6509 29.2318 11.7666 29.1165C11.8472 29.0359 11.9278 28.9552 12.0083 28.8745C12.1767 28.7059 12.3454 28.5375 12.5142 28.3692C12.7306 28.1536 12.9464 27.9374 13.162 27.721C13.3281 27.5545 13.4944 27.3883 13.6609 27.2222C13.7406 27.1425 13.8202 27.0628 13.8997 26.983C14.0108 26.8717 14.1222 26.7607 14.2338 26.6498C14.2665 26.6168 14.2993 26.5838 14.333 26.5498C14.5573 26.328 14.7045 26.205 15.0186 26.1694C15.447 26.213 15.7274 26.4825 16.0176 26.7768C16.0523 26.8113 16.0871 26.8458 16.1229 26.8814C16.2365 26.9946 16.3496 27.1084 16.4626 27.2223C16.5418 27.3016 16.6211 27.3808 16.7004 27.46C16.866 27.6256 17.0313 27.7915 17.1964 27.9577C17.4079 28.1706 17.6202 28.3828 17.8326 28.5948C17.9961 28.7582 18.1594 28.9218 18.3225 29.0856C18.4007 29.1639 18.4789 29.2422 18.5572 29.3205C18.6665 29.4297 18.7754 29.5393 18.8841 29.649C18.9165 29.6812 18.9488 29.7134 18.9822 29.7466C19.2147 29.9824 19.3523 30.1561 19.3582 30.4907C19.352 30.7572 19.2803 30.91 19.1018 31.1133C18.8675 31.2305 18.8675 31.2305 18.2229 31.2305C18.2229 32.0619 18.2229 32.8934 18.2229 33.75C18.5579 33.748 18.8929 33.7459 19.238 33.7438C19.4503 33.7429 19.6626 33.7421 19.8749 33.7414C20.2118 33.7404 20.5487 33.7391 20.8856 33.7368C21.1573 33.7348 21.4289 33.7338 21.7005 33.7333C21.8041 33.733 21.9077 33.7324 22.0114 33.7314C22.1565 33.7302 22.3017 33.73 22.4469 33.7301C22.511 33.7291 22.511 33.7291 22.5765 33.7281C22.8346 33.7297 23.0013 33.7618 23.2034 33.9258C23.3226 34.114 23.3357 34.2636 23.3369 34.4842C23.3379 34.583 23.3379 34.583 23.3389 34.6839C23.339 34.7559 23.3391 34.8279 23.3393 34.9021C23.3399 34.9782 23.3404 35.0542 23.3411 35.1326C23.3427 35.3409 23.3435 35.5492 23.3443 35.7576C23.3452 35.9754 23.3468 36.1931 23.3483 36.4109C23.351 36.8232 23.3532 37.2356 23.3551 37.6479C23.3574 38.1174 23.3603 38.5868 23.3632 39.0563C23.3693 40.0219 23.3745 40.9875 23.3792 41.9531C23.4306 41.9287 23.482 41.9043 23.535 41.8791C23.6029 41.8472 23.6708 41.8153 23.7408 41.7825C23.8414 41.7349 23.8414 41.7349 23.9441 41.6864C24.2064 41.5733 24.4608 41.5148 24.7415 41.4697C24.7934 41.4605 24.8453 41.4513 24.8988 41.4418C25.284 41.3756 25.6711 41.3251 26.0604 41.29C26.2661 41.2701 26.367 41.2503 26.5432 41.1328C26.5834 40.9532 26.5834 40.9532 26.5971 40.7364C26.6008 40.6955 26.6044 40.6545 26.6082 40.6122C26.6202 40.4754 26.6311 40.3385 26.6419 40.2015C26.6501 40.1051 26.6584 40.0088 26.6668 39.9124C26.6891 39.6539 26.7103 39.3954 26.7314 39.1368C26.7535 38.8681 26.7766 38.5995 26.7996 38.331C26.8356 37.9089 26.8712 37.4868 26.9064 37.0647C26.9562 36.4685 27.0079 35.8725 27.0612 35.2766C27.0743 35.1306 27.0872 34.9846 27.1002 34.8386C27.185 33.886 27.2737 32.9337 27.3626 31.9815C27.3744 31.8542 27.3863 31.7268 27.3981 31.5994C27.4203 31.3612 27.4426 31.1231 27.465 30.8849C27.4716 30.8133 27.4782 30.7418 27.4851 30.6681C27.5154 30.3463 27.5478 30.0264 27.5979 29.707C27.5662 29.7075 27.5345 29.7079 27.5018 29.7084C26.2931 29.7225 25.0876 29.6758 23.8802 29.629C23.6651 29.6207 23.45 29.6128 23.2349 29.6048C23.0248 29.5971 22.8147 29.5891 22.6047 29.5812C22.5057 29.5774 22.4068 29.5737 22.3079 29.57C20.2453 29.4928 20.2453 29.4928 19.7477 29.019C19.415 28.6478 19.3544 28.2711 19.3731 27.7803C19.4058 27.5049 19.4902 27.3084 19.6292 27.0703C19.6656 27.0067 19.702 26.9431 19.7395 26.8776C20.0192 26.3976 20.3216 25.9321 20.6248 25.4668C20.8187 25.1689 21.0096 24.8691 21.2002 24.5691C21.2347 24.5148 21.2692 24.4606 21.3048 24.4046C21.3752 24.2938 21.4456 24.183 21.516 24.0721C21.6877 23.8019 21.8596 23.5318 22.0315 23.2617C22.2353 22.9416 22.439 22.6214 22.6426 22.3011C23.044 21.6699 23.4465 21.0395 23.8499 20.4096C24.2411 19.7986 24.6306 19.1865 25.0198 18.5742C25.4509 17.8961 25.8827 17.2184 26.3162 16.5418C26.6194 16.0684 26.9213 15.5942 27.221 15.1186C27.5443 14.6058 27.8701 14.0945 28.1959 13.5832C28.3016 13.4171 28.4072 13.2509 28.5128 13.0847C28.6834 12.8161 28.8544 12.5476 29.0256 12.2793C29.1172 12.1354 29.2085 11.9913 29.2997 11.8472C30.2013 10.4281 30.2013 10.4281 30.9561 10.1148C31.4868 10.0248 31.9908 10.0246 32.4612 10.3125Z" fill="#30E48D"/>
<path d="M15.2347 26.1915C15.5467 26.3459 15.7745 26.5303 16.0176 26.7768C16.0697 26.8286 16.0697 26.8286 16.1229 26.8814C16.2365 26.9946 16.3496 27.1085 16.4626 27.2224C16.5418 27.3016 16.6211 27.3809 16.7004 27.4601C16.866 27.6257 17.0313 27.7916 17.1964 27.9577C17.4079 28.1706 17.6202 28.3829 17.8326 28.5949C17.9961 28.7582 18.1594 28.9219 18.3225 29.0856C18.4007 29.164 18.4789 29.2423 18.5572 29.3205C18.6665 29.4297 18.7754 29.5394 18.8841 29.6491C18.9165 29.6813 18.9488 29.7135 18.9822 29.7467C19.2147 29.9824 19.3523 30.1561 19.3582 30.4908C19.352 30.7573 19.2803 30.9101 19.1018 31.1133C18.8675 31.2305 18.8675 31.2305 18.2229 31.2305C18.2229 32.062 18.2229 32.8934 18.2229 33.7501C18.5579 33.748 18.8929 33.746 19.238 33.7439C19.4503 33.743 19.6626 33.7421 19.8749 33.7415C20.2118 33.7404 20.5487 33.7392 20.8856 33.7368C21.1573 33.7349 21.4289 33.7338 21.7005 33.7334C21.8041 33.7331 21.9077 33.7324 22.0114 33.7315C22.1565 33.7302 22.3017 33.73 22.4469 33.7301C22.4897 33.7295 22.5324 33.7288 22.5765 33.7282C22.8346 33.7298 23.0013 33.7619 23.2034 33.9258C23.3227 34.1143 23.336 34.2652 23.3382 34.4859C23.3392 34.5522 23.3401 34.6185 23.341 34.6868C23.3414 34.7593 23.3418 34.8318 23.3423 34.9064C23.3431 34.983 23.344 35.0595 23.3449 35.1383C23.3476 35.3919 23.3492 35.6455 23.3506 35.899C23.3511 35.9865 23.3517 36.0739 23.3522 36.1613C23.3545 36.525 23.3564 36.8886 23.3575 37.2523C23.3591 37.7729 23.3625 38.2934 23.3684 38.814C23.3725 39.1804 23.3745 39.5468 23.375 39.9132C23.3753 40.1319 23.3765 40.3506 23.3799 40.5692C23.3836 40.8133 23.3832 41.0573 23.3823 41.3014C23.3849 41.4096 23.3849 41.4096 23.3875 41.52C23.3811 42.0016 23.3811 42.0016 23.2042 42.2028C23.0716 42.3055 22.9354 42.3919 22.7932 42.4805C22.3464 43.0042 22.1045 43.5713 22.1288 44.2617C22.1844 44.6876 22.4081 44.9373 22.7324 45.2026C22.8855 45.3185 23.0405 45.4256 23.2034 45.5274C23.0862 45.7032 23.0862 45.7032 22.9104 45.7618C22.8299 45.7672 22.7491 45.7694 22.6683 45.7696C22.594 45.77 22.594 45.77 22.5183 45.7704C22.4366 45.7704 22.4366 45.7704 22.3533 45.7704C22.2955 45.7706 22.2377 45.7708 22.1782 45.7711C21.9836 45.7717 21.789 45.7719 21.5944 45.7722C21.4552 45.7725 21.3161 45.7729 21.1769 45.7733C20.7587 45.7744 20.3406 45.7751 19.9224 45.7756C19.7254 45.7758 19.5285 45.7762 19.3316 45.7765C18.677 45.7775 18.0224 45.7783 17.3678 45.7787C17.198 45.7788 17.0281 45.779 16.8583 45.7791C16.7949 45.7791 16.7949 45.7791 16.7303 45.7792C16.0463 45.7796 15.3623 45.7811 14.6782 45.783C13.976 45.785 13.2737 45.786 12.5715 45.7862C12.1772 45.7863 11.7829 45.7869 11.3886 45.7884C11.0177 45.7897 10.6469 45.79 10.276 45.7894C10.1398 45.7893 10.0036 45.7897 9.86745 45.7905C9.68166 45.7915 9.49594 45.7911 9.31016 45.7904C9.22911 45.7913 9.22911 45.7913 9.14643 45.7923C8.82441 45.7891 8.63009 45.7495 8.37918 45.5274C8.22347 45.3242 8.24511 45.0904 8.24593 44.8446C8.24563 44.7992 8.24532 44.7537 8.245 44.707C8.24412 44.5546 8.24408 44.4024 8.24404 44.25C8.2436 44.1409 8.2431 44.0318 8.24257 43.9226C8.24128 43.626 8.24076 43.3294 8.24047 43.0328C8.24025 42.8475 8.23989 42.6623 8.23947 42.477C8.23803 41.8307 8.23727 41.1845 8.23706 40.5382C8.23685 39.9356 8.2351 39.3331 8.23264 38.7305C8.23061 38.2133 8.22971 37.6961 8.22967 37.1789C8.22962 36.8699 8.2291 36.5609 8.22744 36.252C8.22591 35.9614 8.22577 35.6708 8.22672 35.3802C8.22682 35.2736 8.22643 35.167 8.2255 35.0604C8.2243 34.9147 8.22491 34.7692 8.22598 34.6236C8.2252 34.5814 8.22443 34.5393 8.22363 34.4959C8.22912 34.1664 8.33007 34.032 8.55496 33.8087C8.70464 33.7338 8.81371 33.7407 8.98129 33.738C9.0458 33.7369 9.11031 33.7357 9.17677 33.7345C9.24666 33.7335 9.31655 33.7325 9.38855 33.7315C9.45992 33.7303 9.53128 33.7291 9.60481 33.7278C9.83347 33.724 10.0621 33.7205 10.2908 33.7171C10.4455 33.7146 10.6003 33.712 10.755 33.7094C11.1349 33.7032 11.5149 33.6972 11.8948 33.6915C11.8755 33.6528 11.8561 33.6141 11.8362 33.5743C11.8311 33.3991 11.8294 33.2253 11.8305 33.0501C11.8306 32.9983 11.8307 32.9464 11.8307 32.893C11.8311 32.727 11.8318 32.5611 11.8326 32.3951C11.8328 32.2827 11.8331 32.1703 11.8334 32.0579C11.834 31.7821 11.835 31.5063 11.8362 31.2305C11.7963 31.2316 11.7563 31.2327 11.7151 31.2339C11.6626 31.2347 11.61 31.2356 11.5558 31.2365C11.5038 31.2376 11.4517 31.2387 11.3981 31.2398C11.1749 31.2258 11.0606 31.1462 10.8987 30.9962C10.7439 30.7588 10.6818 30.5752 10.7229 30.293C10.8874 30.0144 11.086 29.7959 11.3137 29.5699C11.3488 29.5346 11.3839 29.4993 11.42 29.463C11.5353 29.3472 11.6509 29.2319 11.7666 29.1166C11.8472 29.0359 11.9278 28.9553 12.0083 28.8746C12.1767 28.706 12.3454 28.5375 12.5142 28.3693C12.7306 28.1536 12.9464 27.9374 13.162 27.721C13.3281 27.5546 13.4944 27.3883 13.6609 27.2222C13.7406 27.1426 13.8202 27.0629 13.8997 26.9831C14.0108 26.8717 14.1222 26.7607 14.2338 26.6499C14.2665 26.6169 14.2993 26.5839 14.333 26.5499C14.6296 26.2565 14.8114 26.1484 15.2347 26.1915Z" fill="#F1A44C"/>
<path d="M46.1249 25.1094C46.2922 25.1111 46.4593 25.1106 46.6266 25.1098C46.7344 25.1102 46.8422 25.1107 46.9499 25.1113C47.0238 25.111 47.0238 25.111 47.0992 25.1108C47.5728 25.1182 48.0338 25.2312 48.3981 25.5469C48.6994 25.9706 48.8157 26.2728 48.8149 26.7918C48.8149 26.8341 48.8149 26.8765 48.8149 26.9201C48.8148 27.0596 48.8144 27.1991 48.8139 27.3385C48.8138 27.4354 48.8137 27.5323 48.8137 27.6292C48.8135 27.8839 48.8129 28.1386 48.8122 28.3932C48.8116 28.6532 48.8114 28.9133 48.8111 29.1733C48.8104 29.6832 48.8094 30.1932 48.8082 30.7031C48.8858 30.714 48.8858 30.714 48.965 30.7251C49.0673 30.7401 49.0673 30.7401 49.1717 30.7553C49.2391 30.765 49.3066 30.7747 49.3761 30.7846C50.0707 30.9124 50.688 31.366 51.0934 31.9336C51.5256 32.6764 51.6383 33.2974 51.6368 34.1449C51.6371 34.2384 51.6374 34.3318 51.6377 34.4252C51.6385 34.678 51.6385 34.9308 51.6384 35.1836C51.6383 35.3953 51.6386 35.6069 51.6389 35.8186C51.6395 36.3186 51.6396 36.8185 51.6392 37.3185C51.6389 37.8325 51.6396 38.3466 51.6408 38.8606C51.6419 39.3033 51.6422 39.746 51.642 40.1887C51.6419 40.4524 51.6421 40.7162 51.6429 40.98C51.6436 41.2285 51.6435 41.4769 51.6427 41.7254C51.6426 41.8159 51.6427 41.9065 51.6432 41.997C51.647 42.7438 51.5977 43.4578 51.2041 44.1103C51.1161 44.3261 51.1982 44.4941 51.2691 44.707C51.3213 45.1967 51.2733 45.5937 50.9762 45.9961C50.6583 46.3107 50.3238 46.4634 49.8775 46.4905C49.5371 46.4823 49.2577 46.3728 48.984 46.1719C48.9339 46.1025 48.884 46.0329 48.8344 45.9632C48.6893 45.7927 48.5983 45.7321 48.3744 45.7124C48.2732 45.7112 48.1719 45.7123 48.0708 45.7151C48.0153 45.7151 47.9598 45.715 47.9026 45.715C47.72 45.7152 47.5375 45.7184 47.3548 45.7216C47.2279 45.7224 47.101 45.723 46.974 45.7234C46.6405 45.725 46.3071 45.729 45.9736 45.7335C45.6331 45.7377 45.2925 45.7396 44.952 45.7417C44.2842 45.7461 43.6165 45.7531 42.9488 45.7617C42.9329 45.8068 42.917 45.8519 42.9005 45.8983C42.7882 46.1533 42.5844 46.2868 42.3482 46.4245C41.9577 46.5222 41.5923 46.5108 41.2391 46.3085C40.9986 46.1325 40.81 45.9369 40.7369 45.6445C40.633 45.3952 40.455 45.3159 40.2341 45.1698C39.7006 44.7902 39.3843 44.2335 39.2574 43.5937C39.2516 43.4533 39.2493 43.3127 39.2488 43.1721C39.2486 43.1296 39.2484 43.087 39.2481 43.0432C39.2475 42.9006 39.2473 42.7581 39.2471 42.6155C39.2467 42.5133 39.2463 42.411 39.2459 42.3088C39.2447 41.973 39.244 41.6371 39.2435 41.3013C39.2432 41.1855 39.243 41.0697 39.2427 40.9539C39.2416 40.4097 39.2408 39.8656 39.2403 39.3214C39.2397 38.6942 39.2382 38.067 39.2358 37.4398C39.234 36.9544 39.2332 36.4691 39.233 35.9838C39.2329 35.6942 39.2323 35.4046 39.2309 35.115C39.2295 34.8422 39.2292 34.5695 39.2298 34.2967C39.2299 34.197 39.2295 34.0973 39.2287 33.9977C39.2213 33.0287 39.4384 32.1786 40.1363 31.4648C41.0195 30.7459 41.9395 30.6949 43.039 30.7004C43.115 30.7006 43.191 30.7008 43.2692 30.701C43.4554 30.7015 43.6416 30.7022 43.8277 30.7031C43.8272 30.6508 43.8267 30.5985 43.8262 30.5447C43.8214 30.0499 43.8179 29.5552 43.8156 29.0604C43.8144 28.8061 43.8127 28.5518 43.8101 28.2974C43.8075 28.0516 43.8061 27.8058 43.8055 27.56C43.8051 27.4666 43.8042 27.3732 43.803 27.2799C43.7939 26.5846 43.8484 25.9932 44.3558 25.4693C44.8588 25.045 45.5048 25.1025 46.1249 25.1094Z" fill="#FE773A"/>
<path d="M30.1761 29.8243C30.2385 29.8237 30.3009 29.8232 30.3651 29.8226C30.4369 29.8219 30.5087 29.8213 30.5826 29.8206C30.7206 29.8194 30.8586 29.82 30.9965 29.8243C31.0977 29.9256 31.0891 30.0673 31.1099 30.2055C31.1205 30.275 31.1311 30.3444 31.142 30.416C31.1535 30.4934 31.1651 30.5707 31.1766 30.648C31.1888 30.7288 31.201 30.8095 31.2132 30.8902C31.2391 31.0616 31.2649 31.233 31.2905 31.4044C31.3221 31.6158 31.354 31.8272 31.386 32.0386C31.5715 33.2643 31.7479 34.4912 31.9224 35.7185C32.0636 36.7112 32.2071 37.7037 32.3502 38.6962C32.3853 38.939 32.4202 39.1819 32.4552 39.4247C32.5491 40.0774 32.6435 40.73 32.7387 41.3826C32.7883 41.7236 32.837 42.0648 32.885 42.4061C32.9155 42.6222 32.9466 42.8382 32.9778 43.0543C32.9921 43.1544 33.0062 43.2546 33.02 43.3549C33.1535 44.4 33.1535 44.4 33.7504 45.2345C34.3719 45.641 34.8783 45.7216 35.6089 45.7229C35.6876 45.7233 35.7664 45.7237 35.8452 45.7241C36.01 45.7248 36.1749 45.725 36.3398 45.7249C36.5486 45.7249 36.7572 45.7265 36.966 45.7285C37.1287 45.7298 37.2915 45.7301 37.4543 45.73C37.5679 45.7302 37.6814 45.7315 37.7949 45.7328C38.5703 45.7288 39.2601 45.5671 39.9027 45.1173C39.9607 45.0786 40.0187 45.0399 40.0785 45.0001C40.469 45.2472 40.7485 45.4337 40.9057 45.8762C41.0112 46.1209 41.2158 46.2348 41.4408 46.366C41.8393 46.4657 42.1977 46.4474 42.5575 46.2431C42.7374 46.1139 42.8516 45.9579 42.9496 45.7618C44.0205 45.7098 45.0914 45.6821 46.1635 45.6741C46.4025 45.6723 46.6413 45.6695 46.8803 45.6646C47.116 45.6598 47.3516 45.6573 47.5874 45.6564C47.676 45.6557 47.7647 45.6542 47.8533 45.6518C48.5401 45.6343 48.5401 45.6343 48.7717 45.8057C48.8794 45.9314 48.8794 45.9314 48.961 46.0568C49.1106 46.2661 49.3281 46.3428 49.5707 46.4063C50.0699 46.4818 50.4279 46.3256 50.8488 46.0731C51.032 45.8793 51.1169 45.6571 51.2113 45.4102C51.6198 45.4189 51.8559 45.6047 52.1488 45.879C52.2829 46.0455 52.319 46.1341 52.3502 46.3441C52.301 46.6883 52.1205 46.8666 51.8558 47.0728C49.5291 48.6217 45.8387 48.8021 43.1254 49.1016C43.0703 49.1078 43.0151 49.1139 42.9583 49.1202C41.3602 49.2965 39.7602 49.4239 38.1554 49.5189C38.0309 49.5263 37.9064 49.5337 37.7819 49.5412C35.3575 49.6854 32.9353 49.6971 30.5073 49.6951C30.2043 49.6949 29.9012 49.695 29.5981 49.6952C25.7891 49.6982 25.7891 49.6982 24.141 49.629C24.0725 49.6261 24.0039 49.6232 23.9333 49.6203C23.4896 49.601 23.0463 49.5776 22.6029 49.5521C22.5039 49.5465 22.5039 49.5465 22.403 49.5408C18.2674 49.3048 13.8827 49.0544 9.90271 47.8126C9.85132 47.7966 9.79993 47.7806 9.74698 47.7641C8.02872 47.2189 8.02872 47.2189 7.61755 46.5235C7.56628 46.3184 7.56628 46.3184 7.61755 46.1134C7.78826 45.8601 7.97357 45.6425 8.26208 45.5274C8.39643 45.5442 8.48715 45.5808 8.60537 45.6464C8.74241 45.7084 8.83096 45.7179 8.98047 45.7179C9.03018 45.7183 9.0799 45.7186 9.13112 45.7189C9.18545 45.7186 9.23978 45.7184 9.29576 45.7181C9.3537 45.7183 9.41163 45.7184 9.47133 45.7186C9.66601 45.7191 9.86069 45.7187 10.0554 45.7184C10.1947 45.7185 10.3341 45.7187 10.4734 45.719C10.813 45.7195 11.1525 45.7194 11.492 45.7191C11.768 45.7188 12.0439 45.7188 12.3198 45.7189C12.3787 45.7189 12.3787 45.7189 12.4388 45.7189C12.5185 45.719 12.5982 45.719 12.678 45.7191C13.4259 45.7194 14.1738 45.719 14.9218 45.7184C15.5637 45.7178 16.2056 45.7179 16.8475 45.7185C17.5927 45.7191 18.338 45.7194 19.0832 45.719C19.1627 45.719 19.2421 45.7189 19.3215 45.7189C19.3802 45.7189 19.3802 45.7189 19.44 45.7188C19.7156 45.7187 19.9913 45.7189 20.2669 45.7192C20.6378 45.7195 21.0087 45.7193 21.3796 45.7186C21.5159 45.7184 21.6522 45.7185 21.7886 45.7187C21.9743 45.7191 22.1599 45.7187 22.3456 45.7181C22.4271 45.7185 22.4271 45.7185 22.5102 45.7189C22.56 45.7186 22.6097 45.7183 22.6609 45.7179C22.7252 45.7179 22.7252 45.7179 22.7908 45.7179C22.9289 45.701 23.0214 45.648 23.1449 45.586C23.303 45.6025 23.4479 45.63 23.6 45.6758C23.7763 45.7127 23.9446 45.7121 24.1247 45.7136C24.1638 45.714 24.2029 45.7143 24.2431 45.7147C24.3722 45.7159 24.5013 45.7166 24.6303 45.7172C24.6746 45.7174 24.719 45.7176 24.7646 45.7179C24.9993 45.7191 25.234 45.7199 25.4687 45.7205C25.7098 45.7211 25.951 45.7232 26.1921 45.7255C26.3786 45.727 26.5651 45.7275 26.7516 45.7277C26.8404 45.728 26.9292 45.7287 27.018 45.7298C27.6924 45.7376 28.2407 45.6553 28.7804 45.2248C29.2099 44.7916 29.3635 44.2501 29.4169 43.6606C29.4217 43.6096 29.4265 43.5585 29.4315 43.5059C29.4894 42.8675 29.5199 42.2276 29.5511 41.5874C29.558 41.4504 29.5649 41.3133 29.5718 41.1762C29.5865 40.8853 29.601 40.5944 29.6154 40.3035C29.638 39.8465 29.661 39.3896 29.6841 38.9326C29.688 38.856 29.6918 38.7794 29.6958 38.7004C29.7037 38.545 29.7115 38.3896 29.7194 38.2341C29.7293 38.0387 29.7391 37.8433 29.7489 37.6479C29.8235 36.1648 29.901 34.6818 29.9799 33.1988C29.9893 33.0223 29.9987 32.8458 30.008 32.6692C30.0226 32.3932 30.0372 32.1173 30.052 31.8413C30.0573 31.7418 30.0625 31.6422 30.0678 31.5427C30.0981 30.9694 30.1328 30.3968 30.1761 29.8243Z" fill="#D5E4F7"/>
<path d="M27.5978 29.7657C27.8332 29.7642 28.0685 29.7632 28.3038 29.7625C28.4221 29.762 28.5404 29.7613 28.6587 29.7605C29.168 29.7593 29.6686 29.7819 30.176 29.8243C30.1839 30.448 30.1591 31.0661 30.1242 31.6885C30.1186 31.7921 30.113 31.8957 30.1074 31.9993C30.0953 32.2226 30.0831 32.4459 30.0708 32.6692C30.0407 33.2162 30.0111 33.7632 29.9816 34.3102C29.9746 34.4404 29.9675 34.5705 29.9605 34.7006C29.9031 35.7612 29.8486 36.822 29.7953 37.8828C29.7855 38.0777 29.7756 38.2726 29.7658 38.4675C29.7312 39.1538 29.6967 39.84 29.6628 40.5263C29.6486 40.8124 29.6342 41.0986 29.6197 41.3847C29.613 41.5172 29.6065 41.6496 29.6 41.7821C29.5694 42.4097 29.5344 43.036 29.4744 43.6615C29.4699 43.7092 29.4655 43.7568 29.461 43.8059C29.3993 44.4068 29.1826 44.9446 28.7049 45.3354C28.1209 45.7445 27.6038 45.789 26.9098 45.7872C26.8199 45.7875 26.7301 45.7878 26.6402 45.7881C26.4523 45.7887 26.2645 45.7885 26.0767 45.7879C25.8374 45.7873 25.5981 45.7884 25.3588 45.7901C25.1733 45.7912 24.9878 45.7912 24.8023 45.7909C24.7142 45.7909 24.626 45.7912 24.5379 45.7919C23.6999 45.7979 23.0613 45.6043 22.448 45.0099C22.1476 44.6752 22.0643 44.3864 22.0763 43.9387C22.1303 43.2738 22.4777 42.7134 22.9614 42.2665C23.8769 41.551 24.9294 41.3919 26.0602 41.2901C26.2659 41.2702 26.3669 41.2504 26.5432 41.1329C26.5833 40.9532 26.5833 40.9532 26.597 40.7365C26.6025 40.675 26.6025 40.675 26.6081 40.6123C26.6201 40.4754 26.631 40.3385 26.6418 40.2016C26.65 40.1052 26.6583 40.0088 26.6667 39.9124C26.689 39.654 26.7102 39.3954 26.7313 39.1368C26.7534 38.8682 26.7765 38.5996 26.7995 38.331C26.8355 37.909 26.8711 37.4869 26.9063 37.0648C26.9601 36.4199 27.0165 35.7752 27.0742 35.1307C27.0828 35.0334 27.0914 34.9361 27.1001 34.8388C27.185 33.885 27.2736 32.9316 27.3625 31.9782C27.3744 31.8505 27.3862 31.7228 27.398 31.5951C27.4201 31.3564 27.4425 31.1178 27.4649 30.8792C27.4748 30.7715 27.4748 30.7715 27.485 30.6615C27.4913 30.5949 27.4976 30.5282 27.504 30.4596C27.5094 30.4017 27.5149 30.3438 27.5204 30.2842C27.5401 30.11 27.5675 29.9383 27.5978 29.7657Z" fill="#F2D4B7"/>
<path d="M46.1253 25.1094C46.2925 25.1111 46.4597 25.1106 46.627 25.1098C46.7348 25.1102 46.8425 25.1107 46.9503 25.1113C47.0242 25.111 47.0242 25.111 47.0996 25.1108C47.5732 25.1182 48.0342 25.2312 48.3984 25.5469C48.6998 25.9706 48.8161 26.2728 48.8152 26.7918C48.8153 26.8341 48.8153 26.8765 48.8153 26.9201C48.8152 27.0596 48.8148 27.1991 48.8143 27.3385C48.8142 27.4354 48.8141 27.5323 48.8141 27.6292C48.8138 27.8839 48.8133 28.1386 48.8126 28.3932C48.812 28.6532 48.8117 28.9133 48.8115 29.1733C48.8108 29.6832 48.8098 30.1932 48.8086 30.7031C48.8862 30.714 48.8862 30.714 48.9654 30.7251C49.0677 30.7401 49.0677 30.7401 49.1721 30.7553C49.2395 30.765 49.307 30.7747 49.3765 30.7846C50.0711 30.9124 50.6884 31.366 51.0938 31.9336C51.526 32.6764 51.6387 33.2974 51.6372 34.1449C51.6374 34.2384 51.6377 34.3318 51.6381 34.4252C51.6389 34.678 51.6389 34.9308 51.6388 35.1836C51.6387 35.3953 51.639 35.6069 51.6393 35.8186C51.6399 36.3186 51.6399 36.8185 51.6396 37.3185C51.6392 37.8325 51.64 38.3466 51.6412 38.8606C51.6422 39.3033 51.6426 39.746 51.6424 40.1887C51.6423 40.4524 51.6424 40.7162 51.6433 40.98C51.644 41.2285 51.6439 41.4769 51.6431 41.7254C51.643 41.8159 51.6431 41.9065 51.6436 41.997C51.6474 42.7438 51.5981 43.4578 51.2045 44.1103C51.1165 44.3261 51.1986 44.4941 51.2695 44.707C51.3217 45.1967 51.2737 45.5937 50.9766 45.9961C50.6586 46.3107 50.3242 46.4634 49.8779 46.4905C49.5375 46.4823 49.2581 46.3728 48.9844 46.1719C48.9341 46.1026 48.8842 46.0332 48.8345 45.9635C48.6903 45.7941 48.5992 45.732 48.377 45.7102C48.2769 45.7079 48.1767 45.708 48.0765 45.7098C48.0216 45.7091 47.9667 45.7085 47.9101 45.7078C47.7294 45.7062 47.5488 45.7075 47.368 45.7088C47.2424 45.7083 47.1168 45.7076 46.9912 45.7066C46.6611 45.7048 46.3312 45.7053 46.0011 45.7064C45.6641 45.707 45.3272 45.7054 44.9902 45.7039C44.3294 45.7014 43.6686 45.7014 43.0078 45.7031C43.0078 45.6838 43.0078 45.6644 43.0078 45.6445C43.05 45.6444 43.0923 45.6443 43.1358 45.6443C43.5373 45.6432 43.9389 45.6407 44.3405 45.6368C44.5468 45.6348 44.7531 45.6333 44.9595 45.6331C45.1978 45.6328 45.436 45.6301 45.6743 45.6273C45.747 45.6276 45.8196 45.6278 45.8945 45.628C46.6381 45.6159 47.3333 45.4153 47.8711 44.8828C48.5927 44.1099 48.7092 43.242 48.7084 42.2268C48.7088 42.1304 48.7092 42.034 48.7096 41.9376C48.7107 41.6769 48.7109 41.4163 48.711 41.1556C48.7111 40.9924 48.7113 40.8292 48.7117 40.666C48.7127 40.0956 48.7132 39.5253 48.7131 38.9549C48.7131 38.4249 48.7143 37.8948 48.7161 37.3648C48.7177 36.9084 48.7183 36.4519 48.7182 35.9955C48.7182 35.7235 48.7185 35.4515 48.7198 35.1795C48.7209 34.9235 48.7209 34.6674 48.7201 34.4114C48.7199 34.318 48.7202 34.2245 48.7209 34.1311C48.7268 33.3064 48.5785 32.6236 48.1055 31.9336C48.0547 31.8556 48.0547 31.8556 48.0029 31.7761C47.3368 31.0914 46.4283 30.8161 45.498 30.7837C45.4443 30.7814 45.3905 30.7791 45.3351 30.7768C45.2039 30.7713 45.0727 30.7663 44.9414 30.7617C44.9414 30.7424 44.9414 30.723 44.9414 30.7031C45.8695 30.7031 46.7977 30.7031 47.7539 30.7031C47.7486 29.9472 47.7486 29.9472 47.7417 29.1912C47.7385 28.883 47.7355 28.5748 47.7336 28.2665C47.7321 28.018 47.7297 27.7696 47.7268 27.5211C47.7258 27.4262 47.7251 27.3314 47.7247 27.2365C47.7242 27.1038 47.7225 26.9711 47.7206 26.8384C47.72 26.7628 47.7193 26.6872 47.7187 26.6093C47.7096 26.4291 47.7096 26.4291 47.6204 26.3135C47.4341 26.1962 47.2093 26.2264 46.9958 26.2287C46.9445 26.2287 46.8931 26.2286 46.8402 26.2286C46.7317 26.2287 46.6231 26.2293 46.5146 26.2303C46.3483 26.2317 46.1821 26.2315 46.0158 26.2311C45.9103 26.2314 45.8049 26.2318 45.6995 26.2324C45.6248 26.2323 45.6248 26.2323 45.5485 26.2322C45.2569 26.2355 45.2569 26.2355 45 26.3672C44.9324 26.5699 44.932 26.7309 44.9294 26.9448C44.9288 26.9854 44.9282 27.026 44.9276 27.0678C44.9258 27.2019 44.9243 27.336 44.9229 27.4702C44.9217 27.5632 44.9204 27.6562 44.9192 27.7492C44.9159 27.994 44.913 28.2387 44.9102 28.4835C44.9073 28.7333 44.904 28.9831 44.9008 29.2329C44.8945 29.723 44.8886 30.213 44.8828 30.7031C44.5348 30.7031 44.1867 30.7031 43.8281 30.7031C43.8228 30.1555 43.8185 29.608 43.816 29.0604C43.8148 28.8061 43.8131 28.5518 43.8104 28.2974C43.8079 28.0516 43.8065 27.8058 43.8059 27.56C43.8055 27.4666 43.8046 27.3732 43.8033 27.2799C43.7942 26.5846 43.8488 25.9932 44.3562 25.4693C44.8592 25.045 45.5052 25.1025 46.1253 25.1094Z" fill="#F2531A"/>
<path d="M31.1128 29.8829C31.3879 29.8814 31.6631 29.8803 31.9382 29.8796C32.0316 29.8793 32.125 29.8789 32.2185 29.8784C32.3534 29.8777 32.4884 29.8774 32.6234 29.8771C32.6646 29.8768 32.7057 29.8765 32.7481 29.8762C33.0281 29.8762 33.2965 29.9022 33.5737 29.9415C33.6991 30.2126 33.7455 30.488 33.7971 30.7798C33.8071 30.8345 33.817 30.8892 33.8272 30.9455C33.8488 31.0645 33.8703 31.1835 33.8916 31.3025C33.9259 31.4937 33.9605 31.6849 33.9952 31.876C34.0319 32.078 34.0686 32.28 34.1051 32.482C34.2275 33.1583 34.3525 33.8342 34.4779 34.51C34.515 34.7103 34.5521 34.9106 34.5892 35.1109C34.7028 35.7237 34.8166 36.3365 34.931 36.9491C35.1259 37.9929 35.3191 39.0369 35.5073 40.0818C35.5164 40.1318 35.5254 40.1818 35.5347 40.2333C35.5599 40.3727 35.5849 40.5121 35.6099 40.6515C35.6173 40.6929 35.6248 40.7343 35.6325 40.7769C35.6831 41.0608 35.6831 41.0608 35.6831 41.1915C35.8345 41.2172 35.9858 41.2429 36.1372 41.2684C36.1844 41.2763 36.2315 41.2843 36.2801 41.2925C36.5323 41.3347 36.7846 41.3746 37.0379 41.4098C37.6304 41.4924 38.2226 41.5761 38.7886 41.7774C38.8262 41.7901 38.8638 41.8028 38.9026 41.8159C39.0264 41.869 39.1063 41.9133 39.1987 42.0118C39.2533 42.2131 39.2447 42.4087 39.239 42.616C39.2468 43.4304 39.3523 44.2508 39.9419 44.8691C39.9674 44.893 39.9928 44.9169 40.019 44.9415C39.8862 45.2677 39.621 45.3799 39.3159 45.5274C38.7329 45.7287 38.1942 45.7964 37.5771 45.7908C37.4983 45.7908 37.4195 45.7909 37.3407 45.7911C37.1774 45.7912 37.0141 45.7905 36.8508 45.7891C36.6431 45.7874 36.4355 45.7876 36.2278 45.7883C36.0657 45.7888 35.9037 45.7883 35.7417 45.7876C35.6284 45.7872 35.5152 45.7874 35.4019 45.7877C34.6455 45.7796 34.0753 45.6083 33.5257 45.0717C33.0213 44.4722 32.9789 43.5818 32.8802 42.836C32.8654 42.7275 32.8505 42.6191 32.8355 42.5106C32.8041 42.2833 32.773 42.0558 32.742 41.8284C32.6739 41.3299 32.6018 40.832 32.5298 40.334C32.4973 40.1092 32.465 39.8844 32.4326 39.6596C32.3992 39.4277 32.3658 39.1959 32.3324 38.9641C32.3151 38.8438 32.2977 38.7235 32.2804 38.6031C32.0788 37.2048 31.8763 35.8067 31.669 34.4092C31.6608 34.3543 31.6527 34.2995 31.6443 34.2429C31.5671 33.7224 31.4896 33.2019 31.4118 32.6815C31.3836 32.4932 31.3556 32.3048 31.3275 32.1165C31.3087 31.9908 31.2898 31.8651 31.2709 31.7394C31.2368 31.5113 31.2038 31.2831 31.1714 31.0547C31.1624 30.9917 31.1624 30.9917 31.1532 30.9275C31.1352 30.7992 31.1178 30.6709 31.1006 30.5425C31.0903 30.4666 31.08 30.3907 31.0693 30.3125C31.0564 30.1451 31.0574 30.0387 31.1128 29.8829Z" fill="#F2D4B7"/>
<path d="M15.2341 26.1915C15.5461 26.3459 15.7739 26.5303 16.017 26.7768C16.0691 26.8286 16.0691 26.8286 16.1223 26.8814C16.236 26.9946 16.349 27.1085 16.462 27.2224C16.5413 27.3016 16.6205 27.3809 16.6998 27.4601C16.8654 27.6257 17.0307 27.7916 17.1958 27.9577C17.4074 28.1706 17.6196 28.3829 17.832 28.5949C17.9955 28.7582 18.1588 28.9219 18.3219 29.0856C18.4001 29.164 18.4783 29.2423 18.5567 29.3205C18.6659 29.4297 18.7748 29.5394 18.8835 29.6491C18.9159 29.6813 18.9483 29.7135 18.9816 29.7467C19.2141 29.9824 19.3517 30.1561 19.3576 30.4908C19.3515 30.7573 19.2797 30.9101 19.1013 31.1133C18.9091 31.2376 18.756 31.2432 18.53 31.2379C18.4723 31.2368 18.4145 31.2357 18.3551 31.2347C18.3113 31.2333 18.2675 31.2319 18.2223 31.2305C18.2227 31.3048 18.223 31.379 18.2233 31.4555C18.2243 31.7299 18.225 32.0043 18.2256 32.2787C18.2259 32.3977 18.2263 32.5167 18.2268 32.6356C18.2275 32.8062 18.2278 32.9768 18.2281 33.1474C18.2284 33.2009 18.2287 33.2545 18.229 33.3096C18.229 33.4369 18.226 33.5642 18.2223 33.6915C18.111 33.8028 17.908 33.7608 17.7564 33.7621C17.7136 33.7627 17.6709 33.7633 17.6269 33.7639C17.4843 33.7657 17.3417 33.7672 17.199 33.7686C17.099 33.7698 16.9989 33.771 16.8989 33.7723C16.6877 33.7749 16.4765 33.7773 16.2653 33.7795C15.9473 33.7829 15.6293 33.7868 15.3113 33.7907C14.8569 33.7962 14.4025 33.8006 13.9481 33.8044C13.6489 33.807 13.3499 33.8121 13.0507 33.8185C12.9117 33.8206 12.7727 33.8228 12.6337 33.8249C12.5718 33.8268 12.5099 33.8286 12.446 33.8306C12.3903 33.8312 12.3346 33.8318 12.2772 33.8324C12.2296 33.8335 12.1821 33.8346 12.133 33.8357C12.0114 33.8087 12.0114 33.8087 11.9081 33.7051C11.8304 33.5648 11.8142 33.491 11.8157 33.3325C11.8157 33.2856 11.8157 33.2387 11.8157 33.1904C11.8166 33.1403 11.8175 33.0903 11.8185 33.0387C11.8187 32.987 11.819 32.9353 11.8192 32.8821C11.8202 32.7173 11.8224 32.5525 11.8246 32.3878C11.8255 32.2759 11.8263 32.1641 11.827 32.0522C11.829 31.7783 11.832 31.5044 11.8356 31.2305C11.7957 31.2316 11.7557 31.2327 11.7145 31.2339C11.662 31.2347 11.6094 31.2356 11.5552 31.2365C11.5032 31.2376 11.4512 31.2387 11.3975 31.2398C11.1743 31.2258 11.06 31.1462 10.8981 30.9962C10.7433 30.7588 10.6812 30.5752 10.7223 30.293C10.8868 30.0144 11.0854 29.7959 11.3131 29.5699C11.3657 29.517 11.3657 29.517 11.4194 29.463C11.5347 29.3472 11.6503 29.2319 11.766 29.1166C11.8466 29.0359 11.9272 28.9553 12.0077 28.8746C12.1762 28.706 12.3448 28.5375 12.5136 28.3693C12.73 28.1536 12.9458 27.9374 13.1614 27.721C13.3275 27.5546 13.4939 27.3883 13.6603 27.2222C13.74 27.1426 13.8196 27.0629 13.8991 26.9831C14.0102 26.8717 14.1216 26.7607 14.2332 26.6499C14.2823 26.6004 14.2823 26.6004 14.3324 26.5499C14.629 26.2565 14.8109 26.1484 15.2341 26.1915Z" fill="#FE7639"/>
<path d="M30.1754 29.8243C30.2378 29.8237 30.3001 29.8232 30.3644 29.8226C30.4361 29.8219 30.5079 29.8213 30.5819 29.8206C30.7198 29.8194 30.8578 29.82 30.9957 29.8243C31.097 29.9256 31.0883 30.0673 31.1092 30.2055C31.1198 30.275 31.1304 30.3444 31.1413 30.416C31.1528 30.4934 31.1643 30.5707 31.1758 30.648C31.188 30.7288 31.2002 30.8095 31.2125 30.8902C31.2384 31.0616 31.2641 31.233 31.2898 31.4044C31.3214 31.6158 31.3533 31.8272 31.3853 32.0386C31.5703 33.2616 31.7463 34.4857 31.9205 35.7103C32.0675 36.7433 32.2167 37.7761 32.3656 38.8089C32.4026 39.0657 32.4396 39.3225 32.4765 39.5794C32.5221 39.8961 32.5677 40.2127 32.6134 40.5293C32.6305 40.6483 32.6477 40.7673 32.6648 40.8863C32.6883 41.0504 32.712 41.2145 32.7357 41.3787C32.7461 41.451 32.7461 41.451 32.7567 41.5248C32.7945 41.7857 32.7945 41.7857 32.8462 42.044C32.8806 42.2454 32.8707 42.4521 32.8707 42.6563C31.7879 42.6563 30.7051 42.6563 29.5895 42.6563C29.5895 42.9077 29.5895 43.1591 29.5895 43.418C29.5701 43.418 29.5508 43.418 29.5309 43.418C29.5048 42.0826 29.5766 40.7546 29.6492 39.4217C29.6659 39.1123 29.6822 38.8029 29.6986 38.4935C29.726 37.9763 29.7536 37.4591 29.7815 36.942C29.8203 36.2203 29.8584 35.4986 29.8963 34.7768C29.9226 34.2763 29.949 33.7758 29.9754 33.2753C29.9818 33.155 29.9881 33.0347 29.9945 32.9145C30.0125 32.5721 30.0307 32.2298 30.0489 31.8875C30.0544 31.7844 30.0598 31.6814 30.0653 31.5784C30.0961 30.9931 30.131 30.4087 30.1754 29.8243Z" fill="#E4EBFE"/>
<path d="M30.9922 21.8884C31.0695 21.8892 31.0695 21.8892 31.1485 21.89C31.8898 21.9098 32.3355 22.2205 32.8651 22.7229C33.7026 23.6079 34.0924 24.845 34.0649 26.0415C34.0405 26.4692 33.8859 26.789 33.5666 27.074C33.2795 27.2675 33.0308 27.2748 32.6951 27.2461C32.3908 27.1646 32.2484 27.0414 32.0322 26.814C31.6099 26.381 31.2454 26.2228 30.6443 26.2134C30.0162 26.222 29.6184 26.4292 29.1671 26.8622C28.9941 27.0122 28.8658 27.0667 28.6374 27.0886C28.2638 27.0575 28.0003 26.9755 27.7476 26.6894C27.4412 26.3088 27.4951 25.7772 27.5388 25.3125C27.6907 24.426 28.18 23.6321 28.7693 22.9687C28.8242 22.9065 28.8242 22.9065 28.8803 22.8431C29.4619 22.2236 30.1421 21.878 30.9922 21.8884Z" fill="#00381C"/>
<path d="M46.1255 25.1094C46.2928 25.1111 46.46 25.1106 46.6273 25.1098C46.735 25.1102 46.8428 25.1107 46.9506 25.1113C47.0245 25.111 47.0245 25.111 47.0999 25.1108C47.5734 25.1182 48.0345 25.2312 48.3987 25.5469C48.7001 25.9706 48.8164 26.2728 48.8155 26.7918C48.8155 26.8341 48.8155 26.8765 48.8155 26.9201C48.8155 27.0596 48.815 27.1991 48.8146 27.3385C48.8145 27.4354 48.8144 27.5323 48.8143 27.6292C48.8141 27.8839 48.8135 28.1386 48.8129 28.3932C48.8123 28.6532 48.812 28.9133 48.8117 29.1733C48.8111 29.6832 48.8101 30.1932 48.8088 30.7031C48.4608 30.7031 48.1128 30.7031 47.7542 30.7031C47.7533 30.5745 47.7525 30.4458 47.7516 30.3133C47.7486 29.8885 47.7447 29.4638 47.7404 29.0391C47.7377 28.7816 47.7354 28.5241 47.7339 28.2665C47.7323 28.018 47.73 27.7696 47.727 27.5211C47.726 27.4262 47.7254 27.3314 47.725 27.2365C47.7244 27.1038 47.7228 26.9711 47.7209 26.8384C47.7203 26.7628 47.7196 26.6872 47.7189 26.6093C47.7098 26.4291 47.7098 26.4291 47.6206 26.3135C47.4344 26.1962 47.2096 26.2264 46.9961 26.2287C46.9447 26.2287 46.8934 26.2286 46.8405 26.2286C46.7319 26.2287 46.6234 26.2293 46.5148 26.2303C46.3485 26.2317 46.1823 26.2315 46.016 26.2311C45.9106 26.2314 45.8052 26.2318 45.6997 26.2324C45.6499 26.2323 45.6001 26.2323 45.5488 26.2322C45.2572 26.2355 45.2572 26.2355 45.0003 26.3672C44.9327 26.5699 44.9323 26.7309 44.9296 26.9448C44.9288 27.0057 44.9288 27.0057 44.9279 27.0678C44.926 27.2019 44.9246 27.336 44.9231 27.4702C44.9219 27.5632 44.9207 27.6562 44.9194 27.7492C44.9162 27.994 44.9133 28.2387 44.9105 28.4835C44.9075 28.7333 44.9043 28.9831 44.901 29.2329C44.8947 29.723 44.8888 30.213 44.8831 30.7031C44.535 30.7031 44.187 30.7031 43.8284 30.7031C43.8231 30.1555 43.8188 29.608 43.8162 29.0604C43.815 28.8061 43.8134 28.5518 43.8107 28.2974C43.8081 28.0516 43.8067 27.8058 43.8061 27.56C43.8057 27.4666 43.8049 27.3732 43.8036 27.2799C43.7945 26.5846 43.849 25.9932 44.3565 25.4693C44.8594 25.045 45.5054 25.1025 46.1255 25.1094Z" fill="#063782"/>
<path d="M45.6913 26.1775C45.7426 26.177 45.7939 26.1765 45.8468 26.176C45.9554 26.1752 46.0641 26.1746 46.1728 26.1741C46.3389 26.1731 46.505 26.1705 46.6712 26.168C46.7767 26.1674 46.8822 26.1669 46.9877 26.1665C47.0623 26.1649 47.0623 26.1649 47.1383 26.1634C47.2081 26.1636 47.2081 26.1636 47.2793 26.1639C47.3201 26.1635 47.3608 26.1632 47.4028 26.1628C47.5803 26.2064 47.6462 26.2793 47.7536 26.4258C47.7817 26.6164 47.7817 26.6164 47.7802 26.845C47.7802 26.8868 47.7802 26.9286 47.7803 26.9716C47.7801 27.1092 47.7783 27.2467 47.7764 27.3844C47.776 27.4799 47.7757 27.5755 47.7754 27.671C47.7745 27.9223 47.7722 28.1735 47.7697 28.4247C47.7668 28.7263 47.7658 29.0279 47.7644 29.3295C47.7621 29.7874 47.7576 30.2452 47.7536 30.7031C46.8061 30.7031 45.8586 30.7031 44.8825 30.7031C44.8754 29.6767 44.8754 29.6767 44.8739 29.2386C44.8728 28.9399 44.8716 28.6412 44.8692 28.3425C44.8673 28.1016 44.8662 27.8608 44.8658 27.6199C44.8655 27.5281 44.8648 27.4362 44.8639 27.3444C44.8626 27.2156 44.8624 27.0869 44.8625 26.9581C44.8621 26.8849 44.8617 26.8116 44.8613 26.7361C44.8842 26.5268 44.932 26.4168 45.0582 26.25C45.2545 26.1519 45.4755 26.1793 45.6913 26.1775Z" fill="#FEFEFE"/>
<path d="M43.9746 34.2993C44.1373 34.34 44.2358 34.3996 44.3515 34.5214C44.4932 34.7649 44.4543 35.0673 44.452 35.3406C44.4525 35.4128 44.453 35.4849 44.4535 35.5593C44.4546 35.7567 44.4543 35.9541 44.4534 36.1516C44.4527 36.3585 44.4534 36.5653 44.4538 36.7722C44.4543 37.1195 44.4536 37.4669 44.4522 37.8142C44.4507 38.2155 44.4512 38.6168 44.4528 39.0181C44.4541 39.363 44.4543 39.7078 44.4535 40.0527C44.4531 40.2585 44.453 40.4643 44.454 40.6702C44.455 40.8997 44.4536 41.1291 44.452 41.3586C44.4526 41.4267 44.4531 41.4947 44.4538 41.5649C44.4477 42.0242 44.4477 42.0242 44.2764 42.259C44.1211 42.3633 44.1211 42.3633 43.9416 42.3999C43.7695 42.3633 43.7695 42.3633 43.6435 42.259C43.4763 41.9679 43.502 41.6887 43.5039 41.3586C43.5031 41.2504 43.5031 41.2504 43.5024 41.14C43.5013 40.9425 43.5012 40.7451 43.5017 40.5476C43.502 40.3826 43.5016 40.2177 43.5012 40.0527C43.5002 39.6634 43.5004 39.2742 43.5014 38.885C43.5024 38.4837 43.5014 38.0824 43.4995 37.6811C43.498 37.3362 43.4976 36.9914 43.4981 36.6465C43.4983 36.4407 43.4982 36.2349 43.497 36.029C43.4957 35.7996 43.4968 35.5701 43.4982 35.3406C43.4975 35.2725 43.4968 35.2045 43.4961 35.1343C43.5022 34.6219 43.5022 34.6219 43.6748 34.4402C43.8281 34.3359 43.8281 34.3359 43.9746 34.2993Z" fill="#F75B20"/>
<path d="M41.6048 34.4787C41.8355 34.5117 41.8355 34.5117 41.9364 34.612C42.0251 34.7707 42.0335 34.8674 42.034 35.0485C42.0346 35.1096 42.0352 35.1707 42.0358 35.2337C42.0355 35.3004 42.0353 35.3671 42.035 35.4359C42.0354 35.5064 42.0358 35.5769 42.0362 35.6496C42.0371 35.8428 42.0372 36.036 42.0369 36.2292C42.0367 36.3906 42.037 36.5519 42.0374 36.7132C42.0382 37.0938 42.0381 37.4744 42.0374 37.855C42.0368 38.2477 42.0376 38.6403 42.0392 39.0329C42.0405 39.3701 42.0409 39.7073 42.0405 40.0444C42.0403 40.2458 42.0405 40.4471 42.0415 40.6485C42.0425 40.8729 42.0417 41.0974 42.0407 41.3218C42.0416 41.4219 42.0416 41.4219 42.0424 41.524C42.0418 41.5851 42.0413 41.6462 42.0407 41.7092C42.0407 41.7623 42.0407 41.8153 42.0406 41.87C42.0018 42.0578 41.9251 42.1281 41.7769 42.246C41.6048 42.279 41.6048 42.279 41.4254 42.246C41.2477 42.1252 41.1469 42.0284 41.1054 41.8128C41.0945 41.6307 41.0935 41.4507 41.0954 41.2682C41.095 41.199 41.0946 41.1297 41.0942 41.0583C41.0933 40.8687 41.0938 40.6791 41.095 40.4895C41.0959 40.2909 41.0954 40.0922 41.0951 39.8936C41.0949 39.56 41.0958 39.2265 41.0974 38.8929C41.0993 38.5076 41.0993 38.1223 41.0983 37.7369C41.0974 37.3659 41.0978 36.9948 41.0988 36.6237C41.0992 36.466 41.0991 36.3082 41.0987 36.1505C41.0984 35.9301 41.0995 35.7098 41.1011 35.4894C41.1006 35.3914 41.1006 35.3914 41.1 35.2915C41.1055 34.8497 41.1055 34.8497 41.2441 34.6176C41.3775 34.5024 41.4308 34.473 41.6048 34.4787Z" fill="#F75B20"/>
<path d="M46.3843 34.5044C46.6023 34.5771 46.6451 34.6122 46.7578 34.8047C46.7803 34.9434 46.7803 34.9434 46.7809 35.1001C46.7816 35.1596 46.7822 35.2192 46.7829 35.2805C46.7828 35.3455 46.7826 35.4105 46.7824 35.4775C46.7829 35.5462 46.7834 35.6149 46.7839 35.6857C46.785 35.874 46.7854 36.0622 46.7853 36.2504C46.7853 36.4077 46.7858 36.565 46.7863 36.7222C46.7874 37.0933 46.7876 37.4643 46.7872 37.8354C46.7868 38.218 46.7881 38.6005 46.7903 38.9831C46.7921 39.3117 46.7927 39.6404 46.7925 39.9691C46.7924 40.1653 46.7927 40.3615 46.7942 40.5577C46.7954 40.7766 46.7949 40.9953 46.7939 41.2142C46.795 41.3115 46.795 41.3115 46.7962 41.4108C46.7914 41.8495 46.7914 41.8495 46.6185 42.0815C46.4648 42.1875 46.4648 42.1875 46.3147 42.2205C46.1286 42.1775 46.0575 42.0988 45.9375 41.9531C45.8663 41.8107 45.8709 41.7187 45.8699 41.5595C45.8694 41.5012 45.8689 41.4429 45.8684 41.3828C45.8681 41.3185 45.8679 41.2543 45.8676 41.1881C45.8671 41.1207 45.8666 41.0532 45.8661 40.9837C45.8647 40.7597 45.8637 40.5356 45.8629 40.3116C45.8626 40.2352 45.8623 40.1588 45.8619 40.0801C45.8607 39.7591 45.8596 39.4382 45.8589 39.1172C45.858 38.6573 45.856 38.1975 45.8527 37.7377C45.8504 37.4143 45.8493 37.0909 45.849 36.7675C45.8487 36.5744 45.8479 36.3813 45.8461 36.1882C45.8443 35.9726 45.8443 35.757 45.8447 35.5414C45.8437 35.4776 45.8428 35.4139 45.8418 35.3482C45.8458 34.865 45.8458 34.865 46.0142 34.6456C46.1719 34.5117 46.1719 34.5117 46.3843 34.5044Z" fill="#F75A1F"/>
<path d="M50.4804 43.7627C50.8456 43.9752 51.1377 44.305 51.2693 44.7071C51.3345 45.1918 51.2696 45.599 50.9764 45.9961C50.6584 46.3108 50.324 46.4634 49.8777 46.4905C49.4873 46.4811 49.162 46.3332 48.8734 46.0714C48.591 45.7582 48.4985 45.4869 48.4971 45.0623C48.4961 44.9929 48.4952 44.9235 48.4941 44.852C48.532 44.4898 48.7207 44.1929 48.9842 43.9453C49.3863 43.6221 50.0052 43.5972 50.4804 43.7627Z" fill="#033781"/>
<path d="M14.4192 30.9226C14.4795 30.9232 14.4795 30.9232 14.5411 30.9239C14.5824 30.9239 14.6237 30.9239 14.6662 30.924C14.7536 30.9241 14.8409 30.9246 14.9282 30.9253C15.0623 30.9264 15.1965 30.9265 15.3306 30.9265C15.4153 30.9268 15.5 30.9271 15.5848 30.9275C15.6453 30.9276 15.6453 30.9276 15.707 30.9277C15.9897 30.9306 15.9897 30.9306 16.0551 30.996C16.0606 31.0823 16.062 31.1689 16.0618 31.2554C16.0618 31.3106 16.0618 31.3657 16.0617 31.4225C16.0614 31.4824 16.0611 31.5424 16.0608 31.6041C16.0607 31.6652 16.0607 31.7262 16.0606 31.7891C16.0602 31.9849 16.0595 32.1808 16.0588 32.3766C16.0585 32.509 16.0582 32.6414 16.058 32.7738C16.0574 33.0992 16.0562 33.4245 16.0551 33.7499C15.3784 33.7499 14.7016 33.7499 14.0043 33.7499C14.0016 33.3682 13.9993 32.9865 13.9979 32.6048C13.9973 32.4748 13.9965 32.3449 13.9955 32.215C13.9941 32.0285 13.9934 31.8421 13.9929 31.6556C13.9923 31.5973 13.9917 31.5389 13.991 31.4788C13.991 31.4248 13.991 31.3709 13.991 31.3153C13.9908 31.2677 13.9905 31.2201 13.9902 31.171C14.022 30.9087 14.196 30.9237 14.4192 30.9226Z" fill="#D1450B"/>
<path d="M36.211 21.9727C36.4542 22.1926 36.597 22.407 36.7384 22.7014C36.7583 22.7422 36.7783 22.783 36.7989 22.825C37.4317 24.144 37.4317 24.144 37.3243 24.7852C37.2031 25.0515 37.0487 25.2528 36.8189 25.4333C36.4755 25.5287 36.1157 25.5631 35.7766 25.4347C35.5197 25.2856 35.3334 25.1202 35.2149 24.8438C35.0707 23.8779 35.5876 22.8351 36.1391 22.0612C36.1629 22.032 36.1866 22.0028 36.211 21.9727Z" fill="#FC7439"/>
<path d="M18.2811 33.75C18.6678 33.75 19.0545 33.75 19.4529 33.75C19.4569 34.2588 19.4601 34.7676 19.462 35.2765C19.463 35.5127 19.4642 35.749 19.4662 35.9852C19.4681 36.2132 19.4692 36.4411 19.4696 36.6691C19.4699 36.7561 19.4706 36.8431 19.4715 36.9302C19.4728 37.0519 19.473 37.1737 19.4729 37.2955C19.4733 37.3648 19.4737 37.4342 19.4741 37.5056C19.4529 37.6758 19.4529 37.6758 19.3748 37.7859C19.2209 37.8894 19.0828 37.877 18.9 37.8772C18.8336 37.8783 18.7672 37.8795 18.6988 37.8806C18.4738 37.845 18.4188 37.7958 18.2811 37.6172C18.2529 37.4422 18.2529 37.4422 18.2545 37.2356C18.2544 37.179 18.2544 37.179 18.2543 37.1212C18.2545 36.9969 18.2563 36.8726 18.2582 36.7484C18.2586 36.662 18.2589 36.5756 18.2592 36.4892C18.2601 36.2623 18.2624 36.0354 18.265 35.8084C18.2674 35.5767 18.2684 35.345 18.2696 35.1132C18.2721 34.6588 18.2762 34.2044 18.2811 33.75Z" fill="#C96911"/>
<path d="M29.4727 18.5743C29.6155 18.6585 29.6155 18.6585 29.707 18.8087C29.8034 19.2051 29.6464 19.5307 29.4587 19.875C29.1058 20.436 28.585 20.7075 27.9492 20.8595C27.3214 20.9325 26.6845 20.902 26.1328 20.5665C25.964 20.388 25.9037 20.3108 25.8691 20.0648C25.8984 19.8634 25.8984 19.8634 25.9863 19.7205C26.1931 19.5913 26.3681 19.5872 26.6016 19.629C26.699 19.6654 26.7955 19.7046 26.8909 19.7462C27.3255 19.9329 27.6748 19.8962 28.1168 19.7489C28.4296 19.5959 28.5761 19.4115 28.7183 19.098C28.9044 18.6909 28.9941 18.5155 29.4727 18.5743Z" fill="#00351B"/>
<path d="M33.2812 18.6915C33.5843 18.8852 33.6989 19.3003 33.8085 19.629C33.908 19.6936 33.908 19.6936 34.0429 19.7462C34.0997 19.7776 34.1565 19.809 34.215 19.8414C34.5586 19.9865 34.9964 19.9855 35.3516 19.8822C35.3899 19.8663 35.4281 19.8504 35.4675 19.8341C35.729 19.7277 35.8731 19.7136 36.1523 19.7462C36.2988 19.8341 36.2988 19.8341 36.3867 19.9806C36.4187 20.1435 36.4294 20.2883 36.3867 20.4493C36.2271 20.6487 36.073 20.7305 35.8337 20.8119C35.7522 20.8403 35.7522 20.8403 35.6691 20.8693C34.9588 21.0839 34.2558 21.0051 33.597 20.6629C33.0572 20.325 32.7601 19.8886 32.5781 19.2774C32.5558 18.9611 32.5558 18.9611 32.666 18.7867C32.872 18.6528 33.0421 18.6446 33.2812 18.6915Z" fill="#00351B"/>
<path d="M40.7227 45.4688C40.7656 45.485 40.8085 45.5012 40.8527 45.518C41.5414 45.7484 42.2288 45.7514 42.9492 45.7617C42.8331 46.0903 42.6492 46.2492 42.3486 46.4246C41.9583 46.5221 41.5926 46.5111 41.2397 46.3085C40.9881 46.1248 40.806 45.9411 40.7426 45.6313C40.736 45.5776 40.7294 45.524 40.7227 45.4688Z" fill="#063682"/>
<path d="M14.707 26.25C14.765 26.2693 14.823 26.2887 14.8828 26.3086C14.8307 26.3416 14.7786 26.3747 14.725 26.4087C14.546 26.5283 14.3965 26.6632 14.2441 26.8159C14.1901 26.8697 14.1362 26.9235 14.0806 26.9789C14.0226 27.0372 13.9648 27.0955 13.9069 27.1539C13.8465 27.2143 13.7861 27.2747 13.7257 27.3351C13.5994 27.4615 13.4734 27.588 13.3474 27.7147C13.187 27.8762 13.0262 28.0372 12.8652 28.1981C12.7405 28.3228 12.616 28.4477 12.4915 28.5726C12.4323 28.632 12.3731 28.6913 12.3138 28.7507C12.005 29.0599 11.7043 29.3701 11.4258 29.707C11.3678 29.6877 11.3098 29.6684 11.25 29.6484C11.6833 29.2138 12.1167 28.7794 12.5503 28.3451C12.7516 28.1435 12.9529 27.9418 13.1541 27.7399C13.3481 27.5453 13.5422 27.3508 13.7365 27.1564C13.8107 27.0821 13.8848 27.0077 13.9589 26.9333C14.0625 26.8294 14.1662 26.7256 14.27 26.6218C14.3008 26.5908 14.3316 26.5598 14.3633 26.5278C14.5765 26.3153 14.5765 26.3153 14.707 26.25Z" fill="#FD5E1A"/>
<path d="M38.2031 41.6602C38.534 41.6883 38.9547 41.7672 39.1992 42.0117C39.2043 42.1032 39.2055 42.195 39.2049 42.2866C39.2048 42.3419 39.2046 42.3973 39.2044 42.4543C39.2039 42.5125 39.2034 42.5707 39.2029 42.6306C39.2026 42.689 39.2024 42.7475 39.2021 42.8077C39.2014 42.9525 39.2004 43.0973 39.1992 43.2422C39.1799 43.2422 39.1605 43.2422 39.1406 43.2422C39.1406 42.8941 39.1406 42.5461 39.1406 42.1875C39.0826 42.1682 39.0246 42.1488 38.9648 42.1289C38.9648 42.0709 38.9648 42.0129 38.9648 41.9531C38.9197 41.9418 38.8745 41.9305 38.828 41.9188C38.7398 41.8959 38.7398 41.8959 38.6499 41.8726C38.5914 41.8576 38.533 41.8426 38.4727 41.8272C38.3203 41.7773 38.3203 41.7773 38.2031 41.6602Z" fill="#3AE2A7"/>
<path d="M40.7227 45.4688C40.8387 45.5074 40.9547 45.5461 41.0742 45.5859C41.0573 45.6379 41.0404 45.6899 41.0229 45.7434C41.0205 45.8075 41.0181 45.8715 41.0156 45.9375C41.1763 46.1031 41.1763 46.1031 41.3672 46.2305C41.4059 46.2691 41.4445 46.3078 41.4844 46.3477C41.1716 46.3104 41.0608 46.1802 40.8662 45.946C40.7602 45.7891 40.7274 45.6573 40.7227 45.4688Z" fill="#0C2A79"/>
<path d="M25.7812 29.5312C26.1486 29.5312 26.516 29.5312 26.8945 29.5312C26.8365 29.5603 26.8365 29.5603 26.7773 29.5898C26.7773 29.6285 26.7773 29.6672 26.7773 29.707C26.5646 29.707 26.352 29.707 26.1328 29.707C26.1328 29.6877 26.1328 29.6684 26.1328 29.6484C25.9588 29.6194 25.9588 29.6194 25.7812 29.5898C25.7812 29.5705 25.7812 29.5512 25.7812 29.5312Z" fill="#1EC671"/>
<path d="M39.7262 44.707C39.8229 44.7844 39.9196 44.8617 40.0192 44.9414C39.9716 45.0549 39.9716 45.0549 39.902 45.1758C39.844 45.1951 39.786 45.2145 39.7262 45.2344C39.6603 44.9048 39.6603 44.9048 39.7262 44.707Z" fill="#50DEA4"/>
<path d="M36.2109 21.9727C36.3076 22.0693 36.4043 22.166 36.5039 22.2656C36.4266 22.343 36.3492 22.4203 36.2695 22.5C36.2695 22.442 36.2695 22.384 36.2695 22.3242C36.1922 22.2855 36.1148 22.2469 36.0352 22.207C36.0932 22.1297 36.1512 22.0523 36.2109 21.9727Z" fill="#EC773D"/>
<path d="M39.375 44.1211C39.5284 44.2598 39.6286 44.408 39.7266 44.5898C39.7266 44.6285 39.7266 44.6672 39.7266 44.707C39.6299 44.707 39.5332 44.707 39.4336 44.707C39.4457 44.6756 39.4578 44.6442 39.4702 44.6118C39.4999 44.4239 39.4426 44.2961 39.375 44.1211Z" fill="#46E7AE"/>
<path d="M48.9258 44.0039C48.9258 44.1623 48.9238 44.2679 48.8672 44.4141C48.7463 44.4873 48.7463 44.4873 48.6328 44.5312C48.6664 44.3044 48.7785 44.1749 48.9258 44.0039Z" fill="#0A358C"/>
<path d="M44.4141 25.4297C44.4141 25.6156 44.3959 25.6863 44.2969 25.8398C44.1724 25.9131 44.1724 25.9131 44.0625 25.957C44.1394 25.7264 44.2335 25.5922 44.4141 25.4297Z" fill="#022170"/>
<path d="M35.4492 24.9023C35.5072 24.9217 35.5652 24.941 35.625 24.9609C35.6057 25.0383 35.5863 25.1156 35.5664 25.1953C35.6051 25.2146 35.6438 25.234 35.6836 25.2539C35.5078 25.2539 35.5078 25.2539 35.4089 25.1733C35.332 25.0781 35.332 25.0781 35.332 24.9609C35.3707 24.9416 35.4094 24.9223 35.4492 24.9023Z" fill="#EE7939"/>
<path d="M40.4883 23.6133C40.6415 23.7519 40.7455 23.8981 40.8398 24.082C40.8205 24.1207 40.8012 24.1594 40.7812 24.1992C40.7619 24.1412 40.7426 24.0832 40.7227 24.0234C40.6055 23.9526 40.6055 23.9526 40.4883 23.9062C40.4883 23.8096 40.4883 23.7129 40.4883 23.6133Z" fill="#0BBA51"/>
<path d="M22.207 43.8867C22.268 44.0848 22.2703 44.2663 22.2656 44.4727C22.2076 44.4533 22.1496 44.434 22.0898 44.4141C22.1183 44.2311 22.1484 44.0627 22.207 43.8867Z" fill="#63D598"/>
<path d="M26.9534 37.6758C26.9727 37.6758 26.992 37.6758 27.012 37.6758C27.0193 37.8735 27.0193 37.8735 27.012 38.0859C26.9733 38.1246 26.9346 38.1633 26.8948 38.2031C26.8362 38.1445 26.8362 38.1445 26.8252 37.9724C26.8362 37.793 26.8362 37.793 26.9534 37.6758Z" fill="#63DBA4"/>
</g>
<defs>
<clipPath id="clip0_262_2226">
<rect width="60" height="60" rx="8" fill="white"/>
</clipPath>
</defs>
</svg>
