<svg width="8" height="5" viewBox="0 0 8 5" fill="none" xmlns="http://www.w3.org/2000/svg">
<path d="M7.84659 4.83041C7.79813 4.88416 7.74055 4.92681 7.67715 4.95592C7.61375 4.98502 7.54577 5 7.47712 5C7.40847 5 7.3405 4.98502 7.2771 4.95592C7.2137 4.92681 7.15612 4.88416 7.10766 4.83041L4.00025 1.39534L0.891966 4.83041C0.793978 4.93873 0.661077 4.99958 0.522501 4.99958C0.383925 4.99958 0.251025 4.93873 0.153037 4.83041C0.0550492 4.72209 2.06494e-09 4.57518 0 4.42199C-2.06494e-09 4.2688 0.0550492 4.12189 0.153037 4.01357L3.63035 0.169589C3.67881 0.115835 3.73639 0.0731845 3.79979 0.0440825C3.86319 0.0149805 3.93116 0 3.99981 0C4.06846 0 4.13644 0.0149805 4.19984 0.0440825C4.26324 0.0731845 4.32082 0.115835 4.36928 0.169589L7.84659 4.01357C7.89521 4.06713 7.9338 4.13079 7.96012 4.20087C7.98645 4.27096 8 4.3461 8 4.42199C8 4.49788 7.98645 4.57302 7.96012 4.6431C7.9338 4.71319 7.89521 4.77684 7.84659 4.83041Z" fill="#7A7572"/>
</svg>
