<svg width="8" height="5" viewBox="0 0 8 5" fill="none" xmlns="http://www.w3.org/2000/svg">
<path d="M7.8461 0.986487L4.36901 4.83041C4.32055 4.88417 4.26297 4.92682 4.19958 4.95592C4.13618 4.98502 4.06821 5 3.99956 5C3.93092 5 3.86295 4.98502 3.79955 4.95592C3.73616 4.92682 3.67858 4.88417 3.63012 4.83041L0.153028 0.986487C0.0550458 0.878168 -1.46004e-09 0.731256 0 0.578069C1.46005e-09 0.424883 0.0550458 0.277971 0.153028 0.169652C0.25101 0.0613334 0.383902 0.000480595 0.522469 0.000480593C0.661037 0.000480592 0.793929 0.0613334 0.891911 0.169652L4 3.60564L7.10809 0.169172C7.20607 0.0608532 7.33896 0 7.47753 0C7.6161 0 7.74899 0.0608532 7.84697 0.169172C7.94495 0.277491 8 0.424403 8 0.577589C8 0.730775 7.94495 0.877687 7.84697 0.986006L7.8461 0.986487Z" fill="#7A7572"/>
</svg>
