<?xml version="1.0" encoding="UTF-8"?>
<svg id="Calque_1" xmlns="http://www.w3.org/2000/svg" xmlns:xlink="http://www.w3.org/1999/xlink" version="1.1" viewBox="0 0 338 255">
  <!-- Generator: Adobe Illustrator 30.0.0, SVG Export Plug-In . SVG Version: 2.1.1 Build 123)  -->
  <defs>
    <style>
      .st0 {
        fill: none;
      }

      .st1 {
        fill: #ebd1af;
      }

      .st2 {
        fill: #ead1ae;
      }

      .st3 {
        fill: #012030;
      }

      .st4 {
        fill: #996cff;
      }

      .st4, .st5 {
        fill-opacity: .4;
      }

      .st6 {
        fill: #8080fe;
      }

      .st7 {
        fill: #fe8048;
      }

      .st8 {
        fill: #1d252b;
      }

      .st9 {
        fill: #fd8047;
      }

      .st10 {
        fill: #03171f;
      }

      .st11 {
        fill: #8273e1;
      }

      .st12 {
        fill: #ef7037;
      }

      .st13 {
        fill: #f66b26;
      }

      .st14 {
        fill: #f96d2b;
      }

      .st15 {
        fill: #6021f0;
      }

      .st16 {
        fill: #012132;
      }

      .st17 {
        fill: #e5eaef;
      }

      .st18 {
        fill: #eae0ff;
      }

      .st19 {
        fill: #01161a;
      }

      .st20 {
        fill: #7780fa;
      }

      .st21 {
        fill: #f0652c;
      }

      .st22 {
        fill: #141c21;
      }

      .st23 {
        fill: #9895fa;
      }

      .st24 {
        fill: #252d35;
      }

      .st25 {
        fill: #7980f2;
      }

      .st26 {
        fill: #7e7ffe;
      }

      .st27 {
        fill: #fb773e;
      }

      .st5 {
        fill: #7645e6;
      }

      .st28 {
        fill: #7980f4;
      }

      .st29 {
        fill: #002232;
      }

      .st30 {
        fill: #022031;
      }

      .st31 {
        fill: #f6ddbe;
      }

      .st32 {
        fill: #444954;
      }

      .st33 {
        fill: #ebd1ae;
      }

      .st34 {
        fill: #1c2226;
      }

      .st35 {
        fill: #7480f8;
      }

      .st36 {
        fill: #7e7efe;
      }

      .st37 {
        fill: #f8752a;
      }

      .st38 {
        fill: #112736;
      }

      .st39 {
        fill: #8e61f5;
      }

      .st40 {
        fill: #fbfcfd;
      }

      .st41 {
        fill: #242c34;
      }

      .st42 {
        fill: #f6ddbd;
      }

      .st43 {
        fill: #151d21;
      }

      .st44 {
        fill: #875aef;
      }

      .st45 {
        clip-path: url(#clippath);
      }

      .st46 {
        fill: #f66d26;
      }
    </style>
    <clipPath id="clippath">
      <rect class="st0" y="0" width="338" height="255" rx="20" ry="20"/>
    </clipPath>
  </defs>
  <g class="st45">
    <g>
      <rect class="st44" y="0" width="338" height="255" rx="20" ry="20"/>
      <path class="st5" d="M177.3,50.5c2.8-3.1,7.3-4.1,11.1-2.4l61.8,27.5c3.8,1.7,6.1,5.7,5.7,9.8l-7.1,67.3c-.4,4.2-3.5,7.6-7.6,8.4l-66.2,14.1c-4.1.9-8.3-1-10.4-4.6l-33.8-58.6c-2.1-3.6-1.6-8.2,1.2-11.3l45.3-50.3Z"/>
      <path class="st5" d="M266.3,78.1c.5-4.2,3.6-7.5,7.7-8.4l66.3-13.4c4.1-.8,8.3,1.1,10.3,4.7l33.2,59c2.1,3.7,1.5,8.2-1.3,11.3l-45.8,49.8c-2.8,3.1-7.3,4-11.1,2.2l-61.5-28.2c-3.8-1.7-6.1-5.7-5.6-9.9l7.8-67.2Z"/>
      <path class="st39" d="M202.3,231.3c-2.3-3.5-2.2-8.1.4-11.4l41.6-53.4c2.6-3.3,7-4.6,10.9-3.1l63.6,23.1c3.9,1.4,6.5,5.2,6.4,9.4l-2.3,67.6c-.1,4.2-3,7.8-7,9l-65,18.7c-4,1.2-8.3-.4-10.7-3.9l-37.9-56.1Z"/>
      <path class="st39" d="M6-30.4c.3-4.2,3.2-7.7,7.3-8.7l65.6-16.7c4.1-1,8.3.7,10.6,4.2L125.6,5.5c2.2,3.5,1.9,8.1-.7,11.3l-43.2,52.1c-2.7,3.2-7.1,4.4-11,2.8L7.7,46.7c-3.9-1.5-6.3-5.4-6.1-9.6L6-30.4Z"/>
      <path class="st4" d="M198.7-36.6c.5-4.2,3.6-7.6,7.7-8.4l66.3-13.7c4.1-.8,8.3,1,10.4,4.7l33.5,58.8c2.1,3.6,1.6,8.2-1.3,11.3l-45.6,50c-2.8,3.1-7.3,4-11.1,2.3l-61.7-27.9c-3.8-1.7-6.1-5.7-5.6-9.9l7.5-67.3Z"/>
      <path class="st5" d="M27.4,69.9c2.9-3.1,7.4-3.9,11.2-2.1l74.8,35.1c3.8,1.8,6,5.8,5.5,10l-10.3,82c-.5,4.2-3.7,7.5-7.8,8.3l-81.2,15.6c-4.1.8-8.3-1.2-10.3-4.8l-39.9-72.4c-2-3.7-1.5-8.2,1.4-11.3l56.5-60.3Z"/>
      <path class="st44" d="M186.1,23.3q.2,0,.3,0c1.7,0,3.3,0,4.9.5q.2,0,.3,0c3.4.8,6.5,2.5,9.1,4.9,0,0,.1.1.2.2,3.3,3,5.3,7.2,6,11.6,0,.4,0,.7,0,1.1,0,0,0,.2,0,.3,0,.3,0,.6,0,1v.3q0,4.5-.8,5.8c-.1,0-.3,0-.4.1.5.6,1.1,1.3,1.7,1.8.5.5,1,1,1.4,1.6.3.3.6.6.8.9.4.4.7.8,1.1,1.2.5.6,1,1.1,1.5,1.6.4.4.7.8,1.1,1.2.2.3.5.5.8.8.3.3.7.7,1,1.1.4.5.9,1,1.4,1.4.6.5,1.1,1.1,1.6,1.7.4.5.9.9,1.4,1.4.4.4.8.8,1.1,1.3.3.3.6.6.8.9.5.5.9,1,1.4,1.5.2.2.3.4.5.6.9.9,1.4,1.8,1.4,3.1,0,1.3-.5,2.4-1,3.5-.1.3-.2.5-.3.8-.2.6-.5,1.2-.7,1.8-.5,1.3-1.1,2.7-1.6,4q0,.2-.2.4c-.2.5-.4,1.1-.6,1.6-.3.9-.7,1.8-1,2.7-1.4,3.5-2.7,6.9-4,10.4-.4,1.1-.8,2.2-1.3,3.3-.1.3-.2.6-.4.9-.2.5-.4.9-.5,1.4-.6,1.6-1.2,3.2-1.8,4.7-.1.3-.2.5-.3.8-.2.5-.4,1-.6,1.5q-1.6,4.1-3.5,5c-.7.3-1.2.4-1.9.4h-.4c-.2,0-.3,0-.5,0-.2,0-.3,0-.5,0-2.1,0-4.2,0-6.2-.1h-1.2c-2.1,0-4.3-.2-6.4-.2-3.6-.1-7.2-.3-10.8-.3-.2,0-.4,0-.5,0-1.6,0-3.2,0-4.8-.1-2.3,0-4.5-.1-6.8-.2-.3,0-.7,0-1,0-1,0-1.9,0-2.9,0-.3,0-.6,0-.9,0-1.9,0-3.6-.1-5-1.6-1.1-1.3-1.6-3.2-2.2-4.8,0-.2-.2-.5-.3-.7-.5-1.3-.9-2.7-1.4-4.1-.3-1-.7-2.1-1.1-3.1-.9-2.5-1.8-5.1-2.6-7.6,0-.1,0-.2-.1-.3-.2-.5-.3-1-.5-1.5,0-.2-.1-.3-.2-.5,0-.2-.1-.3-.2-.5-.2-.5-.4-.9-.6-1.3q-.2.2-.4.4c-.6.5-1.2.6-2,.6-.1,0-.2,0-.3,0-.4,0-.7,0-1.1,0-.1,0-.3,0-.4,0-3.4.3-6.9.4-10.3.6-.8,0-1.7,0-2.5.1-1.5,0-3,.1-4.5.2-1,0-1.9,0-2.9.1-.6,0-1.2,0-1.9,0-.3,0-.6,0-.9,0q-4.8.2-5.7-.5c-.6-.8-.8-1.3-.8-2.3,0,0,0-.2,0-.3,0-.3,0-.6,0-1,0-.2,0-.5,0-.7,0-.7,0-1.5,0-2.2,0-.1,0-.2,0-.4q-.2-6.1-.3-8.7c0-.2,0-.5,0-.7,0-.3,0-.7,0-1,0-.2,0-.4,0-.5.1-.8.5-1.2,1.1-1.7.6-.3,1.2-.4,1.8-.4.1,0,.2,0,.4,0,.9,0,1.8-.1,2.7,0q0-.2,0-.4-.4-5.4.7-6.6c1.3-1.3,2.7-1.3,4.5-1.3,0-.2,0-.3,0-.5.2-1.1.8-1.7,1.6-2.4.8-.6,1.5-.7,2.5-.8.1,0,.3,0,.4,0,.4,0,.8,0,1.3,0,.1,0,.3,0,.4,0,1.9-.1,3.8-.2,5.6-.2.2,0,.4,0,.5,0,1.2,0,2.2.2,3.2,1.1.8.9,1.2,1.9,1.3,3,0,1.2-.5,2.2-1.2,3-1.2,1.1-2.7,1.2-4.2,1.3-.1,0-.2,0-.4,0-2.2.1-4.4.2-6.6.3-.2,0-.3,0-.5,0-1.2,0-1.9-.2-2.8-1q-.3-.4-.5-.7t-.7-.3-.5,0c-.2,0-.4,0-.5,0-.6,0-1.1.2-1.6.7,0,.4,0,.7,0,1.1v.3c0,.4,0,.7,0,1.1,0,.2,0,.5,0,.7,0,.6,0,1.2,0,1.8.1,0,.2,0,.4,0,3.8-.2,7.5-.4,11.3-.5.4,0,.8,0,1.2,0,.6,0,1.3,0,1.9,0,.2,0,.5,0,.7,0,1.5,0,3,0,4.5,0,0,0,0-.2,0-.3.3-1.6,1.5-2.7,2.7-3.7.6-.6,1.2-1.2,1.8-1.8.4-.4.8-.8,1.3-1.2.7-.6,1.3-1.2,1.9-1.8.7-.7,1.4-1.4,2.1-2,.5-.5,1-.9,1.6-1.4.1,0,.2-.2.3-.3.6-.6,1.2-1.2,1.8-1.8.3-.3.6-.5.9-.8.4-.4.9-.8,1.3-1.2.4-.4.8-.8,1.2-1.2.6-.5,1.2-1.1,1.7-1.6.4-.4.8-.8,1.3-1.1.3-.3.6-.5.8-.8.6-.6,1.2-1.1,1.8-1.6.6-.5,1.1-1,1.6-1.5-.7-.1-1.4-.2-2.1-.3-.1,0-.2,0-.3,0-1.6-.2-3.1-.4-4.7-.7-.2,0-.3,0-.5,0q-1-.1-2-.3c-.5,0-1-.1-1.4-.2-.1,0-.3,0-.4,0q-2.8-.4-3.8-1.5c-.6-.9-.9-1.7-.8-2.8.4-1.2,1-1.8,2.1-2.4,1.8-.9,4.9.2,6.7.6.4,0,.7.1,1.1.2.5.1,1,.2,1.6.3,1.2.3,2.4.5,3.6.7.5,0,.9.2,1.4.3,0,0,0-.2,0-.3,1.1-4.6,4.5-8.7,8.6-11.2,3.3-1.9,6.8-2.9,10.7-2.9Z"/>
      <path class="st18" d="M169.7,31.2c0,.5-.1.7-.4,1.1-1.1,1.7-1.9,3.5-2.5,5.4-1.4-.2-2.7-.4-4.1-.7-.2,0-.4,0-.6-.1-.4,0-.8-.2-1.2-.2-.5-.1-1.1-.2-1.6-.3-.4,0-.8-.2-1.2-.2-.3,0-.6-.1-.9-.2-.2,0-.4,0-.5-.1-.2,0-.3,0-.5,0-.2,0-.5-.1-.7-.2-1.1-.3-2.5-.3-3.5.3-.8.6-1.3,1.4-1.4,2.3,0,1,.3,1.7.8,2.5.9.9,1.9,1.1,3.1,1.2.1,0,.3,0,.4,0,.5,0,.9.1,1.4.2.3,0,.6,0,1,.1.7,0,1.3.2,2,.3,1,.1,1.9.3,2.9.4,1.5.2,3,.4,4.6.6-.1.2-.3.3-.4.5,0,0-.2.2-.2.3-.3.4-.7.7-1.1,1.1,0,0-.2.1-.2.2-.4.4-.9.8-1.3,1.1-.5.4-1,.9-1.4,1.4-.3.3-.6.5-.9.8-.5.4-.9.8-1.3,1.3-.5.5-1.1,1-1.6,1.5-.3.3-.6.6-1,.9-.4.4-.8.8-1.2,1.2-.6.5-1.2,1.1-1.8,1.7-.4.4-.9.8-1.3,1.2-.5.5-1,.9-1.5,1.4-.1.1-.2.2-.3.3-.8.8-1.6,1.5-2.4,2.3-.5.5-1,1-1.6,1.4-.5.5-1,1-1.5,1.5-.4.4-.9.9-1.4,1.3-1,.8-1.5,1.7-1.9,3-1.9.1-3.8.2-5.7.3-.3,0-.7,0-1,0-.7,0-1.4,0-2.1,0-.9,0-1.8,0-2.7.1-.7,0-1.4,0-2.1,0-.3,0-.7,0-1,0-1.8,0-3.6.1-5.4.1-.2-1-.2-2-.2-3q0-.3,0-.6c0-.2,0-.4,0-.5q0-.2,0-.5t.4-.8c.9-.6,1.9-.5,2.9-.4.3.2.4.4.6.8.4.6,1.1.9,1.8,1.2.5,0,1.1,0,1.6,0,.2,0,.3,0,.5,0,1.6,0,3.3,0,4.9-.2.1,0,.3,0,.4,0q2.9,0,5.4-1.3c.9-1.2,1.2-2.3,1-3.8-.3-1-.9-2-1.7-2.5-1-.5-1.9-.5-3-.5q-.3,0-.6,0c-1.7,0-3.4.1-5,.2-.3,0-.6,0-.9,0-.4,0-.8,0-1.2,0-.1,0-.2,0-.4,0-1.1,0-2,.5-2.8,1.3-.5.6-.7,1.4-1,2.2-.2,0-.3,0-.5,0-1.6.2-3,.4-4.1,1.6-.8,1.3-.7,2.8-.6,4.2,0,.2,0,.5,0,.7,0,.6,0,1.2,0,1.8q-.2,0-.4,0c-.5,0-1,0-1.4.1-.2,0-.4,0-.6,0-.3,0-.6,0-.9,0q-.3,0-.5,0c-.7.2-1.2.5-1.7,1-.2.6-.2,1.1-.2,1.7,0,.1,0,.3,0,.4,0,.3,0,.5,0,.8,0,.4,0,.8,0,1.2,0,1.3,0,2.7.1,4,0,1,0,2.1.1,3.1,0,.5,0,1.1,0,1.6,0,.4,0,.7,0,1.1,0,.5,0,1.1,0,1.6,0,.2,0,.3,0,.5,0,.9.1,1.7.7,2.5,1.4,1.2,4.2.6,5.9.5.3,0,.5,0,.8,0,.7,0,1.5,0,2.2,0,.5,0,.9,0,1.4,0,1.7,0,3.3-.1,5-.2.8,0,1.6,0,2.3-.1q5.6-.2,11.1-.6c.3,0,.5,0,.8,0,.3,0,.7,0,1,0q.3,0,.6,0c.8-.1,1.4-.5,2-1,.7,1.9,1.4,3.9,2.1,5.9,0,.1,0,.3.1.4.7,1.9,1.3,3.9,2,5.8.4,1.1.7,2.2,1.1,3.2.3.9.6,1.8,1,2.8.4,1.2.8,2.4,1.2,3.6,0,.1,0,.3.1.4.5,1.4,1.2,2.6,2.5,3.3.8.3,1.5.5,2.4.5.1,0,.2,0,.4,0,.4,0,.8,0,1.2,0,.3,0,.6,0,.9,0,3.3.1,6.6.2,10,.3.5,0,.9,0,1.4,0,.3,0,.6,0,1,0,.2,0,.4,0,.6,0,.2,0,.3,0,.5,0,.9,0,1.9.1,2.8.2v17.8q-2.2,0-3.3-.1c-.1,0-.2,0-.4,0-.4,0-.8,0-1.2-.1-.1,0-.3,0-.4,0-10.2-1-20.4-4.1-29.4-9.1-.1,0-.2-.1-.4-.2-3.1-1.7-6.1-3.6-8.9-5.7-.2-.1-.3-.2-.5-.4-1.9-1.4-3.7-2.8-5.4-4.4,0,0-.1-.1-.2-.2-1.2-1-2.3-2.1-3.4-3.2q-.1-.1-.2-.2c-.8-.8-1.6-1.7-2.4-2.6-.1-.2-.3-.3-.4-.5-1-1.2-1.9-2.3-2.8-3.5,0,0-.1-.2-.2-.3-1.4-1.8-2.6-3.8-3.8-5.8,0-.1-.1-.2-.2-.3-2.4-4.2-4.4-8.7-5.7-13.4,0-.1,0-.3-.1-.4-2.9-10.6-2.6-22.3,2.8-32.1.6-1.1,1.3-2.1,2-3q.2-.2.3-.5c1-1.3,2.1-2.5,3.2-3.7.1-.1.2-.3.4-.4.8-.8,1.7-1.6,2.6-2.3q.2-.2.4-.3c1.6-1.3,3.4-2.3,5.2-3.4q.2,0,.3-.2c4.1-2.4,9-3.8,13.7-4.7.1,0,.3,0,.4,0,9.2-1.8,19-1.3,28.2.8Z"/>
      <path class="st24" d="M136.9,56.3q.3,0,.5,0c1.2,0,2.2.2,3.2,1.1.8.9,1.2,1.9,1.3,3,0,1.2-.5,2.2-1.2,3-1.2,1.1-2.7,1.2-4.2,1.3-.1,0-.2,0-.4,0-2.2.1-4.4.2-6.6.3q-.2,0-.5,0c-1.2,0-1.9-.2-2.8-1q-.3-.4-.5-.7t-.7-.3-.5,0c-.2,0-.4,0-.5,0-.6,0-1.1.2-1.6.7,0,.4,0,.7,0,1.1v.3c0,.4,0,.7,0,1.1,0,.2,0,.5,0,.7,0,.6,0,1.2,0,1.8q.2,0,.4,0c6.9-.4,13.8-.7,20.7-.8.2,0,.5,0,.7,0,.3,0,.7,0,1,0,.2,0,.3,0,.5,0,.7.1,1.2.5,1.7,1,.5.7.4,1.2.4,2,.1,0,.2,0,.3-.1.5-.2,1-.3,1.5-.5q.3,0,.5-.2c1.3-.4,2.5-.7,3.8-.3.7.5,1.3,1.1,1.6,1.9,0,.2,0,.5,0,.7,0,.1,0,.3,0,.4,0,.2,0,.3,0,.5,0,.2,0,.3,0,.5,0,.3,0,.7,0,1,0,.5,0,1,0,1.5.1,1.7.2,3.4.2,5.2q0,.2,0,.5c0,1,0,1.7-.7,2.4-1,.8-1.7,1-3,.9-.7-.1-1.3-.3-1.9-.4-.2,0-.3,0-.5-.1-.4-.1-.8-.2-1.2-.3,0,.1,0,.2,0,.4,0,.2,0,.3,0,.5,0,.2,0,.3,0,.5,0,.7-.2,1.1-.7,1.5-.7.6-1.3.7-2.2.8-.1,0-.2,0-.3,0-.4,0-.7,0-1.1,0-.1,0-.3,0-.4,0-3.4.3-6.9.4-10.3.6-.8,0-1.7,0-2.5.1-1.5,0-3,.1-4.5.2-1,0-1.9,0-2.9.1-.6,0-1.2,0-1.9,0-.3,0-.6,0-.9,0q-4.8.2-5.7-.5c-.6-.8-.8-1.3-.8-2.3,0,0,0-.2,0-.3,0-.3,0-.6,0-1,0-.2,0-.5,0-.7,0-.7,0-1.5,0-2.2,0-.1,0-.2,0-.4q-.2-6.1-.3-8.7c0-.2,0-.5,0-.7,0-.3,0-.7,0-1,0-.2,0-.4,0-.5.1-.8.5-1.2,1.1-1.7.6-.3,1.2-.4,1.8-.4.1,0,.2,0,.4,0,.9,0,1.8-.1,2.7,0q0-.2,0-.4-.4-5.4.7-6.6c1.3-1.3,2.7-1.3,4.5-1.3q0-.2,0-.5c.2-1.1.8-1.7,1.6-2.4.8-.6,1.5-.7,2.5-.8q.2,0,.4,0c.4,0,.8,0,1.3,0,.1,0,.3,0,.4,0,1.9-.1,3.8-.2,5.6-.2Z"/>
      <path class="st18" d="M224.7,70.9c.8.7,1.1,1.5,1.5,2.4q.1.2.2.5c2.3,5.4,3.6,11.3,3.6,17.2v.3c0,3.3-.4,6.6-1.2,9.8,0,.1,0,.2,0,.4-1,3.9-2.9,7.7-5.2,11-.1.2-.2.3-.3.5-.6.9-1.3,1.7-2,2.4-.3.3-.5.6-.8.9-1.5,1.7-3.1,3.2-4.8,4.5-.1,0-.2.2-.3.2-5.5,4.1-11.8,7-18.4,8.8-.1,0-.2,0-.3,0-2.2.6-4.6,1.1-6.9,1.1-.8-4-1.6-7.9-2.4-11.9,0-.3-.1-.7-.2-1q0-.2,0-.5c-.2-1-.4-2-.6-3q0-.4,0-1c.6,0,1.2,0,1.7,0,.2,0,.5,0,.7,0,1.7,0,3.5,0,5.2.1.7,0,1.4,0,2,0,.6,0,1.1,0,1.7,0,1.3,0,2.5,0,3.8.1.4,0,.8,0,1.2,0,.5,0,1,0,1.6,0,.2,0,.3,0,.5,0,1.4,0,2.7-.4,3.8-1.3,1.1-1.1,1.5-2.6,2-4,.2-.7.5-1.3.7-2,0-.1.1-.3.2-.4.6-1.6,1.2-3.1,1.8-4.7.1-.3.2-.6.3-.9.2-.6.4-1.1.7-1.7.5-1.3,1-2.5,1.5-3.8,0-.1,0-.2.1-.4.8-2.1,1.6-4.2,2.4-6.2.9-2.4,1.9-4.8,2.8-7.2,0-.1.1-.3.2-.4.6-1.4,1.1-2.9,1.7-4.3,0-.1,0-.2.1-.3.2-.5.4-1,.6-1.6q.7-1.7,1.1-3.6c0-.2,0-.4,0-.6Z"/>
      <path class="st7" d="M186.1,23.3c.1,0,.2,0,.3,0,1.7,0,3.3,0,4.9.5.1,0,.2,0,.3,0,3.4.8,6.5,2.5,9.1,4.9q.1.1.2.2c3.3,3,5.3,7.2,6,11.6,0,.4,0,.7,0,1.1,0,0,0,.2,0,.3,0,.3,0,.6,0,1v.3q0,5-.9,5.9c-1,0-1.9,0-2.8-.3-1.3-.2-2.6-.4-3.8-.6-1.6-.2-3.2-.5-4.9-.7-.6,0-1.2-.2-1.8-.3-.1,0-.3,0-.4,0-1.1-.2-2.1-.3-3.2-.5-.9-.1-1.7-.2-2.6-.4-5-.7-9.9-1.4-14.9-2.1-.2,0-.3,0-.5,0-3-.4-5.9-.8-8.9-1.2-.5,0-.9-.1-1.4-.2-.1,0-.2,0-.3,0-.2,0-.4,0-.7,0-.6,0-1.2-.2-1.8-.3-.5,0-.9-.1-1.4-.2-.2,0-.3,0-.5,0-.4,0-.9-.1-1.3-.2q-.3,0-.5,0c-.2,0-.3,0-.5,0-.2,0-.3,0-.5,0-1.1-.2-1.8-.8-2.5-1.7-.4-.7-.6-1.5-.5-2.4.4-1.2,1-1.8,2.1-2.4,1.8-.9,4.9.2,6.7.6.4,0,.7.1,1.1.2.5.1,1,.2,1.6.3,1.2.3,2.4.5,3.6.7.5,0,.9.2,1.4.3,0,0,0-.2,0-.3,1.1-4.6,4.5-8.7,8.6-11.2,3.3-1.9,6.8-2.9,10.7-2.9Z"/>
      <path class="st31" d="M148.1,86.9c.4.4.4.6.6,1.1,0,.2.1.3.2.5q0,.3.2.6c.1.4.3.8.4,1.2q0,.2.1.3c.3,1,.7,1.9,1,2.9.6,1.7,1.2,3.4,1.8,5.2.4,1.1.7,2.2,1.1,3.3.4,1.1.8,2.2,1.2,3.3,0,.2.1.3.2.5,0,.1,0,.3.1.4,0,.1,0,.3.1.4,0,.4,0,.6-.2.9q-.2.2-.5.4c-.1,0-.2.2-.3.2-.1,0-.2.2-.3.2-.2.2-.5.3-.7.5-.1,0-.2.2-.3.3-.5.4-.9.7-1.4,1.1,0,0-.2.1-.3.2-.2.1-.3.3-.5.4-.7.5-1.3,1.1-2,1.6-.3.2-.6.5-1,.8-2.5,1.9-4.4,3.3-7.6,3-.5,0-.9-.2-1.3-.4q-.1,0-.3-.1c-2.3-1-3.2-3.3-4.2-5.4-.2-.4-.4-.8-.6-1.1-.5-1.1-1.1-2.1-1.6-3.2-.3-.7-.6-1.3-1-2-.1-.3-.2-.5-.4-.8-.2-.3-.3-.7-.5-1,0-.1,0-.2-.2-.3-.4-.9-1-1.2-1.9-1.5-1.7-.7-2.8-1.9-3.6-3.5-.4-1-.5-1.9-.5-3,0-.1,0-.3,0-.4,0-1.3.3-2.4,1.1-3.4,0,0,.2-.2.2-.3q.2-.2.3-.4c-.2,0-.4-.2-.6-.3q.3,0,.6,0c1.8,0,3.5-.2,5.3-.2.9,0,1.8,0,2.7-.1q5.1-.2,10.2-.5c.3,0,.5,0,.8,0,.3,0,.7,0,1,0,.2,0,.4,0,.6,0,.7-.1,1.3-.4,1.8-1Z"/>
      <path class="st27" d="M159.1,36.1c.4,0,.7.2,1.1.2.7.1,1.4.3,2.2.4,1.1.2,2.1.4,3.2.6q9.9,1.9,14.2,2.9c0,0,.2,0,.3,0q5.3,1.2,7.2,3.2v.3h.3q.2.3.4.7c0,.1.2.3.2.4,0,.1.1.3.2.4,0,.1.1.2.2.3q.1.3.1.9c0,0,.2,0,.3.1-1.6,0-3.1-.3-4.6-.5-.2,0-.5,0-.7-.1-.5,0-1.1-.2-1.6-.2-1.4-.2-2.8-.4-4.2-.6-.1,0-.3,0-.4,0-2.7-.4-5.3-.7-8-1.1-.2,0-.4,0-.6,0-.8-.1-1.6-.2-2.4-.3-2.2-.3-4.4-.6-6.5-.9-.4,0-.9-.1-1.3-.2-.6,0-1.2-.2-1.8-.2q-.3,0-.5,0c-.5,0-1-.1-1.4-.2-.2,0-.3,0-.5,0q-.3,0-.5,0t-.5,0c-1.1-.2-1.8-.8-2.5-1.7-.4-.7-.6-1.5-.5-2.4.4-1.2,1-1.8,2.1-2.4,1.8-.9,4.8.2,6.6.6Z"/>
      <path class="st41" d="M153.9,69.8c.7.5,1.3,1.1,1.6,1.9,0,.2,0,.5,0,.7,0,.1,0,.3,0,.4,0,.2,0,.3,0,.5,0,.2,0,.3,0,.5,0,.3,0,.7,0,1,0,.5,0,1,0,1.5.1,1.7.2,3.4.2,5.2,0,.2,0,.3,0,.5,0,1,0,1.7-.7,2.4-1,.8-1.7,1-3,.9-.7-.1-1.3-.3-1.9-.4-.2,0-.3,0-.5-.1-.4-.1-.8-.2-1.2-.3v.7h-.1v-.9c-.2,0-.4,0-.6,0-.7,0-1.4-.2-2.2-.4-.1,0-.2,0-.4,0-1.4-.4-2.4-.8-3.1-2.1-.4-1.1-.3-2.5-.4-3.7,0-.3,0-.5,0-.8q-.1-2.9.8-3.9c0,0,.1-.2.2-.2.7-.7,1.6-1,2.5-1.3.4-.1.8-.3,1.2-.4.8-.3,1.5-.5,2.3-.8.3,0,.5-.2.8-.3,1.5-.5,2.9-.9,4.4-.5Z"/>
      <path class="st42" d="M169.7,113.2c1.8,0,3.6,0,5.4,0q.3,0,.5,0c1.3,0,2.5.1,3.8.2v17.8c-1.2,0-2.3,0-3.4-.1-.1,0-.3,0-.4,0-.3,0-.5,0-.8,0-.4,0-.8,0-1.2-.1-.3,0-.5,0-.8,0q-.2,0-.4,0c-.9,0-1.7-.2-2.5-.4,0-1.6,0-3.2,0-4.8,0-.7,0-1.5,0-2.2,0-3.4,0-6.8,0-10.2Z"/>
      <path class="st42" d="M186.3,113.6c3.3,0,6.6.2,9.9.3.7,3.2,1.4,6.5,2,9.7,0,.3.1.6.2,1,0,.5.2.9.3,1.4,0,.1,0,.3,0,.4.2.9.3,1.7.4,2.6-2.1.7-4.2,1.2-6.5,1.6,0,0-.2,0-.3,0-.9.1-1.8.3-2.7.3-.8-4-1.6-7.9-2.4-11.9,0-.3-.1-.7-.2-1q0-.2,0-.5c-.2-1-.4-2-.6-3q0-.4,0-1Z"/>
      <path class="st18" d="M148.1,86.9c.4.4.4.6.6,1.1,0,.2.1.3.2.5,0,.2.1.4.2.6.1.4.3.8.4,1.2,0,.1,0,.2.1.3.2.7.5,1.5.8,2.2,0,.1,0,.2.1.3.1.4.3.8.4,1.2.1.3.2.6.3.8q0,.2.2.5c.2.5.2,1,.3,1.5-.1,0-.2.2-.3.3-1,.8-2,1.5-3,2.3-.9.7-1.8,1.4-2.6,2.1-.5.4-.9.7-1.4,1.1,0,0-.2.1-.3.2-.4.3-.7.6-1.1.9q-.3.2-.9.2c-.3-.7-.7-1.3-1-2-.1-.2-.2-.4-.3-.7-1.2-2.4-1.7-4.3-1.8-6.9,0-1.8-.2-3.4-1.3-5q-.1-.2-.1-.5h-.3q-.2-.3-.4-.6c.6-.2,1.1-.2,1.7-.2.2,0,.5,0,.7,0,.1,0,.2,0,.4,0,.6,0,1.3,0,1.9,0,.1,0,.3,0,.4,0,1.1,0,2.2-.1,3.3-.2.2,0,.3,0,.5,0,.9,0,1.6-.2,2.3-.8q0,0,.2-.2Z"/>
      <path class="st29" d="M191.3,82.8c.6.3,1,.8,1.2,1.5.4,2.1-.4,4.6-1.6,6.4-.4.5-.8,1-1.3,1.5,0,0-.2.2-.3.3-1.3,1.3-3.4,1.9-5.2,2.2q-.2,0-.5,0c-2.7.4-5.2-.4-7.4-2-.2-.1-.4-.3-.5-.5q-.2-.2-.4-.3c-.9-.8-1.5-1.7-2-2.8q0-.1-.2-.3c-.2-.5-.2-1.1-.1-1.6.3-.6.7-1.1,1.3-1.5.9-.2,1.5-.1,2.4.1,3,.8,6.5.3,9.2-1.2.6-.4,1.2-.8,1.8-1.2.3-.2.5-.3.8-.5q.1-.1.3-.2c.8-.5,1.6-.4,2.4,0Z"/>
      <path class="st18" d="M179.5,113.5c2.3,0,4.5,0,6.8.1q1.5,7.3,2.3,11c0,.3.1.5.2.8.4,1.9.8,3.8,1.1,5.7-3.5.3-6.8.3-10.3.3v-17.8Z"/>
      <path class="st43" d="M142.9,67.9c.3,0,.5,0,.8,0,.4,0,.8,0,1.1,0,.1,0,.2,0,.3,0,.8,0,1.2.2,1.8.7.6.6.8,1,.7,1.9,0,.1,0,.2,0,.4,0,0,0,.2,0,.3-.1,0-.2,0-.3.1-.5.2-1,.3-1.6.5-.2,0-.4.1-.5.2-1.3.4-2.3.9-3.1,2-.6,1.1-.3,2.5-.3,3.7,0,.3,0,.5,0,.8,0,.3,0,.5,0,.8,0,.1,0,.2,0,.4,0,1.1.2,2.2,1,3.1,1.6,1.1,3.6,1.4,5.5,1.8q.3,2.1-.3,2.8c-.8.8-1.4.9-2.5,1q-.2,0-.4,0c-.4,0-.8,0-1.2,0-.1,0-.3,0-.4,0-2.5.2-5,.2-7.5.2h0c0-.1.2-.1.3-.1.4,0,.7,0,1.1-.2.6-.8.7-1.7.6-2.6,0-.1,0-.2,0-.4,0-.4,0-.8,0-1.3,0-.3,0-.6,0-.9,0-.8,0-1.7,0-2.5,0-.6,0-1.2,0-1.9,0-1.1,0-2.3-.1-3.4,0-.5,0-.9,0-1.4,0-.5,0-1.1,0-1.6,0-.3,0-.6,0-.9,0-1-.1-1.7-.7-2.5-.5-.4-1-.4-1.7-.4q-.2,0-.3,0c-.3,0-.5,0-.8,0h0c2.9-.4,5.9-.5,8.9-.5Z"/>
      <path class="st40" d="M173.1,66.4c1.6.9,2.7,2.1,3.2,3.9.4,1.7.4,3.9-.2,5.6,0,.1,0,.2-.1.3-.7,1.6-2,2.6-3.6,3.2-1.4.4-2.9.3-4.2-.4-1.6-.9-2.4-2.2-3-3.9-.2-.8-.2-1.5-.2-2.3,0-.2,0-.3,0-.5,0-2,.5-3.4,1.8-4.9,1.7-1.6,4.1-2,6.3-1Z"/>
      <path class="st44" d="M167.8,43.7c.5,0,1,.1,1.5.2.1,0,.3,0,.4,0,.5,0,.9.1,1.4.2.3,0,.6,0,1,.1.7,0,1.4.2,2,.3.9.1,1.7.2,2.6.4,3.6.5,7.2,1,10.7,1.5.7.1,1.4.2,2.1.3,2.2.3,4.3.6,6.5,1q4.1.6,8.2,1.2,1.6.2,2.1.8c.1.2.3.4.4.6.2.2.5.5.7.7.5.5.9,1,1.2,1.5-.1,0-.2,0-.4,0-1.2-.2-2.5-.4-3.7-.6-.8-.1-1.5-.2-2.3-.4-9-1.5-17.9-2.8-26.9-4-.3,0-.6,0-1-.1-2.2-.3-4.4-.6-6.6-.9-.2,0-.4,0-.7,0-1-.1-2.1-.3-3.1-.2.6-.7,1.1-1.3,1.8-1.8q.3-.2.5-.5c.4-.4,1-.2,1.6-.2Z"/>
      <path class="st1" d="M135.6,88.5c.1,0,.2,0,.3,0,.5,0,.7,0,1.2.3v.3h.3c1,1.2,1.5,2.7,1.5,4.3-3,.3-6,.5-9,.7-.7,0-1.3,0-2,.1-1.3,0-2.6.2-3.9.2,0-.4,0-.8,0-1.1,0-.1,0-.2,0-.3,0-1.4.6-2.5,1.5-3.6,0,0,0,0,.1-.1-.2,0-.4-.2-.6-.3,1.1,0,2.3-.1,3.4-.2.5,0,1,0,1.6,0q4-.2,5.6-.2Z"/>
      <path class="st16" d="M173.6,68.8c.9.5,1.5,1.3,1.9,2.3.2.6.2,1.3.2,1.9,0,.1,0,.2,0,.4,0,1.4-.5,2.6-1.4,3.7-.8.8-1.6.9-2.7.9-.9-.1-1.7-.8-2.3-1.5-.7-1-.8-2-.9-3.2q0-.2,0-.4c0-1.4.6-2.6,1.6-3.6,1.1-.9,2.3-1,3.6-.5Z"/>
      <path class="st9" d="M182.8,75.1c.9.5,1.6,1.4,1.9,2.4.2,1.1.3,2.3-.4,3.3,0,0-.1.2-.2.2q-.2.2-.3.5c-.7.7-1.5,1.1-2.4,1.2-1.4,0-2.2-.2-3.3-1.1-.8-.8-1.1-1.9-1.2-3,0-1.1.5-2.1,1.2-2.9,1.3-1.2,3-1.4,4.6-.7Z"/>
      <path class="st33" d="M169.7,113.2c3.2,0,6.5,0,9.7.3v4.4q-4.7,0-9.4-.1v12.5h-.1c0-1.6,0-3.2,0-4.7,0-.7,0-1.5,0-2.2,0-3.4,0-6.8,0-10.2Z"/>
      <path class="st2" d="M186.3,113.6c3.3,0,6.6.2,9.9.3.1.6.2,1.1.4,1.7q0,.2.1.5c0,.2,0,.3.1.5,0,.1,0,.3,0,.4,0,.4,0,.8,0,1.1-2.1,0-4.3,0-6.4,0-.3,0-.6,0-1,0-.8,0-1.6,0-2.3,0-.2-.8-.4-1.6-.6-2.5,0-.1,0-.2,0-.4q0-.2,0-.4c0-.1,0-.2,0-.3q0-.3,0-.9Z"/>
      <path class="st32" d="M152.2,73c.5,0,.7.3,1.1.6,1.2,1.7,1.2,3.9,1,5.9-.2.9-.5,1.7-1.2,2.4-.5.2-1,.2-1.5.1-.8-.5-1.1-1.1-1.5-1.9q0-.2-.1-.3c-.5-1.6-.6-3.8.1-5.4.6-1,.9-1.4,2-1.4Z"/>
      <path class="st18" d="M206.2,48.9c.3.1.6.3.9.6.4.4.8.7,1.2,1,2.2,1.7,4.3,3.6,6.3,5.6,0,0,.2.2.3.2.2.2.4.4.6.6v.3h.3q.2.2.4.5c0,.1.2.2.3.3.1.1.2.3.3.4.1.1.2.3.4.4,2.3,2.6,4.4,5.5,6,8.6q-.4,0-.8-.3c-.1-.2-.3-.3-.4-.5-.2-.2-.3-.4-.5-.5,0,0-.2-.2-.3-.3-.5-.5-1-1.1-1.5-1.6,0-.1-.2-.2-.3-.3-.5-.5-.9-1-1.4-1.4-.3-.3-.7-.7-1-1-.4-.5-.9-1-1.4-1.4-.6-.6-1.1-1.1-1.6-1.7-.3-.4-.7-.7-1-1-.3-.3-.5-.5-.8-.8-.4-.4-.8-.9-1.2-1.3-.5-.5-1-1-1.4-1.6-.3-.3-.6-.6-.8-.9-.5-.5-.9-1-1.3-1.5-.4-.5-.9-.9-1.3-1.4q-.3-.3-.3-.6c.1,0,.3-.2.4-.3Z"/>
      <path class="st30" d="M192.7,65.3c.1,0,.2,0,.4,0,1.7,0,2.9.7,4.2,1.9q.2.4.2.9c-.2.6-.3.8-.9,1.1-.6,0-1-.2-1.4-.6,0,0-.2-.2-.2-.2-.8-.6-1.7-.6-2.6-.6-1.4.2-2.6.9-3.4,2-.1.2-.2.3-.3.5q-.6.8-.9,1t-1,0-.6-.7c0-1,.5-1.8,1.2-2.5,1.5-1.6,3.4-2.7,5.6-2.7Z"/>
      <path class="st15" d="M189.9,91.4c-.6,1.4-1.6,1.9-2.9,2.4-.9.4-1.9.6-2.8.8-.1,0-.3,0-.4,0-1.2.2-2.4,0-3.5-.2,0-.9.3-1.3.8-2,2.3-2.6,6-2.7,8.9-1.1Z"/>
      <path class="st30" d="M196.3,73.5c.5.4.8.7.9,1.4q0,.5-.4,1t-.9.3c-.6-.2-.9-.4-1.3-.8-.6-.5-1.3-.6-2.1-.6-1.5.3-2.7,1.2-3.5,2.4-.1.2-.3.4-.4.6-.5.2-.8.2-1.3.1q-.4-.3-.6-.7c0-1.1.7-1.9,1.3-2.7,2.1-2.3,5.7-3.1,8.3-1.1Z"/>
      <path class="st22" d="M125.1,60.1c.2.5.1,1,.1,1.5,0,.4.1.7.3,1.1-.2,0-.3,0-.5,0-.2,0-.5,0-.7.1-.1,0-.2,0-.3,0-.1,0-.2,0-.3,0q-.2,0-.3,0c-.4.1-.6.2-.9.5,0,.4,0,.7,0,1.1,0,.1,0,.2,0,.3,0,.4,0,.7,0,1.1,0,.2,0,.5,0,.7,0,.6,0,1.2,0,1.8-.4,0-.7,0-1.1,0q-.2,0-.3,0c-.3,0-.5,0-.8,0-.4-.4-.3-1.9-.3-2.5,0-.1,0-.2,0-.4q-.1-3.1.9-4.2c1.3-1.3,2.7-1.3,4.5-1.3v-.3Z"/>
      <path class="st3" d="M170.5,58.3c.1,0,.3,0,.4,0,1.1,0,2.2.2,3.1.9q.3.3.3.7c0,.6-.2.8-.7,1.2-.6,0-1,0-1.5-.1-1.1-.4-2.5-.3-3.6.1-.6.4-1.1.8-1.6,1.4q-.3.2-.8.4t-.9-.2c-.3-.4-.4-.7-.4-1.2.4-1.1,1.5-1.9,2.5-2.5,1.1-.5,2-.7,3.2-.7Z"/>
      <path class="st21" d="M187.9,44.9c.3.3.6.6.7,1v.6c0,0,.2,0,.3.1-1.5,0-2.9-.3-4.4-.6,0-.1.2-.3.3-.4q.4,0,.8,0c.1,0,.3,0,.4,0,.4,0,.6.1,1,.3h-.4v.3c.1,0,.2-.1.3-.2.4-.1.6-.1,1,0v-1.2Z"/>
      <path class="st34" d="M119.7,63.5c.1,0,.3,0,.4.1v5.2c0,0-.2,0-.3-.1q0-.4,0-1c0-.1,0-.2,0-.3,0-1.3,0-2.6,0-3.8Z"/>
      <path class="st12" d="M178.9,44.5q.7.2.9.6c0,0,0,.2.1.3-1.2,0-2.4-.1-3.5-.3.5-.3.7-.3,1.3-.2q.2,0,.4,0c.1,0,.2,0,.3,0,0,0,0-.2.1-.3,0,0,.2.2.3.3v-.4Z"/>
      <path class="st25" d="M177.6,76.3q.1.4,0,.9c-.5,1-.3,2.1,0,3.1.2.5.4.9.8,1.3q-.3,0-.6-.1t-.3-.6c0-.1,0-.2-.1-.3-.3-.6-.3-1.2-.3-1.9q0-.2,0-.3c0-.7,0-1.3.3-1.9,0,0,.2,0,.3-.1Z"/>
      <path class="st26" d="M159.4,50.4q0,.4-.2.7t-.3.3c-.1.1-.2.2-.3.3-.1.1-.2.2-.4.4-.1.1-.2.2-.4.4-.3.3-.6.6-.9.9-.1,0-.3,0-.4-.1.4-.4.7-.7,1.1-1.1,0-.1.2-.2.3-.3.5-.5,1-1,1.6-1.4Z"/>
      <path class="st35" d="M184.2,80.9q.1.3.1.6c-.3.4-.7.6-1.2.9q-.1,0-.3.2c-.8.5-1.5.5-2.4.4h0c.1-.2.2-.2.4-.2,1.4-.3,2.5-.7,3.3-1.9Z"/>
      <path class="st6" d="M145.6,63.5q0,.4-.2.7c-.1.1-.2.2-.3.3-.1.1-.2.2-.3.3-.1.1-.2.2-.4.4-.1.1-.2.2-.4.4-.3.3-.6.6-.9.9,0,0,0-.2-.1-.3.8-1,1.7-1.8,2.7-2.7Z"/>
      <path class="st13" d="M185.1,45.6c.1,0,.3,0,.4,0q.2,0,.4,0c.4,0,.6.1,1,.3-.5.3-.8.3-1.3.3-.1,0-.3,0-.4,0q-.3,0-.8-.3t.7-.3Z"/>
      <path class="st46" d="M180.4,45.4c.4,0,.9,0,1.3,0q.2,0,.4,0c.8,0,1.5.2,2.3.4h0c-1.4.2-2.6,0-4-.3h0Z"/>
      <path class="st36" d="M162.1,47.9q0,.4-.3.8c-.1.1-.3.3-.4.4q-.1.1-.2.2c-.4.4-.8.7-1.2,1,0,0-.2,0-.3-.1.3-.3.6-.6.8-.8,0,0,.2-.2.2-.2.5-.5.9-.9,1.4-1.3Z"/>
      <path class="st28" d="M179.6,74.3c.1,0,.3,0,.4,0,.6,0,1.3.2,1.9.2v.3c-.1,0-.3,0-.4,0q-.3,0-.5,0c-.2,0-.3,0-.5,0-.5,0-.9.1-1.4.3v-.3h.3c0-.2,0-.4.1-.6Z"/>
      <path class="st20" d="M184.8,77.6c.4.5.4.5.4,1.2,0,.5-.2,1-.4,1.5-.2-.5-.1-1,0-1.6,0-.1,0-.2,0-.3,0-.3,0-.5,0-.8Z"/>
      <path class="st8" d="M142.4,87.8q.2,0,.4,0c.1,0,.2,0,.3,0q-.1.2-.3.4t-1.6-.3c.4-.2.7-.2,1.1-.2Z"/>
      <path class="st14" d="M178.9,44.5q.7.2.9.6c0,0,0,.2.1.3h-.7v-.4h-.3v-.4Z"/>
      <path class="st37" d="M177,44.8c-.2.2-.5.2-.8.2-.1,0-.2,0-.4,0q-.3,0-.8-.3c.2,0,.5,0,.7,0,.1,0,.3,0,.4,0q.4,0,.8.3Z"/>
      <path class="st17" d="M148.1,86.9c0,.1,0,.3.1.4q-.2.3-.6.6t-.9,0c.1,0,.3-.2.4-.3.3-.2.6-.5.9-.7Z"/>
      <path class="st23" d="M147.8,69.5q.3.6.3,1c.3,0,.6,0,.9-.1-.4.4-.7.4-1.2.4v-1.3Z"/>
      <path class="st10" d="M188.8,83c0,0,.2,0,.3.1-.3.4-.7.6-1.2.9,0,0-.2,0-.3-.1.4-.3.8-.6,1.2-.9Z"/>
      <path class="st38" d="M171.4,68.5h1.3c0,.1,0,.3.1.4q-1.1-.1-1.5-.4Z"/>
      <path class="st11" d="M178.6,45.4c.1,0,.3.2.4.3h-1.5v-.3c.4-.1.6-.2,1,0Z"/>
      <path class="st19" d="M186.8,84.3c0,0,.2,0,.3.1-.5.4-.8.7-1.5.7.3-.4.7-.6,1.2-.9Z"/>
    </g>
  </g>
</svg>