<svg width="182" height="50" viewBox="0 0 182 50" fill="none" xmlns="http://www.w3.org/2000/svg">
<path d="M48.5309 49.9913C47.4497 49.9913 46.2648 49.9049 44.9675 49.7232C43.6701 49.5416 42.3728 49.2562 41.084 48.8583C39.7867 48.4605 38.5845 47.9588 37.4688 47.3447L39.4667 38.5487C40.764 39.7682 42.2084 40.6331 43.8085 41.1347C45.4086 41.6364 46.8357 41.8872 48.0984 41.8872C49.8628 41.8872 51.3418 41.5412 52.5527 40.832C53.7549 40.1314 54.663 39.1022 55.2771 37.753C55.8912 36.4037 56.1939 34.7604 56.1939 32.8144V27.8498H55.7096C55.6404 30.3667 55.2339 32.4252 54.4987 34.0339C53.7635 35.6339 52.7603 36.8102 51.5061 37.5713C50.2434 38.3238 48.7903 38.7044 47.1384 38.7044C45.0886 38.7044 43.3847 38.1854 42.0354 37.1389C40.6862 36.0923 39.6743 34.5269 38.991 32.4424C38.3077 30.358 37.9617 27.746 37.9617 24.6151V13.0686H46.654V22.349C46.654 25.4108 46.9827 27.6336 47.6227 29.0434C48.2628 30.4532 49.3006 31.1537 50.7018 31.1537C51.4196 31.1537 52.0597 30.9635 52.6132 30.5829C53.1668 30.2023 53.6338 29.6315 53.9884 28.8531C54.343 28.0833 54.6198 27.106 54.7928 25.9384C54.9744 24.7708 55.0609 23.4129 55.0609 21.8647V13.0686H63.7532V33.1517C63.7532 35.0977 63.5542 36.9227 63.1564 38.6352C62.7585 40.3477 62.1618 41.8872 61.3747 43.2797C60.579 44.6635 59.5843 45.8658 58.3821 46.869C57.1799 47.881 55.7528 48.6507 54.1181 49.187C52.4835 49.7232 50.6153 50 48.5309 50V49.9913Z" fill="#06070C"/>
<path d="M92.6223 31.474L84.6306 31.0416C84.6652 31.8027 84.6133 32.4773 84.4749 33.0654C84.3279 33.6622 84.077 34.1639 83.7138 34.579C83.3592 34.9942 82.8921 35.3056 82.3126 35.5218C81.7331 35.738 81.0153 35.8504 80.1504 35.8504C78.1351 35.8504 76.6475 35.1845 75.6702 33.8525C74.8831 32.7714 74.4161 31.1713 74.269 29.0523L91.9217 28.7755C92.3196 26.4749 92.3628 24.3299 92.0515 22.3493C91.7487 20.3773 91.0741 18.6302 90.0276 17.1166C88.9897 15.603 87.5885 14.4268 85.8501 13.5792C84.103 12.7402 82.0099 12.3164 79.5622 12.3164C77.1146 12.3164 75.0128 12.7402 73.2744 13.5792C71.5273 14.4268 70.1088 15.5771 69.0104 17.0388C67.912 18.4918 67.099 20.1611 66.58 22.0293C66.0524 23.8975 65.793 25.8608 65.793 27.9106C65.793 29.8221 66.0351 31.6384 66.5195 33.3595C67.0125 35.0893 67.8082 36.6289 68.9239 37.9781C70.0396 39.3274 71.51 40.3912 73.3263 41.1609C75.1426 41.9394 77.4 42.3199 80.0985 42.3199C82.6499 42.3199 84.769 41.9826 86.4382 41.2993C88.1161 40.6161 89.4221 39.7339 90.3562 38.6527C91.2903 37.5716 91.9304 36.404 92.2677 35.1412C92.6136 33.8871 92.7261 32.6589 92.6223 31.474ZM74.7015 23.0845C75.0215 21.839 75.5837 20.879 76.3794 20.1957C77.1665 19.5124 78.2303 19.1664 79.5622 19.1664C80.8163 19.1664 81.811 19.4605 82.5289 20.0573C83.2467 20.6541 83.7397 21.519 84.0165 22.652C84.1203 23.0931 84.1895 23.5775 84.2154 24.0964L74.4593 24.2867C74.5198 23.8629 74.6063 23.465 74.7015 23.0845Z" fill="#06070C"/>
<path d="M98.5126 41.5674V5.94202H112.87C115.067 5.94202 117.013 6.14094 118.725 6.5388C120.438 6.93666 121.891 7.52479 123.093 8.29456C124.295 9.06432 125.221 10.033 125.844 11.1833C126.475 12.3337 126.786 13.6829 126.786 15.2311C126.786 16.6668 126.492 17.9642 125.895 19.1145C125.299 20.2648 124.347 21.1903 123.033 21.8908C121.718 22.5914 119.997 23.0325 117.878 23.2141V23.6985C121.51 23.8801 124.148 24.7277 125.783 26.2327C127.418 27.7462 128.239 29.7442 128.239 32.2264C128.239 34.3109 127.703 36.0407 126.622 37.4072C125.541 38.7738 123.967 39.8117 121.9 40.5122C119.832 41.2128 117.264 41.5674 114.211 41.5674H98.5039H98.5126ZM107.248 20.7319H111.945C113.994 20.7319 115.56 20.3859 116.641 19.7026C117.722 19.0194 118.258 18.0074 118.258 16.6755C118.258 15.4127 117.774 14.47 116.797 13.8386C115.828 13.2072 114.366 12.8958 112.429 12.8958H107.248V20.7232V20.7319ZM107.248 34.553H113.839C115.672 34.553 117.091 34.2244 118.103 33.5497C119.115 32.8838 119.616 31.941 119.616 30.7129C119.616 29.3463 119.045 28.3257 117.912 27.6684C116.779 27.0024 115.075 26.6651 112.809 26.6651H107.248V34.5444V34.553Z" fill="#06070C"/>
<path d="M138.609 42.3197C137.165 42.3197 135.798 42.0689 134.51 41.5672C133.212 41.0656 132.157 40.2439 131.327 39.1109C130.496 37.9779 130.09 36.4556 130.09 34.5529C130.09 32.7885 130.427 31.3614 131.119 30.2629C131.802 29.1645 132.719 28.2823 133.869 27.6163C135.02 26.9504 136.283 26.4487 137.649 26.1027C139.016 25.7568 140.365 25.4627 141.697 25.2119C143.565 24.8573 144.966 24.5632 145.909 24.347C146.843 24.1308 147.483 23.8799 147.82 23.5945C148.166 23.3091 148.331 22.9113 148.331 22.4096C148.331 21.3631 147.941 20.576 147.172 20.0311C146.402 19.4862 145.381 19.2268 144.127 19.2268C143.332 19.2268 142.544 19.3738 141.749 19.6592C140.953 19.9446 140.313 20.4636 139.803 21.1987C139.301 21.9339 139.068 22.9891 139.102 24.3556L131.327 23.8194C131.257 21.5534 131.595 19.6765 132.356 18.1802C133.108 16.6926 134.146 15.5163 135.461 14.6687C136.776 13.8211 138.211 13.2243 139.777 12.8611C141.342 12.4978 142.899 12.3248 144.447 12.3248C147.293 12.3248 149.628 12.8524 151.462 13.9163C153.295 14.9801 154.653 16.5023 155.535 18.5002C156.418 20.4982 156.859 22.9199 156.859 25.7568V41.5759H149.299V33.4285H148.971C148.824 35.0459 148.296 36.5335 147.379 37.8827C146.462 39.232 145.252 40.3131 143.764 41.1175C142.268 41.9305 140.555 42.3283 138.609 42.3283V42.3197ZM142.224 35.954C142.839 35.954 143.496 35.8416 144.196 35.5994C144.897 35.3659 145.563 34.9767 146.194 34.4404C146.826 33.9042 147.336 33.1517 147.734 32.2003C148.132 31.2489 148.331 30.064 148.331 28.6629V27.3655L149.792 27.2012C149.507 27.6682 149.031 28.0488 148.365 28.3342C147.699 28.6196 146.955 28.8445 146.125 29.0088C145.295 29.1732 144.465 29.3375 143.617 29.4932C142.769 29.6575 141.991 29.8737 141.273 30.1418C140.555 30.41 139.967 30.7732 139.517 31.223C139.068 31.6727 138.843 32.2955 138.843 33.0825C138.843 34.0166 139.171 34.7258 139.846 35.2102C140.512 35.6945 141.308 35.9367 142.25 35.9367L142.224 35.954Z" fill="#06070C"/>
<path d="M164.738 11.0191C163.086 11.0191 161.815 10.6645 160.933 9.96391C160.05 9.26334 159.609 8.24275 159.609 6.9108C159.609 5.57885 160.05 4.50637 160.933 3.80579C161.815 3.10522 163.086 2.75061 164.738 2.75061C166.39 2.75061 167.714 3.11387 168.596 3.83174C169.478 4.54961 169.919 5.57885 169.919 6.9108C169.919 8.24275 169.478 9.21144 168.596 9.92931C167.714 10.6472 166.425 11.0104 164.738 11.0104V11.0191ZM160.422 41.5675V13.0689H169.167V41.5675H160.422Z" fill="#06070C"/>
<path d="M173.047 41.5672V3.78821H181.791V41.5759H173.047V41.5672Z" fill="#06070C"/>
<path d="M23.7935 24.0443V23.4735C26.5093 23.1448 33.0047 20.8442 32.7453 12.9736C32.6242 9.35826 30.8511 5.89 27.5558 3.45962C24.5373 1.22816 20.5588 0 16.3726 0C12.1865 0 8.21659 1.22816 5.18942 3.46826C1.88549 5.89864 0 9.36691 0 12.9736C0 16.5802 1.88549 20.0571 5.18942 22.4875C5.67377 22.8508 6.19271 23.1794 6.72895 23.4908L0.53624 41.5673H22.5653C28.7321 41.5673 36.3606 40.045 36.3606 32.4339C36.3606 24.8227 29.5019 24.0443 23.7935 24.0443ZM25.8866 12.9736C25.8866 16.1996 21.761 18.9327 16.7878 19.0798L20.7317 7.56791C23.7676 8.59714 25.8866 10.6643 25.8866 12.9736ZM9.0123 16.7964C7.6717 15.7499 6.85869 14.4093 6.85869 12.9822C6.85869 10.6297 9.06419 8.52795 12.1865 7.51601L9.09014 16.5543L9.00365 16.7964H9.0123ZM22.2626 34.6999H11.434L14.072 26.9936H21.121C22.7124 26.9936 27.9105 26.9245 27.9105 30.9463C27.9105 33.6188 25.4022 34.6913 22.2626 34.6913V34.6999Z" fill="#06070C"/>
</svg>
