<svg width="177" height="197" viewBox="0 0 177 197" fill="none" xmlns="http://www.w3.org/2000/svg">
<path d="M84.4537 107.803L100.821 106.259L93.7733 152.024C92.4305 160.743 84.9658 167.204 76.1437 167.283L49.4694 167.521L45.358 185.337C43.8159 192.02 37.8655 196.753 31.0074 196.753C17.0585 196.753 8.21271 181.802 14.9284 169.576L24.9557 151.321C27.6319 146.449 32.5393 143.211 38.0714 142.667L68.9728 139.627C72.5935 139.271 75.6437 136.77 76.7023 133.289L84.4537 107.803Z" fill="#FAE4CD"/>
<path d="M84.4537 107.803L100.821 106.259L93.7733 152.024C92.4305 160.743 84.9658 167.204 76.1437 167.283L49.4694 167.521L45.358 185.337C43.8159 192.02 37.8655 196.753 31.0074 196.753C17.0585 196.753 8.21271 181.802 14.9284 169.576L24.9557 151.321C27.6319 146.449 32.5393 143.211 38.0714 142.667L68.9728 139.627C72.5935 139.271 75.6437 136.77 76.7023 133.289L84.4537 107.803Z" fill="url(#paint0_linear_303_7514)"/>
<path d="M122 110.393L124.603 101.23L153.804 107.854C159.5 109.146 162.475 115.437 159.861 120.66L147.283 145.785L158.743 143.729C164.805 142.642 170.657 146.497 172.05 152.496C174.224 161.855 166.8 170.679 157.208 170.139L124.634 168.304C116.817 167.864 112.273 159.27 116.309 152.562L136.5 119L122 110.393Z" fill="#FEDCBA"/>
<path d="M122 110.393L124.603 101.23L153.804 107.854C159.5 109.146 162.475 115.437 159.861 120.66L147.283 145.785L158.743 143.729C164.805 142.642 170.657 146.497 172.05 152.496C174.224 161.855 166.8 170.679 157.208 170.139L124.634 168.304C116.817 167.864 112.273 159.27 116.309 152.562L136.5 119L122 110.393Z" fill="url(#paint1_linear_303_7514)"/>
<rect x="138.117" y="112" width="3.94087" height="45.928" rx="1.97044" transform="rotate(28.7882 138.117 112)" fill="#DC9E83"/>
<rect x="80.917" y="163.905" width="3.94087" height="36.8187" rx="1.97044" transform="rotate(89.3037 80.917 163.905)" fill="#C3AB91"/>
<path d="M98.9431 8.42256C103.696 3.77642 111.319 3.8782 115.946 8.64955L165.607 59.8602C170.037 64.4285 170.13 71.6603 165.82 76.3418L123.142 122.699C118.848 127.364 111.665 127.882 106.745 123.883L48.4403 76.487C42.8774 71.9649 42.4947 63.6061 47.621 58.5946L98.9431 8.42256Z" fill="#D9D9D9"/>
<path d="M98.9431 8.42256C103.696 3.77642 111.319 3.8782 115.946 8.64955L165.607 59.8602C170.037 64.4285 170.13 71.6603 165.82 76.3418L123.142 122.699C118.848 127.364 111.665 127.882 106.745 123.883L48.4403 76.487C42.8774 71.9649 42.4947 63.6061 47.621 58.5946L98.9431 8.42256Z" fill="url(#paint2_linear_303_7514)"/>
<path d="M114.888 82.9235C113.882 81.6963 112.234 80.9391 110.761 81.5284C109.288 82.1178 108.549 83.8156 109.449 85.1224C110.514 86.668 111.925 88.008 113.627 89.0776C116.201 90.6948 119.352 91.6382 122.766 91.8142C126.18 91.9901 129.738 91.3925 133.088 90.0806C135.498 89.137 137.739 87.8473 139.7 86.285C140.875 85.3485 140.675 83.5746 139.411 82.7621C138.464 82.1534 137.229 82.3082 136.355 83.0182C134.91 84.1919 133.248 85.1584 131.457 85.8599C129.041 86.8061 126.474 87.2372 124.012 87.1103C121.549 86.9834 119.277 86.3029 117.42 85.1365C116.434 84.5166 115.583 83.7709 114.888 82.9235Z" fill="#982B04"/>
<rect width="14.6288" height="14.6288" rx="7.31439" transform="matrix(-0.965926 -0.258819 -0.258819 0.965926 138.009 67.2057)" fill="#315CDA"/>
<rect x="99.0029" y="66.5888" width="8.4489" height="20.8432" rx="4.22445" transform="rotate(-98.0865 99.0029 66.5888)" fill="#9C2B00"/>
<rect x="150.17" y="64.1271" width="8.69441" height="16.9438" rx="4.34721" transform="rotate(119.279 150.17 64.1271)" fill="#9C2B00"/>
<defs>
<linearGradient id="paint0_linear_303_7514" x1="119.176" y1="49.4694" x2="11.3543" y2="163.649" gradientUnits="userSpaceOnUse">
<stop stop-color="#F2C89E"/>
<stop offset="1" stop-color="#F6E1CC"/>
</linearGradient>
<linearGradient id="paint1_linear_303_7514" x1="71.9556" y1="31.1058" x2="108.477" y2="176.868" gradientUnits="userSpaceOnUse">
<stop stop-color="#F0AE95"/>
<stop offset="1" stop-color="#FFD3BE"/>
</linearGradient>
<linearGradient id="paint2_linear_303_7514" x1="261.63" y1="-43.1052" x2="107.81" y2="145.175" gradientUnits="userSpaceOnUse">
<stop stop-color="#FFB583"/>
<stop offset="1" stop-color="#FF7E29"/>
</linearGradient>
</defs>
</svg>
