<svg width="107" height="200" viewBox="0 0 107 200" fill="none" xmlns="http://www.w3.org/2000/svg">
<g filter="url(#filter0_d_303_7643)">
<path d="M133.359 15.4957C138.517 14.8419 143.509 17.5834 145.724 22.2864L184.57 104.745C186.785 109.448 185.721 115.042 181.933 118.603L115.514 181.028C111.726 184.589 106.076 185.305 101.519 182.802L21.6245 138.925C17.0678 136.423 14.6407 131.271 15.6126 126.164L32.6535 36.6205C33.6254 31.5134 37.7753 27.613 42.9328 26.9592L133.359 15.4957Z" fill="#D9D9D9" fill-opacity="0.2" shape-rendering="crispEdges"/>
<path d="M133.925 19.9606C137.149 19.552 140.268 21.2653 141.653 24.2046L180.499 106.662C181.884 109.602 181.218 113.099 178.851 115.324L112.432 177.749C110.065 179.974 106.534 180.422 103.686 178.858L23.7909 134.981C20.9429 133.417 19.4262 130.197 20.0336 127.005L37.0743 37.4622C37.6817 34.2703 40.2757 31.8321 43.4991 31.4235L133.925 19.9606Z" stroke="white" stroke-width="9" shape-rendering="crispEdges"/>
</g>
<defs>
<filter id="filter0_d_303_7643" x="0.000391006" y="-3.62396e-05" width="201.113" height="199.685" filterUnits="userSpaceOnUse" color-interpolation-filters="sRGB">
<feFlood flood-opacity="0" result="BackgroundImageFix"/>
<feColorMatrix in="SourceAlpha" type="matrix" values="0 0 0 0 0 0 0 0 0 0 0 0 0 0 0 0 0 0 127 0" result="hardAlpha"/>
<feOffset/>
<feGaussianBlur stdDeviation="7.7"/>
<feComposite in2="hardAlpha" operator="out"/>
<feColorMatrix type="matrix" values="0 0 0 0 0.743069 0 0 0 0 0.831381 0 0 0 0 0.963848 0 0 0 0.25 0"/>
<feBlend mode="normal" in2="BackgroundImageFix" result="effect1_dropShadow_303_7643"/>
<feBlend mode="normal" in="SourceGraphic" in2="effect1_dropShadow_303_7643" result="shape"/>
</filter>
</defs>
</svg>
