<svg width="390" height="351" viewBox="0 0 390 351" fill="none" xmlns="http://www.w3.org/2000/svg">
<g opacity="0.74">
<g filter="url(#filter0_d_303_7633)">
<rect x="67.6611" y="153.596" width="123.532" height="123.532" rx="12" transform="rotate(48.5819 67.6611 153.596)" fill="#D9D9D9" fill-opacity="0.2" shape-rendering="crispEdges"/>
<rect x="67.3077" y="159.242" width="115.532" height="115.532" rx="8" transform="rotate(48.5819 67.3077 159.242)" stroke="white" stroke-width="8" shape-rendering="crispEdges"/>
</g>
<g filter="url(#filter1_d_303_7633)">
<rect x="169.873" y="74.8434" width="123.532" height="123.532" rx="12" transform="rotate(48.5819 169.873 74.8434)" fill="#D9D9D9" fill-opacity="0.2" shape-rendering="crispEdges"/>
<rect x="169.52" y="80.4892" width="115.532" height="115.532" rx="8" transform="rotate(48.5819 169.52 80.4892)" stroke="white" stroke-width="8" shape-rendering="crispEdges"/>
</g>
<g filter="url(#filter2_d_303_7633)">
<rect x="450.799" y="216.152" width="123.532" height="123.532" rx="12" transform="rotate(48.5819 450.799 216.152)" fill="#D9D9D9" fill-opacity="0.2" shape-rendering="crispEdges"/>
<rect x="450.445" y="221.798" width="115.532" height="115.532" rx="8" transform="rotate(48.5819 450.445 221.798)" stroke="white" stroke-width="8" shape-rendering="crispEdges"/>
</g>
<g filter="url(#filter3_d_303_7633)">
<path d="M194.835 225.198C202.19 219.609 212.837 224.078 214 233.242L228.903 350.721C230.065 359.885 220.872 366.871 212.354 363.296L103.163 317.463C94.6452 313.888 93.192 302.433 100.547 296.844L194.835 225.198Z" fill="#D9D9D9" fill-opacity="0.2" shape-rendering="crispEdges"/>
<path d="M197.558 228.781C202.083 225.343 208.601 227.995 209.497 233.543L209.536 233.809L224.439 351.287C225.165 357.015 219.419 361.381 214.096 359.146L104.905 313.314C99.5813 311.079 98.6731 303.92 103.27 300.427L197.558 228.781Z" stroke="white" stroke-width="9" shape-rendering="crispEdges"/>
</g>
<g filter="url(#filter4_d_303_7633)">
<path d="M104.611 93.7458C113.081 97.4325 114.384 108.906 106.956 114.398L-2.64589 195.434C-10.0737 200.926 -20.6612 196.318 -21.7034 187.139L-37.082 51.7026C-38.1242 42.524 -28.8395 35.6592 -20.3694 39.3459L104.611 93.7458Z" fill="#D9D9D9" fill-opacity="0.2" shape-rendering="crispEdges"/>
<path d="M102.815 97.8716C108.026 100.14 108.897 107.124 104.494 110.616L104.281 110.779L-5.32123 191.815C-9.9636 195.248 -16.5808 192.368 -17.2322 186.631L-32.6108 51.1946C-33.2619 45.4582 -27.4591 41.1677 -22.1654 43.4717L102.815 97.8716Z" stroke="white" stroke-width="9" shape-rendering="crispEdges"/>
</g>
<g filter="url(#filter5_d_303_7633)">
<path d="M444.84 101.113C453.747 98.663 461.966 106.774 459.634 115.712L429.743 230.298C427.411 239.236 416.278 242.299 409.703 235.81L325.414 152.631C318.839 146.142 321.754 134.969 330.661 132.519L444.84 101.113Z" fill="#D9D9D9" fill-opacity="0.2" shape-rendering="crispEdges"/>
<path d="M446.034 105.452C451.513 103.945 456.576 108.833 455.343 114.315L455.28 114.576L425.389 229.162C423.932 234.748 416.973 236.662 412.864 232.607L328.575 149.428C324.466 145.373 326.288 138.39 331.854 136.858L446.034 105.452Z" stroke="white" stroke-width="9" shape-rendering="crispEdges"/>
</g>
<g filter="url(#filter6_d_303_7633)">
<path d="M311.797 163.33C316.482 161.078 322.085 162.099 325.675 165.86L388.61 231.795C392.2 235.556 392.96 241.2 390.492 245.776L347.232 326.007C344.765 330.583 339.632 333.049 334.517 332.117L244.845 315.767C239.731 314.834 235.799 310.714 235.105 305.562L222.945 215.227C222.251 210.074 224.954 205.062 229.64 202.81L311.797 163.33Z" fill="#D9D9D9" fill-opacity="0.2" shape-rendering="crispEdges"/>
<path d="M313.746 167.386C316.675 165.979 320.176 166.617 322.419 168.968L385.355 234.902C387.599 237.253 388.074 240.781 386.531 243.641L343.271 323.871C341.729 326.731 338.521 328.273 335.325 327.69L245.653 311.34C242.456 310.757 239.999 308.182 239.565 304.962L227.405 214.627C226.972 211.407 228.661 208.273 231.59 206.866L313.746 167.386Z" stroke="white" stroke-width="9" shape-rendering="crispEdges"/>
</g>
</g>
<defs>
<filter id="filter0_d_303_7633" x="-35.4381" y="143.134" width="195.284" height="195.284" filterUnits="userSpaceOnUse" color-interpolation-filters="sRGB">
<feFlood flood-opacity="0" result="BackgroundImageFix"/>
<feColorMatrix in="SourceAlpha" type="matrix" values="0 0 0 0 0 0 0 0 0 0 0 0 0 0 0 0 0 0 127 0" result="hardAlpha"/>
<feOffset/>
<feGaussianBlur stdDeviation="7.7"/>
<feComposite in2="hardAlpha" operator="out"/>
<feColorMatrix type="matrix" values="0 0 0 0 0.743069 0 0 0 0 0.831381 0 0 0 0 0.963848 0 0 0 0.25 0"/>
<feBlend mode="normal" in2="BackgroundImageFix" result="effect1_dropShadow_303_7633"/>
<feBlend mode="normal" in="SourceGraphic" in2="effect1_dropShadow_303_7633" result="shape"/>
</filter>
<filter id="filter1_d_303_7633" x="66.7738" y="64.3806" width="195.284" height="195.284" filterUnits="userSpaceOnUse" color-interpolation-filters="sRGB">
<feFlood flood-opacity="0" result="BackgroundImageFix"/>
<feColorMatrix in="SourceAlpha" type="matrix" values="0 0 0 0 0 0 0 0 0 0 0 0 0 0 0 0 0 0 127 0" result="hardAlpha"/>
<feOffset/>
<feGaussianBlur stdDeviation="7.7"/>
<feComposite in2="hardAlpha" operator="out"/>
<feColorMatrix type="matrix" values="0 0 0 0 0.743069 0 0 0 0 0.831381 0 0 0 0 0.963848 0 0 0 0.25 0"/>
<feBlend mode="normal" in2="BackgroundImageFix" result="effect1_dropShadow_303_7633"/>
<feBlend mode="normal" in="SourceGraphic" in2="effect1_dropShadow_303_7633" result="shape"/>
</filter>
<filter id="filter2_d_303_7633" x="347.7" y="205.689" width="195.284" height="195.284" filterUnits="userSpaceOnUse" color-interpolation-filters="sRGB">
<feFlood flood-opacity="0" result="BackgroundImageFix"/>
<feColorMatrix in="SourceAlpha" type="matrix" values="0 0 0 0 0 0 0 0 0 0 0 0 0 0 0 0 0 0 127 0" result="hardAlpha"/>
<feOffset/>
<feGaussianBlur stdDeviation="7.7"/>
<feComposite in2="hardAlpha" operator="out"/>
<feColorMatrix type="matrix" values="0 0 0 0 0.743069 0 0 0 0 0.831381 0 0 0 0 0.963848 0 0 0 0.25 0"/>
<feBlend mode="normal" in2="BackgroundImageFix" result="effect1_dropShadow_303_7633"/>
<feBlend mode="normal" in="SourceGraphic" in2="effect1_dropShadow_303_7633" result="shape"/>
</filter>
<filter id="filter3_d_303_7633" x="80.4057" y="207.339" width="163.997" height="172.31" filterUnits="userSpaceOnUse" color-interpolation-filters="sRGB">
<feFlood flood-opacity="0" result="BackgroundImageFix"/>
<feColorMatrix in="SourceAlpha" type="matrix" values="0 0 0 0 0 0 0 0 0 0 0 0 0 0 0 0 0 0 127 0" result="hardAlpha"/>
<feOffset/>
<feGaussianBlur stdDeviation="7.7"/>
<feComposite in2="hardAlpha" operator="out"/>
<feColorMatrix type="matrix" values="0 0 0 0 0.743069 0 0 0 0 0.831381 0 0 0 0 0.963848 0 0 0 0.25 0"/>
<feBlend mode="normal" in2="BackgroundImageFix" result="effect1_dropShadow_303_7633"/>
<feBlend mode="normal" in="SourceGraphic" in2="effect1_dropShadow_303_7633" result="shape"/>
</filter>
<filter id="filter4_d_303_7633" x="-52.5621" y="22.9306" width="179.785" height="190.269" filterUnits="userSpaceOnUse" color-interpolation-filters="sRGB">
<feFlood flood-opacity="0" result="BackgroundImageFix"/>
<feColorMatrix in="SourceAlpha" type="matrix" values="0 0 0 0 0 0 0 0 0 0 0 0 0 0 0 0 0 0 127 0" result="hardAlpha"/>
<feOffset/>
<feGaussianBlur stdDeviation="7.7"/>
<feComposite in2="hardAlpha" operator="out"/>
<feColorMatrix type="matrix" values="0 0 0 0 0.743069 0 0 0 0 0.831381 0 0 0 0 0.963848 0 0 0 0.25 0"/>
<feBlend mode="normal" in2="BackgroundImageFix" result="effect1_dropShadow_303_7633"/>
<feBlend mode="normal" in="SourceGraphic" in2="effect1_dropShadow_303_7633" result="shape"/>
</filter>
<filter id="filter5_d_303_7633" x="306.436" y="85.27" width="168.999" height="169.406" filterUnits="userSpaceOnUse" color-interpolation-filters="sRGB">
<feFlood flood-opacity="0" result="BackgroundImageFix"/>
<feColorMatrix in="SourceAlpha" type="matrix" values="0 0 0 0 0 0 0 0 0 0 0 0 0 0 0 0 0 0 127 0" result="hardAlpha"/>
<feOffset/>
<feGaussianBlur stdDeviation="7.7"/>
<feComposite in2="hardAlpha" operator="out"/>
<feColorMatrix type="matrix" values="0 0 0 0 0.743069 0 0 0 0 0.831381 0 0 0 0 0.963848 0 0 0 0.25 0"/>
<feBlend mode="normal" in2="BackgroundImageFix" result="effect1_dropShadow_303_7633"/>
<feBlend mode="normal" in="SourceGraphic" in2="effect1_dropShadow_303_7633" result="shape"/>
</filter>
<filter id="filter6_d_303_7633" x="207.437" y="146.745" width="199.893" height="200.967" filterUnits="userSpaceOnUse" color-interpolation-filters="sRGB">
<feFlood flood-opacity="0" result="BackgroundImageFix"/>
<feColorMatrix in="SourceAlpha" type="matrix" values="0 0 0 0 0 0 0 0 0 0 0 0 0 0 0 0 0 0 127 0" result="hardAlpha"/>
<feOffset/>
<feGaussianBlur stdDeviation="7.7"/>
<feComposite in2="hardAlpha" operator="out"/>
<feColorMatrix type="matrix" values="0 0 0 0 0.743069 0 0 0 0 0.831381 0 0 0 0 0.963848 0 0 0 0.25 0"/>
<feBlend mode="normal" in2="BackgroundImageFix" result="effect1_dropShadow_303_7633"/>
<feBlend mode="normal" in="SourceGraphic" in2="effect1_dropShadow_303_7633" result="shape"/>
</filter>
</defs>
</svg>
