<svg width="1440" height="577" viewBox="0 0 1440 577" fill="none" xmlns="http://www.w3.org/2000/svg">
<g opacity="0.74">
<g filter="url(#filter0_d_303_7458)">
<rect x="134.857" y="291" width="221.172" height="221.172" rx="20" transform="rotate(48.5819 134.857 291)" fill="#D9D9D9" fill-opacity="0.2" shape-rendering="crispEdges"/>
<rect x="134.504" y="296.646" width="213.172" height="213.172" rx="16" transform="rotate(48.5819 134.504 296.646)" stroke="white" stroke-width="8" shape-rendering="crispEdges"/>
</g>
<g filter="url(#filter1_d_303_7458)">
<rect x="317.857" y="150" width="221.172" height="221.172" rx="110.586" transform="rotate(48.5819 317.857 150)" fill="#D9D9D9" fill-opacity="0.2" shape-rendering="crispEdges"/>
<rect x="317.504" y="155.646" width="213.172" height="213.172" rx="106.586" transform="rotate(48.5819 317.504 155.646)" stroke="white" stroke-width="8" shape-rendering="crispEdges"/>
</g>
<g filter="url(#filter2_d_303_7458)">
<rect x="820.857" y="403" width="221.172" height="221.172" rx="110.586" transform="rotate(48.5819 820.857 403)" fill="#D9D9D9" fill-opacity="0.2" shape-rendering="crispEdges"/>
<rect x="820.504" y="408.646" width="213.172" height="213.172" rx="106.586" transform="rotate(48.5819 820.504 408.646)" stroke="white" stroke-width="8" shape-rendering="crispEdges"/>
</g>
<g filter="url(#filter3_d_303_7458)">
<rect x="1169.05" y="413" width="178.754" height="178.754" rx="89.3768" transform="rotate(48.5819 1169.05 413)" fill="#D9D9D9" fill-opacity="0.2" shape-rendering="crispEdges"/>
<rect x="1168.7" y="418.646" width="170.754" height="170.754" rx="85.3768" transform="rotate(48.5819 1168.7 418.646)" stroke="white" stroke-width="8" shape-rendering="crispEdges"/>
</g>
<g filter="url(#filter4_d_303_7458)">
<path d="M364.597 417.64C376.856 408.325 394.601 415.773 396.539 431.047L423.869 646.484C425.806 661.758 410.483 673.401 396.287 667.442L196.048 583.393C181.852 577.434 179.43 558.342 191.689 549.027L364.597 417.64Z" fill="#D9D9D9" fill-opacity="0.2" shape-rendering="crispEdges"/>
<path d="M367.32 421.223C376.672 414.117 390.144 419.599 391.995 431.063L392.074 431.613L419.405 647.051C420.906 658.888 409.03 667.911 398.028 663.293L197.79 579.243C186.788 574.625 184.911 559.829 194.411 552.61L367.32 421.223Z" stroke="white" stroke-width="9" shape-rendering="crispEdges"/>
</g>
<g filter="url(#filter5_d_303_7458)">
<path d="M203.371 184.869C217.487 191.014 219.659 210.136 207.279 219.289L6.91117 367.435C-5.4685 376.588 -23.1144 368.908 -24.8514 353.61L-52.9657 106.013C-54.7027 90.7156 -39.2281 79.2742 -25.1114 85.4187L203.371 184.869Z" fill="#D9D9D9" fill-opacity="0.2" shape-rendering="crispEdges"/>
<path d="M201.575 188.996C212.515 193.758 214.198 208.577 204.604 215.671L4.23602 363.817C-5.3581 370.91 -19.0335 364.958 -20.3799 353.103L-48.4943 105.505C-49.8402 93.6497 -37.8475 84.783 -26.9071 89.545L201.575 188.996Z" stroke="white" stroke-width="9" shape-rendering="crispEdges"/>
</g>
<g filter="url(#filter6_d_303_7458)">
<path d="M876.656 151.276C880.463 136.358 898.991 131.155 910.007 141.911L1065.39 293.621C1076.41 304.377 1071.65 323.024 1056.83 327.187L847.749 385.898C832.926 390.06 819.156 376.615 822.963 361.697L876.656 151.276Z" fill="#D9D9D9" fill-opacity="0.2" shape-rendering="crispEdges"/>
<path d="M881.016 152.389C883.92 141.008 897.88 136.923 906.459 144.749L906.863 145.131L1062.25 296.841C1070.78 305.177 1067.1 319.629 1055.61 322.855L846.532 381.565C835.045 384.791 824.373 374.371 827.323 362.81L881.016 152.389Z" stroke="white" stroke-width="9" shape-rendering="crispEdges"/>
</g>
<g filter="url(#filter7_d_303_7458)">
<path d="M812.64 196.351C827.484 192.268 841.182 205.786 837.296 220.683L782.481 430.815C778.595 445.712 760.039 450.816 749.08 440.002L594.509 287.465C583.55 276.65 588.408 258.028 603.253 253.945L812.64 196.351Z" fill="#D9D9D9" fill-opacity="0.2" shape-rendering="crispEdges"/>
<path d="M813.833 200.69C825.158 197.575 835.622 207.678 833.073 219.007L832.942 219.547L778.127 429.679C775.115 441.224 760.734 445.18 752.241 436.799L597.67 284.262C589.177 275.881 592.941 261.449 604.446 258.284L813.833 200.69Z" stroke="white" stroke-width="9" shape-rendering="crispEdges"/>
</g>
<g filter="url(#filter8_d_303_7458)">
<path d="M1074.65 340.351C1089.49 336.268 1103.19 349.786 1099.3 364.683L1044.49 574.815C1040.6 589.712 1022.05 594.816 1011.09 584.002L856.515 431.465C845.557 420.65 850.415 402.028 865.259 397.945L1074.65 340.351Z" fill="#D9D9D9" fill-opacity="0.2" shape-rendering="crispEdges"/>
<path d="M1075.84 344.69C1087.16 341.575 1097.63 351.678 1095.08 363.007L1094.95 363.547L1040.13 573.679C1037.12 585.224 1022.74 589.18 1014.25 580.799L859.676 428.262C851.184 419.881 854.948 405.449 866.453 402.284L1075.84 344.69Z" stroke="white" stroke-width="9" shape-rendering="crispEdges"/>
</g>
<g filter="url(#filter9_d_303_7458)">
<path d="M572.93 307.959C580.74 304.206 590.078 305.909 596.06 312.176L710.23 431.788C716.213 438.056 717.479 447.463 713.367 455.09L634.89 600.634C630.777 608.26 622.222 612.372 613.698 610.817L451.027 581.157C442.503 579.603 435.949 572.736 434.793 564.149L412.733 400.274C411.577 391.687 416.082 383.332 423.892 379.579L572.93 307.959Z" fill="#D9D9D9" fill-opacity="0.2" shape-rendering="crispEdges"/>
<path d="M574.879 312.015C580.931 309.106 588.169 310.426 592.805 315.284L706.975 434.895C711.611 439.753 712.593 447.043 709.406 452.953L630.929 598.498C627.742 604.408 621.112 607.595 614.506 606.391L451.834 576.73C445.228 575.526 440.148 570.204 439.252 563.549L417.193 399.673C416.298 393.018 419.789 386.544 425.841 383.635L574.879 312.015Z" stroke="white" stroke-width="9" shape-rendering="crispEdges"/>
</g>
<g filter="url(#filter10_d_303_7458)">
<path d="M1299.75 111.54C1308.35 112.638 1315.26 119.146 1316.87 127.659L1347.62 290.128C1349.23 298.641 1345.18 307.224 1337.58 311.387L1192.57 390.84C1184.97 395.004 1175.55 393.801 1169.24 387.86L1048.87 274.496C1042.56 268.556 1040.79 259.23 1044.5 251.395L1115.11 101.879C1118.81 94.0447 1127.14 89.4837 1135.73 90.5819L1299.75 111.54Z" fill="#D9D9D9" fill-opacity="0.2" shape-rendering="crispEdges"/>
<path d="M1299.18 116.004C1305.84 116.855 1311.2 121.898 1312.45 128.496L1343.2 290.964C1344.45 297.562 1341.31 304.214 1335.42 307.44L1190.4 386.894C1184.51 390.12 1177.22 389.188 1172.33 384.585L1051.95 271.221C1047.06 266.617 1045.7 259.388 1048.56 253.317L1119.18 103.801C1122.05 97.7292 1128.5 94.1947 1135.16 95.0458L1299.18 116.004Z" stroke="white" stroke-width="9" shape-rendering="crispEdges"/>
</g>
<g filter="url(#filter11_d_303_7458)">
<path d="M1400.94 294.959C1408.75 291.206 1418.08 292.909 1424.07 299.176L1538.24 418.788C1544.22 425.056 1545.49 434.463 1541.37 442.09L1462.9 587.634C1458.78 595.26 1450.23 599.372 1441.7 597.817L1279.03 568.157C1270.51 566.603 1263.96 559.736 1262.8 551.149L1240.74 387.274C1239.58 378.687 1244.09 370.332 1251.9 366.579L1400.94 294.959Z" fill="#D9D9D9" fill-opacity="0.2" shape-rendering="crispEdges"/>
<path d="M1402.89 299.015C1408.94 296.106 1416.18 297.426 1420.81 302.284L1534.98 421.895C1539.62 426.753 1540.6 434.043 1537.41 439.953L1458.94 585.498C1455.75 591.408 1449.12 594.595 1442.51 593.391L1279.84 563.73C1273.23 562.526 1268.15 557.204 1267.26 550.549L1245.2 386.673C1244.3 380.018 1247.8 373.544 1253.85 370.635L1402.89 299.015Z" stroke="white" stroke-width="9" shape-rendering="crispEdges"/>
</g>
</g>
<defs>
<filter id="filter0_d_303_7458" x="-38.1715" y="283.829" width="326.516" height="326.516" filterUnits="userSpaceOnUse" color-interpolation-filters="sRGB">
<feFlood flood-opacity="0" result="BackgroundImageFix"/>
<feColorMatrix in="SourceAlpha" type="matrix" values="0 0 0 0 0 0 0 0 0 0 0 0 0 0 0 0 0 0 127 0" result="hardAlpha"/>
<feOffset/>
<feGaussianBlur stdDeviation="7.7"/>
<feComposite in2="hardAlpha" operator="out"/>
<feColorMatrix type="matrix" values="0 0 0 0 0.743069 0 0 0 0 0.831381 0 0 0 0 0.963848 0 0 0 0.25 0"/>
<feBlend mode="normal" in2="BackgroundImageFix" result="effect1_dropShadow_303_7458"/>
<feBlend mode="normal" in="SourceGraphic" in2="effect1_dropShadow_303_7458" result="shape"/>
</filter>
<filter id="filter1_d_303_7458" x="182.099" y="180.099" width="251.975" height="251.975" filterUnits="userSpaceOnUse" color-interpolation-filters="sRGB">
<feFlood flood-opacity="0" result="BackgroundImageFix"/>
<feColorMatrix in="SourceAlpha" type="matrix" values="0 0 0 0 0 0 0 0 0 0 0 0 0 0 0 0 0 0 127 0" result="hardAlpha"/>
<feOffset/>
<feGaussianBlur stdDeviation="7.7"/>
<feComposite in2="hardAlpha" operator="out"/>
<feColorMatrix type="matrix" values="0 0 0 0 0.743069 0 0 0 0 0.831381 0 0 0 0 0.963848 0 0 0 0.25 0"/>
<feBlend mode="normal" in2="BackgroundImageFix" result="effect1_dropShadow_303_7458"/>
<feBlend mode="normal" in="SourceGraphic" in2="effect1_dropShadow_303_7458" result="shape"/>
</filter>
<filter id="filter2_d_303_7458" x="685.099" y="433.099" width="251.975" height="251.975" filterUnits="userSpaceOnUse" color-interpolation-filters="sRGB">
<feFlood flood-opacity="0" result="BackgroundImageFix"/>
<feColorMatrix in="SourceAlpha" type="matrix" values="0 0 0 0 0 0 0 0 0 0 0 0 0 0 0 0 0 0 127 0" result="hardAlpha"/>
<feOffset/>
<feGaussianBlur stdDeviation="7.7"/>
<feComposite in2="hardAlpha" operator="out"/>
<feColorMatrix type="matrix" values="0 0 0 0 0.743069 0 0 0 0 0.831381 0 0 0 0 0.963848 0 0 0 0.25 0"/>
<feBlend mode="normal" in2="BackgroundImageFix" result="effect1_dropShadow_303_7458"/>
<feBlend mode="normal" in="SourceGraphic" in2="effect1_dropShadow_303_7458" result="shape"/>
</filter>
<filter id="filter3_d_303_7458" x="1056.38" y="434.373" width="209.556" height="209.556" filterUnits="userSpaceOnUse" color-interpolation-filters="sRGB">
<feFlood flood-opacity="0" result="BackgroundImageFix"/>
<feColorMatrix in="SourceAlpha" type="matrix" values="0 0 0 0 0 0 0 0 0 0 0 0 0 0 0 0 0 0 127 0" result="hardAlpha"/>
<feOffset/>
<feGaussianBlur stdDeviation="7.7"/>
<feComposite in2="hardAlpha" operator="out"/>
<feColorMatrix type="matrix" values="0 0 0 0 0.743069 0 0 0 0 0.831381 0 0 0 0 0.963848 0 0 0 0.25 0"/>
<feBlend mode="normal" in2="BackgroundImageFix" result="effect1_dropShadow_303_7458"/>
<feBlend mode="normal" in="SourceGraphic" in2="effect1_dropShadow_303_7458" result="shape"/>
</filter>
<filter id="filter4_d_303_7458" x="168.385" y="398.141" width="271.05" height="286.29" filterUnits="userSpaceOnUse" color-interpolation-filters="sRGB">
<feFlood flood-opacity="0" result="BackgroundImageFix"/>
<feColorMatrix in="SourceAlpha" type="matrix" values="0 0 0 0 0 0 0 0 0 0 0 0 0 0 0 0 0 0 127 0" result="hardAlpha"/>
<feOffset/>
<feGaussianBlur stdDeviation="7.7"/>
<feComposite in2="hardAlpha" operator="out"/>
<feColorMatrix type="matrix" values="0 0 0 0 0.743069 0 0 0 0 0.831381 0 0 0 0 0.963848 0 0 0 0.25 0"/>
<feBlend mode="normal" in2="BackgroundImageFix" result="effect1_dropShadow_303_7458"/>
<feBlend mode="normal" in="SourceGraphic" in2="effect1_dropShadow_303_7458" result="shape"/>
</filter>
<filter id="filter5_d_303_7458" x="-68.4996" y="68.3266" width="299.291" height="318.451" filterUnits="userSpaceOnUse" color-interpolation-filters="sRGB">
<feFlood flood-opacity="0" result="BackgroundImageFix"/>
<feColorMatrix in="SourceAlpha" type="matrix" values="0 0 0 0 0 0 0 0 0 0 0 0 0 0 0 0 0 0 127 0" result="hardAlpha"/>
<feOffset/>
<feGaussianBlur stdDeviation="7.7"/>
<feComposite in2="hardAlpha" operator="out"/>
<feColorMatrix type="matrix" values="0 0 0 0 0.743069 0 0 0 0 0.831381 0 0 0 0 0.963848 0 0 0 0.25 0"/>
<feBlend mode="normal" in2="BackgroundImageFix" result="effect1_dropShadow_303_7458"/>
<feBlend mode="normal" in="SourceGraphic" in2="effect1_dropShadow_303_7458" result="shape"/>
</filter>
<filter id="filter6_d_303_7458" x="806.921" y="120.808" width="279.908" height="281.257" filterUnits="userSpaceOnUse" color-interpolation-filters="sRGB">
<feFlood flood-opacity="0" result="BackgroundImageFix"/>
<feColorMatrix in="SourceAlpha" type="matrix" values="0 0 0 0 0 0 0 0 0 0 0 0 0 0 0 0 0 0 127 0" result="hardAlpha"/>
<feOffset/>
<feGaussianBlur stdDeviation="7.7"/>
<feComposite in2="hardAlpha" operator="out"/>
<feColorMatrix type="matrix" values="0 0 0 0 0.743069 0 0 0 0 0.831381 0 0 0 0 0.963848 0 0 0 0.25 0"/>
<feBlend mode="normal" in2="BackgroundImageFix" result="effect1_dropShadow_303_7458"/>
<feBlend mode="normal" in="SourceGraphic" in2="effect1_dropShadow_303_7458" result="shape"/>
</filter>
<filter id="filter7_d_303_7458" x="573.145" y="180.213" width="280.22" height="280.966" filterUnits="userSpaceOnUse" color-interpolation-filters="sRGB">
<feFlood flood-opacity="0" result="BackgroundImageFix"/>
<feColorMatrix in="SourceAlpha" type="matrix" values="0 0 0 0 0 0 0 0 0 0 0 0 0 0 0 0 0 0 127 0" result="hardAlpha"/>
<feOffset/>
<feGaussianBlur stdDeviation="7.7"/>
<feComposite in2="hardAlpha" operator="out"/>
<feColorMatrix type="matrix" values="0 0 0 0 0.743069 0 0 0 0 0.831381 0 0 0 0 0.963848 0 0 0 0.25 0"/>
<feBlend mode="normal" in2="BackgroundImageFix" result="effect1_dropShadow_303_7458"/>
<feBlend mode="normal" in="SourceGraphic" in2="effect1_dropShadow_303_7458" result="shape"/>
</filter>
<filter id="filter8_d_303_7458" x="835.152" y="324.213" width="280.22" height="280.966" filterUnits="userSpaceOnUse" color-interpolation-filters="sRGB">
<feFlood flood-opacity="0" result="BackgroundImageFix"/>
<feColorMatrix in="SourceAlpha" type="matrix" values="0 0 0 0 0 0 0 0 0 0 0 0 0 0 0 0 0 0 127 0" result="hardAlpha"/>
<feOffset/>
<feGaussianBlur stdDeviation="7.7"/>
<feComposite in2="hardAlpha" operator="out"/>
<feColorMatrix type="matrix" values="0 0 0 0 0.743069 0 0 0 0 0.831381 0 0 0 0 0.963848 0 0 0 0.25 0"/>
<feBlend mode="normal" in2="BackgroundImageFix" result="effect1_dropShadow_303_7458"/>
<feBlend mode="normal" in="SourceGraphic" in2="effect1_dropShadow_303_7458" result="shape"/>
</filter>
<filter id="filter9_d_303_7458" x="397.154" y="290.585" width="334.01" height="335.958" filterUnits="userSpaceOnUse" color-interpolation-filters="sRGB">
<feFlood flood-opacity="0" result="BackgroundImageFix"/>
<feColorMatrix in="SourceAlpha" type="matrix" values="0 0 0 0 0 0 0 0 0 0 0 0 0 0 0 0 0 0 127 0" result="hardAlpha"/>
<feOffset/>
<feGaussianBlur stdDeviation="7.7"/>
<feComposite in2="hardAlpha" operator="out"/>
<feColorMatrix type="matrix" values="0 0 0 0 0.743069 0 0 0 0 0.831381 0 0 0 0 0.963848 0 0 0 0.25 0"/>
<feBlend mode="normal" in2="BackgroundImageFix" result="effect1_dropShadow_303_7458"/>
<feBlend mode="normal" in="SourceGraphic" in2="effect1_dropShadow_303_7458" result="shape"/>
</filter>
<filter id="filter10_d_303_7458" x="1027.18" y="75.0199" width="336.192" height="333.681" filterUnits="userSpaceOnUse" color-interpolation-filters="sRGB">
<feFlood flood-opacity="0" result="BackgroundImageFix"/>
<feColorMatrix in="SourceAlpha" type="matrix" values="0 0 0 0 0 0 0 0 0 0 0 0 0 0 0 0 0 0 127 0" result="hardAlpha"/>
<feOffset/>
<feGaussianBlur stdDeviation="7.7"/>
<feComposite in2="hardAlpha" operator="out"/>
<feColorMatrix type="matrix" values="0 0 0 0 0.743069 0 0 0 0 0.831381 0 0 0 0 0.963848 0 0 0 0.25 0"/>
<feBlend mode="normal" in2="BackgroundImageFix" result="effect1_dropShadow_303_7458"/>
<feBlend mode="normal" in="SourceGraphic" in2="effect1_dropShadow_303_7458" result="shape"/>
</filter>
<filter id="filter11_d_303_7458" x="1225.16" y="277.585" width="334.01" height="335.958" filterUnits="userSpaceOnUse" color-interpolation-filters="sRGB">
<feFlood flood-opacity="0" result="BackgroundImageFix"/>
<feColorMatrix in="SourceAlpha" type="matrix" values="0 0 0 0 0 0 0 0 0 0 0 0 0 0 0 0 0 0 127 0" result="hardAlpha"/>
<feOffset/>
<feGaussianBlur stdDeviation="7.7"/>
<feComposite in2="hardAlpha" operator="out"/>
<feColorMatrix type="matrix" values="0 0 0 0 0.743069 0 0 0 0 0.831381 0 0 0 0 0.963848 0 0 0 0.25 0"/>
<feBlend mode="normal" in2="BackgroundImageFix" result="effect1_dropShadow_303_7458"/>
<feBlend mode="normal" in="SourceGraphic" in2="effect1_dropShadow_303_7458" result="shape"/>
</filter>
</defs>
</svg>
