<svg width="32" height="32" viewBox="0 0 32 32" fill="none" xmlns="http://www.w3.org/2000/svg">
<path fill-rule="evenodd" clip-rule="evenodd" d="M16.0002 28.8C19.395 28.8 22.6507 27.4514 25.0512 25.0509C27.4516 22.6505 28.8002 19.3947 28.8002 16C28.8002 12.6052 27.4516 9.34945 25.0512 6.94898C22.6507 4.54852 19.395 3.19995 16.0002 3.19995C12.6054 3.19995 9.34969 4.54852 6.94923 6.94898C4.54876 9.34945 3.2002 12.6052 3.2002 16C3.2002 19.3947 4.54876 22.6505 6.94923 25.0509C9.34969 27.4514 12.6054 28.8 16.0002 28.8ZM21.9314 13.9312C22.2228 13.6294 22.3841 13.2252 22.3805 12.8057C22.3768 12.3862 22.2086 11.9849 21.9119 11.6882C21.6153 11.3916 21.214 11.2233 20.7944 11.2197C20.3749 11.216 19.9708 11.3773 19.669 11.6688L14.4002 16.9376L12.3314 14.8688C12.0296 14.5773 11.6255 14.416 11.206 14.4197C10.7864 14.4233 10.3851 14.5916 10.0885 14.8882C9.79183 15.1849 9.62356 15.5862 9.61992 16.0057C9.61627 16.4252 9.77754 16.8294 10.069 17.1312L13.269 20.3312C13.569 20.6311 13.9759 20.7996 14.4002 20.7996C14.8245 20.7996 15.2314 20.6311 15.5314 20.3312L21.9314 13.9312Z" fill="#12C66F"/>
</svg>
